<?xml version="1.0" encoding="utf-8"?>
<!-- Generator: Adobe Illustrator 23.1.1, SVG Export Plug-In . SVG Version: 6.00 Build 0)  -->
<svg version="1.1" id="Layer_1" xmlns="http://www.w3.org/2000/svg" xmlns:xlink="http://www.w3.org/1999/xlink" x="0px" y="0px"
	 viewBox="0 0 158.5 90.6" style="enable-background:new 0 0 158.5 90.6;" xml:space="preserve">
<style type="text/css">
	.st0{fill:none;}
	.st1{fill-rule:evenodd;clip-rule:evenodd;fill:#CD1F36;}
	.st2{fill-rule:evenodd;clip-rule:evenodd;fill:#FEFEFE;}
	.st3{fill-rule:evenodd;clip-rule:evenodd;fill:#F4712A;}
	.st4{fill-rule:evenodd;clip-rule:evenodd;fill:#A41A17;}
	.st5{fill-rule:evenodd;clip-rule:evenodd;fill:#A51B18;}
	.st6{fill-rule:evenodd;clip-rule:evenodd;fill:#F5CD52;}
	.st7{fill-rule:evenodd;clip-rule:evenodd;fill:#D61D25;}
	.st8{fill-rule:evenodd;clip-rule:evenodd;fill:#E12F23;}
	.st9{fill-rule:evenodd;clip-rule:evenodd;fill:#E42F24;}
	.st10{fill-rule:evenodd;clip-rule:evenodd;fill:#F37A2A;}
	.st11{fill-rule:evenodd;clip-rule:evenodd;fill:#AC1C1B;}
	.st12{fill-rule:evenodd;clip-rule:evenodd;fill:#F5D253;}
	.st13{fill-rule:evenodd;clip-rule:evenodd;fill:#F16A2A;}
	.st14{fill-rule:evenodd;clip-rule:evenodd;fill:#F26D2A;}
	.st15{fill-rule:evenodd;clip-rule:evenodd;fill:#F8D652;}
	.st16{fill:#FEFEFE;}
</style>
<g id="Layer_x0020_1">
	<polyline class="st0" points="0,90.6 0,0 158.5,0 158.5,90.6 	"/>
</g>
<g id="_1207393440">
	<polygon class="st1" points="9.1,74.9 152.3,74.8 152.3,15.8 9.1,15.8 	"/>
	<line class="st0" x1="152.3" y1="89.6" x2="9.1" y2="89.7"/>
	<rect x="18.2" y="31.3" class="st2" width="44.4" height="28.2"/>
	<g>
		<path class="st3" d="M31.1,43.6c0,0,9.1-11.4,9.3-11.5l0,0l0,0l0,0l9.1,11.6l0,0c0-0.2,7-11.6,7-11.6H24c0.6,1,1.2,1.9,1.8,2.9
			L31.1,43.6z"/>
		<path class="st4" d="M19.1,48.8c1,0.4,1.9,0.9,2.9,1.3c0.5,0.2,1,0.4,1.4,0.7c0.3,0.2,1.4,0.7,1.4,0.7l3.4-4.2
			c0.2-0.2,2.9-3.5,2.9-3.7c0,0-6.5-10.5-7.1-11.5l-4.9,0C19.1,32.1,19.1,48.8,19.1,48.8z"/>
		<path class="st5" d="M49.5,43.7c0.1,0.1,4.1,4.9,4.9,5.8l1.5,2c0.2,0,4.7-2.3,5.7-2.7V32.1h-5.1c0,0-1.7,2.6-1.9,2.9L49.5,43.7z"
			/>
		<path class="st6" d="M40.4,45.9c0.9,0,6.6,1.8,6.6,1.8c0.2-0.2,2.4-3.9,2.5-4c0-0.2-9.1-11.6-9.1-11.6l0,0l0,0l0,0V45.9L40.4,45.9
			z"/>
		<path class="st7" d="M31.1,43.6c0.1,0.3,2.6,4,2.7,4.1c0.2-0.2,1.2-0.6,1.4-0.7c0.5-0.2,1-0.4,1.5-0.6c1.2-0.4,2.4-0.6,3.8-0.6
			l-0.1-13.7C40.3,32.2,31.1,43.5,31.1,43.6z"/>
		<path class="st8" d="M28.9,53.3L28.9,53.3c0.5,0.2,1,0.5,1.4,0.7c0.5,0.2,9.7,4.6,9.9,4.6c0.1,0,0.1,0,0.2,0
			c-0.2-0.2-6.5-10.7-6.6-10.9c-0.2,0.1-1.6,1.1-2.8,2.4C30,51.2,29.2,52.7,28.9,53.3L28.9,53.3z"/>
		<path class="st9" d="M40.4,58.6c0,0,11.5-5.2,11.7-5.3c0,0-0.4-0.7-0.6-1c-0.4-0.7-1.7-2.3-2.3-2.9c-0.4-0.4-1.7-1.5-2.2-1.7l0,0
			L40.4,58.6L40.4,58.6z"/>
		<path class="st10" d="M33.8,47.7L33.8,47.7c0.1,0.3,6.4,10.7,6.6,10.9l0.1-12.8c-1.3,0-2.6,0.2-3.8,0.6c-0.6,0.2-1.1,0.4-1.5,0.6
			C34.9,47.1,34,47.5,33.8,47.7z"/>
		<path class="st11" d="M40.4,58.6c1.1-1.7,6.6-10.9,6.6-10.9s-1.4-0.7-2.9-1.2c-1.5-0.5-3.1-0.7-3.6-0.7L40.4,58.6
			C40.4,58.6,40.5,58.5,40.4,58.6z"/>
		<path class="st12" d="M52,53.3L52,53.3c0.3,0.8,1.3,4.5,1.2,5.3v0.1l8.5-0.1L56,51.4C56,51.4,52.7,53,52,53.3L52,53.3z"/>
		<path class="st13" d="M24.9,51.4c0.1,0,0.4,0.2,0.5,0.3c0.1,0,3.4,1.5,3.6,1.5c0.3-0.6,1.1-2,2.2-3.2c1.1-1.2,2.6-2.2,2.7-2.3
			l-2.7-4.1c0,0.2-2.8,3.4-3,3.6L24.9,51.4L24.9,51.4z"/>
		<path class="st14" d="M47,47.7l0.1,0.1c0.2,0.1,1.6,1.2,2.8,2.6c1.2,1.4,2,3,2.1,3.1c0.6-0.3,3.7-1.8,4-2l0,0l-6.5-7.7L47,47.7z"
			/>
		<path class="st5" d="M40.4,58.6c0,0,4.4,0,6.5,0c1.1,0,2.1,0,3.2,0c0.5,0,3.1,0.1,3.1,0.1s0-1.3-0.3-2.6c-0.2-1.2-0.8-2.4-0.9-2.8
			C51.7,53.4,40.4,58.6,40.4,58.6z"/>
		<path class="st4" d="M27.7,58.6c0.5,0.1,2.5,0,3.1,0c2,0,8.6-0.1,9.6,0l-1.5-0.7c-0.5-0.2-9.6-4.5-10-4.7
			c-0.1,0.3-1.1,1.8-1.2,2.3C27.5,56.3,27.5,57.8,27.7,58.6L27.7,58.6z"/>
		<path class="st14" d="M24.9,51.4c0,0-4.8-2.2-5.8-2.6v9.8L24.9,51.4z"/>
		<path class="st13" d="M61.7,58.6l-0.1-10C60.7,49,56,51.4,56,51.4S61.6,58.6,61.7,58.6z"/>
		<path class="st15" d="M24.9,51.4c0,0-5.7,7.1-5.8,7.2h8.7c0,0-0.2-1.1,0.1-2.6c0.3-1.5,1-2.8,1-2.8L24.9,51.4z"/>
	</g>
	<g>
		<path class="st16" d="M72.1,37.6h1.6L73,33.4h-0.1L72.1,37.6L72.1,37.6z M69.3,41.5l2.1-10.2h3l2.1,10.2h-2.1L74,39.7h-2.3
			l-0.3,1.8H69.3z M77.3,41.5V31.3H81c1,0,1.8,0.3,2.2,0.9c0.4,0.6,0.6,1.7,0.6,3.2v2.1c0,1.5-0.2,2.6-0.6,3.2S82,41.6,81,41.6
			L77.3,41.5L77.3,41.5z M79.2,39.3h1.5c0.4,0,0.8-0.1,0.9-0.3c0.2-0.2,0.2-0.8,0.2-1.6v-1.7c0-0.9-0.1-1.4-0.2-1.7
			c-0.2-0.2-0.4-0.3-0.9-0.3h-1.5V39.3L79.2,39.3z M85,41.5V31.3h2v10.2H85z M89.9,41.5v-8H88v-2.3h5.7v2.3h-1.9v8H89.9L89.9,41.5z
			 M93.9,31.3h2.2l1.3,4l1.3-4h2.2L98.5,38v3.6h-1.9V38L93.9,31.3L93.9,31.3z M102.9,37.7h1.6l-0.7-4.2h-0.1L102.9,37.7L102.9,37.7z
			 M100.1,41.6l2.1-10.2h3l2.1,10.2h-2.1l-0.3-1.8h-2.3l-0.3,1.8H100.1z M111.6,31.3h3.5c0.9,0,1.5,0.2,1.9,0.5s0.5,1,0.5,1.8v0.6
			c0,0.6-0.1,1-0.3,1.4c-0.2,0.3-0.5,0.5-0.9,0.6c0.4,0.1,0.8,0.4,1,0.7c0.2,0.4,0.4,0.8,0.4,1.4V39c0,1-0.2,1.7-0.5,2.1
			c-0.4,0.4-1.1,0.6-2.1,0.6h-3.4L111.6,31.3L111.6,31.3z M113.5,33.6v1.8h1.4c0.2,0,0.4-0.1,0.4-0.2c0.1-0.1,0.2-0.3,0.2-0.5v-0.4
			c0-0.3-0.1-0.4-0.2-0.5s-0.2-0.2-0.4-0.2C114.9,33.6,113.5,33.6,113.5,33.6z M113.5,37.4v1.9h1.5c0.2,0,0.4-0.1,0.5-0.2
			c0.1-0.1,0.2-0.3,0.2-0.5v-0.4c0-0.3-0.1-0.4-0.2-0.5s-0.3-0.2-0.5-0.2L113.5,37.4L113.5,37.4z M118.8,41.6V31.4h2v10.2H118.8z
			 M129.4,41.6V31.4h2v7.8h3.2v2.4C134.6,41.6,129.4,41.6,129.4,41.6z M138,37.7h1.6l-0.7-4.2h-0.1L138,37.7L138,37.7z M135.1,41.6
			l2.1-10.2h3l2.1,10.2h-2.1l-0.3-1.8h-2.3l-0.3,1.8H135.1z"/>
		<path class="st16" d="M124.6,33.1h-0.4v2.8h0.4c0.5,0,1-0.1,1.2-0.4s0.4-0.6,0.4-1.1s-0.2-0.8-0.4-1S125.1,33.1,124.6,33.1
			L124.6,33.1z M122.1,41.5V31.3h2.3c0.8,0,1.4,0.1,1.7,0.2c0.4,0.1,0.8,0.3,1.1,0.5c0.3,0.3,0.6,0.6,0.8,1c0.2,0.4,0.3,0.8,0.3,1.2
			c0,0.6-0.2,1.2-0.4,1.7c-0.3,0.5-0.7,0.9-1.2,1.1l1.7,4.4h-2.1l-1.6-4h-0.5v4L122.1,41.5L122.1,41.5z"/>
	</g>
	<path class="st16" d="M77.9,53.7v0.4c0,1.9-0.3,3.2-0.9,4.1c-0.6,0.8-1.6,1.2-2.9,1.2h-0.9c-1.5,0-2.5-0.4-3-1.3
		c-0.6-0.9-0.9-2.4-0.9-4.7v-3c0-2.2,0.3-3.7,0.9-4.7c0.6-0.9,1.6-1.3,3-1.3H74c1.5,0,2.4,0.4,3,1.1c0.6,0.8,0.9,2.1,0.9,4.1V50
		h-2.8v-0.3c0-0.6-0.1-1.1-0.3-1.4c-0.2-0.3-0.6-0.4-1.1-0.4c-0.6,0-1,0.2-1.2,0.5s-0.3,1.1-0.3,2.4v2.4c0,1.2,0.1,2,0.3,2.3
		c0.2,0.3,0.6,0.5,1.2,0.5c0.5,0,0.9-0.2,1.1-0.4c0.2-0.3,0.3-0.8,0.3-1.6v-0.3H77.9L77.9,53.7z M84.1,53.8h2.3l-1-6.1h-0.2
		L84.1,53.8L84.1,53.8z M80.2,59.3l3-14.6h4.2l2.9,14.6h-3l-0.5-2.5h-3.2l-0.5,2.5L80.2,59.3C80.1,59.3,80.2,59.3,80.2,59.3z
		 M93.2,59.3V44.7H98c1.4,0,2.3,0.4,2.9,1.1s0.9,2,0.9,3.7v1c0,1.7-0.3,3-0.9,3.7s-1.6,1.1-2.9,1.1h-2v3.9L93.2,59.3L93.2,59.3z
		 M96,52.1h1.9c0.4,0,0.8-0.1,0.9-0.3s0.2-0.7,0.2-1.4v-0.9c0-0.6-0.1-1-0.3-1.2c-0.2-0.2-0.5-0.4-1-0.4H96V52.1z M105.1,59.3V44.7
		h2.8v14.6C107.9,59.3,105.1,59.3,105.1,59.3z M113.8,59.3V48h-2.7v-3.2h8.1V48h-2.7v11.3H113.8z M124,53.8h2.3l-1-6.1h-0.2
		L124,53.8L124,53.8z M120,59.3l3-14.6h4.2l2.9,14.6h-3l-0.5-2.5h-3.2l-0.5,2.5h-3C119.9,59.3,120,59.3,120,59.3z M133.1,59.3V44.7
		h2.8v11.2h6.4v3.4L133.1,59.3L133.1,59.3z"/>
</g>
</svg>
