<?xml version="1.0" encoding="utf-8"?>
<!-- Generator: Adobe Illustrator 24.0.1, SVG Export Plug-In . SVG Version: 6.00 Build 0)  -->
<svg version="1.1" id="Layer_1" xmlns="http://www.w3.org/2000/svg" xmlns:xlink="http://www.w3.org/1999/xlink" x="0px" y="0px"
	 viewBox="0 0 158.5 90.6" style="enable-background:new 0 0 158.5 90.6;" xml:space="preserve">
<style type="text/css">
	.st0{fill:none;}
	.st1{fill-rule:evenodd;clip-rule:evenodd;fill:#E01C24;}
	.st2{fill-rule:evenodd;clip-rule:evenodd;fill:#FEFEFE;}
	.st3{fill-rule:evenodd;clip-rule:evenodd;fill:#E41D25;}
	.st4{fill:#E01C24;}
</style>
<g id="Layer_x0020_1">
	<rect x="0" y="0" class="st0" width="158.5" height="90.6"/>
</g>
<g id="Layer_x0020_1_0">
	<g id="_1236707392">
		<path class="st1" d="M91.2,35.1c5.3-0.4,9,2,9.5,6.9c0.5,5.4-2.4,8.5-7.4,9c-2.4,0.2-5-0.3-6.6-1.5c-0.2-0.2-0.4-0.3-0.6-0.5
			c-1.4-1.3-2.1-2.9-2.2-4.9C83.4,38.7,86.3,35.5,91.2,35.1z M52.9,35.4h8.2c1.4,0,2.6,0.4,3.6,1c2.6,1.6,2.6,6,0.2,7.8
			c-0.5,0.4-0.9,0.5-1.6,0.7l3.8,5.2c0.2,0.2,0.4,0.5,0.5,0.7l-4.9,0l-3-4.2c-0.3-0.5-0.7-0.9-1-1.4l-1.5,0l0,5.6h-4.3L52.9,35.4
			L52.9,35.4z M39.4,35.4h12.2v3.3l-8,0v2.9l7.4,0c0,0.8,0,2.2,0,3l-7.4,0l0,2.9h8v3.3H39.4L39.4,35.4L39.4,35.4z M82.9,50.5
			c-2,0.2-4.1,0.5-6.1,0.5c-2.2,0.1-3.9-0.1-5.6-1c-3.4-1.6-4.5-5.6-3.7-9.1c0.8-3.6,3.2-5.8,7.3-5.9c2.7-0.1,5.8,0.4,7.3,2.6
			c0.4,0.5,0.8,1.6,0.8,2.4h-4.3c-0.3-0.8-0.8-1.3-1.6-1.6c-0.8-0.3-2-0.2-2.8,0c-1.6,0.5-2.2,2-2.4,4c-0.1,2.1,0.3,3.9,1.5,4.8
			c0.6,0.5,1.4,0.7,2.4,0.8c0.6,0,2.3-0.1,2.8-0.3l0-2.7h-2.8l0-3l7,0V50.5L82.9,50.5z M39.4,17.4c0.7,0,3.9-0.1,4.3,0v5.9h6.6v-5.9
			l4.3,0l0,16.5l-4.3,0l0-6.5l-6.6,0l0,6.5h-4.3L39.4,17.4L39.4,17.4z M55.7,17.4h7.8c1.7,0,3.3,0.5,4.7,1.4
			c0.5,0.4,1.2,0.9,1.6,1.4c0.4,0.5,0.8,1.2,1.1,1.9c0.4,1,0.6,2.2,0.6,3.4c0,2.6-0.8,4.5-2.1,5.9c-1.3,1.5-3.6,2.4-5.7,2.4h-8
			L55.7,17.4z M72.3,17.4h11.9c0,1,0,3.4,0,4.3l-7.4,0l0,2.2l6.9,0v4l-6.9,0l0,6h-4.4L72.3,17.4L72.3,17.4z M100.7,32
			c-0.4,0.4-1.5,0.9-2.1,1.2c-2.6,1-5.8,1.2-8.4,0.4c-3.4-1-5.5-3.3-5.7-7.4c-0.1-1.9,0.5-3.9,1.3-5.2c0.8-1.2,2-2.2,3.7-2.8
			c1.8-0.7,3.7-0.8,5.7-0.6c1.6,0.2,3.8,0.7,5,1.5l-1.5,4.2c-0.2-0.1-0.4-0.3-0.6-0.4c-2.9-2-8.9-1.9-9,2.7
			c-0.1,2.5,1.3,3.7,3.5,4.1c2,0.3,4-0.2,5.6-1.4c0.1-0.1,0.2-0.1,0.2-0.2C98.6,28.1,100.6,31.7,100.7,32L100.7,32z M36.4,64.5h85.8
			L122,2H36.3L36.4,64.5z"/>
		<path class="st2" d="M60.3,29.8v-8.4c0.9,0,1.8,0,2.7,0c1.1,0,1.4,0,2.2,0.5c2.3,1.5,2.5,5.6,0,7.3c-0.7,0.5-1.2,0.6-2.2,0.6
			C62.2,29.8,61.2,29.9,60.3,29.8z M55.7,33.9h8c2,0,4.4-0.9,5.7-2.4c1.3-1.4,2.1-3.3,2.1-5.9c0-1.2-0.2-2.4-0.6-3.4
			c-0.3-0.7-0.7-1.4-1.1-1.9c-0.4-0.5-1-1.1-1.6-1.4c-1.3-0.9-3-1.4-4.7-1.4h-7.8L55.7,33.9z"/>
		<path class="st2" d="M39.4,33.9h4.3l0-6.5l6.6,0l0,6.5l4.3,0l0-16.5l-4.3,0v5.9h-6.6v-5.9c-0.4-0.1-3.6,0-4.3,0L39.4,33.9
			L39.4,33.9z"/>
		<path class="st2" d="M91.9,38.2c2.9-0.2,4.1,1.7,4.2,4.4c0.1,2.8-0.7,5-3.4,5.2c-2.9,0.2-4.1-1.6-4.2-4.4
			C88.4,40.6,89.2,38.5,91.9,38.2L91.9,38.2z M91.2,35.1c-4.9,0.4-7.8,3.6-7.4,9c0.2,2,0.9,3.6,2.2,4.9c0.2,0.2,0.4,0.3,0.6,0.5
			c1.6,1.2,4.2,1.7,6.6,1.5c4.9-0.4,7.8-3.6,7.4-9C100.3,37.1,96.5,34.6,91.2,35.1z"/>
		<path class="st2" d="M82.9,50.5v-8.3l-7,0l0,3h2.8l0,2.7c-0.5,0.2-2.2,0.4-2.8,0.3c-0.9-0.1-1.8-0.3-2.4-0.8
			c-1.2-1-1.6-2.7-1.5-4.8c0.1-2,0.8-3.5,2.4-4c0.8-0.2,2-0.3,2.8,0c0.8,0.3,1.3,0.8,1.6,1.6h4.3c0-0.8-0.5-1.9-0.8-2.4
			c-1.5-2.2-4.6-2.7-7.3-2.6c-4.1,0.2-6.5,2.3-7.3,5.9c-0.7,3.5,0.3,7.4,3.7,9.1c1.8,0.8,3.5,1,5.6,1C78.9,51,80.9,50.8,82.9,50.5
			L82.9,50.5z"/>
		<path class="st2" d="M57.2,38.7c0.5-0.1,3.2-0.1,3.7,0c1.1,0.2,1.9,0.7,1.8,1.9c0,1.1-0.8,1.8-1.8,1.9c-0.4,0.1-3.3,0.1-3.7,0
			L57.2,38.7z M52.9,50.8h4.3l0-5.6l1.5,0c0.3,0.5,0.7,0.9,1,1.4l3,4.2l4.9,0c-0.1-0.2-0.3-0.5-0.5-0.7l-3.8-5.2
			c0.7-0.2,1.1-0.3,1.6-0.7c2.4-1.8,2.4-6.2-0.2-7.8c-1-0.6-2.2-1-3.6-1h-8.2L52.9,50.8L52.9,50.8z"/>
		<path class="st2" d="M100.7,32c-0.1-0.3-2.1-3.9-2.2-4c-0.1,0.1-0.1,0.1-0.2,0.2c-1.6,1.2-3.5,1.8-5.6,1.4
			c-2.3-0.4-3.6-1.6-3.5-4.1c0.2-4.6,6.2-4.7,9-2.7c0.2,0.1,0.4,0.3,0.6,0.4l1.5-4.2c-1.2-0.8-3.4-1.3-5-1.5c-2-0.2-3.9-0.1-5.7,0.6
			c-1.7,0.7-2.9,1.6-3.7,2.8c-0.9,1.3-1.5,3.2-1.3,5.2c0.2,4.1,2.3,6.3,5.7,7.4c2.6,0.8,5.8,0.6,8.4-0.4
			C99.3,33,100.4,32.4,100.7,32L100.7,32z"/>
		<path class="st2" d="M39.4,50.8h12.3v-3.3h-8l0-2.9l7.4,0c0-0.7,0-2.2,0-3l-7.4,0v-2.9l8,0v-3.3H39.4L39.4,50.8L39.4,50.8z"/>
		<path class="st2" d="M72.3,33.9h4.4l0-6l6.9,0v-4l-6.9,0l0-2.2l7.4,0c0.1-0.9,0-3.3,0-4.3H72.3L72.3,33.9L72.3,33.9z"/>
		<path class="st3" d="M91.9,38.2c-2.7,0.2-3.5,2.3-3.4,5.2c0.1,2.7,1.3,4.6,4.2,4.4c2.7-0.2,3.5-2.4,3.4-5.2
			C96,39.9,94.8,38,91.9,38.2L91.9,38.2z"/>
		<path class="st3" d="M60.3,29.8c0.8,0.1,1.9,0,2.7,0c1,0,1.5-0.1,2.2-0.6c2.5-1.8,2.3-5.9,0-7.3c-0.8-0.5-1.1-0.5-2.2-0.5
			c-0.9,0-1.8,0-2.7,0V29.8z"/>
		<path class="st3" d="M57.2,42.5c0.4,0.1,3.3,0.1,3.7,0c1.1-0.1,1.8-0.8,1.8-1.9c0.1-1.2-0.7-1.8-1.8-1.9c-0.5-0.1-3.2-0.1-3.7,0
			L57.2,42.5z"/>
	</g>
</g>
<g>
	<path class="st4" d="M50.6,87.8h-4v-7h-6.4v7h-4V70.5h4v7.3h6.4v-7.3h4V87.8z"/>
	<path class="st4" d="M64.2,80.4h-6.8v4.3h8v3.1H53.4V70.5h12.1v3.1h-8.1v3.7h6.8V80.4z"/>
	<path class="st4" d="M76.5,84.5H71l-1,3.4H66l5.6-17.4h4.3l5.6,17.4h-4.1L76.5,84.5z M71.9,81.4h3.7l-1.8-6.2h-0.1L71.9,81.4z"/>
	<path class="st4" d="M86.8,84.7h7.5v3.1H82.8V70.5h4V84.7z"/>
	<path class="st4" d="M105.7,73.6h-4.6v14.3h-4V73.6h-4.5v-3.1h13.2V73.6z"/>
	<path class="st4" d="M121.8,87.8h-4v-7h-6.4v7h-4V70.5h4v7.3h6.4v-7.3h4V87.8z"/>
</g>
</svg>
