<svg width="87" height="60" viewBox="0 0 87 60" fill="none" xmlns="http://www.w3.org/2000/svg">
<path d="M32.6593 22.7704H27.3899V42.638H32.6593C32.824 42.638 32.8788 42.638 32.8788 42.4172V23.1015C33.0435 22.8808 33.0435 22.7704 32.6593 22.7704Z" fill="#080A0B"/>
<path d="M16.9609 12.6711C16.5766 12.6711 16.7413 13.5541 16.7413 13.83V24.0949C15.0946 23.0464 13.8322 22.4393 11.4719 22.4393C8.56276 22.4393 6.09273 23.5982 4.1716 25.7506C2.52491 27.6821 1.97601 30.1104 1.97601 32.7042C1.97601 34.9117 2.19557 36.457 3.40314 38.4989C3.78737 39.2715 4.28138 39.6578 4.83027 40.3201C5.48895 40.9824 5.98295 41.479 6.75141 41.755C6.91608 41.9205 6.97097 41.9205 7.13563 41.9757C7.3003 42.1413 7.51986 42.1965 7.79431 42.1965C8.94699 42.5828 10.8681 43.0795 12.0208 42.9691C13.1735 42.8587 13.4479 42.8035 14.8751 42.3069C15.2593 42.0861 15.6435 41.9205 16.0277 41.6446C16.412 41.479 16.7962 40.9823 17.0707 40.9823V42.2517H22.3401V12.6159L16.9609 12.6711ZM12.0757 37.8367C11.911 37.8367 11.911 37.8367 11.8561 37.8367C5.15961 37.8367 5.15961 27.4062 11.8561 27.4062C12.0208 27.4062 12.0208 27.4062 12.0757 27.4062C18.7722 27.4062 18.7722 37.8367 12.0757 37.8367Z" fill="#080A0B"/>
<path d="M67.2946 22.8808H61.9154V42.638H67.2946V22.8808Z" fill="#080A0B"/>
<path d="M84.8593 28.0684V22.936H78.547V18.9625H75.6927C75.5281 18.9625 75.4732 19.128 75.3085 19.1832L70.9722 24.5916C70.8076 24.7572 70.8076 24.8124 70.7527 24.9779C70.588 25.1435 70.5331 25.1987 70.5331 25.6402V27.6821C70.5331 27.8477 70.5331 27.9029 70.7527 27.9029H73.4423V35.9051C73.4423 38.1126 74.2107 39.6578 75.2536 40.8168C76.4063 41.9757 78.1079 42.7483 79.9741 42.7483H85.0788V37.6159H81.1268C79.4801 37.6159 78.8214 36.4569 78.8214 34.9117V27.958H84.8044L84.8593 28.0684Z" fill="#080A0B"/>
<path d="M51.1022 22.8808V24.1501C50.224 23.4879 50.0593 23.3775 49.0713 22.9912C47.4246 22.2185 45.3388 22.2185 43.6921 22.7704C40.4536 23.5431 38.3129 26.0817 37.27 29.2274C37.0505 29.8896 37.0505 30.3863 36.8858 31.1589C36.5016 34.0839 37.5445 36.5673 39.3009 38.9956C42.2101 41.4238 45.229 42.8587 48.9066 41.4238C49.2908 41.2583 49.7849 41.2031 50.0593 41.0375C50.2789 40.872 50.4435 40.872 50.718 40.8168C50.9375 40.6512 50.9375 40.596 51.3767 40.596C51.3767 42.638 51.5413 43.521 50.6082 44.7351C49.1811 46.6667 45.0644 47.053 43.3079 44.5695C43.0883 44.404 42.6492 43.6865 42.6492 43.4106L37.6543 44.9559C37.8189 45.8389 38.4227 46.777 38.8069 47.3841C40.4536 49.702 43.3079 51.1369 46.3817 51.2472H47.1502C50.6082 51.0817 54.0662 49.4261 55.6032 46.1148C55.9874 45.2318 56.4814 43.6865 56.4814 42.362V22.936H51.1022V22.8808ZM46.7659 37.4503C46.6013 37.4503 46.6013 37.4503 46.6013 37.4503C39.9047 37.4503 39.9047 27.0199 46.6013 27.0199C46.6013 27.0199 46.6013 27.0199 46.7659 27.0199C46.7659 27.0199 46.7659 27.0199 46.9306 27.0199C53.4076 27.0199 53.4076 37.4503 46.7659 37.4503Z" fill="#080A0B"/>
<path d="M56.3716 16.9757V13.0022C56.3716 12.8367 56.3716 12.7815 56.152 12.7815H29.9697V17.0309C29.9697 16.9757 56.3716 16.9757 56.3716 16.9757Z" fill="#080A0B"/>
<path d="M61.7508 19.128C63.6719 19.128 62.9034 19.2936 63.5621 18.4658L67.0202 14.4923L63.7268 10.7395C63.3426 10.3532 63.0681 9.96689 62.8486 9.96689H61.6959V19.0177H61.8605L61.7508 19.128Z" fill="#FCB919"/>
</svg>
