<svg width="68" height="60" viewBox="0 0 68 60" fill="none" xmlns="http://www.w3.org/2000/svg">
<path fill-rule="evenodd" clip-rule="evenodd" d="M43.3153 30.8696C47.5619 30.4449 50.5345 32.5682 50.7468 36.3901C51.1715 40.6367 48.8358 43.1847 44.8016 43.397C42.8906 43.6094 40.7673 43.1847 39.4933 42.123C39.281 41.9107 39.0687 41.9107 39.0687 41.6984C38.007 40.6367 37.37 39.3628 37.37 37.8764C37.1577 33.8422 39.4933 31.2942 43.3153 30.8696ZM12.9521 31.2942H19.5343C20.596 31.2942 21.6576 31.5066 22.5069 32.1435C24.6302 33.4175 24.6302 36.8148 22.7193 38.3011C22.2946 38.5134 22.0823 38.7258 21.4453 38.9381L24.4179 42.9724C24.6303 43.1847 24.6302 43.397 24.8426 43.6094H21.0206L18.685 40.2121C18.4727 39.7874 18.048 39.3628 17.8357 39.1504H16.5617V43.6094H13.1644L12.9521 31.2942ZM2.33562 31.2942H12.1028V33.8422H5.7329V36.1778H11.4658C11.4658 36.8148 11.4658 37.8764 11.4658 38.5134H5.7329V40.8491H12.1028V43.397H2.33562V31.2942ZM36.7331 43.1847C35.2467 43.397 33.5481 43.6094 31.8495 43.6094C30.1508 43.6094 28.8768 43.6094 27.3905 42.76C24.6302 41.4861 23.7809 38.3011 24.4179 35.5408C25.0549 32.7805 26.9659 30.8696 30.1508 30.8696C32.2741 30.8696 34.8221 31.0819 35.8837 32.9929C36.096 33.4175 36.5207 34.2668 36.5207 34.9038H33.3358C33.1234 34.2668 32.6988 33.8422 32.0618 33.6299C31.4248 33.4175 30.3631 33.4175 29.9385 33.6299C28.6645 34.0545 28.2398 35.1162 28.0275 36.8148C28.0275 38.5134 28.2399 39.7874 29.3015 40.6367C29.7262 41.0614 30.3631 41.2737 31.2125 41.2737C31.6371 41.2737 33.1234 41.2737 33.5481 41.0614V38.9381H31.4248V36.6025H36.9454V43.1847H36.7331ZM2.33562 16.8558C2.97261 16.8558 5.30824 16.8558 5.7329 16.8558V21.7394H11.0411V17.0681H14.4384V30.2326H11.0411V25.1367H5.7329V30.2326H2.33562V16.8558ZM15.2877 16.8558H21.4453C22.7193 16.8558 24.2056 17.2805 25.0549 17.9175C25.4796 18.1298 25.9042 18.5544 26.3289 18.9791C26.7535 19.4038 26.9659 20.0408 27.1782 20.4654C27.3905 21.3147 27.6029 22.1641 27.6029 23.2257C27.6029 25.349 26.9659 26.8353 25.9042 27.897C24.8426 28.9586 22.9316 29.8079 21.4453 29.8079H15.0754L15.2877 16.8558ZM28.4522 16.8558H37.7947C37.7947 17.7051 37.7947 19.6161 37.7947 20.2531H31.8495V21.9517H37.37V25.1367H31.8495V29.8079H28.4522V16.8558ZM50.9591 28.5339C50.7468 28.7463 49.6852 29.1709 49.2605 29.3833C47.1372 30.2326 44.5892 30.4449 42.6783 29.8079C39.918 28.9586 38.4317 27.26 38.2194 23.8627C38.2194 22.3764 38.644 20.8901 39.281 19.8284C39.918 18.7668 40.7673 18.1298 42.2536 17.4928C43.7399 16.8558 45.2262 16.8558 46.7125 17.0681C47.9865 17.2805 49.6851 17.7051 50.7468 18.3421L49.6851 21.7394C49.4728 21.7394 49.4728 21.5271 49.2605 21.5271C46.9249 19.8284 42.2536 20.0408 42.0413 23.6504C42.0413 25.5613 43.1029 26.623 44.8016 26.8353C46.5002 27.0476 47.9865 26.623 49.2605 25.7737L49.4728 25.5613C49.2605 25.349 50.7468 28.3216 50.9591 28.5339ZM0 59.7464H67.9455V0.71875H0V59.7464Z" fill="#E01C24"/>
<path fill-rule="evenodd" clip-rule="evenodd" d="M18.8987 26.8355V20.2533C19.5357 20.2533 20.385 20.2533 21.022 20.2533C21.8713 20.2533 22.0836 20.2533 22.7206 20.678C24.6316 21.7396 24.8439 25.1369 22.7206 26.4109C22.0836 26.8355 21.8713 26.8355 21.022 26.8355C20.385 26.8355 19.5357 26.8355 18.8987 26.8355ZM15.2891 30.0205H21.659C23.3576 30.0205 25.0562 29.3835 26.1179 28.1095C27.1795 27.0479 27.8165 25.5615 27.8165 23.4382C27.8165 22.3766 27.6042 21.5273 27.3919 20.678C27.1795 20.041 26.9672 19.6163 26.5425 19.1917C26.1179 18.767 25.6932 18.3423 25.2686 18.13C24.2069 17.493 22.9329 17.0684 21.659 17.0684H15.5014L15.2891 30.0205Z" fill="#FEFEFE"/>
<path fill-rule="evenodd" clip-rule="evenodd" d="M2.33594 30.0209H5.73321V24.925H11.0415V30.0209H14.4387V16.8564H11.0415V21.74H5.73321V17.0688C5.30855 17.0688 2.97293 17.0688 2.33594 17.0688V30.0209Z" fill="#FEFEFE"/>
<path fill-rule="evenodd" clip-rule="evenodd" d="M43.9507 33.4174C46.2864 33.2051 47.1357 34.6914 47.348 36.8147C47.348 38.938 46.711 40.8489 44.5877 40.8489C42.2521 41.0613 41.4028 39.575 41.1904 37.4517C41.1904 35.3284 41.8274 33.6297 43.9507 33.4174ZM43.3137 30.8694C39.4918 31.0818 37.1562 33.8421 37.5808 38.0887C37.7932 39.7873 38.2178 40.8489 39.2795 41.9106C39.4918 42.1229 39.4918 42.1229 39.7041 42.3352C40.9781 43.3969 43.1014 43.6092 45.0124 43.6092C48.8343 43.3969 51.17 40.8489 50.9576 36.6023C50.533 32.5681 47.5603 30.6571 43.3137 30.8694Z" fill="#FEFEFE"/>
<path fill-rule="evenodd" clip-rule="evenodd" d="M36.7346 43.1852V36.603H31.214V38.9386H33.3373V41.0619C32.9127 41.2743 31.6387 41.2743 31.0017 41.2743C30.3647 41.2743 29.5154 41.0619 29.0907 40.6373C28.0291 39.788 27.8168 38.514 27.8168 36.8154C27.8168 35.329 28.4538 34.0551 29.7277 33.6304C30.3647 33.4181 31.4264 33.4181 31.851 33.6304C32.488 33.8427 32.9127 34.2674 33.125 34.9044H36.5223C36.5223 34.2674 36.0976 33.4181 35.8853 32.9934C34.6113 31.2948 32.2757 30.8701 30.1524 30.8701C26.9675 31.0824 25.0565 32.7811 24.4195 35.5414C23.7825 38.3017 24.6318 41.4866 27.3921 42.7606C28.8784 43.3976 30.1524 43.6099 31.851 43.6099C33.5497 43.6099 35.2483 43.3976 36.7346 43.1852Z" fill="#FEFEFE"/>
<path fill-rule="evenodd" clip-rule="evenodd" d="M16.3479 33.8413C16.7725 33.8413 18.8958 33.8413 19.3205 33.8413C20.1698 34.0537 20.8068 34.4783 20.8068 35.3276C20.8068 36.177 20.1698 36.814 19.3205 36.814C18.8958 36.814 16.5602 36.814 16.3479 36.814V33.8413ZM12.9506 43.3962H16.3479V38.9373H17.6219C17.8342 39.3619 18.0465 39.7866 18.4712 39.9989L20.8068 43.3962H24.6287C24.4164 43.1839 24.4164 42.9715 24.2041 42.7592L21.2315 38.7249C21.6561 38.5126 22.0808 38.5126 22.5054 38.0879C24.4164 36.6016 24.4164 33.2044 22.2931 31.9304C21.4438 31.5057 20.5945 31.0811 19.3205 31.0811H12.7383L12.9506 43.3962Z" fill="#FEFEFE"/>
<path fill-rule="evenodd" clip-rule="evenodd" d="M50.9599 28.5329C50.9599 28.3206 49.2613 25.348 49.2613 25.348C49.2613 25.348 49.049 25.348 49.049 25.5603C47.775 26.6219 46.2887 27.0466 44.59 26.6219C42.8914 26.4096 41.6174 25.348 41.8298 23.437C42.0421 19.8274 46.7133 19.6151 49.049 21.3137C49.2613 21.526 49.2613 21.526 49.4736 21.526L50.5353 18.1288C49.686 17.4918 47.775 17.0671 46.501 16.8548C44.8024 16.6425 43.3161 16.8548 42.0421 17.2794C40.7681 17.7041 39.7065 18.5534 39.0695 19.6151C38.4325 20.6767 38.0078 22.163 38.0078 23.6493C38.2201 26.8343 39.9188 28.7452 42.4667 29.5946C44.59 30.2316 47.138 30.0192 49.049 29.1699C49.6859 29.1699 50.5353 28.7452 50.9599 28.5329Z" fill="#FEFEFE"/>
<path fill-rule="evenodd" clip-rule="evenodd" d="M2.33594 43.3967H12.1031V40.8488H5.73321V38.5132H11.4661C11.4661 37.8762 11.4661 36.8145 11.4661 36.1775H5.73321V33.8419H12.1031V31.2939H2.33594V43.3967Z" fill="#FEFEFE"/>
<path fill-rule="evenodd" clip-rule="evenodd" d="M28.4531 30.0205H31.8504V25.3492H37.371V22.1643H31.8504V20.4656H37.7957C37.7957 19.8286 37.7957 17.9177 37.7957 17.0684H28.4531V30.0205Z" fill="#FEFEFE"/>
<path fill-rule="evenodd" clip-rule="evenodd" d="M43.9517 33.4176C41.8284 33.63 41.1914 35.3286 41.1914 37.4519C41.1914 39.5752 42.2531 41.0615 44.5887 40.8492C46.712 40.6368 47.349 38.9382 47.349 36.8149C47.1367 34.6916 46.2873 33.2053 43.9517 33.4176Z" fill="#E41D25"/>
<path fill-rule="evenodd" clip-rule="evenodd" d="M18.8945 26.8352C19.5315 26.8352 20.3808 26.8352 21.0178 26.8352C21.8671 26.8352 22.2918 26.8352 22.7165 26.4105C24.6274 24.9242 24.4151 21.7392 22.7165 20.6776C22.0795 20.2529 21.8671 20.2529 21.0178 20.2529C20.3808 20.2529 19.5315 20.2529 18.8945 20.2529V26.8352Z" fill="#E41D25"/>
<path fill-rule="evenodd" clip-rule="evenodd" d="M16.3516 36.8144C16.5639 36.8144 18.8995 36.8144 19.3242 36.8144C20.1735 36.8144 20.8105 36.1774 20.8105 35.3281C20.8105 34.4788 20.1735 33.8418 19.3242 33.8418C18.8995 33.8418 16.7762 33.8418 16.3516 33.8418V36.8144Z" fill="#E41D25"/>
</svg>
