<?xml version="1.0" encoding="UTF-8"?>
<!DOCTYPE svg PUBLIC "-//W3C//DTD SVG 1.1//EN" "http://www.w3.org/Graphics/SVG/1.1/DTD/svg11.dtd">
<!-- Creator: CorelDRAW X6 -->
<svg xmlns="http://www.w3.org/2000/svg" xml:space="preserve" width="2.75996in" height="1.57685in" version="1.1" style="shape-rendering:geometricPrecision; text-rendering:geometricPrecision; image-rendering:optimizeQuality; fill-rule:evenodd; clip-rule:evenodd"
viewBox="0 0 769 439"
 xmlns:xlink="http://www.w3.org/1999/xlink">
 <defs>
  <style type="text/css">
   <![CDATA[
    .fil0 {fill:none}
    .fil1 {fill:#214A80}
    .fil7 {fill:#524D73}
    .fil11 {fill:#55526C}
    .fil15 {fill:#635D83}
    .fil12 {fill:#65627C}
    .fil5 {fill:#716E84}
    .fil14 {fill:#79768A}
    .fil6 {fill:#817E97}
    .fil10 {fill:#827EA1}
    .fil9 {fill:#85839B}
    .fil8 {fill:#A5A3B3}
    .fil13 {fill:#ADAAC3}
    .fil4 {fill:#FDFDFB}
    .fil3 {fill:#FDFDFD}
    .fil2 {fill:#FEFEFE}
   ]]>
  </style>
 </defs>
 <g id="Layer_x0020_1">
  <metadata id="CorelCorpID_0Corel-Layer"/>
  <rect class="fil0" width="769" height="439"/>
  <path class="fil1" d="M464 208l7 0c0,6 0,12 0,19 0,6 -1,12 3,17 4,5 14,6 21,2 1,-1 4,-4 4,-5 -2,-1 -4,5 -11,2 -3,-2 -4,-6 -4,-11l0 -23c18,0 17,-2 24,13 3,6 6,12 9,19 1,2 4,7 3,9 -1,3 -3,7 -4,9 -4,6 -8,11 -18,8l-3 12c11,2 16,-4 20,-11 5,-9 15,-33 19,-44 1,-3 3,-8 5,-11 1,-2 2,-3 4,-4 1,-1 1,-1 3,-1 2,-1 2,0 2,-3l-17 0c0,3 0,2 2,3 4,2 2,8 1,11 -2,4 -4,10 -6,14 -1,-1 -12,-22 -10,-24 2,-2 4,-1 4,-3 -1,0 0,0 -2,0l-35 0 0 -16c-2,0 -2,0 -3,1 -1,1 -1,2 -2,3 -4,4 -8,9 -13,12 -2,1 -2,1 -2,3z"/>
  <path class="fil1" d="M356 232c-1,8 -6,14 -15,14 -5,0 -6,-3 -6,-8 0,-5 0,-10 0,-15 0,-8 -1,-8 3,-11 10,-7 21,4 18,20zm-40 -52c0,3 2,1 5,4 2,2 1,5 1,8l0 56c21,3 45,4 48,-18 3,-20 -16,-32 -31,-22 -2,1 -3,3 -5,4l0 -33c-3,0 -17,0 -19,2z"/>
  <polygon class="fil1" points="523,269 523,269 600,269 600,266 523,266 "/>
  <path class="fil1" d="M244 194l0 40c0,14 -8,8 -8,12 1,1 1,1 2,1l47 0 2 -16c0,-1 0,0 0,-1 -3,0 -1,1 -5,7 -4,6 -10,7 -18,6 -4,-1 -5,-3 -5,-7l0 -42c0,-5 1,-7 6,-8 2,-1 2,0 2,-2l-31 0c0,4 1,1 6,4 2,2 2,4 2,8z"/>
  <path class="fil1" d="M389 219c1,-18 17,-17 18,0l-18 0zm31 14c-4,0 -3,4 -9,7 -14,8 -25,-7 -23,-18l31 0c-3,-26 -42,-24 -45,1 -3,28 37,33 45,10z"/>
  <polygon class="fil1" points="237,269 237,269 487,269 487,266 486,266 238,266 237,266 "/>
  <path class="fil1" d="M422 206c1,3 1,0 5,2 1,1 2,2 3,4 0,2 0,25 0,27 -1,4 -3,4 -5,5 -2,1 -1,0 -1,2 4,0 23,1 26,0 0,-4 -7,0 -7,-8 0,-5 0,-11 0,-16 0,-4 4,-8 8,-8 5,-1 8,3 11,5 1,-3 3,-10 2,-13 -1,-2 -11,-7 -18,4 -1,2 -2,4 -3,6l0 -13c-3,0 -7,0 -10,1l-9 1c-1,0 -1,0 -1,1z"/>
  <path class="fil1" d="M262 317c2,4 5,-2 4,11 0,6 -4,7 -9,6 -9,-2 -11,-10 -11,-19 0,-28 22,-24 28,-12 1,2 0,2 2,2 1,-2 0,-10 0,-12 -2,0 -2,2 -6,1 -2,-1 -4,-1 -7,-2 -28,-5 -37,33 -15,43 7,3 20,3 27,-1 0,-3 0,-7 0,-10 1,-6 4,-3 4,-6l-18 1z"/>
  <path class="fil1" d="M288 205c0,4 6,1 7,6 0,2 0,24 0,27 -1,7 -6,4 -7,7 2,1 20,1 23,1l3 -1c0,-2 1,-1 -1,-2 -1,0 -1,0 -2,-1 -4,-2 -3,-9 -3,-15 0,-8 0,-17 0,-25 -3,0 -18,1 -20,2z"/>
  <path class="fil1" d="M328 314c1,-1 3,-3 5,-3 7,-1 6,6 6,12 0,2 0,7 0,8 -1,4 -4,2 -4,4 1,1 16,1 17,0 -1,-2 -3,-1 -4,-4 -1,-4 1,-16 -2,-21 -2,-3 -6,-5 -11,-4 -4,1 -6,4 -8,6l0 -7 -13 1c0,3 4,0 5,4l0 18c-1,3 -4,2 -4,4 1,1 14,1 16,0 0,0 0,0 0,0 0,0 0,0 0,0 0,-2 1,0 -1,-1 -4,-2 -3,-3 -3,-12 0,-3 0,-6 1,-7z"/>
  <path class="fil1" d="M509 308c1,2 4,0 5,4l0 18c-1,4 -3,3 -4,5 1,1 6,1 8,1l8 0c1,0 1,0 1,0 0,-1 0,-1 -1,-1 0,0 -1,0 -1,-1 -2,-2 -2,-7 -2,-11 0,-3 -1,-5 1,-7 1,-1 3,-3 5,-3 6,0 5,6 5,11 0,5 1,9 -2,11 -2,1 -2,0 -2,2 3,0 15,1 17,-1 -1,-2 -3,-1 -4,-3 -2,-4 1,-15 -2,-20 -2,-3 -5,-5 -10,-4 -5,1 -6,4 -8,6l0 -6c-1,0 -11,0 -12,1 0,0 0,0 0,0 0,0 0,0 0,0z"/>
  <path class="fil1" d="M694 319c0,4 1,12 -1,14 -2,2 -3,0 -3,3 3,0 15,1 17,-1 -1,-2 -3,-1 -4,-4 -1,-4 1,-15 -2,-20 -2,-3 -6,-5 -11,-4 -5,1 -6,4 -8,6l0 -6 -13 1c0,0 0,0 0,0 1,1 -1,0 2,1 1,0 1,0 2,1 2,2 1,13 1,17 0,5 -1,5 -3,6 -2,1 -1,0 -1,1 1,1 2,1 4,1l13 0c0,-2 1,-1 -1,-2 -1,0 -1,0 -2,-1 -2,-2 -1,-11 -1,-15 0,-6 12,-11 12,1z"/>
  <path class="fil1" d="M605 307c-3,0 -11,0 -13,1 0,1 0,0 1,1 4,2 3,4 3,16 0,2 -1,3 -2,4 -5,5 -9,2 -10,-1 -1,-4 0,-17 0,-22 -2,0 -11,0 -13,1 1,1 -1,0 2,2 5,2 0,17 3,23 2,4 11,7 17,0l2 -2 0 6 12 -1c0,-2 0,-1 -2,-2 -1,-1 -2,-1 -2,-2 0,-2 0,-21 0,-24z"/>
  <path class="fil1" d="M429 320c0,2 1,9 0,11 -1,2 -6,4 -8,1 -4,-5 2,-10 8,-12zm-16 -4c1,-1 1,-1 2,-2 4,-4 15,-4 14,5 -7,2 -18,3 -18,11 0,4 4,6 8,7 6,0 8,-3 10,-4 1,3 4,4 8,4 2,0 5,-2 5,-3 1,-3 0,-2 0,-2 -2,1 0,2 -3,3 -4,-6 4,-20 -6,-25 -9,-5 -19,1 -19,6 0,1 0,1 0,1z"/>
  <path class="fil1" d="M487 293c1,3 5,0 5,8l0 26c0,4 0,5 -3,7 -2,1 -1,0 -2,1l10 1c3,0 8,1 10,-1 -1,-3 -5,1 -5,-8l0 -26c0,-2 0,-4 1,-5 2,-2 4,-1 4,-3 -1,-1 -19,-1 -20,0z"/>
  <path class="fil1" d="M655 320c0,2 1,9 0,11 -1,2 -5,4 -7,1 -4,-4 0,-10 8,-12zm-16 -4c2,0 3,-5 9,-5 5,0 7,2 7,7 -6,2 -18,3 -18,11 0,8 12,9 17,3 2,1 2,4 8,4 2,0 5,-2 5,-4 1,-2 0,-1 0,-2 -2,1 0,2 -3,2 -4,-5 4,-20 -6,-25 -8,-4 -19,0 -20,8z"/>
  <path class="fil1" d="M444 335c1,1 17,1 18,0 -1,-1 0,-1 -2,-1 -3,-1 -3,-2 -3,-6l0 -38c-3,0 -11,0 -13,1 3,3 5,0 5,7l0 30c0,7 -4,5 -5,7z"/>
  <path class="fil1" d="M361 317c1,-12 11,-11 12,0l-12 0zm21 10c-2,0 -1,0 -3,2 -1,1 -1,2 -3,2 -8,5 -17,-3 -15,-12l21 0c-2,-18 -29,-16 -30,2 -1,18 23,22 30,6z"/>
  <path class="fil1" d="M291 317c1,-12 11,-12 12,0l-12 0zm21 9c-3,0 -6,9 -14,6 -4,-1 -8,-7 -7,-13l21 0c-2,-18 -28,-16 -30,1 -2,20 25,21 30,7z"/>
  <path class="fil1" d="M748 317c1,-12 11,-11 12,0l-12 0zm21 9c-3,0 -5,8 -14,6 -5,-2 -7,-7 -7,-13l21 0c-2,-18 -28,-16 -30,1 -2,20 26,20 30,6z"/>
  <path class="fil1" d="M383 335c1,1 10,0 13,0 1,0 3,0 4,0 -1,-3 -4,0 -5,-6 0,-6 -2,-15 6,-15 3,0 5,2 7,3 1,-2 2,-6 2,-8 -2,-3 -6,-3 -9,-1 -3,2 -3,4 -5,7l0 -9 -13 1c0,2 4,0 5,4l0 18c-1,4 -4,2 -5,4z"/>
  <path class="fil1" d="M610 308c1,2 4,0 5,4 0,2 1,16 0,18 -1,4 -4,2 -5,5 2,1 6,1 9,1 2,0 7,1 9,-1 -1,-2 -4,0 -5,-5 0,-2 0,-9 0,-11 0,-2 3,-5 5,-5 3,0 5,2 7,3 0,-3 2,-6 1,-8 -1,-1 -6,-5 -11,2 -1,1 -1,3 -2,4l0 -8c-2,-1 -12,0 -13,1z"/>
  <path class="fil1" d="M737 328c-2,0 -3,3 -6,4 -6,3 -15,0 -15,-12 0,-13 12,-15 18,-6 1,2 1,2 3,2l-1 -10c-2,0 -2,1 -5,0 -2,0 -3,-1 -5,-1 -11,-1 -20,7 -18,18 3,17 29,12 30,3z"/>
  <path class="fil1" d="M549 336c2,0 2,-1 5,-1 2,0 3,1 5,1 11,1 16,-11 8,-17 -3,-2 -15,-5 -12,-9 1,-2 6,-2 8,-1 4,2 3,5 5,5 1,-2 0,-6 0,-8 -2,0 -2,1 -5,0 -2,0 -3,-1 -5,0 -8,0 -11,8 -9,12 3,5 11,5 14,9 2,2 2,6 -1,7 -3,1 -6,-1 -8,-2 -3,-3 -3,-4 -3,-5 -1,-1 1,-1 -2,-1l0 11z"/>
  <path class="fil1" d="M300 178c-10,3 -6,16 3,14 9,-2 5,-16 -3,-14z"/>
  <g id="_927327792">
   <path class="fil1" d="M80 308c1,-4 2,-8 3,-12 1,-4 2,-9 3,-13 2,-8 7,-15 17,-14 4,5 7,18 13,20 0,0 0,0 0,0 0,0 0,0 0,0l-4 2c-2,1 -3,1 -5,2 -9,4 -19,9 -27,15zm-19 19c-1,1 0,1 -1,2 -1,-1 -2,1 0,-1 8,-31 -2,-41 6,-60 4,-10 14,-18 26,-17 4,0 3,1 5,4 2,3 5,8 6,11 -19,-1 -22,12 -25,27 -3,23 -11,24 -17,35zm103 -79c1,19 6,15 11,29l-9 0c-5,-12 -13,-19 -9,-24 1,-2 5,-5 7,-5zm-80 -26l10 4c-1,2 -2,5 -1,8 -2,-1 -7,-4 -9,-5l0 -4 -1 -4 2 1zm24 5c2,1 0,1 3,2 21,-6 30,11 35,13 4,1 2,-1 6,-1 0,1 0,2 0,2 0,0 0,0 0,1l1 2c4,0 1,-2 6,-1 -3,7 -11,7 -11,9 -1,3 9,22 11,27 -3,2 -14,3 -18,4 -5,1 -13,4 -17,5 -4,-16 -4,-7 3,-19l-1 -1c-7,2 -14,5 -14,-5 3,-2 4,1 5,-3 -5,-2 -5,2 -7,-1 2,-1 5,0 9,-1 -1,-2 -6,-3 -8,-2 1,-2 2,-2 4,-4 0,0 0,0 0,0 0,0 0,0 0,0 -2,-1 -3,-2 -6,-2l-1 0 1 -3c0,-4 1,-6 1,-10l-5 2c0,-6 -1,-8 4,-10l0 -4c-2,1 -4,2 -6,3l-3 5c-2,-7 2,-8 2,-10 1,-3 -1,-7 2,-12 10,-15 31,-9 45,0 5,4 15,10 15,17 -3,-2 -5,-5 -8,-7l-4 5c1,1 2,2 4,3l3 2c1,1 0,0 1,1 -5,3 -10,1 -13,-1 -2,-1 -3,-2 -4,-4 -2,-3 0,-3 -4,-4 -16,-5 -23,0 -29,-2 1,2 1,1 1,3zm89 -21l1 -1 -1 1c-7,7 -20,18 -27,24 -1,-6 -3,-7 -5,-11l32 -13zm-73 -48l1 -2 1 2c0,4 3,16 4,21 1,7 2,13 4,20l0 2c-3,0 -1,0 -2,0 -4,-1 -9,-1 -13,-1 1,-9 6,-34 5,-40zm-45 22c2,1 2,2 7,6 3,2 3,3 7,6l13 12c-3,3 -6,4 -8,8 -2,-2 -19,-29 -20,-31zm79 33c-2,-1 -5,-4 -8,-5l-3 -2 14 -13c3,-3 11,-11 14,-13l-17 33zm-79 -33c0,0 0,0 0,0 0,0 0,0 0,-1 1,0 1,0 1,1zm-53 -9c2,-2 5,-3 7,-5 3,3 6,4 7,10 1,3 0,6 0,8 0,3 3,1 1,5 -14,-4 -7,-1 -16,0 -1,-4 0,-2 1,-4 1,-3 0,-10 0,-14zm-9 -11l1 -1c0,0 0,0 0,0l1 -1 -1 -2c3,-1 6,-3 11,-4 0,5 0,4 -3,6 3,0 3,0 5,1 0,4 -1,3 -3,4 0,4 0,3 -3,5 -3,2 -1,3 -5,4l-2 -5c2,-2 2,-2 4,-4l-5 -1 0 -3zm66 84c1,1 1,-1 0,1l-3 0c-14,2 -17,18 -20,22 -2,-11 -13,-34 -14,-43l-2 -40c0,-10 -1,-6 2,-10 -7,-3 -4,0 -6,-17 -6,-1 -9,-1 -8,-7 3,1 5,1 8,2 10,2 11,9 13,14 3,9 7,17 10,25 5,12 13,28 15,40 1,5 2,8 5,13zm-61 -95c0,-7 6,-8 13,-8 7,0 11,2 12,9 -3,-2 -6,-4 -12,-4 -7,0 -8,1 -12,4zm34 -20l2 -1 -1 3c0,6 4,6 3,14 -4,-6 -2,-6 -9,-10 -4,-2 -10,-3 -16,-3 -11,0 -24,3 -25,13l-1 1 0 -2c-2,-7 4,-7 2,-16 8,1 5,0 9,-4 4,-1 5,1 9,0 3,-1 3,-3 6,-3 3,0 3,3 7,3 3,0 4,-2 8,-1 1,1 1,3 2,5l5 0zm-30 -11c-8,-3 -7,-15 0,-18 8,-4 10,1 27,-2l-1 5c9,4 13,1 20,-3 0,7 -3,9 -10,11 -6,2 -11,3 -13,8 -6,-3 -3,0 -9,0 -3,-1 -4,-4 -7,-4 -3,0 -5,2 -7,3zm104 173c0,0 0,0 0,0l0 1c-6,2 -15,7 -19,10 -3,2 -6,4 -8,6 -2,1 -2,2 -4,3 -7,5 -26,24 -31,35 2,2 4,3 8,3 6,-10 15,-22 24,-30 21,-20 54,-35 87,-35 2,-6 2,-23 2,-30 -2,-36 -9,-22 2,-35l15 -16c4,-4 1,-4 -2,-3 -1,0 -2,1 -3,1l-22 7c-2,-2 -3,-6 -5,-9 -3,-6 -3,-3 -1,-10 1,-3 7,-17 7,-19 -3,-1 -4,2 -9,5 -3,2 -6,5 -9,7 -4,-2 -15,-15 -31,-17 -1,-4 -4,-17 -6,-19 -3,1 -2,0 -4,7 -1,3 -1,6 -2,10 -17,0 -27,-1 -43,6 -4,2 -8,5 -11,6 -2,-2 -4,-8 -5,-12 -1,-3 -1,-4 1,-6 1,-2 2,-3 3,-5 5,-10 0,-16 -2,-20 -1,-4 4,-7 -2,-8 -1,0 -3,0 -5,0 0,-10 23,-4 22,-23 0,-5 -3,-7 -6,-9 -4,2 -5,8 -13,7 -1,-5 0,-5 -4,-8 -5,2 -5,5 -16,3 -11,-2 -24,1 -27,11 -2,7 1,10 2,15 -7,8 -8,0 -9,4 -1,8 -10,19 -3,30 3,4 3,3 7,6 -1,4 -1,5 3,6 -2,5 1,9 5,10 0,2 1,3 1,5 0,4 0,2 -1,5 -1,6 2,5 4,8 3,4 3,8 16,7 0,15 2,5 -2,19 -2,6 -3,12 -4,19 -4,26 -1,54 10,77 4,8 12,21 20,26 2,-3 4,-6 6,-9 7,-9 12,-16 21,-23 8,-6 26,-17 40,-20z"/>
   <path class="fil2" d="M80 245l3 -2c-2,-4 -4,-7 -5,-13 -2,-12 -10,-28 -15,-40 -3,-8 -7,-17 -10,-25 -2,-5 -3,-13 -13,-14 -3,-1 -5,-1 -8,-2 -1,6 2,7 8,7 2,17 -2,14 6,17 -3,4 -3,0 -2,10l2 40c1,9 12,32 14,43 3,-4 7,-21 20,-22z"/>
   <path class="fil2" d="M118 241c-2,-1 -6,-3 -5,-5 1,-5 18,-5 21,2 -4,2 -5,1 -9,1 -7,-1 -4,2 -6,3zm-11 -11c-5,1 -4,4 -4,10l5 -2c1,4 -1,6 -1,10 0,2 -1,2 1,2 3,0 4,0 6,2 0,0 0,0 0,0 0,0 0,0 0,0 -2,2 -3,2 -4,4 2,-1 8,0 8,2 -4,1 -7,0 -9,1 2,3 2,0 7,1 -1,3 -2,1 -5,3 0,10 7,7 14,5l2 -1 -1 1c-7,12 -7,2 -3,19 5,-1 12,-4 17,-5 4,-1 15,-3 18,-4 -2,-4 -13,-23 -11,-27 1,-1 9,-2 11,-9 -5,0 -2,2 -6,1l-1 -2c0,0 0,0 0,-1 0,0 0,-1 0,-2 -4,-1 -2,2 -6,1 -5,-1 -15,-19 -35,-13 -2,-1 -1,-1 -3,-2 0,1 0,1 0,2 0,1 0,1 -1,2z"/>
   <path class="fil2" d="M61 327l1 0c7,-10 14,-12 17,-35 2,-16 6,-28 25,-27 -1,-3 -4,-8 -6,-11 -2,-3 -1,-3 -5,-4 -12,-2 -22,7 -26,17 -8,19 3,30 -6,60z"/>
   <path class="fil3" d="M137 211c2,1 12,6 14,8 -1,2 -3,4 -3,5 -4,-1 -8,-4 -13,-6l3 -7zm-33 11c-1,-3 0,-6 2,-8l1 -1c0,0 0,0 0,0 2,2 2,3 3,5 -2,2 -5,3 -7,5zm8 -13c9,-3 9,-2 19,0l-1 8c-5,-1 -9,-1 -15,0l-3 -7zm-6 20c1,-1 0,0 1,-2 0,-1 0,-1 0,-2 -1,-2 -1,-1 -1,-3 7,2 13,-4 29,2 4,1 2,1 4,4 1,2 3,3 4,4 4,2 8,4 13,1 -1,-2 0,0 -1,-1l-3 -2c-1,-1 -2,-2 -4,-3l4 -5c3,2 5,5 8,7 0,-6 -10,-13 -15,-17 -14,-10 -35,-16 -45,0 -4,5 -1,9 -2,12 -1,2 -5,3 -2,10l3 -5c1,-1 3,-2 6,-3l0 4z"/>
   <path class="fil2" d="M25 119c2,-1 4,-3 7,-3 3,0 5,2 7,4 5,0 3,-3 9,0 2,-4 7,-5 13,-8 6,-2 10,-3 10,-11 -6,4 -10,6 -20,3l1 -5c-17,3 -20,-2 -27,2 -7,3 -8,15 0,18z"/>
   <path class="fil2" d="M80 308c7,-5 17,-11 27,-15 2,-1 3,-1 5,-2l4 -2c0,0 0,0 0,0 0,0 0,0 0,0 -7,-2 -9,-14 -13,-20 -10,-1 -15,6 -17,14 -1,4 -2,9 -3,13 -1,4 -2,8 -3,12z"/>
   <path class="fil3" d="M8 144l1 1c1,-10 14,-13 25,-13 5,0 11,1 16,3 7,4 5,4 9,10 1,-8 -2,-8 -3,-14l0 -2 -1 0 -5 0c-1,-2 -1,-4 -2,-5 -4,-1 -4,1 -8,1 -4,0 -4,-2 -7,-3 -3,-1 -4,2 -6,3 -4,1 -4,-1 -9,0 -4,3 -1,5 -9,4 2,8 -5,9 -2,16z"/>
   <path class="fil2" d="M131 199c2,0 1,0 1,-1 -1,-7 -3,-13 -4,-20 -1,-5 -4,-17 -4,-21l-2 0c1,7 -4,32 -5,40 4,0 9,0 13,1z"/>
   <path class="fil2" d="M25 171c0,4 1,11 0,14 -1,2 -1,0 -1,4 10,-1 2,-4 16,0 2,-4 0,-2 -1,-5 0,-2 0,-5 0,-8 -1,-6 -5,-7 -7,-10 -2,2 -5,3 -7,5z"/>
   <path class="fil3" d="M174 179c-3,2 -11,10 -14,13l-14 13 3 2c3,2 6,5 8,5l17 -33z"/>
   <path class="fil3" d="M164 247c-2,0 -6,4 -7,5 -4,5 4,13 9,24l9 0c-5,-15 -10,-11 -11,-29z"/>
   <path class="fil3" d="M197 206l0 0 -32 13c2,4 4,6 5,11 8,-7 21,-17 27,-24z"/>
   <path class="fil3" d="M78 179c1,2 18,30 20,31 2,-4 5,-5 8,-8l-13 -12c-4,-3 -4,-4 -7,-6 -5,-3 -5,-5 -7,-6z"/>
   <path class="fil3" d="M18 158l1 1 -2 1 0 3 5 1c-1,2 -2,2 -4,4l2 5c3,-2 2,-2 5,-4 3,-2 3,-1 3,-5 3,-1 4,0 3,-4 -2,-1 -3,-1 -5,-1 3,-2 3,-1 3,-6 -4,0 -8,2 -11,4l1 2z"/>
   <path class="fil1" d="M113 209l3 7c6,-1 9,-1 15,0l1 -8c-9,-2 -9,-3 -19,0z"/>
   <path class="fil1" d="M118 241c2,-1 0,-4 6,-3 4,1 5,2 9,-1 -3,-7 -20,-7 -21,-2 -1,2 3,4 5,5z"/>
   <path class="fil1" d="M134 219c5,1 9,4 13,6 1,-2 2,-3 3,-5 -2,-2 -11,-7 -14,-8l-3 7z"/>
   <path class="fil4" d="M21 149c4,-2 5,-4 12,-4 6,0 8,2 12,4 0,-6 -5,-8 -12,-9 -6,0 -13,1 -13,8z"/>
   <path class="fil3" d="M84 225l0 4c2,1 7,5 9,5 0,-3 0,-5 1,-8l-10 -4c-2,1 0,-1 -1,1 0,0 0,1 0,2z"/>
   <path class="fil1" d="M104 222c2,-1 5,-3 7,-5 -1,-2 -1,-4 -3,-5 0,0 0,0 0,0l-1 1c-2,2 -3,5 -2,8z"/>
   <path class="fil5" d="M80 245l3 0c1,-2 0,0 0,-1l-3 2z"/>
   <path class="fil6" d="M84 225c0,0 0,-1 0,-2 0,-2 -1,0 1,-1l-2 -1 1 4z"/>
   <polygon class="fil7" points="124,158 125,158 125,156 "/>
   <path class="fil8" d="M16 159l2 -1 -1 -1 -1 1c0,0 0,0 0,0l-1 1z"/>
   <polygon class="fil9" points="56,131 57,128 55,129 56,129 "/>
   <path class="fil10" d="M62 327l-1 0c-1,3 0,0 0,1 1,-1 0,-1 1,-2z"/>
   <path class="fil11" d="M131 199c1,1 -2,1 2,0l0 -2c0,1 0,1 -1,1z"/>
   <polygon class="fil6" points="9,145 8,144 8,146 "/>
   <polygon class="fil12" points="126,269 127,267 126,268 "/>
   <path class="fil13" d="M78 179c0,-1 1,-1 -1,-1 0,0 0,0 0,1 0,0 0,0 0,0z"/>
   <path class="fil14" d="M108 249c-2,0 -1,0 -1,-2l-1 3 1 0z"/>
   <path class="fil13" d="M129 292l0 -1c0,0 0,0 0,0l0 1z"/>
   <polygon class="fil15" points="197,206 198,205 197,206 "/>
  </g>
 </g>
</svg>
