<?xml version="1.0" encoding="utf-8"?>
<!-- Generator: Adobe Illustrator 21.0.0, SVG Export Plug-In . SVG Version: 6.00 Build 0)  -->
<svg version="1.1" id="Layer_1" xmlns="http://www.w3.org/2000/svg" xmlns:xlink="http://www.w3.org/1999/xlink" x="0px" y="0px"
	 viewBox="0 0 115.5 66" style="enable-background:new 0 0 115.5 66;" xml:space="preserve">
<style type="text/css">
	.st0{fill:none;}
	.st1{fill:#EC652F;}
	.st2{fill:#0380C3;}
	.st3{fill:#EC6730;}
	.st4{fill:#A93E26;}
	.st5{fill:#0B85C6;}
	.st6{fill:#1185C6;}
	.st7{fill:#B64E2A;}
	.st8{fill:#BC5027;}
	.st9{fill:#0E81C4;}
	.st10{fill:#8C3325;}
	.st11{fill:#58B94D;}
	.st12{fill:#F6872A;}
	.st13{fill:#5DBB53;}
	.st14{fill:#59B94E;}
	.st15{fill:#59B94D;}
	.st16{fill:#5BBA4F;}
	.st17{fill:#933E27;}
	.st18{fill:#EC6832;}
	.st19{fill:#5DBB52;}
	.st20{fill:#5CBA51;}
	.st21{fill:#5FBB53;}
	.st22{fill:#CE5B26;}
	.st23{fill:#9C4329;}
	.st24{fill:#963F28;}
	.st25{fill:#5FBB54;}
	.st26{fill:#B35333;}
	.st27{fill:#5BB950;}
	.st28{fill:#62BC57;}
	.st29{fill:#5EBA52;}
	.st30{fill:#D85228;}
	.st31{fill:#E86027;}
	.st32{fill:#D45E26;}
	.st33{fill:#D96226;}
	.st34{fill:#F07027;}
</style>
<g id="Layer_x0020_1">
	<rect x="0.1" y="0.1" class="st0" width="115.5" height="66"/>
</g>
<g>
	<path class="st1" d="M23.3,26.7l-2.8,8.1l-1.4,0c0,0-1.8-5.2-2.5-7.3c-0.1-0.3-0.2-0.5-0.4-0.7c0,0.3,0,0.5,0,0.8
		c0,2.2,0,7.3,0,7.3h-1.3c0,0,0-6.5,0-9.4c0-0.1,0-0.8,0-0.8l2,0l2.9,8.5l2.9-8.5l2,0v10.2l-1.4,0L23.3,26.7z"/>
	<path class="st2" d="M86.1,26.6c-0.7-0.3-1.3-0.3-2-0.4c-1.5,0-3.1,0.8-3.4,3c-0.1,0.8,0,1.6,0.3,2.3c0.7,1.5,2.2,2,3.6,1.8
		c0.3,0,0.7-0.1,1-0.2c0.2,0,0.4-0.1,0.4-0.1l0,1.5c0,0-0.4,0.2-1,0.3c-1,0.2-1.9,0.1-2.8-0.2c-1.4-0.4-2.4-1.3-3-2.7
		c-0.6-1.6-0.6-3.1,0.1-4.6c0.5-1,1.3-1.8,2.4-2.2c1.3-0.5,2.6-0.5,4-0.2c0.2,0,0.4,0.1,0.4,0.1s0,0.3,0,0.4
		C86.1,25.7,86.1,26.1,86.1,26.6z"/>
	<path class="st2" d="M101.1,28.4c0.4-0.4,0.8-0.8,1.3-0.9c1.4-0.5,3.3,0.1,3.4,2.3c0.1,1.5,0,5,0,5h-1.7c0,0,0-2.8,0-3.9
		c0-0.4,0-0.7-0.1-1.1c-0.2-0.6-0.6-1-1.2-1c-0.7,0-1.1,0.3-1.4,1c-0.1,0.3-0.1,0.6-0.1,0.9c0,1.2,0,4.1,0,4.1l-1.7,0l-0.1-7.2
		l1.5,0L101.1,28.4z"/>
	<path class="st3" d="M35.6,28.4c0,0,0.3-0.3,0.4-0.3c0.7-0.7,1.6-0.8,2.5-0.7c1,0.1,1.7,0.7,1.9,1.7c0.1,0.3,0.1,0.7,0.1,1.1
		c0,1.4,0,4.8,0,4.8l-1.3,0c0,0,0-3.4,0-4.6c0-0.3,0-0.6-0.1-0.9c-0.2-0.6-0.6-1-1.3-1c-1.1-0.1-2,0.7-2.1,1.8c0,0.5,0,1,0,1.4
		c0,0.9,0,3.2,0,3.2l-1.3,0v-7.4l1.2,0L35.6,28.4z"/>
	<path class="st1" d="M62.6,34.9l-1.3,0V24.7l1.3,0c0,0,0,2.3,0,3.2C62.6,28.6,62.6,34.9,62.6,34.9z"/>
	<polygon class="st2" points="89.5,34.8 87.8,34.8 87.8,27.6 89.5,27.6 	"/>
	<polygon class="st3" points="43.6,34.9 42.3,34.9 42.4,27.5 43.6,27.5 	"/>
	<path class="st4" d="M8.7,33.9c0-0.2,0-0.6,0-0.8c0.4-0.3,0.4,0.3,0.7,0.3c0.4-0.9,0.2-2,0.3-3c0-0.4,0.3-0.6,0.5-0.9
		c0.8-0.7,0.5-1.7-0.5-2c-0.5-0.2-1-0.1-1.6-0.2c-0.2,0-0.3,0-0.5-0.1c-0.6-0.2-1.3,0.1-1.8-0.4c1-0.1,1.9-0.1,2.9,0
		c0.7,0,1.3,0,2,0c0.1,0,0.5,0.1,0.6,0.1c1,0.3,0.8,0.7,0.9,1.4c0.2,0.7-0.3,1-0.9,1.3c-0.1,0-0.3,0.1-0.4,0.1
		c-0.7,0.2-0.9,0.4-1,1.1c0,0.8,0,1.7,0,2.5c0,0.3,0,0.7-0.1,1c-0.1,0.3-0.2,0.5-0.5,0.5c-0.4,0-0.6-0.1-0.7-0.4
		C8.7,34.3,8.7,34,8.7,33.9z"/>
	<path class="st5" d="M74.5,27.3c-0.1,0.3-0.3,0.5-0.4,0.7c-0.8,0.9-1.2,2-1.3,3.2c-0.1,0.7-0.1,1.5,0.1,2.2
		c0.1,0.4,0.1,0.9,0.1,1.3c0,0.1,0,0.2-0.1,0.2c-0.1,0-0.2,0-0.2-0.1c-0.2-0.1-0.2-0.3-0.3-0.5c-0.6-1.7-0.6-3.4,0.1-5
		c0.3-0.6,0.7-1.1,1.2-1.5C73.8,27.4,73.9,27.4,74.5,27.3z"/>
	<path class="st6" d="M68.8,27.3c0.6,0,0.9,0.3,1.2,0.6c0.7,0.6,1.1,1.5,1.3,2.4c0.3,1.2,0.2,2.4-0.2,3.6c-0.1,0.3-0.2,0.6-0.4,0.8
		c-0.1,0.1-0.1,0.2-0.2,0.1c-0.1,0-0.2-0.2-0.2-0.3c0-0.2,0-0.5,0-0.7c0.1-1,0.3-2,0.1-3c-0.2-1.1-0.5-2-1.2-2.8
		C69.1,27.9,68.9,27.7,68.8,27.3z"/>
	<path class="st7" d="M11,26.8c-0.9,0-4.9,0.1-4.9,0.1c0.5,0,0.9,0,1.4,0c0.2,0,0.4,0,0.4,0.3c-0.2,0.2-0.5,0.1-0.7,0.1
		c-1.2,0-2.4-0.1-3.5,0.2c-0.8,0.2-0.9,0.4-0.7,1.2c0,0.1,0.1,0.1,0.1,0.2c0.1,0.1,0.1,0.2,0.1,0.3c0,0.1,0.1,0.1,0.1,0.2
		c0,0.2,0.1,0.4,0.2,0.6c0,0.1,0,0.1,0,0.2c0.1,0.8-0.1,1.6,0.3,2.5c0.3-0.7,0.2-1.4,0.3-2.1c0-0.1,0.1-0.1,0.1-0.2
		c0.1-0.1,0.3-0.4,0.4,0.1c0,0,0,0.1,0,0.1c-0.2,0.7,0.1,1.4-0.1,2.1l0,0c-0.2,0.2-0.1,0.4-0.1,0.6c0,0.3-0.1,0.6-0.4,0.7
		c-0.4,0.1-0.5-0.2-0.7-0.5c0-0.1-0.1-0.2-0.2-0.3c0-0.8,0-1.7,0-2.5c0-0.7-0.2-1.3-0.8-1.7C1.7,27.5,2,27,3.2,27
		c-0.2-0.1-0.5,0.2-0.8-0.1c0.4-0.1,1-0.1,1.5-0.2c1.5-0.1,3-0.1,4.5-0.1C8.6,26.6,10.9,26.7,11,26.8z"/>
	<path class="st8" d="M9.9,30.4c0,0.5,0,1,0,1.4c0,0.5-0.2,1-0.2,1.6c0,0.1-0.1,0.2-0.1,0.3c-0.1,0.1-0.2,0.2-0.4,0.2
		c-0.1,0-0.2-0.1-0.2-0.3c0-0.2,0-0.4-0.3-0.4c0-0.7,0-1.3,0-2c0-0.3,0-0.5-0.1-0.7c-0.1-0.3-0.3-0.4-0.5-0.5
		c-0.3,0-0.5,0.1-0.7,0.4c-0.1,0.1,0,0.2-0.1,0.4c-0.2,0.7,0,1.4-0.1,2c0,0.2,0,0.5,0,0.7c0,0.4,0,0.9-0.5,1
		c-0.5,0.1-0.6-0.3-0.9-0.6c0-1.1-0.1-2.3,0.1-3.4c0.1-0.1,0.1,0,0.2,0c0.3,0.7,0,1.5,0.3,2.1c0,0.1,0,0.3,0.1,0.5
		c0.4-0.8,0.2-1.5,0.3-2.2c0-0.1,0-0.1,0-0.2c0-0.1,0.1-0.3,0.1-0.4C7,30.1,7.1,30,7.1,30c0.1-0.1,0.1-0.2,0.2-0.2
		c0.5-0.4,0.9-0.4,1.4,0.1C8.9,30,9,30.2,9.1,30.5c0,0.1,0,0.1,0.1,0.2c0.1,0.6,0,1.1,0.2,1.7c0.2-0.6,0.2-1.2,0.3-1.9
		c0-0.1,0.1-0.1,0.1-0.2C9.8,30.3,9.8,30.3,9.9,30.4z"/>
	<path class="st7" d="M6.7,25.5c-0.6-0.4-1.3-1.1-1.7-1.9C5,23.4,4.9,23.2,4.9,23c-0.1-0.8,0.4-1.3,1.3-1.2c0.5,0.1,0.9,0.3,1.3,0.5
		c0.6,0.4,1,0.8,1.4,1.6C8.9,24,9,24.2,9,24.4c0.1,1-0.8,1.5-1.8,1.3C7.1,25.6,6.9,25.6,6.7,25.5z"/>
	<path class="st9" d="M88.7,24.6c0.6,0,1.1,0.5,1.1,1.1c0,0.6-0.5,1.1-1.2,1c-0.6,0-1-0.5-1-1.1C87.6,25,88.1,24.6,88.7,24.6z"/>
	<path class="st10" d="M11.4,29.6c-0.2-0.2,0-0.2,0.1-0.2c0.2-0.1,0.5-0.2,0.5-0.5c0-0.4,0.1-0.8-0.2-1.1c-0.3-0.3-0.6-0.6-1.1-0.7
		c-0.2,0-0.4-0.1-0.6-0.2c0.4,0,0.8,0,1.2,0c1,0.1,1.6,0.9,1.5,1.8c-0.1,0.4-0.3,0.7-0.7,0.8C11.9,29.5,11.5,29.6,11.4,29.6z"/>
	<path class="st11" d="M72.3,23c0,0.5-0.3,1-0.6,1.1c-0.3,0-0.7-0.5-0.7-1c0-0.4,0.1-0.8,0.4-1.1c0.2-0.2,0.3-0.2,0.5,0
		C72.2,22.2,72.3,22.6,72.3,23z"/>
	<path class="st12" d="M72.5,28c0,0.5-0.4,0.8-0.8,0.8c-0.5,0-0.8-0.4-0.8-0.9c0-0.4,0.4-0.8,0.9-0.8C72.2,27.2,72.5,27.5,72.5,28z"
		/>
	<path class="st13" d="M68.4,23.6c0-0.5,0.2-0.6,0.6-0.4c0.5,0.2,0.7,0.5,0.9,1c0.1,0.2,0,0.5-0.2,0.6c-0.2,0.2-0.4,0.1-0.6,0
		C68.5,24.5,68.4,24,68.4,23.6z"/>
	<path class="st14" d="M74.9,23.6c0,0.6-0.2,1-0.7,1.2c-0.4,0.2-0.7,0-0.7-0.4c0-0.5,0.5-1.2,1.1-1.3c0.1,0,0.2,0,0.3,0.2
		C74.9,23.4,74.9,23.5,74.9,23.6z"/>
	<path class="st15" d="M71.5,25.5c0,0.3-0.2,0.7-0.4,0.7c-0.2,0.1-0.5-0.1-0.7-0.4c-0.2-0.4-0.3-0.9-0.1-1.4
		c0.1-0.2,0.2-0.2,0.4-0.1C71.2,24.6,71.4,25,71.5,25.5z"/>
	<path class="st16" d="M73.1,25.1c0,0.4-0.1,0.8-0.5,1c-0.3,0.2-0.5,0.1-0.6-0.2c-0.3-0.5,0.1-1.4,0.7-1.6c0.2-0.1,0.2,0,0.3,0.1
		C73,24.7,73.1,24.9,73.1,25.1z"/>
	<path class="st17" d="M6.7,25.5c0.1-0.1,0.1-0.2,0.3-0.1c0.3,0.1,0.5,0.1,0.8,0.1c0.6,0,0.9-0.3,0.9-0.9c0-0.3-0.1-0.6,0.1-0.8
		c0.3,0.3,0.3,0.7,0.3,1.1c0,0.7-0.4,1-1,1C7.6,26,7.1,25.9,6.7,25.5z"/>
	<polygon class="st18" points="43.5,26 42.4,26 42.4,24.7 43.5,24.8 	"/>
	<path class="st19" d="M76.1,25.5c0.1,0,0.2,0.1,0.4,0.1c0.1,0,0.2,0.1,0.1,0.3c-0.2,0.5-0.8,0.9-1.4,0.8c-0.3-0.1-0.4-0.3-0.3-0.6
		C75.1,25.8,75.6,25.5,76.1,25.5z"/>
	<path class="st20" d="M67.9,26.7c-0.4,0-0.7-0.2-1-0.5c-0.1-0.2-0.3-0.3-0.2-0.5c0.1-0.2,0.3-0.2,0.5-0.2c0.4,0,0.9,0.1,1.1,0.6
		c0.2,0.3,0.1,0.6-0.3,0.6C67.9,26.7,67.9,26.7,67.9,26.7z"/>
	<path class="st21" d="M70.3,26.5c0,0.2-0.1,0.3-0.3,0.3c-0.5,0.1-1.2-0.6-1.2-1.1c0-0.1,0.1-0.2,0.2-0.2
		C69.5,25.4,70.3,26,70.3,26.5z"/>
	<path class="st21" d="M74.5,25.8c0,0.5-0.6,1.1-1.1,1.1c-0.3,0-0.4-0.1-0.4-0.4c0-0.5,0.8-1,1.3-0.9C74.4,25.6,74.5,25.7,74.5,25.8
		z"/>
	<path class="st22" d="M6.1,30.4c-0.2,0.1-0.1,0.4-0.1,0.6c0,1,0,2,0,2.9c0.1,0.1,0.1,0.6,0,0.6c-0.2-0.2-0.1-0.9-0.1-1.2
		c0-0.8,0-1.5,0-2.3c0-0.2,0-0.4,0-0.6c0-0.4-0.5-0.7-1-0.4c-0.1,0.1-0.2,0.1-0.2,0.2c-0.1-0.2-0.2,0-0.3,0c0-0.6,0.4-0.9,0.9-0.9
		C5.8,29.3,6.2,29.7,6.1,30.4z"/>
	<path class="st23" d="M2.4,26.8c0.3,0,0.6,0,1,0.1C3.3,27.1,3.1,27,2.9,27c-0.7,0.2-0.9,0.6-0.6,1.3c0,0.1,0.2,0.3,0,0.4
		c-0.1,0-0.3-0.2-0.4-0.3C1.3,27.8,1.4,27.1,2.4,26.8z"/>
	<path class="st24" d="M3.1,32.9c0.1,0,0.3-0.1,0.3,0.1c0,0.3,0.1,0.6,0.5,0.6c0.2,0,0.4-0.3,0.4-0.8c0-0.2,0-0.3,0.2-0.4
		c0,0.4,0,0.7,0,1.1c0,0.1,0,0.4-0.1,0.5c-0.1,0.3-0.3,0.4-0.6,0.4c-0.3,0-0.5-0.1-0.5-0.2c-0.1-0.3,0-0.8-0.1-1
		C3.1,33.1,3.1,33,3.1,32.9z"/>
	<path class="st25" d="M69.6,22.6c0-0.1,0.1-0.2,0.1-0.3c0.1-0.2,0.2-0.3,0.4-0.1c0.4,0.2,0.6,0.8,0.5,1.2c-0.1,0.3-0.4,0.4-0.6,0.2
		C69.7,23.4,69.6,23,69.6,22.6z"/>
	<path class="st26" d="M5.9,34c0-0.1,0-0.1,0-0.2c0.1,0.1,0.3,0.2,0.4,0.3C6.6,34.4,6.8,34.3,7,34c0.2-0.2,0.2-0.5,0.2-0.8
		c0-0.7,0-1.4,0-2c0-0.2-0.1-0.4,0.1-0.6c0,1,0,2,0,3c0,0.2,0,0.4-0.1,0.6c-0.1,0.4-0.4,0.6-0.7,0.6c-0.4,0-0.6-0.2-0.7-0.5
		C5.9,34.2,5.9,34.1,5.9,34z"/>
	<path class="st27" d="M73.7,22.7c0,0.4-0.1,0.8-0.4,0.9c-0.2,0.1-0.4,0.1-0.5-0.2c-0.2-0.4,0.1-1.1,0.5-1.3c0.1-0.1,0.3,0,0.3,0.1
		C73.7,22.4,73.7,22.6,73.7,22.7z"/>
	<path class="st13" d="M75.2,25.4c-0.2,0-0.4-0.1-0.3-0.4c0-0.5,0.6-0.9,1.1-0.8c0.1,0,0.2,0.1,0.2,0.2
		C76.2,24.8,75.6,25.4,75.2,25.4z"/>
	<path class="st28" d="M67.4,24.2c0.4,0,1,0.3,1,0.7c0.1,0.3-0.1,0.5-0.4,0.5c-0.4,0-0.8-0.5-0.9-0.9C67.2,24.3,67.3,24.2,67.4,24.2
		z"/>
	<path class="st16" d="M67.6,27.1c0,0,0.1,0,0.2,0c0.3,0.1,0.5,0.3,0.5,0.5c-0.1,0.3-0.3,0.3-0.5,0.4c-0.1,0-0.2,0-0.4,0
		c-0.3-0.1-0.5-0.2-0.6-0.5C66.8,27.3,67.2,27.1,67.6,27.1z"/>
	<path class="st20" d="M75.7,27.1c0.4,0,0.8,0.2,0.8,0.4c-0.1,0.3-0.4,0.4-0.6,0.5c-0.2,0.1-0.5,0-0.7-0.1c-0.3-0.1-0.3-0.4-0.1-0.6
		C75.3,27.1,75.5,27.1,75.7,27.1z"/>
	<path class="st13" d="M68.6,28.2c0,0,0.1,0,0.2,0.1c0.2,0.1,0.3,0.3,0.1,0.5c-0.1,0.1-0.2,0.2-0.3,0.2c-0.3,0.1-0.6,0.1-0.9-0.1
		c-0.1-0.1-0.1-0.2,0-0.3C67.9,28.3,68.2,28.2,68.6,28.2z"/>
	<path class="st20" d="M74.8,28.2c0.3,0,0.6,0.1,0.8,0.3c0.1,0.1,0.1,0.2,0,0.3c-0.3,0.2-0.8,0.2-1.1,0c-0.1-0.1-0.2-0.2-0.2-0.3
		c0-0.2,0.2-0.2,0.3-0.3C74.7,28.2,74.7,28.2,74.8,28.2z"/>
	<path class="st22" d="M4.4,32.5c0-0.6,0-1.1,0-1.7c0-0.1,0-0.3,0.1-0.4C4.5,31.1,4.5,31.7,4.4,32.5z"/>
	<path class="st19" d="M75.5,31.9c-0.7-0.2-1.4-0.3-2.1-0.4c-0.2,0-0.3,0.1-0.3,0.2c0,0.2,0,0.4,0.3,0.4c0.1,0,0.1,0,0.2,0
		c1.4,0.1,4.6,1,5.1,1C78.3,33,76.3,32.1,75.5,31.9z"/>
	<path class="st29" d="M70.2,31.8c0-0.2-0.1-0.2-0.3-0.2c-0.2,0-0.3,0-0.5,0C68,31.8,65,33,64.8,33.2c0.3-0.1,3.2-0.9,4.4-1
		c0.3,0,0.5-0.1,0.7-0.1C70.2,32.2,70.2,32,70.2,31.8z"/>
	<path class="st7" d="M3.1,33.2c0.2,0.2,0.1,0.7,0.1,1C3.1,34.1,3.1,33.4,3.1,33.2z"/>
	<path class="st8" d="M8.7,33.9c0.2,0.1,0.1,0.3,0.1,0.5C8.7,34.2,8.7,34,8.7,33.9z"/>
	<path class="st7" d="M4.3,34.1c-0.1-0.1-0.1-0.4,0.1-0.5C4.4,33.7,4.4,34,4.3,34.1z"/>
	<path class="st2" d="M97.6,28c0-0.1,0-0.3,0-0.3s-0.2-0.1-0.3-0.1c-0.9-0.2-1.7-0.3-2.6-0.2c-1,0.1-2,0.5-2.7,1.3
		c-1.1,1.3-1.3,3.7-0.4,5.1c0.5,0.7,1.1,1.1,2,1.2c0.9,0.1,1.6-0.2,2.3-1c0,0.3,0,0.5,0,0.7c-0.1,1.1-0.7,1.7-1.8,1.8
		c-0.9,0.1-2.2-0.2-2.2-0.2l-0.2,1.3c0,0,0.3,0.1,0.5,0.1c1,0.2,2.1,0.3,3.1,0.1c0.9-0.2,1.6-0.8,1.9-1.8c0.1-0.4,0.3-0.9,0.3-1.3
		c0-2.2,0-4.3,0-6.5C97.6,28.1,97.6,28,97.6,28z M95.8,32c0,0.4-0.2,0.7-0.5,1c-0.7,0.7-1.8,0.6-2.2-0.3c-0.5-1.1-0.5-2.2,0.2-3.2
		c0.5-0.7,1.3-0.9,2.1-0.8c0.2,0,0.3,0.2,0.3,0.4C95.9,29.5,95.9,31.5,95.8,32z"/>
	<path class="st2" d="M113.9,31.3c0-1.1,0-3.6,0-3.6s-0.1,0-0.4-0.1c-0.8-0.2-1.6-0.3-2.4-0.2c-1.2,0.1-2.2,0.5-2.9,1.5
		c-1,1.5-1.1,3.1-0.3,4.7c0.9,1.9,3.5,1.8,4.4,0.5c0.1-0.1,0.3-0.4,0.3-0.4l0,1.2l1.6,0C114.1,34.8,113.9,32.4,113.9,31.3z
		 M112.1,32.3c-0.1,0.5-0.4,0.9-0.9,1.1c-0.6,0.3-1.3,0.1-1.7-0.5c-0.6-1-0.4-2.8,0.4-3.6c0.5-0.5,1.2-0.6,1.9-0.6
		c0.2,0,0.4,0.1,0.4,0.1s0,1.2,0,1.6C112.2,31,112.2,31.7,112.1,32.3z"/>
	<path class="st1" d="M51.8,29.6c-0.6-2.3-3-3.1-4.9-1.6c-0.1,0.1-0.4,0.3-0.4,0.3l0-0.8l-1.2,0c0,0,0,6.6,0,9.6c0,0.4,0,0.7,0,0.7
		l1.2,0c0,0,0-2.7,0-3.7c0.5,0.5,1,0.8,1.5,0.9c1.6,0.3,2.9-0.5,3.5-2C52,31.9,52.1,30.8,51.8,29.6z M50.3,32.9
		C50,33.6,49.4,34,48.6,34c-0.9,0-1.6-0.4-1.8-1.3c-0.3-1.1-0.3-2.2,0.1-3.2c0.3-0.8,0.9-1.2,1.8-1.2c0.8,0,1.4,0.4,1.7,1.2
		c0.2,0.5,0.2,1,0.2,1.5C50.6,31.7,50.6,32.3,50.3,32.9z"/>
	<path class="st1" d="M32.9,34c-0.4,0-0.5-0.1-0.5-0.5c0-0.2,0-2.9,0-4.1c0-1-0.4-1.6-1.3-1.9c-0.9-0.3-1.8-0.3-2.7-0.1
		c-0.8,0.2-1.5,0.6-1.7,1.5c-0.1,0.3-0.1,0.7-0.1,0.7l1.2,0.1c0,0,0-0.1,0-0.2c0.1-0.7,0.6-1,1.3-1c0.6,0,1.2-0.1,1.7,0.4
		c0.1,0.1,0.1,0.1,0.2,0.2c0.4,0.6,0.1,1.3-0.6,1.4c-0.4,0.1-0.8,0.1-1.2,0.2c-0.6,0.1-1.2,0.1-1.7,0.4c-1.1,0.5-1.4,1.4-1.3,2.3
		c0.1,1,0.9,1.8,2,1.9c1.1,0.1,2.1-0.2,2.9-1c0.1,0.1,0.2,0.8,0.9,0.9c0.3,0.1,1.2,0,1.2,0l0.1-1C33.3,34,33,34,32.9,34z M31.1,31.9
		c0,1.5-1.3,2.5-2.7,2.1c-0.5-0.1-0.9-0.5-0.9-1c0-0.5,0.2-0.9,0.7-1.2c0.2-0.1,0.5-0.2,0.8-0.2c0.7-0.1,1.4-0.2,2.2-0.4
		C31.1,31.5,31.1,31.7,31.1,31.9z"/>
	<path class="st1" d="M59.8,34c-0.4,0-0.5-0.1-0.5-0.5c0-0.2,0-2.9,0-4.1c0-1-0.4-1.6-1.3-1.9c-0.9-0.3-1.8-0.3-2.7-0.1
		c-0.8,0.2-1.5,0.6-1.7,1.5c-0.1,0.3-0.1,0.7-0.1,0.7l1.2,0.1c0,0,0-0.1,0-0.2c0.1-0.7,0.6-1,1.3-1c0.6,0,1.2-0.1,1.7,0.4
		c0.1,0.1,0.1,0.1,0.2,0.2c0.4,0.6,0.1,1.3-0.6,1.4c-0.4,0.1-0.8,0.1-1.2,0.2c-0.6,0.1-1.2,0.1-1.7,0.4c-1.1,0.5-1.4,1.4-1.3,2.3
		c0.1,1,0.9,1.8,2,1.9c1.1,0.1,2.1-0.2,2.9-1c0.1,0.1,0.2,0.8,0.9,0.9c0.3,0.1,1.2,0,1.2,0l0.1-1C60.2,34,59.9,34,59.8,34z M58,31.9
		c0,1.5-1.3,2.5-2.7,2.1c-0.5-0.1-0.9-0.5-0.9-1c0-0.5,0.2-0.9,0.7-1.2c0.2-0.1,0.5-0.2,0.8-0.2c0.7-0.1,1.4-0.2,2.2-0.4
		C58,31.5,58,31.7,58,31.9z"/>
	<path class="st30" d="M9.9,30.4c-0.1,0-0.1,0-0.2,0c0,0-0.1-0.1-0.1-0.1c-0.1-0.4,0.2-1-0.3-1.3c-0.7-0.4-1.4-0.8-2.2-0.6
		c-0.4,0.1-0.7,0.1-1.1,0.1c-0.3,0-0.7-0.1-0.9-0.4c-0.3-0.5-0.6-0.4-1-0.1c-0.4,0.3-0.8,0.6-1.1,0.9c-0.3-0.1-0.4-0.4-0.4-0.6
		c-0.1-0.4,0-0.7,0.4-0.9c0.2-0.1,0.3-0.1,0.5-0.2C4.8,27,6,27,7.3,27c0.2,0,0.4,0.1,0.7,0.1c0.8-0.1,1.6,0,2.2,0.3
		c0.5,0.2,0.7,0.8,0.9,1.3c0.1,0.3-0.1,0.5-0.3,0.6c-0.3,0.2-0.5,0.4-0.7,0.6C10,30.1,9.9,30.2,9.9,30.4z"/>
	<path class="st31" d="M3.1,28.8c0-0.1,0-0.3,0.1-0.4c0.5-0.3,0.9-0.7,1.4-1c0.2-0.1,0.4-0.1,0.4,0.1c0.4,1,1.2,0.8,1.9,0.7
		c1.2-0.2,2.1,0.2,2.9,1c0.2,0.2,0.2,0.3,0.1,0.5c-0.1,0.2-0.2,0.4-0.2,0.6l0,0c0,0,0,0,0,0.1C9.6,30.6,9.8,31,9.4,31
		c-0.3,0-0.3-0.3-0.4-0.5l0,0c-0.1-0.2-0.1-0.4-0.3-0.6c-0.5-0.4-0.9-0.4-1.4,0c0,0.1-0.1,0.1-0.2,0.2l0,0c-0.1,0.1,0,0.3-0.2,0.5
		l0,0c-0.1,0.4-0.1,0.8-0.2,1.2c0,0.2,0,0.8-0.3,0.8c-0.3,0-0.3-0.6-0.4-0.8c-0.1-0.4,0-0.8-0.1-1.2c0-0.1,0-0.1,0-0.2
		c0-0.3-0.1-0.5-0.4-0.7c-0.5-0.4-1.1-0.2-1.5,0.6l0,0c-0.1,0.4-0.1,0.9-0.2,1.3c0,0.2,0,0.4-0.3,0.4c-0.3,0-0.3-0.2-0.3-0.4
		c-0.2-0.5,0.1-1.1-0.1-1.6c0-0.1,0-0.1,0-0.2c-0.2-0.2,0-0.4-0.2-0.6l0,0C3.1,29.1,3.2,28.9,3.1,28.8L3.1,28.8z"/>
	<path class="st22" d="M3.4,29.9c0.3,0.2,0.1,0.5,0.1,0.8c0,0.4,0,0.8,0.3,1.1C4,31.8,4,31.6,4,31.5c0-0.4,0.1-0.9,0.3-1.3
		c0.1,0.8-0.1,1.5-0.2,2.3c0,0.1,0,0.2-0.1,0.2c-0.1,0.1-0.1,0.2-0.2,0.2c-0.1,0-0.2-0.1-0.2-0.2c-0.1-0.4-0.2-0.7-0.2-1.1
		C3.4,31.1,3.4,30.5,3.4,29.9z"/>
	<path class="st30" d="M3.2,29.1c0.2,0.2,0.1,0.4,0.2,0.6C3.1,29.6,3.2,29.4,3.2,29.1z"/>
	<path class="st30" d="M3.1,28.8c0.1,0.1,0.1,0.2,0.1,0.3C3.1,29.1,3.1,29,3.1,28.8z"/>
	<path class="st22" d="M6.1,30.5c0.2,0.1,0.1,0.4,0.1,0.6c0,0.4,0.1,0.7,0.3,1.2C6.8,31.6,6.7,31,7,30.5c0,0.9,0,1.8-0.2,2.6
		c0,0.1-0.1,0.3-0.2,0.3c-0.2,0-0.3-0.1-0.3-0.2c0-0.1-0.1-0.2-0.1-0.3C6.2,32.1,6,31.3,6.1,30.5z"/>
	<path class="st32" d="M9,30.5c0.1,0.1,0.1,0.1,0.2,0.2C9.4,31,9.5,31,9.6,30.6c0-0.1,0.1-0.2,0.1-0.2c0.1,0.7-0.1,1.4-0.2,2.2
		c0,0.1,0,0.2-0.1,0.2c0,0.1-0.1,0.1-0.2,0.1c-0.1,0-0.2-0.1-0.2-0.2C9,32.1,8.9,31.4,9,30.8C9,30.7,9,30.6,9,30.5z"/>
	<path class="st32" d="M8.7,29.9C9,30,9,30.3,9,30.5C8.8,30.4,8.7,30.1,8.7,29.9z"/>
	<path class="st22" d="M7,30.5c0-0.2,0-0.3,0.2-0.5C7.2,30.2,7.2,30.4,7,30.5z"/>
	<path class="st22" d="M7.2,30.1C7.2,30,7.3,30,7.3,29.9C7.3,30,7.2,30,7.2,30.1z"/>
	<path class="st33" d="M8.4,24.2c0.1,1-0.5,1.1-1.2,0.9c-0.8-0.2-1.3-0.7-1.7-1.4c-0.2-0.3-0.1-0.7-0.1-1.1c0-0.3,0.2-0.4,0.5-0.5
		c0.3,0,0.5,0,0.8,0.1c0.6,0.3,1.1,0.7,1.5,1.2C8.4,23.7,8.4,24,8.4,24.2z"/>
	<path class="st34" d="M6.9,24.7c-0.1,0-0.3,0-0.4-0.2c-0.4-0.3-0.7-0.7-0.9-1.2c-0.1-0.3-0.2-0.6,0.1-0.8c0.2-0.3,0.5-0.2,0.8-0.1
		c0.6,0.1,1,0.5,1.4,1c0.3,0.4,0.3,0.7-0.2,1C7.5,24.6,7.2,24.7,6.9,24.7z"/>
	<rect x="1.5" y="42.2" width="32.3" height="0.3"/>
	<rect x="81.6" y="42.5" width="32.3" height="0.3"/>
	<g>
		<path d="M36.4,40.2V42h2.1v-1.8H39v4.3h-0.6v-2h-2.1v2h-0.6v-4.3H36.4z"/>
		<path d="M40.3,43c0,0.8,0.5,1.1,1.1,1.1c0.4,0,0.6-0.1,0.8-0.2l0.1,0.4c-0.2,0.1-0.5,0.2-1,0.2c-0.9,0-1.5-0.6-1.5-1.5
			c0-0.9,0.5-1.7,1.4-1.7c1,0,1.3,0.9,1.3,1.4c0,0.1,0,0.2,0,0.3H40.3z M41.9,42.6c0-0.4-0.1-0.9-0.8-0.9c-0.6,0-0.8,0.5-0.9,0.9
			H41.9z"/>
		<path d="M44.8,44.5l0-0.4h0c-0.2,0.2-0.5,0.5-0.9,0.5c-0.6,0-0.9-0.4-0.9-0.9c0-0.7,0.7-1.1,1.8-1.1v-0.1c0-0.3-0.1-0.7-0.7-0.7
			c-0.3,0-0.6,0.1-0.8,0.2l-0.1-0.4c0.3-0.2,0.6-0.3,1-0.3c0.9,0,1.2,0.6,1.2,1.3v1.1c0,0.3,0,0.5,0.1,0.7H44.8z M44.7,42.9
			c-0.6,0-1.3,0.1-1.3,0.7c0,0.4,0.2,0.5,0.5,0.5c0.4,0,0.7-0.3,0.7-0.5c0-0.1,0-0.1,0-0.2V42.9z"/>
		<path d="M46.2,40h0.6v4.5h-0.6V40z"/>
		<path d="M48.3,40.5v0.9h0.8v0.4h-0.8v1.7c0,0.4,0.1,0.6,0.4,0.6c0.1,0,0.3,0,0.3,0l0,0.4c-0.1,0-0.3,0.1-0.5,0.1
			c-0.3,0-0.5-0.1-0.6-0.2c-0.2-0.2-0.2-0.4-0.2-0.8v-1.7h-0.5v-0.4h0.5v-0.7L48.3,40.5z"/>
		<path d="M49.8,40h0.6v1.9h0c0.1-0.2,0.2-0.3,0.4-0.4c0.2-0.1,0.4-0.2,0.6-0.2c0.4,0,1.1,0.3,1.1,1.3v1.8h-0.6v-1.8
			c0-0.5-0.2-0.9-0.7-0.9c-0.4,0-0.6,0.3-0.7,0.6c0,0.1,0,0.2,0,0.3v1.9h-0.6V40z"/>
		<path d="M55.2,40.2v4.3h-0.6v-4.3H55.2z"/>
		<path d="M56.2,42.2c0-0.3,0-0.6,0-0.8h0.5l0,0.5h0c0.2-0.3,0.5-0.6,1-0.6c0.4,0,1.1,0.3,1.1,1.3v1.8h-0.6v-1.8
			c0-0.5-0.2-0.9-0.7-0.9c-0.4,0-0.7,0.3-0.7,0.6c0,0.1,0,0.2,0,0.3v1.8h-0.6V42.2z"/>
		<path d="M59.7,43.9c0.2,0.1,0.5,0.2,0.7,0.2c0.4,0,0.6-0.2,0.6-0.5c0-0.3-0.2-0.4-0.6-0.6c-0.6-0.2-0.8-0.5-0.8-0.9
			c0-0.5,0.4-0.9,1.1-0.9c0.3,0,0.6,0.1,0.8,0.2l-0.1,0.4c-0.1-0.1-0.3-0.2-0.6-0.2c-0.3,0-0.5,0.2-0.5,0.4c0,0.3,0.2,0.4,0.6,0.5
			c0.5,0.2,0.8,0.5,0.8,0.9c0,0.5-0.4,0.9-1.1,0.9c-0.3,0-0.6-0.1-0.9-0.2L59.7,43.9z"/>
		<path d="M64.8,43.6c0,0.3,0,0.6,0,0.8h-0.5l0-0.5h0c-0.1,0.2-0.5,0.6-1,0.6c-0.5,0-1.1-0.3-1.1-1.3v-1.8h0.6v1.7
			c0,0.6,0.2,1,0.7,1c0.4,0,0.6-0.3,0.7-0.5c0-0.1,0.1-0.2,0.1-0.3v-1.9h0.6V43.6z"/>
		<path d="M65.7,42.4c0-0.4,0-0.7,0-1h0.5l0,0.6h0c0.1-0.4,0.5-0.7,0.8-0.7c0.1,0,0.1,0,0.2,0v0.5c-0.1,0-0.1,0-0.2,0
			c-0.4,0-0.7,0.3-0.7,0.7c0,0.1,0,0.2,0,0.3v1.6h-0.6V42.4z"/>
		<path d="M69.5,44.5l0-0.4h0c-0.2,0.2-0.5,0.5-0.9,0.5c-0.6,0-0.9-0.4-0.9-0.9c0-0.7,0.7-1.1,1.8-1.1v-0.1c0-0.3-0.1-0.7-0.7-0.7
			c-0.3,0-0.6,0.1-0.8,0.2l-0.1-0.4c0.3-0.2,0.6-0.3,1-0.3c0.9,0,1.2,0.6,1.2,1.3v1.1c0,0.3,0,0.5,0.1,0.7H69.5z M69.4,42.9
			c-0.6,0-1.3,0.1-1.3,0.7c0,0.4,0.2,0.5,0.5,0.5c0.4,0,0.7-0.3,0.7-0.5c0-0.1,0-0.1,0-0.2V42.9z"/>
		<path d="M70.8,42.2c0-0.3,0-0.6,0-0.8h0.5l0,0.5h0c0.2-0.3,0.5-0.6,1-0.6c0.4,0,1.1,0.3,1.1,1.3v1.8h-0.6v-1.8
			c0-0.5-0.2-0.9-0.7-0.9c-0.4,0-0.7,0.3-0.7,0.6c0,0.1,0,0.2,0,0.3v1.8h-0.6V42.2z"/>
		<path d="M76.6,44.4c-0.1,0.1-0.5,0.2-0.9,0.2c-0.9,0-1.5-0.6-1.5-1.6c0-0.9,0.6-1.6,1.6-1.6c0.3,0,0.6,0.1,0.8,0.2l-0.1,0.4
			c-0.1-0.1-0.3-0.1-0.6-0.1c-0.7,0-1.1,0.5-1.1,1.2c0,0.7,0.5,1.1,1.1,1.1c0.3,0,0.5-0.1,0.7-0.2L76.6,44.4z"/>
		<path d="M77.5,43c0,0.8,0.5,1.1,1.1,1.1c0.4,0,0.6-0.1,0.8-0.2l0.1,0.4c-0.2,0.1-0.5,0.2-1,0.2c-0.9,0-1.5-0.6-1.5-1.5
			c0-0.9,0.5-1.7,1.4-1.7c1,0,1.3,0.9,1.3,1.4c0,0.1,0,0.2,0,0.3H77.5z M79.1,42.6c0-0.4-0.1-0.9-0.8-0.9c-0.6,0-0.8,0.5-0.9,0.9
			H79.1z"/>
	</g>
</g>
</svg>
