<?xml version="1.0" encoding="utf-8"?>
<!-- Generator: Adobe Illustrator 24.0.1, SVG Export Plug-In . SVG Version: 6.00 Build 0)  -->
<svg version="1.1" id="Layer_1" xmlns="http://www.w3.org/2000/svg" xmlns:xlink="http://www.w3.org/1999/xlink" x="0px" y="0px"
	 viewBox="0 0 158.5 90.6" style="enable-background:new 0 0 158.5 90.6;" xml:space="preserve">
<style type="text/css">
	.st0{fill:none;}
	.st1{fill:#02AEEE;}
	.st2{fill:#01AEEE;}
</style>
<g id="Layer_x0020_1">
	<rect y="0" class="st0" width="158.5" height="90.6"/>
	<g>
		<path class="st1" d="M9.7,48.9c-0.4,0.7-0.8,1.4-1.2,2.1c-2.1,3.6-1,5.5,3.1,5.5c3.1,0,6.2,0,9.3,0c2,0,4,1,6.4-0.3
			c-1.2,2.8-3,3.8-5.3,3.9c-4,0.1-8,0.1-12,0c-3-0.1-5.2-2.2-5.6-4.8c-0.4-2.9,1.1-5.5,3.8-6.4C8.7,48.8,9.1,48.6,9.7,48.9z"/>
		<path class="st2" d="M3.3,54c-1.6-2.4-1.8-4.5-0.7-6.4c2-3.6,4-7.2,6.2-10.7c1.6-2.7,5-3.4,7.6-2c2.6,1.5,3.6,4.5,2.2,7.7
			c-0.7-1.2-1.3-2.3-1.9-3.3c-1.5-2.3-3.8-2.3-5.2,0.1c-1.7,2.8-3.3,5.6-4.9,8.4C5.5,49.7,3.5,51.1,3.3,54z"/>
		<path class="st2" d="M17.4,34.4c2.9-0.4,4.8,0.6,5.9,2.6c2.1,3.5,4.1,7,6.1,10.5c1.5,2.8,0.6,5.9-1.9,7.6
			c-1.9,1.3-6.2,1.3-7.8-1.8c1.3,0,2.4,0,3.5,0c2.8-0.1,4.1-2.1,2.7-4.6c-1.6-2.9-3.3-5.7-4.9-8.6C19.9,38.3,19.8,35.9,17.4,34.4z"
			/>
		<path class="st1" d="M13.2,45c2.1,2,2.5,4,0.6,6.2c-0.8,0.9-1.3,2.1-1.9,3.2c-0.6,1.1-1.5,1.4-2.6,0.9c-1-0.5-1.1-1.6-0.6-2.5
			C10.2,50.1,11.7,47.5,13.2,45z"/>
		<path class="st1" d="M20.2,47.3c-3.9,0.5-3.9,0.5-5.7-2.5c-0.6-1.1-1.3-2.2-1.9-3.4c-0.5-1-0.4-1.9,0.5-2.5
			c0.9-0.6,1.9-0.4,2.5,0.6C17.2,42.1,18.7,44.7,20.2,47.3z"/>
		<path class="st2" d="M14.7,52.2c1.1-3.4,1.3-3.5,4.4-3.5c1.5,0,3,0,4.5,0c1.1,0,1.9,0.7,1.8,1.8c0,1.1-0.7,1.7-1.9,1.7
			C20.6,52.2,17.7,52.2,14.7,52.2z"/>
	</g>
	<g>
		<path d="M76.6,39.3c0,4.6-0.1,9.2-0.1,13.8c0,0.5,0,1.1,0,1.7c-0.8,0-1.5,0-2.4,0c0-2.3,0-4.5,0-6.9c-2.4,0-4.7,0-7.1,0
			c0,2.2,0,4.5,0,6.9c-0.8,0-1.6,0-2.5,0c0-5.1,0-10.3,0-15.4c0.8,0,1.6,0,2.5,0c0,2.1,0,4.1,0,6.3c2.4,0,4.6,0,7.1,0
			c0-2.1,0-4.2,0-6.3C74.9,39.3,75.8,39.3,76.6,39.3z"/>
		<path d="M44.5,39.4c1.8,0.4,3.1,3.4,2.5,6c-0.5,2-1.8,3-3.8,3.4c1.2,2,3.7,5.9,3.7,5.9l-2.7,0c0,0-3-5-4.1-6.9
			c0.9-0.1,1.6-0.2,2.3-0.4c1.5-0.3,2.4-1.6,2.5-3.2c0-1.6-1-2.9-2.5-3.2c-1.3-0.2-4.1-0.1-4.1-0.1s0,9,0,13.6c-0.9,0-1.6,0-2.5,0
			c0-0.6,0-1.1,0-1.6c0-4.6,0-9.2-0.1-13.8C38.5,39.3,43.4,39.2,44.5,39.4z"/>
		<path d="M56.6,39.3c2.1,5.1,4.2,10.2,6.3,15.5c-0.9,0-1.7,0-2.6,0c-0.4-0.9-1.5-3.8-1.5-3.8l-7,0c0,0-1.1,2.8-1.5,3.8
			c-0.9,0-1.6,0-2.6,0c0.2-0.6,0.4-1.1,0.6-1.6c1.8-4.3,3.5-8.6,5.3-12.8c0.1-0.3,0.2-0.7,0.3-1C54.7,39.3,55.6,39.3,56.6,39.3z
			 M55.4,42.1c-0.1,0-0.2,0-0.3-0.1c-0.9,2.3-1.8,4.6-2.7,7c2,0,5.7,0,5.7,0S56.2,44.2,55.4,42.1z"/>
		<path d="M108.7,39.3c2.1,5.1,4.2,10.2,6.3,15.5c-0.9,0-1.7,0-2.6,0c-0.4-0.9-1.5-3.8-1.5-3.8l-7,0c0,0-1.1,2.8-1.5,3.8
			c-0.9,0-1.6,0-2.6,0c0.2-0.6,0.4-1.1,0.6-1.6c1.8-4.3,3.5-8.6,5.3-12.8c0.1-0.3,0.2-0.7,0.3-1C106.9,39.3,107.8,39.3,108.7,39.3z
			 M107.5,42.1c-0.1,0-0.2,0-0.3-0.1c-0.9,2.3-1.8,4.6-2.7,7c2,0,5.7,0,5.7,0S108.4,44.2,107.5,42.1z"/>
		<path d="M88.1,39.3c0,0.5-0.1,1-0.1,1.6c-2.1,0-4.2,0-6.4,0c0,1.6,0,3.1,0,4.8c2.1,0,4.1,0,6.2,0c0,0.8,0,1.3,0,2
			c-2.1,0-4.1,0-6.2,0c0,1.7,0,3.2,0,4.9c2.1,0,4.2,0,6.4,0c0,0.8,0,1.4,0,2.1c-3,0-5.9,0-8.9,0c0-5.2,0-10.3,0-15.5
			C82.1,39.3,85.1,39.3,88.1,39.3z"/>
		<path d="M98.8,39.3c0,2.6-0.1,5.3-0.1,7.9c0,1.3-0.2,2.5-0.1,3.8c0.1,2.5-2.9,4.8-6,4c-2.2-0.6-3.4-2-3.3-4.1c0.8,0,1.5,0,2.3,0
			c0.2,0.4,0.4,0.8,0.6,1.2c0.5,0.8,1.3,1.1,2.3,0.9c0.9-0.2,1.5-0.7,1.6-1.7c0.1-0.7,0.2-1.4,0.2-2c0-3.3,0-6.6,0-10
			C97.2,39.3,98,39.3,98.8,39.3z"/>
		<path d="M133.2,52.2c0.8,0.3,1.4,0.5,2.1,0.7c0,0.5,0,1.1,0,1.9c-1-0.2-1.8-0.3-2.6-0.7c-0.9-0.5-1.5-0.4-2.4,0
			c-4.5,1.9-9.3-0.4-10.6-5.1c-0.9-3.2-0.3-6.2,2.2-8.5c2.4-2.2,5.2-2.6,8.1-1.5c4.4,1.7,6.3,7.3,4,11.7
			C133.8,51.2,133.5,51.6,133.2,52.2z M131.4,50.8c2.1-2.1,2.2-6-0.1-8.5c-1.9-2-4.8-2.3-7.1-0.8c-2.2,1.6-3.3,4.7-2.3,6.8
			C125.5,47.1,128.5,48.5,131.4,50.8z M129.5,52c-2.2-2.1-5.1-2.8-6.8-1.7C124.3,52.7,127.3,53.5,129.5,52z"/>
		<path d="M144.2,46.1c1.4,1,2.3,2.2,2.2,4c-0.1,2.5-1.6,4.3-4.2,4.5c-1.7,0.1-3.5,0-5.3,0c0-5.3,0-10.5,0-15.9
			c1.9,0,3.8-0.3,5.7,0.2c2.7,0.7,3.8,4.2,2.2,6.4C144.6,45.6,144.4,45.8,144.2,46.1z M139,52.7c1.2-0.1,2.4,0,3.5-0.3
			c1.2-0.2,1.8-1.4,1.7-2.6c-0.1-1.2-0.9-2.2-2.1-2.3c-1-0.1-2.1,0-3.2,0C139,49.2,139,50.8,139,52.7z M139,45.4
			c1.6-0.1,3.1,0.5,4.1-1.1c0.5-0.9,0.5-1.9-0.2-2.7c-1.1-1.3-2.5-0.9-3.9-0.8C139,42.3,139,43.7,139,45.4z"/>
		<path d="M156.1,54.6c-2.8,0-5.5,0-8.2,0c0-5.2,0-10.4,0-15.7c2.7,0,5.4,0,8.1,0c0,0.6,0,1.1,0,1.8c-2,0-3.9,0-6,0c0,1.7,0,3.2,0,5
			c2,0,3.9,0,6,0c0,0.7,0,1.3,0,2c-2,0-3.9,0-6,0c0,1.7,0,3.3,0,5c1.9,0,3.9,0,6,0C156,53.3,156.1,53.8,156.1,54.6z"/>
	</g>
</g>
</svg>
