<?xml version="1.0" encoding="UTF-8"?>
<!DOCTYPE svg PUBLIC "-//W3C//DTD SVG 1.1//EN" "http://www.w3.org/Graphics/SVG/1.1/DTD/svg11.dtd">
<!-- Creator: CorelDRAW X6 -->
<svg xmlns="http://www.w3.org/2000/svg" xml:space="preserve" width="1.60427in" height="0.916539in" version="1.1" style="shape-rendering:geometricPrecision; text-rendering:geometricPrecision; image-rendering:optimizeQuality; fill-rule:evenodd; clip-rule:evenodd"
viewBox="0 0 1604 917"
 xmlns:xlink="http://www.w3.org/1999/xlink">
 <defs>
  <style type="text/css">
   <![CDATA[
    .fil0 {fill:none}
    .fil8 {fill:#010102}
    .fil7 {fill:#020205}
    .fil6 {fill:#050205}
    .fil11 {fill:#050506}
    .fil3 {fill:#1B65AC}
    .fil4 {fill:#1B69AC}
    .fil9 {fill:#2264AC}
    .fil10 {fill:#2668A6}
    .fil5 {fill:#F6E10D}
    .fil2 {fill:#F7E10C}
    .fil1 {fill:#FEFEFE}
    .fil12 {fill:#D2D3D5;fill-rule:nonzero}
   ]]>
  </style>
 </defs>
 <g id="Layer_x0020_1">
  <metadata id="CorelCorpID_0Corel-Layer"/>
  <rect class="fil0" width="1604" height="917"/>
  <g id="_204795432">
   <path class="fil1" d="M386 448c-2,-8 -1,-91 -1,-106 0,-29 -1,-304 0,-319l826 0c2,11 0,335 0,372 0,5 1,49 -1,52 -4,3 -43,1 -50,1l-362 0c-14,0 -398,1 -413,0l0 0zm-183 459l1198 0 0 -899 -1198 0 0 899 0 0z"/>
   <path class="fil2" d="M954 256c0,-87 93,-117 141,-66 14,15 25,44 22,63 -42,0 -102,-1 -141,0 -3,48 27,83 71,83 20,0 39,-7 53,-17 3,-2 10,-8 13,-9l0 21c-14,10 -27,18 -48,22 -21,4 -44,1 -61,-6 -30,-15 -52,-45 -52,-90l0 0zm-109 -44c4,-2 5,-5 7,-8l20 -22c18,-17 38,-24 61,-10 4,3 15,10 17,14l-11 17c-9,-2 -28,-33 -58,-10 -8,6 -16,14 -22,22 -3,4 -6,8 -9,12 -4,6 -5,7 -5,16l0 58c0,51 4,49 -10,49 -3,0 -6,0 -9,0 -1,-21 -1,-140 0,-166l1 -15 19 0c1,6 0,15 0,22l1 21c0,0 0,0 0,1l0 0zm-364 50c0,-55 33,-97 88,-97 22,0 29,3 48,8l0 21c-5,0 -15,-5 -21,-7 -47,-15 -94,12 -94,73 0,45 25,75 69,75 30,0 43,-10 49,-10l0 19c-14,7 -36,10 -54,10 -25,0 -49,-13 -61,-26 -16,-17 -24,-36 -24,-66l0 0zm171 -77c4,-4 18,-11 25,-13 24,-9 59,-9 76,7 12,11 14,23 14,43 0,19 0,38 0,57 0,57 -5,64 17,50 4,-3 8,-6 13,-9l0 16c-9,5 -17,13 -28,17 -21,8 -19,-8 -22,-20 -8,4 -14,11 -28,16 -40,15 -78,-4 -78,-39 0,-29 17,-43 37,-53 14,-7 37,-12 54,-13 15,-1 16,0 16,-6 0,-28 1,-54 -38,-54 -14,0 -23,2 -33,6 -9,4 -21,13 -25,14l0 -18 0 0zm302 -67l164 0 0 18 -164 0 0 -19zm-568 330c15,2 399,0 413,0l362 0c8,0 47,2 50,-1 3,-2 1,-47 1,-52 0,-37 1,-361 0,-372l-826 0c-2,15 0,290 0,319 0,15 -1,98 1,106l0 0z"/>
   <path class="fil3" d="M978 236c0,-23 26,-54 59,-54 18,0 31,7 40,16 6,6 17,25 17,38l-116 0zm-24 19c0,44 21,75 52,90 16,8 39,10 61,6 21,-4 34,-12 48,-22l0 -21c-3,1 -10,7 -13,9 -15,10 -34,17 -53,17 -45,0 -75,-35 -71,-83 39,-2 99,0 141,0 4,-19 -8,-48 -22,-63 -48,-51 -141,-20 -141,66l0 0z"/>
   <path class="fil4" d="M698 338c-46,0 -49,-49 -9,-69 16,-8 36,-12 57,-11l0 52c0,8 -6,10 -16,17 -8,6 -20,11 -33,11l0 0zm-46 -153l0 18c3,0 16,-10 25,-14 11,-5 19,-6 33,-6 39,0 38,26 38,54 0,6 0,5 -16,6 -17,1 -40,6 -54,13 -20,10 -37,24 -37,53 0,35 38,55 78,39 14,-5 20,-12 28,-16 3,12 1,27 22,20 10,-4 19,-12 28,-17l0 -16c-5,3 -8,6 -13,9 -22,14 -17,6 -17,-50 0,-19 0,-38 0,-57 0,-20 -2,-32 -14,-43 -18,-16 -53,-17 -76,-7 -6,3 -21,9 -25,13l0 0z"/>
   <path class="fil3" d="M481 262c0,30 8,49 24,66 12,12 36,26 61,26 19,0 40,-3 54,-10l0 -19c-7,0 -19,10 -49,10 -44,0 -69,-31 -69,-75 0,-61 48,-87 94,-73 6,2 16,7 21,7l0 -21c-19,-5 -26,-8 -48,-8 -55,0 -88,42 -88,97l0 0z"/>
   <path class="fil4" d="M845 212c0,0 0,-1 0,-1l-1 -21c0,-7 0,-15 0,-22l-19 0 -1 15c0,26 -1,146 0,166 3,0 6,0 9,0 14,0 10,2 10,-49l0 -58c0,-10 1,-10 5,-16 3,-4 6,-8 9,-12 6,-8 14,-16 22,-22 31,-23 50,8 58,10l11 -17c-2,-4 -13,-12 -17,-14 -23,-14 -43,-7 -61,10l-20 22c-2,3 -3,6 -7,8l0 0z"/>
   <path class="fil5" d="M698 338c13,0 25,-5 33,-11 9,-6 16,-9 16,-17l0 -52c-22,-1 -42,3 -57,11 -41,20 -38,69 9,69l0 0z"/>
   <path class="fil6" d="M1145 818c1,-4 3,-7 7,-8 0,5 -3,8 -7,8zm-134 12c0,-9 11,-20 19,-22 1,6 -4,12 -6,14 -3,3 -6,9 -12,7zm-87 0c0,-9 12,-20 19,-22 0,8 -12,23 -19,22zm258 -12c1,-4 3,-8 6,-8 0,5 -3,7 -6,8zm-48 -41c0,-2 10,-27 1,-21 -2,1 -8,17 -10,21 -4,0 -9,0 -12,2 1,5 4,4 9,4 -2,9 -7,21 -10,31 -2,8 -2,8 -9,12 -20,11 -16,-4 -17,-9 -3,-18 -24,1 -24,1 1,-4 1,-6 0,-9 -12,-3 -4,20 -24,18 -3,-8 1,-10 1,-17l-6 -5c-13,-11 -28,27 -47,24 -2,-7 1,-12 2,-17 3,-10 -8,-2 -12,-4 -2,-6 0,-6 0,-11 -6,-1 -8,2 -8,8 0,6 3,4 0,12 -2,5 -10,13 -18,11 -3,-6 0,-10 1,-17l-6 -6c-12,-10 -33,28 -48,26 -1,-8 3,-13 5,-18 1,-2 1,-4 0,-5 -9,-5 -10,20 -25,21 0,-10 6,-13 6,-21 -7,-1 -9,5 -11,10 -9,23 10,18 15,11l3 4c5,10 20,0 25,-5l1 2c0,1 0,1 1,2 1,2 0,1 2,3 8,5 18,-6 21,-9 3,3 3,13 20,5l1 3c0,1 0,1 1,2 6,-1 8,-12 11,-22l6 0c0,7 -5,16 3,20 8,3 16,-2 20,-4 4,5 5,10 14,5 4,-2 9,-7 12,-10 5,8 4,11 19,7l2 2c0,0 2,3 7,0 1,-1 5,-5 7,-6 4,-4 8,-11 15,-12 1,10 -1,18 9,19 10,2 15,-4 21,-6 1,6 5,11 13,8 6,-2 9,-6 13,-9 7,18 26,9 36,1l2 3c1,1 0,1 1,3 1,1 3,2 5,3 11,3 33,-6 32,-18 -4,1 -2,0 -5,3 -1,1 -2,2 -4,3 -6,5 -25,14 -24,-1 1,-1 0,0 2,-1 0,0 1,0 2,0 3,-1 5,-1 7,-5 3,-4 3,-9 1,-14 -6,-2 -10,1 -13,5 -3,4 -4,9 -7,12 -5,5 -16,13 -27,10 -2,-4 -2,-3 -2,-8 15,-1 16,-17 11,-19 -13,-7 -16,29 -36,27 -2,-13 8,-37 12,-48 6,0 14,1 17,-2 -1,-5 -8,-3 -14,-4l0 0z"/>
   <path class="fil2" d="M978 236l116 0c0,-13 -11,-31 -17,-38 -9,-9 -21,-16 -40,-16 -33,0 -59,31 -59,54z"/>
   <path class="fil7" d="M514 831c0,-8 12,-21 19,-21 1,5 -4,10 -6,14 -3,3 -6,10 -13,8zm-31 -12c1,-5 2,-7 7,-8 -1,5 -2,7 -7,8zm81 17c0,-13 10,-40 14,-52 3,-8 6,-16 9,-24 2,-5 8,-19 8,-23 -7,-2 -7,3 -10,8 -8,17 -18,49 -23,67 -2,9 -10,18 -19,16 -2,-6 1,-11 1,-17 -1,-1 -1,-1 -3,-2 -1,-1 0,0 -1,-2 -7,-8 -14,-1 -21,5 -1,1 -2,1 -3,2 -2,2 -3,3 -4,6 -8,12 -28,19 -30,9 -1,-2 0,-3 0,-5 13,0 15,-12 12,-19 -8,-2 -12,3 -15,8 -3,5 -6,12 -4,19 2,6 9,8 17,7 9,-2 10,-5 17,-7 5,15 22,-4 25,-5 3,14 14,7 23,4 -1,28 26,3 32,0 4,17 21,3 23,2 -1,8 -5,17 -3,26l6 0c2,-7 9,-40 22,-43 0,5 -2,12 0,16 5,13 26,-8 23,-15 -7,0 -8,11 -17,13 -1,-7 3,-17 -2,-20 -6,-4 -12,4 -15,6 2,-14 16,-47 24,-61 4,-8 1,-7 1,-7 -4,-4 -6,4 -8,7 -11,23 -18,37 -25,62 -3,11 -13,17 -19,15 -3,-10 8,-37 12,-47l16 -1c0,-6 -2,-5 -13,-5 0,-7 7,-16 4,-21 -5,-4 -9,13 -14,21 -5,0 -8,-1 -12,3 2,4 4,3 9,3l-10 34c-3,10 -18,18 -26,19l0 0z"/>
   <polygon class="fil4" points="954,136 1118,137 1118,118 954,118 "/>
   <path class="fil8" d="M406 796l-2 7c-3,-1 -6,-3 -9,-4 3,-2 6,-2 11,-3l0 0zm52 -11l-39 1c2,-9 7,-22 8,-31 1,-7 0,-7 -6,-7 -3,6 -7,20 -9,28l-3 9c0,0 0,1 0,1 -1,3 -39,5 -17,18 6,3 8,2 11,4 -1,6 -3,11 -4,16 -2,8 -4,11 -3,14 0,3 1,4 4,3 7,0 10,-30 17,-47 13,-1 26,-2 38,-1 -1,6 -12,39 -15,51 -1,5 -6,16 1,17 6,0 6,-10 8,-14l16 -52c4,-1 4,-1 7,-2 1,-7 0,-3 -3,-7 2,-9 8,-23 11,-32 4,-9 13,-27 10,-32 -7,-1 -9,7 -11,12 -2,5 -5,12 -7,17 -5,12 -9,24 -14,35l0 0z"/>
   <path class="fil7" d="M845 824c0,5 -6,18 -2,22 3,3 8,0 9,-3 0,0 3,-33 14,-43 4,-4 7,-2 5,-9 -5,-2 -21,5 -37,7 -4,0 -12,0 -13,4 -1,9 28,1 31,0 -3,8 -28,28 -43,29 -35,2 -8,-66 29,-84 7,-4 22,-7 28,0 5,6 -3,12 2,14 8,4 15,-25 -12,-26 -49,-2 -91,82 -62,100 17,11 46,-7 52,-13l0 0z"/>
   <path class="fil7" d="M684 852l5 0c2,-3 6,-23 7,-29 4,4 5,9 12,11 6,2 14,0 18,-4 0,0 0,0 0,1l2 5 5 0c2,-3 10,-27 9,-31 -10,-1 -4,12 -18,20 -4,2 -10,5 -15,3 -4,-2 -7,-7 -7,-13 3,-2 14,-11 14,-15 -6,-2 -14,6 -15,8 0,-4 9,-30 11,-36 2,-7 13,-32 11,-37 -3,0 -4,0 -6,3 -1,2 -3,5 -3,7 -7,19 -18,53 -24,74 -3,9 -9,23 -5,32l0 0z"/>
   <path class="fil9" d="M958 528l-13 0 0 -18c6,-1 23,-2 26,3 2,3 2,10 -1,12 -3,3 -8,3 -12,3l0 0zm-21 30l7 0 0 -23c38,-3 23,7 28,22l4 1c2,0 4,0 5,0 -3,-10 -2,0 -3,-16 0,-7 -1,-9 -6,-11 3,-3 6,-4 7,-12 1,-21 -23,-16 -43,-16l0 55 0 0z"/>
   <path class="fil9" d="M761 558l7 0 1 -43c3,1 12,17 14,21 5,7 10,14 14,22l9 0 0 -55 -7 0 0 43c-4,-3 -22,-35 -27,-43l-9 0 0 55 0 0z"/>
   <path class="fil9" d="M1088 546c-4,-3 -10,-16 -14,-21 -4,-7 -10,-15 -13,-22l-9 0 0 55 7 0 0 -43c4,2 26,41 28,43l8 0 0 -55 -7 0 0 43 0 0z"/>
   <path class="fil9" d="M486 558l0 -6 -33 0 0 -18 30 0c0,-7 0,-6 -5,-6l-25 0 0 -16c27,-1 34,5 32,-7l-40 0c-1,15 0,33 0,49 0,5 -1,6 5,6l36 0 0 0z"/>
   <path class="fil9" d="M1172 557c5,1 36,1 41,0l0 -5 -33 -1 0 -18 30 0 0 -6c-1,0 0,0 -3,-1 -1,0 -3,0 -4,0l-23 0 0 -16 32 0 0 -7 -40 0 0 54 0 0z"/>
   <path class="fil9" d="M824 540l-6 0c1,15 11,21 26,19 13,-2 22,-16 13,-26 -8,-9 -30,-5 -30,-15 -1,-7 6,-10 13,-10 10,0 9,4 12,11l6 0c0,-8 -2,-12 -8,-15 -23,-13 -43,17 -24,25 7,4 33,4 26,18 -3,6 -21,11 -27,-3l-1 -3c0,0 0,-1 0,-1 0,0 0,0 0,-1l0 0z"/>
   <path class="fil9" d="M649 558l7 0 0 -25 28 0 0 26 7 0 0 -55c-10,0 -7,0 -8,4 0,4 1,12 0,18l-27 0 0 -22 -8 0 0 55 0 0z"/>
   <polygon class="fil10" points="386,558 393,558 393,532 421,532 422,558 429,558 429,503 422,503 421,525 393,526 393,503 386,503 "/>
   <path class="fil9" d="M513 535c1,-5 6,-19 8,-23l8 23 -16 0zm-16 23l7 0 6 -17 21 0c2,5 3,12 7,16l7 0c-1,-6 -16,-47 -19,-55l-8 0c-4,9 -19,48 -20,55l0 0z"/>
   <path class="fil9" d="M919 503l-6 0c0,25 5,49 -14,50 -22,1 -12,-32 -15,-50l-7 0c-1,9 -1,29 0,38 2,23 39,26 43,1 1,-5 0,-13 0,-19 0,-3 0,-7 0,-10l0 -7c-1,-3 0,-1 -1,-3l0 0z"/>
   <path class="fil9" d="M1109 529c0,44 50,34 48,9l-6 0c-4,8 -5,16 -19,15 -20,-2 -19,-38 -3,-44 12,-4 18,2 21,11l7 0c-3,-26 -47,-25 -48,10l0 0z"/>
   <path class="fil9" d="M1016 513c3,3 8,19 8,22l-17 0 8 -22 0 0zm-24 45l6 0 7 -16 20 0c4,1 3,11 8,16l7 0c-1,-6 -16,-46 -19,-55l-8 0c-3,6 -8,20 -10,26 -3,7 -9,21 -10,28l0 0z"/>
   <polygon class="fil9" points="593,509 611,510 612,558 619,558 619,510 638,509 638,503 593,503 "/>
   <path class="fil4" d="M556 557l35 0 0 -6 -27 0c-1,-7 0,-33 0,-43 0,-7 0,-6 -8,-5l0 54 0 0z"/>
   <polygon class="fil4" points="737,557 744,558 744,503 737,503 "/>
   <path class="fil11" d="M741 799c9,2 10,-9 10,-12 -9,-2 -10,9 -10,12z"/>
   <polygon class="fil12" points="388,647 1220,647 1220,649 388,649 "/>
  </g>
 </g>
</svg>
