<?xml version="1.0" encoding="utf-8"?>
<!-- Generator: Adobe Illustrator 24.0.1, SVG Export Plug-In . SVG Version: 6.00 Build 0)  -->
<svg version="1.1" id="Layer_1" xmlns="http://www.w3.org/2000/svg" xmlns:xlink="http://www.w3.org/1999/xlink" x="0px" y="0px"
	 viewBox="0 0 158.5 90.6" style="enable-background:new 0 0 158.5 90.6;" xml:space="preserve">
<style type="text/css">
	.st0{fill:none;}
	.st1{fill:#65106B;}
	.st2{clip-path:url(#SVGID_2_);}
	.st3{opacity:0.75;fill:url(#Rectangle_863_1_);enable-background:new    ;}
	.st4{fill:#FFFFFF;}
	.st5{fill:#00A9ED;}
	.st6{fill:#0D1963;}
</style>
<pattern  y="90.6" width="208" height="120" patternUnits="userSpaceOnUse" id="pattern" viewBox="0 -120 208 120" style="overflow:visible;">
	<g>
		<rect y="-120" class="st0" width="208" height="120"/>
		
			<image style="overflow:visible;enable-background:new    ;" width="208" height="120" xlink:href="5A922467.png"  transform="matrix(1 0 0 -1 0 0)">
		</image>
	</g>
</pattern>
<g id="Group_3093" transform="translate(-13.218 -12.717)">
	<g id="Group_3091" transform="translate(13.218 12.717)">
		<path id="Path_18727" class="st1" d="M140.5,57.3H19.3c-9.1,0-16.5-7.4-16.5-16.5c0-9.1,7.4-16.5,16.5-16.5h121.2
			c9.1,0,16.5,7.4,16.5,16.5C157,49.9,149.6,57.3,140.5,57.3C140.5,57.3,140.5,57.3,140.5,57.3"/>
		<g id="Group_3086" transform="translate(0 0)">
			<g>
				<defs>
					<path id="SVGID_1_" d="M140.5,57.3H19.3c-9.1,0-16.5-7.4-16.5-16.5c0-9.1,7.4-16.5,16.5-16.5h121.2c9.1,0,16.5,7.4,16.5,16.5
						C157,49.9,149.6,57.3,140.5,57.3C140.5,57.3,140.5,57.3,140.5,57.3"/>
				</defs>
				<clipPath id="SVGID_2_">
					<use xlink:href="#SVGID_1_"  style="overflow:visible;"/>
				</clipPath>
				<g id="Group_3085" class="st2">
					<pattern  id="Rectangle_863_1_" xlink:href="#pattern" patternTransform="matrix(0.4025 0 0 -0.4044 -4714.127 -11035.9111)">
					</pattern>
					<rect id="Rectangle_863" x="-2.6" y="19.1" class="st3" width="83.7" height="48.5"/>
				</g>
			</g>
		</g>
		<path id="Path_18729" class="st4" d="M19.3,56.3c-8.6,0-15.5-7-15.5-15.5s7-15.5,15.5-15.5h35.2c8.6,0,15.5,7,15.5,15.5
			s-7,15.5-15.5,15.5H19.3z"/>
		<g id="Group_3087" transform="translate(10.058 10.763)">
			<path id="Path_18730" class="st5" d="M8.7,21.4c-4.8,0-8.7,3.9-8.7,8.7c0,4.4,3.4,8.2,7.8,8.6v-6.3c-1.3-0.5-1.9-1.9-1.4-3.2
				c0.5-1.3,1.9-1.9,3.2-1.4c1.3,0.5,1.9,1.9,1.4,3.2c-0.3,0.7-0.8,1.2-1.4,1.4v6.3c4.8-0.5,8.2-4.8,7.7-9.5
				C16.8,24.7,13.1,21.4,8.7,21.4"/>
			<path id="Path_18731" class="st6" d="M30.1,30.1c-1-0.7-2.1-1.3-3.2-1.7c-1.5-0.6-2.7-1.1-2.7-2.1c0-0.4,0.2-0.9,0.6-1.1
				c0.4-0.3,1-0.5,1.5-0.5c1.2,0.1,2.4,0.5,3.3,1.3l0.4,0.4l1.7-3.1l-0.2-0.2c-1.4-1.3-3.2-1.9-5.1-1.9c-1.5,0-3,0.5-4.1,1.4
				c-1.1,0.9-1.7,2.2-1.7,3.6c0,1.3,0.6,2.6,1.6,3.4c1,0.7,2,1.3,3.2,1.7c1.5,0.7,2.8,1.2,2.8,2.2c0,0.8-0.5,1.6-2,1.6
				c-1.4-0.1-2.7-0.7-3.8-1.6L22,33.4l-2,2.8l0.2,0.2c0.5,0.5,1,0.9,1.5,1.2c1.3,0.7,2.8,1.1,4.3,1.1c1.5,0.1,3-0.5,4.2-1.5
				c1-0.9,1.5-2.2,1.5-3.6C31.8,32.3,31.2,31,30.1,30.1"/>
			<path id="Path_18732" class="st6" d="M44.8,30.9c-0.4-0.6-0.9-1.1-1.5-1.4c1-0.8,1.6-2.1,1.5-3.4c0-1.3-0.5-2.6-1.5-3.4
				c-1.1-0.8-2.5-1.2-3.8-1.2h-6.1v16.9h6.2c1.5,0,2.9-0.4,4.1-1.2c1.2-0.9,1.9-2.4,1.8-3.9C45.5,32.5,45.3,31.6,44.8,30.9
				 M39.8,35.3h-2.9V24.7h2.5c0.9-0.1,1.7,0.5,1.8,1.4c0,0.1,0,0.2,0,0.3c0.1,0.8-0.5,1.6-1.3,1.7c-0.1,0-0.3,0-0.4,0h-0.9v3.1h1.2
				c0.6,0,1.1,0.2,1.5,0.6c0.4,0.4,0.6,0.9,0.5,1.4c0.1,1.1-0.7,2-1.8,2.1C40,35.3,39.9,35.3,39.8,35.3"/>
			<rect id="Rectangle_864" x="47.2" y="21.5" class="st6" width="3.8" height="16.9"/>
		</g>
		<g id="Group_3090" transform="translate(103.167 8.009)">
			<g id="Group_3088">
				<path id="Path_18733" class="st4" d="M-23.6,38.6c0.4,0.3,0.9,0.5,1.3,0.6c0.6,0.1,1.1,0.2,1.7,0.2c0.6,0,1.2-0.2,1.7-0.6
					c0.5-0.4,0.7-1.1,0.7-1.7v-1.1c-0.4,0.3-0.7,0.5-1.2,0.7c-0.5,0.2-1.1,0.3-1.7,0.3c-0.7,0-1.4-0.1-2-0.4
					c-0.6-0.2-1.1-0.6-1.5-1.1c-0.4-0.5-0.7-1-0.9-1.6c-0.2-0.7-0.3-1.3-0.3-2c0-0.7,0.1-1.5,0.4-2.2c0.3-0.7,0.7-1.3,1.2-1.8
					c0.5-0.5,1.2-0.9,1.9-1.2c0.8-0.3,1.6-0.4,2.4-0.4c0.8,0,1.7,0.1,2.5,0.2c0.6,0.1,1.2,0.3,1.9,0.5v10.1c0,0.7-0.1,1.3-0.4,1.9
					c-0.2,0.5-0.6,1-1,1.4c-0.5,0.4-1,0.7-1.6,0.9c-0.6,0.2-1.3,0.3-2,0.3c-0.5,0-1,0-1.5-0.1c-0.4,0-0.8-0.1-1.1-0.2
					c-0.3-0.1-0.6-0.2-0.9-0.3c-0.3-0.1-0.5-0.3-0.8-0.5L-23.6,38.6z M-18.2,28.7c-0.2-0.1-0.4-0.1-0.6-0.2c-0.3,0-0.7-0.1-1-0.1
					c-0.5,0-1,0.1-1.4,0.3c-0.4,0.2-0.7,0.4-1,0.7c-0.3,0.3-0.5,0.6-0.6,1c-0.1,0.4-0.2,0.8-0.2,1.2c0,0.7,0.2,1.4,0.6,2
					c0.5,0.6,1.2,0.9,1.9,0.8c0.6,0,1.3-0.1,1.8-0.5c0.4-0.4,0.7-1,0.6-1.6L-18.2,28.7z"/>
				<path id="Path_18734" class="st4" d="M-3.7,35.4l-0.4,0.4C-4.4,36-4.6,36.2-5,36.4c-0.5,0.3-0.9,0.5-1.4,0.6
					c-0.7,0.2-1.4,0.3-2.1,0.3c-0.8,0-1.5-0.1-2.3-0.4c-1.3-0.5-2.4-1.6-2.9-3c-0.3-0.7-0.4-1.5-0.4-2.3c0-0.7,0.1-1.5,0.4-2.1
					c0.2-0.6,0.6-1.2,1.1-1.7c0.5-0.5,1-0.9,1.7-1.2c0.7-0.3,1.4-0.4,2.1-0.4c0.8,0,1.7,0.2,2.4,0.5c0.6,0.3,1.2,0.8,1.6,1.4
					c0.4,0.6,0.7,1.2,0.9,1.9c0.2,0.7,0.3,1.4,0.3,2.2v0.4h-7.8c0,0.4,0.1,0.7,0.3,1c0.2,0.3,0.4,0.6,0.7,0.8
					c0.3,0.2,0.6,0.4,0.9,0.5c0.3,0.1,0.7,0.2,1,0.2c0.8,0,1.6-0.1,2.3-0.5c0.2-0.1,0.5-0.2,0.7-0.4c0.2-0.1,0.3-0.3,0.4-0.3
					L-3.7,35.4z M-6.3,30.6c0-0.3-0.1-0.5-0.2-0.8c-0.1-0.3-0.3-0.5-0.5-0.7c-0.2-0.2-0.5-0.4-0.8-0.5c-0.3-0.1-0.7-0.2-1.1-0.2
					c-0.4,0-0.8,0.1-1.1,0.2c-0.3,0.1-0.6,0.3-0.8,0.5c-0.2,0.2-0.4,0.5-0.5,0.7c-0.1,0.3-0.2,0.5-0.2,0.8H-6.3z"/>
				<path id="Path_18735" class="st4" d="M-2.1,26.5h2.5l0.1,1.2c0.2-0.2,0.3-0.3,0.5-0.5c0.2-0.2,0.4-0.3,0.7-0.5
					c0.3-0.1,0.6-0.3,0.9-0.3c0.4-0.1,0.7-0.1,1.1-0.1c1.1-0.1,2.2,0.4,3,1.2c0.7,0.9,1.1,2,1,3.1v6.3H5v-6.3C5,30,4.8,29.5,4.4,29
					c-0.4-0.4-0.9-0.6-1.4-0.5c-0.3,0-0.7,0.1-1,0.2c-0.3,0.1-0.6,0.3-0.8,0.6c-0.2,0.3-0.4,0.6-0.5,0.9c-0.1,0.3-0.2,0.7-0.2,1.1
					v5.6h-2.6V26.5z"/>
				<path id="Path_18736" class="st4" d="M19.4,35.4L19,35.8c-0.3,0.2-0.6,0.5-0.9,0.6c-0.5,0.3-0.9,0.5-1.4,0.6
					c-0.7,0.2-1.4,0.3-2.1,0.3c-0.8,0-1.5-0.1-2.3-0.4c-1.3-0.5-2.4-1.6-2.9-3c-0.3-0.7-0.4-1.5-0.4-2.3c0-0.7,0.1-1.5,0.4-2.1
					c0.2-0.6,0.6-1.2,1.1-1.7c0.5-0.5,1-0.9,1.7-1.2c0.7-0.3,1.4-0.4,2.1-0.4c0.8,0,1.7,0.2,2.4,0.5c0.6,0.3,1.2,0.8,1.6,1.4
					c0.4,0.6,0.7,1.2,0.9,1.9c0.2,0.7,0.3,1.4,0.3,2.2v0.4h-7.8c0,0.4,0.1,0.7,0.3,1c0.2,0.3,0.4,0.6,0.7,0.8
					c0.3,0.2,0.6,0.4,0.9,0.5c0.3,0.1,0.7,0.2,1,0.2c0.8,0,1.6-0.1,2.3-0.5c0.2-0.1,0.5-0.2,0.7-0.4c0.2-0.1,0.3-0.3,0.4-0.3
					L19.4,35.4z M16.8,30.6c0-0.3-0.1-0.5-0.2-0.8c-0.1-0.3-0.3-0.5-0.5-0.7c-0.2-0.2-0.5-0.4-0.8-0.5c-0.3-0.1-0.7-0.2-1.1-0.2
					c-0.4,0-0.8,0.1-1.1,0.2c-0.3,0.1-0.6,0.3-0.8,0.5c-0.2,0.2-0.4,0.5-0.5,0.7c-0.1,0.3-0.2,0.5-0.2,0.8H16.8z"/>
				<path id="Path_18737" class="st4" d="M21,26.5h2.5l0.1,1.3c0.1-0.2,0.3-0.3,0.5-0.5c0.2-0.2,0.4-0.4,0.7-0.5
					c0.3-0.2,0.6-0.3,0.9-0.4c0.4-0.1,0.8-0.2,1.1-0.2c0.2,0,0.5,0,0.7,0c0.2,0,0.4,0.1,0.6,0.2l-0.5,2.5c-0.2-0.1-0.4-0.1-0.5-0.2
					c-0.2,0-0.4,0-0.7,0c-0.3,0-0.7,0.1-1,0.2c-0.3,0.1-0.6,0.3-0.8,0.5c-0.5,0.5-0.8,1.1-0.8,1.8v5.6H21L21,26.5z"/>
				<path id="Path_18738" class="st4" d="M34.9,35.9c-0.4,0.4-0.8,0.7-1.3,0.9c-0.6,0.3-1.3,0.4-1.9,0.4c-0.4,0-0.9-0.1-1.3-0.2
					c-0.4-0.1-0.8-0.3-1.2-0.6c-0.4-0.3-0.6-0.6-0.8-1.1c-0.2-0.5-0.3-1-0.3-1.5c0-0.5,0.1-1.1,0.3-1.6c0.2-0.5,0.5-0.9,0.9-1.2
					c0.4-0.3,0.9-0.6,1.4-0.7c0.6-0.2,1.2-0.3,1.9-0.2c0.2,0,0.4,0,0.7,0c0.3,0,0.5,0,0.7,0l0.8,0V30c0-0.5-0.2-0.9-0.6-1.2
					c-0.5-0.3-1-0.5-1.6-0.4c-0.6,0-1.2,0.1-1.8,0.3c-0.4,0.2-0.8,0.4-1.2,0.6l-1.2-1.8c0.2-0.1,0.4-0.3,0.7-0.5
					c0.3-0.2,0.6-0.3,0.9-0.4c0.4-0.1,0.8-0.2,1.2-0.3c0.5-0.1,1.1-0.1,1.6-0.1c0.6,0,1.2,0.1,1.8,0.3c0.5,0.2,1,0.4,1.4,0.8
					c0.4,0.3,0.7,0.7,0.9,1.2c0.2,0.5,0.3,1,0.3,1.5v7h-2.4L34.9,35.9z M34.9,32.2l-0.8,0c-0.2,0-0.4,0-0.7,0s-0.4,0-0.6,0
					c-0.6-0.1-1.3,0.1-1.8,0.5c-0.3,0.3-0.5,0.7-0.5,1.1c0,0.4,0.2,0.8,0.5,1c0.4,0.3,0.9,0.4,1.4,0.4c0.6,0,1.2-0.2,1.7-0.6
					c0.2-0.2,0.4-0.4,0.5-0.6c0.1-0.2,0.2-0.5,0.2-0.8L34.9,32.2z"/>
				<path id="Path_18739" class="st4" d="M39.4,22.1H42v14.8h-2.6V22.1z"/>
			</g>
			<g id="Group_3089" transform="translate(39.909 24.79)">
				<path id="Path_18740" class="st4" d="M-36.9,15.3h0.8v4h-0.8V15.3z"/>
				<path id="Path_18741" class="st4" d="M-34.5,15.3h0.8l2.1,2.8v-2.8h0.8v4h-0.8l-2.1-2.9v2.9h-0.8V15.3z"/>
				<path id="Path_18742" class="st4" d="M-29,18.1c0.1,0.1,0.1,0.1,0.2,0.2c0.1,0.1,0.2,0.1,0.2,0.2c0.1,0.1,0.2,0.1,0.3,0.1
					c0.1,0,0.2,0.1,0.4,0.1c0.2,0,0.4,0,0.6-0.2c0.1-0.1,0.2-0.2,0.2-0.4c0-0.1,0-0.2-0.1-0.2c0-0.1-0.1-0.1-0.2-0.2
					c-0.1-0.1-0.2-0.1-0.3-0.1c-0.2,0-0.3-0.1-0.5-0.1c-0.2,0-0.3-0.1-0.5-0.2c-0.1-0.1-0.3-0.2-0.4-0.3c-0.1-0.1-0.2-0.2-0.2-0.3
					c0-0.1-0.1-0.3-0.1-0.4c0-0.1,0-0.3,0.1-0.4c0.1-0.1,0.2-0.3,0.3-0.4c0.1-0.1,0.3-0.2,0.5-0.3c0.2-0.1,0.4-0.1,0.7-0.1
					c0.2,0,0.4,0,0.6,0.1c0.1,0,0.3,0.1,0.4,0.2c0.1,0.1,0.2,0.1,0.3,0.2c0.1,0.1,0.1,0.1,0.1,0.1l-0.5,0.5c0,0-0.1,0-0.1-0.1
					c-0.1,0-0.1-0.1-0.2-0.1c-0.1,0-0.2-0.1-0.3-0.1c-0.1,0-0.2,0-0.3,0c-0.1,0-0.2,0-0.3,0c-0.1,0-0.1,0.1-0.2,0.1
					c0,0-0.1,0.1-0.1,0.1c0,0,0,0.1,0,0.2c0,0.1,0,0.1,0,0.2c0,0.1,0.1,0.1,0.1,0.2c0.1,0.1,0.2,0.1,0.3,0.1c0.1,0,0.3,0.1,0.4,0.1
					c0.2,0,0.3,0.1,0.5,0.1c0.1,0.1,0.3,0.1,0.4,0.2c0.1,0.1,0.2,0.2,0.3,0.4c0.1,0.2,0.1,0.3,0.1,0.5c0,0.2,0,0.3-0.1,0.5
					c-0.1,0.1-0.2,0.3-0.3,0.4c-0.1,0.1-0.3,0.2-0.5,0.3c-0.2,0.1-0.4,0.1-0.6,0.1c-0.2,0-0.4,0-0.6-0.1c-0.2,0-0.3-0.1-0.5-0.2
					c-0.1-0.1-0.2-0.1-0.4-0.2c-0.1-0.1-0.2-0.2-0.3-0.3L-29,18.1z"/>
				<path id="Path_18743" class="st4" d="M-25,15.3h0.8v2.4c0,0.1,0,0.3,0,0.4c0,0.1,0.1,0.2,0.2,0.3c0.1,0.1,0.2,0.2,0.3,0.2
					c0.3,0.1,0.6,0.1,0.9,0c0.1,0,0.2-0.1,0.3-0.2c0.1-0.1,0.1-0.2,0.2-0.3c0-0.1,0-0.3,0-0.4v-2.4h0.8v2.5c0,0.2,0,0.4-0.1,0.6
					c-0.1,0.2-0.2,0.4-0.3,0.5c-0.2,0.1-0.3,0.3-0.5,0.3c-0.5,0.2-1,0.2-1.5,0c-0.2-0.1-0.4-0.2-0.5-0.3c-0.1-0.1-0.3-0.3-0.3-0.5
					c-0.1-0.2-0.1-0.4-0.1-0.6L-25,15.3z"/>
				<path id="Path_18744" class="st4" d="M-20,15.3h1.4c0.2,0,0.5,0,0.7,0.1c0.2,0.1,0.3,0.2,0.5,0.3c0.2,0.2,0.3,0.5,0.3,0.8
					c0,0.2-0.1,0.5-0.2,0.7c-0.1,0.2-0.3,0.4-0.5,0.5l1,1.7h-0.9l-0.9-1.6h-0.6v1.6H-20L-20,15.3z M-18.6,17.1c0.2,0,0.3,0,0.5-0.2
					c0.1-0.1,0.2-0.3,0.2-0.4c0-0.2-0.1-0.3-0.2-0.4c-0.1-0.1-0.3-0.2-0.5-0.2h-0.6v1.1H-18.6z"/>
				<path id="Path_18745" class="st4" d="M-14.4,15.3h0.8l1.6,4h-0.9l-0.4-1h-1.6l-0.4,1H-16L-14.4,15.3z M-13.4,17.6l-0.6-1.5
					l-0.6,1.5H-13.4z"/>
				<path id="Path_18746" class="st4" d="M-10.8,15.3h0.8l2.1,2.8v-2.8h0.8v4h-0.8l-2.1-2.9v2.9h-0.8V15.3z"/>
				<path id="Path_18747" class="st4" d="M-1.9,18.5c-0.1,0.1-0.2,0.2-0.3,0.3c-0.1,0.1-0.3,0.2-0.4,0.3c-0.2,0.1-0.3,0.2-0.5,0.2
					c-0.2,0.1-0.4,0.1-0.6,0.1c-0.3,0-0.6,0-0.9-0.2C-4.7,19.1-5,19-5.2,18.8c-0.2-0.2-0.3-0.4-0.4-0.7c-0.2-0.5-0.2-1.1,0-1.6
					c0.1-0.2,0.3-0.5,0.5-0.7c0.2-0.2,0.4-0.3,0.7-0.5c0.3-0.1,0.6-0.2,0.9-0.2c0.2,0,0.4,0,0.6,0.1c0.2,0,0.3,0.1,0.5,0.2
					c0.1,0.1,0.3,0.2,0.4,0.3c0.1,0.1,0.2,0.2,0.3,0.3l-0.6,0.5c-0.1-0.2-0.3-0.3-0.5-0.4c-0.2-0.1-0.4-0.2-0.7-0.2
					c-0.6,0-1.1,0.3-1.3,0.9c-0.1,0.2-0.1,0.4-0.1,0.5c0,0.2,0,0.4,0.1,0.5c0.1,0.2,0.1,0.3,0.3,0.4c0.1,0.1,0.3,0.2,0.4,0.3
					c0.2,0.1,0.4,0.1,0.5,0.1c0.2,0,0.3,0,0.5-0.1c0.1,0,0.2-0.1,0.3-0.1c0.1-0.1,0.2-0.1,0.2-0.2c0.1-0.1,0.1-0.1,0.2-0.2
					L-1.9,18.5z"/>
				<path id="Path_18748" class="st4" d="M-0.6,15.3h2.8V16h-2v0.9h1.4v0.7H0.2v1h2.1v0.7h-2.9L-0.6,15.3z"/>
			</g>
		</g>
	</g>
	<g id="Group_3092" transform="translate(25.067 65.743)">
		<path id="Path_18749" class="st6" d="M0.3,13.7c0.1,0.1,0.2,0.2,0.2,0.2c0.1,0.1,0.2,0.2,0.3,0.2c0.1,0.1,0.3,0.1,0.4,0.2
			c0.2,0.1,0.3,0.1,0.5,0.1c0.3,0,0.5-0.1,0.7-0.2c0.2-0.1,0.2-0.3,0.2-0.5c0-0.1,0-0.2-0.1-0.3c-0.1-0.1-0.1-0.2-0.2-0.2
			C2.3,13,2.1,13,2,12.9c-0.2-0.1-0.4-0.1-0.6-0.2c-0.2,0-0.5-0.1-0.7-0.2c-0.2-0.1-0.3-0.2-0.5-0.4C0.1,12,0,11.9-0.1,11.7
			c-0.1-0.2-0.1-0.4-0.1-0.5c0-0.2,0-0.4,0.1-0.6c0.1-0.2,0.2-0.4,0.4-0.5c0.2-0.2,0.4-0.3,0.6-0.4c0.3-0.1,0.6-0.1,0.9-0.1
			c0.3,0,0.5,0,0.8,0.1c0.2,0.1,0.4,0.1,0.5,0.2c0.1,0.1,0.2,0.2,0.3,0.3c0.1,0.1,0.1,0.1,0.2,0.2L2.9,11c0,0-0.1-0.1-0.1-0.1
			c-0.1-0.1-0.2-0.1-0.2-0.2c-0.1-0.1-0.2-0.1-0.3-0.1c-0.1,0-0.3-0.1-0.4-0.1c-0.1,0-0.3,0-0.4,0.1c-0.1,0-0.2,0.1-0.3,0.1
			C1,10.8,1,10.8,0.9,10.9c0,0.1,0,0.1-0.1,0.2c0,0.2,0.1,0.4,0.2,0.5c0.1,0.1,0.2,0.1,0.4,0.2c0.2,0.1,0.4,0.1,0.6,0.1
			c0.2,0,0.4,0.1,0.6,0.2c0.2,0.1,0.4,0.2,0.5,0.3c0.2,0.1,0.3,0.3,0.4,0.5c0.1,0.2,0.1,0.5,0.1,0.7c0,0.2-0.1,0.5-0.2,0.7
			c-0.1,0.2-0.2,0.4-0.4,0.5c-0.2,0.2-0.4,0.3-0.7,0.4c-0.3,0.1-0.5,0.1-0.8,0.1c-0.3,0-0.5,0-0.8-0.1c-0.2-0.1-0.4-0.1-0.6-0.3
			c-0.2-0.1-0.3-0.2-0.5-0.3c-0.1-0.1-0.2-0.2-0.3-0.3L0.3,13.7z"/>
		<path id="Path_18750" class="st6" d="M5,9.7h1.1V13c0,0.2,0,0.4,0.1,0.6c0,0.2,0.1,0.3,0.2,0.4c0.1,0.1,0.2,0.2,0.4,0.3
			c0.4,0.1,0.8,0.1,1.2,0c0.1-0.1,0.3-0.2,0.4-0.3c0.1-0.1,0.2-0.3,0.2-0.4c0-0.2,0.1-0.4,0.1-0.6V9.7h1.1v3.5c0,0.3,0,0.6-0.2,0.9
			c-0.1,0.3-0.3,0.5-0.5,0.7c-0.2,0.2-0.5,0.4-0.7,0.5c-0.6,0.2-1.3,0.2-2,0c-0.3-0.1-0.5-0.3-0.7-0.5c-0.2-0.2-0.4-0.4-0.5-0.7
			C5,13.8,5,13.5,5,13.2V9.7z"/>
		<path id="Path_18751" class="st6" d="M10.9,9.7h1.9c0.3,0,0.6,0,0.9,0.2c0.2,0.1,0.4,0.2,0.6,0.4c0.1,0.2,0.3,0.3,0.3,0.5
			c0.1,0.2,0.1,0.4,0.1,0.6c0,0.3-0.1,0.6-0.2,0.9c-0.2,0.3-0.4,0.5-0.7,0.6l1.3,2.3h-1.2l-1.2-2.2h-0.8v2.2h-1V9.7z M12.8,12.2
			c0.2,0,0.5-0.1,0.6-0.2c0.1-0.1,0.2-0.4,0.2-0.6c0-0.2-0.1-0.4-0.2-0.6c-0.2-0.2-0.4-0.2-0.6-0.2h-0.9v1.6L12.8,12.2z"/>
		<path id="Path_18752" class="st6" d="M17.7,9.7h1.1l2.2,5.5h-1.2l-0.5-1.4h-2.1l-0.5,1.4h-1.1L17.7,9.7z M19,13l-0.8-2.1L17.4,13
			H19z"/>
		<path id="Path_18753" class="st6" d="M21.8,9.7h1.1V12l2.1-2.3h1.2L24.1,12l2.3,3.3h-1.3l-1.7-2.5l-0.5,0.6v1.9h-1.1V9.7z"/>
		<path id="Path_18754" class="st6" d="M27.6,13.7c0.1,0.1,0.2,0.2,0.2,0.2c0.1,0.1,0.2,0.2,0.3,0.2c0.1,0.1,0.3,0.1,0.4,0.2
			c0.2,0.1,0.3,0.1,0.5,0.1c0.3,0,0.5-0.1,0.7-0.2c0.2-0.1,0.2-0.3,0.2-0.5c0-0.1,0-0.2-0.1-0.3c-0.1-0.1-0.1-0.2-0.2-0.2
			c-0.1-0.1-0.3-0.1-0.4-0.2c-0.2-0.1-0.4-0.1-0.6-0.2c-0.2,0-0.5-0.1-0.7-0.2c-0.2-0.1-0.3-0.2-0.5-0.4c-0.1-0.1-0.2-0.3-0.3-0.5
			c-0.1-0.2-0.1-0.4-0.1-0.5c0-0.2,0-0.4,0.1-0.6c0.1-0.2,0.2-0.4,0.4-0.5c0.2-0.2,0.4-0.3,0.6-0.4c0.3-0.1,0.6-0.1,0.9-0.1
			c0.3,0,0.5,0,0.8,0.1c0.2,0.1,0.4,0.1,0.5,0.2c0.1,0.1,0.2,0.2,0.3,0.3c0.1,0.1,0.1,0.1,0.2,0.2L30.2,11c0,0-0.1-0.1-0.1-0.1
			c-0.1-0.1-0.2-0.1-0.2-0.2c-0.1-0.1-0.2-0.1-0.3-0.1c-0.1,0-0.3-0.1-0.4-0.1c-0.1,0-0.3,0-0.4,0.1c-0.1,0-0.2,0.1-0.3,0.1
			c-0.1,0.1-0.1,0.1-0.2,0.2c0,0.1,0,0.1-0.1,0.2c0,0.1,0,0.2,0.1,0.3c0,0.1,0.1,0.2,0.2,0.2c0.1,0.1,0.2,0.1,0.4,0.2
			c0.2,0.1,0.4,0.1,0.6,0.1c0.2,0,0.4,0.1,0.6,0.2c0.2,0.1,0.4,0.2,0.5,0.3c0.2,0.1,0.3,0.3,0.4,0.5c0.1,0.2,0.2,0.5,0.1,0.7
			c0,0.2-0.1,0.5-0.2,0.7c-0.1,0.2-0.2,0.4-0.4,0.5c-0.2,0.2-0.4,0.3-0.7,0.4c-0.3,0.1-0.5,0.1-0.8,0.1c-0.3,0-0.5,0-0.8-0.1
			c-0.2-0.1-0.4-0.1-0.6-0.3c-0.2-0.1-0.3-0.2-0.5-0.3c-0.1-0.1-0.2-0.2-0.3-0.3L27.6,13.7z"/>
		<path id="Path_18755" class="st6" d="M32.4,9.7h1.1v2.2h2.8V9.7h1.1v5.5h-1.1v-2.4h-2.8v2.4h-1.1V9.7z"/>
		<path id="Path_18756" class="st6" d="M40.3,9.7h1.1l2.2,5.5h-1.2l-0.5-1.4h-2.1l-0.5,1.4h-1.1L40.3,9.7z M41.6,13l-0.8-2.1
			L40.1,13H41.6z"/>
		<path id="Path_18757" class="st6" d="M48.7,9.7h1.1l2.2,5.5h-1.2l-0.5-1.4h-2.1l-0.5,1.4h-1.1L48.7,9.7z M50,13l-0.8-2.1L48.5,13
			H50z"/>
		<path id="Path_18758" class="st6" d="M52.6,9.7h1.1V13c0,0.2,0,0.4,0.1,0.6c0,0.2,0.1,0.3,0.2,0.4c0.1,0.1,0.2,0.2,0.4,0.3
			c0.4,0.1,0.8,0.1,1.2,0c0.1-0.1,0.3-0.2,0.4-0.3c0.1-0.1,0.2-0.3,0.2-0.4c0-0.2,0.1-0.4,0.1-0.6V9.7h1.1v3.5c0,0.3,0,0.6-0.2,0.9
			c-0.1,0.3-0.3,0.5-0.5,0.7c-0.2,0.2-0.5,0.4-0.7,0.5c-0.6,0.2-1.3,0.2-2,0c-0.3-0.1-0.5-0.3-0.7-0.5c-0.2-0.2-0.4-0.4-0.5-0.7
			c-0.1-0.3-0.2-0.6-0.2-0.9L52.6,9.7z"/>
		<path id="Path_18759" class="st6" d="M58.5,9.7h1.9c0.3,0,0.6,0,0.9,0.2c0.2,0.1,0.4,0.2,0.6,0.4c0.1,0.2,0.3,0.3,0.3,0.5
			c0.1,0.2,0.1,0.4,0.1,0.6c0,0.3-0.1,0.6-0.2,0.9c-0.2,0.3-0.4,0.5-0.7,0.6l1.3,2.3h-1.2l-1.2-2.2h-0.8v2.2h-1L58.5,9.7z
			 M60.4,12.2c0.2,0,0.5-0.1,0.6-0.2c0.1-0.1,0.2-0.4,0.2-0.6c0-0.2-0.1-0.4-0.2-0.6c-0.2-0.2-0.4-0.2-0.6-0.2h-0.9v1.6L60.4,12.2z"
			/>
		<path id="Path_18760" class="st6" d="M66.2,9.7h2c0.3,0,0.5,0,0.8,0.1c0.2,0.1,0.4,0.2,0.6,0.3c0.1,0.1,0.3,0.3,0.3,0.5
			c0.1,0.2,0.1,0.4,0.1,0.6c0,0.2,0,0.3-0.1,0.5c-0.1,0.1-0.2,0.3-0.3,0.4c-0.1,0.1-0.2,0.2-0.3,0.2c-0.1,0-0.2,0.1-0.2,0.1
			c0.1,0,0.2,0,0.4,0.1c0.1,0.1,0.3,0.1,0.4,0.2c0.1,0.1,0.2,0.3,0.3,0.4c0.1,0.2,0.1,0.4,0.1,0.6c0,0.3,0,0.5-0.2,0.7
			c-0.1,0.2-0.3,0.4-0.4,0.5c-0.2,0.1-0.4,0.2-0.7,0.3c-0.3,0.1-0.6,0.1-0.8,0.1h-2L66.2,9.7z M68.1,11.9c0.1,0,0.2,0,0.3,0
			c0.1,0,0.2-0.1,0.3-0.1c0.1-0.1,0.1-0.1,0.2-0.2c0.1-0.1,0.1-0.2,0.1-0.3c0-0.2-0.1-0.4-0.3-0.5c-0.1-0.1-0.2-0.1-0.3-0.1
			c-0.1,0-0.2,0-0.3,0h-0.9v1.3L68.1,11.9z M68.1,14.4c0.1,0,0.2,0,0.3,0c0.1,0,0.2,0,0.3-0.1c0.1-0.1,0.2-0.1,0.3-0.2
			c0.1-0.1,0.1-0.3,0.1-0.4c0-0.1,0-0.3-0.1-0.4c-0.1-0.1-0.2-0.2-0.3-0.2c-0.1-0.1-0.2-0.1-0.3-0.1c-0.1,0-0.2,0-0.3,0h-0.9v1.6
			L68.1,14.4z"/>
		<path id="Path_18761" class="st6" d="M71.4,9.7h1.1v2.2h2.8V9.7h1.1v5.5h-1.1v-2.4h-2.8v2.4h-1.1V9.7z"/>
		<path id="Path_18762" class="st6" d="M79.3,9.7h1.1l2.2,5.5h-1.2l-0.5-1.4h-2.1l-0.5,1.4h-1.1L79.3,9.7z M80.6,13l-0.8-2.1
			L79.1,13H80.6z"/>
		<path id="Path_18763" class="st6" d="M83.4,9.7h1.9c0.3,0,0.6,0,0.9,0.2c0.2,0.1,0.4,0.2,0.6,0.4c0.1,0.2,0.3,0.3,0.3,0.5
			c0.1,0.2,0.1,0.4,0.1,0.6c0,0.3-0.1,0.6-0.2,0.9c-0.2,0.3-0.4,0.5-0.7,0.6l1.3,2.3h-1.2l-1.2-2.2h-0.8v2.2h-1L83.4,9.7z
			 M85.3,12.2c0.2,0,0.5-0.1,0.6-0.2c0.1-0.1,0.2-0.4,0.2-0.6c0-0.2-0.1-0.4-0.2-0.6c-0.2-0.2-0.4-0.2-0.6-0.2h-0.9v1.6L85.3,12.2z"
			/>
		<path id="Path_18764" class="st6" d="M91.2,15.4c-1.2,0-2.3-0.7-2.7-1.8c-0.3-0.7-0.3-1.5,0-2.3c0.3-0.7,0.9-1.3,1.6-1.5
			c0.4-0.2,0.8-0.2,1.2-0.2c0.4,0,0.8,0.1,1.2,0.2c0.3,0.1,0.7,0.4,0.9,0.6c0.3,0.3,0.5,0.6,0.6,0.9c0.3,0.7,0.3,1.5,0,2.3
			C93.4,14.7,92.4,15.4,91.2,15.4L91.2,15.4z M91.2,14.4c0.3,0,0.5,0,0.8-0.2c0.2-0.1,0.4-0.2,0.6-0.4c0.2-0.2,0.3-0.4,0.4-0.6
			c0.2-0.5,0.2-1,0-1.5c-0.1-0.2-0.2-0.4-0.4-0.6c-0.2-0.2-0.4-0.3-0.6-0.4c-0.5-0.2-1-0.2-1.5,0c-0.2,0.1-0.4,0.2-0.6,0.4
			c-0.2,0.2-0.3,0.4-0.4,0.6c-0.2,0.5-0.2,1,0,1.5c0.1,0.2,0.2,0.4,0.4,0.6c0.2,0.2,0.4,0.3,0.6,0.4C90.6,14.4,90.9,14.4,91.2,14.4
			L91.2,14.4z"/>
		<path id="Path_18765" class="st6" d="M95.7,13.7c0.1,0.1,0.2,0.2,0.2,0.2c0.1,0.1,0.2,0.2,0.3,0.2c0.1,0.1,0.3,0.1,0.4,0.2
			c0.2,0.1,0.3,0.1,0.5,0.1c0.3,0,0.5-0.1,0.7-0.2c0.2-0.1,0.2-0.3,0.2-0.5c0-0.1,0-0.2-0.1-0.3c-0.1-0.1-0.1-0.2-0.2-0.2
			c-0.1-0.1-0.3-0.1-0.4-0.2c-0.2-0.1-0.4-0.1-0.6-0.2c-0.2,0-0.5-0.1-0.7-0.2c-0.2-0.1-0.3-0.2-0.5-0.4c-0.1-0.1-0.2-0.3-0.3-0.5
			c-0.1-0.2-0.1-0.4-0.1-0.5c0-0.2,0-0.4,0.1-0.6c0.1-0.2,0.2-0.4,0.4-0.5c0.2-0.2,0.4-0.3,0.6-0.4c0.3-0.1,0.6-0.1,0.9-0.1
			c0.3,0,0.5,0,0.8,0.1c0.2,0.1,0.4,0.1,0.5,0.2c0.1,0.1,0.2,0.2,0.3,0.3c0.1,0.1,0.1,0.1,0.2,0.2L98.3,11c0,0-0.1-0.1-0.1-0.1
			c-0.1-0.1-0.2-0.1-0.2-0.2c-0.1-0.1-0.2-0.1-0.3-0.1c-0.1,0-0.3-0.1-0.4-0.1c-0.1,0-0.3,0-0.4,0.1c-0.1,0-0.2,0.1-0.3,0.1
			c-0.1,0.1-0.1,0.1-0.2,0.2c0,0.1,0,0.1-0.1,0.2c0,0.2,0.1,0.4,0.2,0.5c0.1,0.1,0.2,0.1,0.4,0.2c0.2,0.1,0.4,0.1,0.6,0.1
			c0.2,0,0.4,0.1,0.6,0.2c0.2,0.1,0.4,0.2,0.5,0.3c0.2,0.1,0.3,0.3,0.4,0.5c0.1,0.2,0.1,0.5,0.1,0.7c0,0.2-0.1,0.5-0.2,0.7
			c-0.1,0.2-0.2,0.4-0.4,0.5c-0.2,0.2-0.4,0.3-0.7,0.4c-0.3,0.1-0.5,0.1-0.8,0.1c-0.3,0-0.5,0-0.8-0.1c-0.2-0.1-0.4-0.1-0.6-0.3
			c-0.2-0.1-0.3-0.2-0.5-0.3c-0.1-0.1-0.2-0.2-0.3-0.3L95.7,13.7z"/>
		<path id="Path_18766" class="st6" d="M101.9,9.7h1.1l2.2,5.5H104l-0.5-1.4h-2.1l-0.5,1.4h-1.1L101.9,9.7z M103.2,13l-0.8-2.1
			l-0.8,2.1H103.2z"/>
		<path id="Path_18767" class="st6" d="M108.5,9.7h2.1c0.4,0,0.8,0.1,1.2,0.2c0.4,0.1,0.7,0.3,1,0.5c0.3,0.2,0.5,0.5,0.6,0.9
			c0.2,0.4,0.2,0.8,0.2,1.2c0,0.4-0.1,0.8-0.2,1.2c-0.1,0.3-0.4,0.6-0.6,0.8c-0.3,0.2-0.6,0.4-1,0.5c-0.4,0.1-0.8,0.2-1.2,0.2h-2.1
			L108.5,9.7z M110.5,14.3c0.5,0,1.1-0.1,1.5-0.5c0.4-0.3,0.5-0.8,0.5-1.3c0-0.5-0.1-1-0.5-1.4c-0.4-0.4-1-0.6-1.5-0.5h-0.9v3.7
			L110.5,14.3z"/>
		<path id="Path_18768" class="st6" d="M117.5,15.4c-1.2,0-2.3-0.7-2.7-1.8c-0.3-0.7-0.3-1.5,0-2.3c0.3-0.7,0.9-1.3,1.6-1.5
			c1.1-0.5,2.4-0.2,3.3,0.6c0.3,0.3,0.5,0.6,0.6,0.9c0.3,0.7,0.3,1.5,0,2.3C119.8,14.7,118.7,15.4,117.5,15.4L117.5,15.4z
			 M117.5,14.4c0.3,0,0.5,0,0.8-0.2c0.2-0.1,0.4-0.2,0.6-0.4c0.2-0.2,0.3-0.4,0.4-0.6c0.2-0.5,0.2-1,0-1.5c-0.1-0.2-0.2-0.4-0.4-0.6
			c-0.2-0.2-0.4-0.3-0.6-0.4c-0.5-0.2-1-0.2-1.5,0c-0.2,0.1-0.4,0.2-0.6,0.4c-0.2,0.2-0.3,0.4-0.4,0.6c-0.2,0.5-0.2,1,0,1.5
			c0.1,0.2,0.2,0.4,0.4,0.6c0.2,0.2,0.4,0.3,0.6,0.4C117,14.4,117.3,14.4,117.5,14.4L117.5,14.4z"/>
		<path id="Path_18769" class="st6" d="M121.6,9.7h1.1l2.8,3.9V9.7h1.1v5.5h-1.1l-2.8-4v4h-1.1V9.7z"/>
		<path id="Path_18770" class="st6" d="M130.5,15.4c-1.2,0-2.3-0.7-2.7-1.8c-0.3-0.7-0.3-1.5,0-2.3c0.3-0.7,0.9-1.3,1.6-1.5
			c0.4-0.2,0.8-0.2,1.2-0.2c0.4,0,0.8,0.1,1.2,0.2c0.3,0.1,0.7,0.4,0.9,0.6c0.3,0.3,0.5,0.6,0.6,0.9c0.3,0.7,0.3,1.5,0,2.3
			C132.8,14.7,131.7,15.4,130.5,15.4L130.5,15.4z M130.5,14.4c0.3,0,0.5,0,0.8-0.2c0.2-0.1,0.4-0.2,0.6-0.4c0.2-0.2,0.3-0.4,0.4-0.6
			c0.2-0.5,0.2-1,0-1.5c-0.1-0.2-0.2-0.4-0.4-0.6c-0.2-0.2-0.4-0.3-0.6-0.4c-0.5-0.2-1-0.2-1.5,0c-0.2,0.1-0.4,0.2-0.6,0.4
			c-0.2,0.2-0.3,0.4-0.4,0.6c-0.2,0.5-0.2,1,0,1.5c0.1,0.2,0.2,0.4,0.4,0.6c0.2,0.2,0.4,0.3,0.6,0.4C130,14.4,130.3,14.4,130.5,14.4
			L130.5,14.4z"/>
	</g>
</g>
</svg>
