<?xml version="1.0" encoding="UTF-8"?>
<!DOCTYPE svg PUBLIC "-//W3C//DTD SVG 1.1//EN" "http://www.w3.org/Graphics/SVG/1.1/DTD/svg11.dtd">
<!-- Creator: CorelDRAW X6 -->
<svg xmlns="http://www.w3.org/2000/svg" xml:space="preserve" width="1.604in" height="0.917in" version="1.1" style="shape-rendering:geometricPrecision; text-rendering:geometricPrecision; image-rendering:optimizeQuality; fill-rule:evenodd; clip-rule:evenodd"
viewBox="0 0 1604 917"
 xmlns:xlink="http://www.w3.org/1999/xlink">
 <defs>
  <style type="text/css">
   <![CDATA[
    .fil0 {fill:none}
    .fil1 {fill:#374689}
    .fil2 {fill:#606062}
    .fil3 {fill:#FEFEFE}
   ]]>
  </style>
 </defs>
 <g id="Layer_x0020_1">
  <metadata id="CorelCorpID_0Corel-Layer"/>
  <rect class="fil0" width="1604" height="917"/>
  <g id="_274728800">
   <rect class="fil1" transform="matrix(1.09672 -0 -0.33993 0.659782 135.92 671.81)" width="1253" height="122"/>
   <g>
    <path class="fil1" d="M298 307l-161 21c1,3 15,18 18,23l32 37c4,5 8,10 12,15l31 37c3,3 12,12 12,16l-18 132c-3,15 -6,33 -7,48 4,-1 130,-69 146,-77 3,-2 5,1 8,3l91 63c19,14 16,14 26,10 3,-1 6,-3 10,-5l-99 -83c-6,-5 -11,-9 -17,-14 -3,-2 -5,-5 -8,-6 -3,-3 -6,-5 -9,-7 -3,1 -77,41 -85,45l-28 15 26 -121c4,-15 6,-9 -10,-27l-29 -34c-10,-13 -29,-34 -39,-46 3,-2 102,-15 110,-16 5,-1 6,0 8,-2 1,-1 5,-11 6,-14 8,-17 17,-34 26,-52l26 -52c5,6 55,101 65,116 2,4 6,14 9,16l9 -8 -81 -194c-3,3 -8,15 -10,19 -3,7 -6,14 -10,21 -6,14 -14,28 -20,41l-30 62c-3,6 -6,15 -10,21l0 0 0 -3z"/>
    <polygon class="fil1" points="569,412 726,412 726,395 569,395 "/>
    <polygon class="fil1" points="733,491 879,492 874,475 739,475 "/>
    <path class="fil1" d="M723 518l50 0c2,-1 2,-5 3,-8l58 0 3 8 53 0c-1,-3 -5,-17 -8,-17l-152 0c-3,0 -7,14 -8,17l0 0 1 0z"/>
    <path class="fil1" d="M912 412l52 0 0 -7c8,0 17,0 25,0 9,1 15,2 19,7l54 0c0,-6 -1,-13 -5,-17l-145 0 -1 17 1 0z"/>
    <polygon class="fil1" points="569,385 726,385 726,371 569,371 "/>
    <path class="fil2" d="M1132 625l4 1c0,-8 0,-211 0,-236 0,-7 1,-28 0,-34l-4 0 0 268 0 1z"/>
    <path class="fil1" d="M912 465l97 0c11,0 9,1 17,-2 8,-3 21,-8 25,-15l-139 0 -1 17 0 0 1 0z"/>
    <path class="fil1" d="M416 518l125 0c3,-1 10,-12 10,-17l-48 0c-6,0 -7,7 -23,6 -6,-1 -11,-2 -15,-5 -5,-3 -10,-2 -18,-2 -13,0 -26,0 -39,0 1,6 6,12 8,17l0 1z"/>
    <path class="fil1" d="M551 465c-1,-5 -4,-9 -6,-12 -5,-5 -4,-6 -13,-6 -19,1 -95,-1 -108,1 1,1 2,2 4,4 2,1 4,2 6,3 5,2 8,4 12,6 12,5 17,4 33,4 24,0 48,0 72,0z"/>
    <path class="fil1" d="M410 412l47 0c2,-15 24,-14 32,-9 5,3 7,8 9,9l50 0c-1,-6 -4,-12 -6,-17l-126 0c-3,0 -6,12 -6,17z"/>
    <path class="fil1" d="M912 385l139 0c-7,-7 -13,-10 -26,-12 -17,-3 -92,-2 -112,-2l-1 14z"/>
    <path class="fil1" d="M415 438l107 0c-10,-6 -37,-10 -50,-14 -13,-4 -14,-3 -29,-3 -11,0 -22,0 -32,0 -1,7 3,12 5,17l0 0 -1 0z"/>
    <path class="fil1" d="M424 385l111 0c-8,-7 -10,-10 -23,-14 -18,-5 -47,-5 -65,0 -8,3 -21,8 -24,14l0 0 1 0z"/>
    <path class="fil1" d="M763 412l87 0c-1,-3 -3,-6 -3,-9 -3,-6 -2,-8 -5,-8l-71 0c-3,0 -7,14 -8,17l0 0z"/>
    <path class="fil1" d="M1181 533c2,2 7,2 9,0 2,-3 1,-17 1,-21l19 0c1,16 -3,23 5,23 6,0 6,-1 6,-6 0,-7 1,-44 -1,-45 -1,-1 -3,-1 -5,-1 -9,0 -3,6 -5,21l-19 0c0,-4 1,-19 -1,-20 -1,-1 -7,-1 -8,-1 -3,1 -1,6 -1,10 0,5 -1,39 1,41l0 0 -1 -1z"/>
    <path class="fil1" d="M1364 482c0,10 -1,45 0,52 2,1 3,1 5,1 1,0 2,0 3,0 3,-1 1,0 2,-1 1,-2 0,-14 0,-17 0,-3 -1,-11 8,-12 12,-1 4,23 7,30 2,1 4,1 6,1 3,0 3,-1 3,-4 0,-12 2,-30 -6,-34 -7,-5 -13,0 -18,3l0 -20c-5,-1 -10,-2 -10,3l0 0 0 -2z"/>
    <path class="fil1" d="M1009 518l57 0c-1,-4 -6,-13 -9,-17l-59 0c2,3 8,15 10,17l0 0 1 0z"/>
    <path class="fil1" d="M994 492l59 0c-3,-5 -6,-10 -9,-13 -4,-6 -5,-4 -17,-4 -14,0 -29,0 -43,0 1,3 3,5 5,8 2,3 3,6 5,9l0 0z"/>
    <path class="fil1" d="M479 541c18,0 32,-1 48,-10 2,-1 3,-2 5,-3l-104 0c10,10 35,13 52,13l-1 0z"/>
    <path class="fil1" d="M992 438l66 0c3,0 2,1 4,-6 1,-3 2,-7 1,-10l-51 0c-3,14 -6,14 -20,17l0 -1z"/>
    <path class="fil1" d="M1241 511c1,-13 15,-13 15,0l-15 0zm23 14c-6,-1 -22,10 -23,-8l24 0c9,-22 -26,-34 -34,-10 -5,15 3,31 24,28 6,-1 10,-2 8,-10l0 0 1 0z"/>
    <path class="fil1" d="M1480 596c-1,-12 15,-12 15,1l-15 -1zm23 15c-5,0 -23,8 -23,-8 5,0 20,1 24,-1 6,-25 -29,-32 -34,-8 -4,19 6,29 25,26 8,-1 8,-1 8,-9l0 0z"/>
    <path class="fil1" d="M504 492l50 0c1,-6 1,-12 0,-17l-62 0c6,4 12,6 12,17z"/>
    <path class="fil1" d="M1294 518c0,5 1,7 -3,9 -8,5 -14,-4 -8,-8 3,-1 7,-1 10,-1l1 0zm-21 -19c-1,12 4,5 10,4 8,-2 10,1 10,8 -10,0 -23,1 -23,14 1,12 15,13 23,6 0,0 3,6 8,3 3,-1 1,-28 1,-31 -3,-12 -21,-10 -30,-5l0 0 1 1z"/>
    <path class="fil1" d="M1401 586c-1,-2 1,-8 -8,-5 -1,3 -1,22 -1,28l1 9c0,1 9,5 10,-3l0 -15c0,-3 -1,-6 1,-8 1,-1 3,-4 5,-5 12,-3 6,22 8,28 1,4 8,3 9,2 2,-2 1,-27 0,-30 -3,-14 -17,-11 -25,-3l0 0 0 2z"/>
    <path class="fil1" d="M1279 584c0,14 -3,31 7,35 7,3 14,0 17,-5 1,2 0,0 1,2 1,1 0,1 1,1 1,3 8,4 8,-1l0 -32c0,-3 0,-3 -3,-4 -10,-1 -6,3 -7,23 0,8 -8,10 -12,7 -5,-6 2,-28 -4,-29 -1,-1 -5,-1 -5,-1 -3,1 -3,1 -3,4z"/>
    <path class="fil1" d="M1372 603c1,5 1,6 -3,9 -8,5 -14,-5 -7,-8 3,-2 6,-1 10,-1zm-19 -12c5,1 20,-12 20,6 -12,0 -25,1 -23,14 2,12 20,12 23,5l1 2c2,3 6,2 7,2 3,-2 1,-31 0,-33 -5,-11 -34,-9 -28,4l0 0z"/>
    <path class="fil1" d="M1211 586c0,-1 0,-2 -1,-3l0 -1c0,0 0,-1 0,-1 0,0 0,-1 -1,-1 -10,-3 -8,3 -8,19l1 19c1,2 8,1 9,1 1,-3 1,-21 1,-26 2,-1 4,-5 8,-5 10,0 5,18 6,30 12,2 10,1 10,-10 0,-12 3,-28 -12,-30 -6,-1 -11,4 -14,6l1 2z"/>
    <path class="fil1" d="M773 385l66 1c-1,-3 -2,-5 -3,-8 -1,-2 -1,-6 -4,-6l-54 0c-3,0 -6,11 -6,14l0 0 1 -1z"/>
    <polygon class="fil1" points="912,438 965,438 965,422 913,422 "/>
    <polygon class="fil1" points="912,518 965,518 965,502 913,502 "/>
    <polygon class="fil1" points="912,492 965,492 965,475 913,475 "/>
    <polygon class="fil1" points="622,465 674,465 674,449 622,448 "/>
    <polygon class="fil1" points="622,518 674,518 674,502 622,502 "/>
    <polygon class="fil1" points="622,438 674,438 674,422 622,422 "/>
    <polygon class="fil1" points="622,492 674,492 674,475 622,475 "/>
    <polygon class="fil1" points="821,465 870,465 863,448 816,448 "/>
    <path class="fil3" d="M429 710l-20 0 -4 22 0 1 -1 0c-1,0 -1,0 -2,1 -1,1 -3,1 -4,1l0 0c-4,-1 -4,-1 -3,-5l9 -45c0,-2 1,-4 2,-5 1,-1 3,-1 5,-1l0 0c4,1 3,3 3,6l0 1 0 0 -3 15 20 0 1 -3c1,-6 2,-14 3,-15l0 0c0,0 0,-1 0,-1l0 0c1,-2 1,-3 4,-3 5,0 5,2 5,5 0,1 0,2 -1,3 0,1 -1,3 -1,5 0,2 -1,5 -2,9 -2,12 -5,29 -7,31l0 1 -1 0c-5,2 -7,1 -8,-2 -1,-2 0,-7 2,-13 1,-3 1,-5 2,-9l1 1zm870 -21c-4,1 -4,1 -8,-1l-1 0 0 -1c0,-2 0,-4 0,-5l0 0c0,-1 1,-2 1,-2 1,-1 1,-1 2,-1 2,0 3,0 6,1l1 0 0 1c1,4 1,5 0,7l0 1 0 1 -1 0 0 -1zm-91 0c-2,1 -4,1 -6,-1l0 -1c0,-1 -1,-2 -1,-3 0,-1 0,-2 1,-3l0 0c1,-1 1,-2 3,-2 1,0 2,0 3,0 4,0 5,2 5,4 0,1 0,2 -1,3l0 0 0 1 0 1 -1 0c-1,0 -2,0 -2,1l-1 0zm84 5c2,-1 3,-1 6,0l1 2 -7 37 0 1 -1 0 -5 0 -1 0 0 -1c-1,-3 1,-10 2,-15 0,-2 1,-3 1,-4l0 0c1,-3 1,-6 2,-10 1,-3 1,-6 2,-9l0 -1 1 0c1,0 1,0 1,0l-2 0zm-89 34c-1,6 -2,8 -9,6l-1 0 0 0 0 0 -1 -1 0 -1c0,-2 2,-11 4,-19 1,-5 2,-10 2,-12l0 0 0 -2c1,-6 1,-6 9,-5l1 0 0 1c0,4 -2,12 -3,18l-1 4 0 0c0,3 -1,5 -1,7l0 0c0,2 0,3 -1,4l1 0zm-379 -33l0 2 1 -1 0 0c2,-2 6,-3 9,-3l0 0c1,0 2,0 3,1l0 0c1,1 2,1 2,3 0,1 0,3 -2,5l-1 1c-1,1 -3,1 -4,0 -1,0 -3,-1 -6,1 -6,4 -6,11 -7,17 -1,4 -1,9 -3,12l0 1 -1 0c-3,1 -5,1 -6,0 -1,-1 -2,-3 -1,-6l7 -33 0 -1 1 0c3,-1 3,-1 5,-1l0 0c0,0 1,0 1,0l1 0 0 1 1 1zm-157 37c-1,3 -3,4 -9,3l-1 0 0 -1 1 -5c2,-13 9,-45 10,-47l0 0c0,0 1,-1 1,-1l0 0c1,-1 2,-1 4,-1 1,0 3,0 3,1l0 0c0,0 0,0 0,1l0 0c1,4 -4,26 -7,38l-1 6 0 0c0,1 0,2 -1,3 0,1 0,3 -1,4l1 -1zm-128 -18c3,-13 6,-33 8,-36l1 -2 6 0 1 0 0 1c0,3 -5,28 -8,42 -1,3 -1,6 -2,9l0 0 0 1c-1,4 -1,5 -6,5l0 0c-4,0 -5,-1 -4,-6l0 0c0,-1 0,-2 1,-3 0,-1 1,-3 1,-5 0,-2 1,-5 2,-8l0 2zm737 -9l-6 28 0 1 0 0 -1 0c-5,1 -7,0 -8,-3 0,-2 0,-5 2,-11 1,-3 2,-8 3,-13 0,-2 1,-5 2,-9 1,-8 3,-18 5,-22l0 -1 1 0 6 0 2 0 0 2c0,4 -1,11 -3,17 -1,4 -2,8 -2,11l0 0 -1 0zm-97 19c1,-1 2,-1 3,-1l1 0 0 0 2 2c0,1 0,1 0,2 -1,3 -3,6 -5,7l0 0c-2,1 -6,2 -9,2 -1,0 -3,0 -4,0l0 0c-5,-1 -8,-4 -9,-8 -1,-4 -1,-8 -1,-13l0 0c1,-4 2,-8 4,-11 2,-4 5,-7 9,-9 4,-2 8,-3 12,-2l0 0c3,0 6,1 9,3l1 0 0 1c0,5 -1,7 -3,7 -1,0 -2,-1 -4,-1l0 0c-2,-1 -4,-2 -7,-2l0 0c-3,0 -5,2 -7,5l0 0c-1,2 -2,4 -3,7 -1,2 -1,5 -1,7 0,3 1,5 2,6l0 0c3,2 7,0 10,-1l0 -1zm173 -41l7 0 0 1 0 0 -1 8 8 0 1 0 0 1c0,6 -1,7 -5,7 -1,0 -1,0 -2,0 -1,0 -3,0 -4,0 -1,4 -3,10 -4,16 0,3 -1,7 0,8 2,0 3,0 5,0 1,0 1,0 2,0l2 0 0 2 -1 5 0 1 -1 0c-3,1 -7,2 -9,1l0 0c-2,0 -3,-1 -4,-2l0 0c-1,-1 -2,-2 -3,-4 -1,-2 -1,-4 -1,-7 0,-2 1,-6 2,-9 1,-4 2,-9 2,-12l-4 0 -2 0 0 -2c0,-7 1,-7 5,-7 1,0 1,0 2,0 1,-3 1,-7 3,-9l0 -1 1 0 1 3zm-401 40c2,-1 4,-2 5,-1l-1 1 1 0c1,3 -1,6 -3,8 -2,2 -5,3 -8,4 -3,1 -7,0 -9,-1 -5,-2 -9,-8 -7,-19l0 0c1,-4 2,-7 4,-10 2,-4 5,-7 8,-9 3,-2 7,-3 10,-3 2,0 5,0 7,1l0 0c2,1 4,2 4,3 1,2 1,4 0,7l-1 2 -2 -1 0 0 0 0c-1,-1 -6,-4 -10,-4 -4,0 -8,3 -10,13 -1,3 -1,6 0,8 1,2 2,3 3,4 4,1 7,-1 9,-2l0 -1zm-386 -23l-4 0 0 0 -1 0 0 -1 0 -5 0 -2 2 0 5 -1 0 -1c0,-1 0,-2 0,-3 1,-4 2,-6 6,-6 5,0 4,3 4,7 0,1 0,2 0,3l9 0 1 0 0 1 -1 5 0 2 -1 0 -9 0c-1,4 -3,10 -4,15 -1,4 -1,8 0,9 2,0 3,0 4,0 1,0 2,0 3,-1l2 0 0 2c0,3 -1,5 -3,7 -2,1 -4,2 -7,2 -11,0 -11,-7 -9,-18 0,-2 1,-5 2,-7 1,-2 1,-5 2,-8l-1 0zm748 34c-3,0 -7,-2 -9,-3l-2 -1c0,-1 0,-7 4,-7 1,0 2,1 4,1l0 0c3,1 6,3 11,0 0,0 0,0 0,0 1,-1 1,-1 1,-2 0,-1 0,-2 -1,-3l0 0c0,0 0,-1 -1,-1 -1,-1 -3,-2 -5,-3l0 0 -2 -1 0 0c-5,-3 -6,-7 -5,-11l0 0c0,-2 1,-4 3,-6 1,-2 3,-3 5,-4 5,-3 13,-3 18,2l1 1 0 1 -1 4 0 1 -1 0c0,0 -1,0 -2,0 -2,0 -4,-1 -7,-1 -3,0 -6,0 -6,4 0,2 3,4 5,5 3,1 6,3 7,6 0,0 0,1 0,1 2,3 2,7 0,10 -1,3 -4,5 -6,7l0 0c0,0 -1,1 -1,1l0 0c-4,2 -7,2 -11,2l1 -3zm-573 -8c2,0 5,-2 5,-6 -2,-1 -4,-2 -6,-3 -7,-3 -12,-6 -7,-16l0 0c2,-4 5,-6 9,-7 2,-1 5,-1 8,-1 2,0 5,1 6,1 2,1 2,2 2,4 0,4 -2,5 -2,5l0 0c-1,1 -3,0 -5,-1 -2,-1 -3,-1 -5,-1 -1,0 -2,0 -3,1l0 0c-1,0 -1,1 -2,1 0,0 -1,1 -1,2 0,1 0,1 0,2l0 0c0,2 3,3 6,4l0 0c3,1 7,3 8,6l0 0c1,1 1,2 1,3 0,3 -1,5 -2,7 -1,2 -3,4 -6,6 -1,1 -3,2 -5,2l0 0c-3,1 -7,1 -10,1 -2,0 -4,-1 -5,-2 -2,-1 -2,-3 -2,-5l0 0c0,-1 1,-2 1,-4l1 -1 1 0c0,0 1,0 2,1l0 0c2,1 6,3 10,2l1 -1zm-483 -32c1,-3 1,-5 1,-7l-14 0 -1 0 0 -1c0,-5 1,-6 4,-7 2,0 4,0 8,0 2,0 6,0 10,0l12 0c1,0 2,0 3,0 1,0 2,0 3,0 3,0 3,2 2,7l0 1 -1 0 -15 0c0,2 -1,4 -1,7 -2,13 -7,36 -9,39l-1 1 -1 0 -5 0 -1 0 0 -1c-1,-3 4,-26 7,-39l-1 0zm436 23c-1,5 -2,12 -3,15l0 1 -2 1c-1,0 -2,1 -4,1 -1,0 -2,0 -3,-1l-1 0 0 -1c0,-1 2,-10 3,-19 2,-9 4,-18 4,-19l0 -1 1 0 5 -1 2 0 0 2 -1 3 1 -1c3,-2 7,-5 13,-4l0 0c3,0 5,2 6,3l0 0c2,2 2,5 3,8l0 0c0,5 -2,14 -3,20 0,1 0,2 0,3 -1,3 -1,6 -3,8l0 0c-1,0 -2,1 -3,1 -1,0 -2,0 -3,-1l0 0c-1,0 -1,0 -2,-1l0 0c0,0 0,-1 0,-2l0 0c0,0 0,-1 1,-2 0,-2 1,-4 2,-7 1,-5 3,-11 2,-16 0,-3 -2,-6 -7,-4l0 0c-2,0 -4,2 -5,3l0 0 -1 1 0 0c-2,2 -2,3 -3,7 0,1 -1,3 -1,5l2 -2zm72 -2c1,-7 3,-16 4,-20l0 -1 2 0c2,-1 2,-1 4,-1 2,0 2,0 4,1l1 0 0 1c0,3 -1,6 -2,10l0 0c-1,4 -2,9 -3,12 -1,5 0,9 5,9 2,0 4,-2 5,-3l0 0 1 -1 0 0c3,-3 3,-2 4,-7 0,-2 1,-4 1,-6 1,-5 2,-10 3,-15l0 -1 1 0 6 -1 1 0 0 1c0,1 -2,10 -3,19 -2,8 -4,17 -4,19 0,0 0,1 0,2l0 0c0,0 -1,0 -1,1l-1 1 0 0c-4,1 -5,-1 -5,-3 0,-1 0,-1 0,-2l-1 1c-2,2 -5,3 -9,4 -3,0 -6,0 -8,-1l0 0c-2,-1 -4,-3 -4,-6 -1,-2 0,-7 0,-13l-1 0zm30 16l0 0 0 0 0 0zm331 -26l0 0c-1,1 -1,2 -1,3 3,0 7,0 9,-1 3,-1 6,-2 5,-6 -1,-1 -2,-1 -3,-1 -2,0 -4,0 -6,1 -2,1 -3,2 -5,4l1 0zm14 9c-5,2 -12,2 -17,2 -1,2 -1,4 0,6 0,2 1,3 3,4l0 0c4,1 7,0 11,-1 2,-1 3,-1 5,-1l2 0 0 2c0,3 -1,5 -3,6 -2,1 -5,2 -10,2 -5,0 -9,0 -11,-2 -3,-2 -5,-5 -6,-8 -1,-3 -1,-7 0,-11 1,-7 5,-13 8,-16l0 0c3,-2 7,-4 12,-5 3,0 5,-1 8,0 3,1 5,2 7,4 1,1 2,3 2,5l0 0c1,7 -4,11 -10,13l-1 0zm-256 -1c1,-6 2,-13 4,-18l0 -1 1 0 5 -1 2 0 0 2 0 2c2,-1 5,-2 7,-3 3,-1 5,-1 7,-1 2,0 4,1 6,3 1,1 2,4 2,6 0,2 0,7 -1,12 -1,7 -3,14 -3,16l0 0c-1,2 -2,4 -4,4 -2,0 -3,0 -5,-1l-1 0 0 -1c0,-3 1,-8 2,-13 2,-6 3,-13 2,-16l0 0 0 0 0 0c0,-1 -2,-2 -3,-2 -2,0 -4,0 -6,1l0 0c-2,2 -3,2 -4,4l0 0c-1,1 -1,3 -2,7 -1,4 -1,7 -2,9 0,2 -1,3 -1,5 -1,5 -2,7 -7,7l0 0c-5,-1 -4,-2 -3,-6l0 -1 0 0c1,-4 2,-9 3,-14l1 0zm-369 6c0,-1 0,-2 0,-2 -1,0 -3,0 -5,0l0 0c-2,0 -4,0 -6,1 -2,1 -3,3 -3,4 0,1 0,2 0,2 0,1 1,1 1,2 2,1 4,1 8,-1 3,-2 4,-3 4,-6l1 0zm-10 -17c-3,1 -6,2 -7,1 -1,0 -1,-1 -1,-1 0,-2 0,-4 1,-5 2,-2 6,-4 9,-4 1,0 3,-1 5,-1l0 0c14,-1 16,5 15,15l0 0c0,3 -1,7 -2,11 -1,3 -1,5 -2,8l0 0 0 2 0 0c0,1 0,2 -1,3l0 0c-1,3 -2,3 -7,3l-1 0 0 -1 -1 -2c-2,1 -4,2 -6,3 -3,1 -5,1 -8,0 -3,0 -5,-1 -6,-3l0 0c-2,-2 -2,-4 -2,-8l0 0c1,-11 10,-14 18,-14 2,0 4,0 6,0l2 0c1,-7 -1,-8 -4,-8 -2,0 -5,1 -8,2l0 0 0 -1zm356 15l0 -1c-2,0 -4,0 -5,0 -2,0 -4,0 -6,1 0,0 -1,0 -1,1l0 0c-1,1 -2,2 -2,3 0,1 0,2 0,3l0 0c0,0 0,1 1,1l0 0c1,1 2,1 3,1 2,0 4,-1 5,-2 4,-2 4,-3 5,-8l0 0 0 1zm-10 -15c-3,1 -5,2 -7,2l-1 0 0 -1c0,-4 2,-6 5,-8 3,-1 6,-2 10,-3l0 0c13,-1 16,4 15,14 0,4 -1,8 -3,13 -1,3 -1,6 -2,9 0,3 0,5 -2,6 -1,1 -3,1 -6,1l-1 0 0 -1 0 -2c-3,2 -6,4 -9,4 -2,0 -4,0 -5,0 -2,0 -3,-1 -5,-2l0 0c-2,-2 -4,-5 -3,-9l0 0c1,-7 5,-11 11,-13 5,-2 10,-2 16,-2 1,-7 -1,-8 -4,-8 -2,0 -5,1 -7,2l0 0 -2 -2zm-505 -1c-3,1 -5,3 -7,7l16 0c1,-3 0,-5 -2,-7 -1,-1 -2,-1 -4,-1 -1,0 -3,0 -4,1l0 0 1 0zm3 15c-4,0 -8,0 -12,0 -2,7 2,10 7,10 4,0 9,-1 12,-2 1,0 2,-1 2,-1l1 0 0 1 0 5 0 1 -1 0c-6,3 -12,4 -18,3 -5,-1 -10,-3 -12,-7l0 0c-2,-4 -1,-10 0,-16 2,-6 6,-12 10,-15l0 0c5,-4 11,-5 15,-4 2,0 4,1 6,2 2,1 3,2 4,4 2,3 3,8 1,13 -1,4 -4,5 -7,5l0 0 -1 0 -2 0 0 0c-2,0 -4,0 -6,0l1 1zm635 -16c-3,1 -6,4 -7,7l16 0c1,-4 0,-6 -2,-7 -1,-1 -2,-1 -3,-1 -1,0 -2,0 -4,1zm4 16c-4,0 -8,0 -13,0 0,2 0,4 0,6l0 0c1,2 2,3 4,3l0 0c4,2 8,1 11,0l0 0c2,-1 4,-1 6,-1l1 0 0 1 0 5 0 1 -1 0c-2,1 -5,2 -9,3 -3,0 -6,1 -9,0 -6,0 -9,-3 -12,-6 -1,-2 -2,-5 -2,-7 0,-3 0,-6 1,-8 2,-7 6,-13 10,-16l0 0c5,-4 11,-5 15,-4 2,0 4,1 6,2 2,1 3,2 4,4 2,4 3,8 1,13l0 0c-2,5 -7,5 -14,5l1 -1zm-520 0c-3,0 -6,0 -9,0 0,0 0,1 0,1 0,2 0,4 1,6 1,1 3,2 5,3 1,0 1,0 2,0 4,0 7,-1 11,-2l0 0 0 0c2,-1 3,0 4,1l0 0c0,0 1,1 1,2l0 0c0,1 0,1 0,2 -1,2 -2,3 -4,4l0 0c-3,1 -8,2 -12,2 -4,0 -8,-1 -11,-2l0 0c-3,-1 -4,-4 -5,-7 -1,-3 -1,-7 0,-12 1,-6 4,-10 7,-14 2,-3 5,-5 8,-6 3,-1 6,-2 9,-2 4,0 7,1 9,3l0 0c1,1 2,2 3,3l0 0c1,1 1,3 1,4l0 0c1,8 -1,11 -5,13l0 0c-3,1 -7,1 -13,1l-2 0zm-9 -7c1,-11 17,-15 19,-6 0,1 0,1 0,2 0,1 0,2 -1,3l-7 0 -5 0 -7 0 1 1zm566 21c-1,-2 -1,-4 0,-7l0 -1 1 0c1,0 2,1 4,1 5,2 14,5 18,-2l0 0c3,-6 -2,-9 -7,-12l0 0c-2,-1 -3,-2 -4,-3l0 0c-5,-4 -7,-10 -5,-15 1,-2 2,-5 3,-7 2,-2 4,-4 6,-5 6,-3 14,-3 21,2l1 0 0 1c0,1 0,2 0,3l0 0c0,1 -1,2 -1,3l0 1 -1 0c-1,0 -2,-1 -4,-1 -2,-1 -4,-2 -8,-1l0 0c-2,0 -4,1 -5,2 -1,1 -2,3 -2,5 0,3 4,5 7,7 4,2 8,5 10,9 2,4 2,7 1,10 -1,2 -2,5 -4,7l0 0c-2,2 -4,4 -6,5 -5,2 -11,3 -18,1l0 0c-3,-1 -5,-2 -6,-3l-1 0zm212 -29c-1,0 -3,0 -4,1l-2 1 0 0c-2,1 -3,3 -4,4 -1,3 -2,6 -2,8l0 0c0,2 0,4 0,5 0,1 1,3 1,4 1,1 2,1 3,1 1,0 3,-1 4,-2l0 0c1,0 2,-1 3,-2 2,-2 4,-6 6,-10 1,-3 2,-7 0,-9 0,0 0,-1 -1,-1 -1,-1 -2,-2 -4,-2l0 2zm11 27c-1,5 -4,9 -8,6l-1 -1 -1 -2 0 0c-2,2 -5,4 -8,4l0 0c-3,1 -6,1 -9,-1l0 0c-1,-1 -3,-2 -4,-3 -2,-3 -3,-8 -3,-13 0,-5 2,-10 4,-14 2,-4 4,-7 7,-9 4,-3 7,-3 11,-3 3,0 6,2 8,4l1 -2 0 -1 1 0 5 0 2 0 0 2c-1,5 -2,12 -3,18l-1 5 0 0c-1,2 -1,5 -1,7 0,2 -1,3 -1,4l1 -1zm-654 -28c2,-11 5,-21 6,-23l0 0 0 0 1 -1 1 0c1,0 1,0 2,0l0 0c2,0 3,0 4,1l0 1c0,4 -1,12 -3,17l0 0 0 2c5,-3 13,-8 20,-1l0 0c4,4 2,14 0,23 -1,3 -1,6 -1,8l0 0 -1 4 0 0 0 1c0,1 -1,1 -1,2l0 0c-1,1 -6,2 -8,0 -1,-2 0,-5 0,-8l0 0 0 -1 0 0c0,-1 1,-2 1,-4 2,-7 4,-16 1,-19 -1,-1 -3,-1 -4,-1l0 0c-2,0 -3,1 -5,2l0 0c-4,2 -4,3 -5,7l0 0 0 2 0 3c-1,6 -3,17 -5,19l0 0 0 0c-1,0 -3,1 -4,1 -2,0 -3,-1 -3,-2l0 -1 0 0 0 0c0,-4 3,-19 6,-32l-2 0zm-306 0c2,-11 4,-20 5,-23l0 -1 2 0c1,0 1,0 2,0l0 0c2,0 3,0 4,1l0 1c0,4 -1,12 -3,17l0 0 0 1c2,-1 5,-3 8,-3 11,-2 14,3 14,10 0,6 -2,13 -3,18 0,2 -1,3 -1,5 -1,6 -1,7 -3,8l0 0c0,0 0,0 -1,0l0 0c0,0 -1,0 -1,1l0 0c-1,0 -2,0 -2,0l0 0c-1,0 -1,-1 -2,-1 0,0 -1,-1 -1,-2l0 0c0,-1 1,-5 1,-8 2,-8 5,-19 1,-21 -1,-1 -3,-1 -4,0l0 0c-2,0 -3,1 -5,2l0 0c-4,2 -4,3 -5,7l0 0 0 2 0 3c-1,6 -3,17 -5,19l0 0 0 0 0 0c-1,0 -3,1 -4,1 -2,0 -3,-1 -3,-2l0 0 0 0 0 0c0,-3 3,-19 6,-33l0 -2zm807 2c-1,-1 -3,-1 -5,0 -4,2 -8,7 -10,13l0 0c-1,2 -1,4 -1,6 0,2 1,3 2,4 1,1 3,2 5,2 5,0 8,-6 10,-12 1,-3 1,-5 1,-7 0,-2 -1,-4 -2,-5l0 -1zm-23 45l-9 0 1 -3 10 -50 0 -1 1 0 5 0 2 0 0 2 0 3c3,-3 6,-4 10,-5 3,0 5,0 7,1 2,1 4,3 5,5l0 0c2,3 2,8 1,15l0 0c-1,6 -4,12 -7,16 -3,4 -8,6 -13,5 -2,0 -4,0 -5,-1l0 0c-1,0 -2,-1 -4,-2l0 0 -3 15 0 1 -1 0 0 -1z"/>
    <path class="fil1" d="M743 465l46 1c3,-1 3,-6 3,-8 1,-3 3,-6 3,-8l-46 -1 -6 17 0 0 0 -1z"/>
    <polygon class="fil1" points="813,438 859,438 854,422 808,422 "/>
    <path class="fil1" d="M753 438l45 0 5 -17 -44 0c-2,4 -6,13 -6,17l0 0z"/>
    <path class="fil1" d="M1337 490l0 6 -6 0c-1,7 -1,8 5,8 2,8 -2,21 3,27 4,5 21,7 17,-5 -2,-3 -9,5 -9,-8l0 -15 8 -1c1,-2 1,-3 1,-5 -1,-4 -1,-3 -9,-3 0,-10 1,-10 -5,-10 -5,0 -5,0 -5,4l0 0 0 2z"/>
    <path class="fil1" d="M1245 610c-1,6 -1,8 4,9 4,1 8,2 12,1 7,-1 13,-6 12,-15 -2,-8 -9,-7 -15,-12 -3,-2 -3,-6 1,-6 7,-2 14,7 12,-3 -1,-10 -31,-6 -25,11 3,8 13,7 15,11 3,4 -1,6 -5,6 -5,-1 -7,-3 -11,-3l0 0 0 1z"/>
    <path class="fil1" d="M1463 608c-3,0 -11,8 -16,1 -3,-5 -3,-15 1,-19 8,-7 15,6 16,-1 1,-8 -8,-10 -15,-8 -6,1 -10,5 -12,10 -4,11 -3,30 16,30 3,0 6,-1 9,-2 3,-2 3,-6 2,-10l-1 -1z"/>
    <path class="fil2" d="M832 605c-4,3 -11,5 -15,1 -4,-5 0,-11 4,-12 1,1 10,11 11,11zm-9 -17c-1,0 -1,0 -1,-1 -11,-14 14,-15 8,-5 -1,2 -5,5 -6,5l-1 1zm-5 3c0,1 -14,10 -5,19 3,3 7,4 12,4 6,0 8,-2 12,-5 3,1 11,9 10,1 -1,-1 -5,-3 -6,-5 0,-2 1,-4 2,-6 1,-3 1,-6 1,-8l-5 0c-1,5 0,6 -3,11 -3,-3 -8,-6 -10,-11 12,-5 14,-17 3,-19 -5,-1 -11,1 -14,5 -3,6 1,11 3,14z"/>
    <path class="fil1" d="M1315 482c0,11 -1,44 0,52 2,1 3,1 5,1 3,0 4,0 5,-1 1,-1 1,-43 1,-51 -1,-4 -1,-4 -5,-4 -4,-1 -5,0 -5,3l-1 0z"/>
    <path class="fil1" d="M1019 538l58 0c-1,-3 -4,-8 -5,-10l-58 0c1,4 4,7 5,10z"/>
    <path class="fil1" d="M1181 567l0 52c8,1 10,1 10,-3l0 -45c0,-3 1,-4 -3,-5 -1,0 -6,1 -7,1z"/>
    <polygon class="fil1" points="843,538 897,538 894,528 841,528 "/>
    <path class="fil2" d="M1060 611c3,-1 9,-1 11,1 4,3 1,6 -2,8 -7,2 -16,-1 -9,-8l0 -1zm2 -23c8,-4 11,8 5,10 -8,4 -12,-7 -5,-10zm-6 22c-3,2 -6,5 -3,10 3,5 19,5 23,-1 3,-3 2,-8 -1,-10 -3,-3 -8,-2 -12,-3 -3,0 -5,0 -5,-3 -1,-3 1,-2 4,-2 10,3 16,-5 12,-14l4 -1 1 -3c-1,0 -19,-5 -23,4 -3,5 1,9 1,11 -1,3 -5,5 1,10l0 0 -2 2z"/>
    <path class="fil1" d="M1333 586c-1,-3 1,-5 -2,-5 -2,-1 -5,-1 -6,1 -1,1 -1,36 0,37 2,1 6,1 8,0l1 -2c1,-8 -4,-20 4,-26 3,-2 5,-1 7,-1l1 -1c2,0 1,-7 1,-9 -10,-2 -9,1 -14,6l0 0z"/>
    <polygon class="fil1" points="715,538 768,538 770,528 719,528 "/>
    <polygon class="fil1" points="912,538 964,538 965,529 913,528 "/>
    <polygon class="fil1" points="622,538 674,538 674,529 622,528 "/>
    <polygon class="fil1" points="404,492 455,492 453,483 403,483 "/>
    <path class="fil2" d="M514 578c7,-1 14,0 14,8 -1,6 -6,8 -14,7l0 -15zm-5 -1l0 35 5 0 0 -15c10,-1 17,-1 19,-10 2,-14 -10,-14 -19,-14 -5,0 -5,1 -5,5l0 0 0 -1z"/>
    <path class="fil2" d="M910 605c-4,1 -8,6 -16,2 -4,-3 -6,-8 -6,-14 0,-6 3,-12 6,-14 7,-5 12,1 16,2 1,-5 -1,-6 -6,-7 -25,-6 -28,32 -12,38 6,3 21,1 18,-6l0 -1z"/>
    <path class="fil2" d="M657 587c13,-4 14,18 5,21 -14,4 -15,-17 -5,-21zm-1 -5c-8,2 -12,8 -10,18 1,8 7,14 17,12 15,-4 14,-34 -6,-30l-1 0z"/>
    <path class="fil2" d="M551 595c1,-5 3,-8 7,-8 6,0 7,3 8,8l-15 0zm18 12c-5,1 -17,7 -18,-8 5,0 10,0 15,0 4,0 7,-1 4,-9 -3,-8 -14,-10 -20,-4 -5,5 -6,17 -1,23 4,5 11,5 17,3 3,-1 3,-2 3,-5l0 0z"/>
    <path class="fil2" d="M929 607c-3,-8 4,-10 11,-8 0,5 1,6 -3,8 -3,2 -6,1 -8,0zm-5 -18c4,0 17,-9 15,6 -8,1 -18,0 -17,10 0,5 3,6 7,7 6,1 7,-2 10,-3 1,4 0,3 4,3 2,-3 1,-23 -1,-26 -2,-3 -6,-4 -11,-3 -4,1 -8,2 -8,6l0 0 1 0z"/>
    <path class="fil2" d="M732 607c-1,-8 5,-9 12,-8 0,5 0,7 -3,8 -4,3 -6,1 -9,-1l0 1zm-4 -17c5,0 17,-9 16,6 -8,1 -19,0 -17,10 1,4 3,6 8,7 6,1 6,-2 10,-3 0,4 -1,3 4,3 1,-3 1,-23 -1,-26 -4,-5 -20,-5 -19,3l0 0 -1 0z"/>
    <path class="fil2" d="M1019 587l-1 -4c-6,-1 -4,-1 -4,12 0,4 -1,13 0,16l5 0c3,-6 -5,-23 6,-25 12,-2 5,17 8,25l4 0c1,-3 1,-21 -1,-25 -3,-6 -13,-6 -17,0l0 0 0 1z"/>
    <path class="fil2" d="M694 587l-1 -4 -4 0c-1,5 -1,26 1,28l4 0c1,-10 -3,-23 7,-25 11,-2 5,19 7,25l4 0c1,-3 1,-21 -1,-25 -4,-7 -14,-6 -17,0l0 1z"/>
    <path class="fil2" d="M613 606c0,5 0,5 4,6 12,3 19,-6 14,-12 -3,-4 -12,-5 -12,-8 -3,-8 12,-3 12,-3 1,-5 0,-5 -4,-6 -12,-2 -17,8 -10,14 3,3 12,3 11,8 -1,3 -3,4 -6,4 -4,0 -5,-2 -8,-3l-1 0z"/>
    <path class="fil2" d="M766 573l0 36 1 3 5 0 0 -3 0 -36 0 -3c-4,0 -5,-1 -5,3l-1 0z"/>
    <path class="fil2" d="M592 587c-1,-2 -1,-2 -1,-4l-4 0c-1,4 -1,26 1,28l4 0c1,-11 -2,-17 4,-23 3,-2 4,-1 7,-1l0 -4c-5,-3 -8,0 -10,3l0 0 -1 1z"/>
    <path class="fil2" d="M967 587l0 -4 -5 0 0 28c3,1 2,1 5,0 2,-5 -3,-24 8,-25l3 0 0 -3c-5,-4 -9,1 -11,3l0 1z"/>
    <polygon class="fil2" points="992,612 997,612 997,584 992,584 "/>
    <path class="fil2" d="M997 578c1,-11 -9,-5 -5,-1 1,1 4,1 5,1z"/>
   </g>
  </g>
 </g>
</svg>
