<?xml version="1.0" encoding="utf-8"?>
<!-- Generator: Adobe Illustrator 24.0.1, SVG Export Plug-In . SVG Version: 6.00 Build 0)  -->
<svg version="1.1" id="Layer_1" xmlns="http://www.w3.org/2000/svg" xmlns:xlink="http://www.w3.org/1999/xlink" x="0px" y="0px"
	 viewBox="0 0 158.5 90.6" style="enable-background:new 0 0 158.5 90.6;" xml:space="preserve">
<style type="text/css">
	.st0{fill:none;}
	.st1{fill:#1274B5;}
	.st2{fill:#CA1E4A;}
	.st3{fill:#1175B4;}
	.st4{fill:#CB1E4A;}
	.st5{fill:#4F4F51;}
	.st6{fill:#505051;}
	.st7{fill:#505052;}
</style>
<g id="Layer_x0020_1">
	<rect y="0" class="st0" width="158.5" height="90.6"/>
</g>
<g>
	<path class="st1" d="M78,34.2c-0.4,1.1-0.8,2.1-1.2,3.1c-1.1,2.9-2.2,5.7-3.2,8.6c-0.3,0.7-0.2,0.6-0.9,0.6c-2.3,0-4.6,0-7,0
		c-0.2,0-0.5,0-0.7,0c-0.1-0.3,0.1-0.5,0.2-0.8c2.6-6.4,5.2-12.8,7.7-19.2c0.3-0.7,0.1-0.7,0.9-0.7c2.6,0,5.3,0,7.9,0
		c0.4,0,0.6,0.1,0.8,0.5c2.7,6.5,5.5,12.9,8.2,19.4c0.1,0.2,0.2,0.4,0.2,0.7c-0.2,0.1-0.4,0.1-0.5,0.1c-2.5,0-5,0-7.5,0
		c-0.6,0-0.6,0.1-0.8-0.6c-1.3-3.7-2.6-7.4-3.8-11.1C78.1,34.7,78.1,34.5,78,34.2z"/>
	<path class="st1" d="M22,46.5c0-0.3,0.1-0.5,0.2-0.7c2.6-6.4,5.2-12.9,7.8-19.3c0.2-0.6,0.3-0.6,0.9-0.6c2.6,0,5.2,0,7.9,0
		c0.5,0,0.7,0.2,0.9,0.6c2.7,6.5,5.5,13,8.2,19.4c0.1,0.1,0.1,0.3,0.2,0.5c-0.2,0.1-0.4,0.1-0.5,0.1c-2.5,0-5.1,0-7.6,0
		c-0.6,0-0.6,0-0.8-0.6c-1.3-3.6-2.5-7.3-3.8-10.9c-0.1-0.2-0.1-0.4-0.3-0.7c-0.2,0.6-0.4,1.1-0.6,1.6c-1.2,3.3-2.5,6.6-3.7,9.9
		c-0.2,0.7-0.2,0.7-0.9,0.7c-2.3,0-4.7,0-7,0C22.4,46.5,22.2,46.5,22,46.5z"/>
	<path class="st1" d="M56.4,25.9c3.2,0,6.5,0,9.7,0c0.1,0,0.3,0,0.4,0c0.3,0,0.4,0.1,0.4,0.4c0,1.7,0,3.5,0,5.2
		c0,0.3-0.2,0.4-0.4,0.4c-1.6,0-3.1,0-4.7,0c-1.1,0-1-0.1-1,1c0,4.2,0,8.5,0,12.7c0,0.2,0,0.3,0,0.5c0,0.3-0.1,0.4-0.4,0.4
		c-1,0-1.9,0-2.9,0c-1.6,0-3.2,0-4.8,0c-0.6,0-0.6,0-0.6-0.6c0-4.4,0-8.7,0-13.1c0-1,0.1-0.9-0.8-0.9c-1.6,0-3.3,0-4.9,0
		c-0.6,0-0.6,0-0.6-0.6c0-1.6,0-3.2,0-4.8c0-0.6,0-0.6,0.6-0.6C49.7,25.9,53.1,25.9,56.4,25.9z"/>
	<path class="st1" d="M13.4,25.9c3.3,0,6.5,0,9.8,0c0.1,0,0.3,0,0.4,0c0.3,0,0.4,0.1,0.4,0.4c0,1.7,0,3.5,0,5.2
		c0,0.4-0.2,0.4-0.5,0.4c-1.5,0-3,0-4.6,0c-1,0-1,0-1,1.1c0,4.2,0,8.4,0,12.6c0,0.2,0,0.3,0,0.5c0,0.3-0.1,0.4-0.4,0.4
		c-0.8,0-1.6,0-2.3,0c-1.7,0-3.5,0-5.2,0c-0.8,0-0.7,0-0.7-0.7c0-4.3,0-8.7,0-13c0-0.9,0.1-0.8-0.9-0.8c-1.7,0-3.3,0-5,0
		c-0.5,0-0.5,0-0.5-0.5c0-1.6,0-3.3,0-4.9c0-0.5,0-0.5,0.6-0.5c2.8,0,5.6,0,8.4,0C12.3,25.9,12.8,25.9,13.4,25.9z"/>
	<path class="st2" d="M126.7,36.2c0-3.1,0-6.3,0-9.4c0-0.2,0-0.3,0-0.5c0-0.3,0.1-0.5,0.4-0.5c1.2,0,2.5,0,3.7,0
		c0.3,0,0.4,0.1,0.4,0.4c0,0.1,0,0.3,0,0.4c0,6.3,0,12.7,0,19c0,0.8,0.1,0.8-0.8,0.8c-1.1,0-2.1,0-3.2,0c-0.6,0-0.6,0-0.6-0.6
		C126.7,42.7,126.7,39.5,126.7,36.2z"/>
	<path class="st3" d="M41,65.5c-1.8,0-3.6,0-5.4,0c-0.2,0-0.3,0-0.5,0c-0.3,0-0.4-0.1-0.4-0.4c0-1.2,0-2.3,0-3.5
		c0-0.2,0.1-0.3,0.3-0.3c0.1,0,0.3,0,0.4,0c3.7,0,7.3,0,11,0c0.1,0,0.2,0,0.3,0c0.3,0,0.4,0.1,0.4,0.4c0,1.1,0,2.2,0,3.3
		c0,0.5,0,0.5-0.5,0.5c-1.5,0-3,0-4.6,0C41.8,65.5,41.4,65.5,41,65.5z"/>
	<path class="st4" d="M54.3,61.3c1.9,0,3.8,0,5.7,0c0.6,0,0.6,0,0.6,0.6c0,1,0,2.1,0,3.1c0,0.5,0,0.6-0.5,0.6c-3.8,0-7.6,0-11.4,0
		c-0.5,0-0.6,0-0.6-0.5c0-1.1,0-2.2,0-3.2c0-0.5,0-0.5,0.5-0.5C50.5,61.3,52.4,61.3,54.3,61.3C54.3,61.3,54.3,61.3,54.3,61.3z"/>
	<path class="st5" d="M96.5,59.7c0,0.3,0,0.6,0,0.8c0,1.4,0,2.9,0,4.3c0,0.5,0,0.5-0.5,0.5c-1.2,0-1,0.2-1-1c0-2.1,0-4.3,0-6.4
		c0-0.6,0-0.6,0.6-0.6c1.2,0,1.2,0,1.8,1.1c0.6,1.2,1.3,2.4,1.9,3.6c0.1,0.2,0.3,0.5,0.4,0.7c0.3-0.1,0.2-0.3,0.2-0.5
		c0-1.4,0-2.9,0-4.3c0-0.6,0-0.6,0.6-0.6c1.1,0,1-0.1,1,0.9c0,2.2,0,4.3,0,6.5c0,0.6,0,0.6-0.6,0.6c-1.1,0-1.1,0-1.6-0.9
		c-0.8-1.3-1.5-2.7-2.3-4C96.9,60.2,96.9,60,96.5,59.7z"/>
	<path class="st5" d="M136.2,59.7c-0.1,0.3-0.1,0.5-0.1,0.7c0,1.4,0,2.9,0,4.3c0,0.5,0,0.5-0.5,0.5c-1.2,0-1,0.1-1-1
		c0-2.1,0-4.2,0-6.3c0-0.1,0-0.3,0-0.4c0-0.2,0.1-0.2,0.3-0.2c0.4,0,0.9,0,1.3,0c0.3,0,0.4,0.2,0.5,0.4c0.8,1.5,1.6,2.9,2.4,4.4
		c0.1,0.2,0.2,0.4,0.5,0.6c0-0.3,0-0.5,0-0.8c0-1.4,0-2.8,0-4.2c0-0.5,0-0.5,0.5-0.5c1.3,0,1.1-0.2,1.1,1c0,2.1,0,4.2,0,6.3
		c0,0.6,0,0.6-0.6,0.6c-1,0-1,0-1.6-0.9c-0.8-1.3-1.5-2.7-2.3-4C136.5,60.2,136.4,60,136.2,59.7z"/>
	<path class="st5" d="M106.3,57.1c0.8,0,1.7,0.3,2.3,1.2c0.3,0.3,0.4,0.7,0.4,1.1c0,0.2-0.1,0.3-0.3,0.3c-0.2,0-0.4,0-0.6,0
		c-0.3,0-0.6,0-0.7-0.5c0-0.3-0.3-0.5-0.5-0.6c-0.6-0.3-1.2-0.4-1.9-0.1c-0.5,0.2-0.7,0.6-0.7,1c0,0.4,0.3,0.7,0.8,0.8
		c0.6,0.1,1.3,0.3,2,0.4c0.4,0.1,0.8,0.2,1.1,0.4c1.1,0.5,1.5,1.7,1,2.7c-0.3,0.7-0.8,1.2-1.5,1.4c-1.2,0.4-2.3,0.4-3.5,0
		c-0.9-0.3-1.4-1-1.6-1.9c-0.1-0.4,0-0.5,0.4-0.6c0.2,0,0.3,0,0.5,0c0.7,0,0.7,0,0.9,0.6c0.1,0.3,0.3,0.5,0.6,0.6
		c0.6,0.2,1.3,0.2,1.9,0.1c0.5-0.1,0.8-0.5,0.8-0.9c0-0.5-0.2-0.7-0.6-0.9c-0.5-0.3-1.1-0.3-1.7-0.4c-0.3,0-0.6-0.1-0.9-0.2
		c-1-0.3-1.6-1-1.6-2.1c0-1.1,0.2-1.7,1.4-2.3C104.8,57.2,105.4,57,106.3,57.1z"/>
	<path class="st5" d="M117,60.5c0,0.8,0,1.7,0,2.5c0,1.2-0.6,1.9-1.6,2.3c-1,0.4-2.1,0.4-3.2,0c-1.1-0.4-1.7-1.2-1.7-2.4
		c0-1.7,0-3.3,0-5c0-0.6,0-0.6,0.5-0.6c1.1,0,1.1,0,1.1,1.1c0,1.2,0,2.3,0,3.5c0,0.4,0,0.8,0.1,1.2c0.1,0.7,0.6,1,1.3,1
		c0.7,0,1.2-0.3,1.4-0.9c0.1-0.4,0.1-0.8,0.1-1.2c0-1.4,0-2.8,0-4.2c0-0.5,0-0.5,0.5-0.5c0.3,0,0.6,0,0.8,0c0.3,0,0.4,0.1,0.4,0.4
		C117,58.6,117,59.6,117,60.5C117,60.5,117,60.5,117,60.5z"/>
	<path class="st6" d="M81.5,61.3c0-1.2,0-2.3,0-3.5c0-0.5,0-0.5,0.5-0.5c1.6,0,3.3,0,4.9,0c0.4,0,0.5,0.2,0.5,0.5c0,0.1,0,0.1,0,0.2
		c0,0.7,0,0.7-0.7,0.7c-1.1,0-2.1,0-3.2,0c-0.5,0-0.5,0-0.5,0.5c0,0.4-0.2,0.9,0.1,1.2c0.3,0.3,0.8,0.1,1.2,0.1c0.8,0,1.5,0,2.3,0
		c0.4,0,0.5,0.1,0.5,0.5c0,1,0.1,0.9-0.8,0.9c-0.9,0-1.8,0-2.8,0c-0.3,0-0.5,0.1-0.4,0.4c0,0.4,0,0.7,0,1.1c0,0.5,0,0.5,0.5,0.5
		c1.1,0,2.3,0,3.4,0c0.6,0,0.6,0,0.6,0.6c0,0.1,0,0.2,0,0.3c0,0.3-0.1,0.4-0.4,0.4c-0.8,0-1.5,0-2.3,0c-0.9,0-1.9,0-2.8,0
		c-0.5,0-0.5,0-0.5-0.5C81.5,63.6,81.5,62.5,81.5,61.3z"/>
	<path class="st5" d="M150.8,61.3c0-1.2,0-2.3,0-3.5c0-0.3,0.1-0.5,0.5-0.5c1.7,0,3.3,0,5,0c0.3,0,0.4,0.1,0.4,0.4c0,0,0,0,0,0.1
		c0,1.1,0.1,0.9-0.9,0.9c-1,0-2,0-3,0c-0.5,0-0.5,0-0.5,0.5c0,0.3,0,0.6,0,0.8c0,0.4,0.1,0.5,0.5,0.5c1,0,1.9,0,2.9,0
		c0.6,0,0.6-0.1,0.6,0.7c0,0.1,0,0.2,0,0.3c0,0.3-0.1,0.4-0.4,0.4c-0.9,0-1.7,0-2.6,0c-0.1,0-0.3,0-0.4,0c-0.6,0-0.6,0-0.6,0.6
		c0,0.3,0,0.7,0,1c0,0.3,0.1,0.4,0.5,0.4c1.1,0,2.3,0,3.4,0c0.2,0,0.3,0,0.5,0c0.1,0,0.2,0,0.2,0.1c0,0.4,0,0.7,0,1.1
		c0,0.2-0.2,0.1-0.3,0.1c-0.6,0-1.1,0-1.7,0c-1.1,0-2.2,0-3.2,0c-0.6,0-0.7,0-0.7-0.6C150.8,63.6,150.8,62.4,150.8,61.3z"/>
	<path class="st5" d="M149.3,59.9c-0.3,0.1-0.7,0-1,0.1c-0.4,0.1-0.6-0.1-0.8-0.5c-0.5-1.1-1.9-1.3-2.7-0.4
		c-0.6,0.7-0.8,1.5-0.8,2.4c0,0.3,0.1,0.6,0.1,0.9c0.1,1.2,1.2,2,2.4,1.7c0.6-0.1,0.9-0.5,1.1-1c0.1-0.3,0.2-0.5,0.6-0.4
		c0.4,0,0.8,0,1.2,0c-0.1,1.6-1.3,2.8-2.8,3c-2.2,0.2-3.7-1-4.1-3.1c-0.2-1.3-0.1-2.6,0.7-3.8c1.3-2.1,4.1-1.9,5.5-0.6
		C149,58.6,149.3,59.2,149.3,59.9z"/>
	<path class="st5" d="M74.7,61.3c0-1.2,0-2.3,0-3.5c0-0.3,0.1-0.5,0.5-0.5c1.6,0,3.1,0,4.7,0c0.3,0,0.4,0.1,0.4,0.4
		c0,1.1,0.1,0.9-0.9,0.9c-0.9,0-1.7,0-2.6,0c-0.4,0-0.5,0.1-0.5,0.5c0,0.4,0,0.7,0,1.1c0,0.3,0.1,0.4,0.4,0.4c0.9,0,1.7,0,2.6,0
		c0.5,0,0.5,0,0.5,0.5c0,0.1,0,0.2,0,0.3c0,0.3-0.1,0.4-0.4,0.4c-0.8,0-1.6,0-2.4,0c-0.7,0-0.7,0-0.7,0.7c0,0.7,0,1.5,0,2.2
		c0,0.3-0.1,0.5-0.5,0.5c-1.4,0-1.1,0.2-1.2-1.1C74.7,63.2,74.7,62.3,74.7,61.3C74.7,61.3,74.7,61.3,74.7,61.3z"/>
	<path class="st6" d="M64.8,61.2c0-1.1,0-2.3,0-3.4c0-0.3,0.1-0.5,0.5-0.5c1.5,0,1.2-0.2,1.2,1.2c0,1.6,0,3.2,0,4.8
		c0,0.6,0,0.6,0.6,0.6c1,0,1.9,0,2.9,0c0.4,0,0.5,0.1,0.5,0.5c0,1.1,0.1,0.9-0.9,0.9c-1.4,0-2.8,0-4.1,0c-0.6,0-0.6,0-0.6-0.6
		C64.8,63.5,64.8,62.4,64.8,61.2C64.8,61.2,64.8,61.2,64.8,61.2z"/>
	<path class="st7" d="M73.1,61.3c0,1.2,0,2.3,0,3.5c0,0.5,0,0.5-0.5,0.5c-1.4,0-1.1,0.2-1.1-1.1c0-2.1,0-4.2,0-6.4
		c0-0.5,0-0.6,0.5-0.5c1.3,0,1.1-0.2,1.1,1.1C73.1,59.4,73.1,60.4,73.1,61.3z"/>
	<path class="st5" d="M93.4,61.3c0,1.2,0,2.3,0,3.5c0,0.4-0.1,0.5-0.5,0.5c-1.4,0-1.1,0.2-1.1-1.1c0-2.1,0-4.2,0-6.3
		c0-0.6,0-0.6,0.6-0.6c1.1,0,1-0.2,1,1C93.4,59.3,93.4,60.3,93.4,61.3z"/>
	<path class="st2" d="M123.1,46c0-0.1,0-0.1-0.1-0.2c-1.8-4.7-3.7-9.4-5.5-14.1c-0.5-1.2-0.9-2.4-1.5-3.5c-0.5-0.9-1.1-1.7-2.1-2.1
		c-2.4-0.8-4.5,0-5.6,2.3c-0.1,0.1-0.1,0.3-0.2,0.4c-1.6,3.9-3.1,7.8-4.7,11.7c-0.7,1.8-1.4,3.6-2.1,5.4c-0.2,0.5-0.2,0.6,0.4,0.6
		c1.3,0,2.5,0,3.8,0c0.3,0,0.5-0.1,0.6-0.4c0-0.1,0.1-0.3,0.1-0.4c0.5-1.4,1-2.8,1.4-4.2c0.2-0.5,0.2-0.5,0.6-0.3
		c0.3,0.1,0.6,0.2,0.9,0.2c2.5,0.4,5.1,0.6,7.5-0.4c0.1,0.1,0.1,0.3,0.2,0.4c0.5,1.5,1,3,1.5,4.4c0.2,0.6,0.2,0.6,0.8,0.6
		c1.2,0,2.3,0,3.5,0C123.3,46.5,123.3,46.5,123.1,46z M114.9,37.6c-0.8,0.2-1.7,0.1-2.5,0.2c-1,0-2,0-2.9-0.2
		c-0.5-0.1-0.5-0.2-0.3-0.7c0.8-2.1,1.5-4.1,2.3-6.2c0.1-0.2,0.1-0.3,0.2-0.5c0.3-0.5,0.8-0.5,1.1,0c0.1,0.1,0.1,0.3,0.2,0.4
		c0.8,2.1,1.5,4.1,2.3,6.2c0,0.1,0.1,0.1,0.1,0.2C115.5,37.5,115.4,37.5,114.9,37.6z"/>
	<path class="st2" d="M156.6,45.9c-2.2-5.6-4.4-11.2-6.6-16.8c-0.2-0.5-0.4-1-0.7-1.4c-1.2-2.1-5-2.5-6.6-0.4
		c-0.4,0.5-0.7,1.1-1,1.7c-2.2,5.6-4.5,11.2-6.7,16.8c-0.1,0.2-0.2,0.4-0.1,0.6c0.1,0.1,0.3,0.1,0.4,0.1c1.3,0,2.5,0,3.8,0
		c0.4,0,0.6-0.2,0.7-0.5c0.5-1.5,1-2.9,1.5-4.4c0.2-0.5,0.2-0.5,0.7-0.4c2.8,0.7,5.6,0.8,8.4-0.2c0.1,0,0.1,0.1,0.1,0.2
		c0.4,1.6,1,3.1,1.5,4.6c0.2,0.6,0.2,0.6,0.8,0.6c0.9,0,1.8,0,2.8,0c0.4,0,0.8,0.1,1.2-0.1C156.7,46.3,156.6,46.1,156.6,45.9z
		 M148.4,37.7c-0.9,0.1-1.8,0.2-2.6,0.2c-0.9,0-1.8,0-2.6-0.2c-0.7-0.1-0.7-0.2-0.5-0.8c0.7-2,1.5-4,2.2-6c0.1-0.2,0.1-0.4,0.2-0.6
		c0.1-0.2,0.3-0.4,0.5-0.3c0.2,0,0.4,0.1,0.5,0.3c0.1,0.1,0.1,0.3,0.2,0.4c0.8,2,1.5,4,2.3,6.1c0,0.1,0.1,0.2,0.1,0.3
		C149,37.5,148.9,37.6,148.4,37.7z"/>
	<path class="st5" d="M124.7,63.7c0-0.2,0-0.4,0-0.6c0.1-0.7-0.2-1.2-0.9-1.6c0.5-0.2,0.8-0.5,0.9-0.8c0.8-1.5-0.2-3.3-2-3.3
		c-1.2,0-2.4,0-3.6,0c-0.6,0-0.6,0-0.6,0.6c0,2.1,0,4.3,0,6.4c0,1.2-0.2,1,1.1,1c0.5,0,0.5,0,0.5-0.5c0-0.7,0-1.5,0-2.2
		c0-0.3,0.1-0.5,0.4-0.4c0.5,0,0.9,0,1.4,0c0.8,0,1,0.2,1,1c0,0.6,0.1,1.1,0.1,1.7c0,0.3,0.1,0.4,0.4,0.4c0.5,0,1,0,1.6,0
		C124.6,64.8,124.7,64.3,124.7,63.7z M122.5,60.9c-0.4,0.1-0.8,0-1.2,0c-1.1,0-1.1,0-1.1-1.1c0-1.1,0-1.1,1.1-1.1c0,0,0.1,0,0.1,0
		c0,0,0,0,0,0c0.3,0,0.6,0,0.9,0c0.6,0,0.9,0.3,0.9,1C123.4,60.4,123.1,60.8,122.5,60.9z"/>
	<path class="st5" d="M133.4,64.6c-0.7-2-1.4-4-2.1-6c-0.1-0.4-0.2-0.9-0.5-1.2c-0.3-0.3-0.9,0-1.3-0.1c-0.4,0-0.6,0.1-0.7,0.5
		c-0.8,2.3-1.6,4.6-2.4,6.9c-0.1,0.2-0.2,0.3,0,0.5c0.4,0,0.8,0,1.2,0c0.3,0,0.4-0.1,0.5-0.4c0.1-0.3,0.2-0.7,0.3-1
		c0.1-0.2,0.2-0.3,0.4-0.3c0.8,0,1.5,0,2.3,0c0.3,0,0.4,0.1,0.5,0.4c0.1,0.4,0.2,0.7,0.3,1.1c0.1,0.2,0.2,0.3,0.4,0.3
		c0.5,0,1,0,1.5,0C133.6,65,133.4,64.8,133.4,64.6z M128.7,62.4c0.3-1.1,0.7-2.2,1.1-3.3c0.4,1,0.7,2.1,1,3.2
		C130.1,62.5,129.5,62.4,128.7,62.4z"/>
</g>
</svg>
