<svg width="11" height="6" viewBox="0 0 11 6" fill="none" xmlns="http://www.w3.org/2000/svg">
<path d="M10.3021 1.18894L5.86939 5.84793C5.81662 5.90323 5.75945 5.9423 5.69789 5.96516C5.63632 5.98839 5.57036 6 5.5 6C5.42964 6 5.36368 5.98839 5.30211 5.96516C5.24055 5.9423 5.18338 5.90323 5.13061 5.84793L0.684696 1.18894C0.561565 1.05991 0.5 0.898618 0.5 0.70507C0.5 0.511521 0.565963 0.345623 0.697889 0.207374C0.829815 0.0691247 0.983729 4.55693e-07 1.15963 4.48004e-07C1.33553 4.40315e-07 1.48945 0.0691247 1.62137 0.207374L5.5 4.27189L9.37863 0.207373C9.50176 0.0783411 9.65339 0.0138245 9.83351 0.0138245C10.014 0.0138245 10.1702 0.0829492 10.3021 0.221198C10.434 0.359447 10.5 0.520737 10.5 0.705069C10.5 0.889401 10.434 1.05069 10.3021 1.18894Z" fill="black"/>
</svg>
