<svg width="11" height="6" viewBox="0 0 11 6" fill="none" xmlns="http://www.w3.org/2000/svg">
<path d="M9.96422 1.18894L5.5315 5.84793C5.47873 5.90323 5.42156 5.9423 5.36 5.96516C5.29843 5.98839 5.23247 6 5.16211 6C5.09175 6 5.02579 5.98839 4.96422 5.96516C4.90265 5.9423 4.84549 5.90323 4.79272 5.84793L0.346806 1.18894C0.223675 1.05991 0.162109 0.898618 0.162109 0.70507C0.162109 0.511521 0.228072 0.345623 0.359998 0.207374C0.491924 0.0691247 0.645838 4.55693e-07 0.82174 4.48004e-07C0.997641 4.40315e-07 1.15156 0.0691247 1.28348 0.207374L5.16211 4.27189L9.04074 0.207373C9.16387 0.0783411 9.3155 0.0138245 9.49562 0.0138245C9.67609 0.0138245 9.83229 0.0829492 9.96422 0.221198C10.0961 0.359447 10.1621 0.520737 10.1621 0.705069C10.1621 0.889401 10.0961 1.05069 9.96422 1.18894Z" fill="black"/>
</svg>
