<svg width="137" height="113" viewBox="0 0 137 113" fill="none" xmlns="http://www.w3.org/2000/svg">
<path d="M97.5768 129.75C97.2555 129.75 96.9341 129.589 96.7734 129.107C95.0059 123.483 91.1496 118.342 86.0078 114.807C79.5806 111.111 64.9586 100.988 60.2988 94.5608C59.9775 94.2395 60.1382 93.7574 60.4595 93.4361C60.7809 93.1147 61.2629 93.2754 61.5843 93.5967C66.0833 99.542 80.2233 109.504 86.9719 113.361C91.7923 116.735 95.488 121.395 97.7375 126.536C100.469 120.27 103.683 118.342 108.985 114.807C110.753 113.682 112.681 112.396 115.091 110.629C115.734 110.147 116.537 109.665 117.341 109.022C128.588 101.309 147.388 88.4549 149.638 23.7005C134.534 20.0048 113.645 13.2562 98.2196 1.84783C92.9171 6.02554 74.5995 16.6305 70.1004 19.2014C69.779 19.3621 69.1363 19.3621 68.9756 18.88C68.8149 18.5587 68.8149 17.9159 69.297 17.7553C73.796 15.1844 93.2384 3.93669 97.5768 0.241022C97.8982 -0.0803406 98.2196 -0.0803406 98.5409 0.241022C114.127 11.9707 135.337 18.7194 150.441 22.415C150.762 22.5757 151.084 22.8971 151.084 23.2184C150.12 52.3017 145.781 73.6723 138.068 88.7763C131.481 101.47 123.768 106.773 118.144 110.629C117.341 111.111 116.698 111.754 115.895 112.236C113.484 114.003 111.556 115.289 109.789 116.413C103.843 120.27 101.112 122.037 98.3802 129.429C98.2196 129.429 98.0589 129.75 97.5768 129.75Z" fill="black"/>
<path d="M97.5773 113.682C97.4166 113.682 97.4166 113.682 97.4166 113.521C96.6132 112.396 92.1141 109.343 87.4544 106.13C81.9912 102.273 75.7247 98.0956 73.9572 96.0067C73.7965 95.846 73.7965 95.6854 73.9572 95.6854C74.1179 95.5247 74.2785 95.5247 74.2785 95.6854C76.046 97.7742 82.1519 101.952 87.7758 105.648C92.4355 108.861 96.4525 111.593 97.738 112.878C100.63 109.825 102.88 108.379 107.7 105.487C108.986 104.684 110.271 103.88 111.878 102.916C133.57 89.2581 138.712 67.4055 141.122 29.1634C122.322 24.6643 108.343 18.7191 98.5414 11.3278C96.2919 13.4166 91.1501 16.1482 87.9364 17.755C86.9723 18.2371 86.3296 18.5584 85.8476 18.8798C85.6869 18.8798 85.5262 18.8798 85.5262 18.7191C85.5262 18.5584 85.5262 18.3977 85.6869 18.3977C86.169 18.0764 86.8117 17.755 87.7758 17.273C90.9894 15.6662 96.2919 12.7739 98.3807 10.8457C98.5414 10.685 98.7021 10.685 98.7021 10.8457C108.504 18.3977 122.483 24.1823 141.443 28.6813C141.604 28.6813 141.604 28.842 141.604 29.0027C140.64 44.7494 139.033 61.2996 134.373 74.6361C129.874 87.4906 122.804 96.6495 112.039 103.398C110.432 104.362 108.986 105.326 107.861 105.969C102.88 109.022 100.63 110.468 97.738 113.521C97.738 113.682 97.738 113.682 97.5773 113.682Z" fill="black"/>
<path d="M119.069 45.2958C119.069 44.9515 119.069 44.6072 119.069 44.2629C118.995 43.9185 118.921 43.5988 118.823 43.2545C118.577 42.4675 117.814 41.9264 116.978 41.9264C116.068 41.9264 115.306 42.2707 114.568 42.738C113.51 43.402 112.576 44.2383 111.69 45.1237C111.641 45.0991 111.616 45.0745 111.592 45.0745C110.559 44.5334 109.575 43.9431 108.517 43.4758C107.706 43.1069 106.82 42.9102 105.984 42.615C105.738 42.5412 105.468 42.5904 105.271 42.2707C104.41 40.795 103.476 39.3931 102.147 38.2864C101.656 37.8683 101.114 37.5239 100.5 37.278C99.688 36.9583 98.8271 36.9337 97.9909 36.8845C97.1301 36.8353 96.2447 36.8599 95.3839 36.8845C94.4739 36.9091 93.5885 36.9583 92.6785 37.0074C92.0144 37.032 91.3258 37.0812 90.6617 37.1304C89.7025 37.1796 88.7433 37.2534 87.7841 37.3026C87.0217 37.3518 86.2839 37.3764 85.5214 37.4256C85.2017 37.4501 84.9066 37.4747 84.5868 37.4993C83.6277 37.5731 82.6931 37.6715 81.7339 37.7453C81.0452 37.7945 80.3566 37.8191 79.6679 37.8683C78.6595 37.942 77.6512 38.0404 76.6182 38.1142C76.323 38.1388 76.0033 38.1634 75.7082 38.188C74.8474 38.2618 74.0111 38.3847 73.1503 38.4093C72.4863 38.4339 71.8468 38.5569 71.2565 38.8028C70.2728 39.2456 69.6825 39.8358 69.7563 40.918C69.7809 41.0902 69.8055 41.2869 69.8301 41.5575C69.5595 40.9918 69.3382 40.4753 69.1168 39.9834C69.0676 39.8604 68.9938 39.7374 68.8955 39.6637C68.5019 39.3439 68.1084 39.0242 67.6657 38.7537C66.4852 37.9666 65.1817 37.4501 63.8782 36.9091C62.4517 36.3188 61.0006 35.8761 59.5003 35.5318C58.1968 35.2366 56.8933 35.0645 55.5652 35.0399C54.9257 35.0153 54.3108 35.0399 53.6714 35.0399C53.5976 34.4004 53.3762 34.0807 52.8106 33.8593C52.5154 33.7364 52.1711 33.638 51.8514 33.638C50.9168 33.6626 49.9576 33.6872 49.023 33.8347C48.1376 33.9577 47.5719 34.3266 47.4735 35.335C46.1208 35.6547 44.7927 35.9745 43.4646 36.2696C43.4646 36.122 43.4892 35.9253 43.4646 35.7285C43.3908 34.9661 43.2924 34.2037 43.2187 33.4658C43.1941 33.1461 43.0219 32.9739 42.7022 32.9739C42.4562 32.9739 42.2103 32.9739 41.9889 32.9739C41.9889 32.9247 41.9889 32.9001 41.9889 32.9001C42.4316 32.0147 42.8989 31.1047 43.3416 30.2193C43.3662 30.1701 43.44 30.0963 43.4892 30.0718C43.8581 29.9488 44.227 29.752 44.6206 29.7028C44.9649 29.6536 45.3338 29.752 45.6781 29.752C46.17 29.752 46.6373 29.7028 47.1292 29.7028C47.867 29.7028 48.6049 29.7028 49.3673 29.7028C49.5395 29.7028 49.7116 29.6782 49.8838 29.752C50.3265 29.9242 50.7446 30.0963 51.1627 30.2931C51.6054 30.5145 51.9498 30.3177 51.9498 29.8012C51.9498 28.5961 51.9498 27.3663 51.9498 26.1612C51.9498 25.989 51.8022 25.8169 51.7284 25.6693C51.5562 25.6693 51.3595 25.6693 51.1873 25.6693C50.9168 25.7923 50.6217 25.9153 50.3511 26.0382C49.9822 26.1858 49.6379 26.235 49.2443 26.235C47.7195 26.235 46.2192 26.2842 44.6943 26.2842C44.0795 26.2842 43.4646 26.358 42.8743 26.5547C42.1611 26.7761 41.497 27.0958 40.9559 27.6369C39.9722 28.6207 39.4065 29.8012 38.9392 31.0801C38.7178 31.7196 38.4473 32.3345 38.2014 32.9493C38.0538 32.9493 37.9308 32.9493 37.857 32.9493C37.5373 32.3345 37.2422 31.7442 36.9224 31.1785C36.4797 30.3669 35.8157 29.8258 34.9549 29.5307C33.9711 29.2109 33.0119 28.8912 32.0035 28.6453C31.2411 28.4731 30.3065 28.7928 30.0113 29.7028C29.8638 30.1455 29.6916 30.5882 29.544 31.0309C29.3227 31.7934 29.1751 32.5804 29.1505 33.392C29.1259 34.6218 29.2243 35.8515 29.4703 37.0566C29.6178 37.8437 29.8146 38.6307 30.2327 39.3439C30.5278 39.8358 31.0197 40.1556 31.487 40.0326C32.5692 39.7866 33.6513 39.6145 34.6351 39.0488C34.7335 38.975 34.8565 38.9504 34.9795 38.8766C35.0041 38.9012 35.004 38.9012 35.0286 38.9258C33.7005 41.2623 32.3478 43.5742 31.0197 45.9107C30.9459 45.8861 30.8721 45.8369 30.7984 45.8123C29.4211 45.3942 28.0438 44.9023 26.6419 44.5826C25.4859 44.3366 24.3054 44.2383 23.1248 44.1399C22.5838 44.0907 22.0181 44.1891 21.4524 44.1891C20.1735 44.1891 18.9192 44.3366 17.6648 44.558C16.4351 44.7548 15.2546 45.0991 14.074 45.4926C13.8527 45.5664 13.7297 45.7139 13.7297 45.9845C13.7297 46.3288 13.951 46.4518 14.1724 46.6239C14.5659 46.9437 14.9594 47.2388 15.3775 47.5831C15.2791 47.6323 15.23 47.6569 15.1808 47.6569C13.6313 48.1488 12.1556 48.8129 10.7783 49.6737C9.42562 50.5099 8.1713 51.4691 7.06454 52.5759C6.52345 53.1169 6.00696 53.7072 5.51507 54.2975C4.72804 55.2321 4.03939 56.265 3.44912 57.3472C2.71128 58.7245 2.12101 60.1756 1.7029 61.6759C1.40776 62.7334 1.18642 63.791 1.11263 64.8732C1.08804 65.1683 1.03885 65.488 0.989655 65.7832C0.989655 66.6686 0.989655 67.5786 0.989655 68.464C1.01425 68.4886 1.03885 68.5378 1.03885 68.5624C1.08804 69.0051 1.08804 69.4478 1.16182 69.8905C1.35858 70.9235 1.55533 71.9564 1.82587 72.9894C2.21938 74.4159 2.80966 75.7686 3.5475 77.0721C4.4575 78.72 5.61345 80.2202 6.94157 81.5483C7.43346 82.0402 7.94994 82.4583 8.49102 82.901C9.54859 83.7865 10.6799 84.5243 11.9097 85.1638C13.1886 85.8278 14.5167 86.3443 15.9186 86.7378C17.3205 87.1313 18.7224 87.3773 20.1735 87.4511C21.5016 87.5248 22.8297 87.5002 24.1824 87.3035C25.3138 87.1313 26.4451 86.8854 27.5273 86.5656C29.1013 86.0738 30.577 85.3851 32.0035 84.5489C33.3316 83.7373 34.5859 82.8027 35.6681 81.6959C36.3568 81.0073 36.9962 80.2694 37.5865 79.5316C38.7178 78.1051 39.6032 76.5556 40.2919 74.8832C40.9314 73.2845 41.3987 71.6367 41.62 69.8905C42.0135 69.9643 42.3824 70.038 42.7514 70.1118C42.9973 70.161 43.2924 69.9643 43.317 69.7183C43.3662 69.0051 43.4154 68.3164 43.44 67.6032C43.44 66.9145 43.4154 66.2013 43.3908 65.5126C43.317 64.5534 43.2432 63.6188 43.1449 62.6597C42.9973 61.3561 42.7022 60.0772 42.3087 58.8475C41.8414 57.3472 41.1281 55.9453 40.3411 54.568C39.3819 52.9202 38.2259 51.3707 36.8732 49.9934C36.0616 49.1572 35.1762 48.4194 34.3154 47.6077C35.6927 45.0745 37.0946 42.492 38.5211 39.8604C38.9392 41.0902 39.3327 42.2707 39.7508 43.4512C40.3657 45.2958 41.0051 47.1404 41.62 48.9604C42.4562 51.4691 43.317 53.9777 44.1533 56.4618C44.1778 56.5602 44.2024 56.6832 44.1533 56.7815C43.6368 57.8391 43.6614 58.9213 44.0549 60.028C44.5714 61.4791 45.0387 62.9302 45.6043 64.3567C46.3176 66.1767 47.08 67.9721 47.867 69.7429C48.3343 70.8005 48.8754 71.8335 49.4903 72.8418C49.9822 73.6781 50.5725 74.4651 51.1873 75.2029C51.7038 75.8424 52.4171 76.2851 53.2287 76.5064C53.8681 76.6786 54.4584 77.0721 55.0979 77.2443C55.9341 77.4656 56.7703 77.5886 57.6311 77.687C58.4673 77.7854 59.3036 77.8345 60.1398 77.8837C61.1727 77.9329 62.2303 77.9575 63.2633 78.0067C63.8782 78.0313 64.493 78.0559 65.1079 78.0805C65.7965 78.1051 66.4606 78.1297 67.1492 78.1297C67.8871 78.1543 68.6249 78.1789 69.3628 78.1789C70.1252 78.2035 70.9122 78.2281 71.6747 78.2281C72.4863 78.2527 73.3225 78.2773 74.1341 78.2773C74.9949 78.3018 75.8312 78.3264 76.692 78.3264C77.8233 78.351 78.9547 78.3756 80.0614 78.4002C80.1598 78.4002 80.3074 78.474 80.3566 78.5724C80.996 79.5808 81.6847 80.5646 82.5209 81.4254C83.3325 82.2616 84.1933 83.024 85.0541 83.7865C86.0625 84.6473 87.1939 85.3359 88.3498 85.9508C89.5796 86.5902 90.8585 87.0821 92.1866 87.4511C93.7115 87.8692 95.2609 88.1643 96.8596 88.1889C96.9579 88.1889 97.0563 88.2381 97.1793 88.2381C97.5974 88.2381 98.0401 88.2381 98.4582 88.2381C98.5074 88.2135 98.532 88.1889 98.5812 88.1889C99.688 88.1889 100.77 88.0413 101.877 87.82C103.549 87.5002 105.123 86.9592 106.673 86.2459C107.829 85.7048 108.911 85.09 109.919 84.3275C110.805 83.6635 111.641 82.9256 112.453 82.1878C112.92 81.7451 113.338 81.204 113.756 80.7121C114.74 79.5808 115.527 78.3264 116.191 77.0229C116.757 75.9162 117.224 74.7356 117.593 73.5305C118.036 72.0548 118.331 70.5545 118.38 69.0297C118.454 67.3326 118.429 65.6356 118.109 63.9632C117.79 62.3153 117.322 60.7167 116.634 59.1918C115.724 57.175 114.519 55.3305 112.994 53.7072C112.256 52.9202 111.444 52.1577 110.583 51.4937C109.108 50.3377 107.509 49.3785 105.763 48.6653C103.599 47.7799 101.36 47.2634 99.0485 47.1404C97.9171 47.0666 96.7612 47.165 95.6298 47.2634C94.6215 47.3618 93.6131 47.5585 92.5555 47.7307C92.3588 47.2634 92.162 46.7223 91.9406 46.1812C92.285 46.1566 92.6047 46.1075 92.9244 46.0829C93.7852 46.0583 94.6461 46.0337 95.5069 46.0091C95.925 45.9845 96.3431 45.9599 96.7858 45.9599C98.3353 45.9353 99.8847 45.8861 101.41 46.2058C102.418 46.4026 103.426 46.6485 104.435 46.8699C105.812 47.165 107.091 47.6569 108.271 48.4194C109.796 49.4031 111.174 50.5837 112.526 51.7888C113.313 52.4775 114.051 53.2153 114.814 53.9286C115.207 54.2975 115.576 54.6664 115.994 54.9615C116.511 55.355 117.076 55.6748 117.79 55.6502C118.577 55.601 119.216 54.9123 119.069 54.1499C118.847 53.1169 118.478 52.1331 117.913 51.2477C117.47 50.5345 116.904 49.895 116.412 49.231C116.142 48.8621 116.142 48.7637 116.511 48.4931C116.584 48.4439 116.683 48.3702 116.781 48.3456C117.322 48.198 117.863 48.0996 118.404 47.9521C118.503 47.9275 118.65 47.8045 118.7 47.7061C118.847 47.2142 118.946 46.7223 119.044 46.2304C118.995 45.8369 119.019 45.5664 119.069 45.2958ZM71.8222 54.2729C71.0844 54.3221 70.3957 54.3713 69.7071 54.3959C68.9938 54.445 68.2806 54.4696 67.5674 54.5188C66.9771 54.5434 66.4606 54.9861 66.3622 55.5518C66.2638 56.0929 66.2146 56.634 66.1655 57.1996C66.1409 57.4948 66.1901 57.8145 66.1409 58.1096C66.0671 58.9459 65.9687 59.7821 65.8949 60.5937C65.8457 61.184 65.8211 61.7743 65.7719 62.3645C65.7473 62.7334 65.8703 62.9302 66.2146 63.004C66.5098 63.0532 66.8295 63.0778 67.1246 63.127C68.0101 63.2745 68.9201 63.4467 69.8055 63.5943C70.8876 63.791 71.9698 63.9386 73.052 64.1599C74.2079 64.3813 75.3639 64.701 76.5198 64.9224C77.6512 65.1437 78.4874 65.8078 79.1514 66.6932C79.4958 67.1605 79.7417 67.7016 80.0614 68.218C80.2828 68.587 80.332 68.9313 80.086 69.3002C80.0368 69.374 80.0122 69.4478 80.0122 69.5216C79.9139 69.8167 79.7171 69.9889 79.4466 70.0872C78.5858 70.3578 77.7741 70.7513 76.8887 70.9235C75.5606 71.194 74.2325 71.3662 72.8798 71.4891C71.6501 71.5875 70.4203 71.6121 69.2152 71.6121C68.4774 71.6121 67.7395 71.5875 67.0017 71.5629C66.3376 71.5383 65.6736 71.5383 65.0341 71.4891C64.0011 71.4399 62.9682 71.3908 61.9106 71.317C60.9514 71.2432 59.9922 71.1694 59.0576 71.071C58.246 70.9726 57.459 70.8497 56.6473 70.7021C55.7619 70.5545 55.0487 70.0872 54.5568 69.374C53.6222 68.0459 52.8844 66.5702 52.3679 65.0207C52.1219 64.2829 52.2449 63.9386 52.8844 63.5205C53.5238 63.1024 54.2617 63.0532 54.9995 62.9302C55.5898 62.8318 55.7619 62.6105 55.639 62.0448C55.639 61.9956 55.5898 61.9464 55.5898 61.8972C55.4668 60.938 55.3438 59.9788 55.2208 59.0442C55.0487 57.7899 54.8519 56.5602 54.6798 55.3059C54.5814 54.6664 54.3108 54.1499 53.6714 53.9777C52.9827 53.8056 52.2695 53.781 51.6054 54.1253C51.0152 54.4204 50.4249 54.7894 49.8592 55.1091C49.1706 55.5272 48.4327 55.8715 47.9408 56.5602C47.4735 57.1996 47.1292 57.8883 47.0554 58.6999C46.9816 59.4623 47.1046 60.1756 47.3997 60.8888C48.3098 63.0286 49.1952 65.1683 50.1543 67.308C50.843 68.8575 51.6792 70.3332 52.663 71.7105C53.1303 72.3499 53.6222 72.9894 54.3108 73.4075C54.8273 73.7272 55.4176 73.924 55.9833 74.1208C56.9917 74.4651 58.0738 74.6372 59.1314 74.6864C60.2136 74.7602 61.2957 74.7848 62.3779 74.8094C63.5092 74.8586 64.616 74.8832 65.7473 74.9324C66.2884 74.957 66.8295 74.9816 67.3952 74.9816C68.5265 75.0308 69.6333 75.0799 70.7647 75.1045C72.0436 75.1291 73.3471 75.1537 74.626 75.1783C76.323 75.2029 77.9955 75.2275 79.6925 75.2521C81.3895 75.2767 83.0866 75.3013 84.7836 75.3013C86.4806 75.3259 88.1531 75.3505 89.8501 75.3505C91.5471 75.3751 93.2442 75.3997 94.9412 75.3997C96.6136 75.4243 98.2861 75.4489 99.9831 75.4489C102.32 75.4735 104.631 75.4981 106.968 75.4981C107.091 75.4981 107.189 75.4981 107.361 75.4981C106.943 76.2359 106.55 76.9 106.132 77.5886C106.083 77.6624 105.96 77.7116 105.861 77.7116C104.976 77.7116 104.09 77.687 103.205 77.6624C102.197 77.6378 101.188 77.6132 100.155 77.6132C99.0239 77.5886 97.8925 77.564 96.7366 77.5394C95.7282 77.5148 94.7198 77.4902 93.7115 77.4902C92.4817 77.4656 91.252 77.441 90.0223 77.4164C89.2106 77.3918 88.3744 77.3673 87.5628 77.3673C86.5298 77.3427 85.5214 77.3181 84.4885 77.2935C83.5785 77.2689 82.6685 77.2443 81.7585 77.2443C80.7993 77.2197 79.8401 77.1951 78.9055 77.1951C78.0447 77.1705 77.1839 77.1459 76.323 77.1459C75.4376 77.1213 74.5522 77.0967 73.6668 77.0721C72.8798 77.0475 72.1174 77.0229 71.3303 77.0229C70.4941 76.9983 69.6579 76.9737 68.8463 76.9491C68.1576 76.9245 67.4936 76.9 66.8049 76.9C65.4768 76.8508 64.1487 76.8262 62.8206 76.777C61.9352 76.7524 61.0498 76.7278 60.1644 76.7032C59.7463 76.7032 59.3281 76.6786 58.9346 76.6294C58.1968 76.5556 57.4835 76.4818 56.7457 76.3835C56.2046 76.3097 55.6881 76.2605 55.1962 75.99C54.8765 75.8178 54.5322 75.6948 54.2125 75.5718C53.7452 75.3997 53.2533 75.3259 52.8352 75.0799C52.4171 74.8094 52.0235 74.4405 51.7038 74.047C50.8184 72.9894 50.1298 71.8089 49.5395 70.5791C48.777 69.0051 48.0146 67.431 47.3752 65.8078C46.5143 63.668 45.7765 61.4791 44.9895 59.2902C44.6943 58.5032 44.7681 57.7407 45.1862 57.0029C45.3338 56.7569 45.3338 56.5356 45.2354 56.2896C44.6697 54.6172 44.1041 52.9448 43.5138 51.2723C43.0957 50.0672 42.7022 48.8621 42.2841 47.6569C41.4724 45.2221 40.6608 42.8118 39.8246 40.3769C39.5787 39.6637 39.3327 38.9504 39.0868 38.2372C39.013 38.0404 38.8654 37.8928 38.6441 37.8928C38.3981 37.8928 38.2259 38.0158 38.103 38.2126C37.9554 38.5077 37.7832 38.7783 37.6357 39.0488C36.7011 40.7704 35.7665 42.492 34.8319 44.2137C34.2662 45.2712 33.6759 46.3534 33.1103 47.411C32.9381 47.7307 33.0119 47.9275 33.2824 48.1242C33.8481 48.5669 34.4384 49.0096 34.9795 49.5015C36.0616 50.4853 37.0454 51.5675 37.9308 52.748C39.0376 54.2483 39.9722 55.8223 40.71 57.544C41.5216 59.4132 41.9397 61.3561 42.1857 63.3483C42.2841 64.1599 42.3333 64.9715 42.3578 65.7832C42.3824 66.767 42.3578 67.7507 42.3578 68.7837C41.4232 68.5624 40.587 68.3656 39.7262 68.1689C39.7262 68.0705 39.7262 67.9721 39.7262 67.8737C39.7016 66.9145 39.7262 65.9553 39.6524 65.0207C39.5787 64.0861 39.4311 63.1761 39.2835 62.2415C39.1359 61.3561 38.9884 60.4461 38.767 59.5607C38.5211 58.5278 38.103 57.5686 37.5865 56.6586C36.7995 55.2813 35.8157 54.0515 34.7335 52.8956C34.2416 52.3791 33.7251 51.8872 33.2086 51.4199C32.8151 51.051 32.3724 50.7313 31.9543 50.4115C31.6592 50.1902 31.3394 50.264 31.1673 50.5345C30.9213 50.9526 30.6754 51.3953 30.4294 51.8134C29.79 52.9202 29.1505 54.0515 28.5111 55.1583C27.9208 56.1667 27.3551 57.175 26.7648 58.1588C26.1992 59.1426 25.6089 60.1264 25.0432 61.1102C24.4038 62.1924 23.7889 63.2991 23.1494 64.3813C22.7559 65.0699 22.3378 65.7586 21.9197 66.4718C21.6492 66.2997 21.3786 66.1521 21.1081 65.9799C21.1327 65.9061 21.1573 65.8324 21.1819 65.7832C21.7475 64.7502 22.3132 63.7172 22.8789 62.6842C23.3954 61.7497 23.8873 60.7905 24.4038 59.8559C25.2154 58.3802 26.027 56.8799 26.8386 55.4042C27.2321 54.691 27.6256 53.9531 28.0192 53.2399C28.5848 52.1823 29.1997 51.1494 29.7408 50.0672C29.9867 49.5999 29.8146 49.3294 29.4211 49.1818C27.9208 48.5915 26.3959 48.0996 24.8465 47.7307C23.42 47.3864 21.9443 47.2634 20.4932 47.2142C20.0505 47.1896 19.6078 47.2388 19.1651 47.2634C18.7716 47.3126 18.3781 47.3618 17.9846 47.4356C17.5664 47.5339 17.1729 47.5339 16.8532 47.1896C16.6073 46.9437 16.3121 46.7223 16.0416 46.501C15.7956 46.3042 15.5497 46.1075 15.2299 45.8615C16.14 45.6648 16.9762 45.4926 17.8124 45.2958C19.2143 45.0007 20.6162 44.9269 22.0427 44.9023C23.0019 44.8777 23.9856 44.9761 24.9448 45.0745C26.15 45.1975 27.3305 45.4926 28.4619 45.8615C29.2489 46.1075 29.9867 46.4026 30.7738 46.6731C31.2657 46.8453 31.5116 46.8453 31.7822 46.3288C32.0281 45.8615 32.2986 45.3942 32.5692 44.9515C33.1594 43.8939 33.7743 42.861 34.3892 41.8034C34.9795 40.7704 35.5697 39.762 36.16 38.7291C36.6027 37.942 37.07 37.1796 37.4881 36.3926C37.6111 36.1958 37.6357 35.9745 37.4389 35.7531C37.2668 35.5318 37.0208 35.5318 36.8241 35.6301C36.6273 35.7285 36.4797 35.9499 36.3322 36.122C36.037 36.4418 35.8403 36.8845 35.4713 37.0812C34.3892 37.6715 33.307 38.2618 32.0773 38.5077C31.1673 38.7045 31.1673 38.7291 30.7984 37.8437C30.7738 37.7945 30.7738 37.7453 30.7492 37.6961C30.3803 36.6385 30.2573 35.5072 30.1589 34.4004C30.0113 32.8264 30.3065 31.3015 30.8967 29.8258C31.0443 29.4323 31.4378 29.2355 31.8067 29.3339C32.6676 29.5799 33.553 29.8504 34.4138 30.1209C35.1024 30.3423 35.6435 30.7358 35.9386 31.4245C36.2584 32.0885 36.6027 32.728 36.9224 33.392C37.0454 33.638 37.2176 33.7609 37.4881 33.7364C37.7832 33.7118 38.0784 33.6626 38.3735 33.6872C38.7178 33.7118 38.9146 33.5642 39.0376 33.2445C39.2343 32.7526 39.4065 32.2607 39.6032 31.7688C40.046 30.6866 40.3903 29.6045 41.1035 28.6453C41.6692 27.9074 42.3578 27.4401 43.2678 27.1942C43.2678 27.6123 43.2678 28.0304 43.2678 28.4239C43.2678 28.6207 43.1695 28.6699 43.0465 28.7682C42.776 28.965 42.4808 29.1618 42.3333 29.4569C41.7184 30.5882 41.1773 31.7442 40.5624 32.8755C40.2919 33.3674 40.5133 33.8101 41.1281 33.7855C41.4724 33.7609 41.8168 33.7364 42.1611 33.7364C42.2103 34.3266 42.2595 34.8677 42.3087 35.458C41.7922 35.458 41.3003 35.458 40.833 35.458C40.5132 35.458 40.3165 35.6547 40.3411 35.9745C40.3657 36.1958 40.4395 36.3926 40.5133 36.6139C40.6854 37.1058 40.8084 37.5977 41.0051 38.0896C41.0789 38.2618 41.2757 38.4585 41.4478 38.5323C41.6938 38.6307 41.8905 38.4585 42.0381 38.2618C42.0627 38.2126 42.0873 38.1634 42.1365 38.1388C42.9727 37.5977 43.8089 37.032 44.7927 36.7615C46.5635 36.2696 48.3835 36.122 50.2035 35.9745C51.0152 35.9007 51.8268 35.8515 52.663 35.8515C54.1141 35.8515 55.5652 35.8761 57.0162 35.9745C57.8279 36.0237 58.6395 36.1712 59.4019 36.3926C60.7792 36.7861 62.1565 37.2042 63.5092 37.6961C64.8128 38.188 66.1163 38.7291 67.2476 39.5653C67.6657 39.8604 68.1576 40.0818 68.3298 40.6474C68.5265 41.2869 68.8463 41.9018 68.9692 42.5658C69.0922 43.2545 68.9446 43.6972 68.3298 43.8202C68.1084 43.8693 67.8625 43.8693 67.6411 43.8939C66.8541 43.9431 66.0425 43.9923 65.2555 44.0169C64.2963 44.0661 63.3125 44.0907 62.3533 44.1399C61.8368 44.1645 61.3449 44.1891 60.8284 44.1891C60.066 44.2137 59.279 44.2629 58.5165 44.2383C55.516 44.2137 52.5154 44.3366 49.5395 44.1153C49.146 44.0907 48.7279 44.0661 48.3343 43.9923C47.5227 43.8202 46.7357 43.6726 45.9487 43.4266C44.9403 43.1069 43.8827 42.8364 43.0711 42.0739C42.9481 41.9756 42.6284 41.9756 42.4562 42.0739C42.3333 42.1477 42.2349 42.4429 42.2595 42.615C42.2595 42.8364 42.3824 43.0577 42.4562 43.2791C43.0465 45.0007 43.6122 46.7223 44.227 48.4194C44.6697 49.6245 45.137 50.805 45.6535 51.9856C45.8995 52.5758 46.1454 53.1661 46.6127 53.6088C46.8587 53.8548 47.1784 53.8548 47.4489 53.6088C47.6211 53.4367 47.7687 53.2399 47.99 53.1169C48.7033 52.6988 49.4165 52.2315 50.1543 51.9118C51.7038 51.2231 53.3271 50.805 54.9995 50.5345C55.2454 50.5099 55.3684 50.3623 55.4422 50.141C55.516 49.8458 55.5898 49.5507 55.6881 49.2556C56.0571 48.3456 56.6719 47.7061 57.7295 47.6569C58.4427 47.6323 59.1314 47.5585 59.8446 47.4848C60.853 47.3864 61.8368 47.3864 62.8452 47.5585C63.2879 47.6323 63.7552 47.7553 64.0503 48.1488C64.4192 48.6161 64.5422 49.1572 64.616 49.7475C64.6652 50.2885 64.7636 50.3869 65.3046 50.3869C67.3706 50.3869 69.4119 50.3869 71.4779 50.3869C71.5763 50.3869 71.6992 50.3869 71.8222 50.3869C71.8222 51.8134 71.8222 53.0431 71.8222 54.2729ZM40.6116 69.5462C39.8246 74.8586 37.3405 79.2118 33.0611 82.4583C28.7816 85.7048 23.8873 86.9346 18.5748 86.1721C13.8527 85.4835 9.89291 83.2946 6.76939 79.6791C3.86723 76.3589 2.29317 72.4483 2.07182 68.0459C1.57993 58.6261 7.87615 50.5591 16.4597 48.321C16.5089 48.3702 16.5581 48.4439 16.6319 48.4931C16.8532 48.6161 17.0254 48.9112 17.3205 48.8621C17.7632 48.7883 18.2059 48.6653 18.6486 48.6161C19.3373 48.5423 20.0259 48.4685 20.7146 48.444C21.231 48.444 21.7475 48.4931 22.2394 48.5669C22.8789 48.6407 23.5429 48.6653 24.1824 48.8375C25.6827 49.231 27.183 49.6737 28.7078 50.1164C28.1667 51.1002 27.6748 52.0102 27.183 52.9202C27.1584 52.9694 27.0108 53.0186 26.937 53.0186C26.6173 52.9202 26.2975 52.7972 25.9778 52.6742C24.5021 52.1577 22.9527 52.0102 21.4032 51.961C20.8867 51.9364 20.3702 52.0348 19.8292 52.084C18.87 52.1577 17.96 52.3545 17.05 52.625C15.4513 53.1169 13.9756 53.8302 12.5983 54.814C11.4424 55.6502 10.4094 56.6094 9.5486 57.7161C8.36805 59.241 7.45805 60.938 6.91697 62.8072C6.62183 63.8894 6.40048 64.9715 6.3267 66.0783C6.25291 67.7999 6.37589 69.5216 6.86777 71.194C7.28588 72.5713 7.82697 73.8994 8.5894 75.1045C9.47481 76.4818 10.4832 77.7608 11.8113 78.7445C12.6475 79.384 13.5083 79.9989 14.4429 80.4908C15.3529 80.9581 16.3367 81.3516 17.3205 81.6221C18.2797 81.8927 19.2881 82.0894 20.2964 82.1386C21.3294 82.2124 22.3624 82.1386 23.3954 82.0156C24.2316 81.9173 25.0924 81.7205 25.904 81.4991C26.9862 81.204 27.97 80.7367 28.9538 80.171C29.9376 79.6054 30.8722 78.9413 31.6838 78.1543C32.274 77.5886 32.8151 76.9491 33.3562 76.3097C34.34 75.1291 35.0532 73.7764 35.5697 72.3254C36.1108 70.8251 36.4551 69.3002 36.4551 67.7016C36.4551 67.2343 36.5043 66.767 36.4551 66.3243C36.3568 65.4389 36.283 64.578 36.1108 63.7172C35.8403 62.3153 35.2992 61.0118 34.6105 59.7575C34.0695 58.7737 33.43 57.8391 32.6676 57.0275C31.8805 56.2159 31.0197 55.478 30.1589 54.6664C30.6754 53.7564 31.2411 52.7726 31.8313 51.7888C32.2249 52.1331 32.6184 52.4283 32.9627 52.7726C33.4792 53.2891 34.0203 53.8302 34.5122 54.3713C35.0286 54.9615 35.5451 55.5764 35.9878 56.2159C36.8486 57.3964 37.5373 58.6999 37.8324 60.151C38.0784 61.3561 38.2997 62.5859 38.4719 63.8156C38.6195 64.824 38.6686 65.857 38.7178 66.8899C38.7424 67.5048 38.7178 68.1197 38.7178 68.7591C38.7178 69.0051 38.8162 69.2018 39.0622 69.2756C39.5541 69.3248 40.0705 69.4232 40.6116 69.5462ZM99.1715 67.1359C98.778 67.2589 98.409 67.4064 98.0401 67.5048C97.9663 67.5294 97.8434 67.4556 97.7942 67.3818C97.3023 66.2505 96.835 65.1191 96.3431 63.9878C95.5561 62.1186 94.7936 60.2494 94.0066 58.3802C93.4409 57.0275 92.8752 55.6994 92.3096 54.3467C91.6947 52.8956 91.0798 51.4199 90.465 49.9442C89.8255 48.4194 89.186 46.8945 88.5712 45.3942C88.4974 45.2221 88.399 45.1975 88.2514 45.2221C87.366 45.4188 86.4806 45.6156 85.5952 45.8369C85.3985 45.8861 85.1279 45.9599 85.005 46.1321C84.2179 47.1404 83.4555 48.1488 82.6931 49.1572C81.6355 50.5591 80.5533 51.961 79.4712 53.3629C78.5612 54.568 77.6757 55.7732 76.7657 56.9783C75.6836 58.4048 74.6014 59.8559 73.4947 61.2824C73.4455 61.3561 73.3225 61.4299 73.2241 61.4299C72.9044 61.4053 72.5847 61.3561 72.2649 61.3069C72.0436 61.2824 71.7976 61.2332 71.5517 61.184C75.3639 56.2159 79.1268 51.2723 82.939 46.3042C82.2749 46.2304 81.6601 46.1812 81.0698 46.1075C80.3566 46.0091 79.6679 45.9107 78.9547 45.8123C78.2414 45.7139 77.5282 45.6648 76.8149 45.5664C75.8312 45.4434 74.8474 45.2958 73.8636 45.1483C73.2733 45.0499 72.683 44.9761 72.142 44.681C71.8222 44.5088 71.5763 44.2875 71.4779 43.9185C71.2811 43.2053 71.0844 42.492 70.8876 41.7542C70.8138 41.4837 70.7892 41.2131 70.7401 40.918C70.6909 40.3769 71.0598 39.9834 71.8222 39.6883C72.6338 39.3931 73.4947 39.4423 74.3555 39.3439C75.0933 39.2456 75.8066 39.221 76.5444 39.1472C77.6266 39.0734 78.7087 38.975 79.7909 38.9012C80.5779 38.852 81.3649 38.7783 82.1766 38.7291C83.3079 38.6553 84.4393 38.5569 85.546 38.4831C86.4314 38.4093 87.2923 38.3601 88.1777 38.311C89.1369 38.2372 90.096 38.188 91.0552 38.1388C91.7193 38.0896 92.4079 38.0404 93.072 38.0158C94.0312 37.9666 94.9904 37.8928 95.9496 37.8928C96.835 37.8928 97.6958 37.942 98.5812 38.0158C99.0239 38.0404 99.4666 38.1142 99.8847 38.2618C100.967 38.6061 101.803 39.3685 102.492 40.2293C103.279 41.2377 103.943 42.3445 104.681 43.4266C104.73 43.5004 104.828 43.5742 104.902 43.5742C106.083 43.648 107.165 44.0169 108.198 44.5334C109.378 45.1237 110.51 45.8123 111.666 46.4518C111.739 46.501 111.911 46.4764 111.961 46.4272C112.649 45.7877 113.313 45.1483 114.002 44.5334C114.715 43.8939 115.527 43.3529 116.462 43.1069C117.027 42.9593 117.494 43.0331 117.765 43.6726C117.888 43.9677 117.986 44.312 117.986 44.6318C117.962 45.3204 117.839 46.0337 117.74 46.7223C117.74 46.7961 117.593 46.8945 117.519 46.9191C116.978 47.1404 116.388 47.288 115.871 47.5339C114.863 48.0504 114.838 49.1572 115.478 49.8704C115.748 50.1656 115.994 50.4607 116.24 50.7558C117.027 51.7396 117.519 52.871 117.863 54.0761C117.962 54.3959 117.79 54.5926 117.47 54.5434C117.298 54.5188 117.101 54.4696 116.978 54.3713C116.388 53.904 115.797 53.4367 115.232 52.9448C114.469 52.2561 113.756 51.5429 113.018 50.8542C112.477 50.3623 111.961 49.8704 111.395 49.4031C110.362 48.5915 109.304 47.7799 108.173 47.1158C107.042 46.4518 105.837 46.0583 104.582 45.7631C103.549 45.5172 102.516 45.2958 101.483 45.1237C100.77 45.0007 100.032 44.8777 99.319 44.8531C97.745 44.8531 96.1709 44.9269 94.5969 44.9515C93.2933 44.9761 91.9898 45.0007 90.6863 45.0253C90.5633 45.0253 90.4404 45.0253 90.2436 45.0253C93.2688 52.3791 96.2201 59.7329 99.1715 67.1359ZM81.4141 78.3018C81.8322 78.3264 82.1766 78.351 82.5209 78.351C83.9966 78.3756 85.4722 78.4002 86.9479 78.4248C87.0709 78.4248 87.2185 78.4986 87.3168 78.597C87.7841 78.9659 88.2023 79.384 88.6696 79.7529C89.7517 80.5646 90.9323 81.204 92.2112 81.7205C93.8344 82.36 95.5561 82.7289 97.3023 82.7535C98.2123 82.7781 99.1223 82.6797 100.008 82.5813C101.36 82.4337 102.639 82.0402 103.894 81.4991C106.255 80.4662 108.222 78.9413 109.821 76.9C111.051 75.3259 111.961 73.6043 112.453 71.6613C112.699 70.7021 112.871 69.6937 112.969 68.7099C113.043 68.0459 113.018 67.3572 112.969 66.6932C112.895 65.8324 112.797 64.9715 112.625 64.1107C112.354 62.7088 111.813 61.4053 111.124 60.151C110.485 58.9951 109.723 57.9621 108.813 57.0029C108.271 56.4618 107.706 55.9453 107.091 55.478C105.984 54.5926 104.754 53.904 103.451 53.3875C102 52.7972 100.475 52.4529 98.9255 52.3545C97.5482 52.2807 96.1709 52.3053 94.8182 52.6004C94.5723 52.6496 94.5231 52.5758 94.4493 52.4037C93.9574 51.174 93.4655 49.9688 92.9736 48.7391C92.9244 48.5915 92.949 48.5177 93.1212 48.4931C93.195 48.4931 93.2688 48.4685 93.3179 48.444C94.4739 48.2718 95.6052 48.0504 96.7612 47.9521C97.5974 47.8783 98.4582 47.9275 99.2944 48.0012C100.303 48.0996 101.336 48.2226 102.32 48.444C104.14 48.8621 105.861 49.5507 107.509 50.4853C109.304 51.5183 110.928 52.7726 112.305 54.3221C113.043 55.1583 113.731 56.0191 114.322 56.9537C115.133 58.2326 115.822 59.5607 116.289 60.9872C116.609 61.9956 116.88 63.0286 117.076 64.037C117.249 64.824 117.347 65.6356 117.372 66.4472C117.421 67.8737 117.445 69.3002 117.126 70.7021C116.904 71.7351 116.683 72.7681 116.363 73.7764C115.945 75.1291 115.306 76.3835 114.592 77.6132C113.928 78.6954 113.215 79.7283 112.33 80.6383C111.592 81.4254 110.78 82.1632 109.944 82.8273C109.108 83.4913 108.198 84.1062 107.263 84.6473C105.664 85.5573 103.967 86.1967 102.172 86.6148C100.795 86.9346 99.4174 87.0821 98.0155 87.1067C97.1547 87.1313 96.2939 87.0084 95.4331 86.9346C94.2525 86.8362 93.1212 86.5411 91.9898 86.1967C90.6371 85.7786 89.3582 85.2129 88.1285 84.5243C86.8004 83.7619 85.546 82.901 84.4639 81.8189C83.6277 81.0073 82.8898 80.1218 82.1274 79.2364C81.8322 79.0151 81.6601 78.6708 81.4141 78.3018ZM43.7351 43.9677C45.4322 44.681 47.1046 45.0991 48.8508 45.2958C49.7362 45.3942 50.6462 45.468 51.5316 45.468C54.0895 45.468 56.6473 45.4434 59.2298 45.4188C59.9922 45.4188 60.7792 45.3942 61.5417 45.3696C62.009 45.345 62.4763 45.3204 62.9436 45.3204C63.8536 45.2712 64.7882 45.2466 65.6982 45.1975C66.6082 45.1483 67.5182 45.1237 68.4282 45.0745C69.166 45.0253 69.9284 44.435 70.0022 43.648C70.0268 43.3775 70.0514 43.1069 70.1006 42.7872C70.199 43.1561 70.2728 43.4758 70.3711 43.7956C70.4695 44.1399 70.5679 44.5088 70.7401 44.8039C71.0598 45.3204 71.5517 45.6156 72.1174 45.8123C73.2241 46.2058 74.3801 46.2304 75.536 46.4272C76.0525 46.5256 76.5936 46.5502 77.1101 46.6239C77.7987 46.7223 78.4874 46.8207 79.2006 46.9191C79.7909 46.9929 80.3812 47.0666 81.0206 47.1404C77.2085 52.1086 73.4209 57.0767 69.6087 62.0448C70.1252 62.094 70.5679 62.1432 71.0352 62.1924C71.9206 62.3153 72.806 62.4383 73.6914 62.5367C73.7898 62.5613 73.962 62.4875 74.0357 62.3891C74.3309 62.0202 74.626 61.6267 74.9212 61.2332C75.8066 60.0526 76.7166 58.8475 77.602 57.6669C78.6103 56.3388 79.6433 55.0107 80.6517 53.6826C81.4387 52.6496 82.2258 51.5921 83.0128 50.5345C83.7506 49.5507 84.5131 48.5423 85.2509 47.5585C85.4477 47.288 85.669 46.9683 85.9641 46.8699C86.5544 46.6485 87.2185 46.5502 87.8579 46.378C88.1777 47.1404 88.4974 47.8783 88.8171 48.6161C88.8663 48.7145 88.8909 48.8129 88.9155 48.8867C82.6439 52.1086 78.8071 57.175 77.479 64.0616C76.4952 63.8402 75.536 63.6188 74.5768 63.4221C73.5684 63.2007 72.5601 63.004 71.5517 62.8072C70.6663 62.6351 69.8055 62.5121 68.9201 62.3645C68.2806 62.2661 67.6657 62.1678 67.0263 62.0448C66.9525 62.0202 66.8541 61.9218 66.8541 61.848C66.8787 61.3561 66.9279 60.8888 66.9771 60.3969C67.0509 59.5853 67.1492 58.7491 67.1984 57.9375C67.2476 57.3718 67.2476 56.7815 67.2722 56.2159C67.2968 55.7732 67.4444 55.5518 67.7641 55.5272C68.5757 55.4534 69.4119 55.3796 70.2236 55.355C70.9368 55.3059 71.6501 55.3059 72.3879 55.2813C72.7076 55.2813 72.8798 55.0845 72.8798 54.7648C72.8798 53.1661 72.8798 51.5921 72.8798 49.9934C72.8798 49.6245 72.7076 49.4769 72.3387 49.4769C70.2236 49.4769 68.1084 49.4769 65.9933 49.4769C65.8703 49.4769 65.7473 49.4769 65.649 49.4769C65.6244 49.3048 65.5998 49.1572 65.5506 49.0096C65.3046 48.0012 64.7882 47.2142 63.7552 46.8945C63.3125 46.7469 62.8452 46.6485 62.3779 46.6239C61.5909 46.5748 60.8038 46.5256 60.0168 46.5748C59.1314 46.6239 58.2706 46.7715 57.3852 46.8699C56.6719 46.9191 56.1063 47.2142 55.5898 47.7061C55.0487 48.2226 54.7535 48.8867 54.5568 49.5753C54.5076 49.6983 54.483 49.7475 54.36 49.7721C53.0073 50.0426 51.6792 50.3623 50.4003 50.8542C49.2197 51.2969 48.113 51.838 47.1046 52.6742C45.7273 49.895 44.7927 46.9437 43.7351 43.9677ZM33.2578 59.4869C33.1349 59.6099 33.0611 59.6837 32.9627 59.7575C31.9297 60.5445 30.8967 61.3315 29.8638 62.1186C28.7324 62.9794 27.6011 63.8648 26.4697 64.7502C26.3713 64.824 26.3221 65.0207 26.3467 65.1437C26.3713 65.4388 26.4697 65.7586 26.4943 66.0537C26.5435 66.7424 26.4697 67.4064 26.2238 68.0459C26.1992 68.1197 26.2238 68.2918 26.2975 68.341C26.8386 68.8329 27.4043 69.3248 27.9454 69.8167C28.8554 70.6283 29.7654 71.4399 30.6754 72.2516C31.1181 72.6451 31.5608 73.014 32.0035 73.4075C32.4216 73.7764 32.8643 74.1699 33.2824 74.5635C32.9627 74.9816 32.6676 75.4243 32.3478 75.8424C31.3886 75.1783 30.4786 74.5389 29.5686 73.924C27.97 72.8418 26.3713 71.7843 24.7973 70.6775C24.4775 70.4562 24.2808 70.4316 23.9611 70.6283C23.2724 71.0218 22.4854 71.1694 21.6738 71.1448C21.5508 71.1448 21.3786 71.2186 21.3294 71.2924C21.0097 71.9564 20.7146 72.6451 20.4194 73.3091C19.9521 74.3667 19.4848 75.4489 19.0175 76.531C18.624 77.441 18.2305 78.3756 17.837 79.2856C17.6648 79.7037 17.4681 80.0973 17.2713 80.4908C16.8778 80.3432 16.5335 80.2448 16.1646 80.0973C15.9186 80.0235 15.8448 79.9005 15.9186 79.6054C16.3367 78.3264 16.7056 77.0229 17.0746 75.7194C17.6156 73.8994 18.1321 72.0794 18.6732 70.284C18.747 70.0872 18.6978 69.9643 18.5502 69.8167C17.96 69.3002 17.591 68.6362 17.3205 67.9229C17.2959 67.8491 17.1975 67.7507 17.1483 67.7262C16.5581 67.6524 15.9678 67.6032 15.3775 67.5294C14.6643 67.4556 13.9264 67.4064 13.2132 67.3326C12.2786 67.2343 11.3686 67.1359 10.434 67.0375C9.72076 66.9637 8.98292 66.9145 8.26967 66.8407C7.97453 66.8162 7.67941 66.767 7.33508 66.7178C7.38427 66.1767 7.43345 65.6602 7.48264 65.1683C7.85156 65.1437 8.1467 65.0945 8.41724 65.0699C9.0813 65.0453 9.74535 65.0207 10.4094 64.9961C11.1472 64.9716 11.8605 64.947 12.5983 64.9224C13.287 64.8978 13.951 64.8732 14.6397 64.8732C15.4513 64.8486 16.2875 64.824 17.0991 64.824C17.3205 64.824 17.3943 64.7502 17.4681 64.578C17.7632 63.8648 18.2059 63.2499 18.8208 62.7826C18.8946 62.7334 18.9437 62.5613 18.9192 62.4629C18.7716 61.7005 18.5748 60.938 18.4027 60.151C18.0829 58.6753 17.7632 57.1996 17.4435 55.6994C17.2959 55.0353 17.1483 54.3713 17.0008 53.6826C17.5419 53.535 18.0583 53.3875 18.5994 53.2645C18.6732 53.3875 18.7224 53.4613 18.7716 53.5842C19.0667 54.4204 19.3619 55.2567 19.657 56.0929C20.2227 57.6915 20.7638 59.2902 21.354 60.8888C21.5016 61.2824 21.5016 61.9464 22.264 61.7497C22.264 61.7497 22.2886 61.7743 22.3378 61.7988C22.0181 62.3891 21.6738 63.004 21.354 63.6188C20.9113 64.4551 20.444 65.2913 20.0013 66.1275C19.8538 66.4226 19.9275 66.6932 20.2227 66.8653C20.7392 67.1851 21.2802 67.4802 21.7967 67.7999C22.1411 68.0213 22.4854 67.9721 22.7313 67.5048C22.9281 67.1113 23.1494 66.7424 23.3708 66.3734C24.0102 65.2667 24.6251 64.1599 25.2892 63.0778C25.6089 62.5613 25.7811 61.9956 26.3959 61.6513C28.3389 60.5691 30.2327 59.4132 32.1265 58.2818C32.1757 58.2572 32.3232 58.2572 32.3478 58.2818C32.6676 58.6507 32.9627 59.0688 33.2578 59.4869ZM84.5868 72.9402C85.3493 72.4975 86.0871 72.0794 86.8004 71.6613C87.7596 71.1202 88.7433 70.5791 89.7025 70.038C90.9815 69.3248 92.2604 68.587 93.5147 67.8491C93.5885 67.7999 93.6623 67.677 93.6869 67.5786C93.7115 67.308 93.6623 67.0129 93.7361 66.767C93.859 66.2505 94.0312 65.734 94.1788 65.2175C94.2034 65.1191 94.2034 64.9961 94.1542 64.9224C93.7115 64.3813 93.2688 63.8648 92.826 63.3483C92.039 62.4137 91.252 61.4791 90.4404 60.5445C89.555 59.5115 88.6696 58.4786 87.7596 57.3964C88.1531 57.0521 88.5466 56.6832 88.9401 56.3388C89.3582 56.7077 89.7271 57.0029 90.0714 57.3472C90.8831 58.0851 91.6701 58.8229 92.4817 59.5607C92.8015 59.8559 93.1458 60.1264 93.4655 60.4215C93.6623 60.6183 93.8836 60.7905 94.0066 61.0364C94.3263 61.7005 94.5723 62.3891 94.8674 63.0778C95.679 65.0207 96.4907 66.9391 97.3023 68.8575C98.3107 68.5378 99.2944 68.1935 100.303 67.8737C100.549 67.7999 100.598 67.7016 100.5 67.4802C99.9831 66.2259 99.4666 64.947 98.9747 63.668C98.8271 63.3237 98.7042 62.9548 98.532 62.5367C99.0485 62.7088 99.1961 62.4137 99.3682 62.0694C99.5404 61.7497 99.7617 61.4545 99.9339 61.1594C100.598 60.0772 101.262 59.0196 101.926 57.9375C102.59 56.8553 103.254 55.7732 103.967 54.6418C104.459 54.9123 104.951 55.1829 105.419 55.4534C105 56.388 104.607 57.2488 104.213 58.1342C103.402 59.9296 102.59 61.7497 101.754 63.5451C101.68 63.7172 101.705 63.8402 101.828 63.9632C102.074 64.2337 102.32 64.5043 102.467 64.824C102.689 65.2913 102.861 65.7832 103.033 66.2505C103.082 66.3734 103.107 66.4964 103.303 66.5456C104.631 66.8407 105.935 67.1851 107.239 67.5048C108.64 67.8491 110.018 68.1934 111.42 68.5378C111.592 68.587 111.838 68.5624 111.936 68.6607C112.01 68.7591 111.961 69.0051 111.936 69.1772C111.887 69.5462 111.813 69.9151 111.764 70.284C111.001 70.2102 110.288 70.1364 109.6 70.0626C108.886 69.9889 108.173 69.8905 107.484 69.8167C107.066 69.7675 106.673 69.7429 106.255 69.6937C105.591 69.6199 104.951 69.5462 104.287 69.4724C103.844 69.4232 103.377 69.3986 102.934 69.3248C102.738 69.2756 102.689 69.3248 102.59 69.4724C102.172 70.2348 101.606 70.8743 100.844 71.2924C100.5 71.4891 100.204 71.6613 100.401 72.1286C100.426 72.1778 100.401 72.227 100.401 72.2762C100.45 72.7681 100.475 73.2354 100.524 73.7272C100.549 73.9486 100.524 74.1945 100.524 74.3913C99.6634 74.3913 98.8517 74.3913 98.0401 74.3913C97.8925 73.6289 97.745 72.891 97.5974 72.1532C97.5728 72.0056 97.5236 71.8826 97.3269 71.8335C97.0563 71.7597 96.7612 71.6613 96.5152 71.5137C95.925 71.1694 95.3839 70.7759 94.769 70.3578C91.6701 71.6367 88.4974 72.9402 85.3001 74.2437C85.0295 73.8502 84.8082 73.4075 84.5868 72.9402ZM84.0458 74.1699C84.0212 74.1945 84.0212 74.1945 84.0212 74.1945C82.5455 74.1945 81.0698 74.1945 79.5941 74.1945C79.3974 74.1945 79.299 74.0962 79.2252 73.8994C79.053 73.3091 78.8809 72.7189 78.7333 72.104C78.5858 71.5629 78.6103 71.5629 79.1514 71.3662C79.9876 71.0464 80.7993 70.7513 81.119 69.7429C81.3404 69.0789 81.4633 68.464 81.0698 67.8245C80.8485 67.4802 80.6517 67.1113 80.4549 66.767C80.0122 65.9307 79.3974 65.2421 78.6349 64.7256C78.4628 64.6026 78.4136 64.4797 78.4382 64.3075C78.4628 64.1599 78.4874 63.9878 78.512 63.8402C78.8071 62.8072 79.0776 61.7497 79.3974 60.7167C79.8155 59.4623 80.4058 58.2818 81.119 57.1996C81.6601 56.3634 82.2504 55.5518 82.9144 54.7894C83.6522 53.9531 84.4393 53.1415 85.3001 52.4283C86.0625 51.7888 86.8987 51.2477 87.735 50.7067C88.2023 50.3869 88.7433 50.141 89.2598 49.8704C89.8255 51.2477 90.3912 52.5758 90.9569 53.904C87.2677 55.8469 84.6852 58.6999 83.3571 62.6351C82.0536 66.5456 82.3487 70.407 84.0458 74.1699ZM78.2414 74.1454C78.143 74.1454 78.0447 74.1454 77.9463 74.1454C76.692 74.1208 75.4376 74.0962 74.2079 74.0962C72.8798 74.0716 71.5517 74.047 70.2236 74.0224C69.7317 74.0224 69.2398 73.9732 68.7479 73.9732C67.6165 73.924 66.4606 73.8994 65.3292 73.8502C64.8128 73.8256 64.2717 73.801 63.7552 73.801C62.5746 73.7518 61.4187 73.7027 60.2381 73.6781C59.1314 73.6781 58.0246 73.6043 56.9671 73.2845C56.2784 73.0878 55.5652 72.8664 54.9257 72.5467C54.2617 72.2024 53.8435 71.5383 53.4254 70.9235C52.1465 69.1035 51.1873 67.0867 50.2773 65.0453C49.5887 63.4959 48.9738 61.9464 48.3589 60.3724C48.1622 59.8805 47.9654 59.3394 48.113 58.7737C48.3343 57.8391 48.777 57.0521 49.6133 56.5356C50.2773 56.1421 50.966 55.7732 51.63 55.355C52.0973 55.0845 52.54 54.8632 53.1057 54.9369C53.3516 54.9615 53.5976 54.9861 53.6222 55.3305C53.6714 55.7977 53.7943 56.2405 53.8681 56.7077C53.9911 57.4948 54.0895 58.2818 54.2125 59.0442C54.2862 59.5853 54.36 60.1264 54.4338 60.6921C54.483 61.1102 54.5322 61.5037 54.5814 61.8972C54.0157 62.0448 53.4992 62.1678 52.9827 62.3399C52.4662 62.5121 51.9989 62.8072 51.6546 63.2745C51.0889 64.037 51.1873 64.8486 51.4825 65.6356C52.0727 67.1851 52.786 68.6607 53.7452 70.0135C54.3354 70.8251 55.0979 71.4153 56.1063 71.6121C56.8933 71.7843 57.7049 71.9318 58.5165 72.0302C59.4511 72.1532 60.4103 72.2516 61.3695 72.3254C62.2549 72.3991 63.1403 72.4729 64.0257 72.4975C65.1079 72.5467 66.2146 72.6205 67.2968 72.6205C68.9938 72.6205 70.6909 72.5713 72.3633 72.4975C73.1257 72.4729 73.8636 72.4237 74.626 72.3008C75.5852 72.1778 76.5198 71.981 77.4544 71.8335C77.5282 71.8089 77.7003 71.9072 77.7249 71.981C77.8725 72.7435 78.0447 73.4321 78.2414 74.1454ZM87.0463 58.208C87.4152 58.6261 87.7841 59.0442 88.1285 59.4378C88.645 60.0526 89.1614 60.6675 89.6779 61.2824C90.0714 61.7497 90.4896 62.2169 90.8831 62.6842C91.5471 63.4467 92.1866 64.2337 92.8506 64.9961C92.9736 65.1437 92.9982 65.2667 92.9736 65.4389C92.8752 65.9553 92.7769 66.4472 92.6785 66.9637C92.6539 67.0375 92.5801 67.1359 92.5309 67.1851C91.916 67.554 91.3012 67.8983 90.6863 68.2426C89.7025 68.8083 88.7187 69.374 87.7104 69.9397C86.9233 70.3824 86.1609 70.8497 85.3739 71.2924C85.005 71.4891 84.6606 71.6859 84.2917 71.9072C83.1112 68.8083 82.939 62.8318 87.0463 58.208ZM18.3043 80.7121C18.624 79.9989 18.9192 79.2856 19.2389 78.5724C19.6324 77.687 20.0505 76.777 20.444 75.8916C20.9605 74.711 21.477 73.5059 21.9935 72.3254C22.0181 72.2516 22.1411 72.1778 22.1902 72.1532C22.8543 72.1286 23.4938 71.9564 24.1086 71.7105C24.207 71.6613 24.3546 71.6859 24.4529 71.7351C25.7565 72.6205 27.0846 73.5305 28.3881 74.4405C29.4703 75.1783 30.5524 75.9162 31.6346 76.654C28.5602 80.0973 23.174 81.9173 18.3043 80.7121ZM7.35966 67.7753C7.77778 67.7999 8.1713 67.8245 8.54021 67.8491C9.47481 67.9475 10.3848 68.0459 11.3194 68.1443C12.0327 68.218 12.7705 68.2672 13.4837 68.341C14.3937 68.4148 15.3283 68.5132 16.2383 68.587C16.3859 68.587 16.4597 68.6607 16.5335 68.7837C16.7794 69.2018 17.05 69.6199 17.3451 70.038C17.4681 70.2348 17.5418 70.407 17.4435 70.6529C17.1975 71.4399 16.9516 72.227 16.7302 73.014C16.1154 75.1537 15.5005 77.2935 14.861 79.4578C12.377 78.1297 10.4586 76.2605 9.10589 73.8256C8.04832 71.9564 7.48264 69.9151 7.35966 67.7753ZM33.7989 73.6043C33.3316 73.1862 32.8889 72.7681 32.4216 72.3745C32.0281 72.0302 31.6592 71.6859 31.2657 71.3416C30.3803 70.5545 29.4949 69.7675 28.5848 68.9805C28.3143 68.7345 28.0192 68.5132 27.7732 68.2672C27.6011 68.0951 27.3305 67.9475 27.4043 67.6278C27.5765 66.9391 27.5519 66.2259 27.4781 65.5372C27.4781 65.4389 27.5027 65.3159 27.5519 65.2667C27.7486 65.0945 27.9454 64.9716 28.1421 64.824C29.0521 64.1353 29.9621 63.4467 30.8475 62.7334C31.8067 61.9956 32.7659 61.2332 33.7743 60.4461C34.8811 62.4629 35.3976 64.6026 35.4468 66.8407C35.4959 69.2018 34.9549 71.4645 33.7989 73.6043ZM7.67941 64.0861C8.5894 59.5115 12.0327 55.6502 16.0416 54.0761C16.1891 54.7156 16.3367 55.3305 16.4843 55.9699C16.9024 57.9129 17.3451 59.8559 17.7632 61.7988C17.8124 62.0448 17.837 62.2415 17.6156 62.4629C17.3205 62.758 17.0746 63.127 16.8532 63.4959C16.7056 63.7418 16.5581 63.8156 16.2875 63.8402C15.5989 63.8402 14.9102 63.8648 14.2216 63.8894C13.4837 63.914 12.7705 63.9386 12.0326 63.9632C10.7783 63.9878 9.54859 64.0124 8.29427 64.037C8.07291 64.0124 7.90076 64.0616 7.67941 64.0861ZM106.255 56.0929C108.468 57.7653 110.067 59.8805 111.075 62.4383C111.715 64.1107 112.01 65.8324 112.034 67.6278C111.198 67.431 110.387 67.2589 109.575 67.0621C107.755 66.6194 105.935 66.1767 104.115 65.734C104.041 65.7094 103.943 65.6356 103.918 65.5618C103.697 64.9224 103.402 64.3321 102.984 63.791C102.934 63.7172 102.91 63.5697 102.934 63.4713C103.131 63.004 103.353 62.5121 103.574 62.0448C103.894 61.3561 104.189 60.6921 104.509 60.0034C105.099 58.7245 105.664 57.4456 106.255 56.0929ZM106.82 78.5232C106.845 78.4248 106.845 78.4002 106.87 78.3756C107.46 77.3918 108.026 76.3835 108.616 75.3997C108.739 75.2029 108.813 74.9816 108.64 74.8094C108.517 74.6618 108.321 74.5389 108.124 74.5143C106.845 74.4651 105.591 74.4651 104.312 74.4405C103.476 74.4405 102.664 74.4159 101.828 74.4405C101.557 74.4405 101.483 74.3421 101.483 74.0962C101.483 73.6781 101.483 73.2354 101.41 72.8172C101.336 72.4237 101.336 72.1778 101.729 71.9564C102.369 71.5875 102.811 71.0218 103.205 70.4316C105.96 70.7513 108.69 71.0464 111.444 71.3662C110.682 74.2191 109.132 76.5802 106.82 78.5232ZM94.892 53.5842C97.6466 53.0431 100.327 53.2399 102.934 54.2483C102.615 54.7648 102.32 55.2813 102 55.7977C100.918 57.544 99.8601 59.2902 98.778 61.0364C98.6304 61.2824 98.4828 61.5775 98.0893 61.5529C97.0317 58.8967 95.9742 56.265 94.892 53.5842ZM22.8543 60.7905C22.6821 60.6921 22.4608 60.6429 22.4116 60.5199C21.9935 59.4378 21.6246 58.3556 21.231 57.2734C20.8621 56.2159 20.4686 55.1829 20.0997 54.1253C19.9767 53.781 19.8783 53.4367 19.7554 53.0677C22.1165 52.7726 24.3792 53.0923 26.6173 53.9531C25.363 56.2405 24.1332 58.4786 22.8543 60.7905ZM88.7679 78.5478C89.5058 78.5478 90.1944 78.5478 90.8831 78.5478C92.4079 78.5724 93.9574 78.5724 95.4823 78.6216C96.1955 78.6216 96.9088 78.6462 97.6466 78.6954C97.7204 78.6954 97.868 78.8183 97.868 78.8921C98.0893 79.8513 98.2615 80.8105 98.4828 81.8189C94.8428 81.8681 91.5963 80.8351 88.7679 78.5478ZM94.5969 71.6121C95.1625 72.104 95.7528 72.4729 96.4661 72.6943C96.5398 72.7189 96.6136 72.8172 96.6382 72.891C96.7366 73.3829 96.835 73.8748 96.9334 74.3913C94.0312 74.3421 91.1536 74.3175 88.276 74.2683C88.276 74.2437 88.276 74.2191 88.2514 74.1945C90.3666 73.3337 92.4817 72.4729 94.5969 71.6121ZM44.3992 27.1696C44.9157 27.1696 45.383 27.1696 45.8503 27.1696C47.0554 27.1696 48.2852 27.145 49.4903 27.1696C49.9084 27.1696 50.3019 27.0712 50.6954 26.9236C50.7692 26.899 50.843 26.8744 50.9168 26.8499C50.9168 27.5139 50.9168 28.1534 50.9168 28.842C50.0314 28.4239 49.0968 28.5961 48.2114 28.5715C47.7687 28.5469 47.326 28.5715 46.8587 28.5715C46.047 28.5715 45.2354 28.5715 44.3992 28.5715C44.3992 28.1042 44.3992 27.6861 44.3992 27.1696ZM27.1584 59.9296C27.1338 59.9051 27.1092 59.8805 27.1092 59.8805C27.9208 58.454 28.757 57.0521 29.5932 55.5764C30.3065 56.1913 30.9459 56.7323 31.6346 57.3226C30.0851 58.208 28.634 59.0688 27.1584 59.9296ZM102.074 81.1056C102.024 80.3186 101.951 79.5316 101.901 78.7937C103.426 78.7937 104.902 78.7937 106.451 78.7937C105.64 79.5562 103.353 80.7613 102.074 81.1056ZM100.844 78.72C100.918 79.6546 100.991 80.5154 101.065 81.4008C100.598 81.4991 100.131 81.5975 99.688 81.6467C99.6142 81.6467 99.4912 81.5483 99.4666 81.4746C99.2698 80.54 99.0977 79.63 98.9255 78.72C99.565 78.72 100.18 78.72 100.844 78.72ZM92.8752 58.4048C92.8506 58.4048 92.8506 58.4294 92.826 58.4294C91.8423 57.544 90.8585 56.634 89.8255 55.724C90.342 55.4042 90.8339 55.1337 91.3504 54.814C91.8669 56.0191 92.3833 57.2242 92.8752 58.4048ZM52.6384 34.8923C52.6384 34.9169 52.6384 34.9661 52.6384 34.9907C51.2857 35.0645 49.933 35.1382 48.5803 35.212C48.5803 35.1874 48.5803 35.1628 48.5557 35.1382C48.9492 34.8431 49.4165 34.7201 49.9084 34.6955C50.2281 34.6709 50.5479 34.6464 50.8676 34.6464C51.4825 34.6218 52.0973 34.5234 52.6384 34.8923ZM41.8905 37.2534C41.8168 37.0812 41.7676 36.9091 41.6938 36.7123C42.0627 36.7123 42.3824 36.7123 42.7514 36.7123C42.4316 36.9091 42.1857 37.0566 41.8905 37.2534Z" fill="black"/>
<path d="M40.6117 69.5463C40.0706 69.4233 39.5541 69.3249 39.0622 69.202C38.8163 69.1282 38.7179 68.956 38.7179 68.6855C38.7179 68.0706 38.7425 67.4311 38.7179 66.8163C38.6687 65.7833 38.5949 64.7749 38.472 63.7419C38.2998 62.5122 38.0784 61.3071 37.8325 60.0773C37.5128 58.6263 36.8487 57.3473 35.9879 56.1422C35.5206 55.5027 35.0287 54.8879 34.5122 54.2976C34.0203 53.7319 33.5038 53.2154 32.9628 52.6989C32.6184 52.3546 32.2249 52.0349 31.8314 51.7152C31.2657 52.6989 30.7001 53.6827 30.159 54.5927C30.9952 55.3798 31.8806 56.1176 32.6676 56.9538C33.4547 57.7654 34.0695 58.7 34.6106 59.6838C35.2993 60.9382 35.8403 62.2417 36.1109 63.6436C36.283 64.5044 36.3568 65.3898 36.4552 66.2506C36.5044 66.7179 36.4552 67.1606 36.4552 67.6279C36.4552 69.2265 36.1109 70.776 35.5698 72.2517C35.0287 73.7028 34.3401 75.0555 33.3563 76.236C32.8398 76.8755 32.2741 77.4903 31.6838 78.0806C30.8722 78.8676 29.9622 79.5317 28.9538 80.0974C27.9946 80.6385 26.9863 81.1304 25.9041 81.4255C25.0679 81.6468 24.2317 81.8682 23.3954 81.942C22.3625 82.065 21.3295 82.1141 20.2965 82.065C19.2881 81.9912 18.2798 81.819 17.3206 81.5485C16.3368 81.2779 15.353 80.8844 14.443 80.4171C13.5084 79.9252 12.6722 79.3104 11.8114 78.6709C10.4833 77.6871 9.47487 76.4082 8.58946 75.0309C7.82703 73.8257 7.26135 72.4976 6.86784 71.1203C6.37595 69.4479 6.25298 67.7263 6.32676 66.0046C6.37595 64.8979 6.5973 63.8157 6.91703 62.7336C7.45811 60.8644 8.34352 59.1673 9.54866 57.6425C10.4095 56.5357 11.4424 55.5519 12.5984 54.7403C13.9511 53.7565 15.4268 53.0433 17.05 52.5514C17.96 52.2808 18.8946 52.0841 19.8292 52.0103C20.3457 51.9857 20.8622 51.8873 21.4033 51.8873C22.9527 51.9365 24.5022 52.0841 25.9779 52.6006C26.2976 52.7235 26.6173 52.8465 26.9371 52.9449C27.0109 52.9695 27.1584 52.9203 27.183 52.8465C27.6749 51.9365 28.1668 51.0511 28.7079 50.0427C27.183 49.6 25.7073 49.1573 24.1825 48.7638C23.5676 48.5916 22.9035 48.567 22.2395 48.4933C21.723 48.4441 21.2065 48.3703 20.7146 48.3703C20.026 48.3949 19.3373 48.4441 18.6487 48.5425C18.206 48.5916 17.7633 48.7146 17.3206 48.7884C17.0008 48.8376 16.8533 48.567 16.6319 48.4195C16.5581 48.3703 16.5089 48.3211 16.4597 48.2473C7.87622 50.4854 1.57999 58.5525 2.07188 67.9722C2.29324 72.3747 3.89189 76.2852 6.76946 79.6055C9.89298 83.1963 13.8527 85.4098 18.5749 86.0985C23.8873 86.8609 28.7571 85.6312 33.0611 82.3847C37.3406 79.212 39.8247 74.8587 40.6117 69.5463Z" fill="white"/>
<path d="M81.4139 78.3024C81.6598 78.6468 81.832 78.9911 82.0779 79.2862C82.8404 80.1716 83.6028 81.057 84.4144 81.8687C85.4966 82.9508 86.7509 83.8116 88.079 84.5741C89.3088 85.2627 90.5877 85.853 91.9404 86.2465C93.0717 86.5908 94.2031 86.886 95.3836 86.9843C96.2444 87.0581 97.1053 87.1811 97.9661 87.1565C99.368 87.1319 100.745 86.9598 102.123 86.6646C103.918 86.2465 105.615 85.607 107.214 84.697C108.148 84.156 109.034 83.5411 109.894 82.877C110.731 82.213 111.542 81.4506 112.28 80.6881C113.141 79.7781 113.879 78.7451 114.543 77.663C115.281 76.4578 115.896 75.1789 116.314 73.8262C116.633 72.8178 116.855 71.7849 117.076 70.7519C117.371 69.35 117.371 67.9235 117.322 66.497C117.297 65.6854 117.174 64.8738 117.027 64.0867C116.806 63.0538 116.56 62.0208 116.24 61.037C115.797 59.6105 115.084 58.2578 114.272 57.0035C113.657 56.0689 112.993 55.1835 112.256 54.3718C110.878 52.8224 109.255 51.5681 107.46 50.5351C105.836 49.6005 104.115 48.9118 102.27 48.4937C101.286 48.2724 100.253 48.1494 99.245 48.051C98.4088 47.9772 97.548 47.928 96.7117 48.0018C95.5558 48.1002 94.4244 48.3216 93.2685 48.4937C93.1947 48.4937 93.1209 48.5183 93.0717 48.5429C92.8996 48.5675 92.875 48.6413 92.9242 48.7889C93.4161 50.0186 93.9079 51.2237 94.3998 52.4535C94.4736 52.6256 94.5228 52.6994 94.7688 52.6502C96.1215 52.3305 97.4988 52.3305 98.8761 52.4043C100.45 52.5027 101.95 52.847 103.401 53.4372C104.705 53.9783 105.959 54.6424 107.041 55.5278C107.632 56.0197 108.222 56.5116 108.763 57.0527C109.673 57.9873 110.436 59.0448 111.075 60.2008C111.764 61.4551 112.305 62.7586 112.575 64.1605C112.747 65.0213 112.846 65.8821 112.92 66.743C112.969 67.407 112.993 68.0957 112.92 68.7597C112.797 69.7435 112.624 70.7273 112.403 71.7111C111.911 73.6541 111.001 75.4003 109.771 76.9497C108.197 78.9665 106.205 80.516 103.844 81.5489C102.614 82.09 101.311 82.4835 99.9582 82.6311C99.0482 82.7295 98.1382 82.8279 97.2528 82.8033C95.5066 82.7541 93.8096 82.4097 92.1617 81.7703C90.9074 81.2784 89.7269 80.6143 88.6201 79.8027C88.1528 79.4584 87.7101 79.0403 87.2674 78.6468C87.169 78.573 87.0215 78.4746 86.8985 78.4746C85.4228 78.45 83.9471 78.4254 82.4714 78.4008C82.1763 78.3516 81.832 78.327 81.4139 78.3024Z" fill="white"/>
<path d="M33.258 59.4865C32.9629 59.0684 32.6677 58.6503 32.348 58.2322C32.3234 58.183 32.1758 58.183 32.1266 58.2322C30.2083 59.3635 28.3145 60.5195 26.3961 61.6016C25.7812 61.9459 25.5845 62.5116 25.2893 63.0281C24.6253 64.1103 24.0104 65.217 23.3709 66.3238C23.1496 66.6927 22.9282 67.0616 22.7315 67.4551C22.4855 67.9224 22.1658 67.9716 21.7969 67.7503C21.2804 67.4305 20.7393 67.1354 20.2228 66.8157C19.9277 66.6435 19.8539 66.373 20.0015 66.0778C20.4442 65.2416 20.9115 64.4054 21.3542 63.5692C21.6739 62.9543 22.0182 62.3641 22.338 61.7492C22.2888 61.7246 22.2888 61.7 22.2642 61.7C21.5018 61.8968 21.5018 61.2573 21.3542 60.8392C20.7639 59.2405 20.2228 57.6419 19.6572 56.0432C19.362 55.207 19.0669 54.3708 18.7718 53.5346C18.7472 53.4362 18.6734 53.3378 18.5996 53.2148C18.0831 53.3624 17.5666 53.4854 17.0009 53.633C17.1485 54.3216 17.2961 54.9857 17.4436 55.6497C17.7634 57.1254 18.0831 58.6011 18.4028 60.1013C18.575 60.8638 18.7471 61.6262 18.9193 62.4132C18.9439 62.5116 18.8947 62.6838 18.8209 62.733C18.2061 63.2249 17.7634 63.8151 17.4682 64.5284C17.3944 64.7005 17.2961 64.7743 17.0993 64.7743C16.2877 64.7743 15.4515 64.7989 14.6398 64.8235C13.9512 64.8481 13.2871 64.8727 12.5985 64.8727C11.8607 64.8973 11.1474 64.9219 10.4096 64.9465C9.74551 64.9711 9.08146 64.9711 8.4174 65.0203C8.12227 65.0449 7.82713 65.0695 7.4828 65.1187C7.43361 65.6105 7.38443 66.127 7.33524 66.6681C7.67956 66.7173 7.9747 66.7665 8.26983 66.7911C8.98308 66.8649 9.72091 66.9141 10.4342 66.9878C11.3688 67.0862 12.2788 67.1846 13.2134 67.283C13.9266 67.3568 14.6644 67.406 15.3777 67.4797C15.968 67.5289 16.5582 67.6027 17.1485 67.6765C17.2223 67.6765 17.2961 67.7995 17.3207 67.8733C17.5912 68.6111 17.9601 69.2506 18.5504 69.767C18.698 69.89 18.7471 70.0376 18.6734 70.2343C18.1323 72.0543 17.6158 73.8743 17.0747 75.6698C16.6812 76.9733 16.3123 78.2768 15.9188 79.5557C15.8204 79.8508 15.9188 79.9738 16.1647 80.0476C16.5336 80.1706 16.878 80.2936 17.2715 80.4411C17.4682 80.0476 17.6404 79.6295 17.8371 79.236C18.2307 78.326 18.6242 77.416 19.0177 76.4814C19.485 75.3992 19.9523 74.3416 20.4196 73.2595C20.7147 72.5708 21.0099 71.9068 21.3296 71.2427C21.3788 71.1443 21.5509 71.0952 21.6739 71.0952C22.4855 71.1443 23.2726 70.9722 23.9612 70.5787C24.3055 70.3819 24.4777 70.4065 24.7974 70.6279C26.3715 71.7346 27.9701 72.7922 29.5688 73.8743C30.4788 74.4892 31.3888 75.1287 32.348 75.7927C32.6677 75.3746 32.9629 74.9565 33.2826 74.5138C32.8399 74.1203 32.4218 73.7268 32.0037 73.3579C31.561 72.9643 31.1183 72.5954 30.6756 72.2019C29.7656 71.3903 28.8556 70.5787 27.9456 69.767C27.4045 69.2751 26.8388 68.7833 26.2977 68.2914C26.2485 68.2422 26.1993 68.07 26.2239 67.9962C26.4699 67.3568 26.5437 66.6927 26.4945 66.0041C26.4699 65.7089 26.3715 65.3892 26.3469 65.0941C26.3469 64.9711 26.3715 64.7743 26.4699 64.7005C27.6012 63.8151 28.7326 62.9543 29.8639 62.0689C30.8969 61.2819 31.9299 60.4949 32.9629 59.7078C33.0612 59.6832 33.135 59.6094 33.258 59.4865Z" fill="white"/>
<path d="M84.5864 72.9404C84.8077 73.4077 85.0291 73.8258 85.2504 74.2931C88.4478 72.965 91.6451 71.6615 94.7194 70.4071C95.3342 70.8007 95.8999 71.1942 96.4656 71.5631C96.7115 71.7107 96.9821 71.809 97.2772 71.8828C97.474 71.932 97.5232 72.055 97.5478 72.2025C97.6953 72.9404 97.8429 73.6536 97.9905 74.4407C98.8021 74.4407 99.6137 74.4407 100.475 74.4407C100.475 74.2439 100.475 74.0226 100.475 73.7766C100.45 73.2847 100.401 72.8174 100.352 72.3255C100.352 72.2763 100.376 72.2271 100.352 72.178C100.155 71.7107 100.45 71.5385 100.794 71.3417C101.557 70.9236 102.122 70.2842 102.54 69.5217C102.614 69.3742 102.688 69.325 102.885 69.3742C103.328 69.4725 103.77 69.4725 104.238 69.5217C104.902 69.5955 105.541 69.6693 106.205 69.7431C106.623 69.7923 107.017 69.8415 107.435 69.8661C108.148 69.9398 108.861 70.0382 109.55 70.112C110.263 70.1858 110.976 70.2596 111.714 70.3334C111.763 69.9644 111.837 69.5955 111.886 69.2266C111.911 69.0544 111.96 68.8085 111.886 68.7101C111.788 68.6117 111.567 68.6117 111.37 68.5871C109.968 68.2428 108.591 67.8985 107.189 67.5542C105.885 67.2344 104.557 66.8901 103.254 66.595C103.057 66.5458 103.032 66.4228 102.983 66.2998C102.786 65.8325 102.639 65.316 102.418 64.8733C102.245 64.5536 101.999 64.2831 101.778 64.0125C101.655 63.865 101.63 63.7666 101.704 63.5944C102.516 61.799 103.352 60.0036 104.164 58.1836C104.557 57.2982 104.951 56.4374 105.369 55.5028C104.902 55.2322 104.41 54.9617 103.918 54.6912C103.229 55.8225 102.54 56.9047 101.876 57.9868C101.212 59.069 100.548 60.1266 99.8843 61.2087C99.6875 61.5039 99.4661 61.799 99.3186 62.1187C99.1464 62.4385 98.9989 62.7336 98.4824 62.586C98.6545 63.0042 98.7775 63.3731 98.9251 63.7174C99.4416 64.9963 99.9334 66.2506 100.45 67.5296C100.548 67.7509 100.499 67.8493 100.253 67.9231C99.2448 68.2428 98.261 68.5625 97.2526 68.9069C96.441 66.9885 95.6294 65.0455 94.8178 63.1271C94.5226 62.4385 94.2767 61.7498 93.957 61.0858C93.8586 60.8398 93.6126 60.6677 93.4159 60.4709C93.0961 60.1758 92.7518 59.9052 92.4321 59.6101C91.6205 58.8722 90.8334 58.1344 90.0218 57.3966C89.6529 57.0768 89.3086 56.7571 88.8905 56.3882C88.4969 56.7325 88.1034 57.1014 87.7099 57.4458C88.6199 58.5033 89.5053 59.5363 90.3907 60.5939C91.1778 61.5285 91.9894 62.4631 92.7764 63.3977C93.2191 63.9142 93.6618 64.4306 94.1045 64.9717C94.1537 65.0455 94.1537 65.1685 94.1291 65.2669C93.9815 65.7833 93.8094 66.2998 93.6864 66.8163C93.6372 67.0869 93.6618 67.3574 93.6372 67.6279C93.6372 67.7263 93.5634 67.8493 93.4651 67.8985C92.1861 68.6363 90.9318 69.3742 89.6529 70.0874C88.6937 70.6285 87.7099 71.1696 86.7507 71.7107C86.0867 72.0796 85.3734 72.4977 84.5864 72.9404Z" fill="white"/>
<path d="M84.0458 74.17C82.3487 70.407 82.0536 66.5457 83.3817 62.6351C84.7098 58.7 87.2922 55.847 90.9814 53.904C90.4158 52.5759 89.8747 51.2478 89.2844 49.8705C88.7433 50.1656 88.2268 50.4116 87.7595 50.7067C86.9233 51.2478 86.0625 51.7889 85.3247 52.4283C84.4885 53.1416 83.6768 53.9532 82.939 54.7894C82.2749 55.5273 81.6847 56.3635 81.1436 57.1997C80.4303 58.3064 79.8401 59.4624 79.422 60.7167C79.0776 61.7497 78.8071 62.8073 78.5366 63.8402C78.4874 63.9878 78.4628 64.16 78.4628 64.3075C78.4382 64.4797 78.4874 64.6027 78.6595 64.7256C79.4466 65.2421 80.0368 65.9308 80.4795 66.767C80.6763 67.1359 80.873 67.4802 81.0944 67.8246C81.4879 68.464 81.3403 69.0543 81.1436 69.743C80.8239 70.7513 80.0368 71.0711 79.176 71.3662C78.6349 71.563 78.6103 71.563 78.7579 72.104C78.9055 72.6943 79.1022 73.2846 79.2498 73.8995C79.299 74.0962 79.422 74.1946 79.6187 74.1946C81.0944 74.1946 82.5701 74.1946 84.0458 74.1946C84.0212 74.1946 84.0212 74.1946 84.0458 74.17Z" fill="white"/>
<path d="M78.2417 74.1453C78.0449 73.4075 77.8728 72.7434 77.676 72.0548C77.6514 71.981 77.5039 71.8826 77.4055 71.9072C76.4463 72.0548 75.5117 72.2269 74.5771 72.3745C73.8393 72.4729 73.0768 72.5221 72.3144 72.5713C70.6174 72.6204 68.9203 72.6942 67.2479 72.6942C66.1657 72.6942 65.059 72.6204 63.9768 72.5713C63.0914 72.5221 62.206 72.4729 61.3206 72.3991C60.3614 72.3253 59.4268 72.2269 58.4676 72.104C57.656 72.0056 56.8444 71.858 56.0573 71.6858C55.0735 71.4645 54.2865 70.8988 53.6962 70.0872C52.7371 68.7345 52.0238 67.2342 51.4335 65.7093C51.1384 64.9223 51.04 64.1107 51.6057 63.3483C51.95 62.881 52.4173 62.5858 52.9338 62.4137C53.4503 62.2415 53.9914 62.1185 54.5325 61.971C54.4833 61.5774 54.4341 61.1839 54.3849 60.7658C54.3111 60.2247 54.2373 59.6837 54.1635 59.118C54.0652 58.331 53.9422 57.5439 53.8192 56.7815C53.7454 56.3142 53.6225 55.8715 53.5733 55.4042C53.5241 55.0599 53.3027 55.0353 53.0568 55.0107C52.5157 54.9369 52.0484 55.1337 51.5811 55.4288C50.917 55.8469 50.2284 56.1912 49.5643 56.6093C48.7281 57.1258 48.2854 57.9128 48.0641 58.8474C47.9165 59.4131 48.1133 59.9542 48.31 60.4461C48.9249 62.0202 49.5643 63.5696 50.2284 65.1191C51.1384 67.1604 52.0976 69.1526 53.3765 70.9972C53.7946 71.6121 54.2127 72.2761 54.8768 72.6204C55.5162 72.9648 56.2295 73.1615 56.9181 73.3583C57.9757 73.6534 59.0825 73.7272 60.1892 73.7518C61.3698 73.7518 62.5257 73.8256 63.7063 73.8748C64.2227 73.8994 64.7638 73.924 65.2803 73.924C66.4117 73.9732 67.5676 73.9977 68.699 74.0469C69.1909 74.0715 69.6828 74.0961 70.1747 74.0961C71.5028 74.1207 72.8309 74.1453 74.159 74.1699C75.4133 74.1945 76.6676 74.2191 77.8974 74.2191C78.0449 74.1453 78.1433 74.1453 78.2417 74.1453Z" fill="white"/>
<path d="M87.0462 58.2079C82.9389 62.8317 83.111 68.8082 84.267 71.9071C84.6359 71.7103 85.0048 71.5136 85.3492 71.2922C86.1362 70.8495 86.8986 70.3822 87.6856 69.9395C88.6694 69.3739 89.6532 68.8082 90.6616 68.2425C91.2765 67.8982 91.8913 67.5539 92.5062 67.1849C92.58 67.1357 92.6538 67.0374 92.6538 66.9636C92.7521 66.4471 92.8505 65.9552 92.9489 65.4387C92.9981 65.2666 92.9735 65.119 92.8259 64.996C92.1619 64.2336 91.5224 63.4465 90.8584 62.6841C90.4648 62.2168 90.0467 61.7495 89.6532 61.2822C89.1367 60.6674 88.6202 60.0525 88.1038 59.4376C87.784 59.0195 87.4151 58.626 87.0462 58.2079Z" fill="white"/>
<path d="M18.3046 80.7115C23.1744 81.9167 28.536 80.0967 31.6104 76.6042C30.5282 75.8664 29.446 75.1285 28.3639 74.3907C27.0603 73.5053 25.7568 72.5953 24.4287 71.6853C24.3549 71.6361 24.1828 71.6361 24.0844 71.6607C23.4695 71.9066 22.8301 72.1034 22.166 72.1034C22.0922 72.1034 21.9939 72.2018 21.9693 72.2756C21.4528 73.4561 20.9363 74.6612 20.4198 75.8418C20.0263 76.7518 19.6328 77.6372 19.2147 78.5226C18.9195 79.285 18.6244 79.9983 18.3046 80.7115Z" fill="white"/>
<path d="M7.3598 67.775C7.48277 69.9148 8.04845 71.9561 9.10602 73.8253C10.4587 76.2602 12.3771 78.1294 14.8612 79.4575C15.476 77.2932 16.0909 75.1534 16.7304 73.0137C16.9517 72.2267 17.1977 71.4396 17.4436 70.6526C17.5174 70.4067 17.4682 70.2345 17.3452 70.0377C17.0747 69.6196 16.8041 69.2015 16.5336 68.7834C16.4598 68.6604 16.4106 68.5866 16.2385 68.5866C15.3285 68.5129 14.3939 68.4391 13.4839 68.3407C12.7706 68.2669 12.0328 68.2177 11.3195 68.1439C10.3849 68.0456 9.47494 67.9472 8.54035 67.8488C8.17142 67.8242 7.77791 67.7996 7.3598 67.775Z" fill="white"/>
<path d="M106.255 56.0925C105.664 57.4206 105.099 58.6996 104.508 59.9785C104.213 60.6671 103.894 61.3312 103.574 62.0198C103.353 62.4871 103.131 62.9544 102.934 63.4463C102.91 63.5201 102.934 63.6923 102.984 63.7661C103.402 64.3071 103.697 64.8974 103.918 65.5369C103.943 65.6107 104.041 65.6844 104.115 65.709C105.935 66.1517 107.755 66.619 109.575 67.0371C110.387 67.2339 111.174 67.4061 112.034 67.6028C112.01 65.8074 111.715 64.0858 111.075 62.4134C110.067 59.8801 108.468 57.7896 106.255 56.0925Z" fill="white"/>
<path d="M106.82 78.523C109.132 76.5801 110.657 74.219 111.493 71.366C108.739 71.0463 106.009 70.7511 103.254 70.4314C102.861 71.0217 102.393 71.5873 101.779 71.9563C101.385 72.1776 101.385 72.4482 101.459 72.8171C101.533 73.2352 101.533 73.6533 101.533 74.096C101.533 74.3419 101.606 74.4649 101.877 74.4403C102.713 74.4157 103.525 74.4157 104.361 74.4403C105.64 74.4649 106.894 74.4649 108.173 74.5141C108.345 74.5141 108.542 74.6617 108.69 74.8092C108.837 74.9814 108.788 75.2028 108.665 75.3995C108.075 76.3833 107.509 77.3671 106.919 78.3755C106.87 78.4001 106.87 78.4247 106.82 78.523Z" fill="white"/>
<path d="M94.8919 53.5844C95.9495 56.2406 97.0071 58.8968 98.0646 61.553C98.4582 61.6022 98.6057 61.3071 98.7533 61.0365C99.8355 59.2903 100.918 57.5441 101.975 55.7979C102.295 55.2814 102.59 54.7649 102.91 54.2484C100.327 53.2646 97.6711 53.0679 94.8919 53.5844Z" fill="white"/>
<path d="M88.7683 78.548C91.5967 80.8353 94.8432 81.8683 98.4586 81.7945C98.2619 80.8107 98.0651 79.8515 97.8438 78.8678C97.8192 78.794 97.6962 78.671 97.6224 78.671C96.9092 78.6464 96.1959 78.6218 95.4581 78.5972C93.9332 78.5726 92.3837 78.548 90.8589 78.5234C90.1948 78.548 89.5062 78.548 88.7683 78.548Z" fill="white"/>
<path d="M94.5972 71.6118C92.482 72.4726 90.3669 73.358 88.2763 74.2189C88.2763 74.2434 88.2763 74.268 88.3009 74.2926C91.1785 74.3418 94.0561 74.3664 96.9583 74.4156C96.8599 73.8991 96.7615 73.4072 96.6631 72.9153C96.6385 72.8415 96.5647 72.7432 96.491 72.7186C95.7531 72.4726 95.1628 72.0791 94.5972 71.6118Z" fill="white"/>
<path d="M44.3992 27.1696C44.3992 27.6861 44.3992 28.1042 44.3992 28.5715C45.2108 28.5715 46.047 28.5715 46.8586 28.5715C47.3013 28.5715 47.744 28.5469 48.2113 28.5715C49.1213 28.5961 50.0313 28.4239 50.9167 28.842C50.9167 28.1534 50.9167 27.5139 50.9167 26.8499C50.843 26.8744 50.7692 26.899 50.6954 26.9236C50.3019 27.0712 49.933 27.1942 49.4903 27.1696C48.2851 27.145 47.08 27.1696 45.8502 27.1696C45.383 27.1696 44.9157 27.1696 44.3992 27.1696Z" fill="white"/>
<path d="M27.1586 59.9294C28.6343 59.0686 30.0854 58.2078 31.6102 57.3224C30.9216 56.7321 30.2821 56.191 29.5689 55.5762C28.7327 57.0273 27.8964 58.4537 27.0848 59.8802C27.1094 59.8802 27.134 59.9048 27.1586 59.9294Z" fill="white"/>
<path d="M102.073 81.1056C103.352 80.7613 105.615 79.5807 106.427 78.7937C104.902 78.7937 103.401 78.7937 101.877 78.7937C101.95 79.5315 102.024 80.294 102.073 81.1056Z" fill="white"/>
<path d="M100.844 78.7202C100.18 78.7202 99.5648 78.7202 98.9008 78.7202C99.073 79.6302 99.2697 80.5648 99.4419 81.4748C99.4665 81.5486 99.5894 81.647 99.6632 81.647C100.106 81.5732 100.549 81.4748 101.041 81.401C100.991 80.5156 100.918 79.6548 100.844 78.7202Z" fill="white"/>
<path d="M92.875 58.4042C92.3831 57.2236 91.8666 56.0431 91.3501 54.8134C90.8336 55.1085 90.3418 55.4036 89.8253 55.7234C90.8336 56.658 91.8174 57.5434 92.8258 58.4288C92.8504 58.4288 92.8504 58.4042 92.875 58.4042Z" fill="white"/>
<path d="M52.6386 34.8922C52.0975 34.5233 51.4827 34.5971 50.8924 34.6217C50.5727 34.6217 50.2529 34.6709 49.9332 34.6709C49.4413 34.6955 48.974 34.843 48.5805 35.1136C48.5805 35.1382 48.5805 35.1628 48.6051 35.1874C49.9578 35.1136 51.3105 35.0398 52.6632 34.966C52.6386 34.966 52.6386 34.9168 52.6386 34.8922Z" fill="white"/>
<path d="M41.8906 37.2536C42.1857 37.0814 42.4563 36.9093 42.776 36.7125C42.3825 36.7125 42.0628 36.7125 41.7184 36.7125C41.7676 36.9093 41.8168 37.0568 41.8906 37.2536Z" fill="white"/>
<path d="M57.9505 69.1773C58.7129 69.2511 59.4507 69.3003 60.2132 69.3741C60.5821 69.3987 60.9264 69.4233 61.2953 69.4233C61.9102 69.4479 62.5251 69.4479 63.1399 69.497C65.624 69.6938 68.1081 69.5954 70.5921 69.5954C71.7973 69.5954 73.027 69.5216 74.2321 69.4725C74.8962 69.4479 75.5356 69.3987 76.1997 69.3495C76.5194 69.3249 76.6916 69.1773 76.7162 68.8822C76.7162 68.587 76.5194 68.3165 76.2489 68.3411C75.634 68.3411 74.9946 68.3903 74.3797 68.4149C74.3059 68.4149 74.2321 68.4641 74.1829 68.4641C73.4451 68.4887 72.7073 68.5133 71.9694 68.5133C69.7313 68.5379 67.4932 68.5624 65.2551 68.5624C64.2959 68.5624 63.3613 68.4887 62.4021 68.4395C61.738 68.4149 61.0986 68.3657 60.4345 68.3165C59.4507 68.2427 58.467 68.1443 57.4832 68.0706C57.3356 68.0706 57.188 68.0706 57.0651 68.0706C56.8191 68.0952 56.5978 68.3411 56.5732 68.587C56.5732 68.7838 56.7945 69.0789 57.0159 69.1035C57.311 69.1773 57.6307 69.1773 57.9505 69.1773C57.9505 69.2019 57.9505 69.2019 57.9505 69.1773Z" fill="black"/>
<path d="M64.6161 56.8307C64.6161 56.511 64.6161 56.2158 64.6161 55.8961C61.7385 55.8961 58.8855 55.8961 56.0326 55.8961C56.0326 56.2158 56.0326 56.511 56.0326 56.8307C58.8855 56.8307 61.7385 56.8307 64.6161 56.8307Z" fill="black"/>
<path d="M64.6161 58.7241C64.6161 58.4044 64.6161 58.1093 64.6161 57.7896C61.7631 57.7896 58.9101 57.7896 56.0326 57.7896C56.0326 58.0847 56.0326 58.4044 56.0326 58.7241C58.8855 58.7241 61.7385 58.7241 64.6161 58.7241Z" fill="black"/>
<path d="M55.9588 54.7159C58.8118 54.7159 61.6648 54.7159 64.5424 54.7159C64.5424 54.4207 64.5424 54.1502 64.5424 53.8304C61.6894 53.8304 58.8364 53.8304 55.9588 53.8304C55.9588 54.101 55.9588 54.3961 55.9588 54.7159Z" fill="black"/>
</svg>
