<svg width="149" height="168" viewBox="0 0 149 168" fill="none" xmlns="http://www.w3.org/2000/svg">
<g clip-path="url(#clip0_1_94)">
<path d="M115.735 184.507C115.404 184.507 115.074 184.333 114.909 183.814C113.091 177.754 109.126 172.213 103.839 168.403C97.2301 164.421 82.1951 153.512 77.4038 146.585C77.0733 146.239 77.2386 145.72 77.569 145.373C77.8994 145.027 78.3951 145.2 78.7255 145.546C83.3517 151.953 97.891 162.689 104.83 166.845C109.787 170.481 113.587 175.502 115.9 181.043C118.709 174.29 122.013 172.213 127.465 168.403C129.283 167.191 131.265 165.806 133.744 163.901C134.405 163.382 135.231 162.862 136.057 162.169C147.622 153.858 166.953 140.006 169.266 70.2236C153.735 66.2411 132.257 58.9685 116.396 46.6744C110.943 51.1765 92.1083 62.6048 87.4822 65.3753C87.1517 65.5484 86.4908 65.5484 86.3256 65.029C86.1604 64.6827 86.1604 63.99 86.6561 63.8169C91.2822 61.0464 111.274 48.9255 115.735 44.9429C116.065 44.5966 116.396 44.5966 116.726 44.9429C132.752 57.5833 154.561 64.8558 170.092 68.8384C170.422 69.0116 170.753 69.3579 170.753 69.7042C169.762 101.045 165.301 124.075 157.37 140.352C150.596 154.031 142.666 159.745 136.883 163.901C136.057 164.421 135.396 165.113 134.57 165.633C132.091 167.537 130.109 168.923 128.291 170.135C122.178 174.29 119.37 176.195 116.561 184.16C116.396 184.16 116.23 184.507 115.735 184.507Z" fill="black"/>
<path d="M115.735 167.191C115.57 167.191 115.57 167.191 115.57 167.017C114.744 165.805 110.117 162.515 105.326 159.052C99.7086 154.896 93.265 150.394 91.4476 148.143C91.2824 147.97 91.2824 147.797 91.4476 147.797C91.6128 147.624 91.778 147.624 91.778 147.797C93.5954 150.048 99.8738 154.55 105.656 158.533C110.448 161.996 114.578 164.939 115.9 166.325C118.874 163.035 121.187 161.476 126.144 158.36C127.465 157.494 128.787 156.628 130.439 155.589C152.744 140.871 158.031 117.322 160.509 76.1105C141.179 71.2621 126.805 64.8553 116.726 56.8902C114.413 59.1412 109.126 62.0848 105.822 63.8164C104.83 64.3359 104.17 64.6822 103.674 65.0285C103.509 65.0285 103.343 65.0285 103.343 64.8553C103.343 64.6822 103.343 64.509 103.509 64.509C104.004 64.1627 104.665 63.8164 105.656 63.2969C108.961 61.5654 114.413 58.4486 116.561 56.3707C116.726 56.1975 116.891 56.1975 116.891 56.3707C126.97 64.509 141.344 70.7426 160.84 75.591C161.005 75.591 161.005 75.7642 161.005 75.9373C160.014 92.9066 158.362 110.742 153.57 125.114C148.944 138.966 141.674 148.836 130.605 156.109C128.952 157.147 127.465 158.186 126.309 158.879C121.187 162.169 118.874 163.727 115.9 167.017C115.9 167.191 115.9 167.191 115.735 167.191Z" fill="black"/>
<path d="M52.0296 137.419H44.4056C43.7484 137.419 43.0912 136.723 43.0912 135.887L43.2226 113.746C43.2226 112.632 44.2742 112.075 44.8 112.075L52.1611 112.214C52.8183 112.214 53.4755 112.91 53.4755 113.746V135.748C53.7384 136.583 53.0812 137.419 52.0296 137.419Z" fill="black"/>
<path d="M110.267 137.66H102.444C101.77 137.66 101.096 136.954 101.096 136.105L101.231 113.632C101.231 112.501 102.31 111.935 102.849 111.935L110.402 112.077C111.076 112.077 111.75 112.783 111.75 113.632V135.964C112.02 136.812 111.346 137.66 110.267 137.66Z" fill="black"/>
<path d="M113.849 125.084C113.983 118.138 114.656 111.617 114.521 104.671C114.521 104.104 114.521 103.396 114.252 102.829C113.849 102.12 109.143 99.2846 106.186 98.0088C104.572 92.9056 100.136 82.2739 99.1947 80.9981C98.3881 79.7223 97.0436 78.73 95.8336 78.73C84.9438 78.5883 73.9195 78.73 62.7607 78.73C61.5508 78.73 60.3408 78.73 59.2652 79.5805C58.1897 80.2893 57.5175 81.7069 56.9797 82.9827C54.6942 87.8024 52.5431 92.7638 50.1231 98.0088C47.972 99.1428 45.6865 100.419 43.5354 101.553C42.8632 101.836 42.3254 102.261 41.7877 102.829C40.8466 103.963 40.7121 105.664 40.5777 107.223C40.1744 113.46 40.3088 118.422 40.8466 124.942C40.5777 128.486 48.3754 128.061 52.2742 128.061C72.0373 128.061 90.456 128.203 110.219 128.203C111.16 128.203 112.101 128.203 112.908 127.636C113.715 127.069 113.849 125.935 113.849 125.084Z" fill="white"/>
<path d="M109.929 128.779H109.794L51.6891 128.637C51.2847 128.637 50.8803 128.637 50.4758 128.637C46.9706 128.637 42.1173 128.637 40.3648 126.799C39.8255 126.233 39.6907 125.668 39.6907 124.819C39.1514 117.749 39.1514 112.941 39.4211 107.143C39.5559 105.446 39.6907 103.608 40.7692 102.335C41.3085 101.628 42.1173 101.204 42.7914 100.921L49.1277 97.5271C51.4195 92.2949 53.7113 87.4869 55.8684 82.679C56.4076 81.4063 57.2165 79.8508 58.4298 79.0023C59.6432 78.1539 61.1261 78.1539 62.3394 78.1539C73.1246 78.1539 84.4489 78.0124 95.5037 78.1539C96.9866 78.1539 98.4696 79.1437 99.5481 80.6992C100.492 82.2548 104.941 92.5777 106.558 97.5271C109.12 98.6584 114.108 101.487 114.647 102.476C115.052 103.184 115.052 104.032 115.052 104.598C115.187 108.84 114.917 112.941 114.782 117.042C114.647 119.587 114.512 122.274 114.512 125.102C114.512 126.092 114.108 127.506 112.895 128.072C111.951 128.779 110.872 128.779 109.929 128.779ZM51.5543 127.223H51.6891L109.794 127.365C110.603 127.365 111.547 127.365 112.221 126.94C112.76 126.658 113.029 125.809 113.164 125.102C113.164 122.415 113.299 119.587 113.434 117.042C113.569 113.082 113.838 108.981 113.704 104.739C113.704 104.315 113.704 103.608 113.434 103.184C113.03 102.618 108.715 100.072 105.615 98.6584C105.48 98.517 105.345 98.3756 105.21 98.2341C103.593 93.1434 99.1437 82.679 98.3348 81.4063C97.5259 80.1336 96.4474 79.4265 95.5037 79.4265C84.4489 79.2851 73.1246 79.4265 62.3394 79.4265C61.2609 79.4265 60.0476 79.4265 59.2387 80.1336C58.295 80.8407 57.7558 82.1133 57.2165 83.2446C55.0595 88.0526 52.7677 93.002 50.341 98.2341C50.341 98.3756 50.2062 98.517 50.0714 98.517L43.4655 102.052C42.9262 102.335 42.2522 102.618 41.8477 103.184C41.0388 104.173 40.904 105.729 40.904 107.143C40.6344 112.941 40.6344 117.749 41.1737 124.678C41.1737 124.678 41.1737 124.678 41.1737 124.819C41.1737 125.244 41.3085 125.526 41.4433 125.668C42.7914 127.223 47.6447 127.082 50.6106 127.082C50.8803 127.223 51.2847 127.223 51.5543 127.223Z" fill="black"/>
<path d="M56.8311 98.2509C58.8392 93.737 61.3829 85.6965 63.1233 84.8502C64.3282 84.2859 79.724 84.568 88.1582 84.427C89.8986 84.427 91.9067 84.568 93.1116 85.9786C93.781 86.825 98.6005 97.8277 98.6005 97.8277L56.8311 98.2509Z" fill="#FFD42E"/>
<path d="M56.3775 99.4029C56.1057 99.4029 55.9698 99.2581 55.8338 99.1132C55.6979 98.9684 55.6979 98.6787 55.8338 98.3891C56.3775 97.0855 56.9211 95.6371 57.6007 94.0439C59.7753 88.5401 61.1344 85.064 62.6295 84.3398C63.5809 83.9053 68.7456 83.7605 80.8418 83.9053C83.5601 83.9053 86.1424 83.9053 88.317 83.9053C90.2198 83.9053 92.5303 84.0501 93.8894 85.7882C94.569 86.6572 98.7823 96.2165 99.5978 98.0994C99.7337 98.3891 99.7337 98.5339 99.5978 98.8236C99.4619 98.9684 99.19 99.1132 99.0541 99.1132L56.3775 99.4029ZM74.8616 85.2088C69.2892 85.2088 63.8527 85.2088 63.1731 85.4985C62.0858 86.0779 60.1831 90.8575 58.8239 94.4784C58.4162 95.6371 57.8725 96.7958 57.4648 97.9545L97.8309 97.6649C95.9281 93.3197 93.2099 87.2366 92.8022 86.6572C91.8508 85.3537 89.948 85.2088 88.317 85.3537C86.1424 85.3537 83.5601 85.3537 80.8418 85.3537C78.939 85.2088 76.9003 85.2088 74.8616 85.2088Z" fill="black"/>
<path d="M72.1382 117.259C68.9126 117.259 65.6871 117.259 62.5959 117.259C62.4615 117.259 62.3271 117.028 62.3271 116.798C62.3271 116.568 62.4615 116.337 62.5959 116.337C72.6758 116.568 82.7558 116.337 92.8358 116.107C92.9702 116.107 93.1046 116.337 93.1046 116.568C93.1046 116.798 92.9702 117.028 92.8358 117.028C85.9814 117.259 78.9926 117.259 72.1382 117.259Z" fill="black"/>
<path d="M72.1382 110.923C68.9126 110.923 65.6871 110.923 62.5959 110.923C62.4615 110.923 62.3271 110.808 62.3271 110.692C62.3271 110.577 62.4615 110.462 62.5959 110.462C72.6758 110.577 82.7558 110.462 92.8358 110.347C92.9702 110.347 93.1046 110.462 93.1046 110.577C93.1046 110.692 92.9702 110.808 92.8358 110.808C85.9814 110.923 78.9926 110.923 72.1382 110.923Z" fill="black"/>
<path d="M105.366 95.9469C105.092 95.9469 104.819 95.6261 104.682 95.3052C104.545 94.8239 104.819 94.503 105.229 94.3426C107.83 93.7008 110.567 93.5404 113.305 93.7008C113.716 93.7008 113.989 94.0217 113.989 94.503C113.989 94.9843 113.579 95.3052 113.305 95.3052C110.567 94.9843 108.104 95.3052 105.366 95.9469Z" fill="black"/>
<path d="M50.7371 95.9469C50.6004 95.9469 50.6004 95.9469 50.4637 95.9469C48.6868 95.2592 44.1761 94.9841 42.2625 95.1216C41.8524 95.1216 41.579 94.8465 41.4424 94.5714C41.4424 94.1588 41.7157 93.8837 41.9891 93.7461C44.0394 93.471 48.8235 93.7461 50.8738 94.5714C51.2839 94.709 51.4205 95.1216 51.2839 95.5343C51.2839 95.8094 51.0105 95.9469 50.7371 95.9469Z" fill="black"/>
<path d="M45.418 110.347C45.0112 110.347 44.74 110.059 44.74 109.627C44.74 109.195 45.0112 108.907 45.418 108.907C48.4016 108.763 51.5207 108.619 54.5042 108.619C54.9111 108.619 55.1823 108.907 55.1823 109.339C55.1823 109.771 54.9111 110.059 54.5042 110.059C51.5207 110.203 48.4016 110.203 45.418 110.347Z" fill="black"/>
<path d="M100.892 110.347C100.506 110.347 100.249 110.059 100.249 109.627C100.249 109.195 100.506 108.907 100.892 108.907C103.718 108.763 106.673 108.619 109.5 108.619C109.885 108.619 110.142 108.907 110.142 109.339C110.142 109.771 109.885 110.059 109.5 110.059C106.673 110.203 103.847 110.203 100.892 110.347C101.02 110.347 101.02 110.347 100.892 110.347Z" fill="black"/>
<path d="M36.9906 70.027C36.1662 69.9118 35.4517 69.6814 34.7373 69.3358C34.5724 69.2782 34.5174 69.1054 34.6273 68.9326C34.6823 68.7598 34.8472 68.7022 35.0121 68.8174C35.6716 69.163 36.3311 69.3358 37.0456 69.451C37.2105 69.451 37.3204 69.6238 37.2654 69.7966C37.2654 69.9118 37.1555 70.027 36.9906 70.027ZM39.189 69.9118C39.0791 69.9118 38.9692 69.7966 38.9142 69.6814C38.8592 69.5086 38.9692 69.3934 39.134 69.3358C39.8485 69.163 40.508 68.9326 41.1126 68.5294C41.2225 68.4718 41.4424 68.4718 41.4973 68.6446C41.5523 68.7598 41.5523 68.9902 41.3874 69.0478C40.7279 69.451 40.0134 69.739 39.244 69.9118C39.244 69.9118 39.244 69.9118 39.189 69.9118ZM33.0885 68.011C33.0335 68.011 32.9236 67.9534 32.8686 67.8958C32.319 67.3198 31.8794 66.6286 31.5496 65.8798C31.4946 65.707 31.5496 65.5342 31.7145 65.4766C31.8794 65.419 32.0442 65.4767 32.0992 65.6495C32.374 66.3406 32.8137 66.9166 33.3083 67.4926C33.4182 67.6078 33.4182 67.7806 33.3083 67.8958C33.1984 68.011 33.1434 68.011 33.0885 68.011ZM42.9263 67.5502C42.8713 67.5502 42.8164 67.5502 42.7614 67.4926C42.6515 67.3774 42.6515 67.2046 42.7064 67.0894C43.1461 66.5134 43.5308 65.8799 43.7507 65.1311C43.8056 64.9583 43.9705 64.9007 44.0804 64.9583C44.2453 65.0159 44.3003 65.1886 44.2453 65.3038C43.9705 66.0526 43.6408 66.8014 43.1461 67.435C43.0912 67.5502 43.0362 67.5502 42.9263 67.5502ZM31.2748 63.8639C31.1099 63.8639 31 63.7487 31 63.5759C31 63.4607 31 63.2879 31 63.1727C31 62.3663 31.1649 61.5599 31.4397 60.8111C31.4946 60.6383 31.6595 60.5807 31.8244 60.6383C31.9893 60.6959 32.0442 60.8687 31.9893 61.0415C31.7145 61.7327 31.6046 62.4815 31.6046 63.2303C31.6046 63.3455 31.6046 63.4607 31.6046 63.6335C31.6046 63.6911 31.4397 63.8063 31.2748 63.8639ZM44.3552 63.2303C44.1904 63.2303 44.0804 63.1151 44.0804 62.9423C44.0804 62.1935 43.9155 61.4447 43.6408 60.7535C43.5858 60.5807 43.6408 60.4079 43.8056 60.3503C43.9705 60.2927 44.1354 60.3503 44.1903 60.5231C44.4651 61.2719 44.63 62.0783 44.685 62.8847C44.63 63.1151 44.5201 63.2303 44.3552 63.2303ZM32.8137 59.1407C32.7587 59.1407 32.7038 59.1407 32.6488 59.0831C32.5389 58.9679 32.5389 58.7951 32.5938 58.6799C33.0885 58.0463 33.693 57.5279 34.4075 57.1247C34.5174 57.0671 34.7373 57.0671 34.7922 57.2399C34.8472 57.3551 34.8472 57.5855 34.6823 57.6431C34.0777 57.9887 33.5281 58.5071 33.0335 59.0255C32.9786 59.1407 32.8686 59.1407 32.8137 59.1407ZM42.7064 59.0255C42.6515 59.0255 42.5416 58.9679 42.4866 58.9103C41.992 58.3343 41.4424 57.9311 40.7828 57.5279C40.6729 57.4703 40.618 57.2975 40.6729 57.1247C40.7279 57.0095 40.8928 56.9519 41.0576 57.0095C41.7721 57.4127 42.3767 57.8735 42.8713 58.5071C42.9812 58.6223 42.9812 58.7951 42.8713 58.9103C42.8164 58.9679 42.7614 59.0255 42.7064 59.0255ZM36.6059 56.8943C36.496 56.8943 36.3311 56.7791 36.3311 56.6639C36.3311 56.4911 36.3861 56.3759 36.5509 56.3183C36.9357 56.2607 37.3753 56.2031 37.815 56.2031C38.1448 56.2031 38.5295 56.2031 38.8593 56.2607C39.0241 56.2607 39.134 56.4335 39.0791 56.6063C39.0791 56.7791 38.9142 56.8943 38.7493 56.8367C38.4196 56.7791 38.0898 56.7791 37.7601 56.7791C37.4303 56.7791 37.0456 56.8367 36.6059 56.8943Z" fill="white"/>
<path d="M89.8091 31.5818C89.478 31.5818 89.2574 31.3506 89.2574 31.0036C89.2574 30.6567 89.478 30.4254 89.8091 30.4254L102.83 30.0784C103.161 30.0784 103.382 30.3097 103.382 30.6567C103.382 31.0036 103.161 31.2349 102.83 31.2349L89.8091 31.5818Z" fill="white"/>
<path d="M96.5399 38.2896C96.2089 38.2896 95.9882 38.0583 95.9882 37.7113L95.6572 23.9494C95.6572 23.6025 95.8779 23.3712 96.2089 23.3712C96.5399 23.3712 96.7606 23.6025 96.7606 23.9494L97.0916 37.7113C97.0916 37.9426 96.871 38.2896 96.5399 38.2896Z" fill="white"/>
</g>
<defs>
<clipPath id="clip0_1_94">
<rect width="149" height="168" rx="20" fill="white"/>
</clipPath>
</defs>
</svg>
