<svg width="230" height="273" viewBox="0 0 230 273" fill="none" xmlns="http://www.w3.org/2000/svg">
<g clip-path="url(#clip0_589_1337)">
<path d="M169.177 287.75C168.576 287.75 167.974 287.449 167.674 286.548C164.367 276.026 157.152 266.406 147.532 259.792C135.507 252.878 108.151 233.939 99.4332 221.914C98.832 221.313 99.1326 220.411 99.7338 219.81C100.335 219.209 101.237 219.509 101.838 220.111C110.255 231.234 136.71 249.872 149.336 257.087C158.355 263.4 165.269 272.118 169.477 281.738C174.588 270.013 180.6 266.406 190.521 259.792C193.828 257.688 197.435 255.283 201.944 251.976C203.147 251.074 204.65 250.173 206.153 248.97C227.196 234.54 262.369 210.491 266.577 89.3413C238.319 82.4271 199.239 69.8011 170.379 48.4571C160.459 56.2732 126.188 76.1141 117.771 80.924C117.17 81.2246 115.967 81.2246 115.667 80.3228C115.366 79.7215 115.366 78.519 116.268 78.2184C124.685 73.4085 161.06 52.3652 169.177 45.4509C169.778 44.8497 170.379 44.8497 170.981 45.4509C200.141 67.3961 239.822 80.0221 268.081 86.9364C268.682 87.237 269.283 87.8382 269.283 88.4395C267.479 142.852 259.363 182.834 244.933 211.092C232.607 234.841 218.178 244.761 207.656 251.976C206.153 252.878 204.951 254.081 203.447 254.983C198.938 258.289 195.331 260.694 192.024 262.799C180.901 270.013 175.79 273.32 170.68 287.149C170.379 287.149 170.079 287.75 169.177 287.75Z" fill="black"/>
<path d="M169.178 257.688C168.878 257.688 168.878 257.688 168.878 257.388C167.375 255.283 158.957 249.571 150.239 243.559C140.018 236.344 128.294 228.528 124.987 224.62C124.687 224.319 124.687 224.019 124.987 224.019C125.288 223.718 125.588 223.718 125.588 224.019C128.895 227.927 140.319 235.743 150.84 242.657C159.558 248.67 167.074 253.78 169.479 256.185C174.89 250.473 179.099 247.768 188.117 242.357C190.522 240.853 192.927 239.35 195.933 237.547C236.517 211.994 246.137 171.11 250.646 99.5625C215.474 91.1451 189.32 80.0222 170.982 66.1937C166.773 70.1018 157.153 75.2123 151.141 78.2185C149.337 79.1204 148.135 79.7216 147.233 80.3228C146.932 80.3228 146.632 80.3228 146.632 80.0222C146.632 79.7216 146.632 79.421 146.932 79.421C147.834 78.8197 149.037 78.2185 150.84 77.3166C156.853 74.3104 166.773 68.8993 170.681 65.2919C170.982 64.9913 171.283 64.9913 171.283 65.2919C189.62 79.421 215.774 90.2433 251.247 98.6606C251.548 98.6606 251.548 98.9612 251.548 99.2618C249.744 128.723 246.738 159.686 238.02 184.638C229.603 208.687 216.375 225.823 196.234 238.449C193.228 240.252 190.522 242.056 188.418 243.258C179.099 248.97 174.89 251.676 169.479 257.388C169.479 257.688 169.479 257.688 169.178 257.688Z" fill="black"/>
<path d="M53.2636 206H39.3917C38.1959 206 37 204.791 37 203.341L37.2391 164.901C37.2391 162.967 39.1525 162 40.1092 162L53.5028 162.242C54.6987 162.242 55.8945 163.451 55.8945 164.901V203.099C56.3729 204.549 55.177 206 53.2636 206Z" fill="black"/>
<path d="M159.226 206.419H144.993C143.766 206.419 142.539 205.192 142.539 203.72L142.784 164.703C142.784 162.739 144.748 161.758 145.729 161.758L159.471 162.003C160.698 162.003 161.925 163.23 161.925 164.703V203.475C162.416 204.947 161.189 206.419 159.226 206.419Z" fill="black"/>
<path d="M165.745 184.586C165.989 172.527 167.212 161.206 166.968 149.147C166.968 148.162 166.968 146.932 166.479 145.947C165.745 144.717 157.183 139.795 151.801 137.58C148.866 128.72 140.793 110.262 139.081 108.047C137.613 105.832 135.167 104.109 132.966 104.109C113.151 103.863 93.0925 104.109 72.789 104.109C70.5875 104.109 68.3859 104.109 66.4289 105.586C64.4719 106.817 63.2488 109.278 62.2704 111.493C58.1118 119.86 54.1979 128.474 49.7947 137.58C45.8808 139.548 41.7223 141.763 37.8083 143.732C36.5852 144.224 35.6068 144.963 34.6283 145.947C32.9159 147.916 32.6713 150.869 32.4267 153.576C31.6928 164.405 31.9375 173.019 32.9159 184.34C32.4267 190.492 46.6147 189.754 53.7087 189.754C89.6678 189.754 123.181 190 159.14 190C160.852 190 162.565 190 164.032 189.016C165.5 188.031 165.745 186.062 165.745 184.586Z" fill="white"/>
<path d="M158.612 191H158.367L52.6442 190.754C51.9083 190.754 51.1724 190.754 50.4365 190.754C44.0588 190.754 35.2282 190.755 32.0393 187.563C31.0581 186.581 30.8128 185.599 30.8128 184.126C29.8317 171.851 29.8317 163.503 30.3222 153.438C30.5675 150.492 30.8128 147.3 32.7752 145.091C33.7564 143.863 35.2282 143.126 36.4546 142.635L47.9835 136.743C52.1536 127.66 56.3236 119.312 60.2483 110.965C61.2295 108.756 62.7013 106.055 64.909 104.582C67.1166 103.109 69.8149 103.109 72.0225 103.109C91.6462 103.109 112.251 102.864 132.365 103.109C135.064 103.109 137.762 104.828 139.724 107.528C141.441 110.229 149.536 128.151 152.48 136.743C157.14 138.707 166.216 143.617 167.197 145.336C167.933 146.564 167.933 148.037 167.933 149.019C168.178 156.384 167.688 163.503 167.443 170.623C167.197 175.042 166.952 179.707 166.952 184.617C166.952 186.335 166.216 188.79 164.008 189.772C162.291 191 160.329 191 158.612 191ZM52.3989 188.299H52.6442L158.367 188.545C159.838 188.545 161.555 188.545 162.782 187.808C163.763 187.317 164.254 185.844 164.499 184.617C164.499 179.952 164.744 175.042 164.99 170.623C165.235 163.749 165.725 156.629 165.48 149.264C165.48 148.528 165.48 147.3 164.99 146.564C164.254 145.582 156.404 141.162 150.762 138.707C150.517 138.462 150.272 138.216 150.027 137.971C147.083 129.133 138.988 110.965 137.516 108.756C136.045 106.546 134.082 105.319 132.365 105.319C112.251 105.073 91.6462 105.319 72.0225 105.319C70.0602 105.319 67.8525 105.319 66.3807 106.546C64.6636 107.774 63.6825 109.983 62.7013 111.947C58.7765 120.294 54.6065 128.887 50.1912 137.971C50.1912 138.216 49.9459 138.462 49.7006 138.462L37.6811 144.6C36.6999 145.091 35.4735 145.582 34.7376 146.564C33.2658 148.282 33.0205 150.983 33.0205 153.438C32.5299 163.503 32.5299 171.851 33.5111 183.88C33.5111 183.88 33.5111 183.88 33.5111 184.126C33.5111 184.862 33.7564 185.353 34.0017 185.599C36.4546 188.299 45.2853 188.054 50.6818 188.054C51.1724 188.299 51.9083 188.299 52.3989 188.299Z" fill="black"/>
<path d="M62 138C65.6538 130.163 70.282 116.204 73.4487 114.735C75.641 113.755 103.654 114.245 119 114C122.167 114 125.82 114.245 128.013 116.694C129.231 118.163 138 137.265 138 137.265L62 138Z" fill="#FFD42E"/>
<path d="M61.1747 140C60.6801 140 60.4328 139.749 60.1855 139.497C59.9382 139.246 59.9382 138.743 60.1855 138.24C61.1747 135.977 62.1638 133.462 63.4003 130.696C67.357 121.141 69.83 115.106 72.5502 113.849C74.2813 113.094 83.6785 112.843 105.688 113.094C110.634 113.094 115.332 113.094 119.289 113.094C122.751 113.094 126.955 113.346 129.428 116.363C130.665 117.872 138.331 134.468 139.815 137.737C140.062 138.24 140.062 138.491 139.815 138.994C139.567 139.246 139.073 139.497 138.825 139.497L61.1747 140ZM94.8068 115.357C84.6677 115.357 74.7759 115.357 73.5394 115.86C71.5611 116.866 68.0989 125.164 65.626 131.451C64.8841 133.462 63.8949 135.474 63.153 137.485L136.6 136.983C133.138 129.439 128.192 118.878 127.45 117.872C125.719 115.609 122.257 115.357 119.289 115.609C115.332 115.609 110.634 115.609 105.688 115.609C102.226 115.357 98.5162 115.357 94.8068 115.357Z" fill="black"/>
<path d="M89.8515 171C83.9825 171 78.1136 171 72.4891 171C72.2446 171 72 170.6 72 170.2C72 169.8 72.2446 169.4 72.4891 169.4C90.8297 169.8 109.17 169.4 127.511 169C127.755 169 128 169.4 128 169.8C128 170.2 127.755 170.6 127.511 170.6C115.039 171 102.323 171 89.8515 171Z" fill="black"/>
<path d="M89.8515 160C83.9825 160 78.1136 160 72.4891 160C72.2446 160 72 159.8 72 159.6C72 159.4 72.2446 159.2 72.4891 159.2C90.8297 159.4 109.17 159.2 127.511 159C127.755 159 128 159.2 128 159.4C128 159.6 127.755 159.8 127.511 159.8C115.039 160 102.323 160 89.8515 160Z" fill="black"/>
<path d="M150.31 134C149.812 134 149.314 133.443 149.065 132.886C148.816 132.05 149.314 131.493 150.061 131.215C154.793 130.1 159.774 129.822 164.755 130.1C165.502 130.1 166 130.658 166 131.493C166 132.329 165.253 132.886 164.755 132.886C159.774 132.329 155.291 132.886 150.31 134Z" fill="black"/>
<path d="M50.9119 134C50.6632 134 50.6632 134 50.4145 134C47.1813 132.806 38.9741 132.328 35.4922 132.567C34.7461 132.567 34.2487 132.09 34 131.612C34 130.896 34.4974 130.418 34.9948 130.179C38.7254 129.701 47.43 130.179 51.1606 131.612C51.9067 131.851 52.1554 132.567 51.9067 133.284C51.9067 133.761 51.4093 134 50.9119 134Z" fill="black"/>
<path d="M41.2338 159C40.4935 159 40 158.5 40 157.75C40 157 40.4935 156.5 41.2338 156.5C46.6623 156.25 52.3377 156 57.7662 156C58.5065 156 59 156.5 59 157.25C59 158 58.5065 158.5 57.7662 158.5C52.3377 158.75 46.6623 158.75 41.2338 159Z" fill="black"/>
<path d="M142.169 159C141.468 159 141 158.5 141 157.75C141 157 141.468 156.5 142.169 156.5C147.312 156.25 152.688 156 157.831 156C158.532 156 159 156.5 159 157.25C159 158 158.532 158.5 157.831 158.5C152.688 158.75 147.545 158.75 142.169 159C142.403 159 142.403 159 142.169 159Z" fill="black"/>
<path d="M25.9 89C24.4 88.8 23.1 88.4 21.8 87.8C21.5 87.7 21.4 87.4 21.6 87.1C21.7 86.8 22 86.7 22.3 86.9C23.5 87.5 24.7 87.8 26 88C26.3 88 26.5 88.3 26.4 88.6C26.4 88.8 26.2 89 25.9 89ZM29.9 88.8C29.7 88.8 29.5 88.6 29.4 88.4C29.3 88.1 29.5 87.9 29.8 87.8C31.1 87.5 32.3 87.1 33.4 86.4C33.6 86.3 34 86.3 34.1 86.6C34.2 86.8 34.2 87.2 33.9 87.3C32.7 88 31.4 88.5 30 88.8C30 88.8 30 88.8 29.9 88.8ZM18.8 85.5C18.7 85.5 18.5 85.4 18.4 85.3C17.4 84.3 16.6 83.1 16 81.8C15.9 81.5 16 81.2 16.3 81.1C16.6 81 16.9 81.1 17 81.4C17.5 82.6 18.3 83.6 19.2 84.6C19.4 84.8 19.4 85.1 19.2 85.3C19 85.5 18.9 85.5 18.8 85.5ZM36.7 84.7C36.6 84.7 36.5 84.7 36.4 84.6C36.2 84.4 36.2 84.1 36.3 83.9C37.1 82.9 37.8 81.8 38.2 80.5C38.3 80.2 38.6 80.1 38.8 80.2C39.1 80.3 39.2 80.6 39.1 80.8C38.6 82.1 38 83.4 37.1 84.5C37 84.7 36.9 84.7 36.7 84.7ZM15.5 78.3C15.2 78.3 15 78.1 15 77.8C15 77.6 15 77.3 15 77.1C15 75.7 15.3 74.3 15.8 73C15.9 72.7 16.2 72.6 16.5 72.7C16.8 72.8 16.9 73.1 16.8 73.4C16.3 74.6 16.1 75.9 16.1 77.2C16.1 77.4 16.1 77.6 16.1 77.9C16.1 78 15.8 78.2 15.5 78.3ZM39.3 77.2C39 77.2 38.8 77 38.8 76.7C38.8 75.4 38.5 74.1 38 72.9C37.9 72.6 38 72.3 38.3 72.2C38.6 72.1 38.9 72.2 39 72.5C39.5 73.8 39.8 75.2 39.9 76.6C39.8 77 39.6 77.2 39.3 77.2ZM18.3 70.1C18.2 70.1 18.1 70.1 18 70C17.8 69.8 17.8 69.5 17.9 69.3C18.8 68.2 19.9 67.3 21.2 66.6C21.4 66.5 21.8 66.5 21.9 66.8C22 67 22 67.4 21.7 67.5C20.6 68.1 19.6 69 18.7 69.9C18.6 70.1 18.4 70.1 18.3 70.1ZM36.3 69.9C36.2 69.9 36 69.8 35.9 69.7C35 68.7 34 68 32.8 67.3C32.6 67.2 32.5 66.9 32.6 66.6C32.7 66.4 33 66.3 33.3 66.4C34.6 67.1 35.7 67.9 36.6 69C36.8 69.2 36.8 69.5 36.6 69.7C36.5 69.8 36.4 69.9 36.3 69.9ZM25.2 66.2C25 66.2 24.7 66 24.7 65.8C24.7 65.5 24.8 65.3 25.1 65.2C25.8 65.1 26.6 65 27.4 65C28 65 28.7 65 29.3 65.1C29.6 65.1 29.8 65.4 29.7 65.7C29.7 66 29.4 66.2 29.1 66.1C28.5 66 27.9 66 27.3 66C26.7 66 26 66.1 25.2 66.2Z" fill="white"/>
<path d="M122.004 22.2546C121.402 22.2546 121 21.8531 121 21.2507C121 20.6484 121.402 20.2469 122.004 20.2469L145.695 19.6445C146.298 19.6445 146.699 20.0461 146.699 20.6484C146.699 21.2507 146.298 21.6523 145.695 21.6523L122.004 22.2546Z" fill="white"/>
<path d="M134.251 33.9C133.648 33.9 133.247 33.4985 133.247 32.8961L132.645 9.00388C132.645 8.40155 133.046 8 133.648 8C134.251 8 134.652 8.40155 134.652 9.00388L135.255 32.8961C135.255 33.2977 134.853 33.9 134.251 33.9Z" fill="white"/>
</g>
<defs>
<clipPath id="clip0_589_1337">
<rect width="230" height="273" rx="20" fill="white"/>
</clipPath>
</defs>
</svg>
