<svg width="40" height="48" viewBox="0 0 40 48" fill="none" xmlns="http://www.w3.org/2000/svg">
<rect x="0.5" y="6.91808" width="39" height="38.9712" rx="19.4856" fill="#1E488D"/>
<path d="M35.1717 31.2403L33.7518 45.7703L32.7352 45.7283L33.2393 30.4515L35.1717 31.2403Z" fill="white"/>
<path d="M33.7519 45.8626C33.7477 45.8626 33.7477 45.8626 33.7519 45.8626L32.7352 45.8207C32.6848 45.8165 32.6428 45.7745 32.647 45.7242L33.1511 30.4473C33.1511 30.418 33.1679 30.3886 33.1931 30.3718C33.2183 30.355 33.2519 30.3508 33.2814 30.3634L35.2138 31.1522C35.2516 31.169 35.2768 31.2068 35.2726 31.2487L33.8527 45.7787C33.8401 45.8249 33.7981 45.8626 33.7519 45.8626ZM32.8319 45.6361L33.6636 45.6696L35.0709 31.2949L33.3276 30.5858L32.8319 45.6361Z" fill="black"/>
<path d="M16.1123 30.7162L17.4986 45.8042L18.5488 45.7287L18.0447 29.9022L16.1123 30.7162Z" fill="white"/>
<path d="M17.4985 45.9008C17.4522 45.9008 17.4102 45.8631 17.406 45.8169L16.0197 30.7289C16.0155 30.6869 16.0407 30.6492 16.0744 30.6324L18.0068 29.8184C18.0362 29.8058 18.0698 29.81 18.095 29.8268C18.1202 29.8436 18.137 29.873 18.137 29.9023L18.6411 45.7288C18.6411 45.7792 18.6033 45.8211 18.5529 45.8253L17.5027 45.905C17.5069 45.9008 17.5027 45.9008 17.4985 45.9008ZM16.213 30.7751L17.5867 45.7036L18.4521 45.6365L17.9564 30.0366L16.213 30.7751Z" fill="black"/>
<path d="M11.2897 27.1661L11.6972 43.0093L12.5163 42.8331L13.2641 26.4109L11.2897 27.1661Z" fill="white"/>
<path d="M11.6972 43.106C11.6762 43.106 11.6552 43.0976 11.6384 43.085C11.6174 43.0683 11.6048 43.0431 11.6006 43.0137L11.1931 27.1705C11.1931 27.1327 11.2141 27.0949 11.2519 27.0824L13.2305 26.3271C13.26 26.3145 13.2936 26.3187 13.3188 26.3397C13.344 26.3565 13.3608 26.39 13.3566 26.4194L12.6046 42.8417C12.6046 42.8837 12.571 42.9214 12.529 42.9298L11.7098 43.106C11.7098 43.1018 11.7014 43.106 11.6972 43.106ZM11.3822 27.2292L11.7854 42.8962L12.424 42.7578L13.1633 26.5495L11.3822 27.2292Z" fill="black"/>
<path d="M27.2825 26.8143L27.69 42.6575L28.5385 42.6617L29.2569 26.059L27.2825 26.8143Z" fill="white"/>
<path d="M23.1698 14.4364V18.1245C23.1698 21.7287 26.018 24.6532 29.53 24.6532C33.0419 24.6532 35.8901 27.5776 35.8901 31.1818C35.8901 31.5049 35.6296 31.765 35.3104 31.765H18.4732C13.2095 31.765 8.94141 27.3846 8.94141 21.9762V14.1092C8.94141 11.9609 10.6386 10.2155 12.7348 10.2155H19.0613C21.3298 10.2155 23.1698 12.1078 23.1698 14.4364Z" fill="white"/>
<path d="M35.3103 31.8574H18.4732C13.1632 31.8574 8.84473 27.4266 8.84473 21.9763V14.1092C8.84473 11.9106 10.5881 10.1232 12.7305 10.1232H19.0613C21.3802 10.1232 23.2664 12.0575 23.2664 14.4365V18.1246C23.2664 21.6742 26.0768 24.5609 29.5341 24.5609C33.0923 24.5609 35.9867 27.5315 35.9867 31.1818C35.9825 31.5553 35.68 31.8574 35.3103 31.8574ZM12.7347 10.312C10.6973 10.312 9.03797 12.0155 9.03797 14.1092V21.9763C9.03797 27.3217 13.2725 31.6685 18.4774 31.6685H35.3103C35.5792 31.6685 35.7976 31.4504 35.7976 31.1818C35.7976 27.6322 32.9872 24.7455 29.5299 24.7455C25.9717 24.7455 23.0773 21.7749 23.0773 18.1246V14.4365C23.0773 12.1624 21.2752 10.3078 19.0613 10.3078H12.7347V10.312Z" fill="black"/>
<path d="M7.31149 7.55977C7.05524 7.45488 6.82419 7.26607 6.68136 7.01432C6.47132 6.6367 6.35789 6.03251 6.83259 5.17238C7.90802 3.22134 9.7018 4.14021 10.3907 3.91784C11.9283 3.41015 11.567 2.58358 12.1887 1.7738C12.655 1.1696 14.2724 0.0325484 16.7215 2.15142C16.7215 2.15142 17.8221 3.6535 19.0698 3.08288C20.6031 2.38218 23.6824 3.96819 22.7119 6.33041C22.4305 7.01013 21.9264 7.5346 21.3088 7.81991C21.1954 7.87026 21.0736 7.92061 20.9434 7.96676C20.5611 8.10103 20.2628 8.44089 20.1662 8.88144C19.8511 10.3206 18.6665 13.094 14.264 10.2996C13.9321 10.0898 13.5372 10.0605 13.1927 10.2199C12.7726 10.4171 12.3148 11.1765 10.2773 10.8535C8.97084 10.6479 8.55496 9.12899 8.21048 8.43669C7.93322 7.88704 7.53834 7.65208 7.31149 7.55977Z" fill="black"/>
<path d="M29.9586 18.1667C28.2278 18.708 24.9091 17.2059 24.342 14.6884C23.8925 12.6912 23.191 11.6801 22.9221 11.3444C22.7919 11.122 22.6238 10.9164 22.397 10.7192C20.7839 9.30525 17.9903 9.76259 16.7804 9.95979C15.4109 10.1864 14.2725 10.371 13.4995 11.2395C13.2937 11.4703 13.1508 11.7136 13.05 11.9696C11.5755 14.7472 12.7686 17.6129 13.5079 18.9388C13.6297 24.2464 11.8738 23.4157 12.3485 25.7695C13.0206 29.0925 18.3725 27.8506 20.3218 27.4268C21.0065 27.28 24.5857 28.3373 25.4594 25.5807C25.972 23.9695 25.0015 23.2268 24.1446 20.4912C28.5303 23.2143 31.7902 18.5695 31.7902 18.5695L32.1263 16.9416C32.1263 16.9416 31.2399 17.7681 29.9586 18.1667Z" fill="white"/>
<path d="M16.1417 28.1021C15.1041 28.1021 14.1043 27.9384 13.3608 27.4559C12.7684 27.0699 12.3988 26.5077 12.2517 25.786C12.0375 24.7287 12.2601 24.2923 12.5668 23.6923C12.9491 22.9455 13.4742 21.9175 13.407 18.9595C12.6046 17.5077 11.4914 14.6882 12.9575 11.9231C13.0667 11.6504 13.2179 11.4071 13.4238 11.1763C14.2177 10.2826 15.394 10.0896 16.7593 9.86722C17.9691 9.67001 20.8047 9.20428 22.4515 10.6476C22.6783 10.8448 22.8548 11.0546 22.9934 11.2896C23.279 11.642 23.9806 12.67 24.4301 14.6672C24.6737 15.7497 25.4929 16.7651 26.6818 17.449C27.8034 18.0951 29.0763 18.3427 29.9291 18.0742C31.1725 17.684 32.0505 16.8784 32.0589 16.87C32.0883 16.8406 32.1345 16.8364 32.1681 16.8574C32.2017 16.8784 32.2227 16.9161 32.2143 16.9581L31.8783 18.586C31.8741 18.5986 31.8699 18.6112 31.8615 18.6196C31.8531 18.6322 31.0213 19.807 29.656 20.6294C28.4293 21.3678 26.5179 21.9636 24.3041 20.6965C24.5771 21.5273 24.8586 22.1734 25.0896 22.6979C25.5685 23.7972 25.8878 24.5231 25.5433 25.6056C24.8334 27.8503 22.3927 27.6447 21.082 27.5356C20.7543 27.5063 20.4687 27.4853 20.3342 27.5147L20.2124 27.5398C19.2462 27.7538 17.6583 28.1021 16.1417 28.1021ZM13.1255 12.0238C11.7014 14.7175 12.802 17.4826 13.5876 18.8923C13.596 18.9049 13.6002 18.9217 13.6002 18.9343C13.6716 21.9594 13.1297 23.0084 12.739 23.7804C12.4366 24.3678 12.2391 24.758 12.4408 25.7524C12.5752 26.4238 12.9239 26.944 13.47 27.3007C15.2259 28.4461 18.5741 27.7119 20.1788 27.3594L20.3006 27.3342C20.4603 27.3007 20.7291 27.3217 21.103 27.3552C22.4515 27.4685 24.7032 27.6531 25.3711 25.5552C25.6946 24.5357 25.4047 23.8769 24.9258 22.7776C24.6695 22.1986 24.3545 21.4727 24.0562 20.5203C24.0436 20.4825 24.0562 20.4406 24.0898 20.4196C24.1192 20.3944 24.1612 20.3944 24.1948 20.4154C25.9802 21.5231 27.7866 21.5441 29.5594 20.4783C30.807 19.7273 31.601 18.6742 31.7018 18.5357L31.9791 17.193C31.643 17.4616 30.9205 17.9693 29.9879 18.263C29.0889 18.5441 27.7572 18.2923 26.5935 17.621C25.3627 16.9119 24.5099 15.8546 24.2537 14.7175C23.8126 12.7497 23.1236 11.7511 22.8506 11.4113C22.8464 11.4071 22.8464 11.4029 22.8422 11.3987C22.7119 11.1805 22.5481 10.9791 22.3339 10.7945C20.7543 9.40568 17.9775 9.86302 16.7929 10.056C15.4108 10.2826 14.3186 10.463 13.5666 11.3064C13.3734 11.5245 13.2305 11.7511 13.1339 12.0071C13.1339 12.0113 13.1297 12.0196 13.1255 12.0238Z" fill="black"/>
<path d="M22.3003 17.7344C22.3003 17.7344 25.4594 16.5848 26.4466 14.4827L28.4798 12.5904C28.4798 12.5904 28.4504 13.5051 27.8455 13.8869C27.8455 13.8869 28.3622 14.9275 27.5976 15.6491C27.5976 15.6491 27.0221 16.1065 26.6818 16.1149C26.6818 16.1149 25.682 19.4002 22.9766 20.3778C22.9808 20.3736 22.2205 19.2198 22.3003 17.7344Z" fill="white"/>
<path d="M22.981 20.4659C22.9516 20.4659 22.9222 20.4491 22.9012 20.4239C22.8676 20.3778 22.124 19.2281 22.208 17.726C22.208 17.6883 22.2332 17.6547 22.271 17.6421C22.3004 17.6295 25.4049 16.4799 26.3627 14.4365C26.3669 14.4239 26.3753 14.4156 26.3837 14.4072L28.4169 12.5149C28.4463 12.4897 28.4842 12.4813 28.5178 12.4981C28.5514 12.5149 28.5724 12.5484 28.5724 12.5862C28.5724 12.624 28.5388 13.4883 27.9632 13.9121C28.0683 14.1722 28.3497 15.0659 27.665 15.7079C27.6356 15.7288 27.1231 16.1358 26.7534 16.1904C26.598 16.6477 25.5225 19.547 23.0104 20.4533C23.002 20.4659 22.9936 20.4659 22.981 20.4659ZM22.3929 17.7973C22.3467 19.0141 22.8718 20.0043 23.023 20.2561C25.5981 19.2743 26.5896 16.1106 26.598 16.0771C26.6106 16.0393 26.6442 16.0099 26.6862 16.0099C26.9424 16.0058 27.3919 15.6869 27.5474 15.5652C28.2447 14.9065 27.7868 13.9582 27.77 13.9163C27.749 13.8743 27.7616 13.8198 27.8036 13.7946C28.1733 13.5596 28.3119 13.1023 28.3623 12.8212L26.5307 14.5288C25.5897 16.505 22.8424 17.6253 22.3929 17.7973Z" fill="black"/>
<path d="M19.4521 21.4184C16.8181 21.4184 15.31 20.1177 15.289 20.0967C15.2512 20.0631 15.247 20.0044 15.2806 19.9666C15.3142 19.9289 15.373 19.9247 15.4108 19.9583C15.436 19.9834 18.1246 22.2911 22.6027 20.6338C22.649 20.617 22.7036 20.6422 22.7246 20.6883C22.7414 20.7387 22.7162 20.789 22.67 20.81C21.4685 21.2547 20.3889 21.4184 19.4521 21.4184Z" fill="black"/>
<path d="M21.0695 17.8606C18.7758 17.8606 17.4399 16.5557 16.709 15.4061C15.8478 14.0551 15.621 12.6159 15.6168 12.6033C15.6084 12.553 15.642 12.5026 15.6966 12.4984C15.747 12.49 15.7974 12.5236 15.8016 12.5781C15.8058 12.5907 16.0284 13.9963 16.8686 15.3138C17.9903 17.0718 19.616 17.8564 21.7038 17.6424C21.7543 17.6383 21.8005 17.676 21.8047 17.7264C21.8089 17.7767 21.7711 17.8229 21.7206 17.8271C21.498 17.848 21.2796 17.8606 21.0695 17.8606Z" fill="black"/>
<path d="M22.8467 16.2028C22.8425 16.2028 22.8383 16.2028 22.8341 16.2028C22.7837 16.1944 22.7459 16.1482 22.7543 16.0979C23.166 13.2825 21.8763 11.6881 21.8637 11.6713C21.8301 11.6336 21.8343 11.5706 21.8763 11.5413C21.9141 11.5077 21.9729 11.5119 22.0065 11.5538C22.0612 11.621 23.3634 13.2238 22.9391 16.1272C22.9349 16.1692 22.8929 16.2028 22.8467 16.2028Z" fill="black"/>
<path d="M22.2669 8.28508C22.1787 7.69768 22.3215 6.14104 22.2921 6.1788C22.04 6.54803 21.2125 6.11167 20.4647 6.0823C19.717 6.05293 19.969 7.1732 19.969 7.1732C19.969 7.1732 19.7506 6.41377 19.2843 6.88789C19.0154 7.16481 19.3137 7.52145 19.5909 7.75222C19.5153 7.84033 18.171 9.28368 17.3477 10.1438L19.175 11.5284L20.0908 10.6767L19.906 10.3788C19.7716 10.169 19.7632 9.90046 19.8766 9.67808L20.3219 8.92284C20.4227 9.04872 20.5529 9.18718 20.6748 9.27109C20.9142 9.43892 21.2083 9.40955 21.4183 9.21235C21.7082 8.93963 21.9056 8.62914 21.998 8.33124L22.2669 8.28508Z" fill="white"/>
<path d="M19.175 11.6252C19.154 11.6252 19.1372 11.621 19.1204 11.6043L17.293 10.2197C17.272 10.2029 17.2594 10.1777 17.2552 10.1525C17.251 10.1273 17.2636 10.098 17.2804 10.0812C18.0324 9.29659 19.1708 8.07142 19.4565 7.76093C19.28 7.59729 19.0952 7.37911 19.0868 7.15254C19.0826 7.02667 19.1246 6.91758 19.2212 6.82108C19.3683 6.67003 19.5195 6.61129 19.6623 6.64485C19.7295 6.66164 19.7883 6.6994 19.8388 6.74975C19.843 6.55255 19.8808 6.32597 20.0068 6.17493C20.116 6.04486 20.2714 5.98192 20.4689 5.99031C20.7503 6.0029 21.0444 6.07003 21.3049 6.12877C21.725 6.22527 22.0904 6.30919 22.2123 6.12877C22.2375 6.09521 22.2795 6.07842 22.3215 6.09101C22.3929 6.11618 22.3929 6.11618 22.3719 6.52737C22.3467 6.9973 22.2963 7.87422 22.3551 8.27281C22.3635 8.32316 22.3299 8.36932 22.2795 8.37771L22.0652 8.41547C21.9602 8.71757 21.7586 9.01547 21.4771 9.284C21.2334 9.51477 20.889 9.54414 20.6159 9.35113C20.5319 9.29239 20.4395 9.20428 20.3303 9.0868L19.948 9.72875C19.8514 9.91756 19.864 10.1483 19.9774 10.3329L20.1622 10.6308C20.1874 10.6686 20.179 10.719 20.1454 10.7483L19.2296 11.6001C19.2212 11.6168 19.2002 11.6252 19.175 11.6252ZM17.4905 10.1357L19.1708 11.4071L19.969 10.6602L19.822 10.4294C19.6707 10.1903 19.6581 9.88819 19.7883 9.63644L20.2378 8.8812C20.2546 8.85603 20.2798 8.83924 20.3093 8.83505C20.3387 8.83085 20.3681 8.84344 20.3891 8.86862C20.5193 9.02386 20.6327 9.13715 20.7209 9.20008C20.9226 9.33854 21.1662 9.32176 21.3469 9.14973C21.6241 8.8854 21.8132 8.59589 21.9014 8.30638C21.9098 8.27281 21.9392 8.24764 21.977 8.24344L22.1576 8.21407C22.1114 7.76932 22.1576 6.96793 22.1828 6.51898C22.1871 6.46863 22.1871 6.42248 22.1913 6.38052C21.9686 6.47702 21.6325 6.4015 21.2629 6.31339C20.9982 6.25465 20.7251 6.19171 20.4605 6.17912C20.3219 6.17493 20.221 6.21269 20.1496 6.2966C19.969 6.51478 20.0236 6.98891 20.0614 7.15254C20.074 7.20289 20.0404 7.24904 19.9942 7.26163C19.9438 7.27422 19.8934 7.24485 19.8808 7.1987C19.8556 7.11478 19.7547 6.86723 19.6119 6.82947C19.5405 6.81268 19.4523 6.85464 19.3515 6.95534C19.2926 7.01408 19.2674 7.07702 19.2716 7.14835C19.28 7.2952 19.4145 7.4882 19.6497 7.68541C19.6707 7.70219 19.6791 7.72317 19.6833 7.74834C19.6833 7.77352 19.6749 7.79869 19.6623 7.81548C19.5951 7.8952 18.3348 9.25463 17.4905 10.1357Z" fill="black"/>
<path d="M20.3176 9.02013C20.2882 9.02013 20.2588 9.00753 20.242 8.98234L20.0992 8.78499C20.0698 8.74301 20.0782 8.68422 20.1202 8.65483C20.1622 8.62544 20.221 8.63383 20.2504 8.67582L20.3933 8.87317C20.4227 8.91516 20.4143 8.97394 20.3723 9.00334C20.3555 9.01593 20.3386 9.02013 20.3176 9.02013Z" fill="black"/>
<path d="M36.0459 38.2851C36.0291 38.3606 36.9029 42.355 36.9029 42.355L34.8948 42.0194L34.2899 38.6418L36.0459 38.2851Z" fill="white"/>
<path d="M36.9025 42.4513C36.8983 42.4513 36.8941 42.4513 36.8857 42.4513L34.8776 42.1156C34.8398 42.1072 34.8062 42.0779 34.802 42.0401L34.1971 38.6625C34.1887 38.6121 34.2223 38.566 34.2685 38.5534L36.0287 38.1968C36.0623 38.1884 36.0917 38.201 36.1127 38.2219C36.1295 38.2387 36.1421 38.2639 36.1379 38.2933C36.1505 38.4611 36.6546 40.7981 36.9907 42.338C36.9991 42.3674 36.9865 42.4009 36.9655 42.4219C36.9529 42.4387 36.9277 42.4513 36.9025 42.4513ZM34.9743 41.9394L36.7806 42.2415C36.1841 39.51 36.0161 38.6667 35.9699 38.3982L34.3945 38.717L34.9743 41.9394Z" fill="black"/>
<path d="M35.8358 41.0465C35.9576 40.9416 36.134 40.8409 36.3567 40.8325C36.6927 40.82 36.9994 41.0297 37.138 41.3402C37.4867 42.1123 38.4067 44.2689 38.6672 46.0311C38.7596 46.6521 38.2891 47.1598 37.5539 46.7528C36.3525 46.0857 34.6847 44.55 33.8151 42.2843C33.7143 42.0241 33.7521 41.7304 33.916 41.5039C34.0504 41.3193 34.231 41.0969 34.4453 40.9081C34.6469 40.7276 34.9536 40.7235 35.1594 40.8955L35.3485 41.0507C35.4913 41.1682 35.6971 41.164 35.8358 41.0465Z" fill="#1A2B5C"/>
<path d="M38.0536 46.9917C37.9066 46.9917 37.726 46.9497 37.5117 46.8322C36.2556 46.1315 34.6005 44.5791 33.7309 42.3134C33.6175 42.0197 33.6595 41.6966 33.8443 41.4448C34.0208 41.2057 34.2014 41.0001 34.3863 40.8365C34.6215 40.6225 34.9744 40.6183 35.2222 40.8239L35.4113 40.9791C35.5163 41.0672 35.6717 41.063 35.7767 40.9749C35.949 40.8281 36.1506 40.7483 36.3565 40.74C36.7177 40.7232 37.0706 40.9497 37.2303 41.3022C37.6041 42.133 38.5073 44.2602 38.7636 46.0182C38.8182 46.3791 38.6964 46.7064 38.4527 46.8742C38.3687 46.9287 38.2385 46.9917 38.0536 46.9917ZM34.8105 40.8616C34.7013 40.8616 34.5963 40.8994 34.5081 40.9749C34.3358 41.1302 34.1636 41.3232 33.9914 41.5539C33.8443 41.7511 33.8149 42.0113 33.9032 42.2462C34.7559 44.4658 36.3733 45.9847 37.5999 46.6686C37.8898 46.828 38.1545 46.849 38.3393 46.7189C38.5241 46.5889 38.6165 46.3329 38.5703 46.0434C38.3141 44.3106 37.4235 42.2043 37.0496 41.3777C36.9236 41.0966 36.6463 40.9162 36.3565 40.9288C36.1884 40.9372 36.033 41.0001 35.8902 41.1218C35.7137 41.2686 35.4617 41.2686 35.2852 41.126L35.0962 40.9707C35.0164 40.8952 34.9114 40.8616 34.8105 40.8616Z" fill="black"/>
<path d="M38.2133 46.2905C38.0536 46.2905 36.3607 46.1898 34.3064 42.1367C34.2812 42.0906 34.3022 42.036 34.3484 42.0108C34.3947 41.9857 34.4493 42.0066 34.4745 42.0528C36.5329 46.1185 38.2007 46.1059 38.2175 46.1059C38.2721 46.1059 38.3141 46.1437 38.3141 46.194C38.3141 46.2444 38.2763 46.2905 38.2259 46.2905C38.2217 46.2905 38.2175 46.2905 38.2133 46.2905Z" fill="black"/>
<path d="M36.9235 44.0548C36.8857 44.0548 36.8521 44.0338 36.8353 43.996C36.8143 43.9498 36.8395 43.8952 36.8899 43.8742L37.8435 43.5005C37.8897 43.4795 37.9443 43.5047 37.9653 43.5551C37.9864 43.6013 37.9611 43.6559 37.9107 43.6769L36.9571 44.0506C36.9487 44.0548 36.9361 44.0548 36.9235 44.0548Z" fill="black"/>
<path d="M36.5917 43.329C36.5539 43.329 36.5203 43.308 36.5035 43.2702C36.4867 43.224 36.5077 43.1695 36.5581 43.1485L37.6755 42.7118C37.7218 42.695 37.7764 42.716 37.7974 42.7664C37.8142 42.8126 37.7932 42.8671 37.7428 42.8881L36.6253 43.3248C36.6127 43.3248 36.6043 43.329 36.5917 43.329Z" fill="black"/>
<path d="M27.4004 38.6506C27.3541 38.7093 26.4636 42.7037 26.4636 42.7037L24.7832 41.554L25.657 38.2352L27.4004 38.6506Z" fill="white"/>
<path d="M26.4635 42.796C26.4467 42.796 26.4257 42.7918 26.4089 42.7792L24.7286 41.6295C24.695 41.6086 24.6824 41.5666 24.6908 41.5288L25.5645 38.21C25.5771 38.1596 25.6276 38.1303 25.678 38.1428L27.4255 38.5582C27.4549 38.5666 27.4801 38.5876 27.4927 38.617C27.5011 38.6421 27.5011 38.6673 27.4885 38.6925C27.4297 38.8477 26.9046 41.1806 26.5601 42.7246C26.5517 42.754 26.5307 42.7792 26.5013 42.7918C26.4845 42.796 26.4719 42.796 26.4635 42.796ZM24.8882 41.5162L26.4005 42.5484C27.0096 39.817 27.2113 38.982 27.2827 38.7177L25.72 38.3442L24.8882 41.5162Z" fill="black"/>
<path d="M26.0473 41.0672C26.2027 41.0252 26.4044 41.0085 26.6102 41.0924C26.9211 41.2224 27.1101 41.5413 27.1101 41.8812C27.1017 42.7287 27.0261 45.07 26.522 46.7776C26.3414 47.3818 25.7028 47.642 25.2113 46.9665C24.4048 45.8546 23.5352 43.7651 23.699 41.3399C23.7158 41.063 23.8755 40.8112 24.1191 40.677C24.3165 40.5679 24.577 40.442 24.8501 40.3581C25.1105 40.2784 25.3878 40.4043 25.5054 40.6476L25.6104 40.8658C25.6818 41.0294 25.8667 41.1133 26.0473 41.0672Z" fill="#1A2B5C"/>
<path d="M25.8542 47.457C25.6693 47.457 25.3963 47.3815 25.1316 47.0164C24.2872 45.8542 23.4387 43.7479 23.6025 41.3312C23.6235 41.0165 23.7999 40.7396 24.0688 40.5927C24.3292 40.45 24.5813 40.3368 24.8165 40.2654C25.119 40.1731 25.4425 40.3158 25.5811 40.6053L25.6861 40.8235C25.7449 40.9451 25.8836 41.0123 26.018 40.9745C26.2364 40.9158 26.4507 40.9242 26.6439 41.0039C26.98 41.1423 27.2027 41.4948 27.1985 41.8808C27.19 42.7955 27.1102 45.1032 26.6061 46.8025C26.5011 47.1507 26.2575 47.3983 25.9634 47.4486C25.934 47.4528 25.8962 47.457 25.8542 47.457ZM25.0014 40.4249C24.9594 40.4249 24.9132 40.4333 24.867 40.4458C24.6443 40.513 24.4049 40.6179 24.157 40.7563C23.9428 40.8738 23.8041 41.0962 23.7873 41.3437C23.6277 43.7144 24.4553 45.7745 25.2828 46.9073C25.4761 47.1759 25.7071 47.3018 25.934 47.264C26.1566 47.2262 26.3457 47.029 26.4297 46.7479C26.9254 45.0696 27.0052 42.7829 27.0136 41.8766C27.0178 41.5661 26.8414 41.285 26.5725 41.1759C26.4171 41.113 26.249 41.1046 26.0684 41.1549C25.85 41.2137 25.6147 41.1088 25.5181 40.9032L25.4131 40.685C25.3333 40.5214 25.1736 40.4249 25.0014 40.4249Z" fill="black"/>
<path d="M26.0393 46.8316C26.0267 46.8316 26.0141 46.8274 26.0015 46.8232C25.9342 46.7939 24.3589 46.0806 24.1951 41.4065C24.1951 41.3561 24.2329 41.31 24.2833 41.31C24.3337 41.31 24.3799 41.3477 24.3799 41.3981C24.5395 45.9505 26.0561 46.6428 26.0729 46.647C26.1191 46.668 26.1443 46.7225 26.1233 46.7687C26.1107 46.8106 26.0771 46.8316 26.0393 46.8316Z" fill="black"/>
<path d="M26.8291 44.323H26.8249L25.8041 44.2643C25.7537 44.2601 25.7117 44.2181 25.7159 44.1635C25.7201 44.1131 25.7621 44.0711 25.8167 44.0753L26.8375 44.1341C26.8879 44.1383 26.9299 44.1803 26.9257 44.2349C26.9215 44.2853 26.8795 44.323 26.8291 44.323Z" fill="black"/>
<path d="M27.0094 43.5343H27.0052L25.808 43.4587C25.7576 43.4545 25.7156 43.4125 25.7198 43.3579C25.724 43.3075 25.7702 43.2656 25.8206 43.2698L27.0178 43.3453C27.0683 43.3495 27.1103 43.3915 27.1061 43.4461C27.0977 43.4965 27.0557 43.5343 27.0094 43.5343Z" fill="black"/>
<path d="M17.9986 22.9081C17.9986 22.9081 30.2358 22.3795 31.5758 23.6172C33.3906 25.2997 36.5077 39.3136 36.5077 39.3136L33.4956 40.157C33.4956 40.157 28.9587 28.6563 27.8371 28.6563C26.7112 28.6563 16.1166 28.2787 16.1166 28.2787L17.9986 22.9081Z" fill="#F7931D"/>
<path d="M17.188 22.606C16.2218 22.5557 15.3564 23.2018 15.1295 24.1417C14.7767 25.5976 14.47 27.5906 15.2598 28.1193C16.5452 28.9836 25.804 28.9081 25.4805 28.8032C25.1613 28.6941 24.653 36.5528 24.653 39.5737L27.5684 39.687C27.5684 39.687 32.2146 27.536 31.7147 26.1766C30.8199 23.7473 23.922 23.1934 21.7165 22.8703C21.4183 22.8242 18.9019 22.6899 17.188 22.606Z" fill="#F7931D"/>
<path d="M30.1727 32.8644C30.1643 32.8644 30.1517 32.8644 30.1433 32.8602C30.0928 32.8434 30.0676 32.7931 30.0844 32.7427C30.1895 32.4154 30.2945 32.0924 30.3953 31.7777C31.2103 29.2602 31.916 27.0868 31.6262 26.2057C31.0086 24.3386 26.3751 23.6253 24.8543 23.3861C24.8039 23.3777 24.7703 23.3316 24.7745 23.2812C24.7829 23.2309 24.8291 23.1931 24.8795 23.2015C27.5681 23.6169 31.2145 24.3763 31.8026 26.1469C32.1135 27.0826 31.4329 29.1805 30.5759 31.8364C30.4751 32.1511 30.3701 32.4742 30.2651 32.7972C30.2525 32.8392 30.2147 32.8644 30.1727 32.8644Z" fill="#E07900"/>
</svg>
