<svg width="39" height="48" viewBox="0 0 39 48" fill="none" xmlns="http://www.w3.org/2000/svg">
<rect y="8.91663" width="39" height="38.9712" rx="19.4856" fill="#FDC799"/>
<g clip-path="url(#clip0_1_12215)">
<path d="M20.4479 42.1792L19.8189 46.3256L18.2937 45.5508L18.7331 41.4088L20.4479 42.1792Z" fill="white"/>
<path d="M19.8189 46.4207C19.8318 46.4207 19.849 46.4164 19.8619 46.4121C19.8878 46.3991 19.9093 46.3731 19.9136 46.3428L20.5427 42.1964C20.547 42.1531 20.5254 42.1142 20.4867 42.0969L18.7676 41.3264C18.7418 41.3135 18.7073 41.3178 18.6814 41.3308C18.6556 41.3481 18.6384 41.3741 18.6341 41.4044L18.1989 45.5421C18.1946 45.5811 18.2161 45.62 18.2506 45.6373L19.7758 46.4164C19.7887 46.4207 19.8059 46.4207 19.8189 46.4207ZM20.3445 42.2397L19.7456 46.1827L18.3971 45.4945L18.8107 41.5515L20.3445 42.2397Z" fill="black"/>
<path d="M20.211 44.7588C20.3833 45.157 20.5513 45.9144 20.7194 46.9012C20.7969 47.3687 20.435 47.7928 19.9568 47.7928H14.3516C13.9638 47.7928 13.7829 47.3211 14.0715 47.0657C15.1874 46.0746 16.8978 44.9752 18.3713 44.3303L18.9357 45.1267C18.9314 45.1267 20.1636 44.6462 20.211 44.7588Z" fill="white"/>
<path d="M14.3472 47.888H19.9567C20.2152 47.888 20.4608 47.7755 20.6245 47.5764C20.7883 47.3816 20.8572 47.1306 20.8141 46.8838C20.6288 45.7845 20.4651 45.0963 20.3014 44.7197C20.2669 44.6375 20.2195 44.5293 18.9658 45.0141L18.4445 44.2783C18.4186 44.2393 18.3712 44.2263 18.3282 44.248C16.8805 44.8799 15.14 45.9879 14.0025 46.9964C13.8388 47.1392 13.7871 47.3556 13.8647 47.559C13.9422 47.7581 14.1318 47.888 14.3472 47.888ZM20.142 44.8366C20.2928 45.2045 20.4479 45.8667 20.6245 46.9141C20.659 47.1046 20.603 47.3037 20.4781 47.4508C20.3488 47.6067 20.1592 47.6932 19.9567 47.6932H14.3515C14.1835 47.6932 14.0844 47.585 14.0456 47.4855C14.0069 47.3859 14.0112 47.2431 14.1318 47.1349C15.2391 46.1524 16.9193 45.079 18.3368 44.4471L18.8538 45.1829C18.8796 45.2175 18.9227 45.2305 18.9658 45.2175C19.4311 45.0357 19.9869 44.8496 20.142 44.8366Z" fill="black"/>
<path d="M14.4549 47.4034H20.3574C20.4091 47.4034 20.4521 47.3601 20.4521 47.3081C20.4521 47.2561 20.4091 47.2128 20.3574 47.2128H14.4506C14.3989 47.2128 14.3558 47.2561 14.3558 47.3081C14.3601 47.3601 14.3989 47.4034 14.4549 47.4034Z" fill="black"/>
<path d="M17.6733 46.2138C17.6906 46.2138 17.7078 46.2095 17.7207 46.2008C17.7638 46.1748 17.781 46.1142 17.7552 46.0709L17.1779 45.092C17.152 45.0444 17.0917 45.0314 17.0486 45.0573C17.0055 45.0833 16.9883 45.144 17.0141 45.1873L17.5915 46.1662C17.6087 46.1965 17.6432 46.2138 17.6733 46.2138Z" fill="black"/>
<path d="M16.8289 46.3564C16.8461 46.3564 16.8591 46.3521 16.8763 46.3435C16.9237 46.3175 16.9366 46.2612 16.9151 46.2135L16.5402 45.5421C16.5144 45.4945 16.4584 45.4815 16.411 45.5032C16.3636 45.5292 16.3507 45.5855 16.3722 45.6331L16.747 46.3045C16.7643 46.3391 16.7987 46.3564 16.8289 46.3564Z" fill="black"/>
<path d="M16.6738 15.4698C16.6738 15.4698 12.4258 21.9318 10.9782 26.0349C10.7024 26.814 10.9135 27.684 11.521 28.2466C13.2056 29.8178 16.816 33.1332 19.1296 34.9856L19.8233 33.2197C19.8233 33.2197 18.9875 29.1339 15.8509 27.2944L19.7371 21.473L20.5945 16.937L16.6738 15.4698Z" fill="#F7931D"/>
<path d="M24.0411 17.2184C24.0411 17.2184 22.7831 26.8789 22.5892 29.346C22.3953 31.8131 22.572 34.5571 22.6711 36.5741C22.7659 38.5867 20.491 43.2741 20.491 43.2741L18.2981 42.8846L17.8931 20.1919L17.3028 15.9935L24.0411 17.2184Z" fill="#F7931D"/>
<path d="M18.1473 34.6653C18.199 34.6653 18.2421 34.6221 18.2421 34.5701L18.2291 31.0773C18.2291 31.0253 18.1861 30.9821 18.1344 30.9821C18.0827 30.9821 18.0396 31.0253 18.0396 31.0773L18.0525 34.5701C18.0525 34.6221 18.0956 34.6653 18.1473 34.6653Z" fill="white"/>
<path d="M17.9189 23.8665C17.9706 23.8665 18.0137 23.8232 18.0137 23.7713V21.9664C18.0137 21.9361 17.9964 21.9058 17.9706 21.8885L16.915 21.183C16.8719 21.1527 16.8116 21.1657 16.7815 21.209C16.7513 21.2523 16.7642 21.3129 16.8073 21.3432L17.8241 22.0227V23.7756C17.8241 23.8232 17.8672 23.8665 17.9189 23.8665Z" fill="white"/>
<path d="M23.1709 22.4036C23.1967 22.4036 23.2269 22.3906 23.2441 22.3689C23.2786 22.33 23.2743 22.2694 23.2312 22.2348C23.2183 22.2261 22.0765 21.2263 21.6931 18.7809C21.6845 18.7289 21.6371 18.6943 21.5854 18.703C21.5337 18.7116 21.4992 18.7592 21.5078 18.8112C21.9042 21.3345 23.0632 22.3386 23.1149 22.3776C23.1278 22.3992 23.1493 22.4036 23.1709 22.4036Z" fill="white"/>
<path d="M12.697 9.1507C12.697 9.1507 12.2963 8.80877 11.9775 8.63565C11.6587 8.46252 10.6764 6.9866 10.6764 6.9866C10.6764 6.9866 10.7065 9.31517 11.7233 9.67008L12.697 9.1507Z" fill="white"/>
<path d="M11.719 9.76523C11.7363 9.76523 11.7492 9.7609 11.7621 9.75225L12.7358 9.23286C12.7617 9.21988 12.7832 9.18958 12.7875 9.15928C12.7918 9.12899 12.7789 9.09869 12.753 9.07705C12.7358 9.06406 12.3437 8.72647 12.0206 8.55334C11.8009 8.43648 11.1417 7.5189 10.754 6.93459C10.7324 6.89997 10.685 6.88265 10.6462 6.89564C10.6075 6.90862 10.5773 6.94758 10.5816 6.98653C10.5816 7.08608 10.6247 9.38435 11.6889 9.75658C11.7018 9.7609 11.7104 9.76523 11.719 9.76523ZM12.5247 9.13332L11.7147 9.56613C11.0297 9.28047 10.8401 7.95605 10.7884 7.32413C11.0986 7.77426 11.6803 8.58363 11.9301 8.72214C12.1413 8.83034 12.3868 9.02078 12.5247 9.13332Z" fill="black"/>
<path d="M13.688 9.44069H12.5333L10.349 6.26379H11.4735L13.688 9.44069Z" fill="black"/>
<path d="M12.5333 9.53583H13.688C13.7225 9.53583 13.7569 9.51419 13.7742 9.48389C13.7914 9.45359 13.7871 9.41464 13.7655 9.38434L11.551 6.21177C11.5338 6.18581 11.5036 6.17282 11.4735 6.17282H10.349C10.3145 6.17282 10.2801 6.19446 10.2628 6.22476C10.2456 6.25506 10.2499 6.29401 10.2671 6.32431L12.4558 9.49255C12.473 9.51852 12.5032 9.53583 12.5333 9.53583ZM13.5027 9.34539H12.5807L10.5256 6.36326H11.4218L13.5027 9.34539Z" fill="black"/>
<path d="M13.4338 9.44069H12.2792L10.0948 6.26379H11.2193L13.4338 9.44069Z" fill="white"/>
<path d="M12.2792 9.53583H13.4338C13.4683 9.53583 13.5028 9.51419 13.52 9.48389C13.5372 9.45359 13.5329 9.41464 13.5114 9.38434L11.2969 6.21177C11.2796 6.18581 11.2495 6.17282 11.2193 6.17282H10.0948C10.0604 6.17282 10.0259 6.19446 10.0087 6.22476C9.99143 6.25506 9.99574 6.29401 10.013 6.32431L12.2016 9.49255C12.2189 9.51852 12.249 9.53583 12.2792 9.53583ZM13.2529 9.34539H12.3309L10.2758 6.36326H11.1719L13.2529 9.34539Z" fill="black"/>
<path d="M12.6971 9.1506C12.6971 9.1506 14.1318 11.4532 15.4717 11.2152C16.4195 11.0464 16.9107 10.0162 17.7207 8.86494C18.535 7.71364 19.5173 7.10337 19.5173 7.10337C19.5173 7.10337 21.2751 6.50608 23.4293 6.59697C25.5404 6.68786 27.4016 8.02094 28.1384 10.0119C28.7114 11.5614 29.1293 13.8207 28.7631 16.9414C28.0608 22.8883 23.1105 22.1135 23.1105 22.1135L22.3091 20.8454C22.3091 20.8454 24.5236 20.6982 25.0406 17.6339C25.2302 16.5129 24.8037 14.8465 24.8037 14.8465L24.4504 17.4045C24.403 17.7637 24.1143 18.0407 23.7524 18.0753C23.3474 18.1143 22.7356 18.11 21.8826 17.9498C20.1291 17.6209 18.3971 16.5129 17.2812 16.383C16.5316 16.2965 16.3506 15.842 16.3894 15.2404C15.9542 15.3399 15.5234 15.3616 15.127 15.262C12.3309 14.5608 11.8225 9.73924 11.8225 9.73924L12.6971 9.1506Z" fill="white"/>
<path d="M23.6792 22.2436C24.3901 22.2436 25.6309 22.1008 26.7424 21.2525C27.9186 20.3566 28.6295 18.9109 28.8622 16.9503C29.1724 14.2927 28.9613 11.9469 28.2288 9.97754C27.4792 7.9606 25.5964 6.59289 23.4336 6.502C21.288 6.4111 19.5087 7.00407 19.4871 7.01272C19.4785 7.01705 19.4742 7.01705 19.4699 7.02138C19.4311 7.04735 18.4617 7.6533 17.6474 8.80892C17.4923 9.02533 17.3502 9.24174 17.2166 9.44517C16.6436 10.3065 16.1869 10.9903 15.4588 11.1202C15.3985 11.1332 15.3338 11.1375 15.2735 11.1375C14.0629 11.1375 12.7919 9.12488 12.779 9.10324C12.766 9.0816 12.7445 9.06429 12.7186 9.05996C12.6928 9.05563 12.6669 9.05996 12.6454 9.07294L11.7794 9.66158C11.7492 9.68322 11.7363 9.71352 11.7363 9.75247C11.7579 9.95157 12.2835 14.6477 15.1141 15.3575C15.4631 15.444 15.8595 15.4484 16.2989 15.3618C16.2903 16.0413 16.6134 16.4092 17.2769 16.4828C17.7939 16.5434 18.4488 16.8161 19.2028 17.1364C20.017 17.4826 20.9434 17.8722 21.8697 18.0453C22.5892 18.1795 23.2268 18.2228 23.7653 18.1708C24.1703 18.1319 24.4935 17.8246 24.5495 17.4177L24.8295 15.3921C24.9372 15.9678 25.0708 16.9113 24.9545 17.6168C24.4547 20.573 22.3307 20.7461 22.3091 20.7504C22.2746 20.7547 22.2445 20.7721 22.2316 20.8024C22.2143 20.8327 22.2186 20.8673 22.2359 20.8976L23.0372 22.1657C23.0502 22.1874 23.076 22.2047 23.1019 22.209C23.1277 22.2133 23.3431 22.2436 23.6792 22.2436ZM22.9726 6.68378C23.1191 6.68378 23.2699 6.68811 23.425 6.69244C25.5102 6.78333 27.3284 8.0991 28.0522 10.0468C28.7717 11.9901 28.9828 14.3057 28.6726 16.9286C28.4486 18.8374 27.7592 20.2397 26.6304 21.101C25.1871 22.2047 23.4638 22.0575 23.1751 22.0229L22.4728 20.9149C22.9941 20.811 24.696 20.2786 25.1397 17.6471C25.3293 16.5218 24.92 14.89 24.9028 14.8208C24.8898 14.7775 24.8511 14.7472 24.8037 14.7472C24.7563 14.7515 24.7218 14.7862 24.7132 14.8294L24.3599 17.3874C24.3168 17.7034 24.0626 17.9457 23.7481 17.976C23.3905 18.0107 22.7787 18.015 21.9041 17.8505C20.9994 17.6817 20.0817 17.2922 19.276 16.9546C18.5048 16.63 17.8413 16.3486 17.2941 16.288C16.6867 16.2188 16.4454 15.9072 16.4885 15.245C16.4885 15.2147 16.4799 15.1844 16.454 15.167C16.4325 15.1454 16.4023 15.1411 16.3721 15.1454C15.9155 15.2493 15.5062 15.2536 15.1529 15.167C12.6152 14.5308 11.9948 10.3238 11.9259 9.78277L12.6626 9.2807C12.9427 9.70486 14.2266 11.527 15.4803 11.302C16.2903 11.1548 16.7599 10.445 17.3631 9.54472C17.5009 9.34129 17.6388 9.12921 17.7939 8.9128C18.5436 7.84806 19.4526 7.24645 19.556 7.18585C19.6939 7.14257 21.1545 6.68378 22.9726 6.68378Z" fill="black"/>
<path d="M24.627 14.6301C24.6356 14.6301 24.6442 14.6301 24.6571 14.6258C24.7088 14.6085 24.7347 14.5565 24.7175 14.5046L23.8385 11.7172C23.8213 11.6653 23.7696 11.6393 23.7179 11.6566C23.6662 11.674 23.6404 11.7259 23.6576 11.7778L24.5365 14.5652C24.5494 14.6041 24.5882 14.6301 24.627 14.6301Z" fill="black"/>
<path d="M16.4281 14.6561C16.4755 14.6561 16.5186 14.6171 16.5229 14.5695C16.6651 13.0849 18.2075 9.65702 18.2204 9.62239C18.2419 9.57478 18.2204 9.51851 18.173 9.49687C18.1256 9.47523 18.0696 9.49687 18.0481 9.54448C17.9834 9.68731 16.4798 13.0373 16.3333 14.5522C16.329 14.6041 16.3678 14.6518 16.4195 14.6561C16.4238 14.6561 16.4281 14.6561 16.4281 14.6561Z" fill="black"/>
<path d="M21.999 3.73611L23.9679 6.6966C23.9679 6.6966 22.3178 7.41075 21.3096 7.56224C20.3015 7.71373 21.5337 6.64466 21.5337 6.64466L20.7366 4.82249L21.999 3.73611Z" fill="white"/>
<path d="M21.1372 7.67469C21.2019 7.67469 21.2665 7.66603 21.3268 7.65738C22.335 7.50589 23.9377 6.81338 24.0066 6.78741C24.0325 6.77443 24.054 6.75279 24.0583 6.72682C24.0669 6.70085 24.0626 6.67055 24.0454 6.64458L22.0765 3.68409C22.0592 3.66245 22.0377 3.64514 22.0118 3.64081C21.986 3.63648 21.9558 3.64514 21.9386 3.66245L20.6762 4.74883C20.6461 4.7748 20.6331 4.82241 20.6504 4.86136L21.4173 6.61861C21.1674 6.84368 20.7236 7.28948 20.8356 7.53619C20.8873 7.64439 21.0123 7.67469 21.1372 7.67469ZM23.8257 6.65324C23.4465 6.80905 22.1368 7.34142 21.2966 7.46694C21.0467 7.50589 21.0123 7.45395 21.0123 7.45395C20.9735 7.36739 21.2536 7.01681 21.5982 6.71383C21.6284 6.68786 21.6413 6.64025 21.6241 6.6013L20.8572 4.84405L21.9774 3.87886L23.8257 6.65324Z" fill="black"/>
<path d="M18.186 2.32504C18.7332 1.84028 19.4182 2.29907 20.0558 1.70611C20.3488 1.43343 20.3661 1.18672 20.7237 1.02658C20.9606 0.922704 21.3871 0.840468 21.6801 1.04822C22.0506 1.31224 21.8007 1.75372 22.1325 2.71458C22.3651 3.38978 22.6624 3.67544 22.5073 3.92214C22.3522 4.16885 21.9688 4.00871 21.7835 4.26407C21.5422 4.59734 22.0248 5.09076 21.8955 5.55387C21.8137 5.84819 21.4216 6.2637 20.435 6.48011C20.2756 6.51473 20.1119 6.4325 20.0515 6.28101C19.9697 6.08624 19.8706 5.83954 19.793 5.59716C19.4268 4.4372 19.5862 3.98274 19.289 3.84424C18.8323 3.62783 18.3196 4.36362 17.9835 4.16019C17.6259 3.95244 17.6259 2.82711 18.186 2.32504Z" fill="black"/>
<path d="M20.5513 2.8142L20.3488 2.89644C20.3488 2.89644 20.9304 4.22952 21.0209 4.63205C21.1157 5.0389 19.8878 5.42411 19.8878 5.42411L19.6896 5.2856L19.5388 5.32889C19.4914 5.34187 19.444 5.33321 19.4009 5.30724C19.3622 5.28128 19.3363 5.23366 19.332 5.18605C19.3062 4.81383 19.2243 4.00013 18.9615 3.41149C18.9658 3.41149 19.5259 2.6757 20.5513 2.8142Z" fill="white"/>
<path d="M20.4565 2.82711C20.422 2.82711 20.3876 2.81412 20.366 2.80546C20.3445 2.79681 20.3315 2.79681 20.31 2.80546C20.2583 2.82711 20.2368 2.88337 20.254 2.93098V2.93531C20.3617 3.19067 20.4694 3.44604 20.5728 3.7014C20.6762 3.95677 20.7796 4.21646 20.8658 4.47182C20.8873 4.53674 20.9089 4.60167 20.9175 4.65793C20.9261 4.68823 20.9132 4.72718 20.8787 4.77479C20.8141 4.86136 20.7021 4.94359 20.5901 5.00852C20.3617 5.14269 20.1032 5.24657 19.8533 5.33313L19.9352 5.34612C19.8662 5.30283 19.8016 5.25522 19.7327 5.21194L19.7241 5.20761C19.7025 5.19463 19.6767 5.1903 19.6551 5.19896C19.612 5.21627 19.569 5.23358 19.5259 5.2509L19.5 5.25955C19.4957 5.26388 19.4871 5.26388 19.4828 5.26388C19.4699 5.26388 19.4569 5.26388 19.444 5.25522C19.4182 5.24224 19.4009 5.21627 19.3966 5.1903L19.388 5.05613C19.3708 4.86569 19.3535 4.67957 19.3277 4.48913C19.276 4.11258 19.1984 3.73603 19.0476 3.37246L19.0347 3.46768C19.1166 3.36813 19.2286 3.27291 19.3406 3.19067C19.4569 3.11277 19.5776 3.04352 19.7111 2.99591C19.8404 2.9483 19.9783 2.91367 20.1161 2.90069C20.1851 2.89203 20.254 2.8877 20.3229 2.89203C20.3574 2.89203 20.3919 2.89636 20.4263 2.89636H20.4393C20.4393 2.89636 20.435 2.89203 20.4306 2.88337C20.4306 2.87039 20.4393 2.84009 20.4565 2.82711ZM20.6461 2.80114C20.6245 2.78382 20.5987 2.7492 20.5556 2.73189C20.534 2.72323 20.5125 2.71457 20.491 2.71024C20.4823 2.71024 20.4694 2.70592 20.4651 2.70592H20.4522C20.4134 2.70159 20.3746 2.70159 20.3359 2.70159C20.2583 2.69726 20.1808 2.70159 20.1032 2.71024C19.9481 2.72756 19.7973 2.76218 19.6508 2.81845C19.5043 2.87472 19.3665 2.9483 19.2415 3.03486C19.1123 3.12575 19.0003 3.2253 18.8925 3.35515C18.871 3.38112 18.8667 3.42007 18.8796 3.45037C18.9529 3.61484 19.0132 3.79229 19.0606 3.96975C19.1123 4.14721 19.1511 4.32899 19.1812 4.5151C19.2157 4.69689 19.2372 4.883 19.2545 5.06911L19.2588 5.13836C19.2631 5.16433 19.2588 5.17732 19.2674 5.21627C19.2803 5.28119 19.3234 5.34179 19.3794 5.37209C19.4096 5.3894 19.4397 5.39805 19.4742 5.40238C19.4914 5.40238 19.5086 5.40671 19.5259 5.40238C19.5431 5.40238 19.5603 5.39805 19.569 5.39373C19.6164 5.38507 19.6637 5.38074 19.7068 5.36776L19.6293 5.35477C19.6939 5.40238 19.7628 5.44999 19.8275 5.49327C19.8533 5.51059 19.8835 5.51492 19.9093 5.50626C20.1808 5.4197 20.4393 5.31582 20.6891 5.17299C20.8141 5.09941 20.939 5.0215 21.0424 4.88733C21.0683 4.8527 21.0898 4.81375 21.1071 4.76614C21.12 4.71853 21.1286 4.66659 21.1157 4.61465C21.0984 4.53242 21.0769 4.47182 21.0554 4.40257C20.9649 4.13422 20.8615 3.87453 20.7581 3.61917C20.6547 3.35947 20.5427 3.10411 20.4306 2.85307L20.3789 2.98292C20.4263 2.96561 20.4823 2.93531 20.5254 2.90069C20.5771 2.86606 20.6116 2.83143 20.6461 2.80114Z" fill="black"/>
<path d="M21.0037 3.75393C21.0037 3.75393 20.8658 2.96562 21.2364 2.97861C21.6069 2.99161 21.7361 3.86222 21.0037 3.75393Z" fill="white"/>
</g>
<defs>
<clipPath id="clip0_1_12215">
<rect width="19" height="46.9653" fill="white" transform="matrix(-1 0 0 1 29 0.922729)"/>
</clipPath>
</defs>
</svg>
