<svg width="39" height="47" viewBox="0 0 39 47" fill="none" xmlns="http://www.w3.org/2000/svg">
<rect y="7.4346" width="39" height="38.9712" rx="19.4856" fill="#F7931D"/>
<path d="M16.7937 13.3986C16.7438 13.5315 16.6732 13.6519 16.5776 13.764C16.3284 14.0421 15.9544 14.1584 15.5971 14.2663C15.3021 14.3535 15.003 14.4448 14.6955 14.4448C14.0847 14.449 13.5197 14.1169 12.9089 14.0878C12.4976 14.067 12.0946 14.1874 11.6874 14.258C10.9188 14.3867 10.3038 14.0795 9.73463 13.5771C8.72501 12.6887 8.77902 10.1893 9.75541 8.60332C10.79 6.93015 12.3979 7.01734 12.6222 5.58083C12.751 4.75463 12.2068 4.41003 12.481 3.52986C12.6264 3.06901 13.0419 2.67459 13.8728 1.88161C15.0154 0.793845 15.4891 0.631927 15.6553 0.577954C15.9378 0.490767 16.5029 0.320544 17.1053 0.56965C17.2881 0.644382 17.7327 0.82706 17.8906 1.2713C18.0609 1.7363 17.8116 2.20129 17.6787 2.45455C17.3754 3.01919 16.9931 3.17281 16.7771 3.43437C15.809 4.62177 17.633 6.30324 17.2009 8.98528C17.1095 9.56237 16.8768 10.0813 16.7272 10.6418C16.5319 11.3684 16.8352 11.5552 16.8851 12.207C16.9142 12.6015 16.9308 13.0332 16.7937 13.3986Z" fill="black"/>
<path d="M22.2325 39.0656L21.7797 40.0537C21.8004 40.1367 21.8461 40.2198 21.9375 40.3235C22.4195 40.8716 23.72 40.4356 24.0316 40.3319C25.1742 39.9499 25.3196 39.4766 26.35 39.1112C27.0563 38.8621 27.692 38.8372 28.1033 38.8538C28.0535 38.7542 27.9704 38.5964 27.8125 38.4553C27.5923 38.256 27.2142 38.0567 26.5951 38.0525C25.357 38.0484 22.2325 39.0656 22.2325 39.0656Z" fill="white"/>
<path d="M22.7144 40.6841C22.2574 40.6841 22.0039 40.5429 21.8668 40.3851C21.7713 40.273 21.7131 40.1776 21.6882 40.0779C21.684 40.0572 21.684 40.0364 21.6923 40.0198L22.1452 39.0317C22.1577 39.0068 22.1743 38.9901 22.1992 38.9818C22.328 38.9403 25.3444 37.9605 26.5826 37.9605C26.5867 37.9605 26.5867 37.9605 26.5909 37.9605C27.2598 37.9605 27.6545 38.193 27.8664 38.384C28.0326 38.5335 28.124 38.6995 28.178 38.8116C28.1905 38.8407 28.1905 38.8739 28.1739 38.903C28.1572 38.9279 28.1282 38.9486 28.0949 38.9445C27.4925 38.9237 26.9149 39.0068 26.3748 39.1977C25.8928 39.368 25.6103 39.5589 25.3153 39.7624C24.9954 39.9824 24.663 40.2108 24.0564 40.4142C23.483 40.6093 23.0468 40.6841 22.7144 40.6841ZM21.8751 40.0613C21.8959 40.1236 21.9374 40.1859 22.0039 40.2647C22.1701 40.4516 22.6479 40.7007 23.9982 40.244C24.5799 40.0488 24.8998 39.8288 25.2115 39.6129C25.5023 39.4095 25.8056 39.2019 26.3125 39.0234C26.8152 38.8448 27.3554 38.7576 27.9121 38.7576C27.9204 38.7576 27.9287 38.7576 27.9412 38.7576C27.8955 38.6829 27.8332 38.5999 27.7459 38.521C27.4717 38.276 27.0728 38.1432 26.5909 38.1432H26.5867C25.4483 38.1432 22.6562 39.0275 22.2989 39.1438L21.8751 40.0613Z" fill="black"/>
<path d="M26.1424 43.674C26.1424 43.674 28.2406 44.4795 28.2406 43.1052C28.2406 43.0596 26.5163 37.5004 26.5163 37.5004L24.0442 38.8372L26.1424 43.674Z" fill="white"/>
<path d="M27.314 43.9972C26.7448 43.9972 26.1465 43.7689 26.1091 43.7565C26.0842 43.7481 26.0675 43.7315 26.0592 43.7066L23.961 38.8657C23.9403 38.8242 23.961 38.7702 24.0026 38.7494L26.4747 37.4126C26.4996 37.4001 26.5287 37.3959 26.5536 37.4084C26.5786 37.4167 26.5994 37.4416 26.6077 37.4665C28.3361 43.0423 28.3361 43.0839 28.3361 43.1005C28.3361 43.4285 28.2239 43.6693 28.0078 43.8229C27.8126 43.9557 27.5674 43.9972 27.314 43.9972ZM26.2088 43.5987C26.4124 43.6693 27.4179 44.0014 27.8957 43.6734C28.0619 43.5572 28.145 43.3745 28.145 43.1129C28.0909 42.9053 27.0398 39.5133 26.4581 37.6284L24.1605 38.874L26.2088 43.5987Z" fill="black"/>
<path d="M25.8849 45.1101H31.0867C31.228 45.1101 31.336 44.9855 31.3152 44.8485L31.2778 44.5537C31.1781 44.2922 30.9912 44.0721 30.7419 43.9434L27.9207 42.4322C27.9207 42.4322 27.0108 42.6232 27.0898 43.5781C27.0898 43.5781 26.479 42.9885 25.914 43.4037C25.914 43.4037 25.6937 44.1344 25.7104 44.9482C25.7104 45.0353 25.7893 45.1101 25.8849 45.1101Z" fill="white"/>
<path d="M31.0823 45.2011H25.8846C25.7434 45.2011 25.6229 45.0848 25.6187 44.9437C25.6021 44.1299 25.814 43.4034 25.8265 43.3743C25.8306 43.3536 25.8431 43.3369 25.8597 43.3286C26.2669 43.0339 26.7198 43.1958 26.9981 43.3868C27.048 42.5357 27.8956 42.3447 27.9039 42.3447C27.9247 42.3405 27.9454 42.3447 27.9662 42.353L30.7873 43.8642C31.0533 44.0054 31.261 44.242 31.3649 44.5244C31.369 44.5327 31.369 44.5368 31.369 44.5451L31.4064 44.8399C31.4189 44.9312 31.3898 45.0267 31.3275 45.0931C31.2651 45.1637 31.1779 45.2011 31.0823 45.2011ZM25.9885 43.4573C25.947 43.6027 25.7849 44.2462 25.7974 44.9437C25.7974 44.9894 25.8348 45.0226 25.8805 45.0226H31.0823C31.1239 45.0226 31.1613 45.006 31.1904 44.9727C31.2194 44.9437 31.2278 44.9022 31.2236 44.8606L31.1862 44.5742C31.0948 44.3375 30.9203 44.1424 30.6959 44.022L27.908 42.5274C27.7543 42.5689 27.1145 42.7931 27.1809 43.5694C27.1851 43.6068 27.1643 43.6442 27.1311 43.6608C27.0978 43.6774 27.0563 43.6691 27.0272 43.6442C27.0023 43.6193 26.4788 43.1294 25.9885 43.4573Z" fill="black"/>
<path d="M29.6282 44.1393C29.6241 44.1393 29.6199 44.1393 29.6157 44.1393C28.2446 43.9232 27.4345 43.2044 27.3971 43.1753C27.3597 43.1421 27.3555 43.0839 27.3887 43.0465C27.422 43.0091 27.4802 43.005 27.5175 43.0382C27.5259 43.0465 28.3277 43.7529 29.6407 43.9564C29.6905 43.9648 29.7238 44.0105 29.7155 44.0603C29.7113 44.106 29.6739 44.1393 29.6282 44.1393Z" fill="black"/>
<path d="M31.124 44.8652H25.893C25.8432 44.8652 25.8016 44.8237 25.8016 44.7738C25.8016 44.724 25.8432 44.6824 25.893 44.6824H31.124C31.1738 44.6824 31.2154 44.724 31.2154 44.7738C31.2154 44.8279 31.1738 44.8652 31.124 44.8652Z" fill="black"/>
<path d="M15.0488 40.5307C14.5876 40.4311 13.7068 40.236 13.5115 39.6339C13.3619 39.1773 13.6777 38.704 13.7525 38.596C14.6416 37.2633 17.5833 36.8855 19.2493 38.1891C20.1302 38.8783 20.7243 40.0906 20.4127 40.4768C20.2257 40.7134 19.8269 40.4851 18.8505 40.402C17.0348 40.2443 16.5695 40.867 15.0488 40.5307Z" fill="white"/>
<path d="M15.9213 40.7256C15.6596 40.7256 15.3687 40.6965 15.028 40.6218C14.5419 40.5138 13.6362 40.3145 13.4243 39.6627C13.3204 39.3389 13.4035 38.9528 13.6736 38.5459C14.0724 37.948 14.8701 37.5162 15.8673 37.3543C17.147 37.1509 18.4308 37.4332 19.3034 38.1182C19.9598 38.6331 20.5083 39.4759 20.5789 40.0779C20.5997 40.2772 20.5706 40.4308 20.4833 40.5387C20.3296 40.7297 20.0886 40.6882 19.6856 40.6176C19.4654 40.5802 19.1912 40.5304 18.8422 40.4972C17.9987 40.4225 17.4378 40.5221 16.9434 40.6093C16.6193 40.6674 16.2953 40.7256 15.9213 40.7256ZM15.0696 40.4432C15.8548 40.6176 16.3451 40.5304 16.9143 40.4308C17.4171 40.3394 17.9904 40.2398 18.8588 40.3145C19.2161 40.3477 19.4945 40.3976 19.7188 40.4349C20.1011 40.5014 20.259 40.5263 20.3379 40.4225C20.3919 40.3561 20.4127 40.244 20.3961 40.0986C20.3421 39.617 19.8726 38.7991 19.1912 38.2636C18.3561 37.6117 17.1262 37.3377 15.8964 37.537C14.9491 37.6906 14.1971 38.0933 13.8273 38.6497C13.5905 39.0067 13.5115 39.3389 13.5988 39.6087C13.7816 40.1568 14.6209 40.3436 15.0696 40.4432Z" fill="black"/>
<path d="M15.3066 38.0481C15.2318 38.0938 16.1832 43.8814 16.1832 43.8814L18.082 44.1139L17.9989 38.538L15.3066 38.0481Z" fill="white"/>
<path d="M18.0818 44.2051C18.0777 44.2051 18.0735 44.2051 18.0694 44.2051L16.1706 43.9726C16.1291 43.9685 16.1 43.9352 16.0917 43.8979C16.0875 43.8854 15.8507 42.4323 15.6263 40.9958C15.161 38.0314 15.1859 38.0148 15.2566 37.9692C15.2773 37.9567 15.2981 37.9525 15.323 37.9567L18.0154 38.4466C18.0569 38.4549 18.0902 38.4923 18.0902 38.5338L18.1732 44.1096C18.1732 44.1345 18.1608 44.1594 18.1442 44.1802C18.1234 44.1968 18.1026 44.2051 18.0818 44.2051ZM16.262 43.8024L17.9863 44.0141L17.9073 38.6168L15.3978 38.1601C15.4477 38.7414 15.9255 41.7431 16.262 43.8024Z" fill="black"/>
<path d="M21.1566 45.1103H15.9339C15.9339 45.1103 15.7428 43.815 16.042 43.2379L16.204 43.4206C16.2871 43.5161 16.4325 43.5244 16.5281 43.4372C16.7358 43.2503 17.1014 42.9473 17.4172 42.8019C18.028 42.5238 20.0763 43.9063 20.8616 44.3755C21.0485 44.4876 21.1607 44.6868 21.1607 44.9027V45.1103H21.1566Z" fill="white"/>
<path d="M21.1565 45.2012H15.9339C15.8882 45.2012 15.8508 45.168 15.8425 45.1223C15.8342 45.0684 15.6472 43.7896 15.9588 43.1959C15.9713 43.171 16.0003 43.1502 16.0294 43.1461C16.0585 43.1419 16.0876 43.1544 16.1084 43.1752L16.2704 43.3578C16.2953 43.3869 16.3286 43.3993 16.366 43.4035C16.4034 43.4035 16.4366 43.3952 16.4657 43.3703C16.7067 43.1544 17.064 42.8638 17.3756 42.7226C17.8991 42.486 19.2079 43.2457 20.5 44.0512C20.6538 44.1467 20.7909 44.2339 20.9031 44.3003C21.115 44.429 21.2479 44.6573 21.2479 44.9064V45.114C21.2479 45.1638 21.2064 45.2012 21.1565 45.2012ZM16.0128 45.0185H21.0651V44.9023C21.0651 44.7196 20.9695 44.5494 20.8116 44.4539C20.6995 44.3875 20.5624 44.3003 20.4045 44.2048C19.5403 43.6692 17.9323 42.6686 17.4545 42.8887C17.1471 43.0298 16.7815 43.3371 16.5903 43.5073C16.528 43.5654 16.4449 43.5903 16.3577 43.5903C16.2704 43.5862 16.1956 43.5488 16.1375 43.4824L16.071 43.4077C15.8965 43.9059 15.9796 44.7611 16.0128 45.0185Z" fill="black"/>
<path d="M20.9113 44.7947H16.0418C15.992 44.7947 15.9504 44.7532 15.9504 44.7033C15.9504 44.6535 15.992 44.6119 16.0418 44.6119H20.9113C20.9612 44.6119 21.0027 44.6535 21.0027 44.7033C21.0027 44.7573 20.9612 44.7947 20.9113 44.7947Z" fill="black"/>
<path d="M18.7218 44.1723C18.7094 44.1723 18.6928 44.1682 18.6803 44.164L17.1721 43.4037C17.1264 43.3829 17.1098 43.3247 17.1305 43.279C17.1513 43.2333 17.2095 43.2167 17.2552 43.2375L18.7634 43.9978C18.8091 44.0186 18.8257 44.0768 18.8049 44.1225C18.7842 44.1557 18.7551 44.1723 18.7218 44.1723Z" fill="black"/>
<path d="M28.099 38.8488C27.0936 35.6644 26.0798 32.4842 25.0577 29.3081C23.6783 25.0235 22.2823 20.7471 20.8696 16.475C18.6759 16.7324 13.7773 15.0675 14.2884 17.2472C14.5418 18.3267 14.5169 18.5675 14.492 18.966C14.2801 22.1048 13.9518 24.3509 13.9601 25.1356C13.9684 25.8331 13.9975 27.9214 13.9477 30.782C13.9394 31.247 13.9269 31.7452 13.9061 32.3472C13.7981 35.3697 13.5945 36.1045 13.582 38.5665C13.5779 38.9111 13.582 39.2474 13.5862 39.5713C14.7038 39.3512 15.9794 39.2931 17.3297 39.5962C18.3975 39.837 18.5221 40.0819 19.4819 40.2148C19.7977 40.2563 20.0927 40.2729 20.3752 40.2646C19.5899 29.7523 19.6481 27.3402 19.6481 27.3402C19.9473 29.6776 20.3212 32.1147 20.7824 34.639C21.1231 36.4948 21.4887 38.2884 21.8751 40.0196C23.0135 39.6834 24.0148 39.0938 25.3735 38.8447C26.0839 38.7118 26.9939 38.6579 28.099 38.8488Z" fill="#1E488D"/>
<path d="M19.6483 27.2534C19.5985 27.2534 19.5569 27.216 19.5569 27.1662L19.4156 22.0097C19.4156 21.9807 19.4281 21.9475 19.4572 21.9308L20.1303 21.47C20.1718 21.4409 20.23 21.4534 20.2591 21.4949C20.2882 21.5364 20.2757 21.5946 20.2342 21.6236L19.6026 22.0596L19.7397 27.1662C19.7397 27.2119 19.6982 27.2534 19.6483 27.2534Z" fill="white"/>
<path d="M26.6614 7.20438L25.7848 7.2625C25.6809 7.64031 25.4856 8.1925 25.1117 8.77374C24.7627 9.31347 24.0231 10.4635 23.1215 10.4926C22.195 10.5216 21.5177 8.5537 20.3378 7.51161C18.7963 7.37875 17.4876 7.44103 16.4945 7.54482C15.1982 7.68183 14.2177 7.91018 13.8188 8.00982C12.8383 8.25477 11.9949 8.5537 11.2719 8.84432C10.8523 10.1729 9.62661 13.4154 10.1667 17.2683C10.5781 20.216 13.769 22.076 14.629 23.0351C14.8409 22.7984 15.0196 22.5202 15.165 22.2255C14.9157 21.7729 14.5376 21.0962 14.0764 20.2741C13.1956 18.6965 13.0211 18.3975 12.9463 18.2564C12.5558 17.5132 12.3813 16.2843 13.0751 14.1254C13.0419 14.5322 13.0336 14.9765 13.0627 15.4456C13.1416 16.6912 13.2122 17.7831 13.9518 18.2896C14.575 18.7214 15.032 18.2813 17.6787 17.8329C19.8475 17.4675 20.7616 17.5547 21.4014 16.7534C21.7546 16.3133 21.8626 15.8068 21.9 15.4415C21.7296 14.6402 21.5634 13.8264 21.3973 13.0127C22.1244 13.3947 22.947 13.5566 23.6326 13.4403C25.5562 13.1289 27.293 10.4926 26.6614 7.20438Z" fill="white"/>
<path d="M14.6249 23.1265C14.6 23.1265 14.5751 23.114 14.5585 23.0974C14.3632 22.8774 14.0308 22.6034 13.6486 22.2878C12.3522 21.2084 10.3912 19.5767 10.0712 17.285C9.57266 13.7311 10.5781 10.6629 11.0601 9.18903C11.1058 9.05617 11.1432 8.93162 11.1806 8.82367C11.1889 8.79876 11.2097 8.778 11.2346 8.76555C12.1113 8.41265 12.9464 8.13863 13.794 7.92689C14.6374 7.71515 15.5681 7.55323 16.4822 7.45774C17.7535 7.32488 19.054 7.31243 20.3462 7.42453C20.3669 7.42453 20.3835 7.43283 20.4002 7.44528C20.8946 7.88122 21.3101 8.48738 21.6715 9.0188C22.1784 9.76197 22.6147 10.4013 23.1008 10.4013C23.105 10.4013 23.1133 10.4013 23.1174 10.4013C23.9692 10.3764 24.688 9.25961 25.0328 8.72403C25.3278 8.26733 25.548 7.76912 25.6976 7.2377C25.7059 7.20033 25.7391 7.17127 25.7807 7.17127L26.6574 7.11314C26.7031 7.10899 26.7446 7.14221 26.7529 7.18788C27.0936 8.95238 26.7737 10.7003 25.8804 11.9832C25.2779 12.8467 24.4844 13.3989 23.6493 13.5401C23.0011 13.648 22.2366 13.5193 21.5261 13.1872C21.6965 14.0383 21.846 14.7565 21.9915 15.4333C21.9915 15.4416 21.9956 15.4499 21.9915 15.4623C21.9375 16.0021 21.763 16.4588 21.4721 16.82C20.9569 17.4635 20.2631 17.559 19.0083 17.7334C18.6261 17.7873 18.1939 17.8455 17.6912 17.9326C16.7356 18.0946 16.0625 18.2565 15.5722 18.3727C14.6914 18.5845 14.3258 18.6717 13.8937 18.3727C13.1209 17.8413 13.0503 16.7369 12.9672 15.4582C12.9547 15.2672 12.9505 15.0721 12.9464 14.8769C12.5808 16.3052 12.6057 17.4303 13.0212 18.2191C13.0544 18.2855 13.1167 18.3935 13.2622 18.6551C13.4242 18.9415 13.6901 19.4148 14.1513 20.2369C14.6125 21.0589 14.9906 21.7357 15.2399 22.1882C15.2565 22.2131 15.2565 22.2463 15.2399 22.2754C15.0778 22.5951 14.895 22.8732 14.6914 23.1057C14.6748 23.114 14.6499 23.1265 14.6249 23.1265ZM11.3426 8.91501C11.3094 9.01465 11.2761 9.1226 11.2346 9.243C10.7568 10.7044 9.75963 13.7435 10.2499 17.2559C10.5615 19.4813 12.4894 21.0838 13.7649 22.1467C14.1097 22.4332 14.413 22.6864 14.6208 22.8982C14.7787 22.7072 14.9282 22.483 15.057 22.2297C14.8078 21.7772 14.438 21.117 13.9934 20.3199C13.5364 19.502 13.2663 19.0287 13.1043 18.7422C12.9505 18.4724 12.8965 18.3727 12.8591 18.3022C12.3564 17.3348 12.398 15.9232 12.9838 14.0964C12.9962 14.0507 13.042 14.0258 13.0877 14.0341C13.1334 14.0424 13.1666 14.084 13.1624 14.1296C13.1292 14.5656 13.125 15.0056 13.15 15.4374C13.2289 16.6705 13.2996 17.7334 13.9976 18.215C14.3632 18.4682 14.6582 18.3976 15.5265 18.1859C16.021 18.0697 16.6941 17.9077 17.658 17.7417C18.1607 17.6545 18.597 17.5964 18.9792 17.5424C20.2298 17.368 20.8572 17.2808 21.3267 16.6954C21.5926 16.3633 21.7546 15.9439 21.8045 15.4457C21.6508 14.7233 21.4929 13.9553 21.3059 13.0294C21.2976 12.9962 21.3142 12.9588 21.3392 12.9381C21.3682 12.9173 21.4056 12.9132 21.4347 12.9298C22.1535 13.3076 22.9471 13.4612 23.6119 13.3491C24.4013 13.2162 25.1533 12.6931 25.7267 11.8711C26.5784 10.6463 26.89 8.98559 26.5867 7.29582L25.8555 7.34564C25.7059 7.87292 25.4815 8.36698 25.1865 8.81952C24.8251 9.38001 24.073 10.5508 23.1257 10.5799C23.1174 10.5799 23.1091 10.5799 23.105 10.5799C22.5233 10.5799 22.0579 9.90313 21.522 9.11845C21.1688 8.60363 20.7699 8.01823 20.3005 7.5989C19.0332 7.49095 17.7535 7.50341 16.5029 7.63211C15.593 7.7276 14.6706 7.88952 13.8397 8.09711C13.0129 8.30885 12.1944 8.57456 11.3426 8.91501Z" fill="black"/>
<path d="M25.6476 5.9426L26.1171 4.38569C26.1503 4.27775 26.2542 4.20717 26.3664 4.21962C26.4952 4.23208 26.5866 4.34833 26.5741 4.47703L26.5076 5.1164L27.1267 5.61461C27.3178 5.76823 27.3926 6.02149 27.3137 6.25399L27.1059 6.86845C27.0021 7.17568 26.7195 7.38742 26.3955 7.40403L26.1794 7.41648C25.8429 7.43309 25.5354 7.2338 25.4108 6.92242L25.2654 6.55707C25.1739 6.32872 25.2944 6.06716 25.5313 5.98827L25.6476 5.9426Z" fill="white"/>
<path d="M26.1422 7.50323C25.7848 7.50323 25.4608 7.28734 25.3237 6.95104L25.1782 6.58569C25.1242 6.44868 25.1284 6.30337 25.1907 6.17051C25.253 6.03766 25.3611 5.94217 25.5023 5.8965L25.5771 5.87159L26.03 4.36034C26.0757 4.21088 26.2211 4.11539 26.379 4.132C26.5535 4.15276 26.6823 4.31052 26.6657 4.48905L26.6033 5.0786L27.185 5.5436C27.4052 5.71797 27.4925 6.0169 27.4011 6.28261L27.1933 6.89707C27.077 7.24167 26.7654 7.47417 26.4039 7.49493L26.1879 7.50738C26.1712 7.50323 26.1546 7.50323 26.1422 7.50323ZM26.3416 4.31052C26.2793 4.31052 26.2253 4.35204 26.2045 4.41016L25.735 5.96708C25.7267 5.99614 25.7059 6.0169 25.6768 6.02935L25.5563 6.07087C25.4649 6.09993 25.3943 6.16221 25.3569 6.2494C25.3154 6.33658 25.3154 6.43207 25.3486 6.51926L25.494 6.88462C25.602 7.15863 25.8763 7.33301 26.1754 7.32055L26.3915 7.3081C26.6781 7.29564 26.9274 7.10881 27.0188 6.8348L27.2266 6.22033C27.2931 6.0252 27.2266 5.80931 27.0687 5.6806L26.4496 5.18239C26.4247 5.16163 26.4122 5.13257 26.4164 5.09936L26.4829 4.45999C26.4912 4.3811 26.433 4.31467 26.3582 4.30637C26.3499 4.31052 26.3458 4.31052 26.3416 4.31052Z" fill="black"/>
<path d="M25.6477 5.94196L26.1878 6.01259C26.1878 6.01259 26.2668 6.44885 25.9261 6.44054L25.6477 5.94196Z" fill="white"/>
<path d="M25.9384 6.53227C25.9343 6.53227 25.9301 6.53227 25.926 6.53227C25.8761 6.53227 25.8346 6.49072 25.8387 6.43671C25.8387 6.38685 25.8803 6.34946 25.9343 6.3453C25.9883 6.34946 26.0299 6.33284 26.0589 6.2996C26.1046 6.24559 26.113 6.15418 26.1088 6.08771L25.6435 6.02954C25.5936 6.02123 25.5562 5.97552 25.5645 5.92567C25.5728 5.87581 25.6185 5.84257 25.6684 5.84672L26.2085 5.91736C26.2501 5.92151 26.2791 5.9506 26.2875 5.99214C26.2916 6.02123 26.3332 6.27052 26.2044 6.42009C26.1503 6.4741 26.0714 6.53227 25.9384 6.53227Z" fill="black"/>
<path d="M26.5408 6.11362C26.5366 6.11362 26.5325 6.11362 26.5242 6.11362C26.4743 6.10531 26.4411 6.05961 26.4494 6.00975L26.5823 5.23695C26.5907 5.18709 26.6364 5.15385 26.6862 5.16216C26.7361 5.17047 26.7693 5.21617 26.761 5.26603L26.6281 6.03883C26.6239 6.08038 26.5823 6.11362 26.5408 6.11362Z" fill="black"/>
<path d="M26.9273 6.29995C26.9231 6.29995 26.9148 6.29995 26.9107 6.29995C26.8608 6.29164 26.8276 6.24178 26.8359 6.19192L26.948 5.57701C26.9564 5.52715 27.0062 5.49391 27.0561 5.50222C27.1059 5.51053 27.1392 5.56039 27.1309 5.61024L27.0187 6.22516C27.0062 6.26671 26.9688 6.29995 26.9273 6.29995Z" fill="black"/>
<path d="M21.3641 12.5188C21.3226 12.5188 21.2852 12.4897 21.2768 12.4482L20.6619 9.74543C20.6495 9.69561 20.6827 9.64579 20.7326 9.63748C20.7824 9.62503 20.8323 9.65824 20.8406 9.70806L21.4555 12.4109C21.468 12.4607 21.4347 12.5105 21.3849 12.5188C21.3766 12.5188 21.3724 12.5188 21.3641 12.5188Z" fill="black"/>
<path d="M14.0805 23.5167C14.0431 23.5167 14.0099 23.4959 13.9974 23.4585C13.9766 23.4129 14.0016 23.3589 14.0473 23.3381C15.8671 22.5991 15.6012 18.5138 15.597 18.4723C15.5929 18.4225 15.6302 18.3768 15.6801 18.3726C15.7341 18.3685 15.7757 18.4058 15.7798 18.4557C15.7923 18.63 16.0582 22.7154 14.1179 23.5042C14.1054 23.5167 14.093 23.5167 14.0805 23.5167Z" fill="white"/>
<path d="M18.1022 7.43653C17.5454 7.34519 17.1465 6.85113 17.1756 6.29064L17.2213 5.41877C17.749 5.37725 18.1853 5.12815 18.1853 4.96208C18.1853 4.87904 17.99 4.09021 17.8695 3.76222C17.9734 3.67918 18.0939 3.45084 17.8778 3.30968C17.6576 3.16852 17.1632 2.28004 17.1632 2.28004C16.5524 1.57424 16.3779 2.57066 15.9209 2.6537C15.6051 2.71182 15.4348 2.9028 15.5552 3.31383C15.6757 3.72485 15.4472 3.51726 15.2145 3.40101C14.9819 3.28476 14.824 3.3761 14.9528 3.74976C15.0816 4.12342 15.5428 4.34762 15.5428 4.34762L15.763 4.7794L15.2976 6.8968C15.2104 7.29537 14.9196 7.62336 14.5332 7.76037L13.8933 7.98872L17.2504 9.74076L18.8708 7.56108L18.1022 7.43653Z" fill="white"/>
<path d="M17.2589 9.83239C17.2465 9.83239 17.2299 9.82824 17.2174 9.81993L13.8603 8.06789C13.827 8.05128 13.8104 8.01807 13.8104 7.9807C13.8146 7.94333 13.8354 7.91427 13.8727 7.90182L14.5126 7.67347C14.8741 7.54477 15.1358 7.24584 15.2148 6.87633L15.6718 4.79214L15.4807 4.41849C15.3726 4.36036 14.9904 4.13617 14.8699 3.78327C14.7951 3.55907 14.8034 3.4013 14.899 3.31827C14.9489 3.27675 15.0569 3.22278 15.2605 3.32242C15.302 3.34318 15.3477 3.36809 15.3893 3.393C15.4225 3.40961 15.464 3.43452 15.4973 3.45112C15.4931 3.42621 15.4848 3.393 15.4724 3.33903C15.41 3.11898 15.4183 2.94046 15.5014 2.80345C15.5804 2.6789 15.7175 2.59586 15.9128 2.56265C16.0457 2.53774 16.1621 2.40073 16.2742 2.27202C16.4155 2.10595 16.5609 1.93573 16.7687 1.93573C16.9182 1.93573 17.072 2.02707 17.2382 2.21805C17.2423 2.2222 17.2465 2.22635 17.2506 2.23466C17.4376 2.57095 17.7866 3.13974 17.932 3.23108C18.0608 3.31412 18.0899 3.41791 18.0982 3.48849C18.1065 3.60059 18.0525 3.70853 17.986 3.78327C18.1065 4.13617 18.2852 4.86272 18.2852 4.95822C18.2852 5.19071 17.8365 5.43982 17.3171 5.5021L17.2756 6.29508C17.2506 6.8099 17.6121 7.26244 18.1231 7.34548L18.9001 7.47418C18.9333 7.47834 18.9583 7.4991 18.9707 7.52816C18.9832 7.55722 18.979 7.59043 18.9583 7.61534L17.3379 9.79502C17.313 9.81993 17.2839 9.83239 17.2589 9.83239ZM14.1303 8.00561L17.2299 9.6248L18.7131 7.6278L18.0858 7.52401C17.4833 7.42436 17.0512 6.89294 17.0844 6.28263L17.1301 5.41076C17.1343 5.36509 17.1675 5.32772 17.2132 5.32357C17.7492 5.28205 18.0941 5.03295 18.0941 4.95822C18.0899 4.87933 17.9029 4.11541 17.7866 3.78742C17.7741 3.75005 17.7824 3.70853 17.8157 3.68362C17.8572 3.65041 17.9154 3.56737 17.9112 3.49679C17.9071 3.45112 17.8822 3.41376 17.8323 3.38054C17.6038 3.23523 17.1634 2.45055 17.0927 2.326C16.9681 2.18484 16.8601 2.11426 16.7687 2.11426C16.644 2.11426 16.5318 2.24711 16.4114 2.38412C16.2784 2.53774 16.1371 2.69965 15.9419 2.73702C15.8006 2.76193 15.705 2.8159 15.6552 2.89479C15.6012 2.98197 15.597 3.11483 15.6469 3.2809C15.6926 3.43452 15.705 3.55077 15.6261 3.61304C15.5388 3.67947 15.4267 3.6172 15.2937 3.54246C15.2563 3.5217 15.2148 3.49679 15.1732 3.47603C15.086 3.43037 15.0319 3.43452 15.0153 3.44697C14.9987 3.46358 14.9779 3.53831 15.0361 3.71269C15.1483 4.04483 15.5762 4.25657 15.5804 4.25657C15.597 4.26487 15.6136 4.28148 15.6219 4.29808L15.8421 4.72987C15.8504 4.75063 15.8546 4.77139 15.8504 4.79214L15.3934 6.9137C15.2979 7.34963 14.9904 7.69423 14.5708 7.84369L14.1303 8.00561Z" fill="black"/>
<path d="M17.0344 5.53562C16.6355 5.53562 16.3904 5.24893 16.3073 5.07027C16.2865 5.02457 16.3073 4.97056 16.353 4.94978C16.3987 4.92901 16.4527 4.94978 16.4735 4.99549C16.4818 5.01626 16.6978 5.45252 17.2047 5.33618C17.2546 5.32372 17.3044 5.3528 17.3169 5.40266C17.3294 5.45252 17.2961 5.50238 17.2504 5.51484C17.1715 5.52731 17.1008 5.53562 17.0344 5.53562Z" fill="black"/>
</svg>
