<svg width="22" height="23" viewBox="0 0 22 23" fill="none" xmlns="http://www.w3.org/2000/svg">
<path d="M19.5938 0.28125H2.40625C1.78465 0.28125 1.18851 0.52818 0.748968 0.967719C0.30943 1.40726 0.0625 2.0034 0.0625 2.625L0.0625 19.8125C0.0625 20.4341 0.30943 21.0302 0.748968 21.4698C1.18851 21.9093 1.78465 22.1562 2.40625 22.1562H9.10791V14.7192H6.03174V11.2188H9.10791V8.55078C9.10791 5.51611 10.9146 3.83984 13.6816 3.83984C15.0068 3.83984 16.3926 4.07617 16.3926 4.07617V7.05469H14.8657C13.3613 7.05469 12.8921 7.98828 12.8921 8.9458V11.2188H16.2505L15.7134 14.7192H12.8921V22.1562H19.5938C20.2154 22.1562 20.8115 21.9093 21.251 21.4698C21.6906 21.0302 21.9375 20.4341 21.9375 19.8125V2.625C21.9375 2.0034 21.6906 1.40726 21.251 0.967719C20.8115 0.52818 20.2154 0.28125 19.5938 0.28125V0.28125Z" fill="#F2F2F2"/>
</svg>
