<svg width="338" height="316" viewBox="0 0 338 316" fill="none" xmlns="http://www.w3.org/2000/svg">
<path d="M80.6075 105.187C80.8985 118.585 72.7511 132.275 60.0935 136.79C53.2555 139.265 45.69 138.829 38.561 140.722C31.432 142.615 24.303 147.858 24.303 155.14C24.303 159.946 27.0673 171.014 12.5184 177.422C0.588196 182.811 3.35252 211.501 40.4524 223.735C51.8006 227.376 44.5261 218.055 56.3108 216.307C67.95 214.56 78.5707 207.86 86.5726 199.268C94.5746 190.675 100.394 180.044 104.759 169.121C109.851 156.451 113.488 142.615 110.287 129.362C107.087 116.109 95.4475 104.021 80.6075 105.187Z" fill="black"/>
<path d="M153.062 74.603C149.133 93.6814 145.351 114.216 153.207 131.984C155.68 137.809 159.463 143.052 161.5 149.023C163.973 156.16 164.119 163.878 163.391 171.306C162.082 185.432 157.863 199.996 147.97 210.191C138.076 220.385 121.345 224.754 109.124 217.618C98.3575 211.356 93.4109 197.812 94.1383 185.432C94.8658 172.908 100.103 161.257 105.778 150.188C119.163 123.391 134.875 97.6136 153.062 74.603Z" fill="black"/>
<path d="M125.564 167.664C125.273 157.469 126.437 151.789 126.873 144.216C122.8 142.177 118.289 140.721 113.779 139.993C111.742 139.702 109.414 139.556 107.814 140.721C106.796 141.449 102.14 137.371 101.704 138.536C98.3573 146.255 98.0663 157.324 94.8655 165.188C94.5745 165.771 83.0808 164.751 82.7899 165.334C81.7714 167.809 82.6444 188.927 83.3718 189.509C125.709 217.763 146.223 177.421 146.223 177.421C146.223 177.421 138.512 172.47 125.564 167.664Z" fill="white"/>
<path d="M112.033 200.141C115.088 200.141 118.144 199.704 121.054 198.976C138.367 194.462 146.951 177.713 146.951 177.568C147.096 177.276 146.951 176.84 146.66 176.548C146.514 176.548 138.949 171.888 126.291 167.082C126.146 160.674 126.582 156.014 127.019 151.499C127.31 149.169 127.455 146.838 127.601 144.217C127.601 143.926 127.455 143.634 127.164 143.489C122.945 141.45 118.58 139.993 113.925 139.265C111.888 138.974 109.414 138.683 107.523 140.139C107.087 140.139 105.777 139.411 105.05 138.974C103.449 137.955 102.431 137.518 101.703 137.809C101.412 137.955 101.121 138.1 101.121 138.391C99.3756 142.324 98.5026 147.13 97.6297 151.79C96.7568 156.305 95.8838 160.82 94.2835 164.606C93.4105 164.752 90.7917 164.606 88.7548 164.46C82.6443 164.169 82.2078 164.315 81.9168 164.897C81.1894 166.645 81.3349 175.383 81.4803 178.005C81.9168 189.219 82.4988 189.656 82.7897 189.947C93.1195 196.792 102.867 200.141 112.033 200.141ZM145.35 177.422C143.604 180.48 135.457 193.588 120.617 197.52C109.414 200.433 97.1932 197.52 83.9537 188.782C83.2262 186.597 82.4988 168.975 83.3717 165.771C84.2447 165.626 86.8635 165.771 88.7548 165.917C94.8654 166.208 95.1564 166.062 95.4473 165.48C97.1932 161.548 98.0662 156.742 98.9391 152.081C99.8121 147.567 100.685 143.052 102.285 139.265C102.722 139.411 103.595 139.993 104.322 140.285C106.068 141.304 107.523 142.178 108.396 141.45C109.851 140.285 112.033 140.576 113.779 140.867C118.144 141.595 122.217 142.906 126.146 144.799C126 147.13 125.855 149.314 125.564 151.499C125.127 156.159 124.691 160.965 124.836 167.81C124.836 168.101 124.982 168.393 125.273 168.538C136.039 172.325 143.168 176.257 145.35 177.422Z" fill="black"/>
<path d="M157.572 79.2625C156.262 88.7289 154.371 98.6321 156.844 107.953C158.154 113.05 158.008 139.119 137.203 146.401C126.291 150.333 113.634 149.459 102.431 142.614C94.7201 137.954 85.4087 123.536 87.3001 109.118C80.8985 110.866 74.6425 106.642 74.6425 100.817C74.6425 97.4671 78.2797 93.3892 82.0624 93.5349C84.9722 93.6805 85.4087 93.6805 87.5911 95.4281C89.1915 88.7289 90.0644 81.8839 89.9189 74.1652C97.1934 66.1552 108.687 62.223 120.181 60.4753C123.963 59.8928 127.892 59.6015 131.82 60.0384C142.877 61.4948 158.736 69.6504 157.572 79.2625Z" fill="white"/>
<path d="M123.673 149.605C128.328 149.605 132.838 148.877 137.494 147.275C158.299 139.848 159.172 114.07 157.572 107.807C155.535 99.6518 156.699 91.2049 157.863 82.9036C158.008 81.7385 158.154 80.5734 158.299 79.4083C158.59 76.6412 157.863 74.0198 155.826 71.3983C150.879 64.9903 139.822 60.4756 131.966 59.4561C127.746 58.8736 123.382 59.4561 120.181 59.893C110.579 61.3494 97.4845 64.8447 89.4826 73.8741C89.3371 74.0198 89.3371 74.1654 89.3371 74.311C89.4825 81.0103 88.7551 87.4183 87.3002 94.4089C85.6998 93.2438 84.9724 93.0982 82.2081 93.0982C80.3167 92.9525 78.2798 93.8264 76.6795 95.4284C74.9336 97.0304 73.9151 99.2149 74.0606 101.108C74.0606 103.875 75.5155 106.497 77.8434 108.244C80.3167 110.138 83.5175 110.866 86.5728 110.283C85.2634 124.847 94.5747 138.828 102.14 143.488C108.687 147.421 116.107 149.605 123.673 149.605ZM156.844 79.1171C156.699 80.2821 156.553 81.4472 156.408 82.6123C155.244 91.0593 154.08 99.7975 156.117 108.099C156.99 111.594 158.154 138.246 136.912 145.673C125.419 149.751 113.343 148.44 102.722 142.032C95.5931 137.663 86.1363 123.536 87.8822 109.264C87.8822 108.973 87.8822 108.827 87.5912 108.681C87.4457 108.536 87.1547 108.39 86.8637 108.536C83.9539 109.409 80.7532 108.827 78.2799 106.934C76.243 105.477 75.0791 103.293 75.0791 100.963C75.0791 99.5062 75.952 97.7585 77.2614 96.4478C78.5708 95.1371 80.1712 94.4089 81.6261 94.5545C84.5359 94.7002 84.6814 94.7002 86.7182 96.3022C86.8637 96.4478 87.1547 96.4478 87.4457 96.4478C87.7367 96.3022 87.8822 96.1565 87.8822 95.8653C89.628 88.4378 90.3555 81.5929 90.21 74.6023C98.0664 66.1554 110.724 62.6601 119.89 61.3494C123.091 60.9125 127.164 60.3299 131.384 60.9125C138.949 61.7863 149.57 66.1554 154.225 72.2721C156.262 74.6023 157.135 76.9325 156.844 79.1171Z" fill="black"/>
<path d="M112.033 117.274C118.726 117.274 124.691 111.739 125.709 104.166C126.146 100.234 125.273 96.3018 123.091 93.2435C120.908 90.1851 117.708 88.1462 114.216 87.7093C106.796 86.6898 99.9578 92.6609 98.9394 100.671C98.5029 104.603 99.3759 108.535 101.558 111.594C103.741 114.652 106.941 116.691 110.433 117.128C110.87 117.274 111.452 117.274 112.033 117.274ZM112.615 89.1656C113.052 89.1656 113.488 89.1656 114.07 89.3113C117.271 89.7482 120.035 91.4958 121.927 94.2629C123.818 97.03 124.691 100.525 124.255 104.166C123.382 111.448 117.126 116.691 110.579 115.963C107.378 115.526 104.613 113.778 102.722 111.011C100.831 108.244 99.9578 104.749 100.394 101.108C101.267 94.1173 106.65 89.1656 112.615 89.1656Z" fill="black"/>
<path d="M149.715 119.022C156.408 119.022 162.373 113.488 163.391 105.915C164.41 97.7593 159.318 90.3318 151.898 89.458C144.478 88.4385 137.64 94.4096 136.621 102.42C136.185 106.352 137.058 110.284 139.24 113.342C141.422 116.401 144.623 118.44 148.115 118.877C148.551 119.022 149.133 119.022 149.715 119.022ZM150.297 90.7687C150.734 90.7687 151.17 90.7687 151.752 90.9144C158.299 91.7882 162.955 98.4875 161.937 105.769C161.064 113.051 154.953 118.294 148.26 117.566C145.06 117.129 142.295 115.381 140.404 112.614C138.513 109.847 137.64 106.352 138.076 102.711C138.949 95.866 144.332 90.7687 150.297 90.7687Z" fill="black"/>
<path d="M78.3775 34.0818C75.4395 21.1409 83.538 8.26601 96.4659 5.32506C109.394 2.38411 122.256 10.4907 125.194 23.4317C128.132 36.3727 120.033 49.2475 107.105 52.1885C94.1773 55.1294 81.3155 47.0228 78.3775 34.0818Z" fill="black"/>
<path d="M88.3186 96.5937C94.4291 87.1273 98.2119 80.2824 100.103 68.7771C122.654 82.03 143.896 79.8454 165.428 78.9716C165.865 75.3307 165.137 71.5442 163.537 68.0489C159.754 59.6019 155.098 52.1745 142.15 46.349C132.984 42.2712 120.763 39.6497 110.869 40.9605C101.122 42.4168 92.6833 47.6597 85.8452 54.0678C80.3166 59.165 75.8064 67.4663 74.2061 75.622C72.7512 82.6125 74.497 87.8555 77.6978 94.9917C79.4437 93.9722 81.1896 93.0984 83.2264 93.5353C85.2633 94.1178 86.5727 95.1373 88.3186 96.5937Z" fill="black"/>
<path d="M120.908 132.566C122.509 132.566 123.964 132.129 125.127 131.109C125.418 130.818 125.418 130.381 125.273 130.09C124.982 129.798 124.546 129.798 124.255 129.944C122.654 131.255 120.326 131.4 117.998 130.527C115.38 129.507 113.343 127.323 112.033 124.556C111.888 124.119 111.451 123.973 111.015 124.264C110.579 124.41 110.433 124.847 110.724 125.284C112.179 128.342 114.507 130.672 117.562 131.983C118.58 132.42 119.744 132.566 120.908 132.566Z" fill="black"/>
<path d="M112.906 103.147C113.052 101.982 114.216 101.108 115.38 101.254C116.689 101.4 117.562 102.565 117.417 103.73C117.271 104.895 116.107 105.769 114.943 105.623C113.634 105.332 112.761 104.312 112.906 103.147Z" fill="black"/>
<path d="M146.514 104.895C146.66 103.73 147.824 102.856 148.988 103.002C150.297 103.147 151.17 104.312 151.024 105.477C150.879 106.643 149.715 107.516 148.551 107.371C147.242 107.079 146.369 106.06 146.514 104.895Z" fill="black"/>
<path d="M133.857 118.585C134.002 118.585 134.002 118.585 134.148 118.585L137.203 117.419C137.64 117.274 138.222 116.983 138.512 116.4C138.803 115.526 138.222 114.798 137.931 114.507C135.603 111.448 134.875 107.37 135.894 103.73C136.039 103.293 135.748 103.001 135.312 102.856C134.875 102.71 134.584 103.001 134.439 103.438C133.275 107.516 134.148 112.031 136.767 115.526C136.912 115.817 137.058 115.963 137.058 116.109C137.058 116.109 136.912 116.254 136.621 116.254L133.566 117.419C133.129 117.565 132.984 118.002 133.129 118.439C133.275 118.439 133.566 118.585 133.857 118.585Z" fill="black"/>
<path d="M137.93 100.235C138.367 100.235 138.658 99.9437 138.658 99.5068C138.658 97.4679 136.621 96.0115 134.73 95.429C131.383 94.5551 127.746 95.429 125.127 97.6135C124.836 97.9048 124.836 98.3417 125.127 98.633C125.418 98.9242 125.855 98.9242 126.146 98.633C128.328 96.7397 131.529 96.0115 134.293 96.7397C135.748 97.1766 137.203 98.0504 137.203 99.3612C137.203 99.9437 137.494 100.235 137.93 100.235Z" fill="black"/>
<path d="M100.394 96.7394C100.831 96.7394 101.122 96.4481 101.122 96.0112C101.122 95.5743 100.831 95.283 100.394 95.283H89.3369C88.9004 95.283 88.6095 95.5743 88.6095 96.0112C88.6095 96.4481 88.9004 96.7394 89.3369 96.7394H100.394Z" fill="black"/>
<path d="M87.3004 104.458C87.7368 104.458 88.0278 104.167 88.0278 103.73C88.0278 100.963 88.6097 98.1956 89.6282 95.7198C89.7737 95.2829 89.6282 94.846 89.1917 94.7004C88.7553 94.5547 88.3188 94.7004 88.1733 95.1373C87.0094 97.7587 86.4274 100.817 86.4274 103.73C86.5729 104.021 86.8639 104.458 87.3004 104.458Z" fill="black"/>
<path d="M5.97139 254.463C15.7192 227.666 21.2478 201.16 44.3807 181.791C55.4379 172.47 68.9684 165.916 84.3904 164.897C85.4088 179.897 102.722 189.801 112.033 190.82C117.126 191.403 135.894 193.879 135.894 171.742C142.004 174.218 162.518 176.693 170.666 201.889C174.012 212.229 179.977 251.696 199.764 274.561C204.419 279.95 208.784 243.978 215.477 246.453C222.024 248.784 229.735 252.716 230.171 259.706C230.608 265.095 226.097 269.901 221.005 272.085C210.239 276.746 206.165 299.174 194.526 300.776C182.45 302.523 163.1 306.893 148.551 261.308C141.131 268.736 136.33 276.746 127.892 281.261C103.74 294.222 23.5757 308.931 10.4816 311.262C9.46317 311.407 6.98984 310.533 6.55338 309.514C3.93456 303.106 -3.19446 279.804 5.97139 254.463Z" fill="#FAA51C"/>
<path d="M10.336 311.99C10.4815 311.99 10.627 311.99 10.7724 311.99C26.1944 309.223 104.468 294.951 128.474 281.989C134.293 278.931 138.367 274.125 142.732 269.027C144.477 266.989 146.369 264.804 148.406 262.619C154.662 281.552 162.227 293.494 171.393 298.883C179.541 303.689 187.251 302.524 193.508 301.65C193.944 301.65 194.38 301.504 194.671 301.504C201.218 300.631 205.438 293.494 209.511 286.504C213.003 280.678 216.495 274.707 221.296 272.668C226.388 270.484 231.335 265.532 230.898 259.561C230.462 253.736 225.515 249.075 215.767 245.58C215.04 245.289 214.313 245.434 213.585 245.726C210.53 247.328 208.057 254.901 205.874 262.183C204.274 267.134 202.237 273.833 200.782 274.125C200.637 274.125 200.491 273.979 200.346 273.833C184.633 255.629 177.504 226.356 173.721 210.627C172.702 206.695 171.975 203.491 171.393 201.452C164.264 179.315 147.533 174.364 139.385 171.888C138.076 171.451 136.912 171.16 136.185 170.868C135.894 170.723 135.748 170.868 135.457 171.014C135.312 171.16 135.166 171.451 135.166 171.597C135.166 178.296 133.42 183.393 129.929 186.451C124.254 191.403 115.525 190.384 112.324 189.947H112.179C103.304 188.927 86.1361 179.315 85.2632 164.752C85.2632 164.606 85.1177 164.315 84.9722 164.315C84.8267 164.169 84.6812 164.169 84.3902 164.169C69.9868 165.043 56.4562 170.868 43.9441 181.209C24.7395 197.374 17.6105 218.2 10.1905 240.191C8.5901 244.706 6.98972 249.512 5.38933 254.173C-3.04907 277.037 1.89757 299.902 6.11678 309.66C6.55324 310.971 8.88107 311.99 10.336 311.99ZM148.697 260.581C148.551 260.581 148.26 260.726 148.115 260.726C145.641 263.202 143.605 265.678 141.422 268.008C137.203 272.96 133.129 277.62 127.601 280.533C103.74 293.349 25.7579 307.621 10.4815 310.388C9.60852 310.534 7.57167 309.66 7.2807 309.078C6.84422 308.058 -3.63103 282.863 6.55325 254.609C8.29912 249.949 9.89952 245.143 11.3544 240.628C18.7744 218.783 25.7579 198.102 44.6716 182.228C56.6017 172.179 69.6958 166.645 83.5173 165.625C84.3902 173.927 89.9189 179.898 94.429 183.539C99.6667 187.762 106.505 190.821 111.742 191.403H111.888C115.38 191.84 124.545 192.859 130.656 187.471C134.293 184.267 136.185 179.17 136.476 172.616C137.203 172.907 137.93 173.053 138.803 173.344C147.242 175.82 162.809 180.626 169.793 201.889C170.375 203.928 171.248 206.986 172.121 211.064C175.903 226.938 183.032 256.357 199.036 274.853C199.764 275.727 200.491 275.727 200.928 275.581C203.11 275.144 204.565 270.629 207.038 262.619C209.075 256.211 211.548 248.201 214.022 247.036C214.313 246.891 214.604 246.891 215.04 246.891C224.206 250.095 228.862 254.318 229.298 259.561C229.734 264.804 225.079 269.319 220.569 271.212C215.331 273.397 211.694 279.659 208.057 285.63C203.983 292.475 200.055 299.029 194.235 299.902C193.799 299.902 193.362 300.048 193.071 300.048C181.141 301.796 163.1 304.417 149.133 260.872C148.988 260.58 148.842 260.435 148.551 260.435C148.842 260.581 148.842 260.581 148.697 260.581Z" fill="black"/>
<path d="M34.7785 280.387C56.7475 279.222 79.0074 277.62 101.122 276.164C103.159 275.872 112.906 274.416 115.38 274.125C117.417 273.833 119.454 273.105 121.345 272.231C127.892 269.173 142.004 263.202 145.205 264.95C152.48 267.134 159.027 272.377 164.264 278.931C167.174 282.717 169.502 288.834 168.338 289.853C167.611 290.582 166.447 290.873 165.574 290.145C162.082 282.863 155.971 276.746 148.697 273.396C152.189 275.29 155.389 277.62 158.154 280.387C161.064 283.154 163.682 286.358 164.41 290.436C164.41 290.727 164.555 291.018 164.264 291.31C163.828 291.892 162.809 291.601 162.228 291.164C161.064 290.29 145.933 277.911 143.023 278.202C146.806 279.659 160.191 290.582 160.191 291.747C160.191 292.329 160.045 292.912 159.754 293.349C159.318 293.931 158.445 294.077 157.717 293.931C156.99 293.786 156.262 293.349 155.68 293.057C151.316 290.436 147.388 287.086 142.732 285.193C140.404 284.174 137.494 283.591 135.457 285.047C139.677 286.649 143.605 288.98 146.806 291.892C147.388 292.329 147.824 292.912 148.115 293.494C148.697 294.368 149.279 295.679 148.551 296.553C147.388 297.863 146.369 297.135 145.351 296.553C141.277 293.931 137.203 291.747 132.984 289.999C131.675 289.416 130.074 288.98 128.91 289.708C127.892 290.436 122.8 293.494 112.47 294.077C108.978 294.222 105.487 295.242 101.122 296.407C42.7804 312.573 25.3217 318.981 11.2092 312.864C8.44487 311.699 7.57195 310.243 8.44489 305.437C10.7727 292.766 13.1005 285.63 34.7785 280.387Z" fill="white"/>
<path d="M22.8483 315.923C34.051 315.923 49.9094 311.408 79.8802 303.107C86.1363 301.359 93.4108 299.32 101.122 297.136C105.195 295.97 108.833 294.951 112.324 294.805C122.072 294.368 127.31 291.456 129.201 290.291C130.074 289.708 131.529 290.145 132.693 290.582C136.912 292.184 140.84 294.368 144.914 296.99H145.06C146.078 297.572 147.533 298.446 148.988 296.844C150.152 295.534 149.133 293.64 148.697 292.912C148.26 292.184 147.824 291.601 147.242 291.019C144.332 288.397 140.986 286.213 137.349 284.611C139.095 284.174 140.986 284.756 142.441 285.339C145.496 286.65 148.26 288.543 151.025 290.436C152.48 291.31 153.789 292.33 155.244 293.203C155.971 293.64 156.699 294.077 157.572 294.223C158.736 294.368 159.754 294.077 160.336 293.349C160.773 292.766 160.918 292.038 160.918 291.31C160.918 291.164 160.773 290.728 160.482 290.436C160.773 290.582 160.918 290.873 161.209 291.019C161.5 291.164 161.645 291.31 161.791 291.456C162.373 291.893 163.1 292.33 163.828 292.184C164.264 292.038 164.555 291.893 164.846 291.456C164.992 291.164 165.137 290.873 165.137 290.582C166.156 291.31 167.611 291.31 168.774 290.291C170.666 288.543 167.32 281.407 164.846 278.348C159.172 271.067 152.48 266.115 145.496 264.076C141.713 262.183 127.164 268.445 121.054 271.358C119.453 272.086 117.417 272.96 115.38 273.251C114.652 273.397 113.488 273.542 112.033 273.688C108.105 274.271 102.577 274.999 101.122 275.29C79.4438 276.746 57.1838 278.348 34.7784 279.514H34.6329C12.5185 284.756 10.0452 292.33 7.57185 305.146C6.69893 309.952 7.42636 311.991 10.7726 313.301C14.4099 315.195 18.1926 315.923 22.8483 315.923ZM130.365 288.689C129.638 288.689 129.056 288.834 128.474 289.271C126.728 290.436 121.636 293.058 112.324 293.495C108.687 293.64 105.05 294.66 100.831 295.825C92.9743 298.009 85.8453 300.048 79.5893 301.796C37.5427 313.593 23.4303 317.525 11.3546 312.427C9.02676 311.408 8.15382 310.534 9.02676 305.874C11.5001 293.203 13.6824 286.504 34.9239 281.407C57.1839 280.096 79.5893 278.64 101.267 277.183C102.722 276.892 108.396 276.164 112.179 275.581C113.634 275.436 114.798 275.144 115.525 275.144C117.853 274.853 120.035 273.834 121.636 273.106C131.529 268.591 142.586 264.513 144.914 265.824H145.06C151.752 267.717 158.299 272.669 163.682 279.659C166.738 283.591 168.338 288.834 167.756 289.708C167.32 290.145 166.592 290.291 166.156 289.999C162.664 282.572 156.408 276.455 148.988 273.106C148.697 272.96 148.26 273.106 147.969 273.397C147.824 273.688 147.969 274.125 148.26 274.416C151.607 276.31 154.807 278.64 157.572 281.261C161.209 284.611 163.1 287.669 163.537 290.873C163.537 291.164 163.537 291.31 163.537 291.31C163.391 291.31 163.1 291.164 162.664 290.873C162.518 290.873 162.373 290.728 162.082 290.436C145.787 277.475 143.605 277.766 142.877 277.766C142.586 277.766 142.295 278.057 142.295 278.348C142.295 278.64 142.441 279.077 142.732 279.077C146.224 280.387 158.59 290.291 159.463 292.038C159.463 292.475 159.318 292.766 159.172 293.058C158.881 293.495 158.299 293.495 157.863 293.495C157.281 293.349 156.699 293.058 156.117 292.621C154.662 291.747 153.207 290.728 151.898 289.854C149.133 287.96 146.224 286.067 143.023 284.611C140.695 283.591 137.494 282.863 135.021 284.611C134.73 284.756 134.73 285.048 134.73 285.339C134.73 285.63 134.875 285.776 135.166 285.922C139.386 287.524 143.168 289.854 146.224 292.621C146.66 293.058 147.096 293.495 147.387 294.077C147.969 295.097 148.115 295.97 147.824 296.262C147.096 296.99 146.66 296.844 145.642 296.262C141.568 293.495 137.349 291.31 133.129 289.708C132.402 288.98 131.384 288.689 130.365 288.689Z" fill="black"/>
<path d="M180.559 308.785C162.227 309.222 144.041 309.514 125.709 309.951V300.63L186.67 299.173L180.559 308.785Z" fill="black"/>
<path d="M336.379 223.735L217.222 224.317L176.049 308.786L294.187 308.495L336.379 223.735Z" fill="white"/>
<path d="M176.049 309.515L294.187 309.223C294.477 309.223 294.768 309.078 294.914 308.786L337.106 224.026C337.251 223.735 337.251 223.589 337.106 223.298C336.96 223.152 336.67 223.006 336.524 223.006L217.368 223.589C217.077 223.589 216.786 223.735 216.64 224.026L175.612 308.495C175.467 308.786 175.467 308.932 175.612 309.223C175.612 309.515 175.903 309.515 176.049 309.515ZM293.75 307.767L177.358 308.058L217.659 225.045L335.215 224.463L293.75 307.767Z" fill="black"/>
<path d="M261.015 258.104C264.361 257.813 268.144 258.687 269.453 261.745C270.762 264.804 269.744 268.736 267.271 271.066C264.797 273.396 261.015 274.125 257.668 273.396C255.922 272.959 254.031 272.086 253.013 270.629C252.285 269.61 251.994 268.299 251.994 266.988C251.994 262.765 254.031 258.833 261.015 258.104Z" fill="white"/>
<path d="M260.287 274.416C263.052 274.416 265.816 273.397 267.853 271.649C270.617 269.028 271.635 264.804 270.181 261.454C268.871 258.396 265.379 256.94 261.015 257.377C253.013 258.105 251.412 263.056 251.412 266.989C251.412 268.591 251.849 269.901 252.576 271.066C253.886 272.96 256.068 273.834 257.668 274.125C258.396 274.27 259.414 274.416 260.287 274.416ZM262.324 258.833C264.361 258.833 267.562 259.27 268.871 262.183C270.035 264.95 269.308 268.445 266.834 270.63C264.652 272.668 261.16 273.542 257.959 272.668C256.068 272.232 254.613 271.358 253.74 270.193C253.013 269.173 252.867 267.862 252.867 266.989C252.867 262.037 255.486 259.416 261.16 258.833C261.306 258.833 261.742 258.833 262.324 258.833Z" fill="black"/>
<path d="M47.8724 280.387C48.1634 280.387 48.4544 280.242 48.5999 279.95C56.8928 254.755 61.5485 238.881 61.5485 204.511C61.5485 204.074 61.2575 203.782 60.821 203.782C60.3845 203.782 60.0936 204.074 60.0936 204.511C60.0936 238.735 55.4379 254.61 47.145 279.513C46.9995 279.95 47.2905 280.387 47.5814 280.387C47.7269 280.387 47.8724 280.387 47.8724 280.387Z" fill="black"/>
<path d="M148.697 262.038C148.988 262.038 149.133 261.892 149.279 261.746C159.9 246.309 157.135 235.095 154.225 224.172C152.771 218.783 151.316 213.104 151.607 206.841C151.607 206.404 151.316 206.113 150.879 206.113C150.443 206.113 150.152 206.404 150.152 206.841C149.861 213.249 151.461 218.929 152.771 224.609C155.68 235.677 158.299 246.163 147.969 261.018C147.678 261.309 147.824 261.746 148.115 262.038C148.406 261.892 148.551 262.038 148.697 262.038Z" fill="black"/>
<path d="M113.925 224.172C124.691 224.172 135.603 223.152 146.078 220.531C146.224 220.531 146.224 220.385 146.224 220.24C146.224 220.094 146.078 220.094 145.933 220.094C119.308 226.793 90.5009 222.715 65.0402 219.22C64.8948 219.22 64.7493 219.366 64.7493 219.366C64.7493 219.511 64.8947 219.657 64.8947 219.657C80.4621 221.842 97.1935 224.172 113.925 224.172Z" fill="black"/>
<path d="M104.177 244.998C120.035 244.998 136.039 243.104 151.316 239.318C151.461 239.318 151.461 239.172 151.461 239.026C151.461 238.881 151.316 238.881 151.17 238.881C122.945 245.726 92.9742 246.308 64.4582 240.483C64.3127 240.483 64.1672 240.483 64.1672 240.628C64.1672 240.774 64.1672 240.92 64.3127 240.92C77.4068 243.687 90.7918 244.998 104.177 244.998Z" fill="black"/>
<path d="M4.22542 287.232C4.22542 287.232 4.37092 287.232 4.37092 287.086C14.4097 275.29 30.5591 269.464 45.8355 271.94C45.981 271.94 46.1265 271.94 46.1265 271.795C46.1265 271.649 46.1265 271.503 45.981 271.503C30.5591 268.882 14.1187 274.853 4.07994 286.795C3.93445 286.941 3.93445 287.086 4.07994 287.086C4.07994 287.232 4.07993 287.232 4.22542 287.232Z" fill="black"/>
<path d="M5.97135 276.455C7.71722 275.727 9.02663 274.561 10.336 273.542C10.7725 273.105 11.209 272.668 11.6455 272.377C14.4098 270.047 17.9015 268.59 21.5388 268.008C21.6843 268.008 21.8297 267.862 21.6842 267.717C21.6842 267.571 21.5388 267.425 21.3933 267.571C17.6105 268.153 14.1188 269.61 11.3545 272.086C10.918 272.523 10.4815 272.814 10.0451 273.251C8.73566 274.416 7.57173 275.581 5.97135 276.163C5.82586 276.163 5.82587 276.309 5.82587 276.455C5.82587 276.309 5.97135 276.455 5.97135 276.455Z" fill="black"/>
</svg>
