<svg width="117" height="47" viewBox="0 0 117 47" fill="none" xmlns="http://www.w3.org/2000/svg">
<rect y="7.49512" width="39" height="38.9712" rx="19.4856" fill="#F7931D"/>
<path d="M16.7937 13.4589C16.7438 13.5917 16.6732 13.7121 16.5776 13.8242C16.3284 14.1024 15.9544 14.2186 15.5971 14.3266C15.3021 14.4138 15.003 14.5051 14.6955 14.5051C14.0847 14.5093 13.5197 14.1771 12.9089 14.1481C12.4976 14.1273 12.0946 14.2477 11.6874 14.3183C10.9188 14.447 10.3038 14.1398 9.73463 13.6374C8.72501 12.7489 8.77902 10.2496 9.75541 8.66359C10.79 6.99043 12.3979 7.07761 12.6222 5.6411C12.751 4.8149 12.2068 4.47031 12.481 3.59013C12.6264 3.12929 13.0419 2.73487 13.8728 1.94188C15.0154 0.854117 15.4891 0.692199 15.6553 0.638226C15.9378 0.551039 16.5029 0.380816 17.1053 0.629922C17.2881 0.704654 17.7327 0.887332 17.8906 1.33157C18.0609 1.79657 17.8116 2.26157 17.6787 2.51482C17.3754 3.07946 16.9931 3.23308 16.7771 3.49464C15.809 4.68204 17.633 6.36351 17.2009 9.04555C17.1095 9.62265 16.8768 10.1416 16.7272 10.7021C16.5319 11.4287 16.8352 11.6155 16.8851 12.2673C16.9142 12.6617 16.9308 13.0935 16.7937 13.4589Z" fill="black"/>
<path d="M22.2341 39.1253L21.7812 40.1135C21.802 40.1965 21.8477 40.2795 21.9391 40.3833C22.4211 40.9314 23.7216 40.4954 24.0332 40.3916C25.1758 40.0097 25.3212 39.5364 26.3516 39.171C27.0579 38.9219 27.6936 38.897 28.1049 38.9136C28.0551 38.814 27.972 38.6562 27.8141 38.515C27.5939 38.3158 27.2158 38.1165 26.5967 38.1123C25.3586 38.1082 22.2341 39.1253 22.2341 39.1253Z" fill="white"/>
<path d="M22.7165 40.7441C22.2594 40.7441 22.006 40.6029 21.8689 40.4451C21.7733 40.333 21.7152 40.2376 21.6902 40.1379C21.6861 40.1171 21.6861 40.0964 21.6944 40.0798L22.1473 39.0917C22.1597 39.0668 22.1763 39.0501 22.2013 39.0418C22.3301 39.0003 25.3465 38.0205 26.5846 38.0205C26.5888 38.0205 26.5888 38.0205 26.5929 38.0205C27.2619 38.0205 27.6566 38.253 27.8685 38.444C28.0347 38.5935 28.1261 38.7595 28.1801 38.8716C28.1925 38.9007 28.1925 38.9339 28.1759 38.963C28.1593 38.9879 28.1302 39.0086 28.097 39.0045C27.4945 38.9837 26.917 39.0668 26.3769 39.2577C25.8949 39.428 25.6124 39.6189 25.3174 39.8224C24.9975 40.0424 24.6651 40.2708 24.0585 40.4742C23.4851 40.6693 23.0489 40.7441 22.7165 40.7441ZM21.8772 40.1213C21.898 40.1836 21.9395 40.2459 22.006 40.3247C22.1722 40.5116 22.65 40.7607 24.0003 40.304C24.582 40.1088 24.9019 39.8888 25.2135 39.6729C25.5044 39.4695 25.8077 39.2619 26.3146 39.0834C26.8173 38.9048 27.3574 38.8176 27.9142 38.8176C27.9225 38.8176 27.9308 38.8176 27.9433 38.8176C27.8976 38.7429 27.8352 38.6599 27.748 38.581C27.4738 38.336 27.0749 38.2032 26.5929 38.2032H26.5888C25.4504 38.2032 22.6583 39.0875 22.301 39.2038L21.8772 40.1213Z" fill="black"/>
<path d="M26.1412 43.7342C26.1412 43.7342 28.2394 44.5397 28.2394 43.1654C28.2394 43.1198 26.5151 37.5605 26.5151 37.5605L24.043 38.8974L26.1412 43.7342Z" fill="white"/>
<path d="M27.3142 44.0573C26.745 44.0573 26.1467 43.829 26.1093 43.8165C26.0844 43.8082 26.0678 43.7916 26.0595 43.7667L23.9613 38.9257C23.9405 38.8842 23.9613 38.8302 24.0028 38.8095L26.475 37.4726C26.4999 37.4602 26.529 37.456 26.5539 37.4685C26.5788 37.4768 26.5996 37.5017 26.6079 37.5266C28.3363 43.1024 28.3363 43.1439 28.3363 43.1605C28.3363 43.4885 28.2241 43.7293 28.0081 43.8829C27.8128 44.0158 27.5677 44.0573 27.3142 44.0573ZM26.209 43.6587C26.4126 43.7293 27.4181 44.0615 27.8959 43.7335C28.0621 43.6172 28.1452 43.4345 28.1452 43.173C28.0912 42.9654 27.04 39.5734 26.4583 37.6885L24.1607 38.934L26.209 43.6587Z" fill="black"/>
<path d="M25.8824 45.1701H31.0843C31.2256 45.1701 31.3336 45.0455 31.3128 44.9085L31.2754 44.6137C31.1757 44.3522 30.9887 44.1321 30.7394 44.0034L27.9183 42.4922C27.9183 42.4922 27.0084 42.6832 27.0873 43.6381C27.0873 43.6381 26.4766 43.0485 25.9115 43.4637C25.9115 43.4637 25.6913 44.1944 25.7079 45.0082C25.7079 45.0953 25.7869 45.1701 25.8824 45.1701Z" fill="white"/>
<path d="M31.0817 45.2614H25.884C25.7428 45.2614 25.6223 45.1451 25.6181 45.004C25.6015 44.1902 25.8134 43.4636 25.8259 43.4346C25.83 43.4138 25.8425 43.3972 25.8591 43.3889C26.2663 43.0941 26.7191 43.2561 26.9975 43.447C27.0474 42.5959 27.895 42.4049 27.9033 42.4049C27.9241 42.4008 27.9448 42.4049 27.9656 42.4133L30.7867 43.9245C31.0526 44.0657 31.2604 44.3023 31.3643 44.5846C31.3684 44.5929 31.3684 44.5971 31.3684 44.6054L31.4058 44.9002C31.4183 44.9915 31.3892 45.087 31.3269 45.1534C31.2645 45.224 31.1773 45.2614 31.0817 45.2614ZM25.9879 43.5176C25.9463 43.6629 25.7843 44.3065 25.7968 45.004C25.7968 45.0496 25.8342 45.0828 25.8799 45.0828H31.0817C31.1233 45.0828 31.1607 45.0662 31.1898 45.033C31.2188 45.004 31.2271 44.9624 31.223 44.9209L31.1856 44.6344C31.0942 44.3978 30.9197 44.2027 30.6953 44.0823L27.9074 42.5876C27.7537 42.6291 27.1139 42.8533 27.1803 43.6297C27.1845 43.6671 27.1637 43.7045 27.1305 43.7211C27.0972 43.7377 27.0557 43.7294 27.0266 43.7044C27.0017 43.6795 26.4782 43.1896 25.9879 43.5176Z" fill="black"/>
<path d="M29.6292 44.1997C29.625 44.1997 29.6209 44.1997 29.6167 44.1997C28.2456 43.9837 27.4354 43.2649 27.398 43.2358C27.3606 43.2026 27.3565 43.1444 27.3897 43.107C27.423 43.0696 27.4811 43.0655 27.5185 43.0987C27.5268 43.107 28.3287 43.8133 29.6416 44.0169C29.6915 44.0252 29.7247 44.0709 29.7164 44.1208C29.7123 44.1665 29.6749 44.1997 29.6292 44.1997Z" fill="black"/>
<path d="M31.1231 44.926H25.8922C25.8423 44.926 25.8008 44.8844 25.8008 44.8346C25.8008 44.7847 25.8423 44.7432 25.8922 44.7432H31.1231C31.173 44.7432 31.2145 44.7847 31.2145 44.8346C31.2145 44.8886 31.173 44.926 31.1231 44.926Z" fill="black"/>
<path d="M15.0497 40.5908C14.5885 40.4911 13.7076 40.296 13.5124 39.694C13.3628 39.2373 13.6786 38.764 13.7533 38.6561C14.6425 37.3233 17.5841 36.9455 19.2502 38.2492C20.131 38.9384 20.7252 40.1507 20.4136 40.5368C20.2266 40.7735 19.8277 40.5451 18.8513 40.4621C17.0357 40.3043 16.5703 40.9271 15.0497 40.5908Z" fill="white"/>
<path d="M15.9231 40.7855C15.6614 40.7855 15.3706 40.7565 15.0299 40.6817C14.5437 40.5738 13.638 40.3745 13.4261 39.7227C13.3222 39.3988 13.4053 39.0127 13.6754 38.6059C14.0742 38.008 14.872 37.5762 15.8691 37.4143C17.1488 37.2109 18.4327 37.4932 19.3052 38.1782C19.9617 38.693 20.5101 39.5358 20.5807 40.1379C20.6015 40.3371 20.5724 40.4908 20.4852 40.5987C20.3314 40.7897 20.0904 40.7482 19.6874 40.6776C19.4672 40.6402 19.193 40.5904 18.844 40.5572C18.0006 40.4824 17.4397 40.5821 16.9452 40.6693C16.6212 40.7274 16.2971 40.7855 15.9231 40.7855ZM15.0714 40.5032C15.8567 40.6776 16.3469 40.5904 16.9162 40.4908C17.4189 40.3994 17.9923 40.2998 18.8606 40.3745C19.2179 40.4077 19.4963 40.4575 19.7207 40.4949C20.1029 40.5613 20.2608 40.5862 20.3397 40.4824C20.3938 40.416 20.4145 40.3039 20.3979 40.1586C20.3439 39.677 19.8744 38.8591 19.193 38.3235C18.3579 37.6717 17.1281 37.3977 15.8982 37.597C14.9509 37.7506 14.1989 38.1533 13.8291 38.7096C13.5923 39.0667 13.5133 39.3988 13.6006 39.6687C13.7834 40.2167 14.6227 40.4036 15.0714 40.5032Z" fill="black"/>
<path d="M15.3089 38.1084C15.2341 38.1541 16.1855 43.9416 16.1855 43.9416L18.0843 44.1741L18.0012 38.5983L15.3089 38.1084Z" fill="white"/>
<path d="M18.0833 44.2656C18.0792 44.2656 18.075 44.2656 18.0708 44.2656L16.1721 44.0331C16.1305 44.0289 16.1015 43.9957 16.0931 43.9584C16.089 43.9459 15.8522 42.4928 15.6278 41.0563C15.1625 38.0919 15.1874 38.0753 15.258 38.0296C15.2788 38.0172 15.2996 38.013 15.3245 38.0172L18.0168 38.5071C18.0584 38.5154 18.0916 38.5528 18.0916 38.5943L18.1747 44.1701C18.1747 44.195 18.1622 44.2199 18.1456 44.2407C18.1249 44.2573 18.1041 44.2656 18.0833 44.2656ZM16.2635 43.8629L17.9877 44.0746L17.9088 38.6773L15.3993 38.2206C15.4491 38.8019 15.9269 41.8036 16.2635 43.8629Z" fill="black"/>
<path d="M21.1578 45.1712H15.9351C15.9351 45.1712 15.744 43.8758 16.0432 43.2987L16.2052 43.4814C16.2883 43.5769 16.4337 43.5852 16.5293 43.498C16.737 43.3112 17.1027 43.0081 17.4184 42.8628C18.0292 42.5846 20.0775 43.9672 20.8628 44.4363C21.0497 44.5484 21.1619 44.7477 21.1619 44.9636V45.1712H21.1578Z" fill="white"/>
<path d="M21.1585 45.2618H15.9358C15.8901 45.2618 15.8527 45.2285 15.8444 45.1829C15.8361 45.1289 15.6491 43.8502 15.9608 43.2565C15.9732 43.2315 16.0023 43.2108 16.0314 43.2066C16.0605 43.2025 16.0896 43.2149 16.1103 43.2357L16.2724 43.4184C16.2973 43.4474 16.3305 43.4599 16.3679 43.464C16.4053 43.464 16.4386 43.4557 16.4676 43.4308C16.7086 43.2149 17.0659 42.9243 17.3776 42.7832C17.9011 42.5465 19.2098 43.3063 20.502 44.1117C20.6557 44.2072 20.7928 44.2944 20.905 44.3608C21.1169 44.4895 21.2499 44.7179 21.2499 44.967V45.1746C21.2499 45.2244 21.2083 45.2618 21.1585 45.2618ZM16.0148 45.0791H21.067V44.9628C21.067 44.7802 20.9715 44.6099 20.8136 44.5144C20.7014 44.448 20.5643 44.3608 20.4064 44.2653C19.5422 43.7298 17.9343 42.7292 17.4565 42.9492C17.149 43.0904 16.7834 43.3976 16.5923 43.5678C16.53 43.626 16.4469 43.6509 16.3596 43.6509C16.2724 43.6467 16.1976 43.6094 16.1394 43.5429L16.0729 43.4682C15.8984 43.9664 15.9815 44.8217 16.0148 45.0791Z" fill="black"/>
<path d="M20.914 44.8557H16.0445C15.9947 44.8557 15.9531 44.8141 15.9531 44.7643C15.9531 44.7144 15.9947 44.6729 16.0445 44.6729H20.914C20.9639 44.6729 21.0054 44.7144 21.0054 44.7643C21.0054 44.8183 20.9639 44.8557 20.914 44.8557Z" fill="black"/>
<path d="M18.7251 44.2327C18.7127 44.2327 18.6961 44.2286 18.6836 44.2244L17.1754 43.4641C17.1297 43.4433 17.1131 43.3852 17.1338 43.3395C17.1546 43.2938 17.2128 43.2771 17.2585 43.2979L18.7667 44.0582C18.8124 44.079 18.829 44.1372 18.8082 44.1829C18.7875 44.2161 18.7584 44.2327 18.7251 44.2327Z" fill="black"/>
<path d="M28.1007 38.9093C27.0953 35.7249 26.0815 32.5446 25.0594 29.3685C23.68 25.0839 22.284 20.8076 20.8713 16.5354C18.6776 16.7928 13.779 15.128 14.2901 17.3076C14.5435 18.3871 14.5186 18.6279 14.4937 19.0265C14.2818 22.1652 13.9535 24.4113 13.9618 25.196C13.9702 25.8935 13.9992 27.9818 13.9494 30.8424C13.9411 31.3074 13.9286 31.8056 13.9078 32.4076C13.7998 35.4301 13.5962 36.165 13.5838 38.627C13.5796 38.9715 13.5838 39.3078 13.5879 39.6317C14.7056 39.4116 15.9811 39.3535 17.3314 39.6566C18.3992 39.8974 18.5239 40.1423 19.4836 40.2752C19.7994 40.3167 20.0944 40.3333 20.3769 40.325C19.5916 29.8128 19.6498 27.4006 19.6498 27.4006C19.949 29.738 20.3229 32.1751 20.7841 34.6994C21.1248 36.5552 21.4904 38.3488 21.8768 40.0801C23.0152 39.7438 24.0165 39.1542 25.3752 38.9051C26.0857 38.7723 26.9956 38.7183 28.1007 38.9093Z" fill="#1E488D"/>
<path d="M19.6506 27.3139C19.6008 27.3139 19.5592 27.2765 19.5592 27.2267L19.418 22.0702C19.418 22.0412 19.4304 22.0079 19.4595 21.9913L20.1326 21.5305C20.1741 21.5014 20.2323 21.5139 20.2614 21.5554C20.2905 21.5969 20.278 21.655 20.2365 21.6841L19.6049 22.12L19.742 27.2267C19.742 27.2724 19.7005 27.3139 19.6506 27.3139Z" fill="white"/>
<path d="M26.6611 7.26465L25.7844 7.32277C25.6805 7.70058 25.4852 8.25277 25.1113 8.83402C24.7623 9.37375 24.0227 10.5238 23.1211 10.5528C22.1946 10.5819 21.5174 8.61397 20.3374 7.57188C18.796 7.43902 17.4872 7.5013 16.4942 7.60509C15.1979 7.7421 14.2173 7.97045 13.8185 8.07009C12.8379 8.31504 11.9945 8.61397 11.2716 8.9046C10.8519 10.2332 9.62624 13.4757 10.1664 17.3285C10.5777 20.2763 13.7686 22.1363 14.6287 23.0953C14.8406 22.8587 15.0192 22.5805 15.1646 22.2857C14.9153 21.8332 14.5373 21.1565 14.0761 20.3344C13.1952 18.7567 13.0207 18.4578 12.946 18.3166C12.5554 17.5735 12.3809 16.3446 13.0748 14.1856C13.0415 14.5925 13.0332 15.0368 13.0623 15.5059C13.1412 16.7514 13.2119 17.8433 13.9514 18.3499C14.5746 18.7816 15.0317 18.3416 17.6783 17.8932C19.8471 17.5278 20.7612 17.615 21.401 16.8137C21.7542 16.3736 21.8622 15.8671 21.8996 15.5017C21.7293 14.7005 21.5631 13.8867 21.3969 13.073C22.124 13.4549 22.9466 13.6168 23.6322 13.5006C25.5559 13.1892 27.2926 10.5528 26.6611 7.26465Z" fill="white"/>
<path d="M14.6264 23.1866C14.6015 23.1866 14.5766 23.1741 14.5599 23.1575C14.3647 22.9375 14.0323 22.6634 13.65 22.3479C12.3537 21.2684 10.3926 19.6368 10.0727 17.345C9.57413 13.7911 10.5796 10.723 11.0616 9.24908C11.1073 9.11623 11.1447 8.99168 11.1821 8.88373C11.1904 8.85882 11.2111 8.83806 11.2361 8.8256C12.1127 8.4727 12.9479 8.19869 13.7954 7.98695C14.6389 7.77521 15.5696 7.61329 16.4836 7.5178C17.755 7.38494 19.0555 7.37249 20.3476 7.48458C20.3684 7.48458 20.385 7.49289 20.4016 7.50534C20.8961 7.94128 21.3115 8.54744 21.673 9.07886C22.1799 9.82203 22.6162 10.4614 23.1023 10.4614C23.1064 10.4614 23.1147 10.4614 23.1189 10.4614C23.9706 10.4365 24.6894 9.31966 25.0343 8.78409C25.3293 8.32739 25.5495 7.82918 25.699 7.29775C25.7074 7.26039 25.7406 7.23133 25.7821 7.23133L26.6588 7.1732C26.7045 7.16905 26.7461 7.20226 26.7544 7.24793C27.0951 9.01243 26.7752 10.7603 25.8819 12.0432C25.2794 12.9068 24.4858 13.459 23.6507 13.6001C23.0026 13.7081 22.2381 13.5794 21.5276 13.2472C21.6979 14.0983 21.8475 14.8166 21.9929 15.4933C21.9929 15.5016 21.9971 15.5099 21.9929 15.5224C21.9389 16.0621 21.7644 16.5188 21.4736 16.88C20.9584 17.5236 20.2645 17.619 19.0098 17.7934C18.6275 17.8474 18.1954 17.9055 17.6927 17.9927C16.7371 18.1546 16.064 18.3165 15.5737 18.4328C14.6929 18.6445 14.3273 18.7317 13.8952 18.4328C13.1224 17.9014 13.0517 16.797 12.9686 15.5183C12.9562 15.3273 12.952 15.1321 12.9479 14.937C12.5822 16.3652 12.6072 17.4903 13.0226 18.2792C13.0559 18.3456 13.1182 18.4535 13.2636 18.7151C13.4257 19.0016 13.6916 19.4749 14.1528 20.2969C14.6139 21.119 14.992 21.7957 15.2413 22.2483C15.2579 22.2732 15.2579 22.3064 15.2413 22.3355C15.0793 22.6551 14.8965 22.9333 14.6929 23.1658C14.6763 23.1741 14.6513 23.1866 14.6264 23.1866ZM11.3441 8.97507C11.3109 9.07471 11.2776 9.18266 11.2361 9.30306C10.7583 10.7645 9.7611 13.8036 10.2514 17.316C10.563 19.5413 12.4908 21.1439 13.7664 22.2067C14.1112 22.4932 14.4145 22.7465 14.6223 22.9582C14.7801 22.7672 14.9297 22.543 15.0585 22.2898C14.8092 21.8372 14.4394 21.1771 13.9949 20.38C13.5378 19.5621 13.2678 19.0888 13.1057 18.8023C12.952 18.5324 12.898 18.4328 12.8606 18.3622C12.3579 17.3948 12.3994 15.9832 12.9852 14.1565C12.9977 14.1108 13.0434 14.0859 13.0891 14.0942C13.1348 14.1025 13.1681 14.144 13.1639 14.1897C13.1307 14.6256 13.1265 15.0657 13.1514 15.4975C13.2304 16.7306 13.301 17.7934 13.999 18.275C14.3647 18.5283 14.6596 18.4577 15.528 18.246C16.0224 18.1297 16.6955 17.9678 17.6594 17.8017C18.1622 17.7145 18.5984 17.6564 18.9807 17.6024C20.2313 17.4281 20.8587 17.3409 21.3282 16.7555C21.5941 16.4233 21.7561 16.004 21.806 15.5058C21.6522 14.7834 21.4944 14.0153 21.3074 13.0895C21.2991 13.0563 21.3157 13.0189 21.3406 12.9981C21.3697 12.9774 21.4071 12.9732 21.4362 12.9898C22.155 13.3676 22.9485 13.5213 23.6133 13.4092C24.4027 13.2763 25.1548 12.7532 25.7281 11.9311C26.5799 10.7064 26.8915 9.04565 26.5882 7.35588L25.8569 7.4057C25.7074 7.93297 25.483 8.42703 25.188 8.87958C24.8265 9.44007 24.0745 10.6109 23.1272 10.6399C23.1189 10.6399 23.1106 10.6399 23.1064 10.6399C22.5248 10.6399 22.0594 9.96319 21.5234 9.1785C21.1703 8.66369 20.7714 8.07829 20.3019 7.65896C19.0347 7.55101 17.755 7.56347 16.5044 7.69217C15.5945 7.78766 14.6721 7.94958 13.8411 8.15717C13.0143 8.36891 12.1958 8.63462 11.3441 8.97507Z" fill="black"/>
<path d="M25.6472 6.00272L26.1167 4.44581C26.15 4.33787 26.2538 4.26729 26.366 4.27974C26.4948 4.2922 26.5862 4.40845 26.5738 4.53715L26.5073 5.17652L27.1264 5.67473C27.3175 5.82835 27.3923 6.08161 27.3133 6.31411L27.1056 6.92857C27.0017 7.2358 26.7192 7.44754 26.3951 7.46415L26.179 7.4766C25.8425 7.49321 25.535 7.29392 25.4104 6.98254L25.265 6.61719C25.1736 6.38884 25.2941 6.12728 25.5309 6.04839L25.6472 6.00272Z" fill="white"/>
<path d="M26.1422 7.56353C25.7848 7.56353 25.4608 7.34764 25.3237 7.01135L25.1782 6.64599C25.1242 6.50898 25.1284 6.36367 25.1907 6.23082C25.253 6.09796 25.3611 6.00247 25.5023 5.9568L25.5771 5.93189L26.03 4.42065C26.0757 4.27118 26.2211 4.17569 26.379 4.1923C26.5535 4.21306 26.6823 4.37083 26.6657 4.54935L26.6033 5.1389L27.185 5.6039C27.4052 5.77827 27.4925 6.0772 27.4011 6.34291L27.1933 6.95737C27.077 7.30197 26.7654 7.53447 26.4039 7.55523L26.1879 7.56768C26.1712 7.56353 26.1546 7.56353 26.1422 7.56353ZM26.3416 4.37083C26.2793 4.37083 26.2253 4.41234 26.2045 4.47047L25.735 6.02738C25.7267 6.05644 25.7059 6.0772 25.6768 6.08966L25.5563 6.13117C25.4649 6.16024 25.3943 6.22251 25.3569 6.3097C25.3154 6.39689 25.3154 6.49238 25.3486 6.57956L25.494 6.94492C25.602 7.21894 25.8763 7.39331 26.1754 7.38085L26.3915 7.3684C26.6781 7.35594 26.9274 7.16911 27.0188 6.8951L27.2266 6.28064C27.2931 6.0855 27.2266 5.86961 27.0687 5.74091L26.4496 5.2427C26.4247 5.22194 26.4122 5.19287 26.4164 5.15966L26.4829 4.52029C26.4912 4.44141 26.433 4.37498 26.3582 4.36667C26.3499 4.37082 26.3458 4.37083 26.3416 4.37083Z" fill="black"/>
<path d="M25.6484 6.00195L26.1886 6.07259C26.1886 6.07259 26.2675 6.50884 25.9268 6.50053L25.6484 6.00195Z" fill="white"/>
<path d="M25.9376 6.59215C25.9334 6.59215 25.9293 6.59215 25.9251 6.59215C25.8753 6.59215 25.8337 6.5506 25.8379 6.49659C25.8379 6.44673 25.8794 6.40934 25.9334 6.40518C25.9875 6.40934 26.029 6.39272 26.0581 6.35948C26.1038 6.30546 26.1121 6.21406 26.1079 6.14758L25.6426 6.08941C25.5927 6.0811 25.5553 6.0354 25.5637 5.98554C25.572 5.93568 25.6177 5.90245 25.6675 5.9066L26.2077 5.97723C26.2492 5.98139 26.2783 6.01047 26.2866 6.05202C26.2908 6.0811 26.3323 6.33039 26.2035 6.47997C26.1495 6.53398 26.0705 6.59215 25.9376 6.59215Z" fill="black"/>
<path d="M26.5419 6.17343C26.5377 6.17343 26.5336 6.17343 26.5253 6.17343C26.4754 6.16512 26.4422 6.11942 26.4505 6.06956L26.5834 5.29676C26.5918 5.2469 26.6375 5.21367 26.6873 5.22198C26.7372 5.23029 26.7704 5.27599 26.7621 5.32585L26.6291 6.09865C26.625 6.14019 26.5834 6.17343 26.5419 6.17343Z" fill="black"/>
<path d="M26.9286 6.36052C26.9245 6.36052 26.9162 6.36052 26.912 6.36052C26.8621 6.35221 26.8289 6.30236 26.8372 6.2525L26.9494 5.63758C26.9577 5.58773 27.0076 5.55449 27.0574 5.5628C27.1073 5.57111 27.1405 5.62096 27.1322 5.67082L27.02 6.28574C27.0076 6.32729 26.9702 6.36052 26.9286 6.36052Z" fill="black"/>
<path d="M21.365 12.5793C21.3234 12.5793 21.286 12.5502 21.2777 12.5087L20.6628 9.80588C20.6503 9.75606 20.6836 9.70624 20.7334 9.69794C20.7833 9.68548 20.8331 9.7187 20.8414 9.76852L21.4564 12.4713C21.4688 12.5211 21.4356 12.571 21.3857 12.5793C21.3774 12.5793 21.3733 12.5793 21.365 12.5793Z" fill="black"/>
<path d="M14.0788 23.577C14.0414 23.577 14.0082 23.5562 13.9957 23.5188C13.9749 23.4732 13.9998 23.4192 14.0455 23.3984C15.8654 22.6594 15.5995 18.5741 15.5953 18.5326C15.5911 18.4828 15.6285 18.4371 15.6784 18.4329C15.7324 18.4288 15.774 18.4661 15.7781 18.516C15.7906 18.6903 16.0565 22.7757 14.1162 23.5645C14.1037 23.577 14.0912 23.577 14.0788 23.577Z" fill="white"/>
<path d="M18.0995 7.49665C17.5427 7.40531 17.1439 6.91125 17.1729 6.35076L17.2186 5.47889C17.7463 5.43737 18.1826 5.18827 18.1826 5.0222C18.1826 4.93916 17.9873 4.15033 17.8668 3.82234C17.9707 3.7393 18.0912 3.51095 17.8751 3.36979C17.6549 3.22863 17.1605 2.34016 17.1605 2.34016C16.5497 1.63436 16.3752 2.63078 15.9182 2.71382C15.6024 2.77194 15.4321 2.96292 15.5526 3.37395C15.673 3.78497 15.4445 3.57738 15.2119 3.46113C14.9792 3.34488 14.8213 3.43622 14.9501 3.80988C15.0789 4.18354 15.5401 4.40774 15.5401 4.40774L15.7603 4.83952L15.295 6.95692C15.2077 7.35549 14.9169 7.68348 14.5305 7.82049L13.8906 8.04883L17.2477 9.80088L18.8681 7.6212L18.0995 7.49665Z" fill="white"/>
<path d="M17.2571 9.89275C17.2446 9.89275 17.228 9.8886 17.2156 9.8803L13.8585 8.12825C13.8252 8.11164 13.8086 8.07843 13.8086 8.04106C13.8127 8.0037 13.8335 7.97464 13.8709 7.96218L14.5108 7.73383C14.8722 7.60513 15.134 7.3062 15.2129 6.93669L15.67 4.85251L15.4788 4.47885C15.3708 4.42072 14.9886 4.19653 14.8681 3.84363C14.7933 3.61943 14.8016 3.46167 14.8972 3.37863C14.947 3.33711 15.055 3.28314 15.2586 3.38278C15.3002 3.40354 15.3459 3.42845 15.3874 3.45336C15.4207 3.46997 15.4622 3.49488 15.4955 3.51149C15.4913 3.48658 15.483 3.45336 15.4705 3.39939C15.4082 3.17935 15.4165 3.00082 15.4996 2.86381C15.5786 2.73926 15.7157 2.65622 15.9109 2.62301C16.0439 2.5981 16.1602 2.46109 16.2724 2.33239C16.4137 2.16632 16.5591 1.99609 16.7668 1.99609C16.9164 1.99609 17.0701 2.08743 17.2363 2.27841C17.2405 2.28257 17.2446 2.28672 17.2488 2.29502C17.4358 2.63131 17.7848 3.20011 17.9302 3.29144C18.059 3.37448 18.0881 3.47827 18.0964 3.54885C18.1047 3.66095 18.0507 3.7689 17.9842 3.84363C18.1047 4.19653 18.2834 4.92309 18.2834 5.01858C18.2834 5.25108 17.8346 5.50018 17.3153 5.56246L17.2737 6.35545C17.2488 6.87027 17.6103 7.32281 18.1213 7.40584L18.8983 7.53455C18.9315 7.5387 18.9564 7.55946 18.9689 7.58852C18.9814 7.61758 18.9772 7.6508 18.9564 7.67571L17.336 9.85538C17.3111 9.8803 17.282 9.89275 17.2571 9.89275ZM14.1285 8.06598L17.228 9.68516L18.7113 7.68816L18.0839 7.58437C17.4815 7.48473 17.0494 6.9533 17.0826 6.34299L17.1283 5.47112C17.1325 5.42545 17.1657 5.38809 17.2114 5.38393C17.7474 5.34242 18.0922 5.09331 18.0922 5.01858C18.0881 4.9397 17.9011 4.17577 17.7848 3.84778C17.7723 3.81042 17.7806 3.7689 17.8139 3.74399C17.8554 3.71077 17.9136 3.62774 17.9094 3.55716C17.9053 3.51149 17.8803 3.47412 17.8305 3.44091C17.602 3.2956 17.1615 2.51091 17.0909 2.38636C16.9663 2.2452 16.8582 2.17462 16.7668 2.17462C16.6422 2.17462 16.53 2.30748 16.4095 2.44448C16.2766 2.5981 16.1353 2.76002 15.94 2.79738C15.7988 2.8223 15.7032 2.87627 15.6533 2.95515C15.5993 3.04234 15.5952 3.1752 15.645 3.34127C15.6907 3.49488 15.7032 3.61113 15.6243 3.67341C15.537 3.73984 15.4248 3.67756 15.2919 3.60283C15.2545 3.58207 15.2129 3.55716 15.1714 3.5364C15.0841 3.49073 15.0301 3.49488 15.0135 3.50734C14.9969 3.52394 14.9761 3.59868 15.0343 3.77305C15.1465 4.10519 15.5744 4.31693 15.5786 4.31693C15.5952 4.32523 15.6118 4.34184 15.6201 4.35845L15.8403 4.79023C15.8486 4.81099 15.8528 4.83175 15.8486 4.85251L15.3916 6.97406C15.296 7.41 14.9886 7.75459 14.5689 7.90406L14.1285 8.06598Z" fill="black"/>
<path d="M17.032 5.59586C16.6332 5.59586 16.388 5.30917 16.3049 5.13052C16.2842 5.08481 16.3049 5.0308 16.3507 5.01002C16.3964 4.98925 16.4504 5.01003 16.4711 5.05573C16.4794 5.0765 16.6955 5.51276 17.2024 5.39642C17.2522 5.38396 17.3021 5.41304 17.3146 5.4629C17.327 5.51276 17.2938 5.56262 17.2481 5.57508C17.1692 5.58755 17.0985 5.59586 17.032 5.59586Z" fill="black"/>
<rect x="39" y="7.99414" width="39" height="38.9712" rx="19.4856" fill="#FDC799"/>
<g clip-path="url(#clip0_769_7197)">
<path d="M59.4453 41.2567L58.8163 45.4032L57.2911 44.6284L57.7306 40.4863L59.4453 41.2567Z" fill="white"/>
<path d="M58.8147 45.4976C58.8276 45.4976 58.8449 45.4933 58.8578 45.489C58.8836 45.476 58.9052 45.45 58.9095 45.4197L59.5385 41.2733C59.5428 41.23 59.5213 41.1911 59.4825 41.1738L57.7635 40.4033C57.7376 40.3904 57.7031 40.3947 57.6773 40.4077C57.6514 40.425 57.6342 40.451 57.6299 40.4813L57.1948 44.619C57.1904 44.658 57.212 44.6969 57.2465 44.7142L58.7716 45.4933C58.7846 45.4976 58.8018 45.4976 58.8147 45.4976ZM59.3403 41.3166L58.7415 45.2596L57.3929 44.5714L57.8065 40.6284L59.3403 41.3166Z" fill="black"/>
<path d="M59.2077 43.8357C59.38 44.2339 59.548 44.9913 59.7161 45.9782C59.7936 46.4456 59.4317 46.8698 58.9535 46.8698H53.3483C52.9605 46.8698 52.7796 46.398 53.0682 46.1426C54.1841 45.1515 55.8945 44.0521 57.368 43.4072L57.9324 44.2036C57.9281 44.2036 59.1603 43.7232 59.2077 43.8357Z" fill="white"/>
<path d="M53.3448 46.9649H58.9543C59.2128 46.9649 59.4584 46.8524 59.6221 46.6533C59.7858 46.4585 59.8547 46.2075 59.8117 45.9608C59.6264 44.8614 59.4627 44.1732 59.299 43.7967C59.2645 43.7144 59.2171 43.6062 57.9634 44.091L57.4421 43.3552C57.4162 43.3162 57.3688 43.3032 57.3257 43.3249C55.8781 43.9568 54.1375 45.0648 53.0001 46.0733C52.8364 46.2161 52.7847 46.4325 52.8622 46.6359C52.9398 46.835 53.1294 46.9649 53.3448 46.9649ZM59.1396 43.9135C59.2903 44.2814 59.4455 44.9436 59.6221 45.991C59.6566 46.1815 59.6006 46.3806 59.4756 46.5277C59.3464 46.6836 59.1568 46.7701 58.9543 46.7701H53.3491C53.1811 46.7701 53.082 46.6619 53.0432 46.5624C53.0044 46.4628 53.0087 46.32 53.1294 46.2118C54.2366 45.2293 55.9169 44.1559 57.3343 43.524L57.8513 44.2598C57.8772 44.2944 57.9203 44.3074 57.9634 44.2944C58.4287 44.1126 58.9845 43.9265 59.1396 43.9135Z" fill="black"/>
<path d="M53.4519 46.4796H59.3544C59.4061 46.4796 59.4492 46.4363 59.4492 46.3844C59.4492 46.3324 59.4061 46.2891 59.3544 46.2891H53.4476C53.3959 46.2891 53.3528 46.3324 53.3528 46.3844C53.3572 46.4363 53.3959 46.4796 53.4519 46.4796Z" fill="black"/>
<path d="M56.6716 45.2907C56.6889 45.2907 56.7061 45.2864 56.719 45.2777C56.7621 45.2518 56.7793 45.1911 56.7535 45.1478L56.1762 44.1689C56.1503 44.1213 56.09 44.1083 56.0469 44.1343C56.0038 44.1602 55.9866 44.2209 56.0124 44.2642L56.5898 45.2431C56.607 45.2734 56.6415 45.2907 56.6716 45.2907Z" fill="black"/>
<path d="M55.8256 45.4337C55.8428 45.4337 55.8558 45.4294 55.873 45.4208C55.9204 45.3948 55.9333 45.3385 55.9118 45.2908L55.5369 44.6194C55.5111 44.5718 55.4551 44.5588 55.4077 44.5805C55.3603 44.6065 55.3474 44.6628 55.3689 44.7104L55.7438 45.3818C55.761 45.4164 55.7955 45.4337 55.8256 45.4337Z" fill="black"/>
<path d="M55.6731 14.5469C55.6731 14.5469 51.425 21.0089 49.9774 25.112C49.7017 25.8911 49.9128 26.761 50.5203 27.3237C52.2049 28.8948 55.8153 32.2102 58.1289 34.0627L58.8225 32.2968C58.8225 32.2968 57.9867 28.211 54.8502 26.3715L58.7364 20.5501L59.5938 16.0141L55.6731 14.5469Z" fill="#F7931D"/>
<path d="M63.0391 16.2952C63.0391 16.2952 61.781 25.9557 61.5871 28.4228C61.3933 30.8899 61.5699 33.6339 61.669 35.6509C61.7638 37.6635 59.4889 42.3509 59.4889 42.3509L57.296 41.9614L56.891 19.2687L56.3007 15.0703L63.0391 16.2952Z" fill="#F7931D"/>
<path d="M57.1474 33.7419C57.1991 33.7419 57.2422 33.6986 57.2422 33.6467L57.2293 30.1538C57.2293 30.1019 57.1862 30.0586 57.1345 30.0586C57.0828 30.0586 57.0397 30.1019 57.0397 30.1538L57.0526 33.6467C57.0526 33.6986 57.0957 33.7419 57.1474 33.7419Z" fill="white"/>
<path d="M56.9169 22.9432C56.9686 22.9432 57.0117 22.8999 57.0117 22.8479V21.0431C57.0117 21.0128 56.9945 20.9825 56.9686 20.9652L55.9131 20.2597C55.87 20.2294 55.8097 20.2424 55.7795 20.2856C55.7494 20.3289 55.7623 20.3895 55.8054 20.4198L56.8221 21.0993V22.8523C56.8221 22.8999 56.8652 22.9432 56.9169 22.9432Z" fill="white"/>
<path d="M62.1694 21.4812C62.1953 21.4812 62.2254 21.4682 62.2426 21.4466C62.2771 21.4077 62.2728 21.3471 62.2297 21.3124C62.2168 21.3038 61.0751 20.304 60.6916 17.8585C60.683 17.8066 60.6356 17.772 60.5839 17.7806C60.5322 17.7893 60.4977 17.8369 60.5064 17.8888C60.9027 20.4122 62.0617 21.4163 62.1134 21.4553C62.1263 21.4769 62.1479 21.4812 62.1694 21.4812Z" fill="white"/>
<path d="M51.6992 8.2266C51.6992 8.2266 51.2985 7.88467 50.9797 7.71154C50.6609 7.53841 49.6786 6.0625 49.6786 6.0625C49.6786 6.0625 49.7087 8.39107 50.7255 8.74598L51.6992 8.2266Z" fill="white"/>
<path d="M50.7198 8.8407C50.737 8.8407 50.7499 8.83637 50.7628 8.82772L51.7365 8.30833C51.7624 8.29535 51.7839 8.26505 51.7882 8.23475C51.7926 8.20446 51.7796 8.17416 51.7538 8.15252C51.7365 8.13953 51.3445 7.80194 51.0214 7.62881C50.8016 7.51195 50.1424 6.59437 49.7547 6.01006C49.7331 5.97544 49.6858 5.95812 49.647 5.97111C49.6082 5.98409 49.578 6.02305 49.5824 6.062C49.5824 6.16155 49.6254 8.45982 50.6896 8.83205C50.7025 8.83637 50.7111 8.8407 50.7198 8.8407ZM51.5254 8.20879L50.7155 8.6416C50.0304 8.35594 49.8409 7.03152 49.7892 6.3996C50.0994 6.84973 50.681 7.6591 50.9309 7.79761C51.142 7.90581 51.3876 8.09625 51.5254 8.20879Z" fill="black"/>
<path d="M52.6875 8.51674H51.5329L49.3485 5.33984H50.473L52.6875 8.51674Z" fill="black"/>
<path d="M51.5337 8.61203H52.6884C52.7228 8.61203 52.7573 8.59039 52.7745 8.56009C52.7918 8.5298 52.7874 8.49084 52.7659 8.46054L50.5514 5.28798C50.5342 5.26201 50.504 5.24902 50.4738 5.24902H49.3494C49.3149 5.24902 49.2804 5.27066 49.2632 5.30096C49.246 5.33126 49.2503 5.37021 49.2675 5.40051L51.4562 8.56875C51.4734 8.59472 51.5035 8.61203 51.5337 8.61203ZM52.5031 8.42159H51.5811L49.526 5.43946H50.4221L52.5031 8.42159Z" fill="black"/>
<path d="M52.4336 8.51674H51.2789L49.0946 5.33984H50.2191L52.4336 8.51674Z" fill="white"/>
<path d="M51.2798 8.61203H52.4344C52.4689 8.61203 52.5034 8.59039 52.5206 8.56009C52.5378 8.5298 52.5335 8.49084 52.512 8.46054L50.2975 5.28798C50.2803 5.26201 50.2501 5.24902 50.2199 5.24902H49.0954C49.061 5.24902 49.0265 5.27066 49.0093 5.30096C48.992 5.33126 48.9964 5.37021 49.0136 5.40051L51.2022 8.56875C51.2195 8.59472 51.2496 8.61203 51.2798 8.61203ZM52.2535 8.42159H51.3315L49.2764 5.43946H50.1725L52.2535 8.42159Z" fill="black"/>
<path d="M51.6948 8.22613C51.6948 8.22613 53.1295 10.5287 54.4694 10.2907C55.4172 10.1219 55.9084 9.09177 56.7184 7.94047C57.5326 6.78917 58.5149 6.1789 58.5149 6.1789C58.5149 6.1789 60.2728 5.58161 62.427 5.6725C64.5381 5.76339 66.3993 7.09647 67.136 9.08745C67.7091 10.6369 68.127 12.8963 67.7608 16.0169C67.0585 21.9638 62.1081 21.1891 62.1081 21.1891L61.3068 19.9209C61.3068 19.9209 63.5213 19.7738 64.0383 16.7094C64.2279 15.5884 63.8013 13.922 63.8013 13.922L63.4481 16.48C63.4007 16.8392 63.112 17.1162 62.7501 17.1509C62.3451 17.1898 61.7333 17.1855 60.8803 17.0254C59.1267 16.6964 57.3948 15.5884 56.2789 15.4585C55.5292 15.372 55.3483 14.9175 55.3871 14.3159C54.9519 14.4155 54.5211 14.4371 54.1247 14.3375C51.3286 13.6364 50.8202 8.81477 50.8202 8.81477L51.6948 8.22613Z" fill="white"/>
<path d="M62.6786 21.3195C63.3895 21.3195 64.6303 21.1767 65.7418 20.3283C66.918 19.4324 67.6289 17.9868 67.8616 16.0261C68.1718 13.3686 67.9607 11.0227 67.2282 9.05337C66.4786 7.03643 64.5958 5.66872 62.433 5.57783C60.2874 5.48694 58.508 6.0799 58.4865 6.08856C58.4779 6.09289 58.4736 6.09289 58.4693 6.09721C58.4305 6.12318 57.4611 6.72913 56.6468 7.88476C56.4917 8.10117 56.3495 8.31758 56.216 8.521C55.643 9.38232 55.1863 10.0662 54.4582 10.196C54.3978 10.209 54.3332 10.2133 54.2729 10.2133C53.0622 10.2133 51.7913 8.20072 51.7783 8.17908C51.7654 8.15744 51.7439 8.14012 51.718 8.1358C51.6922 8.13147 51.6663 8.1358 51.6448 8.14878L50.7788 8.73741C50.7486 8.75906 50.7357 8.78935 50.7357 8.82831C50.7573 9.0274 51.2829 13.7235 54.1135 14.4333C54.4625 14.5199 54.8588 14.5242 55.2983 14.4376C55.2897 15.1172 55.6128 15.4851 56.2763 15.5587C56.7933 15.6192 57.4482 15.8919 58.2022 16.2122C59.0164 16.5585 59.9427 16.948 60.869 17.1211C61.5885 17.2553 62.2262 17.2986 62.7647 17.2466C63.1697 17.2077 63.4929 16.9004 63.5489 16.4935L63.8289 14.4679C63.9366 15.0436 64.0702 15.9871 63.9539 16.6926C63.4541 19.6488 61.33 19.8219 61.3085 19.8263C61.274 19.8306 61.2439 19.8479 61.2309 19.8782C61.2137 19.9085 61.218 19.9431 61.2353 19.9734L62.0366 21.2416C62.0495 21.2632 62.0754 21.2805 62.1012 21.2849C62.1271 21.2892 62.3425 21.3195 62.6786 21.3195ZM61.972 5.75962C62.1185 5.75962 62.2693 5.76394 62.4244 5.76827C64.5096 5.85916 66.3278 7.17494 67.0516 9.12262C67.7711 11.066 67.9822 13.3816 67.672 16.0045C67.448 17.9132 66.7586 19.3155 65.6298 20.1768C64.1865 21.2805 62.4631 21.1334 62.1745 21.0987L61.4722 19.9907C61.9935 19.8868 63.6953 19.3545 64.1391 16.7229C64.3287 15.5976 63.9194 13.9659 63.9022 13.8966C63.8892 13.8533 63.8505 13.823 63.8031 13.823C63.7557 13.8274 63.7212 13.862 63.7126 13.9053L63.3593 16.4632C63.3162 16.7792 63.062 17.0216 62.7475 17.0519C62.3899 17.0865 61.7781 17.0908 60.9035 16.9264C59.9987 16.7576 59.0811 16.368 58.2754 16.0304C57.5042 15.7058 56.8407 15.4245 56.2935 15.3639C55.6861 15.2946 55.4448 14.983 55.4879 14.3208C55.4879 14.2905 55.4792 14.2602 55.4534 14.2429C55.4319 14.2212 55.4017 14.2169 55.3715 14.2212C54.9148 14.3251 54.5056 14.3294 54.1523 14.2429C51.6146 13.6066 50.9942 9.39963 50.9253 8.8586L51.662 8.35653C51.9421 8.7807 53.226 10.6029 54.4797 10.3778C55.2897 10.2306 55.7593 9.52082 56.3625 8.62055C56.5003 8.41713 56.6382 8.20505 56.7933 7.98864C57.543 6.9239 58.452 6.32228 58.5554 6.26169C58.6933 6.2184 60.1539 5.75962 61.972 5.75962Z" fill="black"/>
<path d="M63.6269 13.7064C63.6355 13.7064 63.6441 13.7064 63.657 13.702C63.7087 13.6847 63.7346 13.6328 63.7173 13.5808L62.8384 10.7935C62.8212 10.7415 62.7695 10.7156 62.7178 10.7329C62.6661 10.7502 62.6402 10.8021 62.6575 10.8541L63.5364 13.6414C63.5493 13.6804 63.5881 13.7064 63.6269 13.7064Z" fill="black"/>
<path d="M55.4259 13.7321C55.4733 13.7321 55.5164 13.6931 55.5207 13.6455C55.6629 12.1609 57.2053 8.733 57.2182 8.69838C57.2397 8.65077 57.2182 8.5945 57.1708 8.57286C57.1234 8.55122 57.0674 8.57286 57.0459 8.62047C56.9812 8.7633 55.4776 12.1133 55.3311 13.6282C55.3268 13.6801 55.3656 13.7277 55.4173 13.7321C55.4216 13.7321 55.4259 13.7321 55.4259 13.7321Z" fill="black"/>
<path d="M60.9998 2.81348L62.9688 5.77396C62.9688 5.77396 61.3186 6.48812 60.3105 6.6396C59.3023 6.79109 60.5345 5.72202 60.5345 5.72202L59.7375 3.89985L60.9998 2.81348Z" fill="white"/>
<path d="M60.1371 6.75178C60.2017 6.75178 60.2664 6.74312 60.3267 6.73447C61.3348 6.58298 62.9376 5.89047 63.0065 5.8645C63.0323 5.85151 63.0539 5.82987 63.0582 5.8039C63.0668 5.77793 63.0625 5.74764 63.0453 5.72167L61.0763 2.76118C61.0591 2.73954 61.0376 2.72223 61.0117 2.7179C60.9859 2.71357 60.9557 2.72223 60.9385 2.73954L59.6761 3.82592C59.6459 3.85189 59.633 3.8995 59.6503 3.93845L60.4171 5.6957C60.1673 5.92077 59.7235 6.36657 59.8355 6.61328C59.8872 6.72148 60.0122 6.75178 60.1371 6.75178ZM62.8255 5.73032C62.4464 5.88614 61.1366 6.41851 60.2965 6.54402C60.0466 6.58298 60.0122 6.53104 60.0122 6.53104C59.9734 6.44448 60.2534 6.09389 60.5981 5.79092C60.6283 5.76495 60.6412 5.71734 60.624 5.67839L59.8571 3.92114L60.9772 2.95595L62.8255 5.73032Z" fill="black"/>
<path d="M57.1865 1.40167C57.7337 0.916911 58.4187 1.3757 59.0563 0.782737C59.3493 0.510061 59.3665 0.263353 59.7241 0.10321C59.9611 -0.000666602 60.3876 -0.0829023 60.6806 0.124851C61.0511 0.388871 60.8012 0.830347 61.133 1.79121C61.3656 2.46641 61.6629 2.75207 61.5078 2.99877C61.3527 3.24548 60.9693 3.08534 60.784 3.3407C60.5427 3.67397 61.0253 4.16739 60.896 4.6305C60.8142 4.92482 60.4221 5.34033 59.4355 5.55674C59.2761 5.59136 59.1123 5.50913 59.052 5.35764C58.9702 5.16287 58.8711 4.91616 58.7935 4.67379C58.4273 3.51383 58.5867 3.05937 58.2894 2.92087C57.8328 2.70446 57.3201 3.44025 56.984 3.23682C56.6264 3.02907 56.6264 1.90374 57.1865 1.40167Z" fill="black"/>
<path d="M59.5564 1.89041L59.3539 1.97264C59.3539 1.97264 59.9356 3.30573 60.026 3.70825C60.1208 4.1151 58.8929 4.50031 58.8929 4.50031L58.6947 4.36181L58.5439 4.40509C58.4966 4.41807 58.4492 4.40942 58.4061 4.38345C58.3673 4.35748 58.3415 4.30987 58.3371 4.26226C58.3113 3.89003 58.2294 3.07633 57.9666 2.4877C57.9709 2.4877 58.531 1.7519 59.5564 1.89041Z" fill="white"/>
<path d="M59.4594 1.90358C59.425 1.90358 59.3905 1.8906 59.3689 1.88194C59.3474 1.87329 59.3345 1.87329 59.3129 1.88194C59.2612 1.90358 59.2397 1.95985 59.2569 2.00746V2.01179C59.3646 2.26715 59.4723 2.52251 59.5757 2.77788C59.6792 3.03324 59.7826 3.29293 59.8687 3.5483C59.8903 3.61322 59.9118 3.67814 59.9204 3.73441C59.929 3.76471 59.9161 3.80366 59.8816 3.85127C59.817 3.93784 59.705 4.02007 59.593 4.08499C59.3646 4.21917 59.1061 4.32304 58.8562 4.40961L58.9381 4.42259C58.8692 4.37931 58.8045 4.3317 58.7356 4.28842L58.727 4.28409C58.7055 4.27111 58.6796 4.26678 58.6581 4.27543C58.615 4.29275 58.5719 4.31006 58.5288 4.32737L58.503 4.33603C58.4987 4.34036 58.49 4.34036 58.4857 4.34036C58.4728 4.34036 58.4599 4.34036 58.447 4.3317C58.4211 4.31872 58.4039 4.29275 58.3996 4.26678L58.3909 4.1326C58.3737 3.94216 58.3565 3.75605 58.3306 3.56561C58.2789 3.18906 58.2014 2.8125 58.0506 2.44894L58.0377 2.54416C58.1195 2.44461 58.2315 2.34939 58.3435 2.26715C58.4599 2.18924 58.5805 2.11999 58.7141 2.07238C58.8433 2.02477 58.9812 1.99015 59.1191 1.97716C59.188 1.96851 59.2569 1.96418 59.3259 1.96851C59.3603 1.96851 59.3948 1.97283 59.4293 1.97283H59.4422C59.4422 1.97283 59.4379 1.96851 59.4336 1.95985C59.4336 1.94686 59.4422 1.91657 59.4594 1.90358ZM59.649 1.87761C59.6274 1.8603 59.6016 1.82568 59.5585 1.80836C59.537 1.79971 59.5154 1.79105 59.4939 1.78672C59.4853 1.78672 59.4723 1.78239 59.468 1.78239H59.4551C59.4163 1.77807 59.3776 1.77807 59.3388 1.77807C59.2612 1.77374 59.1837 1.77807 59.1061 1.78672C58.951 1.80403 58.8002 1.83866 58.6538 1.89493C58.5073 1.95119 58.3694 2.02477 58.2445 2.11134C58.1152 2.20223 58.0032 2.30178 57.8955 2.43162C57.8739 2.45759 57.8696 2.49655 57.8826 2.52684C57.9558 2.69131 58.0161 2.86877 58.0635 3.04623C58.1152 3.22368 58.154 3.40547 58.1841 3.59158C58.2186 3.77336 58.2401 3.95948 58.2574 4.14559L58.2617 4.21484C58.266 4.24081 58.2617 4.25379 58.2703 4.29275C58.2832 4.35767 58.3263 4.41827 58.3823 4.44856C58.4125 4.46588 58.4426 4.47453 58.4771 4.47886C58.4943 4.47886 58.5116 4.48319 58.5288 4.47886C58.546 4.47886 58.5633 4.47453 58.5719 4.4702C58.6193 4.46155 58.6667 4.45722 58.7098 4.44423L58.6322 4.43125C58.6968 4.47886 58.7658 4.52647 58.8304 4.56975C58.8562 4.58706 58.8864 4.59139 58.9123 4.58274C59.1837 4.49617 59.4422 4.3923 59.6921 4.24947C59.817 4.17589 59.942 4.09798 60.0454 3.9638C60.0712 3.92918 60.0928 3.89023 60.11 3.84262C60.1229 3.795 60.1315 3.74307 60.1186 3.69113C60.1014 3.60889 60.0798 3.5483 60.0583 3.47905C59.9678 3.2107 59.8644 2.95101 59.761 2.69564C59.6576 2.43595 59.5456 2.18059 59.4336 1.92955L59.3819 2.0594C59.4293 2.04209 59.4853 2.01179 59.5284 1.97716C59.5801 1.94254 59.6145 1.90791 59.649 1.87761Z" fill="black"/>
<path d="M60.0043 2.83017C60.0043 2.83017 59.8664 2.04185 60.237 2.05485C60.6075 2.06784 60.7367 2.93845 60.0043 2.83017Z" fill="white"/>
</g>
<rect x="78" y="6.21094" width="39" height="38.9712" rx="19.4856" fill="#1E488D"/>
<path d="M112.671 30.5329L111.251 45.0629L110.234 45.021L110.738 29.7441L112.671 30.5329Z" fill="white"/>
<path d="M111.25 45.155C111.245 45.155 111.245 45.155 111.25 45.155L110.233 45.113C110.183 45.1088 110.141 45.0668 110.145 45.0165L110.649 29.7397C110.649 29.7103 110.666 29.6809 110.691 29.6641C110.716 29.6474 110.75 29.6432 110.779 29.6558L112.712 30.4446C112.749 30.4613 112.775 30.4991 112.77 30.5411L111.35 45.071C111.338 45.1172 111.296 45.155 111.25 45.155ZM110.33 44.9284L111.161 44.962L112.569 30.5872L110.825 29.8781L110.33 44.9284Z" fill="black"/>
<path d="M93.6133 30.0083L94.9996 45.0963L96.0498 45.0208L95.5457 29.1943L93.6133 30.0083Z" fill="white"/>
<path d="M94.9987 45.1933C94.9525 45.1933 94.9105 45.1555 94.9063 45.1093L93.52 30.0213C93.5158 29.9794 93.541 29.9416 93.5746 29.9248L95.507 29.1108C95.5364 29.0982 95.57 29.1024 95.5952 29.1192C95.6204 29.136 95.6372 29.1654 95.6372 29.1947L96.1413 45.0212C96.1413 45.0716 96.1035 45.1135 96.0531 45.1177L95.0029 45.1974C95.0071 45.1933 95.0029 45.1933 94.9987 45.1933ZM93.7132 30.0675L95.0869 44.996L95.9523 44.9289L95.4566 29.329L93.7132 30.0675Z" fill="black"/>
<path d="M88.7891 26.4593L89.1965 42.3026L90.0157 42.1264L90.7635 25.7041L88.7891 26.4593Z" fill="white"/>
<path d="M89.1955 42.3993C89.1745 42.3993 89.1535 42.3909 89.1367 42.3783C89.1157 42.3615 89.1031 42.3363 89.0989 42.307L88.6914 26.4637C88.6914 26.426 88.7124 26.3882 88.7502 26.3756L90.7288 25.6204C90.7582 25.6078 90.7919 25.612 90.8171 25.6329C90.8423 25.6497 90.8591 25.6833 90.8549 25.7127L90.1029 42.1349C90.1029 42.1769 90.0693 42.2147 90.0273 42.2231L89.2081 42.3993C89.2081 42.3951 89.1997 42.3993 89.1955 42.3993ZM88.8804 26.5225L89.2837 42.1895L89.9223 42.051L90.6616 25.8427L88.8804 26.5225Z" fill="black"/>
<path d="M104.781 26.1068L105.189 41.9501L106.037 41.9543L106.756 25.3516L104.781 26.1068Z" fill="white"/>
<path d="M100.67 13.7288V17.4169C100.67 21.021 103.518 23.9455 107.03 23.9455C110.542 23.9455 113.39 26.8699 113.39 30.4741C113.39 30.7972 113.13 31.0573 112.81 31.0573H95.9732C90.7095 31.0573 86.4414 26.6769 86.4414 21.2686V13.4015C86.4414 11.2533 88.1386 9.50781 90.2348 9.50781H96.5613C98.8298 9.50781 100.67 11.4001 100.67 13.7288Z" fill="white"/>
<path d="M112.809 31.1501H95.9722C90.6623 31.1501 86.3438 26.7194 86.3438 21.2691V13.402C86.3438 11.2034 88.0871 9.41602 90.2296 9.41602H96.5603C98.8792 9.41602 100.765 11.3503 100.765 13.7293V17.4174C100.765 20.967 103.576 23.8537 107.033 23.8537C110.591 23.8537 113.486 26.8243 113.486 30.4746C113.481 30.8481 113.179 31.1501 112.809 31.1501ZM90.2338 9.60483C88.1963 9.60483 86.537 11.3083 86.537 13.402V21.2691C86.537 26.6145 90.7715 30.9613 95.9764 30.9613H112.809C113.078 30.9613 113.297 30.7432 113.297 30.4746C113.297 26.925 110.486 24.0383 107.029 24.0383C103.471 24.0383 100.576 21.0677 100.576 17.4174V13.7293C100.576 11.4552 98.7742 9.60063 96.5603 9.60063H90.2338V9.60483Z" fill="black"/>
<path d="M84.8115 6.85286C84.5552 6.74797 84.3242 6.55916 84.1814 6.30741C83.9713 5.92979 83.8579 5.3256 84.3326 4.46547C85.408 2.51443 87.2018 3.43331 87.8907 3.21093C89.4283 2.70324 89.067 1.87667 89.6887 1.06689C90.155 0.462695 91.7724 -0.674361 94.2215 1.44451C94.2215 1.44451 95.3221 2.9466 96.5698 2.37597C98.1031 1.67527 101.182 3.26128 100.212 5.6235C99.9305 6.30322 99.4264 6.82769 98.8088 7.113C98.6954 7.16335 98.5736 7.2137 98.4434 7.25985C98.0611 7.39412 97.7628 7.73398 97.6662 8.17453C97.3511 9.61369 96.1665 12.3871 91.764 9.59271C91.4321 9.38292 91.0372 9.35355 90.6927 9.51299C90.2726 9.71019 89.8148 10.4696 87.7773 10.1466C86.4708 9.94096 86.055 8.42208 85.7105 7.72978C85.4332 7.18013 85.0383 6.94517 84.8115 6.85286Z" fill="black"/>
<path d="M107.461 17.4604C105.731 18.0017 102.412 16.4996 101.845 13.9821C101.395 11.9849 100.694 10.9737 100.425 10.6381C100.295 10.4157 100.127 10.2101 99.8997 10.0129C98.2865 8.59892 95.493 9.05626 94.2831 9.25346C92.9136 9.48004 91.7752 9.66465 91.0022 10.5332C90.7964 10.7639 90.6535 11.0073 90.5527 11.2632C89.0782 14.0408 90.2712 16.9066 91.0106 18.2324C91.1324 23.5401 89.3765 22.7093 89.8512 25.0632C90.5233 28.3862 95.8752 27.1443 97.8244 26.7205C98.5092 26.5736 102.088 27.631 102.962 24.8743C103.475 23.2632 102.504 22.5205 101.647 19.7849C106.033 22.5079 109.293 17.8632 109.293 17.8632L109.629 16.2352C109.629 16.2352 108.743 17.0618 107.461 17.4604Z" fill="white"/>
<path d="M93.643 27.3955C92.6053 27.3955 91.6055 27.2318 90.862 26.7493C90.2697 26.3633 89.9 25.8011 89.7529 25.0794C89.5387 24.0221 89.7613 23.5857 90.068 22.9857C90.4503 22.2389 90.9754 21.2109 90.9082 18.2529C90.1058 16.8011 88.9926 13.9816 90.4587 11.2165C90.5679 10.9438 90.7191 10.7005 90.925 10.4697C91.719 9.57599 92.8952 9.38299 94.2605 9.16061C95.4703 8.96341 98.3059 8.49768 99.9527 9.94103C100.18 10.1382 100.356 10.348 100.495 10.583C100.78 10.9354 101.482 11.9634 101.931 13.9606C102.175 15.0431 102.994 16.0585 104.183 16.7424C105.305 17.3885 106.577 17.6361 107.43 17.3676C108.674 16.9773 109.552 16.1718 109.56 16.1634C109.59 16.134 109.636 16.1298 109.669 16.1508C109.703 16.1718 109.724 16.2095 109.716 16.2515L109.379 17.8794C109.375 17.892 109.371 17.9046 109.363 17.913C109.354 17.9256 108.523 19.1004 107.157 19.9228C105.931 20.6612 104.019 21.257 101.805 19.9899C102.078 20.8207 102.36 21.4668 102.591 21.9913C103.07 23.0906 103.389 23.8165 103.045 24.899C102.335 27.1437 99.8939 26.9381 98.5832 26.829C98.2555 26.7997 97.9699 26.7787 97.8354 26.8081L97.7136 26.8332C96.7474 27.0472 95.1595 27.3955 93.643 27.3955ZM90.6267 11.3172C89.2026 14.0109 90.3033 16.7759 91.0888 18.1857C91.0972 18.1983 91.1014 18.2151 91.1014 18.2277C91.1728 21.2528 90.6309 22.3018 90.2402 23.0738C89.9378 23.6612 89.7403 24.0514 89.942 25.0458C90.0764 25.7172 90.4251 26.2374 90.9712 26.5941C92.7272 27.7395 96.0753 27.0053 97.68 26.6528L97.8018 26.6276C97.9615 26.5941 98.2303 26.615 98.6042 26.6486C99.9527 26.7619 102.204 26.9465 102.872 24.8486C103.196 23.8291 102.906 23.1703 102.427 22.071C102.171 21.492 101.856 20.7661 101.557 19.8137C101.545 19.7759 101.557 19.734 101.591 19.713C101.62 19.6878 101.662 19.6878 101.696 19.7088C103.481 20.8165 105.288 20.8375 107.061 19.7717C108.308 19.0207 109.102 17.9676 109.203 17.8291L109.48 16.4864C109.144 16.755 108.422 17.2627 107.489 17.5564C106.59 17.8375 105.258 17.5857 104.095 16.9144C102.864 16.2053 102.011 15.148 101.755 14.0109C101.314 12.0431 100.625 11.0445 100.352 10.7047C100.348 10.7005 100.348 10.6963 100.343 10.6921C100.213 10.4739 100.049 10.2725 99.8351 10.0879C98.2555 8.69908 95.4788 9.15642 94.2941 9.34942C92.912 9.57599 91.8198 9.75641 91.0678 10.5998C90.8746 10.8179 90.7317 11.0445 90.6351 11.3005C90.6351 11.3047 90.6309 11.313 90.6267 11.3172Z" fill="black"/>
<path d="M99.8027 17.0288C99.8027 17.0288 102.962 15.8791 103.949 13.7771L105.982 11.8848C105.982 11.8848 105.953 12.7994 105.348 13.1813C105.348 13.1813 105.865 14.2218 105.1 14.9435C105.1 14.9435 104.525 15.4008 104.184 15.4092C104.184 15.4092 103.184 18.6945 100.479 19.6721C100.483 19.6679 99.7229 18.5141 99.8027 17.0288Z" fill="white"/>
<path d="M100.483 19.7597C100.453 19.7597 100.424 19.7429 100.403 19.7178C100.369 19.6716 99.6257 18.522 99.7097 17.0199C99.7097 16.9821 99.7349 16.9485 99.7728 16.936C99.8022 16.9234 102.907 15.7737 103.864 13.7304C103.869 13.7178 103.877 13.7094 103.885 13.701L105.919 11.8087C105.948 11.7835 105.986 11.7752 106.019 11.7919C106.053 11.8087 106.074 11.8423 106.074 11.88C106.074 11.9178 106.04 12.7821 105.465 13.2059C105.57 13.466 105.851 14.3598 105.167 15.0017C105.137 15.0227 104.625 15.4297 104.255 15.4842C104.1 15.9416 103.024 18.8408 100.512 19.7471C100.504 19.7597 100.495 19.7597 100.483 19.7597ZM99.8946 17.0912C99.8484 18.308 100.373 19.2982 100.525 19.5499C103.1 18.5681 104.091 15.4045 104.1 15.3709C104.112 15.3332 104.146 15.3038 104.188 15.3038C104.444 15.2996 104.894 14.9807 105.049 14.859C105.746 14.2003 105.289 13.2521 105.272 13.2101C105.251 13.1681 105.263 13.1136 105.305 13.0884C105.675 12.8535 105.814 12.3961 105.864 12.115L104.032 13.8227C103.091 15.7989 100.344 16.9192 99.8946 17.0912Z" fill="black"/>
<path d="M96.9521 20.7114C94.3181 20.7114 92.81 19.4107 92.789 19.3897C92.7512 19.3562 92.747 19.2974 92.7806 19.2597C92.8142 19.2219 92.873 19.2177 92.9108 19.2513C92.936 19.2765 95.6246 21.5841 100.103 19.9268C100.149 19.91 100.204 19.9352 100.225 19.9813C100.241 20.0317 100.216 20.082 100.17 20.103C98.9685 20.5478 97.8889 20.7114 96.9521 20.7114Z" fill="black"/>
<path d="M98.5712 17.1545C96.2775 17.1545 94.9417 15.8496 94.2107 14.7C93.3495 13.3489 93.1227 11.9098 93.1185 11.8972C93.1101 11.8468 93.1437 11.7965 93.1983 11.7923C93.2487 11.7839 93.2991 11.8175 93.3033 11.872C93.3075 11.8846 93.5302 13.2902 94.3703 14.6077C95.492 16.3657 97.1177 17.1503 99.2056 16.9363C99.256 16.9321 99.3022 16.9699 99.3064 17.0202C99.3106 17.0706 99.2728 17.1167 99.2224 17.1209C98.9997 17.1419 98.7813 17.1545 98.5712 17.1545Z" fill="black"/>
<path d="M100.349 15.4964C100.345 15.4964 100.341 15.4964 100.337 15.4964C100.286 15.488 100.248 15.4418 100.257 15.3915C100.668 12.5761 99.3788 10.9817 99.3662 10.9649C99.3325 10.9272 99.3367 10.8642 99.3788 10.8349C99.4166 10.8013 99.4754 10.8055 99.509 10.8475C99.5636 10.9146 100.866 12.5174 100.442 15.4209C100.437 15.4628 100.395 15.4964 100.349 15.4964Z" fill="black"/>
<path d="M99.7669 7.57737C99.6787 6.98997 99.8215 5.43333 99.7921 5.47109C99.54 5.84032 98.7125 5.40396 97.9647 5.37459C97.217 5.34522 97.469 6.46549 97.469 6.46549C97.469 6.46549 97.2506 5.70606 96.7843 6.18018C96.5154 6.4571 96.8137 6.81374 97.0909 7.04451C97.0153 7.13262 95.671 8.57597 94.8477 9.4361L96.675 10.8207L97.5908 9.96897L97.406 9.67107C97.2716 9.46128 97.2632 9.19275 97.3766 8.97037L97.8219 8.21513C97.9227 8.34101 98.0529 8.47947 98.1748 8.56338C98.4142 8.73121 98.7083 8.70184 98.9183 8.50464C99.2082 8.23192 99.4056 7.92143 99.498 7.62353L99.7669 7.57737Z" fill="white"/>
<path d="M96.6745 10.9179C96.6535 10.9179 96.6367 10.9137 96.6199 10.8969L94.7925 9.51231C94.7715 9.49553 94.7589 9.47035 94.7547 9.44518C94.7505 9.42 94.7631 9.39063 94.7799 9.37385C95.5319 8.58924 96.6703 7.36407 96.956 7.05359C96.7795 6.88995 96.5947 6.67177 96.5863 6.4452C96.5821 6.31932 96.6241 6.21023 96.7207 6.11373C96.8678 5.96268 97.019 5.90394 97.1618 5.93751C97.229 5.95429 97.2879 5.99205 97.3383 6.0424C97.3425 5.8452 97.3803 5.61863 97.5063 5.46758C97.6155 5.33751 97.771 5.27458 97.9684 5.28297C98.2499 5.29556 98.5439 5.36269 98.8044 5.42143C99.2245 5.51793 99.5899 5.60185 99.7118 5.42143C99.737 5.38786 99.779 5.37108 99.821 5.38367C99.8924 5.40884 99.8924 5.40884 99.8714 5.82003C99.8462 6.28995 99.7958 7.16687 99.8546 7.56547C99.863 7.61582 99.8294 7.66197 99.779 7.67037L99.5647 7.70813C99.4597 8.01022 99.2581 8.30812 98.9766 8.57665C98.733 8.80742 98.3885 8.83679 98.1154 8.64379C98.0314 8.58504 97.939 8.49693 97.8298 8.37945L97.4475 9.02141C97.3509 9.21022 97.3635 9.44098 97.4769 9.6256L97.6617 9.9235C97.6869 9.96126 97.6785 10.0116 97.6449 10.041L96.7291 10.8927C96.7207 10.9095 96.6997 10.9179 96.6745 10.9179ZM94.99 9.4284L96.6703 10.6997L97.4685 9.95287L97.3215 9.7221C97.1702 9.48294 97.1576 9.18085 97.2879 8.9291L97.7374 8.17386C97.7542 8.14868 97.7794 8.1319 97.8088 8.1277C97.8382 8.12351 97.8676 8.1361 97.8886 8.16127C98.0188 8.31652 98.1322 8.4298 98.2205 8.49274C98.4221 8.6312 98.6657 8.61442 98.8464 8.44239C99.1236 8.17805 99.3127 7.88855 99.4009 7.59904C99.4093 7.56547 99.4387 7.5403 99.4765 7.5361L99.6572 7.50673C99.6109 7.06198 99.6572 6.26058 99.6824 5.81164C99.6866 5.76129 99.6866 5.71513 99.6908 5.67317C99.4681 5.76968 99.132 5.69415 98.7624 5.60604C98.4977 5.5473 98.2247 5.48437 97.96 5.47178C97.8214 5.46758 97.7205 5.50534 97.6491 5.58926C97.4685 5.80744 97.5231 6.28156 97.5609 6.4452C97.5735 6.49555 97.5399 6.5417 97.4937 6.55429C97.4433 6.56688 97.3929 6.53751 97.3803 6.49135C97.3551 6.40744 97.2542 6.15989 97.1114 6.12212C97.04 6.10534 96.9518 6.1473 96.851 6.248C96.7922 6.30674 96.7669 6.36967 96.7711 6.441C96.7795 6.58785 96.914 6.78086 97.1492 6.97806C97.1702 6.99485 97.1786 7.01582 97.1828 7.041C97.1828 7.06617 97.1744 7.09135 97.1618 7.10813C97.0946 7.18785 95.8343 8.54728 94.99 9.4284Z" fill="black"/>
<path d="M97.8179 8.31239C97.7885 8.31239 97.7591 8.29979 97.7423 8.2746L97.5994 8.07725C97.57 8.03526 97.5784 7.97648 97.6204 7.94709C97.6625 7.9177 97.7213 7.92609 97.7507 7.96808L97.8935 8.16543C97.9229 8.20742 97.9145 8.2662 97.8725 8.29559C97.8557 8.30819 97.8389 8.31239 97.8179 8.31239Z" fill="black"/>
<path d="M113.549 37.5781C113.532 37.6536 114.406 41.648 114.406 41.648L112.398 41.3124L111.793 37.9348L113.549 37.5781Z" fill="white"/>
<path d="M114.406 41.7445C114.402 41.7445 114.397 41.7445 114.389 41.7445L112.381 41.4088C112.343 41.4004 112.31 41.371 112.305 41.3333L111.701 37.9557C111.692 37.9053 111.726 37.8592 111.772 37.8466L113.532 37.4899C113.566 37.4815 113.595 37.4941 113.616 37.5151C113.633 37.5319 113.646 37.5571 113.641 37.5864C113.654 37.7543 114.158 40.0913 114.494 41.6312C114.503 41.6605 114.49 41.6941 114.469 41.7151C114.456 41.7319 114.431 41.7445 114.406 41.7445ZM112.478 41.2326L114.284 41.5347C113.688 38.8032 113.519 37.9599 113.473 37.6913L111.898 38.0102L112.478 41.2326Z" fill="black"/>
<path d="M113.338 40.3395C113.46 40.2346 113.636 40.1339 113.859 40.1255C114.195 40.1129 114.502 40.3227 114.64 40.6332C114.989 41.4052 115.909 43.5619 116.169 45.3241C116.262 45.9451 115.791 46.4527 115.056 46.0458C113.855 45.3786 112.187 43.843 111.317 41.5773C111.217 41.3171 111.254 41.0234 111.418 40.7968C111.553 40.6122 111.733 40.3898 111.947 40.201C112.149 40.0206 112.456 40.0164 112.662 40.1884L112.851 40.3437C112.993 40.4612 113.199 40.457 113.338 40.3395Z" fill="#1A2B5C"/>
<path d="M115.557 46.2847C115.41 46.2847 115.23 46.2428 115.015 46.1253C113.759 45.4246 112.104 43.8722 111.235 41.6064C111.121 41.3127 111.163 40.9897 111.348 40.7379C111.524 40.4987 111.705 40.2932 111.89 40.1295C112.125 39.9155 112.478 39.9113 112.726 40.1169L112.915 40.2722C113.02 40.3603 113.175 40.3561 113.28 40.268C113.453 40.1211 113.654 40.0414 113.86 40.033C114.221 40.0162 114.574 40.2428 114.734 40.5953C115.108 41.426 116.011 43.5533 116.267 45.3113C116.322 45.6721 116.2 45.9994 115.956 46.1672C115.872 46.2218 115.742 46.2847 115.557 46.2847ZM112.314 40.1547C112.205 40.1547 112.1 40.1925 112.012 40.268C111.84 40.4232 111.667 40.6162 111.495 40.847C111.348 41.0442 111.319 41.3043 111.407 41.5393C112.26 43.7589 113.877 45.2777 115.104 45.9617C115.393 46.1211 115.658 46.1421 115.843 46.012C116.028 45.8819 116.12 45.626 116.074 45.3365C115.818 43.6036 114.927 41.4973 114.553 40.6708C114.427 40.3897 114.15 40.2092 113.86 40.2218C113.692 40.2302 113.537 40.2932 113.394 40.4148C113.217 40.5617 112.965 40.5617 112.789 40.419L112.6 40.2638C112.52 40.1883 112.415 40.1547 112.314 40.1547Z" fill="black"/>
<path d="M115.718 45.5834C115.559 45.5834 113.866 45.4827 111.812 41.4296C111.786 41.3835 111.807 41.3289 111.854 41.3037C111.9 41.2786 111.954 41.2995 111.98 41.3457C114.038 45.4114 115.706 45.3988 115.723 45.3988C115.777 45.3988 115.819 45.4366 115.819 45.4869C115.819 45.5373 115.781 45.5834 115.731 45.5834C115.727 45.5834 115.723 45.5834 115.718 45.5834Z" fill="black"/>
<path d="M114.428 43.3478C114.39 43.3478 114.356 43.3268 114.339 43.289C114.318 43.2428 114.344 43.1883 114.394 43.1673L115.348 42.7936C115.394 42.7726 115.448 42.7978 115.469 42.8481C115.491 42.8943 115.465 42.9489 115.415 42.9699L114.461 43.3436C114.453 43.3478 114.44 43.3478 114.428 43.3478Z" fill="black"/>
<path d="M114.094 42.622C114.056 42.622 114.023 42.601 114.006 42.5632C113.989 42.517 114.01 42.4624 114.06 42.4414L115.178 42.0047C115.224 41.9879 115.279 42.0089 115.3 42.0593C115.316 42.1055 115.295 42.1601 115.245 42.1811L114.128 42.6178C114.115 42.6178 114.107 42.622 114.094 42.622Z" fill="black"/>
<path d="M104.902 37.9447C104.856 38.0034 103.966 41.9978 103.966 41.9978L102.285 40.8482L103.159 37.5293L104.902 37.9447Z" fill="white"/>
<path d="M103.967 42.0896C103.95 42.0896 103.929 42.0854 103.912 42.0728L102.232 40.9232C102.198 40.9022 102.186 40.8603 102.194 40.8225L103.068 37.5036C103.08 37.4533 103.131 37.4239 103.181 37.4365L104.929 37.8519C104.958 37.8603 104.983 37.8813 104.996 37.9106C105.004 37.9358 105.004 37.961 104.992 37.9861C104.933 38.1414 104.408 40.4742 104.063 42.0183C104.055 42.0477 104.034 42.0728 104.005 42.0854C103.988 42.0896 103.975 42.0896 103.967 42.0896ZM102.391 40.8099L103.904 41.8421C104.513 39.1106 104.714 38.2757 104.786 38.0113L103.223 37.6379L102.391 40.8099Z" fill="black"/>
<path d="M103.552 40.3599C103.707 40.318 103.909 40.3012 104.115 40.3851C104.426 40.5152 104.615 40.834 104.615 41.1739C104.606 42.0214 104.531 44.3627 104.027 46.0704C103.846 46.6746 103.207 46.9347 102.716 46.2592C101.909 45.1473 101.04 43.0578 101.204 40.6326C101.22 40.3557 101.38 40.104 101.624 39.9697C101.821 39.8606 102.082 39.7347 102.355 39.6508C102.615 39.5711 102.892 39.697 103.01 39.9403L103.115 40.1585C103.186 40.3221 103.371 40.4061 103.552 40.3599Z" fill="#1A2B5C"/>
<path d="M103.358 46.7497C103.173 46.7497 102.9 46.6742 102.636 46.3092C101.791 45.147 100.943 43.0407 101.106 40.6239C101.127 40.3092 101.304 40.0323 101.573 39.8854C101.833 39.7428 102.085 39.6295 102.32 39.5582C102.623 39.4659 102.946 39.6085 103.085 39.898L103.19 40.1162C103.249 40.2379 103.387 40.305 103.522 40.2673C103.74 40.2085 103.955 40.2169 104.148 40.2966C104.484 40.4351 104.707 40.7875 104.702 41.1736C104.694 42.0882 104.614 44.3959 104.11 46.0952C104.005 46.4435 103.761 46.691 103.467 46.7413C103.438 46.7455 103.4 46.7497 103.358 46.7497ZM102.505 39.7176C102.463 39.7176 102.417 39.726 102.371 39.7386C102.148 39.8057 101.909 39.9106 101.661 40.0491C101.447 40.1666 101.308 40.3889 101.291 40.6365C101.132 43.0071 101.959 45.0672 102.787 46.2001C102.98 46.4686 103.211 46.5945 103.438 46.5567C103.661 46.519 103.85 46.3218 103.934 46.0407C104.429 44.3623 104.509 42.0756 104.518 41.1694C104.522 40.8589 104.345 40.5778 104.076 40.4687C103.921 40.4057 103.753 40.3973 103.572 40.4477C103.354 40.5064 103.119 40.4015 103.022 40.1959L102.917 39.9778C102.837 39.8141 102.678 39.7176 102.505 39.7176Z" fill="black"/>
<path d="M103.543 46.1242C103.531 46.1242 103.518 46.12 103.506 46.1158C103.438 46.0864 101.863 45.3731 101.699 40.699C101.699 40.6487 101.737 40.6025 101.787 40.6025C101.838 40.6025 101.884 40.6403 101.884 40.6906C102.044 45.2431 103.56 45.9354 103.577 45.9396C103.623 45.9605 103.648 46.0151 103.627 46.0612C103.615 46.1032 103.581 46.1242 103.543 46.1242Z" fill="black"/>
<path d="M104.332 43.6162H104.328L103.307 43.5574C103.257 43.5532 103.215 43.5112 103.219 43.4566C103.223 43.4062 103.265 43.3643 103.32 43.3685L104.341 43.4272C104.391 43.4314 104.433 43.4734 104.429 43.528C104.425 43.5784 104.383 43.6162 104.332 43.6162Z" fill="black"/>
<path d="M104.513 42.8273H104.508L103.311 42.7517C103.261 42.7475 103.219 42.7056 103.223 42.651C103.227 42.6006 103.273 42.5586 103.324 42.5628L104.521 42.6384C104.571 42.6426 104.613 42.6846 104.609 42.7391C104.601 42.7895 104.559 42.8273 104.513 42.8273Z" fill="black"/>
<path d="M95.4992 22.2011C95.4992 22.2011 107.736 21.6724 109.076 22.9102C110.891 24.5927 114.008 38.6066 114.008 38.6066L110.996 39.4499C110.996 39.4499 106.459 27.9493 105.338 27.9493C104.212 27.9493 93.6172 27.5717 93.6172 27.5717L95.4992 22.2011Z" fill="#F7931D"/>
<path d="M94.6899 21.8992C93.7237 21.8489 92.8583 22.495 92.6315 23.4349C92.2786 24.8908 91.972 26.8838 92.7617 27.4125C94.0472 28.2768 103.306 28.2013 102.982 28.0964C102.663 27.9873 102.155 35.846 102.155 38.867L105.07 38.9802C105.07 38.9802 109.717 26.8293 109.217 25.4698C108.322 23.0405 101.424 22.4866 99.2185 22.1636C98.9202 22.1174 96.4039 21.9831 94.6899 21.8992Z" fill="#F7931D"/>
<path d="M107.676 32.1572C107.667 32.1572 107.655 32.1572 107.646 32.153C107.596 32.1362 107.571 32.0859 107.588 32.0355C107.693 31.7083 107.798 31.3852 107.898 31.0705C108.713 28.553 109.419 26.3796 109.129 25.4985C108.512 23.6314 103.878 22.9181 102.358 22.679C102.307 22.6706 102.273 22.6244 102.278 22.5741C102.286 22.5237 102.332 22.4859 102.383 22.4943C105.071 22.9097 108.718 23.6692 109.306 25.4398C109.617 26.3754 108.936 28.4733 108.079 31.1292C107.978 31.4439 107.873 31.767 107.768 32.0901C107.756 32.132 107.718 32.1572 107.676 32.1572Z" fill="#E07900"/>
<defs>
<clipPath id="clip0_769_7197">
<rect width="19" height="46.9653" fill="white" transform="matrix(-1 0 0 1 68 0)"/>
</clipPath>
</defs>
</svg>
