<svg width="337" height="317" viewBox="0 0 337 317" fill="none" xmlns="http://www.w3.org/2000/svg">
<path d="M80.3226 105.725C80.6136 119.124 72.4662 132.814 59.8086 137.328C52.9706 139.804 45.4051 139.367 38.2761 141.261C31.1471 143.154 24.0181 148.397 24.0181 155.679C24.0181 160.485 26.7824 171.553 12.2334 177.961C0.303284 183.35 3.06761 212.04 40.1675 224.274C51.5157 227.914 44.2412 218.594 56.0259 216.846C67.665 215.098 78.2858 208.399 86.2877 199.807C94.2897 191.214 100.109 180.583 104.474 169.66C109.566 156.989 113.203 143.154 110.003 129.901C106.802 116.648 95.1626 104.56 80.3226 105.725Z" fill="black"/>
<path d="M152.776 75.1416C148.848 94.22 145.065 114.755 152.921 132.522C155.395 138.348 159.177 143.591 161.214 149.562C163.688 156.698 163.833 164.417 163.106 171.844C161.796 185.971 157.577 200.535 147.684 210.729C137.79 220.924 121.059 225.293 108.838 218.157C98.0717 211.894 93.125 198.35 93.8524 185.971C94.5799 173.446 99.8175 161.795 105.492 150.727C118.877 123.93 134.59 98.1522 152.776 75.1416Z" fill="black"/>
<path d="M125.278 168.203C124.987 158.009 126.151 152.329 126.587 144.756C122.514 142.717 118.003 141.261 113.493 140.532C111.456 140.241 109.129 140.095 107.528 141.261C106.51 141.989 101.854 137.911 101.418 139.076C98.0714 146.795 97.7804 157.863 94.5796 165.728C94.2886 166.31 82.7949 165.291 82.504 165.873C81.4855 168.349 82.3585 189.466 83.0859 190.049C125.423 218.302 145.938 177.961 145.938 177.961C145.938 177.961 138.227 173.009 125.278 168.203Z" fill="white"/>
<path d="M111.748 200.681C114.803 200.681 117.859 200.244 120.768 199.516C138.082 195.001 146.666 178.253 146.666 178.107C146.811 177.816 146.666 177.379 146.375 177.088C146.229 177.088 138.664 172.427 126.006 167.621C125.861 161.213 126.297 156.553 126.733 152.038C127.024 149.708 127.17 147.378 127.315 144.756C127.315 144.465 127.17 144.174 126.879 144.028C122.66 141.989 118.295 140.533 113.639 139.805C111.603 139.513 109.129 139.222 107.238 140.679C106.801 140.679 105.492 139.95 104.765 139.513C103.164 138.494 102.146 138.057 101.418 138.348C101.127 138.494 100.836 138.64 100.836 138.931C99.0904 142.863 98.2175 147.669 97.3445 152.329C96.4716 156.844 95.5987 161.359 93.9983 165.145C93.1254 165.291 90.5065 165.145 88.4697 165C82.3591 164.709 81.9226 164.854 81.6317 165.437C80.9042 167.184 81.0497 175.923 81.1952 178.544C81.6317 189.758 82.2136 190.195 82.5046 190.486C92.8344 197.331 102.582 200.681 111.748 200.681ZM145.065 177.962C143.319 181.02 135.172 194.127 120.332 198.059C109.129 200.972 96.9081 198.059 83.6685 189.321C82.9411 187.137 82.2136 169.515 83.0866 166.311C83.9595 166.165 86.5783 166.311 88.4697 166.456C94.5802 166.747 94.8712 166.602 95.1622 166.019C96.9081 162.087 97.781 157.281 98.654 152.621C99.5269 148.106 100.4 143.591 102 139.805C102.437 139.95 103.31 140.533 104.037 140.824C105.783 141.844 107.238 142.717 108.111 141.989C109.566 140.824 111.748 141.115 113.494 141.407C117.859 142.135 121.932 143.446 125.861 145.339C125.715 147.669 125.57 149.854 125.279 152.038C124.842 156.699 124.406 161.505 124.551 168.349C124.551 168.641 124.697 168.932 124.988 169.078C135.754 172.864 142.883 176.796 145.065 177.962Z" fill="black"/>
<path d="M157.283 79.8016C155.974 89.268 154.082 99.1713 156.556 108.492C157.865 113.589 157.72 139.658 136.915 146.94C126.003 150.872 113.345 149.998 102.143 143.154C94.4316 138.493 85.1203 124.075 87.0116 109.657C80.6101 111.405 74.354 107.181 74.354 101.356C74.354 98.0062 77.9913 93.9283 81.774 94.074C84.6838 94.2196 85.1203 94.2196 87.3026 95.9673C88.903 89.268 89.7759 82.4231 89.6305 74.7043C96.9049 66.6943 108.399 62.7621 119.892 61.0145C123.675 60.4319 127.603 60.1406 131.531 60.5776C142.589 62.0339 158.447 70.1896 157.283 79.8016Z" fill="white"/>
<path d="M123.386 150.144C128.042 150.144 132.552 149.416 137.208 147.814C158.013 140.387 158.886 114.609 157.285 108.346C155.248 100.191 156.412 91.7439 157.576 83.4426C157.722 82.2775 157.867 81.1124 158.013 79.9473C158.304 77.1802 157.576 74.5588 155.539 71.9373C150.593 65.5293 139.535 61.0146 131.679 59.9951C127.46 59.4126 123.095 59.9951 119.894 60.432C110.292 61.8884 97.198 65.3837 89.1961 74.4131C89.0506 74.5588 89.0506 74.7044 89.0506 74.85C89.196 81.5493 88.4686 87.9573 87.0137 94.9479C85.4133 93.7828 84.6859 93.6372 81.9216 93.6372C80.0302 93.4915 77.9933 94.3654 76.393 95.9674C74.6471 97.5694 73.6286 99.7539 73.7741 101.647C73.7741 104.414 75.229 107.036 77.5569 108.783C80.0302 110.677 83.231 111.405 86.2863 110.822C84.9769 125.386 94.2882 139.367 101.854 144.027C108.401 147.96 115.821 150.144 123.386 150.144ZM156.558 79.6561C156.412 80.8211 156.267 81.9862 156.121 83.1513C154.957 91.5983 153.793 100.336 155.83 108.638C156.703 112.133 157.867 138.785 136.626 146.212C125.132 150.29 113.056 148.979 102.436 142.571C95.3066 138.202 85.8498 124.075 87.5957 109.803C87.5957 109.512 87.5957 109.366 87.3047 109.22C87.1592 109.075 86.8682 108.929 86.5772 109.075C83.6674 109.948 80.4667 109.366 77.9934 107.473C75.9565 106.016 74.7926 103.832 74.7926 101.502C74.7926 100.045 75.6655 98.2975 76.9749 96.9868C78.2843 95.6761 79.8847 94.9479 81.3396 95.0935C84.2494 95.2392 84.3949 95.2392 86.4317 96.8412C86.5772 96.9868 86.8682 96.9868 87.1592 96.9868C87.4502 96.8412 87.5957 96.6955 87.5957 96.4043C89.3415 88.9768 90.069 82.1319 89.9235 75.1413C97.7799 66.6944 110.438 63.1991 119.603 61.8884C122.804 61.4515 126.878 60.8689 131.097 61.4515C138.663 62.3253 149.283 66.6944 153.939 72.8111C155.976 75.1413 156.849 77.4715 156.558 79.6561Z" fill="black"/>
<path d="M111.746 117.813C118.439 117.813 124.404 112.278 125.422 104.705C125.859 100.773 124.986 96.8408 122.803 93.7825C120.621 90.7241 117.42 88.6852 113.928 88.2483C106.508 87.2288 99.6705 93.1999 98.652 101.21C98.2156 105.142 99.0885 109.074 101.271 112.133C103.453 115.191 106.654 117.23 110.146 117.667C110.582 117.813 111.164 117.813 111.746 117.813ZM112.328 89.7046C112.765 89.7046 113.201 89.7046 113.783 89.8503C116.984 90.2872 119.748 92.0348 121.639 94.8019C123.531 97.569 124.404 101.064 123.967 104.705C123.094 111.987 116.838 117.23 110.291 116.502C107.09 116.065 104.326 114.317 102.435 111.55C100.543 108.783 99.6705 105.288 100.107 101.647C100.98 94.6563 106.363 89.7046 112.328 89.7046Z" fill="black"/>
<path d="M149.429 119.562C156.121 119.562 162.086 114.027 163.105 106.454C164.123 98.2986 159.031 90.8711 151.611 89.9973C144.191 88.9778 137.353 94.9489 136.335 102.959C135.898 106.891 136.771 110.823 138.954 113.882C141.136 116.94 144.337 118.979 147.828 119.416C148.265 119.562 148.847 119.562 149.429 119.562ZM150.011 91.308C150.447 91.308 150.884 91.308 151.466 91.4537C158.013 92.3275 162.668 99.0268 161.65 106.309C160.777 113.59 154.666 118.833 147.974 118.105C144.773 117.668 142.009 115.921 140.117 113.154C138.226 110.386 137.353 106.891 137.79 103.25C138.663 96.4053 144.046 91.308 150.011 91.308Z" fill="black"/>
<path d="M78.0908 34.6208C75.1528 21.6798 83.2512 8.80495 96.1791 5.864C109.107 2.92306 121.969 11.0297 124.907 23.9706C127.845 36.9116 119.746 49.7865 106.819 52.7274C93.8906 55.6684 81.0287 47.5617 78.0908 34.6208Z" fill="black"/>
<path d="M88.0313 97.1325C94.1419 87.6662 97.9246 80.8212 99.816 69.3159C122.367 82.5689 143.608 80.3843 165.141 79.5105C165.577 75.8696 164.85 72.083 163.25 68.5878C159.467 60.1408 154.811 52.7134 141.863 46.8879C132.697 42.8101 120.476 40.1886 110.582 41.4993C100.834 42.9557 92.396 48.1986 85.558 54.6066C80.0294 59.7039 75.5192 68.0052 73.9188 76.1609C72.4639 83.1514 74.2098 88.3943 77.4106 95.5305C79.1564 94.5111 80.9023 93.6373 82.9392 94.0742C84.976 94.6567 86.2855 95.6762 88.0313 97.1325Z" fill="black"/>
<path d="M120.622 133.104C122.222 133.104 123.677 132.667 124.841 131.648C125.132 131.357 125.132 130.92 124.986 130.628C124.695 130.337 124.259 130.337 123.968 130.483C122.368 131.793 120.04 131.939 117.712 131.065C115.093 130.046 113.056 127.861 111.747 125.094C111.601 124.657 111.165 124.512 110.728 124.803C110.292 124.949 110.147 125.385 110.437 125.822C111.892 128.881 114.22 131.211 117.276 132.522C118.294 132.959 119.458 133.104 120.622 133.104Z" fill="black"/>
<path d="M112.622 103.686C112.768 102.521 113.932 101.648 115.096 101.793C116.405 101.939 117.278 103.104 117.133 104.269C116.987 105.434 115.823 106.308 114.659 106.162C113.35 105.871 112.477 104.852 112.622 103.686Z" fill="black"/>
<path d="M146.228 105.434C146.373 104.268 147.537 103.395 148.701 103.54C150.011 103.686 150.884 104.851 150.738 106.016C150.593 107.181 149.429 108.055 148.265 107.909C146.955 107.618 146.082 106.599 146.228 105.434Z" fill="black"/>
<path d="M133.57 119.124C133.715 119.124 133.715 119.124 133.861 119.124L136.916 117.959C137.352 117.813 137.934 117.522 138.225 116.94C138.516 116.066 137.934 115.338 137.643 115.046C135.316 111.988 134.588 107.91 135.607 104.269C135.752 103.832 135.461 103.541 135.025 103.395C134.588 103.25 134.297 103.541 134.152 103.978C132.988 108.056 133.861 112.57 136.48 116.066C136.625 116.357 136.77 116.503 136.77 116.648C136.77 116.648 136.625 116.794 136.334 116.794L133.279 117.959C132.842 118.105 132.697 118.542 132.842 118.978C132.988 118.978 133.279 119.124 133.57 119.124Z" fill="black"/>
<path d="M137.644 100.774C138.08 100.774 138.371 100.482 138.371 100.045C138.371 98.0066 136.334 96.5502 134.443 95.9677C131.097 95.0938 127.459 95.9677 124.841 98.1522C124.55 98.4435 124.55 98.8804 124.841 99.1717C125.132 99.4629 125.568 99.4629 125.859 99.1717C128.041 97.2784 131.242 96.5502 134.006 97.2784C135.461 97.7153 136.916 98.5891 136.916 99.8999C136.916 100.482 137.207 100.774 137.644 100.774Z" fill="black"/>
<path d="M100.108 97.2786C100.545 97.2786 100.836 96.9874 100.836 96.5504C100.836 96.1135 100.545 95.8223 100.108 95.8223H89.0513C88.6148 95.8223 88.3238 96.1135 88.3238 96.5504C88.3238 96.9874 88.6148 97.2786 89.0513 97.2786H100.108Z" fill="black"/>
<path d="M87.0161 104.997C87.4525 104.997 87.7435 104.706 87.7435 104.269C87.7435 101.502 88.3254 98.7345 89.3439 96.2586C89.4894 95.8217 89.3439 95.3848 88.9074 95.2392C88.471 95.0935 88.0345 95.2392 87.889 95.6761C86.7251 98.2976 86.1431 101.356 86.1431 104.269C86.2886 104.56 86.5796 104.997 87.0161 104.997Z" fill="black"/>
<path d="M5.68513 255.002C15.433 228.205 20.9616 201.699 44.0944 182.329C55.1516 173.009 68.6822 166.455 84.1041 165.436C85.1225 180.436 102.436 190.339 111.747 191.359C116.839 191.941 135.607 194.417 135.607 172.28C141.718 174.756 162.232 177.232 170.379 202.427C173.726 212.767 179.691 252.235 199.477 275.1C204.133 280.488 208.498 244.516 215.19 246.992C221.737 249.322 229.448 253.254 229.885 260.245C230.321 265.634 225.811 270.44 220.719 272.624C209.953 277.284 205.879 299.713 194.24 301.315C182.164 303.062 162.814 307.431 148.265 261.847C140.845 269.274 136.044 277.284 127.606 281.799C103.454 294.761 23.2894 309.47 10.1953 311.8C9.17691 311.946 6.70358 311.072 6.26712 310.053C3.6483 303.645 -3.48071 280.343 5.68513 255.002Z" fill="#FAA51C"/>
<path d="M10.0513 312.529C10.1968 312.529 10.3423 312.529 10.4878 312.529C25.9097 309.762 104.183 295.49 128.189 282.528C134.009 279.47 138.082 274.664 142.447 269.566C144.193 267.527 146.084 265.343 148.121 263.158C154.377 282.091 161.943 294.033 171.108 299.422C179.256 304.228 186.967 303.063 193.223 302.189C193.659 302.189 194.096 302.043 194.387 302.043C200.934 301.17 205.153 294.033 209.227 287.043C212.718 281.217 216.21 275.246 221.011 273.207C226.104 271.023 231.05 266.071 230.614 260.1C230.177 254.275 225.231 249.614 215.483 246.119C214.755 245.828 214.028 245.973 213.3 246.265C210.245 247.867 207.772 255.44 205.589 262.721C203.989 267.673 201.952 274.372 200.497 274.664C200.352 274.664 200.206 274.518 200.061 274.372C184.348 256.168 177.219 226.895 173.436 211.166C172.418 207.234 171.69 204.03 171.108 201.991C163.979 179.854 147.248 174.903 139.101 172.427C137.791 171.99 136.627 171.699 135.9 171.407C135.609 171.262 135.463 171.407 135.172 171.553C135.027 171.699 134.881 171.99 134.881 172.135C134.881 178.835 133.136 183.932 129.644 186.99C123.97 191.942 115.24 190.923 112.04 190.486H111.894C103.019 189.466 85.8514 179.854 84.9785 165.291C84.9785 165.145 84.833 164.854 84.6875 164.854C84.542 164.708 84.3966 164.708 84.1056 164.708C69.7021 165.582 56.1716 171.407 43.6594 181.747C24.4548 197.913 17.3258 218.739 9.90582 240.73C8.30544 245.245 6.70505 250.051 5.10466 254.711C-3.33374 277.576 1.6129 300.441 5.83211 310.199C6.26857 311.51 8.59641 312.529 10.0513 312.529ZM148.412 261.119C148.267 261.119 147.976 261.265 147.83 261.265C145.357 263.741 143.32 266.217 141.138 268.547C136.918 273.499 132.845 278.159 127.316 281.072C103.456 293.888 25.4732 308.16 10.1968 310.927C9.32385 311.073 7.287 310.199 6.99603 309.616C6.55956 308.597 -3.9157 283.402 6.26859 255.148C8.01445 250.488 9.61485 245.682 11.0697 241.167C18.4897 219.322 25.4732 198.641 44.3869 182.767C56.317 172.718 69.4111 167.184 83.2326 166.164C84.1056 174.466 89.6342 180.437 94.1444 184.078C99.382 188.301 106.22 191.36 111.458 191.942H111.603C115.095 192.379 124.261 193.398 130.371 188.01C134.009 184.806 135.9 179.709 136.191 173.155C136.918 173.446 137.646 173.592 138.519 173.883C146.957 176.359 162.525 181.165 169.508 202.428C170.09 204.467 170.963 207.525 171.836 211.603C175.619 227.477 182.748 256.896 198.751 275.392C199.479 276.266 200.206 276.266 200.643 276.12C202.825 275.683 204.28 271.168 206.753 263.158C208.79 256.75 211.264 248.74 213.737 247.575C214.028 247.43 214.319 247.43 214.755 247.43C223.921 250.634 228.577 254.857 229.013 260.1C229.45 265.343 224.794 269.858 220.284 271.751C215.046 273.936 211.409 280.198 207.772 286.169C203.698 293.014 199.77 299.568 193.95 300.441C193.514 300.441 193.077 300.587 192.786 300.587C180.856 302.335 162.816 304.956 148.849 261.411C148.703 261.119 148.558 260.974 148.267 260.974C148.558 261.119 148.558 261.119 148.412 261.119Z" fill="black"/>
<path d="M34.4898 280.926C56.4588 279.761 78.7187 278.159 100.833 276.702C102.87 276.411 112.618 274.955 115.091 274.663C117.128 274.372 119.165 273.644 121.056 272.77C127.603 269.712 141.716 263.741 144.917 265.488C152.191 267.673 158.738 272.916 163.976 279.469C166.885 283.256 169.213 289.373 168.049 290.392C167.322 291.12 166.158 291.412 165.285 290.683C161.793 283.401 155.683 277.285 148.408 273.935C151.9 275.828 155.101 278.159 157.865 280.926C160.775 283.693 163.394 286.897 164.121 290.975C164.121 291.266 164.267 291.557 163.976 291.848C163.539 292.431 162.521 292.14 161.939 291.703C160.775 290.829 145.644 278.45 142.734 278.741C146.517 280.197 159.902 291.12 159.902 292.285C159.902 292.868 159.756 293.45 159.465 293.887C159.029 294.47 158.156 294.616 157.429 294.47C156.701 294.324 155.974 293.887 155.392 293.596C151.027 290.975 147.099 287.625 142.443 285.732C140.115 284.712 137.206 284.13 135.169 285.586C139.388 287.188 143.316 289.518 146.517 292.431C147.099 292.868 147.535 293.45 147.826 294.033C148.408 294.907 148.99 296.218 148.263 297.091C147.099 298.402 146.08 297.674 145.062 297.091C140.988 294.47 136.915 292.285 132.695 290.538C131.386 289.955 129.786 289.518 128.622 290.246C127.603 290.975 122.511 294.033 112.181 294.616C108.69 294.761 105.198 295.781 100.833 296.946C42.4918 313.111 25.033 319.519 10.9205 313.403C8.15617 312.238 7.28325 310.781 8.15619 305.975C10.484 293.305 12.8118 286.169 34.4898 280.926Z" fill="white"/>
<path d="M22.5613 316.462C33.764 316.462 49.6224 311.947 79.5933 303.646C85.8493 301.898 93.1238 299.859 100.835 297.674C104.908 296.509 108.546 295.49 112.037 295.344C121.785 294.907 127.023 291.995 128.914 290.83C129.787 290.247 131.242 290.684 132.406 291.121C136.625 292.723 140.553 294.907 144.627 297.529H144.773C145.791 298.111 147.246 298.985 148.701 297.383C149.865 296.072 148.846 294.179 148.41 293.451C147.973 292.723 147.537 292.14 146.955 291.558C144.045 288.936 140.699 286.752 137.062 285.15C138.808 284.713 140.699 285.295 142.154 285.878C145.209 287.189 147.973 289.082 150.738 290.975C152.193 291.849 153.502 292.868 154.957 293.742C155.684 294.179 156.412 294.616 157.285 294.762C158.449 294.907 159.467 294.616 160.049 293.888C160.486 293.305 160.631 292.577 160.631 291.849C160.631 291.703 160.486 291.266 160.195 290.975C160.486 291.121 160.631 291.412 160.922 291.558C161.213 291.703 161.358 291.849 161.504 291.995C162.086 292.432 162.813 292.868 163.541 292.723C163.977 292.577 164.268 292.432 164.559 291.995C164.705 291.703 164.85 291.412 164.85 291.121C165.869 291.849 167.324 291.849 168.487 290.83C170.379 289.082 167.033 281.946 164.559 278.887C158.885 271.605 152.193 266.654 145.209 264.615C141.426 262.722 126.877 268.984 120.767 271.897C119.166 272.625 117.13 273.499 115.093 273.79C114.365 273.936 113.201 274.081 111.746 274.227C107.818 274.809 102.29 275.538 100.835 275.829C79.1568 277.285 56.8969 278.887 34.4914 280.052H34.346C12.2315 285.295 9.75819 292.868 7.28487 305.684C6.41194 310.49 7.13937 312.529 10.4856 313.84C14.1229 315.733 17.9056 316.462 22.5613 316.462ZM130.078 289.228C129.351 289.228 128.769 289.373 128.187 289.81C126.441 290.975 121.349 293.597 112.037 294.034C108.4 294.179 104.763 295.199 100.544 296.364C92.6873 298.548 85.5583 300.587 79.3023 302.335C37.2558 314.131 23.1433 318.064 11.0676 312.966C8.73978 311.947 7.86684 311.073 8.73978 306.413C11.2131 293.742 13.3954 287.043 34.6369 281.946C56.8969 280.635 79.3023 279.179 100.98 277.722C102.435 277.431 108.109 276.703 111.892 276.12C113.347 275.975 114.511 275.683 115.238 275.683C117.566 275.392 119.748 274.373 121.349 273.644C131.242 269.13 142.299 265.052 144.627 266.363H144.773C151.465 268.256 158.012 273.207 163.395 280.198C166.451 284.13 168.051 289.373 167.469 290.247C167.033 290.684 166.305 290.83 165.869 290.538C162.377 283.111 156.121 276.994 148.701 273.644C148.41 273.499 147.973 273.644 147.682 273.936C147.537 274.227 147.682 274.664 147.973 274.955C151.32 276.848 154.52 279.179 157.285 281.8C160.922 285.15 162.813 288.208 163.25 291.412C163.25 291.703 163.25 291.849 163.25 291.849C163.104 291.849 162.813 291.703 162.377 291.412C162.231 291.412 162.086 291.266 161.795 290.975C145.5 278.013 143.318 278.305 142.59 278.305C142.299 278.305 142.008 278.596 142.008 278.887C142.008 279.179 142.154 279.615 142.445 279.615C145.937 280.926 158.303 290.83 159.176 292.577C159.176 293.014 159.031 293.305 158.885 293.597C158.594 294.034 158.012 294.034 157.576 294.034C156.994 293.888 156.412 293.597 155.83 293.16C154.375 292.286 152.92 291.266 151.611 290.393C148.846 288.499 145.937 286.606 142.736 285.15C140.408 284.13 137.207 283.402 134.734 285.15C134.443 285.295 134.443 285.587 134.443 285.878C134.443 286.169 134.588 286.315 134.879 286.46C139.099 288.062 142.881 290.393 145.937 293.16C146.373 293.597 146.81 294.034 147.1 294.616C147.682 295.636 147.828 296.509 147.537 296.801C146.809 297.529 146.373 297.383 145.355 296.801C141.281 294.034 137.062 291.849 132.842 290.247C132.115 289.519 131.097 289.228 130.078 289.228Z" fill="black"/>
<path d="M180.272 309.325C161.941 309.762 143.754 310.053 125.423 310.49V301.169L186.383 299.713L180.272 309.325Z" fill="black"/>
<path d="M336.094 224.274L216.938 224.857L175.764 309.326L293.902 309.035L336.094 224.274Z" fill="white"/>
<path d="M175.763 310.054L293.901 309.763C294.192 309.763 294.483 309.617 294.629 309.326L336.821 224.565C336.966 224.274 336.966 224.128 336.821 223.837C336.675 223.692 336.384 223.546 336.239 223.546L217.083 224.128C216.792 224.128 216.501 224.274 216.355 224.565L175.327 309.035C175.182 309.326 175.182 309.472 175.327 309.763C175.327 310.054 175.618 310.054 175.763 310.054ZM293.465 308.306L177.073 308.598L217.374 225.585L334.929 225.002L293.465 308.306Z" fill="black"/>
<path d="M260.73 258.644C264.077 258.352 267.859 259.226 269.169 262.285C270.478 265.343 269.46 269.275 266.986 271.605C264.513 273.935 260.73 274.664 257.384 273.935C255.638 273.499 253.747 272.625 252.728 271.168C252.001 270.149 251.71 268.838 251.71 267.527C251.71 263.304 253.747 259.372 260.73 258.644Z" fill="white"/>
<path d="M260.004 274.955C262.768 274.955 265.532 273.936 267.569 272.188C270.333 269.567 271.352 265.343 269.897 261.994C268.587 258.935 265.096 257.479 260.731 257.916C252.729 258.644 251.129 263.596 251.129 267.528C251.129 269.13 251.565 270.441 252.293 271.606C253.602 273.499 255.784 274.373 257.385 274.664C258.112 274.81 259.131 274.955 260.004 274.955ZM262.04 259.372C264.077 259.372 267.278 259.809 268.587 262.722C269.751 265.489 269.024 268.984 266.551 271.169C264.368 273.208 260.877 274.082 257.676 273.208C255.784 272.771 254.33 271.897 253.457 270.732C252.729 269.712 252.584 268.402 252.584 267.528C252.584 262.576 255.202 259.955 260.877 259.372C261.022 259.372 261.458 259.372 262.04 259.372Z" fill="black"/>
<path d="M47.5857 280.926C47.8767 280.926 48.1676 280.781 48.3131 280.489C56.606 255.294 61.2617 239.42 61.2617 205.049C61.2617 204.613 60.9707 204.321 60.5343 204.321C60.0978 204.321 59.8068 204.613 59.8068 205.049C59.8068 239.274 55.1511 255.148 46.8582 280.052C46.7127 280.489 47.0037 280.926 47.2947 280.926C47.4402 280.926 47.5857 280.926 47.5857 280.926Z" fill="black"/>
<path d="M148.411 262.577C148.702 262.577 148.848 262.431 148.993 262.286C159.614 246.848 156.849 235.634 153.94 224.711C152.485 219.323 151.03 213.643 151.321 207.381C151.321 206.944 151.03 206.652 150.593 206.652C150.157 206.652 149.866 206.944 149.866 207.381C149.575 213.789 151.175 219.468 152.485 225.148C155.395 236.217 158.013 246.702 147.684 261.557C147.393 261.849 147.538 262.286 147.829 262.577C148.12 262.431 148.266 262.577 148.411 262.577Z" fill="black"/>
<path d="M113.639 224.71C124.405 224.71 135.317 223.691 145.792 221.07C145.937 221.07 145.938 220.924 145.938 220.778C145.938 220.633 145.792 220.633 145.647 220.633C119.022 227.332 90.2149 223.254 64.7542 219.759C64.6087 219.759 64.4633 219.904 64.4633 219.904C64.4633 220.05 64.6087 220.196 64.6087 220.196C80.1761 222.38 96.9075 224.71 113.639 224.71Z" fill="black"/>
<path d="M103.892 245.537C119.75 245.537 135.754 243.643 151.03 239.857C151.176 239.857 151.176 239.711 151.176 239.566C151.176 239.42 151.03 239.42 150.885 239.42C122.66 246.265 92.6889 246.847 64.1729 241.022C64.0274 241.022 63.8819 241.022 63.8819 241.168C63.8819 241.313 63.8819 241.459 64.0274 241.459C77.1215 244.226 90.5066 245.537 103.892 245.537Z" fill="black"/>
<path d="M3.9388 287.771C3.9388 287.771 4.0843 287.771 4.0843 287.625C14.1231 275.829 30.2724 270.003 45.5489 272.479C45.6944 272.479 45.8398 272.479 45.8398 272.333C45.8398 272.188 45.8398 272.042 45.6943 272.042C30.2724 269.421 13.8321 275.392 3.79332 287.334C3.64783 287.48 3.64783 287.625 3.79332 287.625C3.79332 287.771 3.79331 287.771 3.9388 287.771Z" fill="black"/>
<path d="M5.68778 276.994C7.43365 276.266 8.74306 275.101 10.0525 274.081C10.4889 273.644 10.9254 273.207 11.3619 272.916C14.1262 270.586 17.618 269.13 21.2552 268.547C21.4007 268.547 21.5462 268.401 21.4007 268.256C21.4007 268.11 21.2552 267.964 21.1097 268.11C17.327 268.693 13.8352 270.149 11.0709 272.625C10.6344 273.062 10.198 273.353 9.76149 273.79C8.45209 274.955 7.28816 276.12 5.68778 276.703C5.54229 276.703 5.5423 276.848 5.5423 276.994C5.5423 276.848 5.68778 276.994 5.68778 276.994Z" fill="black"/>
</svg>
