<svg width="171" height="298" viewBox="0 0 171 298" fill="none" xmlns="http://www.w3.org/2000/svg">
<g clip-path="url(#clip0_712:18216)">
<path d="M33.7003 55.7C33.3003 55.3 32.7003 55.3 32.3003 55.7L16.3003 71.7L10.0003 65.4C9.60029 65 9.00029 65 8.60029 65.4C8.20029 65.8 8.20029 66.4 8.60029 66.8L15.6003 73.8C15.8003 74 16.1003 74.1 16.3003 74.1C16.6003 74.1 16.8003 74 17.0003 73.8L33.6003 57.2C34.1003 56.7 34.1003 56.1 33.7003 55.7Z" fill="black"/>
<path d="M33.7003 97.2C33.3003 96.8 32.7003 96.8 32.3003 97.2L16.3003 113.2L10.0003 106.9C9.60029 106.5 9.00029 106.5 8.60029 106.9C8.20029 107.3 8.20029 107.9 8.60029 108.3L15.6003 115.3C15.8003 115.5 16.1003 115.6 16.3003 115.6C16.6003 115.6 16.8003 115.5 17.0003 115.3L33.6003 98.7C34.0003 98.2 34.0003 97.6 33.7003 97.2Z" fill="#BD2126"/>
<path d="M34.5001 14.2C34.1001 13.8 33.5001 13.8 33.1001 14.2L21.2001 26.1L9.3001 14.2C8.9001 13.8 8.3001 13.8 7.9001 14.2C7.5001 14.6 7.5001 15.2 7.9001 15.6L20.5001 28.2C20.7001 28.4 21.0001 28.5 21.2001 28.5C21.5001 28.5 21.7001 28.4 21.9001 28.2L34.5001 15.6C34.9001 15.2 34.9001 14.6 34.5001 14.2Z" fill="black"/>
<path d="M22.8001 150.4L34.5001 138.7C34.9001 138.3 34.9001 137.7 34.5001 137.3C34.1001 136.9 33.5001 136.9 33.1001 137.3L21.2001 149.2L9.3001 137.2C8.9001 136.8 8.3001 136.8 7.9001 137.2C7.5001 137.6 7.5001 138.2 7.9001 138.6L19.6001 150.3L8.0001 162.1C7.6001 162.5 7.6001 163.1 8.0001 163.5C8.4001 163.9 9.0001 163.9 9.4001 163.5L21.3001 151.6L33.2001 163.5C33.6001 163.9 34.2001 163.9 34.6001 163.5C35.0001 163.1 35.0001 162.5 34.6001 162.1L22.8001 150.4Z" fill="black"/>
<path d="M65.3001 276.4L77.0001 264.7C77.4001 264.3 77.4001 263.7 77.0001 263.3C76.6001 262.9 76.0001 262.9 75.6001 263.3L63.7001 275.2L51.8001 263.2C51.4001 262.8 50.8001 262.8 50.4001 263.2C50.0001 263.6 50.0001 264.2 50.4001 264.6L62.1001 276.3L50.5001 288.1C50.1001 288.5 50.1001 289.1 50.5001 289.5C50.9001 289.9 51.5001 289.9 51.9001 289.5L63.8001 277.6L75.7001 289.5C76.1001 289.9 76.7001 289.9 77.1001 289.5C77.5001 289.1 77.5001 288.5 77.1001 288.1L65.3001 276.4Z" fill="#BD2126"/>
<path d="M63.7002 30.5C61.7002 30.5 59.8002 30.5 57.8002 30.5C57.3002 30.5 56.8002 30.4 56.4002 30.3C55.1002 29.9 54.2002 28.8 54.1002 27.4C54.0002 25.7 54.2002 24 54.8002 22.3C55.1002 21.5 55.4002 20.8 56.0002 20.3C56.8002 19.5 57.7002 19.1 58.8002 19.1C58.9002 19.1 59.1002 19.2 59.2002 19.2C59.6002 19.4 59.9002 19.7 60.3002 19.9C62.6002 21.3 65.0002 21.3 67.3002 19.9C67.5002 19.8 67.8002 19.6 68.0002 19.4C68.5002 19 69.0002 19 69.6002 19.1C70.6002 19.3 71.4002 19.8 72.0002 20.7C72.7002 21.7 73.0002 22.8 73.2002 23.9C73.4002 25 73.5002 26 73.4002 27.1C73.4002 29 72.0002 30.4 70.2002 30.4C68.5002 30.5 66.9002 30.4 65.2002 30.4C64.7002 30.5 64.2002 30.5 63.7002 30.5Z" fill="white"/>
<path d="M63.7005 9.4C66.6005 9.4 69.0005 11.7 69.0005 14.6C69.0005 17.5 66.7005 19.9 63.8005 19.9C60.8005 19.9 58.5005 17.6 58.5005 14.7C58.4005 11.8 60.9005 9.3 63.7005 9.4Z" fill="white"/>
<path d="M73.9998 56.6C73.4998 57.4 72.8998 58.2 72.3998 59C72.3998 59.1 72.1998 59.1 72.1998 59.1C71.2998 59.1 70.2998 59.1 69.3998 59.1C69.2998 59.1 69.2998 59.1 69.1998 59.1C69.0998 60 68.7998 60.8 68.3998 61.6C67.5998 63.1 66.2998 64.1001 64.7998 64.8001C63.5998 65.3001 62.2998 65.6 60.8998 65.7C60.7998 65.7 60.5998 65.7 60.4998 65.7C60.4998 65.7 60.4998 65.7 60.3998 65.7C60.6998 66.1 61.0998 66.5001 61.3998 66.9001C64.1998 70.4001 66.9998 73.9001 69.7998 77.3001C69.9998 77.5001 69.9998 77.7001 69.9998 78C69.8998 78 69.8998 78 69.7998 78C68.6998 78 67.4998 78 66.3998 78.1C66.1998 78.1 66.0998 78.0001 65.9998 77.9001C64.2998 75.8001 62.4998 73.8 60.7998 71.7C59.2998 69.9 57.7998 68.1001 56.2998 66.3001C56.1998 66.2001 56.1998 66.2 56.1998 66.1C56.1998 65.4 56.1998 64.6001 56.0998 63.9001V63.8C57.2998 63.9 58.3998 63.9 59.5998 63.8C60.9998 63.6 62.3998 63.3 63.6998 62.5C64.7998 61.7 65.3998 60.6 65.4998 59.3C65.4998 59.2 65.4998 59.2 65.4998 59.1C62.0998 59.1 58.6998 59.1 55.2998 59.1C55.3998 58.9 55.4998 58.8001 55.5998 58.7001C55.9998 58.1001 56.4998 57.4 56.8998 56.8C56.9998 56.7 57.0998 56.6 57.1998 56.6C59.7998 56.6 62.2998 56.6 64.8998 56.6C64.9998 56.6 65.0998 56.6 65.1998 56.6C64.9998 56.2 64.7998 55.8 64.4998 55.5C63.5998 54.6 62.4998 54.2 61.2998 54C60.0998 53.8 58.9998 53.9 57.7998 53.8C56.9998 53.8 56.2998 53.8 55.3998 53.8C55.5998 53.5 55.7998 53.2001 55.9998 52.9001C56.2998 52.4001 56.5998 52 56.9998 51.5C57.0998 51.4 57.1998 51.3 57.2998 51.3C58.6998 51.3 60.1998 51.3 61.5998 51.3C65.6998 51.3 69.7998 51.3 73.8998 51.3C73.9998 51.3 74.0998 51.3 74.1998 51.3C73.8998 51.8 73.5998 52.2 73.2998 52.6C73.0998 52.9 72.8998 53.3 72.6998 53.6C72.5998 53.8 72.4998 53.8 72.2998 53.8C70.8998 53.8 69.5998 53.8 68.1998 53.8C68.0998 53.8 67.9998 53.8 67.8998 53.8C68.0998 54.1 68.2998 54.4 68.3998 54.6C68.6998 55.2 68.9998 55.8001 69.1998 56.4001C69.1998 56.6001 69.2998 56.5 69.4998 56.5C70.9998 56.5 72.3998 56.5 73.9998 56.6C73.7998 56.6 73.8998 56.6 73.9998 56.6Z" fill="black"/>
<path d="M33.7999 182.3C33.3999 181.9 32.7999 181.9 32.3999 182.3L16.3999 198.3L10.0999 192C9.6999 191.6 9.0999 191.6 8.6999 192C8.2999 192.4 8.2999 193 8.6999 193.4L15.6999 200.4C15.8999 200.6 16.1999 200.7 16.3999 200.7C16.6999 200.7 16.8999 200.6 17.0999 200.4L33.6999 183.8C34.0999 183.3 34.0999 182.6 33.7999 182.3Z" fill="#7EB222"/>
<path d="M56.6999 93.4C56.2999 93.8 56.2999 94.4 56.6999 94.8L68.5999 106.7L56.6999 118.6C56.2999 119 56.2999 119.6 56.6999 120C57.0999 120.4 57.6999 120.4 58.0999 120L70.6999 107.4C70.8999 107.2 70.9999 106.9 70.9999 106.7C70.9999 106.4 70.8999 106.2 70.6999 106L58.0999 93.4C57.6999 93 57.0999 93 56.6999 93.4Z" fill="black"/>
<path d="M70.6999 137.1C71.0999 137.5 71.0999 138.1 70.6999 138.5L58.7999 150.4L70.6999 162.3C71.0999 162.7 71.0999 163.3 70.6999 163.7C70.2999 164.1 69.6999 164.1 69.2999 163.7L56.6999 151.1C56.4999 150.9 56.3999 150.6 56.3999 150.4C56.3999 150.1 56.4999 149.9 56.6999 149.7L69.2999 137.1C69.6999 136.7 70.2999 136.7 70.6999 137.1Z" fill="black"/>
<path d="M56.6999 178.1C56.2999 178.5 56.2999 179.1 56.6999 179.5L68.5999 191.4L56.6999 203.3C56.2999 203.7 56.2999 204.3 56.6999 204.7C57.0999 205.1 57.6999 205.1 58.0999 204.7L70.6999 192.1C70.8999 191.9 70.9999 191.6 70.9999 191.4C70.9999 191.1 70.8999 190.9 70.6999 190.7L58.0999 178.1C57.6999 177.7 57.0999 177.7 56.6999 178.1Z" fill="white"/>
<path d="M70.6999 221.8C71.0999 222.2 71.0999 222.8 70.6999 223.2L58.7999 235.1L70.6999 247C71.0999 247.4 71.0999 248 70.6999 248.4C70.2999 248.8 69.6999 248.8 69.2999 248.4L56.6999 235.8C56.4999 235.6 56.3999 235.3 56.3999 235.1C56.3999 234.8 56.4999 234.6 56.6999 234.4L69.2999 221.8C69.6999 221.4 70.2999 221.4 70.6999 221.8Z" fill="white"/>
<path d="M36.3001 278.5H6.1001C5.5001 278.5 5.1001 278 5.1001 277.5C5.1001 276.9 5.6001 276.5 6.1001 276.5H36.3001C36.9001 276.5 37.3001 277 37.3001 277.5C37.3001 278 36.8001 278.5 36.3001 278.5Z" fill="black"/>
<path d="M36.3001 233.9H22.3001V219.8C22.3001 219.2 21.8001 218.8 21.3001 218.8C20.8001 218.8 20.3001 219.3 20.3001 219.8V233.9H6.1001C5.5001 233.9 5.1001 234.4 5.1001 234.9C5.1001 235.5 5.6001 235.9 6.1001 235.9H20.2001V250C20.2001 250.6 20.7001 251 21.2001 251C21.7001 251 22.2001 250.5 22.2001 250V235.9H36.3001C36.9001 235.9 37.3001 235.4 37.3001 234.9C37.3001 234.4 36.8001 233.9 36.3001 233.9Z" fill="black"/>
<path opacity="0.6" d="M116.8 22.7V32.9H109V24.8C109 20.2 109.6 16.8 110.7 14.6C111.8 12.4 113.5 10.7 115.6 9.40002L117.4 12.9C116 13.6 115 14.6 114.2 16.1C113.5 17.5 113 19.7 112.9 22.7H116.8ZM104.3 22.7V32.9H96.6001V24.8C96.6001 20.2 97.1001 16.8 98.2001 14.6C99.3001 12.4 101 10.7 103.2 9.40002L105 12.9C103.6 13.6 102.6 14.6 101.8 16.1C101.1 17.5 100.6 19.7 100.5 22.7H104.3Z" fill="#27156B"/>
<path opacity="0.6" d="M96.4998 63.2V53H104.3V61C104.3 65.6 103.7 69 102.6 71.2C101.5 73.4 99.7998 75.1 97.6998 76.4L95.7998 73C97.1998 72.3 98.1998 71.3 98.9998 69.8C99.6998 68.4 100.2 66.2 100.3 63.2H96.4998ZM108.9 63.2V53H116.6V61C116.6 65.6 116.1 69 115 71.2C113.9 73.4 112.2 75.1 110 76.4L108.2 72.9C109.6 72.2 110.6 71.2 111.4 69.7C112.1 68.3 112.6 66.1 112.7 63.1H108.9V63.2Z" fill="#27156B"/>
<path fill-rule="evenodd" clip-rule="evenodd" d="M96 149.5C96 146.715 97.1062 144.045 99.0754 142.075C101.045 140.106 103.715 139 106.5 139C109.285 139 111.955 140.106 113.925 142.075C115.894 144.045 117 146.715 117 149.5C117 152.285 115.894 154.955 113.925 156.925C111.955 158.894 109.285 160 106.5 160C103.715 160 101.045 158.894 99.0754 156.925C97.1062 154.955 96 152.285 96 149.5V149.5ZM105.901 153.994L111.946 146.437L110.854 145.563L105.699 152.005L102.048 148.962L101.152 150.038L105.901 153.995V153.994Z" fill="#219653"/>
<path d="M106.5 95C112.306 95 117 99.6935 117 105.5C117 111.306 112.306 116 106.5 116C100.693 116 96 111.306 96 105.5C96 99.6935 100.693 95 106.5 95ZM110.269 100.25L106.5 104.019L102.73 100.25L101.25 101.73L105.019 105.5L101.25 109.269L102.73 110.75L106.5 106.98L110.269 110.75L111.75 109.269L107.98 105.5L111.75 101.73L110.269 100.25Z" fill="#EB5757"/>
</g>
<defs>
<clipPath id="clip0_712:18216">
<rect width="170.1" height="297.6" fill="white"/>
</clipPath>
</defs>
</svg>
