<svg width="22" height="23" viewBox="0 0 22 23" fill="none" xmlns="http://www.w3.org/2000/svg">
<path d="M20.375 0.28125H1.62012C0.760742 0.28125 0.0625 0.989258 0.0625 1.8584V20.5791C0.0625 21.4482 0.760742 22.1562 1.62012 22.1562H20.375C21.2344 22.1562 21.9375 21.4482 21.9375 20.5791V1.8584C21.9375 0.989258 21.2344 0.28125 20.375 0.28125ZM6.67383 19.0312H3.43164V8.5918H6.67871V19.0312H6.67383ZM5.05273 7.16602C4.0127 7.16602 3.17285 6.32129 3.17285 5.28613C3.17285 4.25098 4.0127 3.40625 5.05273 3.40625C6.08789 3.40625 6.93262 4.25098 6.93262 5.28613C6.93262 6.32617 6.09277 7.16602 5.05273 7.16602V7.16602ZM18.8271 19.0312H15.585V13.9531C15.585 12.7422 15.5605 11.1846 13.9004 11.1846C12.2109 11.1846 11.9521 12.5029 11.9521 13.8652V19.0312H8.70996V8.5918H11.8203V10.0176H11.8643C12.2988 9.19727 13.3584 8.33301 14.9355 8.33301C18.2168 8.33301 18.8271 10.4961 18.8271 13.3086V19.0312V19.0312Z" fill="#F2F2F2"/>
</svg>
