<svg width="56" height="56" viewBox="0 0 56 56" fill="none" xmlns="http://www.w3.org/2000/svg">
<g clip-path="url(#clip0_637_2323)">
<rect width="56" height="56" rx="28" fill="#EEEDED"/>
<path d="M48.2749 22.1354C48.2749 22.1354 48.8056 18.3444 51.1181 18.8752C52.1795 19.1405 50.5115 21.1876 50.5115 21.1876L53.4684 19.9366C53.4684 19.9366 56.8424 18.8752 57.5248 19.1405C58.2071 19.4059 57.1457 20.5432 57.1457 20.5432C57.1457 20.5432 59.534 19.7471 59.2307 20.9223C58.9274 22.0975 57.2973 22.8557 57.2973 22.8557C57.2973 22.8557 59.6098 21.9458 59.1549 23.3485C58.8895 24.1067 53.8096 27.4427 50.322 27.4427C46.8343 27.4427 47.8199 24.6753 47.8199 24.6753L48.2749 22.1354Z" fill="#B26756"/>
<path d="M55.9685 23.6553C55.9306 23.6553 55.9306 23.6553 55.8927 23.6174L52.7841 21.1533C52.7462 21.1154 52.7083 21.0396 52.7462 20.9638C52.7841 20.9259 52.8599 20.8879 52.9357 20.9259L56.0443 23.39C56.0822 23.4279 56.1201 23.5037 56.0822 23.5795C56.0443 23.6174 56.0064 23.6553 55.9685 23.6553Z" fill="black"/>
<path d="M49.7153 25.3208C49.6395 25.3208 49.6016 25.2829 49.6016 25.207C49.6016 25.1312 49.6395 25.0554 49.7153 25.0554C49.7153 25.0554 50.6251 24.9417 51.0042 24.2214C51.3075 23.6148 51.1938 22.705 50.5872 21.6056C50.5493 21.5298 50.5872 21.454 50.6251 21.4161C50.7009 21.3782 50.7767 21.4161 50.8147 21.454C51.4591 22.6671 51.6108 23.6148 51.2317 24.3351C50.7768 25.207 49.7532 25.3208 49.7153 25.3208Z" fill="black"/>
<path d="M52.4113 27.934L49.4922 26.1523C48.9994 25.849 48.8857 25.2425 49.151 24.7496L54.0034 16.9024C54.3067 16.4096 54.9133 16.2958 55.4061 16.5612L58.3251 18.3429C58.818 18.6462 58.9317 19.2528 58.6663 19.7456L53.8139 27.5929C53.5106 28.0857 52.9041 28.2373 52.4113 27.934Z" fill="#40507F"/>
<path d="M51.4972 27.4047L48.5782 25.623C48.0853 25.3197 47.9716 24.7132 48.237 24.2203L53.0894 16.3731C53.3927 15.8803 53.9992 15.7665 54.492 16.0319L57.4111 17.8136C57.9039 18.1169 58.0176 18.7235 57.7523 19.2163L52.8998 27.0636C52.5966 27.5185 51.99 27.6701 51.4972 27.4047Z" fill="black"/>
<path d="M50.3322 25.2483C50.3322 25.5516 50.5976 25.7791 50.9009 25.7791C51.2042 25.7791 51.4316 25.5137 51.4316 25.2104C51.4316 24.9071 51.1663 24.6797 50.863 24.6797C50.5218 24.6797 50.2943 24.9451 50.3322 25.2483Z" fill="#40507F"/>
<path d="M50.516 18.8398C50.516 18.8398 53.5109 19.0294 52.9802 20.432C52.7148 21.0765 50.516 21.1902 50.516 21.1902C50.516 21.1902 50.971 23.1236 49.682 23.9955C48.5068 24.7916 48.0898 24.2988 48.0898 24.2988C48.0898 24.2988 48.5448 20.2425 50.516 18.8398Z" fill="#B26756"/>
<path d="M33.8728 42.453C33.8728 42.453 38.7252 52.1958 42.7057 69.8237C46.345 85.8594 47.1032 99.1277 47.1032 99.1277H31.4466C31.4466 99.1277 29.7027 86.0489 29.2478 80.8553C28.7929 75.6617 27.2386 68.7622 27.2386 68.7622C27.2386 68.7622 25.0778 98.6349 24.585 99.1277C24.0542 99.6205 9.07997 99.2414 9.23161 98.5591C9.38325 97.8767 13.9703 48.329 14.3873 45.0688C15.6004 35.0607 33.8728 42.453 33.8728 42.453Z" fill="#A37B90"/>
<path d="M27.2337 68.9182C27.1579 68.9182 27.082 68.8424 27.082 68.7666C27.082 68.6908 27.5749 62.2841 27.7265 59.4408C27.8781 56.5976 27.8781 55.2329 27.8781 55.2329C27.8781 55.195 27.916 55.1192 27.954 55.1192L33.0338 52.7688C33.1096 52.7309 33.1855 52.7688 33.2234 52.8446C33.2613 52.9204 33.2234 52.9962 33.1476 53.0341L28.1435 55.3466C28.1435 55.6878 28.1056 57.0526 27.9919 59.4788C27.8402 62.322 27.3474 68.7666 27.3474 68.8424C27.3474 68.8803 27.3095 68.9182 27.2337 68.9182Z" fill="#F7B369"/>
<path d="M28.4134 19.0639C28.4134 19.0639 28.9821 19.2155 29.1337 19.4051C29.2853 19.6325 29.2474 20.4665 29.2474 20.4665L33.6829 31.6119L35.0097 43.6292C35.0097 43.6292 32.2423 46.5862 25.0395 46.9274C17.8367 47.2685 14.0078 43.9704 14.0078 43.9704C14.0078 43.9704 16.9269 23.8026 18.7086 21.1868C19.5047 20.0116 22.8407 19.7083 22.8407 19.7083C22.8407 19.7083 22.9545 19.2913 23.0682 19.2155C23.7506 18.7606 28.4134 19.0639 28.4134 19.0639Z" fill="#F7B369"/>
<path d="M28.6133 12.0947C28.6133 12.0947 31.267 11.0711 31.3807 13.0803C31.5323 15.4307 28.727 15.3549 28.727 15.3549L28.6133 12.0947Z" fill="#B26756"/>
<path d="M29.8183 14.2152C29.7804 14.2152 29.7804 14.2152 29.7425 14.1773C29.6667 14.1394 29.6667 14.0636 29.7046 13.9877L30.6144 12.5472C30.6523 12.4714 30.7281 12.4714 30.804 12.5093C30.8798 12.5472 30.8798 12.623 30.8419 12.6988L29.932 14.1394C29.932 14.2152 29.8941 14.2152 29.8183 14.2152Z" fill="black"/>
<path d="M30.8356 13.7963L30.0774 13.7584C30.0016 13.7584 29.9258 13.6825 29.9258 13.6067C29.9258 13.5309 29.9637 13.4551 30.0774 13.4551L30.8356 13.493C30.9114 13.493 30.9873 13.5688 30.9873 13.6446C30.9873 13.7584 30.9114 13.7963 30.8356 13.7963Z" fill="black"/>
<path d="M23.7114 17.4828L23.5977 20.2123C23.5977 20.2123 24.6212 20.8188 25.948 20.8947C27.7298 20.9705 28.3743 19.9469 28.3743 19.9469L28.488 16.7246L23.7114 17.4828Z" fill="#B26756"/>
<path d="M23.7109 17.4784C23.7109 17.4784 24.4691 19.715 26.5162 19.4876C28.1463 19.298 28.715 17.0234 28.715 17.0234L23.7109 17.4784Z" fill="black"/>
<path d="M29.5187 9.9012C29.5187 9.9012 30.5043 14.9432 28.9879 17.104C27.3578 19.4165 24.9316 18.6204 24.0218 17.9001C22.8087 16.9145 22.5812 15.5497 22.5812 15.5497C22.5812 15.5497 20.8374 15.8151 20.3446 14.4124C19.7759 12.934 20.9132 11.7588 21.7472 11.7209C22.6192 11.6829 22.695 11.8346 22.695 11.8346L22.5054 10.2424C22.5054 10.2424 27.9265 4.63178 29.5187 9.9012Z" fill="#B26756"/>
<path d="M22.3501 14.0572C22.3122 14.0572 22.2743 14.0572 22.2364 14.0193L20.9475 12.8441C20.8717 12.8062 20.8717 12.6924 20.9475 12.6545C20.9854 12.5787 21.0991 12.5787 21.137 12.6545L22.426 13.8297C22.5018 13.8676 22.5018 13.9814 22.426 14.0193C22.426 14.0572 22.388 14.0572 22.3501 14.0572Z" fill="black"/>
<path d="M21.0957 14.2495C21.0578 14.2495 21.0198 14.2116 20.9819 14.1737C20.944 14.0979 20.944 14.0221 21.0198 13.9842L21.8159 13.4155C21.8918 13.3776 21.9676 13.3776 22.0055 13.4534C22.0434 13.5293 22.0434 13.6051 21.9676 13.643L21.1715 14.2116C21.1715 14.2116 21.1336 14.2495 21.0957 14.2495Z" fill="black"/>
<path d="M24.9552 12.7681C24.8794 12.7681 24.8035 12.6923 24.8035 12.6165L24.7656 11.7825C24.7656 11.7067 24.8414 11.6309 24.9173 11.6309C24.9931 11.6309 25.0689 11.7067 25.0689 11.7825L25.1068 12.6165C25.1068 12.6923 25.031 12.7681 24.9552 12.7681Z" fill="black"/>
<path d="M27.9942 12.8482C27.9184 12.8482 27.8426 12.7724 27.8426 12.6966L27.8047 11.8626C27.8047 11.7868 27.8805 11.7109 27.9563 11.7109C28.0321 11.7109 28.108 11.7868 28.108 11.8626L28.1459 12.6966C28.1459 12.8103 28.0701 12.8482 27.9942 12.8482Z" fill="black"/>
<path d="M26.633 14.8971C26.5192 14.8591 26.4813 14.7833 26.4813 14.7075C26.7846 13.4944 26.4055 12.4329 26.4055 12.4329C26.3676 12.3571 26.4055 12.2813 26.4813 12.2434C26.5571 12.2055 26.633 12.2434 26.6709 12.3192C26.6709 12.3571 27.0879 13.4565 26.7467 14.7833C26.7467 14.8591 26.7088 14.8971 26.633 14.8971Z" fill="black"/>
<path d="M28.7067 11.142C28.6688 11.142 28.6308 11.142 28.5929 11.1041C28.3655 10.8767 27.9864 10.8008 27.8347 10.8008C27.7589 10.8008 27.6831 10.725 27.721 10.6492C27.721 10.5734 27.7968 10.4976 27.8727 10.5355C27.9106 10.5355 28.4792 10.6113 28.8204 10.9525C28.8583 11.0283 28.8583 11.1041 28.8204 11.142C28.7825 11.142 28.7446 11.142 28.7067 11.142Z" fill="black"/>
<path d="M24.5481 11.2558C24.5102 11.2558 24.4723 11.2558 24.4344 11.2179C24.3965 11.18 24.3586 11.0662 24.4344 11.0283C24.7756 10.6871 25.3442 10.6113 25.3821 10.6113C25.458 10.6113 25.5338 10.6492 25.5338 10.7251C25.5338 10.8009 25.4959 10.8767 25.42 10.8767C25.42 10.8767 24.8893 10.9146 24.6619 11.18C24.6239 11.2179 24.586 11.2558 24.5481 11.2558Z" fill="black"/>
<path d="M22.3032 11.8217C22.3032 11.8217 22.796 13.376 22.9855 13.3381C23.1751 13.3002 22.9476 10.8361 22.3411 10.7224C21.7724 10.6086 22.3032 11.8217 22.3032 11.8217Z" fill="black"/>
<path d="M28.416 19.0605C28.416 19.0605 27.8853 19.705 26.4447 19.8946C25.0421 20.0841 23.6773 19.0985 23.6773 19.0985L22.957 20.8802L25.3832 22.0175L29.1363 21.2593L28.9467 19.5534L28.416 19.0605Z" fill="#F7B369"/>
<path d="M25.8005 16.2203C25.4972 16.2203 25.0423 16.0687 24.8906 15.3863C24.8906 15.3105 24.9285 15.2347 25.0043 15.2347C25.0802 15.1968 25.156 15.2726 25.156 15.3484C25.3076 16.0308 25.8384 15.955 25.8763 15.955C25.9521 15.955 26.0279 15.9929 26.0279 16.0687C26.0279 16.1445 25.99 16.2203 25.9142 16.2203C25.9142 16.2203 25.8763 16.2203 25.8005 16.2203Z" fill="black"/>
<path d="M47.1068 22.2837L52.073 29.5623C52.073 29.5623 47.4859 37.4854 39.1838 37.2959C29.1377 37.0684 27.8867 27.4394 27.8867 27.4394L28.7207 20.502C28.7207 20.502 31.4881 20.7294 33.7248 22.5491C35.317 23.838 42.2544 25.8851 47.1068 22.2837Z" fill="#F7B369"/>
<path d="M26.7805 21.9472C26.553 21.9472 26.3256 21.9093 26.0981 21.8714C26.0223 21.8714 25.9844 21.7955 25.9844 21.7197C25.9844 21.6439 26.0602 21.606 26.136 21.606C28.1831 21.9851 29.055 20.4687 29.093 20.3929C29.1309 20.3171 29.2067 20.3171 29.2825 20.355C29.3583 20.3929 29.3583 20.4687 29.3204 20.5445C29.3583 20.5824 28.5622 21.9472 26.7805 21.9472Z" fill="white"/>
<path d="M19.0505 48.1061L16.321 43.6328L12.4922 48.7506C12.4922 48.7506 13.2125 52.5795 15.942 52.5795C16.776 52.5795 19.0505 48.1061 19.0505 48.1061Z" fill="#B26756"/>
<path d="M15.2949 53.1891C15.257 53.1891 15.2191 53.1512 15.1812 53.1133C15.1432 53.0375 15.1432 52.9617 15.2191 52.9238C17.8348 51.0283 18.9342 47.7302 18.9342 47.6923C18.9721 47.6164 19.0479 47.5785 19.1237 47.6164C19.1996 47.6543 19.2375 47.7302 19.1996 47.806C19.1996 47.8439 18.1002 51.2557 15.3707 53.1891C15.3707 53.1891 15.3328 53.1891 15.2949 53.1891Z" fill="#F7B369"/>
<path d="M21.1717 19.9355C21.1717 19.9355 9.72307 22.248 6.04585 31.6875C2.17908 41.544 12.3388 50.3769 12.3388 50.3769L17.9115 44.8042L21.1717 19.9355Z" fill="#F7B369"/>
<path d="M17.5691 42.6448C17.5312 42.6448 17.4553 42.6069 17.4553 42.569C17.4174 42.5311 15.1808 37.4512 13.6265 35.025C13.5886 34.9492 13.5886 34.8734 13.6644 34.8354C13.7402 34.7975 13.816 34.7975 13.8539 34.8734C15.4082 37.2996 17.6828 42.4173 17.6828 42.4553C17.7207 42.5311 17.6828 42.6069 17.607 42.6448H17.5691Z" fill="white"/>
<path d="M15.2985 37.907C15.2227 37.907 15.1848 37.8691 15.1469 37.7933C14.9952 37.2626 14.1612 34.6089 14.654 34.1161C14.7299 34.0403 14.8436 34.0024 14.9952 34.0403C15.905 34.2677 15.526 37.1867 15.4501 37.7554C15.4501 37.8691 15.4122 37.907 15.2985 37.907C15.3364 37.907 15.3364 37.907 15.2985 37.907ZM14.9194 34.3435C14.8815 34.3435 14.8815 34.3435 14.9194 34.3435C14.6919 34.571 14.9194 35.7841 15.2606 37.073C15.3743 35.822 15.3364 34.4573 14.9194 34.3435Z" fill="white"/>
<path d="M39.1469 27.5951C39.0332 27.5951 38.9574 27.5572 38.8816 27.4814C38.3887 26.9885 38.9574 24.6761 39.0711 24.2212C39.0711 24.1453 39.1469 24.1074 39.2227 24.1074C39.2986 24.1074 39.3365 24.1453 39.3744 24.2212C39.4502 24.4486 40.0567 26.5336 39.6397 27.2918C39.5639 27.4435 39.4502 27.5572 39.2986 27.5951C39.2227 27.5951 39.1848 27.5951 39.1469 27.5951ZM39.2227 24.8277C38.9953 25.8513 38.8436 27.0265 39.0711 27.2539C39.0711 27.2539 39.109 27.2918 39.1848 27.2539C39.2607 27.216 39.2986 27.1781 39.3744 27.1023C39.6018 26.7232 39.4123 25.5859 39.2227 24.8277Z" fill="white"/>
<path d="M34.215 36.163C34.1392 36.163 34.0634 36.0872 34.0634 36.0114L33.8359 32.9407C33.8359 32.8649 33.8738 32.7891 33.9876 32.7891C34.0634 32.7891 34.1392 32.827 34.1392 32.9407L34.3667 36.0114C34.3667 36.0872 34.3288 36.163 34.215 36.163Z" fill="white"/>
<path d="M20.7108 12.2031C20.7108 12.2031 19.2703 9.96645 19.801 9.24617C20.3317 8.52589 21.052 8.63962 21.052 8.63962C21.052 8.63962 20.9004 5.94805 21.9239 5.49313C22.9475 5.03822 23.3645 5.91014 23.3645 5.91014C23.3645 5.91014 24.6534 4.1663 25.677 4.31794C27.1555 4.5454 27.345 5.79641 27.345 5.79641C27.345 5.79641 28.3686 5.00031 29.0888 5.7585C29.8091 6.51669 29.5058 9.85273 29.5058 9.85273C29.5058 9.85273 27.5725 7.42652 24.9946 8.67753C22.5684 9.89064 22.9475 12.5822 22.9475 12.5822C22.9475 12.5822 22.0756 11.407 20.7108 12.2031Z" fill="black"/>
<path d="M29.2442 9.16766L29.7749 12.0109C29.7749 12.0109 30.0782 8.63693 29.4717 6.74146C28.8651 4.88389 29.0926 8.44738 29.0926 8.44738L29.2442 9.16766Z" fill="black"/>
</g>
<defs>
<clipPath id="clip0_637_2323">
<rect width="56" height="56" rx="28" fill="white"/>
</clipPath>
</defs>
</svg>
