<svg width="23" height="22" viewBox="0 0 23 22" fill="none" xmlns="http://www.w3.org/2000/svg">
<path d="M0.917991 11.0021V11.0009C0.917991 10.8387 0.943454 10.6904 0.992463 10.5543C1.03797 10.4279 1.1163 10.3049 1.23464 10.1857C1.23474 10.1856 1.23484 10.1855 1.23494 10.1854L10.5844 0.835969C10.796 0.624356 11.0588 0.512111 11.3895 0.502504C11.709 0.493221 11.9791 0.600957 12.2141 0.835969L12.214 0.836136L12.222 0.84348C12.4548 1.05692 12.5743 1.31782 12.5844 1.64172C12.5945 1.96042 12.4867 2.23015 12.2501 2.46516L12.2495 2.46575L5.30788 9.40742L4.8811 9.83419H5.48466H21.3159C21.6542 9.83419 21.9263 9.94608 22.1492 10.169C22.3721 10.3918 22.4834 10.6633 22.4826 11.0003V11.0009C22.4826 11.3394 22.371 11.6116 22.1489 11.8345C21.9273 12.0568 21.6557 12.1683 21.3165 12.1675H21.3159H5.48466H4.8811L5.30788 12.5943L12.2495 19.536C12.4599 19.7463 12.5739 20.0143 12.5844 20.3585C12.5946 20.6906 12.4856 20.9498 12.2577 21.158L12.2495 21.1654L12.242 21.1736C12.032 21.4027 11.7695 21.5175 11.4347 21.5175C11.0994 21.5175 10.8207 21.4021 10.5844 21.1657L1.23435 11.8157C1.11505 11.6964 1.03644 11.5735 0.991046 11.4474C0.94219 11.3117 0.917179 11.1639 0.917991 11.0021Z" fill="#0F4985" stroke="white" stroke-width="0.5"/>
</svg>
