<svg width="400" height="87" viewBox="0 0 400 87" fill="none" xmlns="http://www.w3.org/2000/svg">
<g clip-path="url(#clip0_37_217)">
<path d="M73.8049 95.8049C73.5754 95.8049 73.3459 95.5779 73.2312 95.3508C71.7393 90.014 67.9524 87.2888 63.8211 84.3366C62.9031 83.7688 62.0998 83.0876 61.1818 82.4063C59.0014 80.8166 57.5095 79.5676 56.2472 78.8863C56.0177 78.7727 55.903 78.4321 56.0177 78.0914C56.1325 77.8643 56.4767 77.7508 56.821 77.8643C58.0833 78.5456 59.6899 79.7947 61.8703 81.4979C62.7883 82.1792 63.5916 82.7469 64.5097 83.4282C68.2966 86.1534 71.9688 88.765 73.8049 93.534C75.641 89.2191 77.8214 87.743 81.4936 85.3585C82.6411 84.5637 84.0182 83.6553 85.6248 82.4063C86.0838 82.0656 86.6576 81.725 87.1166 81.2708C94.8053 75.8205 107.658 66.7366 109.265 20.8631C98.9365 18.2515 84.592 13.4825 74.0344 5.42059C62.5588 13.5961 45.9192 18.7057 38.6896 20.6361C38.6896 21.0902 38.8043 21.7715 38.8043 22.4528C38.9191 24.8373 39.1486 28.1302 39.3781 28.9251C39.4929 29.2657 39.2633 29.4928 38.919 29.6064C38.5748 29.7199 38.3453 29.4928 38.2305 29.1522C38.001 28.2438 37.8863 25.0644 37.6568 22.4528C37.542 21.5444 37.542 20.7496 37.542 20.1819C37.542 19.9548 37.6567 19.6141 38.001 19.6141C44.8864 17.7973 62.0998 12.5741 73.6902 4.28511C73.9197 4.17156 74.1492 4.17156 74.3787 4.28511C85.051 12.5741 99.6251 17.3432 109.953 19.9548C110.183 20.0683 110.412 20.2954 110.412 20.5225C109.724 41.0747 106.855 56.1766 101.461 66.8502C96.9857 75.8205 91.5921 79.5676 87.8052 82.2927C87.2314 82.6334 86.7724 83.0876 86.3134 83.4282C84.7068 84.6772 83.3297 85.5856 82.0674 86.3804C78.0509 89.1056 76.1001 90.3546 74.264 95.5779C74.264 95.5779 74.0345 95.8049 73.8049 95.8049Z" fill="black"/>
<path d="M73.9196 85.2452C73.8049 85.2452 73.8049 85.2453 73.8049 85.1317C72.6573 83.542 68.7556 80.3627 67.0342 79.2272C66.9195 79.1136 66.9195 79.0001 67.0342 79.0001C67.149 78.8866 67.2638 78.8866 67.2638 79.0001C68.9851 80.1356 72.6573 83.0878 74.0344 84.7911C75.1819 83.3149 78.3951 80.7033 83.5592 76.8427C98.4775 65.8285 102.035 50.0453 103.527 24.7241C90.5593 21.5447 81.0345 17.3434 74.2639 12.1202C67.3785 17.2299 55.4439 20.6363 48.329 22.6802C46.8372 23.1344 45.5749 23.475 44.5421 23.8157V24.0428C44.6568 24.8376 44.7716 26.0866 44.7716 26.3137C44.7716 26.4273 44.6568 26.5408 44.5421 26.5408C44.4273 26.5408 44.3125 26.4273 44.3125 26.3137C44.3125 25.9731 44.1978 24.8376 44.083 24.0428V23.7021C44.083 23.5886 44.083 23.475 44.1978 23.475C45.2306 23.1344 46.4929 22.7937 48.0995 22.3395C55.2144 20.2957 67.2638 16.7757 74.0344 11.666C74.1491 11.666 74.1491 11.666 74.2639 11.666C80.9198 17.0028 90.5593 21.0905 103.641 24.2699C103.756 24.2699 103.756 24.3834 103.756 24.497C102.264 50.0453 98.5922 65.9421 83.5592 77.0698C78.1656 81.044 74.9524 83.7691 73.9196 85.1317C74.0344 85.2453 74.0344 85.2452 73.9196 85.2452Z" fill="black"/>
<path d="M60.2637 71.9595C72.8126 71.9595 82.9854 62.0971 82.9854 49.9312C82.9854 37.7653 72.8126 27.9028 60.2637 27.9028C47.7148 27.9028 37.542 37.7653 37.542 49.9312C37.542 62.0971 47.7148 71.9595 60.2637 71.9595Z" fill="white"/>
<path d="M60.2637 72.6409C47.4111 72.6409 36.9683 62.5351 36.9683 50.0448C36.9683 37.5545 47.4111 27.4487 60.2637 27.4487C73.1164 27.4487 83.5593 37.5545 83.5593 50.0448C83.674 62.4216 73.2312 72.6409 60.2637 72.6409ZM60.2637 28.4707C48.0996 28.4707 38.1158 38.1223 38.1158 49.9313C38.1158 61.7403 48.0996 71.3919 60.2637 71.3919C72.4279 71.3919 82.4117 61.7403 82.4117 49.9313C82.5265 38.1223 72.5427 28.4707 60.2637 28.4707Z" fill="black"/>
<path d="M57.0508 46.8656L56.5917 39.3714L63.2476 39.0308L63.7066 46.752L71.1657 46.6385L71.6248 52.6565L63.9361 52.8836L64.3951 60.4914L58.1983 60.832L57.5098 53.3378L49.3621 53.6785L49.0178 47.3198L57.0508 46.8656Z" fill="#FFD42E"/>
<path d="M58.1983 61.3997C57.8541 61.3997 57.6246 61.1726 57.6246 60.8319L57.0508 53.9055L49.4769 54.2461C49.1326 54.2461 48.9031 54.019 48.9031 53.6784L48.5588 47.3197C48.5588 46.979 48.7884 46.7519 49.1326 46.7519L56.5918 46.2977L56.1327 39.3713C56.1327 39.2578 56.1327 39.0307 56.2475 38.9171C56.3622 38.8036 56.477 38.69 56.7065 38.69L63.3624 38.3494C63.7066 38.3494 63.9362 38.5765 63.9362 38.9171L64.3952 46.0706L71.3953 45.9571C71.7396 45.9571 71.9691 46.1842 71.9691 46.5248L72.3133 52.5429C72.3133 52.6564 72.3133 52.8835 72.1986 52.9971C72.0838 53.1106 71.9691 53.2242 71.7396 53.2242L64.7394 53.4513L65.0837 60.4913C65.0837 60.8319 64.8542 61.059 64.5099 61.059L58.1983 61.3997ZM57.5098 52.77C57.8541 52.77 58.0836 52.9971 58.0836 53.3377L58.6574 60.2642L63.7066 59.9235L63.3624 52.8835C63.3624 52.77 63.3624 52.5429 63.4771 52.4293C63.5919 52.3158 63.7066 52.2023 63.9362 52.2023L70.9363 51.9751L70.592 47.0926L63.5919 47.2061C63.2476 47.2061 63.0181 46.979 63.0181 46.6384L62.5591 39.4848L57.0508 39.7119L57.5098 46.6384C57.5098 46.7519 57.5098 46.979 57.395 47.0926C57.2803 47.2061 57.1655 47.3197 57.0508 47.3197L49.5916 47.7739L49.8211 52.9971L57.5098 52.77Z" fill="black"/>
</g>
<g clip-path="url(#clip1_37_217)">
<path d="M173.56 96.8293C173.343 96.8293 173.125 96.7205 173.016 96.3942C171.82 92.5874 169.21 89.1068 165.729 86.7139C161.378 84.2123 151.481 77.36 148.326 73.0093C148.109 72.7918 148.218 72.4655 148.435 72.2479C148.653 72.0304 148.979 72.1392 149.196 72.3567C152.242 76.3811 161.813 83.1246 166.382 85.735C169.645 88.0191 172.146 91.1734 173.669 94.6539C175.518 90.412 177.693 89.1068 181.283 86.7139C182.479 85.9526 183.784 85.0824 185.416 83.886C185.851 83.5597 186.395 83.2334 186.939 82.7983C194.552 77.5775 207.278 68.8762 208.801 25.0431C198.577 22.5415 184.437 17.9733 173.995 10.2508C170.406 13.0788 158.007 20.2574 154.961 21.9976C154.744 22.1064 154.309 22.1064 154.2 21.7801C154.091 21.5626 154.091 21.1275 154.417 21.0187C157.463 19.2785 170.624 11.6648 173.56 9.16315C173.778 8.94562 173.995 8.94562 174.213 9.16315C184.763 17.1031 199.12 21.6713 209.345 24.173C209.562 24.2817 209.78 24.4993 209.78 24.7168C209.127 44.4036 206.19 58.8696 200.969 69.0937C196.51 77.6863 191.289 81.2756 187.482 83.886C186.939 84.2123 186.504 84.6474 185.96 84.9737C184.328 86.1701 183.023 87.0402 181.827 87.8016C177.802 90.412 175.953 91.6084 174.104 96.6117C173.995 96.6117 173.887 96.8293 173.56 96.8293Z" fill="black"/>
<path d="M173.56 85.9519C173.452 85.9519 173.452 85.9519 173.452 85.8431C172.908 85.0818 169.862 83.0152 166.708 80.8399C163.01 78.2294 158.768 75.4015 157.572 73.9875C157.463 73.8788 157.463 73.77 157.572 73.77C157.68 73.6612 157.789 73.6612 157.789 73.77C158.986 75.184 163.119 78.0119 166.926 80.5136C170.08 82.6889 172.799 84.5379 173.669 85.4081C175.627 83.3415 177.15 82.3626 180.413 80.4048C181.283 79.861 182.153 79.3171 183.241 78.6645C197.924 69.4193 201.405 54.627 203.036 28.7405C190.31 25.695 180.848 21.6707 174.213 16.6674C172.69 18.0814 169.21 19.9304 167.034 21.0181C166.382 21.3444 165.947 21.5619 165.62 21.7794C165.512 21.7794 165.403 21.7794 165.403 21.6707C165.403 21.5619 165.403 21.4531 165.512 21.4531C165.838 21.2356 166.273 21.0181 166.926 20.6918C169.101 19.6041 172.69 17.6463 174.104 16.3411C174.213 16.2323 174.322 16.2323 174.322 16.3411C180.956 21.4531 190.419 25.3687 203.254 28.4142C203.362 28.4142 203.362 28.523 203.362 28.6318C202.71 39.2909 201.622 50.4939 198.468 59.5215C195.422 68.2229 190.637 74.4226 183.349 78.9908C182.262 79.6434 181.283 80.296 180.521 80.7311C177.15 82.7977 175.627 83.7766 173.669 85.8431C173.669 85.9519 173.669 85.9519 173.56 85.9519Z" fill="black"/>
<path d="M161.065 66.6814L161.065 66.6814L129.551 68.3653C128.842 68.4031 128.252 67.8496 128.252 67.0815V44.9054C128.252 44.1216 128.872 43.4679 129.604 43.4289L129.604 43.4289L161.121 41.745C161.121 41.745 161.121 41.745 161.121 41.745C161.83 41.7072 162.42 42.2607 162.42 43.0288L162.42 65.2035C162.42 65.204 162.42 65.2044 162.42 65.2048C162.417 65.9869 161.796 66.6424 161.065 66.6814Z" fill="white" stroke="black"/>
<mask id="path-12-inside-1_37_217" fill="white">
<path d="M129.481 68.9298C129.022 68.9298 128.594 68.7597 128.262 68.4451C127.894 68.0964 127.69 67.6116 127.69 67.0815V44.9054C127.69 43.8367 128.534 42.9211 129.575 42.8672L161.091 41.1834C161.587 41.1579 162.055 41.328 162.41 41.6653C162.778 42.014 162.982 42.4987 162.982 43.0288V65.205C162.982 66.2736 162.137 67.1893 161.097 67.2431L129.58 68.927C129.546 68.927 129.512 68.9298 129.481 68.9298ZM161.188 41.3053C161.157 41.3053 161.125 41.3053 161.094 41.3081L129.58 42.992C128.605 43.043 127.814 43.9019 127.814 44.9054V67.0815C127.814 67.5748 128.004 68.0283 128.347 68.3543C128.676 68.6662 129.113 68.8249 129.575 68.8022L161.091 67.1184C162.067 67.0674 162.857 66.2084 162.857 65.205V43.026C162.857 42.5327 162.667 42.0792 162.324 41.7532C162.013 41.4612 161.616 41.3053 161.188 41.3053Z"/>
</mask>
<path d="M129.481 68.9298C129.022 68.9298 128.594 68.7597 128.262 68.4451C127.894 68.0964 127.69 67.6116 127.69 67.0815V44.9054C127.69 43.8367 128.534 42.9211 129.575 42.8672L161.091 41.1834C161.587 41.1579 162.055 41.328 162.41 41.6653C162.778 42.014 162.982 42.4987 162.982 43.0288V65.205C162.982 66.2736 162.137 67.1893 161.097 67.2431L129.58 68.927C129.546 68.927 129.512 68.9298 129.481 68.9298ZM161.188 41.3053C161.157 41.3053 161.125 41.3053 161.094 41.3081L129.58 42.992C128.605 43.043 127.814 43.9019 127.814 44.9054V67.0815C127.814 67.5748 128.004 68.0283 128.347 68.3543C128.676 68.6662 129.113 68.8249 129.575 68.8022L161.091 67.1184C162.067 67.0674 162.857 66.2084 162.857 65.205V43.026C162.857 42.5327 162.667 42.0792 162.324 41.7532C162.013 41.4612 161.616 41.3053 161.188 41.3053Z" fill="black"/>
<path d="M160.592 67.1411L160.595 67.2035L161.594 67.158L161.591 67.0957L160.592 67.1411ZM128.262 68.4451L128.951 67.7196L128.95 67.7187L128.262 68.4451ZM129.575 42.8672L129.626 43.8659L129.628 43.8658L129.575 42.8672ZM161.091 41.1834L161.04 40.1847L161.038 40.1848L161.091 41.1834ZM162.41 41.6653L161.72 42.3896L161.722 42.3917L162.41 41.6653ZM161.097 67.2431L161.045 66.2445L161.044 66.2446L161.097 67.2431ZM129.58 68.927V69.927H129.607L129.634 69.9255L129.58 68.927ZM161.094 41.3081L161.148 42.3067L161.166 42.3057L161.185 42.304L161.094 41.3081ZM129.58 42.992L129.633 43.9906L129.634 43.9905L129.58 42.992ZM128.347 68.3543L127.658 69.0792L127.659 69.08L128.347 68.3543ZM129.575 68.8022L129.624 69.801L129.628 69.8008L129.575 68.8022ZM161.091 67.1184L161.039 66.1198L161.038 66.1198L161.091 67.1184ZM162.324 41.7532L163.013 41.0283L163.008 41.0232L162.324 41.7532ZM129.481 67.9298C129.277 67.9298 129.095 67.8569 128.951 67.7196L127.574 69.1705C128.093 69.6625 128.768 69.9298 129.481 69.9298V67.9298ZM128.95 67.7187C128.79 67.5674 128.69 67.3496 128.69 67.0815H126.69C126.69 67.8737 126.998 68.6253 127.575 69.1714L128.95 67.7187ZM128.69 67.0815V44.9054H126.69V67.0815H128.69ZM128.69 44.9054C128.69 44.3439 129.142 43.891 129.626 43.8659L129.523 41.8686C127.927 41.9512 126.69 43.3296 126.69 44.9054H128.69ZM129.628 43.8658L161.145 42.182L161.038 40.1848L129.521 41.8687L129.628 43.8658ZM161.143 42.1821C161.371 42.1703 161.569 42.2462 161.72 42.3896L163.099 40.941C162.541 40.4098 161.803 40.1455 161.04 40.1847L161.143 42.1821ZM161.722 42.3917C161.882 42.5429 161.982 42.7608 161.982 43.0288H163.982C163.982 42.2367 163.674 41.4851 163.097 40.9389L161.722 42.3917ZM161.982 43.0288V65.205H163.982V43.0288H161.982ZM161.982 65.205C161.982 65.7665 161.53 66.2194 161.045 66.2445L161.149 68.2418C162.745 68.1591 163.982 66.7808 163.982 65.205H161.982ZM161.044 66.2446L129.527 67.9284L129.634 69.9255L161.15 68.2417L161.044 66.2446ZM129.58 67.927C129.539 67.927 129.501 67.9287 129.487 67.9293C129.478 67.9297 129.475 67.9298 129.472 67.9299C129.471 67.9299 129.474 67.9298 129.481 67.9298V69.9298C129.504 69.9298 129.523 69.9293 129.538 69.9288C129.552 69.9284 129.565 69.9278 129.572 69.9275C129.592 69.9267 129.588 69.927 129.58 69.927V67.927ZM161.188 40.3053C161.164 40.3053 161.088 40.3046 161.004 40.3122L161.185 42.304C161.171 42.3053 161.163 42.3054 161.164 42.3054C161.164 42.3054 161.166 42.3054 161.17 42.3053C161.175 42.3053 161.179 42.3053 161.188 42.3053V40.3053ZM161.041 40.3096L129.527 41.9934L129.634 43.9905L161.148 42.3067L161.041 40.3096ZM129.528 41.9933C127.996 42.0735 126.814 43.3964 126.814 44.9054H128.814C128.814 44.4075 129.215 44.0125 129.633 43.9906L129.528 41.9933ZM126.814 44.9054V67.0815H128.814V44.9054H126.814ZM126.814 67.0815C126.814 67.8358 127.108 68.5556 127.658 69.0792L129.036 67.6295C128.901 67.5011 128.814 67.3138 128.814 67.0815H126.814ZM127.659 69.08C128.192 69.5849 128.897 69.8367 129.624 69.801L129.526 67.8034C129.329 67.8131 129.161 67.7474 129.035 67.6287L127.659 69.08ZM129.628 69.8008L161.145 68.117L161.038 66.1198L129.521 67.8037L129.628 69.8008ZM161.144 68.117C162.676 68.0368 163.857 66.714 163.857 65.205H161.857C161.857 65.7029 161.457 66.0979 161.039 66.1198L161.144 68.117ZM163.857 65.205V43.026H161.857V65.205H163.857ZM163.857 43.026C163.857 42.2717 163.564 41.5519 163.013 41.0283L161.636 42.478C161.771 42.6065 161.857 42.7938 161.857 43.026H163.857ZM163.008 41.0232C162.51 40.5566 161.868 40.3053 161.188 40.3053V42.3053C161.364 42.3053 161.516 42.3658 161.641 42.4831L163.008 41.0232Z" fill="black" mask="url(#path-12-inside-1_37_217)"/>
<path d="M159.733 31.0439C159.733 32.921 158.207 34.4445 156.323 34.4445C154.44 34.4445 152.914 32.921 152.914 31.0439C152.914 29.1668 154.44 27.6433 156.323 27.6433C158.207 27.6433 159.733 29.1668 159.733 31.0439Z" fill="black" stroke="black"/>
<path d="M159.769 30.9082C159.769 32.721 158.296 34.1925 156.476 34.1925C154.657 34.1925 153.184 32.721 153.184 30.9082C153.184 29.0953 154.657 27.6238 156.476 27.6238C158.296 27.6238 159.769 29.0953 159.769 30.9082Z" fill="white" stroke="black"/>
<mask id="path-16-inside-2_37_217" fill="white">
<path d="M156.474 34.7547C154.54 34.7547 152.868 33.3005 152.647 31.3389C152.531 30.3184 152.823 29.3121 153.463 28.5098C154.107 27.7076 155.022 27.2002 156.046 27.0868C158.158 26.8487 160.071 28.3709 160.309 30.4771C160.425 31.4976 160.133 32.504 159.493 33.3062C158.849 34.1084 157.934 34.6158 156.91 34.7292C156.76 34.7462 156.615 34.7547 156.474 34.7547ZM156.479 27.1888C156.34 27.1888 156.202 27.1973 156.06 27.2115C155.071 27.3221 154.183 27.8125 153.56 28.5892C152.939 29.3659 152.658 30.3382 152.769 31.3247C152.998 33.3629 154.849 34.837 156.893 34.6073C157.883 34.4968 158.77 34.0064 159.393 33.2297C160.014 32.4529 160.295 31.4806 160.184 30.4941C159.969 28.5949 158.35 27.1888 156.479 27.1888Z"/>
</mask>
<path d="M156.474 34.7547C154.54 34.7547 152.868 33.3005 152.647 31.3389C152.531 30.3184 152.823 29.3121 153.463 28.5098C154.107 27.7076 155.022 27.2002 156.046 27.0868C158.158 26.8487 160.071 28.3709 160.309 30.4771C160.425 31.4976 160.133 32.504 159.493 33.3062C158.849 34.1084 157.934 34.6158 156.91 34.7292C156.76 34.7462 156.615 34.7547 156.474 34.7547ZM156.479 27.1888C156.34 27.1888 156.202 27.1973 156.06 27.2115C155.071 27.3221 154.183 27.8125 153.56 28.5892C152.939 29.3659 152.658 30.3382 152.769 31.3247C152.998 33.3629 154.849 34.837 156.893 34.6073C157.883 34.4968 158.77 34.0064 159.393 33.2297C160.014 32.4529 160.295 31.4806 160.184 30.4941C159.969 28.5949 158.35 27.1888 156.479 27.1888Z" fill="black"/>
<path d="M152.647 31.3389L153.641 31.2269L153.64 31.2257L152.647 31.3389ZM153.463 28.5098L152.683 27.8841L152.682 27.8858L153.463 28.5098ZM156.046 27.0868L156.156 28.0807L156.158 28.0805L156.046 27.0868ZM160.309 30.4771L159.315 30.5895L159.316 30.5903L160.309 30.4771ZM159.493 33.3062L160.273 33.9319L160.274 33.9302L159.493 33.3062ZM156.91 34.7292L156.8 33.7353L156.798 33.7356L156.91 34.7292ZM156.06 27.2115L155.96 26.2164L155.949 26.2177L156.06 27.2115ZM153.56 28.5892L152.78 27.9631L152.778 27.9649L153.56 28.5892ZM152.769 31.3247L151.775 31.4361L151.775 31.4367L152.769 31.3247ZM156.893 34.6073L156.782 33.6135L156.782 33.6136L156.893 34.6073ZM159.393 33.2297L160.173 33.8557L160.175 33.854L159.393 33.2297ZM160.184 30.4941L161.178 30.3828L161.178 30.3814L160.184 30.4941ZM156.474 33.7547C155.041 33.7547 153.804 32.6748 153.641 31.2269L151.653 31.4509C151.932 33.9262 154.04 35.7547 156.474 35.7547V33.7547ZM153.64 31.2257C153.554 30.4709 153.769 29.7296 154.245 29.1338L152.682 27.8858C151.876 28.8946 151.507 30.1658 151.653 31.452L153.64 31.2257ZM154.243 29.1355C154.723 28.538 155.398 28.1647 156.156 28.0807L155.936 26.0929C154.646 26.2357 153.491 26.8772 152.683 27.8841L154.243 29.1355ZM156.158 28.0805C157.723 27.904 159.14 29.034 159.315 30.5895L161.303 30.3648C161.002 27.7079 158.592 25.7933 155.934 26.0931L156.158 28.0805ZM159.316 30.5903C159.401 31.3451 159.187 32.0865 158.711 32.6822L160.274 33.9302C161.08 32.9215 161.449 31.6502 161.303 30.364L159.316 30.5903ZM158.713 32.6805C158.233 33.278 157.558 33.6514 156.8 33.7353L157.02 35.7232C158.309 35.5803 159.465 34.9388 160.273 33.9319L158.713 32.6805ZM156.798 33.7356C156.682 33.7487 156.575 33.7547 156.474 33.7547V35.7547C156.656 35.7547 156.838 35.7438 157.023 35.7229L156.798 33.7356ZM156.479 26.1888C156.3 26.1888 156.127 26.1998 155.96 26.2165L156.159 28.2066C156.276 28.1949 156.381 28.1888 156.479 28.1888V26.1888ZM155.949 26.2177C154.695 26.3578 153.568 26.9816 152.78 27.9631L154.339 29.2153C154.799 28.6434 155.446 28.2863 156.171 28.2053L155.949 26.2177ZM152.778 27.9649C151.992 28.9489 151.635 30.1859 151.775 31.4361L153.762 31.2133C153.681 30.4906 153.886 29.7829 154.341 29.2135L152.778 27.9649ZM151.775 31.4367C152.067 34.0255 154.414 35.8921 157.005 35.6011L156.782 33.6136C155.284 33.7818 153.93 32.7003 153.762 31.2128L151.775 31.4367ZM157.004 35.6012C158.258 35.4611 159.385 34.8373 160.173 33.8557L158.614 32.6036C158.155 33.1755 157.507 33.5325 156.782 33.6135L157.004 35.6012ZM160.175 33.854C160.961 32.87 161.318 31.633 161.178 30.3828L159.191 30.6055C159.272 31.3283 159.067 32.0359 158.612 32.6053L160.175 33.854ZM161.178 30.3814C160.904 27.9688 158.851 26.1888 156.479 26.1888V28.1888C157.85 28.1888 159.034 29.2209 159.191 30.6069L161.178 30.3814Z" fill="black" mask="url(#path-16-inside-2_37_217)"/>
<path d="M159.16 30.9078C159.16 32.3839 157.96 33.5827 156.477 33.5827C154.994 33.5827 153.793 32.3839 153.793 30.9078C153.793 29.4318 154.994 28.2329 156.477 28.2329C157.96 28.2329 159.16 29.4318 159.16 30.9078Z" fill="white" stroke="black"/>
<mask id="path-19-inside-3_37_217" fill="white">
<path d="M159.328 32.382C159.32 32.382 159.309 32.3791 159.3 32.3763C159.269 32.3621 159.257 32.3225 159.272 32.2913C159.405 32.0248 159.498 31.7413 159.549 31.4494C159.555 31.4153 159.586 31.3927 159.623 31.3983C159.657 31.404 159.68 31.438 159.674 31.472C159.62 31.7753 159.524 32.0702 159.385 32.348C159.374 32.3706 159.351 32.382 159.328 32.382Z"/>
</mask>
<path d="M159.328 32.382C159.32 32.382 159.309 32.3791 159.3 32.3763C159.269 32.3621 159.257 32.3225 159.272 32.2913C159.405 32.0248 159.498 31.7413 159.549 31.4494C159.555 31.4153 159.586 31.3927 159.623 31.3983C159.657 31.404 159.68 31.438 159.674 31.472C159.62 31.7753 159.524 32.0702 159.385 32.348C159.374 32.3706 159.351 32.382 159.328 32.382Z" fill="black"/>
<path d="M159.3 32.3763L158.886 33.2867L158.934 33.3084L158.984 33.325L159.3 32.3763ZM159.272 32.2913L158.377 31.8441L158.369 31.8606L158.361 31.8775L159.272 32.2913ZM159.549 31.4494L160.535 31.6215L160.536 31.6138L159.549 31.4494ZM159.623 31.3983L159.788 30.4119L159.775 30.41L159.623 31.3983ZM159.674 31.472L160.659 31.6469L160.661 31.6364L159.674 31.472ZM159.328 31.382C159.422 31.382 159.494 31.396 159.524 31.4024C159.561 31.4103 159.591 31.4194 159.616 31.4276L158.984 33.325C159.02 33.3371 159.155 33.382 159.328 33.382V31.382ZM159.714 31.4659C160.27 31.7189 160.356 32.3227 160.182 32.7051L158.361 31.8775C158.159 32.3222 158.267 33.0054 158.886 33.2867L159.714 31.4659ZM160.166 32.7385C160.342 32.3857 160.467 32.0096 160.535 31.6215L158.564 31.2772C158.53 31.4731 158.467 31.6639 158.377 31.8441L160.166 32.7385ZM160.536 31.6138C160.447 32.1453 159.949 32.4603 159.471 32.3867L159.775 30.41C159.223 30.3251 158.663 30.6854 158.563 31.285L160.536 31.6138ZM159.459 32.3847C158.911 32.2934 158.609 31.7804 158.688 31.3076L160.661 31.6364C160.751 31.0956 160.404 30.5146 159.788 30.4119L159.459 32.3847ZM158.69 31.2972C158.652 31.508 158.586 31.7108 158.491 31.9008L160.279 32.7952C160.462 32.4295 160.588 32.0427 160.659 31.6469L158.69 31.2972ZM158.491 31.9008C158.672 31.5377 159.028 31.382 159.328 31.382V33.382C159.674 33.382 160.075 33.2035 160.279 32.7952L158.491 31.9008Z" fill="black" mask="url(#path-19-inside-3_37_217)"/>
<mask id="path-21-inside-4_37_217" fill="white">
<path d="M153.713 29.3942C153.702 29.3942 153.69 29.3914 153.682 29.3857C153.65 29.3687 153.642 29.329 153.659 29.3007C154.172 28.4077 155.091 27.8068 156.114 27.6906C157.361 27.5517 158.552 28.1214 159.221 29.1788C159.241 29.2071 159.229 29.2468 159.201 29.2638C159.173 29.2837 159.133 29.2723 159.116 29.244C158.47 28.2263 157.327 27.6792 156.128 27.8124C155.144 27.923 154.263 28.5013 153.77 29.3602C153.755 29.3829 153.736 29.3942 153.713 29.3942Z"/>
</mask>
<path d="M153.713 29.3942C153.702 29.3942 153.69 29.3914 153.682 29.3857C153.65 29.3687 153.642 29.329 153.659 29.3007C154.172 28.4077 155.091 27.8068 156.114 27.6906C157.361 27.5517 158.552 28.1214 159.221 29.1788C159.241 29.2071 159.229 29.2468 159.201 29.2638C159.173 29.2837 159.133 29.2723 159.116 29.244C158.47 28.2263 157.327 27.6792 156.128 27.8124C155.144 27.923 154.263 28.5013 153.77 29.3602C153.755 29.3829 153.736 29.3942 153.713 29.3942Z" fill="black"/>
<path d="M153.682 29.3857L154.236 28.5537L154.199 28.5291L154.161 28.5078L153.682 29.3857ZM153.659 29.3007L154.516 29.8152L154.521 29.8071L154.526 29.7989L153.659 29.3007ZM156.114 27.6906L156.003 26.6967L156.001 26.6969L156.114 27.6906ZM159.221 29.1788L158.376 29.7135L158.388 29.7332L158.402 29.7523L159.221 29.1788ZM159.201 29.2638L158.686 28.4063L158.656 28.4244L158.627 28.4446L159.201 29.2638ZM159.116 29.244L159.973 28.7295L159.967 28.7186L159.96 28.7079L159.116 29.244ZM156.128 27.8124L156.018 26.8186L156.016 26.8187L156.128 27.8124ZM153.77 29.3602L154.618 29.8902L154.627 29.8744L154.637 29.8582L153.77 29.3602ZM153.713 28.3942C153.85 28.3942 154.044 28.4254 154.236 28.5537L153.127 30.2178C153.336 30.3573 153.553 30.3942 153.713 30.3942V28.3942ZM154.161 28.5078C154.663 28.7817 154.771 29.3904 154.516 29.8152L152.802 28.7862C152.513 29.2677 152.638 29.9557 153.203 30.2636L154.161 28.5078ZM154.526 29.7989C154.88 29.1828 155.518 28.7647 156.227 28.6842L156.001 26.6969C154.663 26.8489 153.464 27.6327 152.792 28.8025L154.526 29.7989ZM156.225 28.6844C157.094 28.5876 157.912 28.981 158.376 29.7135L160.066 28.6441C159.191 27.2618 157.629 26.5157 156.003 26.6967L156.225 28.6844ZM158.402 29.7523C158.05 29.2501 158.277 28.6518 158.686 28.4063L159.715 30.1213C160.181 29.8419 160.431 29.1641 160.04 28.6053L158.402 29.7523ZM158.627 28.4446C159.13 28.0931 159.728 28.3204 159.973 28.7295L158.258 29.7585C158.538 30.2242 159.216 30.4742 159.774 30.0831L158.627 28.4446ZM159.96 28.7079C159.109 27.3674 157.596 26.6432 156.018 26.8186L156.238 28.8063C157.059 28.7152 157.83 29.0853 158.272 29.7801L159.96 28.7079ZM156.016 26.8187C154.716 26.9648 153.554 27.7272 152.902 28.8622L154.637 29.8582C154.971 29.2754 155.572 28.8812 156.24 28.8062L156.016 26.8187ZM152.922 28.8302C152.986 28.7266 153.087 28.6128 153.235 28.5254C153.385 28.4363 153.551 28.3942 153.713 28.3942V30.3942C154.123 30.3942 154.445 30.167 154.618 29.8902L152.922 28.8302Z" fill="black" mask="url(#path-21-inside-4_37_217)"/>
<mask id="path-23-inside-5_37_217" fill="white">
<path d="M156.474 34.1479C154.847 34.1479 153.438 32.9233 153.251 31.2735C153.188 30.7235 153.27 30.1623 153.483 29.6548C153.497 29.6237 153.534 29.6095 153.565 29.6208C153.596 29.635 153.611 29.6718 153.599 29.703C153.392 30.1906 153.316 30.7292 153.375 31.2593C153.568 32.9658 155.116 34.1961 156.825 34.0033C156.859 34.0005 156.89 34.0232 156.893 34.0572C156.896 34.0912 156.873 34.1224 156.839 34.1252C156.715 34.1394 156.593 34.1479 156.474 34.1479Z"/>
</mask>
<path d="M156.474 34.1479C154.847 34.1479 153.438 32.9233 153.251 31.2735C153.188 30.7235 153.27 30.1623 153.483 29.6548C153.497 29.6237 153.534 29.6095 153.565 29.6208C153.596 29.635 153.611 29.6718 153.599 29.703C153.392 30.1906 153.316 30.7292 153.375 31.2593C153.568 32.9658 155.116 34.1961 156.825 34.0033C156.859 34.0005 156.89 34.0232 156.893 34.0572C156.896 34.0912 156.873 34.1224 156.839 34.1252C156.715 34.1394 156.593 34.1479 156.474 34.1479Z" fill="black"/>
<path d="M153.251 31.2735L154.244 31.1608L153.251 31.2735ZM153.483 29.6548L152.573 29.241L152.566 29.2546L152.561 29.2684L153.483 29.6548ZM153.565 29.6208L153.979 28.7105L153.944 28.6943L153.907 28.681L153.565 29.6208ZM153.599 29.703L154.52 30.0937L154.53 30.0695L154.539 30.0448L153.599 29.703ZM153.375 31.2593L152.382 31.3709L152.382 31.3715L153.375 31.2593ZM156.825 34.0033L156.742 33.0068L156.728 33.008L156.713 33.0096L156.825 34.0033ZM156.839 34.1252L156.756 33.1287L156.741 33.1299L156.726 33.1316L156.839 34.1252ZM156.474 33.1479C155.347 33.1479 154.373 32.2972 154.244 31.1608L152.257 31.3862C152.502 33.5494 154.346 35.1479 156.474 35.1479V33.1479ZM154.244 31.1608C154.201 30.7825 154.258 30.393 154.405 30.0413L152.561 29.2684C152.283 29.9315 152.175 30.6645 152.257 31.3862L154.244 31.1608ZM154.393 30.0686C154.182 30.5343 153.66 30.7195 153.223 30.5606L153.907 28.681C153.408 28.4994 152.813 28.713 152.573 29.241L154.393 30.0686ZM153.151 30.5312C152.686 30.3195 152.501 29.7983 152.659 29.3613L154.539 30.0448C154.721 29.5454 154.507 28.9505 153.979 28.7105L153.151 30.5312ZM152.679 29.3123C152.403 29.9612 152.303 30.673 152.382 31.3709L154.369 31.1477C154.328 30.7854 154.381 30.42 154.52 30.0937L152.679 29.3123ZM152.382 31.3715C152.637 33.629 154.681 35.2514 156.937 34.997L156.713 33.0096C155.55 33.1408 154.499 32.3026 154.369 31.1471L152.382 31.3715ZM156.908 34.9999C156.479 35.0357 155.947 34.7396 155.897 34.1402L157.89 33.9741C157.834 33.3068 157.24 32.9653 156.742 33.0068L156.908 34.9999ZM155.897 34.1402C155.861 33.7107 156.157 33.1786 156.756 33.1287L156.922 35.1218C157.59 35.0661 157.931 34.4717 157.89 33.9741L155.897 34.1402ZM156.726 33.1316C156.629 33.1427 156.546 33.1479 156.474 33.1479V35.1479C156.64 35.1479 156.8 35.1361 156.952 35.1188L156.726 33.1316Z" fill="black" mask="url(#path-23-inside-5_37_217)"/>
<path d="M151.262 41.8268C151.262 44.571 149.031 46.7978 146.277 46.7978C143.522 46.7978 141.292 44.571 141.292 41.8268C141.292 39.0825 143.522 36.8557 146.277 36.8557C149.031 36.8557 151.262 39.0825 151.262 41.8268Z" fill="black" stroke="black"/>
<path d="M151.333 41.6652C151.333 44.3204 149.176 46.4746 146.512 46.4746C143.849 46.4746 141.691 44.3204 141.691 41.6652C141.691 39.01 143.849 36.8557 146.512 36.8557C149.176 36.8557 151.333 39.01 151.333 41.6652Z" fill="white" stroke="black"/>
<mask id="path-27-inside-6_37_217" fill="white">
<path d="M146.512 47.0371C143.544 47.0371 141.126 44.6276 141.126 41.6653C141.126 38.703 143.542 36.2935 146.512 36.2935C149.483 36.2935 151.898 38.703 151.898 41.6653C151.896 44.6276 149.48 47.0371 146.512 47.0371ZM146.512 36.4182C143.613 36.4182 141.254 38.771 141.254 41.6653C141.254 44.5595 143.613 46.9124 146.512 46.9124C149.412 46.9124 151.771 44.5595 151.771 41.6653C151.771 38.771 149.412 36.4182 146.512 36.4182Z"/>
</mask>
<path d="M146.512 47.0371C143.544 47.0371 141.126 44.6276 141.126 41.6653C141.126 38.703 143.542 36.2935 146.512 36.2935C149.483 36.2935 151.898 38.703 151.898 41.6653C151.896 44.6276 149.48 47.0371 146.512 47.0371ZM146.512 36.4182C143.613 36.4182 141.254 38.771 141.254 41.6653C141.254 44.5595 143.613 46.9124 146.512 46.9124C149.412 46.9124 151.771 44.5595 151.771 41.6653C151.771 38.771 149.412 36.4182 146.512 36.4182Z" fill="black"/>
<path d="M151.898 41.6653L152.898 41.6662V41.6653H151.898ZM146.512 46.0371C144.094 46.0371 142.126 44.0726 142.126 41.6653H140.126C140.126 45.1826 142.995 48.0371 146.512 48.0371V46.0371ZM142.126 41.6653C142.126 39.2577 144.092 37.2935 146.512 37.2935V35.2935C142.992 35.2935 140.126 38.1483 140.126 41.6653H142.126ZM146.512 37.2935C148.933 37.2935 150.898 39.2577 150.898 41.6653H152.898C152.898 38.1483 150.033 35.2935 146.512 35.2935V37.2935ZM150.898 41.6643C150.896 44.0732 148.93 46.0371 146.512 46.0371V48.0371C150.031 48.0371 152.895 45.1819 152.898 41.6662L150.898 41.6643ZM146.512 35.4182C143.062 35.4182 140.254 38.2166 140.254 41.6653H142.254C142.254 39.3254 144.163 37.4182 146.512 37.4182V35.4182ZM140.254 41.6653C140.254 45.1139 143.062 47.9124 146.512 47.9124V45.9124C144.163 45.9124 142.254 44.0052 142.254 41.6653H140.254ZM146.512 47.9124C149.963 47.9124 152.771 45.1139 152.771 41.6653H150.771C150.771 44.0052 148.862 45.9124 146.512 45.9124V47.9124ZM152.771 41.6653C152.771 38.2166 149.963 35.4182 146.512 35.4182V37.4182C148.862 37.4182 150.771 39.3254 150.771 41.6653H152.771Z" fill="black" mask="url(#path-27-inside-6_37_217)"/>
<path d="M150.48 41.6652C150.48 43.8489 148.705 45.6214 146.512 45.6214C144.32 45.6214 142.545 43.8489 142.545 41.6652C142.545 39.4814 144.32 37.709 146.512 37.709C148.705 37.709 150.48 39.4814 150.48 41.6652Z" fill="white" stroke="black"/>
<path d="M150.733 42.9028C150.742 42.8695 150.779 42.8529 150.81 42.8613L150.795 42.9209L150.794 42.9206L150.757 42.9097L150.733 42.9028Z" fill="black" stroke="black"/>
<mask id="path-31-inside-7_37_217" fill="white">
<path d="M150.532 39.783C150.509 39.783 150.487 39.7689 150.475 39.749C149.733 38.2211 148.213 37.2715 146.512 37.2715C145.115 37.2715 143.785 37.9433 142.958 39.0687C142.938 39.097 142.898 39.1027 142.87 39.0829C142.841 39.063 142.836 39.0233 142.855 38.995C143.706 37.8384 145.072 37.1467 146.509 37.1467C148.259 37.1467 149.82 38.1219 150.586 39.6952C150.6 39.7263 150.589 39.7632 150.557 39.7802C150.552 39.783 150.54 39.783 150.532 39.783Z"/>
</mask>
<path d="M150.532 39.783C150.509 39.783 150.487 39.7689 150.475 39.749C149.733 38.2211 148.213 37.2715 146.512 37.2715C145.115 37.2715 143.785 37.9433 142.958 39.0687C142.938 39.097 142.898 39.1027 142.87 39.0829C142.841 39.063 142.836 39.0233 142.855 38.995C143.706 37.8384 145.072 37.1467 146.509 37.1467C148.259 37.1467 149.82 38.1219 150.586 39.6952C150.6 39.7263 150.589 39.7632 150.557 39.7802C150.552 39.783 150.54 39.783 150.532 39.783Z" fill="black"/>
<path d="M150.475 39.749L149.576 40.1862L149.59 40.2162L149.607 40.2452L150.475 39.749ZM142.958 39.0687L142.152 38.4762L142.145 38.4856L142.138 38.4952L142.958 39.0687ZM142.855 38.995L142.05 38.4026L142.043 38.412L142.036 38.4215L142.855 38.995ZM150.586 39.6952L151.496 39.2814L151.491 39.2694L151.485 39.2577L150.586 39.6952ZM150.557 39.7802L151.005 40.6746L151.021 40.6666L151.036 40.6581L150.557 39.7802ZM150.532 38.783C150.727 38.783 150.893 38.8424 151.018 38.9187C151.144 38.995 151.26 39.1063 151.344 39.2529L149.607 40.2452C149.781 40.5496 150.12 40.783 150.532 40.783V38.783ZM151.375 39.3118C150.464 37.439 148.595 36.2715 146.512 36.2715V38.2715C147.831 38.2715 149.001 39.0032 149.576 40.1862L151.375 39.3118ZM146.512 36.2715C144.797 36.2715 143.168 37.0943 142.152 38.4762L143.763 39.6612C144.402 38.7923 145.432 38.2715 146.512 38.2715V36.2715ZM142.138 38.4952C142.457 38.04 143.051 37.989 143.443 38.2636L142.296 39.9021C142.745 40.2164 143.418 40.1541 143.777 39.6421L142.138 38.4952ZM143.443 38.2636C143.898 38.5823 143.949 39.1761 143.675 39.5684L142.036 38.4215C141.722 38.8706 141.784 39.5437 142.296 39.9021L143.443 38.2636ZM143.661 39.5874C144.323 38.6871 145.39 38.1467 146.509 38.1467V36.1467C144.754 36.1467 143.089 36.9897 142.05 38.4026L143.661 39.5874ZM146.509 38.1467C147.877 38.1467 149.089 38.9041 149.687 40.1326L151.485 39.2577C150.552 37.3396 148.64 36.1467 146.509 36.1467V38.1467ZM149.675 40.109C149.479 39.6758 149.638 39.1429 150.079 38.9023L151.036 40.6581C151.54 40.3835 151.721 39.7769 151.496 39.2814L149.675 40.109ZM150.11 38.8858C150.219 38.8316 150.312 38.8101 150.356 38.8013C150.407 38.7912 150.447 38.7873 150.469 38.7856C150.509 38.7825 150.543 38.783 150.532 38.783V40.783C150.533 40.783 150.544 40.7831 150.558 40.7828C150.571 40.7826 150.594 40.7819 150.622 40.7797C150.639 40.7784 150.814 40.7699 151.005 40.6746L150.11 38.8858Z" fill="black" mask="url(#path-31-inside-7_37_217)"/>
<mask id="path-33-inside-8_37_217" fill="white">
<path d="M146.512 46.1839C144.015 46.1839 141.982 44.1571 141.982 41.6653C141.982 40.8914 142.181 40.1289 142.561 39.4571C142.578 39.4259 142.615 39.4174 142.646 39.4344C142.677 39.4514 142.685 39.4883 142.668 39.5194C142.303 40.1714 142.107 40.9141 142.107 41.6653C142.107 44.089 144.083 46.0592 146.512 46.0592C146.546 46.0592 146.575 46.0875 146.575 46.1215C146.575 46.1556 146.546 46.1839 146.512 46.1839Z"/>
</mask>
<path d="M146.512 46.1839C144.015 46.1839 141.982 44.1571 141.982 41.6653C141.982 40.8914 142.181 40.1289 142.561 39.4571C142.578 39.4259 142.615 39.4174 142.646 39.4344C142.677 39.4514 142.685 39.4883 142.668 39.5194C142.303 40.1714 142.107 40.9141 142.107 41.6653C142.107 44.089 144.083 46.0592 146.512 46.0592C146.546 46.0592 146.575 46.0875 146.575 46.1215C146.575 46.1556 146.546 46.1839 146.512 46.1839Z" fill="black"/>
<path d="M142.561 39.4571L143.431 39.9492L143.435 39.9426L143.439 39.9359L142.561 39.4571ZM142.668 39.5194L143.541 40.0087L143.546 39.9983L142.668 39.5194ZM146.575 46.1215H145.575H146.575ZM146.512 45.1839C144.565 45.1839 142.982 43.6023 142.982 41.6653H140.982C140.982 44.7118 143.465 47.1839 146.512 47.1839V45.1839ZM142.982 41.6653C142.982 41.0618 143.137 40.4691 143.431 39.9492L141.69 38.9649C141.224 39.7887 140.982 40.7211 140.982 41.6653H142.982ZM143.439 39.9359C143.16 40.4475 142.561 40.527 142.167 40.3123L143.125 38.5565C142.669 38.3077 141.996 38.4043 141.683 38.9782L143.439 39.9359ZM142.167 40.3123C141.655 40.0333 141.576 39.4343 141.791 39.0406L143.546 39.9983C143.795 39.5422 143.699 38.8695 143.125 38.5565L142.167 40.3123ZM141.796 39.0303C141.347 39.8308 141.107 40.7419 141.107 41.6653H143.107C143.107 41.0864 143.258 40.512 143.541 40.0086L141.796 39.0303ZM141.107 41.6653C141.107 44.6438 143.533 47.0592 146.512 47.0592V45.0592C144.633 45.0592 143.107 43.5342 143.107 41.6653H141.107ZM146.512 47.0592C145.994 47.0592 145.575 46.6398 145.575 46.1215H147.575C147.575 45.5353 147.099 45.0592 146.512 45.0592V47.0592ZM145.575 46.1215C145.575 45.6033 145.994 45.1839 146.512 45.1839V47.1839C147.099 47.1839 147.575 46.7078 147.575 46.1215H145.575Z" fill="black" mask="url(#path-33-inside-8_37_217)"/>
<path d="M161.919 68.9003H129.377C128.615 68.9003 128 68.2851 128 67.5237V45.3419C128 44.5806 128.615 43.9653 129.377 43.9653H161.919C162.681 43.9653 163.296 44.5806 163.296 45.3419V67.5237C163.296 68.2828 162.68 68.9003 161.919 68.9003Z" fill="white" stroke="black"/>
<path d="M161.919 69.4628H129.376C128.308 69.4628 127.438 68.5925 127.438 67.5238V45.342C127.438 44.2733 128.308 43.4031 129.376 43.4031H161.919C162.988 43.4031 163.858 44.2733 163.858 45.342V67.5238C163.858 68.5925 162.988 69.4628 161.919 69.4628ZM129.376 43.5278C128.376 43.5278 127.562 44.3414 127.562 45.342V67.5238C127.562 68.5245 128.376 69.3381 129.376 69.3381H161.919C162.92 69.3381 163.733 68.5245 163.733 67.5238V45.342C163.733 44.3414 162.92 43.5278 161.919 43.5278H129.376Z" fill="black"/>
<path d="M161.531 68.5868H160.78C160.746 68.5868 160.717 68.5584 160.717 68.5244C160.717 68.4904 160.746 68.462 160.78 68.462H161.531C161.61 68.462 161.69 68.4535 161.766 68.4422C161.8 68.4365 161.831 68.4592 161.84 68.4932C161.845 68.5272 161.823 68.5584 161.789 68.5669C161.704 68.5783 161.616 68.5868 161.531 68.5868ZM160.028 68.5868H159.277C159.243 68.5868 159.215 68.5584 159.215 68.5244C159.215 68.4904 159.243 68.462 159.277 68.462H160.028C160.062 68.462 160.091 68.4904 160.091 68.5244C160.091 68.5584 160.062 68.5868 160.028 68.5868ZM158.529 68.5868H157.778C157.744 68.5868 157.715 68.5584 157.715 68.5244C157.715 68.4904 157.744 68.462 157.778 68.462H158.529C158.563 68.462 158.591 68.4904 158.591 68.5244C158.591 68.5584 158.563 68.5868 158.529 68.5868ZM157.026 68.5868H156.275C156.241 68.5868 156.213 68.5584 156.213 68.5244C156.213 68.4904 156.241 68.462 156.275 68.462H157.026C157.06 68.462 157.089 68.4904 157.089 68.5244C157.089 68.5584 157.06 68.5868 157.026 68.5868ZM155.524 68.5868H154.773C154.739 68.5868 154.71 68.5584 154.71 68.5244C154.71 68.4904 154.739 68.462 154.773 68.462H155.524C155.558 68.462 155.586 68.4904 155.586 68.5244C155.586 68.5584 155.558 68.5868 155.524 68.5868ZM154.024 68.5868H153.273C153.239 68.5868 153.211 68.5584 153.211 68.5244C153.211 68.4904 153.239 68.462 153.273 68.462H154.024C154.058 68.462 154.087 68.4904 154.087 68.5244C154.087 68.5584 154.058 68.5868 154.024 68.5868ZM152.522 68.5868H151.771C151.737 68.5868 151.708 68.5584 151.708 68.5244C151.708 68.4904 151.737 68.462 151.771 68.462H152.522C152.556 68.462 152.584 68.4904 152.584 68.5244C152.584 68.5584 152.556 68.5868 152.522 68.5868ZM151.02 68.5868H150.268C150.234 68.5868 150.206 68.5584 150.206 68.5244C150.206 68.4904 150.234 68.462 150.268 68.462H151.02C151.054 68.462 151.082 68.4904 151.082 68.5244C151.082 68.5584 151.056 68.5868 151.02 68.5868ZM149.52 68.5868H148.769C148.735 68.5868 148.706 68.5584 148.706 68.5244C148.706 68.4904 148.735 68.462 148.769 68.462H149.52C149.554 68.462 149.582 68.4904 149.582 68.5244C149.582 68.5584 149.554 68.5868 149.52 68.5868ZM148.018 68.5868H147.266C147.232 68.5868 147.204 68.5584 147.204 68.5244C147.204 68.4904 147.232 68.462 147.266 68.462H148.018C148.052 68.462 148.08 68.4904 148.08 68.5244C148.08 68.5584 148.052 68.5868 148.018 68.5868ZM146.518 68.5868H145.767C145.733 68.5868 145.704 68.5584 145.704 68.5244C145.704 68.4904 145.733 68.462 145.767 68.462H146.518C146.552 68.462 146.58 68.4904 146.58 68.5244C146.58 68.5584 146.552 68.5868 146.518 68.5868ZM145.016 68.5868H144.264C144.23 68.5868 144.202 68.5584 144.202 68.5244C144.202 68.4904 144.23 68.462 144.264 68.462H145.016C145.05 68.462 145.078 68.4904 145.078 68.5244C145.078 68.5584 145.05 68.5868 145.016 68.5868ZM143.513 68.5868H142.762C142.728 68.5868 142.7 68.5584 142.7 68.5244C142.7 68.4904 142.728 68.462 142.762 68.462H143.513C143.547 68.462 143.576 68.4904 143.576 68.5244C143.576 68.5584 143.547 68.5868 143.513 68.5868ZM142.014 68.5868H141.262C141.228 68.5868 141.2 68.5584 141.2 68.5244C141.2 68.4904 141.228 68.462 141.262 68.462H142.014C142.048 68.462 142.076 68.4904 142.076 68.5244C142.076 68.5584 142.048 68.5868 142.014 68.5868ZM140.511 68.5868H139.76C139.726 68.5868 139.698 68.5584 139.698 68.5244C139.698 68.4904 139.726 68.462 139.76 68.462H140.511C140.545 68.462 140.574 68.4904 140.574 68.5244C140.574 68.5584 140.545 68.5868 140.511 68.5868ZM139.009 68.5868H138.258C138.224 68.5868 138.195 68.5584 138.195 68.5244C138.195 68.4904 138.224 68.462 138.258 68.462H139.009C139.043 68.462 139.071 68.4904 139.071 68.5244C139.071 68.5584 139.046 68.5868 139.009 68.5868ZM137.509 68.5868H136.758C136.724 68.5868 136.696 68.5584 136.696 68.5244C136.696 68.4904 136.724 68.462 136.758 68.462H137.509C137.543 68.462 137.572 68.4904 137.572 68.5244C137.572 68.5584 137.543 68.5868 137.509 68.5868ZM136.007 68.5868H135.256C135.222 68.5868 135.193 68.5584 135.193 68.5244C135.193 68.4904 135.222 68.462 135.256 68.462H136.007C136.041 68.462 136.069 68.4904 136.069 68.5244C136.069 68.5584 136.041 68.5868 136.007 68.5868ZM134.504 68.5868H133.753C133.719 68.5868 133.691 68.5584 133.691 68.5244C133.691 68.4904 133.719 68.462 133.753 68.462H134.504C134.538 68.462 134.567 68.4904 134.567 68.5244C134.57 68.5584 134.541 68.5868 134.504 68.5868ZM133.005 68.5868H132.254C132.22 68.5868 132.191 68.5584 132.191 68.5244C132.191 68.4904 132.22 68.462 132.254 68.462H133.005C133.039 68.462 133.067 68.4904 133.067 68.5244C133.067 68.5584 133.039 68.5868 133.005 68.5868ZM131.502 68.5868H130.751C130.717 68.5868 130.689 68.5584 130.689 68.5244C130.689 68.4904 130.717 68.462 130.751 68.462H131.502C131.536 68.462 131.565 68.4904 131.565 68.5244C131.565 68.5584 131.536 68.5868 131.502 68.5868ZM130.003 68.5839H130C129.736 68.5698 129.484 68.4819 129.266 68.3345C129.237 68.3146 129.229 68.2749 129.249 68.2466C129.269 68.2183 129.308 68.2097 129.337 68.2296C129.535 68.3657 129.768 68.445 130.006 68.4564C130.04 68.4592 130.065 68.4875 130.065 68.5216C130.062 68.5584 130.034 68.5839 130.003 68.5839ZM162.446 68.2409C162.429 68.2409 162.412 68.2324 162.398 68.2183C162.376 68.1927 162.378 68.1531 162.404 68.1304C162.585 67.9716 162.719 67.7675 162.792 67.5379C162.804 67.5039 162.838 67.4869 162.872 67.4982C162.906 67.5096 162.923 67.5436 162.911 67.5776C162.832 67.8271 162.685 68.051 162.486 68.2268C162.475 68.2353 162.461 68.2409 162.446 68.2409ZM128.821 67.7789C128.798 67.7789 128.775 67.7647 128.764 67.742C128.676 67.5521 128.631 67.348 128.631 67.1354V66.9851C128.631 66.9511 128.659 66.9228 128.693 66.9228C128.727 66.9228 128.756 66.9511 128.756 66.9851V67.1354C128.756 67.3281 128.795 67.5152 128.877 67.691C128.892 67.7222 128.877 67.759 128.846 67.7732C128.838 67.776 128.829 67.7789 128.821 67.7789ZM162.917 66.8774C162.883 66.8774 162.855 66.8491 162.855 66.8151V66.0639C162.855 66.0298 162.883 66.0015 162.917 66.0015C162.951 66.0015 162.979 66.0298 162.979 66.0639V66.8151C162.979 66.8491 162.951 66.8774 162.917 66.8774ZM128.693 66.2963C128.659 66.2963 128.631 66.268 128.631 66.2339V65.4827C128.631 65.4487 128.659 65.4204 128.693 65.4204C128.727 65.4204 128.756 65.4487 128.756 65.4827V66.2339C128.756 66.268 128.727 66.2963 128.693 66.2963ZM162.917 65.375C162.883 65.375 162.855 65.3467 162.855 65.3126V64.5614C162.855 64.5274 162.883 64.4991 162.917 64.4991C162.951 64.4991 162.979 64.5274 162.979 64.5614V65.3126C162.979 65.3467 162.951 65.375 162.917 65.375ZM128.693 64.7939C128.659 64.7939 128.631 64.7655 128.631 64.7315V63.9803C128.631 63.9463 128.659 63.918 128.693 63.918C128.727 63.918 128.756 63.9463 128.756 63.9803V64.7315C128.756 64.7655 128.727 64.7939 128.693 64.7939ZM162.917 63.8754C162.883 63.8754 162.855 63.8471 162.855 63.8131V63.0619C162.855 63.0279 162.883 62.9995 162.917 62.9995C162.951 62.9995 162.979 63.0279 162.979 63.0619V63.8131C162.979 63.8471 162.951 63.8754 162.917 63.8754ZM128.693 63.2943C128.659 63.2943 128.631 63.266 128.631 63.232V62.4807C128.631 62.4467 128.659 62.4184 128.693 62.4184C128.727 62.4184 128.756 62.4467 128.756 62.4807V63.232C128.756 63.266 128.727 63.2943 128.693 63.2943ZM162.917 62.373C162.883 62.373 162.855 62.3447 162.855 62.3107V61.5595C162.855 61.5254 162.883 61.4971 162.917 61.4971C162.951 61.4971 162.979 61.5254 162.979 61.5595V62.3107C162.979 62.3447 162.951 62.373 162.917 62.373ZM128.693 61.7919C128.659 61.7919 128.631 61.7636 128.631 61.7295V60.9783C128.631 60.9443 128.659 60.916 128.693 60.916C128.727 60.916 128.756 60.9443 128.756 60.9783V61.7295C128.756 61.7636 128.727 61.7919 128.693 61.7919ZM162.917 60.8706C162.883 60.8706 162.855 60.8423 162.855 60.8083V60.057C162.855 60.023 162.883 59.9947 162.917 59.9947C162.951 59.9947 162.979 60.023 162.979 60.057V60.8083C162.979 60.8451 162.951 60.8706 162.917 60.8706ZM128.693 60.2895C128.659 60.2895 128.631 60.2612 128.631 60.2271V59.4759C128.631 59.4419 128.659 59.4136 128.693 59.4136C128.727 59.4136 128.756 59.4419 128.756 59.4759V60.2271C128.756 60.264 128.727 60.2895 128.693 60.2895ZM162.917 59.371C162.883 59.371 162.855 59.3427 162.855 59.3087V58.5575C162.855 58.5235 162.883 58.4951 162.917 58.4951C162.951 58.4951 162.979 58.5235 162.979 58.5575V59.3087C162.979 59.3427 162.951 59.371 162.917 59.371ZM128.693 58.7899C128.659 58.7899 128.631 58.7616 128.631 58.7276V57.9764C128.631 57.9423 128.659 57.914 128.693 57.914C128.727 57.914 128.756 57.9423 128.756 57.9764V58.7276C128.756 58.7616 128.727 58.7899 128.693 58.7899ZM162.917 57.8686C162.883 57.8686 162.855 57.8403 162.855 57.8063V57.0551C162.855 57.021 162.883 56.9927 162.917 56.9927C162.951 56.9927 162.979 57.021 162.979 57.0551V57.8063C162.979 57.8403 162.951 57.8686 162.917 57.8686ZM128.693 57.2875C128.659 57.2875 128.631 57.2592 128.631 57.2251V56.4739C128.631 56.4399 128.659 56.4116 128.693 56.4116C128.727 56.4116 128.756 56.4399 128.756 56.4739V57.2251C128.756 57.2592 128.727 57.2875 128.693 57.2875ZM162.917 56.3691C162.883 56.3691 162.855 56.3407 162.855 56.3067V55.5555C162.855 55.5215 162.883 55.4931 162.917 55.4931C162.951 55.4931 162.979 55.5215 162.979 55.5555V56.3067C162.979 56.3407 162.951 56.3691 162.917 56.3691ZM128.693 55.7879C128.659 55.7879 128.631 55.7596 128.631 55.7256V54.9744C128.631 54.9404 128.659 54.912 128.693 54.912C128.727 54.912 128.756 54.9404 128.756 54.9744V55.7256C128.756 55.7596 128.727 55.7879 128.693 55.7879ZM162.917 54.8667C162.883 54.8667 162.855 54.8383 162.855 54.8043V54.0531C162.855 54.0191 162.883 53.9907 162.917 53.9907C162.951 53.9907 162.979 54.0191 162.979 54.0531V54.8043C162.979 54.8383 162.951 54.8667 162.917 54.8667ZM128.693 54.2855C128.659 54.2855 128.631 54.2572 128.631 54.2232V53.472C128.631 53.4379 128.659 53.4096 128.693 53.4096C128.727 53.4096 128.756 53.4379 128.756 53.472V54.2232C128.756 54.2572 128.727 54.2855 128.693 54.2855ZM162.917 53.3642C162.883 53.3642 162.855 53.3359 162.855 53.3019V52.5507C162.855 52.5167 162.883 52.4883 162.917 52.4883C162.951 52.4883 162.979 52.5167 162.979 52.5507V53.3019C162.979 53.3359 162.951 53.3642 162.917 53.3642ZM128.693 52.7831C128.659 52.7831 128.631 52.7548 128.631 52.7208V51.9696C128.631 51.9355 128.659 51.9072 128.693 51.9072C128.727 51.9072 128.756 51.9355 128.756 51.9696V52.7208C128.756 52.7548 128.727 52.7831 128.693 52.7831ZM162.917 51.8647C162.883 51.8647 162.855 51.8363 162.855 51.8023V51.0511C162.855 51.0171 162.883 50.9887 162.917 50.9887C162.951 50.9887 162.979 51.0171 162.979 51.0511V51.8023C162.979 51.8363 162.951 51.8647 162.917 51.8647ZM128.693 51.2835C128.659 51.2835 128.631 51.2552 128.631 51.2212V50.47C128.631 50.436 128.659 50.4076 128.693 50.4076C128.727 50.4076 128.756 50.436 128.756 50.47V51.2212C128.756 51.2552 128.727 51.2835 128.693 51.2835ZM162.917 50.3623C162.883 50.3623 162.855 50.3339 162.855 50.2999V49.5487C162.855 49.5147 162.883 49.4863 162.917 49.4863C162.951 49.4863 162.979 49.5147 162.979 49.5487V50.2999C162.979 50.3339 162.951 50.3623 162.917 50.3623ZM128.693 49.7811C128.659 49.7811 128.631 49.7528 128.631 49.7188V48.9676C128.631 48.9336 128.659 48.9052 128.693 48.9052C128.727 48.9052 128.756 48.9336 128.756 48.9676V49.7188C128.756 49.7528 128.727 49.7811 128.693 49.7811ZM162.917 48.8598C162.883 48.8598 162.855 48.8315 162.855 48.7975V48.0463C162.855 48.0123 162.883 47.9839 162.917 47.9839C162.951 47.9839 162.979 48.0123 162.979 48.0463V48.7975C162.979 48.8315 162.951 48.8598 162.917 48.8598ZM128.693 48.2787C128.659 48.2787 128.631 48.2504 128.631 48.2164V47.4652C128.631 47.4311 128.659 47.4028 128.693 47.4028C128.727 47.4028 128.756 47.4311 128.756 47.4652V48.2164C128.756 48.2532 128.727 48.2787 128.693 48.2787ZM162.917 47.3603C162.883 47.3603 162.855 47.3319 162.855 47.2979V46.5467C162.855 46.5127 162.883 46.4843 162.917 46.4843C162.951 46.4843 162.979 46.5127 162.979 46.5467V47.2979C162.979 47.3319 162.951 47.3603 162.917 47.3603ZM128.693 46.7792C128.659 46.7792 128.631 46.7508 128.631 46.7168V45.9656C128.631 45.9316 128.659 45.9032 128.693 45.9032C128.727 45.9032 128.756 45.9316 128.756 45.9656V46.7168C128.756 46.7508 128.727 46.7792 128.693 46.7792ZM162.917 45.8579C162.883 45.8579 162.855 45.8295 162.855 45.7955V45.77C162.855 45.5375 162.795 45.3108 162.679 45.1095C162.662 45.0783 162.673 45.0415 162.702 45.0245C162.733 45.0074 162.77 45.0188 162.787 45.0471C162.911 45.2654 162.979 45.5149 162.979 45.77V45.7955C162.979 45.8295 162.951 45.8579 162.917 45.8579ZM128.804 45.2909C128.795 45.2909 128.787 45.2881 128.778 45.2852C128.747 45.2711 128.733 45.2342 128.744 45.203C128.846 44.9621 129.014 44.7523 129.226 44.5964C129.255 44.5766 129.294 44.5822 129.314 44.6106C129.334 44.6389 129.328 44.6786 129.3 44.6985C129.104 44.8402 128.954 45.033 128.86 45.2541C128.849 45.2767 128.826 45.2909 128.804 45.2909ZM162.205 44.6191C162.194 44.6191 162.186 44.6163 162.174 44.6106C161.979 44.5 161.755 44.4433 161.531 44.4433H161.485C161.451 44.4433 161.423 44.415 161.423 44.381C161.423 44.347 161.451 44.3186 161.485 44.3186H161.531C161.777 44.3186 162.021 44.381 162.237 44.5029C162.268 44.5199 162.276 44.5567 162.262 44.5879C162.248 44.6077 162.228 44.6191 162.205 44.6191ZM129.958 44.449C129.926 44.449 129.898 44.4235 129.895 44.3923C129.892 44.3583 129.918 44.3271 129.952 44.3243C129.994 44.3214 130.037 44.3186 130.082 44.3186H130.709C130.743 44.3186 130.771 44.347 130.771 44.381C130.771 44.415 130.743 44.4433 130.709 44.4433H130.082C130.043 44.4433 130.003 44.4462 129.963 44.449C129.96 44.449 129.958 44.449 129.958 44.449ZM160.734 44.4433H159.983C159.949 44.4433 159.921 44.415 159.921 44.381C159.921 44.347 159.949 44.3186 159.983 44.3186H160.734C160.768 44.3186 160.797 44.347 160.797 44.381C160.797 44.415 160.768 44.4433 160.734 44.4433ZM159.232 44.4433H158.481C158.447 44.4433 158.418 44.415 158.418 44.381C158.418 44.347 158.447 44.3186 158.481 44.3186H159.232C159.266 44.3186 159.294 44.347 159.294 44.381C159.294 44.415 159.269 44.4433 159.232 44.4433ZM157.732 44.4433H156.981C156.947 44.4433 156.919 44.415 156.919 44.381C156.919 44.347 156.947 44.3186 156.981 44.3186H157.732C157.766 44.3186 157.795 44.347 157.795 44.381C157.795 44.415 157.766 44.4433 157.732 44.4433ZM156.23 44.4433H155.479C155.445 44.4433 155.416 44.415 155.416 44.381C155.416 44.347 155.445 44.3186 155.479 44.3186H156.23C156.264 44.3186 156.292 44.347 156.292 44.381C156.292 44.415 156.264 44.4433 156.23 44.4433ZM154.73 44.4433H153.979C153.945 44.4433 153.917 44.415 153.917 44.381C153.917 44.347 153.945 44.3186 153.979 44.3186H154.73C154.764 44.3186 154.793 44.347 154.793 44.381C154.793 44.415 154.764 44.4433 154.73 44.4433ZM153.228 44.4433H152.477C152.443 44.4433 152.414 44.415 152.414 44.381C152.414 44.347 152.443 44.3186 152.477 44.3186H153.228C153.262 44.3186 153.29 44.347 153.29 44.381C153.29 44.415 153.262 44.4433 153.228 44.4433ZM151.725 44.4433H150.974C150.94 44.4433 150.912 44.415 150.912 44.381C150.912 44.347 150.94 44.3186 150.974 44.3186H151.725C151.759 44.3186 151.788 44.347 151.788 44.381C151.788 44.415 151.759 44.4433 151.725 44.4433ZM150.226 44.4433H149.475C149.441 44.4433 149.412 44.415 149.412 44.381C149.412 44.347 149.441 44.3186 149.475 44.3186H150.226C150.26 44.3186 150.288 44.347 150.288 44.381C150.288 44.415 150.26 44.4433 150.226 44.4433ZM148.723 44.4433H147.972C147.938 44.4433 147.91 44.415 147.91 44.381C147.91 44.347 147.938 44.3186 147.972 44.3186H148.723C148.757 44.3186 148.786 44.347 148.786 44.381C148.786 44.415 148.757 44.4433 148.723 44.4433ZM147.221 44.4433H146.47C146.436 44.4433 146.407 44.415 146.407 44.381C146.407 44.347 146.436 44.3186 146.47 44.3186H147.221C147.255 44.3186 147.283 44.347 147.283 44.381C147.283 44.415 147.258 44.4433 147.221 44.4433ZM145.721 44.4433H144.97C144.936 44.4433 144.908 44.415 144.908 44.381C144.908 44.347 144.936 44.3186 144.97 44.3186H145.721C145.755 44.3186 145.784 44.347 145.784 44.381C145.784 44.415 145.755 44.4433 145.721 44.4433ZM144.219 44.4433H143.468C143.434 44.4433 143.405 44.415 143.405 44.381C143.405 44.347 143.434 44.3186 143.468 44.3186H144.219C144.253 44.3186 144.281 44.347 144.281 44.381C144.281 44.415 144.253 44.4433 144.219 44.4433ZM142.719 44.4433H141.968C141.934 44.4433 141.906 44.415 141.906 44.381C141.906 44.347 141.934 44.3186 141.968 44.3186H142.719C142.754 44.3186 142.782 44.347 142.782 44.381C142.782 44.415 142.754 44.4433 142.719 44.4433ZM141.217 44.4433H140.466C140.432 44.4433 140.404 44.415 140.404 44.381C140.404 44.347 140.432 44.3186 140.466 44.3186H141.217C141.251 44.3186 141.279 44.347 141.279 44.381C141.279 44.415 141.251 44.4433 141.217 44.4433ZM139.715 44.4433H138.963C138.929 44.4433 138.901 44.415 138.901 44.381C138.901 44.347 138.929 44.3186 138.963 44.3186H139.715C139.749 44.3186 139.777 44.347 139.777 44.381C139.777 44.415 139.749 44.4433 139.715 44.4433ZM138.215 44.4433H137.464C137.43 44.4433 137.402 44.415 137.402 44.381C137.402 44.347 137.43 44.3186 137.464 44.3186H138.215C138.249 44.3186 138.277 44.347 138.277 44.381C138.277 44.415 138.249 44.4433 138.215 44.4433ZM136.713 44.4433H135.961C135.927 44.4433 135.899 44.415 135.899 44.381C135.899 44.347 135.927 44.3186 135.961 44.3186H136.713C136.747 44.3186 136.775 44.347 136.775 44.381C136.775 44.415 136.747 44.4433 136.713 44.4433ZM135.21 44.4433H134.459C134.425 44.4433 134.397 44.415 134.397 44.381C134.397 44.347 134.425 44.3186 134.459 44.3186H135.21C135.244 44.3186 135.273 44.347 135.273 44.381C135.273 44.415 135.247 44.4433 135.21 44.4433ZM133.711 44.4433H132.959C132.925 44.4433 132.897 44.415 132.897 44.381C132.897 44.347 132.925 44.3186 132.959 44.3186H133.711C133.745 44.3186 133.773 44.347 133.773 44.381C133.773 44.415 133.745 44.4433 133.711 44.4433ZM132.208 44.4433H131.457C131.423 44.4433 131.395 44.415 131.395 44.381C131.395 44.347 131.423 44.3186 131.457 44.3186H132.208C132.242 44.3186 132.271 44.347 132.271 44.381C132.271 44.415 132.242 44.4433 132.208 44.4433Z" fill="black"/>
<path d="M163.926 58.9372H156.947C156.326 58.9372 155.822 58.4326 155.822 57.8118V55.0536C155.822 54.4328 156.326 53.9282 156.947 53.9282H163.926C164.547 53.9282 165.052 54.4328 165.052 55.0536V57.8118C165.052 58.4326 164.547 58.9372 163.926 58.9372Z" fill="white"/>
<path d="M163.926 58.9997H156.947C156.292 58.9997 155.759 58.4667 155.759 57.8119V55.0537C155.759 54.3989 156.292 53.866 156.947 53.866H163.926C164.581 53.866 165.114 54.3989 165.114 55.0537V57.8119C165.114 58.4667 164.581 58.9997 163.926 58.9997ZM156.947 53.9879C156.36 53.9879 155.884 54.4641 155.884 55.0509V57.8091C155.884 58.3959 156.36 58.8721 156.947 58.8721H163.926C164.513 58.8721 164.989 58.3959 164.989 57.8091V55.0509C164.989 54.4641 164.513 53.9879 163.926 53.9879H156.947Z" fill="black"/>
<path d="M157.831 57.435C158.386 57.435 158.835 56.9857 158.835 56.4315C158.835 55.8773 158.386 55.428 157.831 55.428C157.277 55.428 156.828 55.8773 156.828 56.4315C156.828 56.9857 157.277 57.435 157.831 57.435Z" fill="black"/>
<path d="M145.728 61.12L145.736 61.1269L145.745 61.1331C145.79 61.1672 145.855 61.1973 145.934 61.1973C146.036 61.1973 146.113 61.1479 146.159 61.1014L146.169 61.092L146.177 61.0818L148.66 58.0092C148.784 57.8633 148.735 57.6706 148.626 57.5742C148.48 57.4439 148.283 57.4935 148.185 57.6034L148.185 57.6033L148.178 57.6124L145.694 60.685C145.57 60.8308 145.62 61.0235 145.728 61.12Z" fill="black" stroke="black" stroke-width="0.5"/>
<path d="M148.665 57.4857L148.673 57.4926L148.681 57.4989C148.726 57.5329 148.792 57.563 148.871 57.563C148.957 57.563 149.051 57.5254 149.114 57.4473L152.087 53.7712C152.211 53.6253 152.162 53.4326 152.053 53.3361C151.906 53.2059 151.71 53.2555 151.612 53.3654L151.612 53.3652L151.605 53.3743L148.631 57.0507C148.507 57.1965 148.556 57.3893 148.665 57.4857Z" fill="black" stroke="black" stroke-width="0.5"/>
<path d="M152.087 53.2508L152.094 53.2577L152.103 53.2639C152.148 53.298 152.214 53.3281 152.292 53.3281C152.387 53.3281 152.476 53.2859 152.535 53.2124L153.448 52.0847C153.572 51.9388 153.522 51.7461 153.414 51.6496C153.267 51.5194 153.071 51.5689 152.973 51.6789L152.973 51.6787L152.965 51.6877L152.052 52.8157C151.928 52.9615 151.978 53.1543 152.087 53.2508Z" fill="black" stroke="black" stroke-width="0.5"/>
<path d="M135.869 60.8052L135.877 60.8121L135.885 60.8184C135.931 60.8524 135.996 60.8825 136.075 60.8825C136.176 60.8825 136.253 60.8332 136.3 60.7866L136.309 60.7772L136.318 60.7669L138.053 58.6185C138.176 58.4726 138.127 58.28 138.018 58.1836C137.872 58.0533 137.675 58.1029 137.577 58.2128L137.577 58.2126L137.57 58.2218L135.835 60.3703C135.711 60.5161 135.761 60.7088 135.869 60.8052Z" fill="black" stroke="black" stroke-width="0.5"/>
<path d="M137.947 58.2342L137.954 58.2411L137.963 58.2473C138.008 58.2814 138.074 58.3115 138.152 58.3115C138.247 58.3115 138.336 58.2693 138.395 58.1958L140.434 55.6762C140.557 55.5304 140.508 55.3376 140.399 55.2412C140.253 55.1109 140.056 55.1605 139.958 55.2704L139.958 55.2703L139.951 55.2793L137.912 57.7991C137.789 57.945 137.838 58.1377 137.947 58.2342Z" fill="black" stroke="black" stroke-width="0.5"/>
<path d="M140.64 54.9032L140.648 54.9101L140.656 54.9163C140.702 54.9504 140.767 54.9805 140.846 54.9805C140.941 54.9805 141.029 54.9383 141.089 54.8647L143.237 52.2092C143.361 52.0633 143.312 51.8706 143.203 51.7741C143.057 51.6439 142.86 51.6934 142.762 51.8034L142.762 51.8032L142.755 51.8122L140.606 54.4681C140.482 54.614 140.532 54.8067 140.64 54.9032Z" fill="black" stroke="black" stroke-width="0.5"/>
<path d="M144.098 67.0332L144.106 67.0401L144.114 67.0463C144.16 67.0804 144.225 67.1105 144.304 67.1105C144.37 67.1105 144.472 67.0904 144.547 66.9975C144.547 66.9973 144.547 66.997 144.548 66.9968L147.671 63.1315C147.795 62.9856 147.745 62.7929 147.637 62.6965C147.49 62.5663 147.293 62.6158 147.196 62.7258L147.196 62.7256L147.188 62.7347L144.064 66.5981C143.94 66.744 143.99 66.9367 144.098 67.0332Z" fill="black" stroke="black" stroke-width="0.5"/>
<path d="M147.56 62.7553L147.567 62.7622L147.576 62.7685C147.621 62.8025 147.687 62.8326 147.765 62.8326C147.851 62.8326 147.945 62.795 148.008 62.7169C148.008 62.7166 148.008 62.7164 148.009 62.7161L150.679 59.415C150.802 59.2691 150.753 59.0764 150.644 58.9799C150.498 58.8497 150.301 58.8993 150.203 59.0092L150.203 59.009L150.196 59.0181L147.525 62.3203C147.401 62.4662 147.451 62.6589 147.56 62.7553Z" fill="black" stroke="black" stroke-width="0.5"/>
<path d="M145.051 27.2223C145.051 29.2576 143.398 30.9092 141.356 30.9092C139.314 30.9092 137.661 29.2576 137.661 27.2223C137.661 25.187 139.314 23.5354 141.356 23.5354C143.398 23.5354 145.051 25.187 145.051 27.2223Z" fill="black" stroke="black"/>
<path d="M145.125 27.1315C145.125 29.0979 143.528 30.6937 141.555 30.6937C139.582 30.6937 137.984 29.0979 137.984 27.1315C137.984 25.1652 139.582 23.5693 141.555 23.5693C143.528 23.5693 145.125 25.1652 145.125 27.1315Z" fill="white" stroke="black"/>
<mask id="path-51-inside-9_37_217" fill="white">
<path d="M141.557 31.2564C141.322 31.2564 141.084 31.2365 140.846 31.194C139.757 31.0041 138.81 30.406 138.173 29.5045C137.538 28.6031 137.291 27.5089 137.481 26.4232C137.875 24.1837 140.018 22.6785 142.263 23.0697C143.352 23.2596 144.301 23.8577 144.936 24.7592C145.571 25.6606 145.818 26.7548 145.628 27.8405C145.279 29.8419 143.527 31.2564 141.557 31.2564ZM141.554 23.132C139.644 23.132 137.946 24.504 137.608 26.4458C137.424 27.4975 137.662 28.5577 138.277 29.4337C138.893 30.3068 139.814 30.8907 140.868 31.0721C141.101 31.1118 141.331 31.1317 141.557 31.1317C143.468 31.1317 145.166 29.7596 145.503 27.8179C145.687 26.7662 145.449 25.706 144.834 24.83C144.219 23.9569 143.298 23.3758 142.243 23.1916C142.011 23.1519 141.781 23.132 141.554 23.132Z"/>
</mask>
<path d="M141.557 31.2564C141.322 31.2564 141.084 31.2365 140.846 31.194C139.757 31.0041 138.81 30.406 138.173 29.5045C137.538 28.6031 137.291 27.5089 137.481 26.4232C137.875 24.1837 140.018 22.6785 142.263 23.0697C143.352 23.2596 144.301 23.8577 144.936 24.7592C145.571 25.6606 145.818 26.7548 145.628 27.8405C145.279 29.8419 143.527 31.2564 141.557 31.2564ZM141.554 23.132C139.644 23.132 137.946 24.504 137.608 26.4458C137.424 27.4975 137.662 28.5577 138.277 29.4337C138.893 30.3068 139.814 30.8907 140.868 31.0721C141.101 31.1118 141.331 31.1317 141.557 31.1317C143.468 31.1317 145.166 29.7596 145.503 27.8179C145.687 26.7662 145.449 25.706 144.834 24.83C144.219 23.9569 143.298 23.3758 142.243 23.1916C142.011 23.1519 141.781 23.132 141.554 23.132Z" fill="black"/>
<path d="M140.846 31.194L141.022 30.2096L141.018 30.2089L140.846 31.194ZM138.173 29.5045L137.355 30.0804L137.356 30.0821L138.173 29.5045ZM137.481 26.4232L136.496 26.2499L136.496 26.2508L137.481 26.4232ZM142.263 23.0697L142.435 22.0846L142.435 22.0845L142.263 23.0697ZM145.628 27.8405L144.643 27.6682L144.643 27.6689L145.628 27.8405ZM137.608 26.4458L138.593 26.6184L138.594 26.617L137.608 26.4458ZM138.277 29.4337L137.459 30.0084L137.46 30.0096L138.277 29.4337ZM140.868 31.0721L140.699 32.0577L140.7 32.0579L140.868 31.0721ZM145.503 27.8179L144.518 27.6453L144.518 27.6467L145.503 27.8179ZM144.834 24.83L145.653 24.2553L145.652 24.2541L144.834 24.83ZM142.243 23.1916L142.415 22.2065L142.412 22.2058L142.243 23.1916ZM141.557 30.2564C141.378 30.2564 141.199 30.2413 141.022 30.2096L140.67 32.1784C140.969 32.2318 141.266 32.2564 141.557 32.2564V30.2564ZM141.018 30.2089C140.189 30.0643 139.474 29.6124 138.989 28.9269L137.356 30.0821C138.147 31.1995 139.326 31.9439 140.674 32.1791L141.018 30.2089ZM138.99 28.9286C138.508 28.2435 138.322 27.4183 138.466 26.5955L136.496 26.2508C136.26 27.5994 136.568 28.9627 137.355 30.0804L138.99 28.9286ZM138.466 26.5965C138.764 24.9008 140.389 23.7582 142.091 24.0548L142.435 22.0845C139.647 21.5987 136.986 23.4667 136.496 26.2499L138.466 26.5965ZM142.091 24.0548C142.921 24.1996 143.638 24.6521 144.119 25.3351L145.754 24.1833C144.965 23.0633 143.782 22.3196 142.435 22.0846L142.091 24.0548ZM144.119 25.3351C144.601 26.0202 144.787 26.8454 144.643 27.6682L146.613 28.0128C146.849 26.6643 146.541 25.301 145.754 24.1833L144.119 25.3351ZM144.643 27.6689C144.38 29.18 143.053 30.2564 141.557 30.2564V32.2564C144.002 32.2564 146.179 30.5037 146.613 28.0122L144.643 27.6689ZM141.554 22.132C139.169 22.132 137.046 23.8427 136.623 26.2747L138.594 26.617C138.846 25.1654 140.119 24.132 141.554 24.132V22.132ZM136.624 26.2733C136.393 27.5878 136.692 28.9165 137.459 30.0084L139.096 28.8589C138.632 28.1989 138.455 27.4073 138.593 26.6184L136.624 26.2733ZM137.46 30.0096C138.228 31.0993 139.382 31.8311 140.699 32.0577L141.038 30.0866C140.246 29.9503 139.558 29.5142 139.095 28.8577L137.46 30.0096ZM140.7 32.0579C140.986 32.1067 141.272 32.1317 141.557 32.1317V30.1317C141.389 30.1317 141.216 30.117 141.037 30.0864L140.7 32.0579ZM141.557 32.1317C143.943 32.1317 146.066 30.421 146.488 27.989L144.518 27.6467C144.266 29.0983 142.993 30.1317 141.557 30.1317V32.1317ZM146.488 27.9904C146.719 26.6759 146.419 25.3472 145.653 24.2553L144.016 25.4047C144.479 26.0648 144.656 26.8564 144.518 27.6453L146.488 27.9904ZM145.652 24.2541C144.883 23.1629 143.729 22.436 142.415 22.2065L142.071 24.1766C142.867 24.3157 143.555 24.751 144.017 25.406L145.652 24.2541ZM142.412 22.2058C142.126 22.157 141.84 22.132 141.554 22.132V24.132C141.723 24.132 141.896 24.1467 142.075 24.1773L142.412 22.2058Z" fill="black" mask="url(#path-51-inside-9_37_217)"/>
<path d="M144.471 27.1317C144.471 28.7362 143.166 30.0391 141.555 30.0391C139.943 30.0391 138.639 28.7362 138.639 27.1317C138.639 25.5272 139.943 24.2244 141.555 24.2244C143.166 24.2244 144.471 25.5272 144.471 27.1317Z" fill="white" stroke="black"/>
<mask id="path-54-inside-10_37_217" fill="white">
<path d="M144.069 29.5046C144.055 29.5046 144.038 29.4989 144.026 29.4876C144.001 29.4649 144.001 29.4252 144.024 29.3997C144.242 29.1644 144.423 28.9008 144.565 28.6145C144.579 28.5833 144.619 28.5719 144.65 28.5861C144.681 28.6003 144.693 28.64 144.678 28.6712C144.531 28.9688 144.344 29.2409 144.117 29.4847C144.1 29.4989 144.086 29.5046 144.069 29.5046Z"/>
</mask>
<path d="M144.069 29.5046C144.055 29.5046 144.038 29.4989 144.026 29.4876C144.001 29.4649 144.001 29.4252 144.024 29.3997C144.242 29.1644 144.423 28.9008 144.565 28.6145C144.579 28.5833 144.619 28.5719 144.65 28.5861C144.681 28.6003 144.693 28.64 144.678 28.6712C144.531 28.9688 144.344 29.2409 144.117 29.4847C144.1 29.4989 144.086 29.5046 144.069 29.5046Z" fill="black"/>
<path d="M144.026 29.4876L144.733 28.7805L144.713 28.7597L144.691 28.7401L144.026 29.4876ZM144.024 29.3997L143.29 28.7196L143.283 28.7274L143.276 28.7353L144.024 29.3997ZM144.565 28.6145L145.461 29.0581L145.468 29.0433L145.475 29.0283L144.565 28.6145ZM144.678 28.6712L145.574 29.1149L145.582 29.1001L145.589 29.085L144.678 28.6712ZM144.117 29.4847L144.757 30.2529L144.806 30.2123L144.849 30.1658L144.117 29.4847ZM144.069 28.5046C144.189 28.5046 144.301 28.5273 144.403 28.5658C144.504 28.6045 144.623 28.6705 144.733 28.7805L143.319 30.1947C143.546 30.4218 143.832 30.5046 144.069 30.5046V28.5046ZM144.691 28.7401C145.128 29.1293 145.069 29.7292 144.771 30.064L143.276 28.7353C142.933 29.1212 142.873 29.8005 143.362 30.235L144.691 28.7401ZM144.757 30.0798C145.041 29.7736 145.277 29.4302 145.461 29.0581L143.669 28.1708C143.569 28.3713 143.443 28.5552 143.29 28.7196L144.757 30.0798ZM145.475 29.0283C145.222 29.5847 144.619 29.6703 144.236 29.4965L145.064 27.6757C144.619 27.4736 143.936 27.5819 143.655 28.2007L145.475 29.0283ZM144.236 29.4965C143.68 29.2436 143.594 28.6397 143.768 28.2574L145.589 29.085C145.791 28.6402 145.683 27.957 145.064 27.6757L144.236 29.4965ZM143.782 28.2274C143.677 28.4397 143.545 28.6316 143.385 28.8036L144.849 30.1658C145.143 29.8502 145.385 29.4979 145.574 29.1149L143.782 28.2274ZM143.477 28.7165C143.521 28.6795 143.601 28.6209 143.714 28.5744C143.836 28.5247 143.958 28.5046 144.069 28.5046V30.5046C144.375 30.5046 144.608 30.3776 144.757 30.2529L143.477 28.7165Z" fill="black" mask="url(#path-54-inside-10_37_217)"/>
<mask id="path-56-inside-11_37_217" fill="white">
<path d="M144.84 26.2558C144.812 26.2558 144.789 26.2388 144.781 26.2104C144.423 24.966 143.409 24.056 142.13 23.8349C141.081 23.6535 139.996 23.9852 139.227 24.7222C139.202 24.7449 139.162 24.7449 139.139 24.7194C139.117 24.6938 139.117 24.6542 139.142 24.6315C139.939 23.8661 141.064 23.5231 142.153 23.713C143.457 23.9398 144.537 24.9065 144.902 26.1764C144.911 26.2104 144.894 26.2444 144.86 26.253C144.851 26.2558 144.846 26.2558 144.84 26.2558Z"/>
</mask>
<path d="M144.84 26.2558C144.812 26.2558 144.789 26.2388 144.781 26.2104C144.423 24.966 143.409 24.056 142.13 23.8349C141.081 23.6535 139.996 23.9852 139.227 24.7222C139.202 24.7449 139.162 24.7449 139.139 24.7194C139.117 24.6938 139.117 24.6542 139.142 24.6315C139.939 23.8661 141.064 23.5231 142.153 23.713C143.457 23.9398 144.537 24.9065 144.902 26.1764C144.911 26.2104 144.894 26.2444 144.86 26.253C144.851 26.2558 144.846 26.2558 144.84 26.2558Z" fill="black"/>
<path d="M144.781 26.2104L143.819 26.4863L143.823 26.4978L144.781 26.2104ZM142.13 23.8349L141.96 24.8203L141.96 24.8203L142.13 23.8349ZM139.227 24.7222L139.892 25.4696L139.906 25.457L139.92 25.4438L139.227 24.7222ZM139.142 24.6315L139.807 25.3789L139.821 25.366L139.835 25.3526L139.142 24.6315ZM142.153 23.713L141.981 24.6981L141.981 24.6982L142.153 23.713ZM144.902 26.1764L145.873 25.9339L145.868 25.9167L145.863 25.8997L144.902 26.1764ZM144.86 26.253L144.617 25.2828L144.58 25.2921L144.544 25.3043L144.86 26.253ZM144.84 25.2558C145.031 25.2558 145.234 25.3153 145.407 25.447C145.58 25.5782 145.687 25.7523 145.738 25.9231L143.823 26.4978C143.954 26.9342 144.355 27.2558 144.84 27.2558V25.2558ZM145.742 25.9346C145.279 24.3209 143.956 23.1359 142.301 22.8496L141.96 24.8203C142.861 24.9762 143.568 25.6111 143.819 26.4863L145.742 25.9346ZM142.301 22.8496C140.939 22.614 139.533 23.0434 138.535 24.0006L139.92 25.4438C140.458 24.9269 141.224 24.693 141.96 24.8203L142.301 22.8496ZM138.563 23.9748C138.898 23.6771 139.498 23.6172 139.887 24.055L138.392 25.3837C138.827 25.8726 139.506 25.8126 139.892 25.4696L138.563 23.9748ZM139.887 24.055C140.185 24.3898 140.244 24.9897 139.807 25.3789L138.478 23.8841C137.989 24.3186 138.049 24.9978 138.392 25.3837L139.887 24.055ZM139.835 25.3526C140.402 24.8082 141.206 24.5629 141.981 24.6981L142.325 22.7279C140.923 22.4833 139.476 22.924 138.449 23.9104L139.835 25.3526ZM141.981 24.6982C142.91 24.8597 143.682 25.5524 143.942 26.4531L145.863 25.8997C145.391 24.2605 144.004 23.0199 142.324 22.7278L141.981 24.6982ZM143.932 26.419C143.829 26.0041 144.033 25.429 144.617 25.2828L145.103 27.2231C145.755 27.0599 145.993 26.4167 145.873 25.9339L143.932 26.419ZM144.544 25.3043C144.606 25.2834 144.672 25.269 144.739 25.2615C144.798 25.255 144.847 25.2558 144.84 25.2558V27.2558C144.875 27.2558 145.011 27.2566 145.176 27.2016L144.544 25.3043Z" fill="black" mask="url(#path-56-inside-11_37_217)"/>
<path d="M138.859 24.9378L138.871 24.9486L138.904 24.9776L138.952 25.0208C138.863 25.131 138.78 25.2467 138.706 25.3669C138.675 25.3504 138.644 25.3292 138.614 25.303C138.611 25.2999 138.608 25.2968 138.604 25.2936C138.681 25.1702 138.766 25.0515 138.858 24.9383C138.858 24.9381 138.859 24.9379 138.859 24.9378ZM138.859 24.9378L138.905 24.9757L138.944 25.007L138.944 25.007L138.956 25.0166C138.978 24.9911 138.972 24.9518 138.947 24.9292C138.922 24.9076 138.885 24.9118 138.862 24.9343C138.861 24.9354 138.86 24.9366 138.859 24.9378Z" fill="black" stroke="black"/>
</g>
<g clip-path="url(#clip2_37_217)">
<path d="M239.525 25.3148C239.395 25.3148 239.308 25.2255 239.308 25.1361C239.308 25.002 239.395 24.9126 239.482 24.8679C240.044 24.7785 240.607 24.6444 241.126 24.4209C241.256 24.3763 241.386 24.4209 241.429 24.555C241.472 24.6891 241.429 24.8232 241.299 24.8679C240.78 25.0914 240.174 25.2255 239.525 25.3148C239.568 25.3148 239.568 25.3148 239.525 25.3148ZM237.794 25.3148C237.145 25.2255 236.582 25.0914 236.02 24.8232C235.89 24.7785 235.846 24.6444 235.89 24.5103C235.933 24.3762 236.063 24.3316 236.193 24.3763C236.712 24.5997 237.275 24.7338 237.837 24.8232C237.967 24.8232 238.053 24.9573 238.01 25.0914C238.01 25.2255 237.924 25.3148 237.794 25.3148ZM242.771 23.974C242.684 23.974 242.641 23.9293 242.597 23.8846C242.511 23.7952 242.554 23.6611 242.641 23.5717C243.074 23.2142 243.506 22.8119 243.852 22.3203C243.939 22.2309 244.069 22.1862 244.155 22.2756C244.242 22.365 244.285 22.4991 244.199 22.5885C243.852 23.0801 243.42 23.527 242.9 23.8846C242.857 23.9293 242.814 23.974 242.771 23.974ZM234.591 23.9293C234.548 23.9293 234.505 23.9293 234.462 23.8846C233.986 23.4824 233.553 23.0354 233.207 22.5438C233.12 22.4544 233.163 22.3203 233.25 22.2309C233.336 22.1415 233.466 22.1862 233.553 22.2756C233.899 22.7225 234.288 23.1695 234.764 23.527C234.851 23.6164 234.894 23.7505 234.808 23.8399C234.721 23.9293 234.678 23.9293 234.591 23.9293ZM244.848 21.1135C244.805 21.1135 244.805 21.1135 244.761 21.1135C244.631 21.0688 244.588 20.9347 244.631 20.8006C244.848 20.2643 244.978 19.6833 245.021 19.1022C245.021 18.9682 245.151 18.8788 245.281 18.8788C245.41 18.8788 245.497 19.0128 245.497 19.1469C245.454 19.7727 245.281 20.3984 245.064 20.9794C245.021 21.0688 244.934 21.1135 244.848 21.1135ZM232.514 21.0688C232.428 21.0688 232.341 21.0241 232.298 20.9347C232.081 20.3537 231.952 19.728 231.865 19.1022C231.865 18.9682 231.952 18.8788 232.081 18.8788C232.211 18.8788 232.298 18.9682 232.298 19.1022C232.341 19.6833 232.471 20.2643 232.687 20.8006C232.731 20.9347 232.687 21.0688 232.557 21.1135C232.557 21.0688 232.514 21.0688 232.514 21.0688ZM232.081 18.7447C231.952 18.7447 231.865 18.6553 231.865 18.5212C231.865 17.8955 231.952 17.2697 232.125 16.6887C232.168 16.5546 232.298 16.5099 232.384 16.5546C232.514 16.5993 232.557 16.7334 232.514 16.8228C232.341 17.3591 232.298 17.9402 232.298 18.5659C232.298 18.6553 232.211 18.7447 232.081 18.7447ZM245.194 17.5826C245.108 17.5826 244.978 17.4932 244.978 17.4038C244.891 16.8228 244.675 16.2864 244.458 15.7501C244.415 15.6607 244.458 15.4819 244.545 15.4372C244.631 15.3925 244.805 15.4372 244.848 15.5266C245.107 16.1077 245.324 16.6887 245.41 17.3144C245.41 17.4038 245.367 17.5379 245.194 17.5826ZM233.033 15.3032C232.99 15.3032 232.947 15.3032 232.904 15.2585C232.817 15.2138 232.774 15.035 232.817 14.9456C233.12 14.4093 233.509 13.9176 233.986 13.5154C234.072 13.426 234.202 13.426 234.288 13.5154C234.375 13.6047 234.375 13.7388 234.288 13.8282C233.856 14.2305 233.509 14.6774 233.207 15.1691C233.207 15.3032 233.12 15.3032 233.033 15.3032ZM243.636 14.3646C243.593 14.3646 243.506 14.3199 243.463 14.2752C243.074 13.8282 242.641 13.4707 242.165 13.1578C242.078 13.1131 242.035 12.9343 242.078 12.8449C242.165 12.7555 242.295 12.7108 242.381 12.7555C242.9 13.1131 243.376 13.5154 243.766 13.9623C243.852 14.0517 243.852 14.1858 243.766 14.2752C243.723 14.3646 243.679 14.3646 243.636 14.3646ZM235.587 12.8896C235.5 12.8896 235.414 12.8449 235.37 12.7555C235.327 12.6662 235.37 12.4874 235.457 12.4427C235.976 12.1745 236.582 11.951 237.145 11.8169C237.275 11.7723 237.361 11.8616 237.404 11.9957C237.448 12.1298 237.361 12.2192 237.231 12.2639C236.669 12.398 236.149 12.5768 235.63 12.8449C235.673 12.8896 235.63 12.8896 235.587 12.8896ZM240.693 12.4427C240.693 12.4427 240.65 12.4427 240.607 12.4427C240.087 12.2639 239.525 12.1745 238.919 12.1298C238.789 12.1298 238.703 12.0404 238.703 11.9063C238.703 11.7723 238.789 11.6829 238.919 11.6829C239.525 11.7276 240.131 11.8169 240.693 11.9957C240.823 12.0404 240.866 12.1745 240.823 12.2639C240.91 12.398 240.823 12.4427 240.693 12.4427Z" fill="white"/>
<path d="M204.444 62.7022C204.177 62.7022 204 62.5261 204 62.2619C204 61.9977 204.177 61.8216 204.444 61.8216L214.916 61.5574C215.182 61.5574 215.36 61.7335 215.36 61.9977C215.36 62.2619 215.182 62.438 214.916 62.438L204.444 62.7022Z" fill="white"/>
<path d="M209.857 67.8099C209.591 67.8099 209.413 67.6338 209.413 67.3696L209.147 56.8903C209.147 56.6261 209.325 56.45 209.591 56.45C209.857 56.45 210.035 56.6261 210.035 56.8903L210.301 67.3696C210.301 67.5458 210.123 67.8099 209.857 67.8099Z" fill="white"/>
<path d="M275.614 97.6489C275.445 97.6489 275.275 97.5468 275.19 97.2404C274.257 93.6656 272.222 90.3972 269.508 88.1502C266.115 85.8011 258.397 79.3665 255.937 75.281C255.768 75.0767 255.852 74.7703 256.022 74.5661C256.192 74.3618 256.446 74.4639 256.616 74.6682C258.991 78.4472 266.454 84.7797 270.017 87.231C272.561 89.3759 274.512 92.3378 275.699 95.6062C277.141 91.6229 278.837 90.3972 281.636 88.1502C282.569 87.4353 283.587 86.6182 284.859 85.4947C285.198 85.1883 285.623 84.8819 286.047 84.4733C291.984 79.5708 301.907 71.3998 303.094 30.2387C295.122 27.8896 284.096 23.5999 275.954 16.3482C273.155 19.0037 263.486 25.7447 261.111 27.3789C260.941 27.4811 260.602 27.4811 260.517 27.1746C260.432 26.9704 260.432 26.5618 260.687 26.4597C263.062 24.8255 273.324 17.6759 275.614 15.3268C275.784 15.1225 275.954 15.1225 276.123 15.3268C284.35 22.7828 295.546 27.0725 303.519 29.4217C303.688 29.5238 303.858 29.7281 303.858 29.9323C303.349 48.4191 301.059 62.0032 296.988 71.6041C293.51 79.6729 289.439 83.0434 286.471 85.4947C286.047 85.8011 285.707 86.2096 285.283 86.516C284.011 87.6396 282.993 88.4566 282.06 89.1716C278.922 91.6229 277.48 92.7464 276.038 97.4447C275.954 97.4447 275.869 97.6489 275.614 97.6489Z" fill="black"/>
<path d="M275.615 87.4348C275.53 87.4348 275.53 87.4348 275.53 87.3327C275.106 86.6177 272.731 84.6771 270.271 82.6344C267.388 80.1831 264.08 77.5275 263.147 76.1998C263.062 76.0976 263.062 75.9955 263.147 75.9955C263.232 75.8934 263.316 75.8934 263.316 75.9955C264.249 77.3233 267.472 79.9788 270.441 82.328C272.901 84.3707 275.021 86.107 275.7 86.9241C277.226 84.9835 278.414 84.0643 280.958 82.2258C281.637 81.7151 282.315 81.2045 283.163 80.5916C294.613 71.91 297.327 58.0194 298.6 33.7109C288.676 30.8511 281.297 27.072 276.124 22.3737C274.936 23.7015 272.222 25.4378 270.526 26.4592C270.017 26.7656 269.678 26.9699 269.423 27.1742C269.338 27.1742 269.254 27.1742 269.254 27.072C269.254 26.9699 269.254 26.8677 269.338 26.8677C269.593 26.6635 269.932 26.4592 270.441 26.1528C272.137 25.1314 274.936 23.293 276.039 22.0673C276.124 21.9652 276.208 21.9652 276.208 22.0673C281.382 26.8677 288.761 30.5447 298.769 33.4045C298.854 33.4045 298.854 33.5066 298.854 33.6088C298.345 43.6182 297.497 54.1382 295.037 62.6156C292.663 70.7865 288.931 76.6083 283.248 80.8981C282.4 81.5109 281.637 82.1237 281.043 82.5322C278.414 84.4728 277.226 85.3921 275.7 87.3327C275.7 87.4348 275.7 87.4348 275.615 87.4348Z" fill="black"/>
<path d="M256.779 59.3821L265.854 65.3285C265.98 65.405 266.031 65.537 265.98 65.6586C265.93 65.7803 265.812 65.8104 265.685 65.7339L256.611 59.7875C256.484 59.711 256.434 59.579 256.484 59.4574C256.535 59.3358 256.652 59.3057 256.779 59.3821Z" fill="black"/>
<path d="M265.95 56.8942C266.039 56.953 266.065 57.0276 266.092 57.1021C266.146 57.2513 266.05 57.3575 265.927 57.3892C264.042 57.3852 262.111 57.067 260.152 56.3894C260.002 56.3465 259.949 56.1974 259.957 56.0324C259.965 55.8674 260.088 55.8357 260.238 55.8786C262.091 56.5426 264.021 56.8608 265.844 56.8807C265.844 56.8807 265.906 56.8649 265.95 56.8942Z" fill="black"/>
<path d="M256.777 64.1124C256.821 64.1424 256.821 64.1424 256.866 64.1724C257.845 65.582 258.762 67.0075 259.581 68.5413C259.635 68.6934 259.627 68.8616 259.503 68.8937C259.379 68.9258 259.227 68.8817 259.173 68.7296C258.38 67.2719 257.481 65.8003 256.529 64.4668C256.413 64.3307 256.421 64.1625 256.563 64.0844C256.58 64.0383 256.687 64.0523 256.777 64.1124Z" fill="black"/>
<path d="M229.372 41.3871L225.723 70.7679L230.755 74.5819L250.901 26.8717L246.343 23.5134L229.372 41.3871Z" fill="white"/>
<path d="M246.418 23.2822L250.965 26.6355C251.119 26.7402 251.181 26.9161 251.121 27.0751L231.074 74.7508C231.054 74.8038 230.963 74.875 230.891 74.8931C230.819 74.9112 230.768 74.8763 230.665 74.8065L225.593 70.9632C225.49 70.8934 225.428 70.7176 225.417 70.5766L229.109 41.2737C229.129 41.2206 229.149 41.1676 229.169 41.1146L246.049 23.2319C246.192 23.1956 246.264 23.1775 246.418 23.2822ZM250.455 26.9563L246.371 23.9171L229.643 41.5697L226.052 70.6076L230.681 74.0837L250.455 26.9563Z" fill="black"/>
<path d="M245.388 52.1547L246.988 65.4408L251.908 65.397L251.823 56.9204L257.209 52.671L254.527 47.3742L245.388 52.1547Z" fill="white"/>
<path d="M254.612 47.1312C254.66 47.1648 254.709 47.1984 254.739 47.2826L257.433 52.5169C257.511 52.6346 257.503 52.82 257.417 52.8876L252.131 57.0601L252.205 65.383C252.216 65.5178 252.11 65.636 251.994 65.6193L247.106 65.6126C247.038 65.6296 246.941 65.5624 246.892 65.5288C246.844 65.4952 246.766 65.3775 246.784 65.3269L245.169 52.1211C245.158 51.9863 245.196 51.8851 245.263 51.8681L254.38 47.098C254.447 47.081 254.496 47.1146 254.612 47.1312ZM256.863 52.5686L254.464 47.856L245.674 52.4064L247.197 65.0396L251.603 65.0305L251.539 56.8423C251.51 56.7581 251.596 56.6905 251.615 56.6399L256.863 52.5686Z" fill="black"/>
<path d="M253.942 59.2944C253.168 60.0201 251.843 59.9726 250.643 59.4756C249.254 58.912 249.624 59.1993 235.331 50.5512C230.732 47.7914 222.527 43.6948 219.92 36.2197C219.79 35.8725 219.677 35.4831 219.837 35.2149C219.939 34.9616 220.237 34.8867 220.477 34.8268C225.668 33.6773 231.184 38.4481 236.422 42.3011C242.5 46.741 247.8 51.1101 252.128 54.5452C255.04 56.8162 254.436 58.8668 253.942 59.2944Z" fill="white"/>
<path d="M229.778 37.2048C231.41 38.243 233.061 39.5051 234.685 40.6976C235.312 41.1498 235.923 41.6442 236.55 42.0964C241.225 45.4949 245.43 48.8592 249.092 51.8261C250.201 52.6907 251.25 53.5704 252.231 54.3531C253.95 55.7122 254.436 56.9238 254.543 57.7351C254.677 58.6161 254.423 59.2513 254.1 59.5231C253.325 60.2511 252.007 60.3152 250.617 59.7497L250.428 59.6827C249.227 59.1841 248.85 59.0503 235.289 50.7956C234.816 50.4951 234.241 50.1823 233.683 49.8272C229.063 47.1007 222.073 43.0259 219.724 36.2237C219.568 35.8057 219.471 35.3728 219.666 35.019C219.844 34.7076 220.143 34.6325 220.442 34.5574C223.46 33.8759 226.643 35.2105 229.778 37.2048ZM230.494 47.4272C231.654 48.1648 232.787 48.8328 233.835 49.4461C234.41 49.7589 234.968 50.114 235.441 50.4146C248.976 58.5995 249.336 58.7757 250.537 59.2743L250.726 59.3413C251.696 59.7456 252.972 59.9205 253.807 59.1775C253.977 59.0204 254.222 58.5396 254.141 57.798C254.043 57.0986 253.609 56.0264 252.045 54.8189C251.065 54.0362 249.999 53.1988 248.907 52.2919C245.227 49.3673 241.023 46.003 236.364 42.5621C235.737 42.11 235.11 41.6579 234.499 41.1634C229.901 37.7075 225.087 34.115 220.591 35.1297C220.352 35.1898 220.155 35.2772 220.045 35.4192C219.96 35.6309 220.048 35.9519 220.152 36.2306C221.909 41.2762 226.414 44.8318 230.494 47.4272Z" fill="black"/>
<path d="M225.884 43.7545C224.024 42.2795 224.148 40.1703 224.604 39.1067C225.116 37.8936 226.342 37.6757 227.478 38.0226C227.85 38.1549 228.27 38.3202 228.502 38.6686C228.8 39.0003 228.957 39.548 228.732 39.8307C228.554 40.1465 228.144 40.114 227.793 40.2474C227.357 40.4474 226.85 41.1623 226.875 41.7435C226.888 42.1918 227.277 43.088 227.044 43.5533C226.784 44.2512 226.172 43.9533 225.884 43.7545Z" fill="black"/>
<path d="M229.872 68.0862C229.927 68.1219 229.96 68.2127 229.938 68.2679L228.164 72.2451C228.142 72.3002 228.066 72.3198 228.011 72.2841C227.957 72.2485 227.924 72.1576 227.946 72.1024L229.719 68.1253C229.741 68.0701 229.818 68.0506 229.872 68.0862Z" fill="black"/>
<path d="M227.493 69.5935C227.547 69.6291 227.579 69.7196 227.558 69.7745L226.869 71.5318C226.848 71.5867 226.772 71.606 226.718 71.5704C226.664 71.5348 226.631 71.4443 226.653 71.3894L227.341 69.6321C227.417 69.6128 227.493 69.5935 227.493 69.5935Z" fill="black"/>
<path d="M249.089 24.8699C249.142 24.9053 249.175 24.9952 249.154 25.0496C248.571 26.0315 248.021 27.1033 247.525 28.2105C247.503 28.2649 247.429 28.2839 247.375 28.2484C247.322 28.213 247.29 28.1231 247.311 28.0687C247.808 26.9615 248.358 25.8897 248.94 24.9078C249.014 24.8888 249.089 24.8699 249.089 24.8699Z" fill="black"/>
</g>
<g clip-path="url(#clip3_37_217)">
<path d="M374.888 95.675C374.547 95.675 374.433 95.4477 374.319 95.2205C373.638 92.266 369.888 88.1751 363.524 83.1752C360.683 81.0161 357.729 78.9707 355.002 77.1525C353.638 76.1298 352.274 75.2207 351.138 74.4253C350.911 74.198 350.797 73.8571 351.024 73.6298C351.252 73.4026 351.592 73.2889 351.82 73.5162C352.956 74.3116 354.206 75.2207 355.683 76.1298C358.411 77.948 361.365 80.107 364.206 82.2661C369.888 86.6978 373.524 90.4478 374.888 93.4023C376.706 89.0842 378.865 87.6069 382.501 85.107C383.638 84.3115 385.001 83.4024 386.592 82.1525C387.047 81.8115 387.615 81.4706 388.069 81.0161C395.683 75.5616 408.41 66.4708 410.001 20.5623C399.774 17.9487 385.569 13.176 375.115 5.10794C363.751 13.2897 347.274 18.4032 340.115 20.335C340.115 20.7896 340.229 21.4714 340.229 22.1532C340.343 24.5395 340.57 27.8349 340.797 28.6304C340.911 28.9713 340.684 29.1986 340.343 29.3122C340.002 29.4258 339.774 29.1986 339.661 28.8577C339.434 27.9486 339.32 24.7668 339.093 22.2668C338.979 21.3577 338.979 20.5623 338.979 19.9941C338.979 19.7669 339.093 19.4259 339.434 19.4259C346.252 17.6078 363.297 12.3806 374.774 4.08523C375.001 3.97159 375.229 3.97159 375.456 4.08523C386.024 12.3806 400.456 17.1533 410.683 19.7669C410.91 19.8805 411.137 20.1078 411.137 20.335C410.455 40.903 407.614 56.0164 402.274 66.6981C397.842 75.6753 392.501 79.4252 388.751 82.1525C388.183 82.4934 387.728 82.9479 387.274 83.2888C385.683 84.5388 384.319 85.4479 383.069 86.2433C379.092 88.9705 377.16 90.2205 375.342 95.4477C375.342 95.4477 375.115 95.675 374.888 95.675Z" fill="black"/>
<path d="M375.001 85.107C374.887 85.107 374.887 85.107 374.887 84.9934C373.865 83.4025 367.501 77.4935 362.615 74.4253C362.501 74.3117 362.501 74.1981 362.501 74.1981C362.615 74.0844 362.729 74.0844 362.729 74.0844C367.388 77.0389 373.524 82.607 374.887 84.5388C376.024 83.0616 379.206 80.448 384.319 76.5844C399.092 65.5618 402.614 49.7665 404.092 24.4259C391.251 21.2442 381.819 17.0397 375.115 11.8125C368.297 16.926 356.479 20.3351 349.433 22.3805C347.956 22.835 346.706 23.1759 345.683 23.5168V23.7441C345.797 24.5396 345.911 25.7896 345.911 26.0168C345.911 26.1305 345.797 26.2441 345.683 26.2441C345.57 26.2441 345.456 26.1305 345.456 26.0168C345.456 25.6759 345.342 24.5396 345.229 23.7441V23.4032C345.229 23.2896 345.229 23.1759 345.342 23.1759C346.365 22.835 347.615 22.4941 349.206 22.0396C356.251 19.9942 368.183 16.4715 374.887 11.3579C375.001 11.3579 375.001 11.3579 375.115 11.3579C381.706 16.6988 391.251 20.7896 404.205 23.9714C404.319 23.9714 404.319 24.085 404.319 24.1987C402.842 49.7665 399.205 65.6754 384.319 76.8116C378.978 80.7889 375.797 83.5161 374.774 84.8797C375.115 85.107 375.115 85.107 375.001 85.107Z" fill="black"/>
<path d="M370.342 31.926C366.365 31.926 363.865 33.9715 363.411 36.926C362.956 39.6532 364.433 42.6077 367.274 43.8577C371.82 45.9031 376.933 42.835 376.933 38.4032C376.82 33.9715 373.638 31.926 370.342 31.926Z" fill="white"/>
<path d="M370.115 45.1075C369.092 45.1075 367.956 44.8802 366.933 44.4257C363.979 43.1757 362.274 39.9939 362.729 36.9258C363.297 33.5167 366.138 31.3577 370.229 31.3577C373.751 31.3577 377.388 33.5167 377.388 38.403C377.388 40.5621 376.251 42.4939 374.32 43.8575C373.07 44.653 371.592 45.1075 370.115 45.1075ZM370.342 32.494C366.82 32.494 364.433 34.1985 363.979 37.0394C363.524 39.653 365.002 42.2666 367.502 43.2893C369.547 44.1984 371.933 43.9711 373.865 42.8348C375.456 41.8121 376.479 40.1076 376.479 38.403C376.251 34.0849 373.07 32.494 370.342 32.494Z" fill="black"/>
<path d="M359.207 68.289C359.547 64.1981 359.207 59.9937 360.002 56.0164C360.911 51.1301 363.638 46.812 367.275 45.1075C370.911 43.4029 375.229 44.6529 377.729 48.4029C379.774 51.5847 380.456 55.9028 380.684 59.9937C380.797 62.7209 380.911 65.4481 380.911 68.0617L359.207 68.289Z" fill="black"/>
<path d="M335.57 34.7668C331.82 34.7668 329.434 36.6986 328.979 39.4259C328.525 41.9258 330.002 44.6531 332.616 45.7894C336.934 47.6076 341.82 44.7667 341.82 40.7895C341.82 36.6986 338.752 34.7668 335.57 34.7668Z" fill="white"/>
<path d="M335.343 46.9257C334.32 46.9257 333.298 46.6984 332.275 46.2439C329.434 44.9939 327.843 42.153 328.298 39.1985C328.866 36.0168 331.593 34.085 335.457 34.085C338.866 34.085 342.275 36.1304 342.275 40.6758C342.275 42.6076 341.252 44.4257 339.434 45.6757C338.298 46.4712 336.82 46.9257 335.343 46.9257ZM335.57 35.3349C332.275 35.3349 330.002 36.9258 329.548 39.5394C329.093 41.9258 330.571 44.3121 332.843 45.3348C334.775 46.2439 337.161 46.0166 338.98 44.7666C340.457 43.7439 341.252 42.3803 341.252 40.7894C341.252 36.8122 338.184 35.3349 335.57 35.3349Z" fill="black"/>
<path d="M325.002 67.7209C325.343 64.0846 325.002 60.3347 325.684 56.812C326.593 52.4938 329.207 48.6303 332.616 47.153C336.025 45.6757 340.229 46.8121 342.616 50.1075C344.661 52.9484 345.229 56.812 345.456 60.5619C345.57 62.9483 345.684 65.4482 345.684 67.8346L325.002 67.7209Z" fill="white"/>
<path d="M345.684 68.2894H325.002C324.889 68.2894 324.661 68.1758 324.548 68.0621C324.434 67.9485 324.434 67.8349 324.434 67.6076C324.548 66.244 324.548 64.8804 324.661 63.5167C324.661 61.244 324.775 58.8577 325.23 56.585C326.252 51.926 328.979 47.9487 332.502 46.4715C336.252 44.767 340.684 46.1306 343.184 49.6533C345.343 52.7214 345.911 57.0395 346.138 60.335C346.252 62.7213 346.366 65.2213 346.366 67.6076C346.366 67.7212 346.252 67.9485 346.252 68.0621C346.025 68.1758 345.797 68.2894 345.684 68.2894ZM325.57 67.1531H345.116C345.116 64.994 345.002 62.7213 344.888 60.4486C344.661 57.2668 344.207 53.176 342.161 50.3351C340.002 47.2669 336.139 46.1306 332.843 47.4942C329.775 48.8578 327.161 52.4941 326.252 56.8123C325.798 58.9713 325.798 61.244 325.684 63.5167C325.684 64.7667 325.684 65.9031 325.57 67.1531Z" fill="black"/>
<path d="M353.638 43.5168C350.57 43.5168 348.638 45.1077 348.184 47.4941C347.843 49.6531 348.979 51.9258 351.138 52.9485C354.661 54.5394 358.638 52.1531 358.638 48.6304C358.638 45.1077 356.138 43.5168 353.638 43.5168Z" fill="white"/>
<path d="M353.411 53.9713C352.502 53.9713 351.706 53.744 350.911 53.4031C348.638 52.3804 347.161 49.8805 347.616 47.3805C348.07 44.6532 350.343 42.9487 353.638 42.9487C356.479 42.9487 359.32 44.6533 359.32 48.6305C359.32 50.335 358.411 52.0395 356.82 52.9486C355.797 53.6304 354.661 53.9713 353.411 53.9713ZM353.638 44.0851C350.911 44.0851 349.093 45.3351 348.752 47.6078C348.411 49.5396 349.547 51.585 351.366 52.3804C352.956 53.0622 354.661 52.9486 356.138 52.0395C357.388 51.2441 358.07 49.9941 358.07 48.6305C358.07 45.3351 355.684 44.0851 353.638 44.0851Z" fill="black"/>
<path d="M344.661 67.721C344.888 65.2211 344.661 62.7211 345.229 60.3348C346.025 57.3803 348.184 54.8803 351.138 53.8576C354.093 52.8349 357.616 53.6303 359.547 55.903C361.252 57.8348 361.706 60.4484 361.934 62.8347C362.047 64.4256 362.047 66.1301 362.161 67.721H344.661Z" fill="#FFD42E"/>
<path d="M362.161 68.2892H344.661C344.547 68.2892 344.32 68.1756 344.206 68.0619C344.093 67.9483 344.093 67.8347 344.093 67.6074C344.206 66.6983 344.206 65.7892 344.206 64.8802C344.206 63.2893 344.32 61.6984 344.661 60.2211C345.456 57.0394 347.843 54.3121 350.911 53.2894C354.093 52.1531 357.843 53.0621 360.002 55.4485C361.933 57.6075 362.388 60.4484 362.615 62.7211C362.729 64.312 362.843 66.0165 362.843 67.6074C362.843 67.721 362.843 67.9483 362.729 68.0619C362.502 68.1756 362.274 68.2892 362.161 68.2892ZM345.229 67.1529H361.593C361.593 65.7892 361.479 64.312 361.365 62.9484C361.138 60.7893 360.797 58.1757 359.093 56.2439C357.274 54.1985 354.093 53.403 351.252 54.4257C348.638 55.3348 346.479 57.7212 345.797 60.562C345.456 62.0393 345.343 63.4029 345.343 64.9938C345.343 65.6756 345.343 66.3574 345.229 67.1529Z" fill="black"/>
<path d="M328.184 65.9029C328.07 65.9029 327.956 65.7893 327.956 65.6756C327.843 63.8575 327.843 62.0393 328.07 60.2212C328.07 60.1075 328.184 59.9939 328.297 59.9939C328.411 59.9939 328.525 60.1075 328.525 60.2212C328.297 62.0393 328.297 63.8575 328.411 65.562C328.411 65.7893 328.297 65.9029 328.184 65.9029Z" fill="black"/>
<path d="M330.911 65.9025C330.798 65.9025 330.684 65.7889 330.684 65.6753L330.57 63.4026C330.57 63.2889 330.684 63.1753 330.798 63.1753C330.911 63.1753 331.025 63.2889 331.025 63.4026L331.138 65.6753C331.138 65.7889 331.025 65.9025 330.911 65.9025Z" fill="black"/>
<path d="M378.07 65.5622C377.956 65.5622 377.842 65.4485 377.842 65.3349L377.729 60.5622C377.729 60.4486 377.842 60.335 377.956 60.335C378.07 60.335 378.183 60.4486 378.183 60.5622L378.297 65.3349C378.183 65.4485 378.183 65.5622 378.07 65.5622Z" fill="black"/>
</g>
<defs>
<clipPath id="clip0_37_217">
<rect width="100" height="87" rx="20" fill="white"/>
</clipPath>
<clipPath id="clip1_37_217">
<rect x="100" width="100" height="87" rx="20" fill="white"/>
</clipPath>
<clipPath id="clip2_37_217">
<rect x="200" width="100" height="87" rx="20" fill="white"/>
</clipPath>
<clipPath id="clip3_37_217">
<rect x="300" width="100" height="87" rx="20" fill="white"/>
</clipPath>
</defs>
</svg>
