<svg width="200" height="50" viewBox="0 0 200 50" fill="none" xmlns="http://www.w3.org/2000/svg">
<path fill-rule="evenodd" clip-rule="evenodd" d="M5.6031 25.2212C5.1322 19.197 7.9105 6.28584 23.8582 5.58276C39.5077 4.89565 45.2527 18.8774 44.3423 26.9948C43.4633 34.8087 37.3416 43.7091 24.7372 43.8369C12.1329 43.9487 6.29375 34.0576 5.6031 25.2212Z" fill="#FAA51C"/>
<path d="M24.517 44.3961C12.1167 44.3961 5.80671 34.8086 5.05327 25.2691C4.73934 21.3222 5.75961 15.5537 9.54249 11.1914C12.8545 7.37238 17.6733 5.29509 23.8421 5.02344C30.1835 4.7518 35.5831 6.84507 39.4759 11.0796C43.918 15.9372 45.4092 22.6165 44.9069 27.0587C44.4046 31.469 42.4268 35.6076 39.3346 38.7075C35.6616 42.3828 30.623 44.3482 24.7525 44.3961C24.6583 44.3961 24.5798 44.3961 24.517 44.3961ZM6.15203 25.1732C6.87407 34.2494 12.8859 43.3735 24.7211 43.2616C36.6191 43.1497 42.8664 34.9844 43.7768 26.9309C44.2477 22.7443 42.8507 16.4486 38.644 11.8625C34.9867 7.86774 29.8853 5.9023 23.8735 6.15796C18.0186 6.41363 13.4666 8.36309 10.3587 11.9424C6.81129 16.0491 5.8538 21.466 6.15203 25.1732Z" fill="black"/>
<path d="M25.8165 41.3816C25.7537 41.3816 25.7066 41.3816 25.6438 41.3816C24.0271 41.3271 22.6615 40.7 21.5627 39.5004C18.3135 35.9289 18.6118 28.5404 18.6275 28.2405C18.6432 27.9406 18.8786 27.6952 19.1768 27.6952L30.7923 27.4498H30.808C31.0905 27.4498 31.326 27.6679 31.3574 27.9406C31.4045 28.295 32.4405 36.3378 29.3796 39.8276C28.4378 40.8364 27.2449 41.3816 25.8165 41.3816ZM19.7262 28.7858C19.7262 30.5034 19.9146 35.9834 22.3789 38.7098C23.2736 39.6913 24.3567 40.182 25.6752 40.2366C26.8525 40.2638 27.7943 39.8821 28.532 39.037C30.8551 36.4196 30.4627 30.3671 30.29 28.5676L19.7262 28.7858Z" fill="black"/>
<path fill-rule="evenodd" clip-rule="evenodd" d="M16.5814 26.7816C16.5814 26.7816 4.09413 20.1713 8.2863 15.94C11.4795 12.7256 14.6905 17.7923 14.6905 17.7923C14.6905 17.7923 15.5289 11.4181 19.9352 13.3612C24.9836 15.5586 16.5814 26.7816 16.5814 26.7816Z" fill="black"/>
<path fill-rule="evenodd" clip-rule="evenodd" d="M32.482 26.7816C32.482 26.7816 44.9694 20.1713 40.7772 15.94C37.584 12.7256 34.373 17.7923 34.373 17.7923C34.373 17.7923 33.5345 11.4181 29.1283 13.3612C24.062 15.5586 32.482 26.7816 32.482 26.7816Z" fill="black"/>
<path fill-rule="evenodd" clip-rule="evenodd" d="M55.6036 24.8635C55.1327 18.9459 57.911 6.26309 73.8587 5.57244C89.5082 4.89749 95.2532 18.632 94.3428 26.6059C93.4638 34.2815 87.3421 43.0245 74.7377 43.1501C62.1334 43.2599 56.3099 33.5281 55.6036 24.8635Z" fill="#FAA51C"/>
<path d="M74.517 43.6994C62.1167 43.6994 55.8067 34.2815 55.0533 24.9106C54.7393 21.0336 55.7596 15.3671 59.5425 11.0819C62.8545 7.33043 67.6733 5.28987 73.8421 5.02303C80.1835 4.75619 85.5988 6.81244 89.4759 10.972C93.918 15.7438 95.4092 22.305 94.9069 26.6686C94.4046 31.0009 92.4268 35.0663 89.3346 38.1114C85.6616 41.7217 80.623 43.6523 74.7525 43.6994C74.674 43.6994 74.5955 43.6994 74.517 43.6994ZM56.1677 24.8164C56.8898 33.7321 62.9016 42.6948 74.7368 42.585C86.6348 42.4751 92.8821 34.4541 93.7925 26.5431C94.2634 22.4305 92.8663 16.2461 88.6597 11.7412C85.0024 7.81702 79.901 5.88634 73.8892 6.13749C68.0343 6.38863 63.4823 8.30362 60.3744 11.8197C56.827 15.838 55.8695 21.1748 56.1677 24.8164Z" fill="black"/>
<path fill-rule="evenodd" clip-rule="evenodd" d="M63.8343 19.8653C63.74 18.2494 64.2964 14.7861 67.4902 14.5976C70.6242 14.4132 71.7747 18.1637 71.5924 20.3411C71.4163 22.4371 70.1904 24.8245 67.6662 24.8588C65.142 24.8888 63.9726 22.2313 63.8343 19.8653Z" fill="black"/>
<path fill-rule="evenodd" clip-rule="evenodd" d="M78.8209 19.395C78.8716 17.7542 79.7091 14.2676 82.7944 14.2028C85.8218 14.1401 86.5993 17.9851 86.2337 20.1838C85.8812 22.3002 84.4945 24.6704 82.0661 24.6053C79.6354 24.5314 78.7469 21.7974 78.8209 19.395Z" fill="black"/>
<path fill-rule="evenodd" clip-rule="evenodd" d="M67.0402 15.2414C67.3879 17.8031 67.1489 19.5771 65.8762 20.0779C67.5359 20.2771 67.9838 22.2806 68.4795 24.5942C68.2794 22.3864 68.2617 20.6081 69.6435 19.7577C68.3107 19.112 67.501 17.4794 67.0402 15.2414Z" fill="#FAA51C"/>
<path fill-rule="evenodd" clip-rule="evenodd" d="M82.2328 14.9392C82.3803 17.4907 81.9809 19.236 80.6083 19.6747C82.3264 19.9463 82.6258 21.9497 82.9489 24.2621C82.9258 22.0676 83.0572 20.3065 84.5734 19.5267C83.2326 18.8019 82.5499 17.1744 82.2328 14.9392Z" fill="#FAA51C"/>
<path d="M75.8733 38.8675C75.8238 38.8655 75.7991 38.8645 75.7496 38.8626C65.9389 38.9905 65.3114 28.8273 65.2955 28.7224C65.284 28.5656 65.3489 28.3857 65.4588 28.2598C65.5687 28.1339 65.7236 28.0619 65.8967 28.0689C65.9709 28.0718 72.231 28.2707 76.7685 28.0095C82.2814 27.6571 86.3096 26.6719 86.3344 26.6729C86.5118 26.6279 86.6827 26.6608 86.7953 26.7956C86.9349 26.9054 86.9937 27.0902 86.9783 27.272C86.9942 27.3769 85.9154 38.6446 75.8733 38.8675ZM66.4653 29.2645C66.7568 31.3872 68.272 37.807 75.797 37.7177C79.6224 37.6626 82.476 35.9005 84.2814 32.4545C85.1998 30.693 85.6236 28.9118 85.7792 27.9537C84.3391 28.2608 80.9867 28.8823 76.7706 29.1563C73.0781 29.3992 68.223 29.3089 66.4653 29.2645Z" fill="black"/>
<path fill-rule="evenodd" clip-rule="evenodd" d="M105.618 24.8634C105.147 18.9458 107.926 6.26297 123.873 5.57232C139.523 4.89736 145.268 18.6319 144.357 26.6057C143.478 34.2814 137.357 43.0244 124.752 43.15C112.132 43.2598 106.309 33.5279 105.618 24.8634Z" fill="#FAA51C"/>
<path d="M124.517 43.6994C112.117 43.6994 105.807 34.2815 105.053 24.9106C104.739 21.0336 105.76 15.3671 109.542 11.0819C112.854 7.33043 117.673 5.28987 123.842 5.02303C130.184 4.75619 135.583 6.81244 139.476 10.972C143.918 15.7438 145.409 22.305 144.907 26.6686C144.405 31.0009 142.427 35.0663 139.335 38.1114C135.662 41.7217 130.623 43.6523 124.752 43.6994C124.674 43.6994 124.596 43.6994 124.517 43.6994ZM106.168 24.8164C106.89 33.685 112.839 42.585 124.533 42.585C124.596 42.585 124.674 42.585 124.737 42.585C136.635 42.4751 142.882 34.4541 143.792 26.5431C144.263 22.4305 142.866 16.2461 138.66 11.7412C135.002 7.80133 129.901 5.87065 123.889 6.13749C118.034 6.38863 113.498 8.30362 110.39 11.8197C106.827 15.838 105.869 21.1748 106.168 24.8164Z" fill="black"/>
<path fill-rule="evenodd" clip-rule="evenodd" d="M115.029 22.9974C114.966 21.9137 115.339 19.591 117.481 19.4645C119.583 19.3409 120.354 21.8562 120.232 23.3165C120.114 24.7222 119.292 26.3234 117.599 26.3464C115.906 26.3665 115.124 24.5871 115.029 22.9974Z" fill="black"/>
<path fill-rule="evenodd" clip-rule="evenodd" d="M129.931 22.2908C129.868 21.2071 130.241 18.8844 132.383 18.7579C134.484 18.6343 135.256 21.1496 135.134 22.6099C135.016 24.0156 134.194 25.6168 132.501 25.6397C130.806 25.6599 130.024 23.8776 129.931 22.2908Z" fill="black"/>
<path d="M125.773 34.7683C120.217 34.7683 119.699 29.5257 119.683 29.4629C119.652 29.149 119.887 28.8821 120.185 28.8664C120.499 28.835 120.766 29.0705 120.782 29.3687C120.797 29.5571 121.268 33.8893 126.166 33.6382C127.657 33.5597 128.803 33.0731 129.572 32.1941C130.89 30.7029 130.749 28.5211 130.749 28.5054C130.733 28.1915 130.953 27.9246 131.267 27.9089C131.581 27.8775 131.848 28.113 131.864 28.4269C131.879 28.5368 132.052 31.0796 130.419 32.9318C129.431 34.0463 128.018 34.6585 126.228 34.7527C126.087 34.7683 125.93 34.7683 125.773 34.7683Z" fill="black"/>
<path fill-rule="evenodd" clip-rule="evenodd" d="M158.259 24.2689C158.716 18.5189 162.949 6.32696 176.752 6.21259C190.296 6.10304 193.233 19.6105 191.29 27.3048C189.417 34.7112 182.885 42.9695 172.037 42.6527C161.192 42.3206 157.602 32.7039 158.259 24.2689Z" fill="#FAA51C"/>
<path d="M173.547 43.1726C173.014 43.1969 172.483 43.2061 171.957 43.1848C161.166 42.8549 157.055 33.462 157.781 24.2956C158.075 20.5282 159.777 15.0735 163.65 11.0532C167.042 7.53358 171.479 5.72412 176.818 5.68018C182.308 5.62704 186.645 7.82239 189.384 11.988C192.506 16.7659 192.832 23.1749 191.766 27.3854C190.704 31.5654 188.413 35.4356 185.313 38.2784C182.012 41.2815 177.973 42.9693 173.547 43.1726ZM158.738 24.2426C158.061 32.906 161.922 41.7992 172.106 42.1044C182.358 42.4124 188.879 34.8577 190.813 27.2244C191.816 23.2562 191.516 17.2155 188.558 12.7043C185.986 8.77497 181.885 6.72688 176.683 6.76107C171.616 6.80073 167.426 8.49779 164.244 11.7963C160.612 15.5663 159.026 20.7044 158.738 24.2426Z" fill="black"/>
<path d="M169.351 17.4197C169.315 17.4246 169.281 17.4062 169.245 17.4111C168.979 17.3477 168.788 17.0744 168.798 16.8044C168.772 16.5393 168.342 15.2623 167.548 14.5416C167.162 14.1951 166.762 14.0349 166.321 14.0797C165.297 14.1656 164.7 15.4214 164.656 16.5478C164.645 16.8411 164.393 17.0289 164.125 16.9888C163.833 16.9442 163.618 16.6664 163.628 16.3964C163.694 14.837 164.583 13.1883 166.143 13.0524C166.964 12.9865 167.764 13.3302 168.439 14.0517C169.364 15.0462 169.902 16.5923 169.829 17.0628C169.8 17.2817 169.586 17.4414 169.351 17.4197Z" fill="black"/>
<path d="M166.95 25.2295C163.587 25.417 163.733 22.494 163.737 22.4764C163.75 22.1673 163.991 21.9098 164.272 21.8776C164.534 21.8608 164.754 22.0757 164.742 22.3848C164.725 22.5835 164.73 24.2484 167.031 24.1258C167.734 24.0818 169.225 23.3294 169.493 21.7957C169.551 21.4934 169.819 21.258 170.092 21.2611C170.361 21.2819 170.537 21.5453 170.493 21.8498C170.136 23.9374 168.208 25.1565 166.95 25.2295Z" fill="black"/>
<path d="M181.634 25.1881C179.035 25.0428 178.043 23.0247 177.875 21.9227C177.827 21.6207 178.015 21.3632 178.287 21.3492C178.559 21.3352 178.819 21.5758 178.867 21.8778C178.9 22.1092 179.294 24.0531 181.738 24.072C182.32 24.0756 183.382 23.8235 183.761 22.0235C183.827 21.7261 184.089 21.5866 184.371 21.6981C184.637 21.8114 184.815 22.1162 184.748 22.4135C184.199 24.9394 182.543 25.2074 181.863 25.1973C181.78 25.189 181.697 25.1806 181.634 25.1881Z" fill="black"/>
<path d="M184.414 18.2358C184.179 18.2394 183.979 18.0896 183.918 17.8672C183.366 15.9008 182.465 14.7625 181.478 14.8246C180.562 14.8856 179.722 16.0034 179.496 17.5115C179.451 17.7943 179.182 17.9982 178.899 17.9555C178.617 17.9128 178.415 17.6455 178.461 17.3627C178.778 15.3595 179.991 13.8834 181.413 13.8029C182.13 13.7567 183.93 14.0231 184.904 17.5935C184.976 17.8746 184.814 18.1592 184.532 18.234C184.508 18.2343 184.461 18.2351 184.414 18.2358Z" fill="black"/>
<path d="M175.168 39.8277C172.26 39.8277 169.949 38.8803 168.271 37.0021C165.478 33.8774 165.428 29.1737 165.561 28.0767C165.595 27.8274 165.811 27.6279 166.06 27.6279L183.213 27.0129C183.479 26.9963 183.711 27.1958 183.745 27.4617C183.778 27.711 184.592 33.6115 181.534 37.2016C180.088 38.8969 178.01 39.7778 175.384 39.8277C175.301 39.8277 175.235 39.8277 175.168 39.8277ZM166.559 28.6584C166.509 30.1044 166.808 33.8275 169.035 36.3207C170.531 37.9994 172.659 38.8305 175.351 38.7972C177.678 38.764 179.473 37.9994 180.72 36.5368C183.013 33.8442 182.864 29.5061 182.747 28.0933L166.559 28.6584Z" fill="black"/>
</svg>
