<svg width="263" height="169" viewBox="0 0 263 169" fill="none" xmlns="http://www.w3.org/2000/svg">
<g clip-path="url(#clip0_587_1297)">
<path d="M99.7 42.5C99.4 42.5 99.2 42.3 99.2 42.1C99.2 41.8 99.4 41.6 99.6 41.5C100.9 41.3 102.2 41 103.4 40.5C103.7 40.4 104 40.5 104.1 40.8C104.2 41.1 104.1 41.4 103.8 41.5C102.6 42 101.2 42.3 99.7 42.5C99.8 42.5 99.8 42.5 99.7 42.5ZM95.7 42.5C94.2 42.3 92.9 42 91.6 41.4C91.3 41.3 91.2 41 91.3 40.7C91.4 40.4 91.7 40.3 92 40.4C93.2 40.9 94.5 41.2 95.8 41.4C96.1 41.4 96.3 41.7 96.2 42C96.2 42.3 96 42.5 95.7 42.5ZM107.2 39.5C107 39.5 106.9 39.4 106.8 39.3C106.6 39.1 106.7 38.8 106.9 38.6C107.9 37.8 108.9 36.9 109.7 35.8C109.9 35.6 110.2 35.5 110.4 35.7C110.6 35.9 110.7 36.2 110.5 36.4C109.7 37.5 108.7 38.5 107.5 39.3C107.4 39.4 107.3 39.5 107.2 39.5ZM88.3 39.4C88.2 39.4 88.1 39.4 88 39.3C86.9 38.4 85.9 37.4 85.1 36.3C84.9 36.1 85 35.8 85.2 35.6C85.4 35.4 85.7 35.5 85.9 35.7C86.7 36.7 87.6 37.7 88.7 38.5C88.9 38.7 89 39 88.8 39.2C88.6 39.4 88.5 39.4 88.3 39.4ZM112 33.1C111.9 33.1 111.9 33.1 111.8 33.1C111.5 33 111.4 32.7 111.5 32.4C112 31.2 112.3 29.9 112.4 28.6C112.4 28.3 112.7 28.1 113 28.1C113.3 28.1 113.5 28.4 113.5 28.7C113.4 30.1 113 31.5 112.5 32.8C112.4 33 112.2 33.1 112 33.1ZM83.5 33C83.3 33 83.1 32.9 83 32.7C82.5 31.4 82.2 30 82 28.6C82 28.3 82.2 28.1 82.5 28.1C82.8 28.1 83 28.3 83 28.6C83.1 29.9 83.4 31.2 83.9 32.4C84 32.7 83.9 33 83.6 33.1C83.6 33 83.5 33 83.5 33ZM82.5 27.8C82.2 27.8 82 27.6 82 27.3C82 25.9 82.2 24.5 82.6 23.2C82.7 22.9 83 22.8 83.2 22.9C83.5 23 83.6 23.3 83.5 23.5C83.1 24.7 83 26 83 27.4C83 27.6 82.8 27.8 82.5 27.8ZM112.8 25.2C112.6 25.2 112.3 25 112.3 24.8C112.1 23.5 111.6 22.3 111.1 21.1C111 20.9 111.1 20.5 111.3 20.4C111.5 20.3 111.9 20.4 112 20.6C112.6 21.9 113.1 23.2 113.3 24.6C113.3 24.8 113.2 25.1 112.8 25.2ZM84.7 20.1C84.6 20.1 84.5 20.1 84.4 20C84.2 19.9 84.1 19.5 84.2 19.3C84.9 18.1 85.8 17 86.9 16.1C87.1 15.9 87.4 15.9 87.6 16.1C87.8 16.3 87.8 16.6 87.6 16.8C86.6 17.7 85.8 18.7 85.1 19.8C85.1 20.1 84.9 20.1 84.7 20.1ZM109.2 18C109.1 18 108.9 17.9 108.8 17.8C107.9 16.8 106.9 16 105.8 15.3C105.6 15.2 105.5 14.8 105.6 14.6C105.8 14.4 106.1 14.3 106.3 14.4C107.5 15.2 108.6 16.1 109.5 17.1C109.7 17.3 109.7 17.6 109.5 17.8C109.4 18 109.3 18 109.2 18ZM90.6 14.7C90.4 14.7 90.2 14.6 90.1 14.4C90 14.2 90.1 13.8 90.3 13.7C91.5 13.1 92.9 12.6 94.2 12.3C94.5 12.2 94.7 12.4 94.8 12.7C94.9 13 94.7 13.2 94.4 13.3C93.1 13.6 91.9 14 90.7 14.6C90.8 14.7 90.7 14.7 90.6 14.7ZM102.4 13.7C102.4 13.7 102.3 13.7 102.2 13.7C101 13.3 99.7 13.1 98.3 13C98 13 97.8 12.8 97.8 12.5C97.8 12.2 98 12 98.3 12C99.7 12.1 101.1 12.3 102.4 12.7C102.7 12.8 102.8 13.1 102.7 13.3C102.9 13.6 102.7 13.7 102.4 13.7Z" fill="white"/>
<path d="M9.00388 124.255C8.40155 124.255 8 123.853 8 123.251C8 122.648 8.40155 122.247 9.00388 122.247L32.6953 121.645C33.2976 121.645 33.6992 122.046 33.6992 122.648C33.6992 123.251 33.2976 123.652 32.6953 123.652L9.00388 124.255Z" fill="white"/>
<path d="M21.2507 135.9C20.6484 135.9 20.2468 135.498 20.2468 134.896L19.6445 111.004C19.6445 110.402 20.0461 110 20.6484 110C21.2507 110 21.6523 110.402 21.6523 111.004L22.2546 134.896C22.2546 135.298 21.853 135.9 21.2507 135.9Z" fill="white"/>
<path d="M198.127 200.829C197.676 200.829 197.226 200.604 197.001 199.929C194.524 192.047 189.12 184.842 181.914 179.888C172.907 174.709 152.416 160.523 145.886 151.516C145.436 151.065 145.661 150.39 146.111 149.94C146.562 149.489 147.237 149.714 147.688 150.165C153.992 158.496 173.808 172.457 183.265 177.861C190.021 182.59 195.2 189.12 198.352 196.326C202.18 187.544 206.684 184.842 214.114 179.888C216.591 178.312 219.293 176.51 222.671 174.033C223.572 173.358 224.698 172.682 225.823 171.782C241.586 160.973 267.931 142.959 271.084 52.2134C249.917 47.0344 220.644 37.577 199.028 21.5895C191.597 27.4441 165.927 42.3057 159.622 45.9085C159.171 46.1337 158.271 46.1337 158.046 45.4581C157.82 45.0078 157.82 44.1071 158.496 43.8819C164.801 40.2791 192.047 24.5168 198.127 19.3378C198.577 18.8874 199.028 18.8874 199.478 19.3378C221.32 35.7756 251.043 45.233 272.21 50.412C272.66 50.6372 273.11 51.0875 273.11 51.5379C271.759 92.2946 265.679 122.243 254.871 143.409C245.639 161.198 234.83 168.629 226.949 174.033C225.823 174.709 224.923 175.61 223.797 176.285C220.419 178.762 217.717 180.563 215.24 182.14C206.909 187.544 203.081 190.021 199.253 200.379C199.028 200.379 198.802 200.829 198.127 200.829Z" fill="black"/>
<path d="M198.129 178.311C197.904 178.311 197.904 178.311 197.904 178.085C196.778 176.509 190.473 172.231 183.943 167.727C176.287 162.323 167.505 156.469 165.028 153.541C164.803 153.316 164.803 153.091 165.028 153.091C165.253 152.866 165.479 152.866 165.479 153.091C167.956 156.018 176.512 161.873 184.393 167.052C190.923 171.555 196.553 175.383 198.354 177.185C202.407 172.906 205.56 170.88 212.315 166.827C214.117 165.701 215.918 164.575 218.17 163.224C248.568 144.084 255.774 113.46 259.152 59.8682C232.806 53.5633 213.216 45.2318 199.48 34.8737C196.328 37.801 189.122 41.629 184.619 43.8807C183.267 44.5563 182.367 45.0066 181.691 45.457C181.466 45.457 181.241 45.457 181.241 45.2318C181.241 45.0066 181.241 44.7814 181.466 44.7814C182.142 44.3311 183.042 43.8807 184.393 43.2052C188.897 40.9534 196.328 36.9003 199.255 34.1982C199.48 33.973 199.705 33.973 199.705 34.1982C213.441 44.7814 233.031 52.8878 259.602 59.1927C259.827 59.1927 259.827 59.4178 259.827 59.643C258.476 81.7102 256.224 104.903 249.694 123.593C243.389 141.607 233.482 154.442 218.395 163.899C216.143 165.25 214.117 166.601 212.54 167.502C205.56 171.78 202.407 173.807 198.354 178.085C198.354 178.311 198.354 178.311 198.129 178.311Z" fill="black"/>
<path d="M175.649 125.713L200.854 139.873C201.207 140.052 201.315 140.42 201.124 140.794C200.932 141.167 200.569 141.297 200.216 141.118L175.011 126.958C174.658 126.78 174.55 126.412 174.741 126.038C174.933 125.665 175.296 125.535 175.649 125.713Z" fill="black"/>
<path d="M200.739 120.452C200.972 120.568 201.024 120.749 201.077 120.929C201.183 121.289 200.876 121.598 200.517 121.726C195.165 122.44 189.782 122.37 184.43 121.392C184.017 121.34 183.912 120.98 183.986 120.555C184.06 120.131 184.419 120.003 184.832 120.055C189.887 121.038 195.271 121.109 200.443 120.458C200.443 120.458 200.623 120.394 200.739 120.452Z" fill="black"/>
<path d="M176.501 135.898C176.617 135.956 176.617 135.956 176.733 136.014C179.043 139.157 181.173 142.365 182.997 145.88C183.103 146.239 183.029 146.662 182.67 146.79C182.311 146.918 181.9 146.866 181.794 146.507C180.023 143.172 177.956 139.842 175.699 136.878C175.414 136.583 175.488 136.16 175.91 135.911C175.973 135.789 176.269 135.783 176.501 135.898Z" fill="black"/>
<path d="M101.864 85.1385L85.6264 148.444L96.5382 154.815L156.53 47.2443L146.623 41.6773L101.864 85.1385Z" fill="white"/>
<path d="M146.945 41.0717L156.856 46.6398C157.194 46.8095 157.297 47.1607 157.113 47.5176L97.207 155.167C97.1455 155.286 96.9096 155.467 96.7353 155.529C96.5609 155.592 96.4481 155.535 96.2223 155.422L85.1929 148.994C84.9672 148.881 84.8645 148.529 84.8746 148.235L101.232 84.9727C101.294 84.8538 101.355 84.7348 101.417 84.6158L146.083 41.0892C146.432 40.9644 146.606 40.902 146.945 41.0717ZM155.564 47.4902L146.668 42.4313L102.423 85.4195L86.3722 148.087L96.4474 153.887L155.564 47.4902Z" fill="black"/>
<path d="M145.495 110.344L145.79 139.299L158.267 137.374L160.45 118.552L175.298 107.1L170.002 96.3151L145.495 110.344Z" fill="white"/>
<path d="M170.319 95.7115C170.433 95.7683 170.547 95.8252 170.598 96.0018L175.959 106.67C176.125 106.903 176.052 107.32 175.813 107.503L161.196 118.776L159.023 137.308C159.013 137.604 158.712 137.907 158.422 137.913L146 139.72C145.824 139.783 145.596 139.669 145.482 139.612C145.368 139.556 145.202 139.322 145.265 139.202L144.907 110.356C144.917 110.06 145.042 109.82 145.218 109.757L169.738 95.724C169.915 95.661 170.029 95.7178 170.319 95.7115ZM174.497 106.998L169.737 97.3829L146.109 110.805L146.395 138.408L157.593 136.746L159.755 118.511C159.704 118.334 159.942 118.151 160.005 118.032L174.497 106.998Z" fill="black"/>
<path d="M164.958 122.871C162.435 125.185 158.548 125.569 155.183 124.658C151.284 123.635 152.275 124.288 113.096 105.868C100.484 100.005 77.7004 91.8374 72.535 72.1212C72.2682 71.209 72.0653 70.1732 72.6293 69.3666C73.0122 68.6248 73.9173 68.3007 74.6413 68.0415C90.3142 62.8323 104.953 73.916 119.079 82.5631C135.484 92.5102 149.622 102.564 161.213 110.406C169.022 115.571 166.554 121.493 164.958 122.871Z" fill="white"/>
<path d="M101.238 71.1308C105.689 73.3645 110.12 76.2101 114.497 78.8732C116.191 79.8785 117.82 81.0074 119.514 82.0126C132.124 89.5847 143.36 97.2455 153.138 104.019C156.109 105.976 158.9 107.999 161.52 109.78C166.121 112.867 167.145 116.026 167.189 118.226C167.286 120.608 166.329 122.461 165.286 123.338C162.764 125.651 158.867 126.341 154.97 125.319L154.438 125.207C151.073 124.297 150.008 124.074 112.895 106.54C111.606 105.893 110.019 105.253 108.496 104.488C95.8237 98.7517 76.6336 90.2115 72.0029 72.3301C71.6829 71.2361 71.5438 70.0773 72.2352 69.024C72.8629 68.0943 73.7677 67.7705 74.6724 67.4466C83.7736 64.3901 92.6862 66.8397 101.238 71.1308ZM99.9228 99.0972C103.086 100.684 106.195 102.089 109.071 103.376C110.657 104.017 112.18 104.781 113.469 105.428C150.529 122.779 151.53 123.126 154.895 124.036L155.427 124.148C158.143 124.888 161.837 124.875 164.54 122.497C165.093 121.997 165.976 120.573 165.986 118.556C165.931 116.661 165.014 113.867 160.818 111.139C158.198 109.358 155.343 107.459 152.436 105.378C142.594 98.7282 131.358 91.0674 118.812 83.3718C117.118 82.3665 115.425 81.3612 113.795 80.2324C101.43 72.472 88.4795 64.4177 74.9182 68.9701C74.1943 69.2292 73.5877 69.5471 73.2153 69.9825C72.8962 70.6003 73.0458 71.4532 73.2591 72.1826C76.7374 85.4407 88.7939 93.5129 99.9228 99.0972Z" fill="black"/>
<path d="M86.8965 86.831C82.5115 84.1943 83.4423 79.3645 84.932 76.7791C86.6093 73.8333 89.8441 72.8727 92.6824 73.2271C93.6076 73.3852 94.6472 73.6003 95.1455 74.3021C95.8206 74.9407 96.0689 76.1229 95.4026 76.8498C94.8507 77.6336 93.8004 77.7157 92.8537 78.1518C91.6676 78.7712 90.1475 80.5854 90.0421 81.894C89.9474 82.9055 90.694 84.7895 89.9545 85.9337C89.0792 87.6152 87.5824 87.1725 86.8965 86.831Z" fill="black"/>
<path d="M100.928 139.551C101.04 139.608 101.091 139.783 101.03 139.901L96.2077 148.488C96.147 148.607 95.9746 148.668 95.8628 148.612C95.7509 148.555 95.6998 148.38 95.7604 148.262L100.583 139.675C100.643 139.556 100.816 139.495 100.928 139.551Z" fill="black"/>
<path d="M94.389 142.476C94.5009 142.532 94.5521 142.707 94.4914 142.826L92.5473 146.615C92.4865 146.733 92.3138 146.795 92.2019 146.738C92.0899 146.682 92.0387 146.507 92.0995 146.389L94.0436 142.599C94.2163 142.537 94.389 142.476 94.389 142.476Z" fill="black"/>
<path d="M151.448 49.3473C151.56 49.4039 151.611 49.579 151.55 49.6975C149.994 51.899 148.49 54.2756 147.097 56.7088C147.036 56.8273 146.863 56.8894 146.751 56.8328C146.639 56.7763 146.588 56.6012 146.648 56.4826C148.041 54.0495 149.545 51.6729 151.101 49.4714C151.274 49.4094 151.448 49.3473 151.448 49.3473Z" fill="black"/>
</g>
<defs>
<clipPath id="clip0_587_1297">
<rect width="263" height="169" rx="20" fill="white"/>
</clipPath>
</defs>
</svg>
