<svg width="22" height="23" viewBox="0 0 22 23" fill="none" xmlns="http://www.w3.org/2000/svg">
<path d="M19.5938 0.28125H2.40625C1.1123 0.28125 0.0625 1.33105 0.0625 2.625V19.8125C0.0625 21.1064 1.1123 22.1562 2.40625 22.1562H19.5938C20.8877 22.1562 21.9375 21.1064 21.9375 19.8125V2.625C21.9375 1.33105 20.8877 0.28125 19.5938 0.28125ZM17.2061 8.03516C17.2158 8.17188 17.2158 8.31348 17.2158 8.4502C17.2158 12.6836 13.9932 17.5615 8.10449 17.5615C6.28809 17.5615 4.60352 17.0342 3.1875 16.126C3.44629 16.1553 3.69531 16.165 3.95898 16.165C5.45801 16.165 6.83496 15.6572 7.93359 14.7979C6.52734 14.7686 5.3457 13.8457 4.94043 12.5762C5.43359 12.6494 5.87793 12.6494 6.38574 12.5176C4.9209 12.2197 3.82227 10.9307 3.82227 9.37305V9.33398C4.24707 9.57324 4.74512 9.71973 5.26758 9.73926C4.82833 9.44709 4.46825 9.05072 4.21947 8.58552C3.97068 8.12033 3.84093 7.60078 3.8418 7.07324C3.8418 6.47754 3.99805 5.93066 4.27637 5.45703C5.85352 7.40039 8.22168 8.66992 10.8779 8.80664C10.4238 6.63379 12.0498 4.87109 14.0029 4.87109C14.9258 4.87109 15.7559 5.25684 16.3418 5.88184C17.0645 5.74512 17.7578 5.47656 18.373 5.11035C18.1338 5.85254 17.6309 6.47754 16.9668 6.87305C17.6113 6.80469 18.2363 6.62402 18.8125 6.375C18.3779 7.01465 17.8311 7.58105 17.2061 8.03516Z" fill="#F2F2F2"/>
</svg>
