<svg width="56" height="56" viewBox="0 0 56 56" fill="none" xmlns="http://www.w3.org/2000/svg">
<g clip-path="url(#clip0_639_2527)">
<rect width="56" height="56" rx="28" fill="#EEEDED"/>
<path d="M27.0297 21.3664C27.0297 21.3664 27.3837 18.8382 28.9259 19.1922C29.6338 19.3692 28.5214 20.7344 28.5214 20.7344L30.4933 19.9001C30.4933 19.9001 32.7434 19.1922 33.1985 19.3692C33.6536 19.5461 32.9457 20.3046 32.9457 20.3046C32.9457 20.3046 34.5385 19.7737 34.3362 20.5574C34.1339 21.3411 33.0468 21.8468 33.0468 21.8468C33.0468 21.8468 34.589 21.24 34.2856 22.1754C34.1087 22.6811 30.7209 24.9059 28.3949 24.9059C26.069 24.9059 26.7263 23.0603 26.7263 23.0603L27.0297 21.3664Z" fill="#B26756"/>
<path d="M32.1555 22.3776C32.1302 22.3776 32.1302 22.3776 32.105 22.3524L30.0318 20.709C30.0066 20.6838 29.9813 20.6332 30.0066 20.5826C30.0318 20.5573 30.0824 20.5321 30.133 20.5573L32.2061 22.2007C32.2314 22.226 32.2567 22.2765 32.2314 22.3271C32.2061 22.3524 32.1808 22.3776 32.1555 22.3776Z" fill="black"/>
<path d="M27.986 23.4876C27.9354 23.4876 27.9102 23.4623 27.9102 23.4117C27.9102 23.3611 27.9354 23.3106 27.986 23.3106C27.986 23.3106 28.5928 23.2347 28.8456 22.7544C29.0478 22.3499 28.972 21.7431 28.5675 21.0099C28.5422 20.9594 28.5675 20.9088 28.5928 20.8835C28.6433 20.8582 28.6939 20.8835 28.7192 20.9088C29.149 21.7178 29.2501 22.3499 28.9973 22.8302C28.6939 23.4117 28.0113 23.4876 27.986 23.4876Z" fill="black"/>
<path d="M29.7828 25.2322L27.8361 24.0439C27.5074 23.8417 27.4316 23.4372 27.6085 23.1085L30.8446 17.8751C31.0469 17.5465 31.4514 17.4706 31.7801 17.6476L33.7268 18.8358C34.0554 19.0381 34.1313 19.4426 33.9543 19.7713L30.7182 25.0046C30.516 25.3333 30.1114 25.4344 29.7828 25.2322Z" fill="#40507F"/>
<path d="M29.1734 24.8787L27.2267 23.6904C26.898 23.4881 26.8222 23.0836 26.9992 22.755L30.2352 17.5216C30.4375 17.193 30.842 17.1171 31.1707 17.2941L33.1174 18.4823C33.446 18.6846 33.5219 19.0891 33.3449 19.4178L30.1088 24.6511C29.9066 24.9545 29.5021 25.0556 29.1734 24.8787Z" fill="black"/>
<path d="M28.4012 23.4398C28.4012 23.642 28.5782 23.7937 28.7804 23.7937C28.9827 23.7937 29.1344 23.6167 29.1344 23.4145C29.1344 23.2122 28.9574 23.0605 28.7551 23.0605C28.5276 23.0605 28.3759 23.2375 28.4012 23.4398Z" fill="#40507F"/>
<path d="M28.5243 19.168C28.5243 19.168 30.5216 19.2944 30.1676 20.2298C29.9906 20.6596 28.5243 20.7354 28.5243 20.7354C28.5243 20.7354 28.8277 22.0248 27.9681 22.6063C27.1843 23.1372 26.9062 22.8086 26.9062 22.8086C26.9062 22.8086 27.2096 20.1034 28.5243 19.168Z" fill="#B26756"/>
<path d="M17.4223 34.9153C17.4223 34.9153 20.6584 41.4127 23.313 53.1688C25.74 63.863 26.2457 72.7117 26.2457 72.7117H15.8042C15.8042 72.7117 14.6413 63.9894 14.3379 60.5258C14.0345 57.0622 12.9979 52.4609 12.9979 52.4609C12.9979 52.4609 11.5569 72.383 11.2282 72.7117C10.8743 73.0404 0.887916 72.7875 0.989044 72.3325C1.09017 71.8774 4.14928 38.834 4.42738 36.6597C5.2364 29.9853 17.4223 34.9153 17.4223 34.9153Z" fill="#A37B90"/>
<path d="M12.9918 52.5652C12.9412 52.5652 12.8906 52.5146 12.8906 52.464C12.8906 52.4135 13.2193 48.1408 13.3204 46.2447C13.4215 44.3485 13.4215 43.4384 13.4215 43.4384C13.4215 43.4131 13.4468 43.3626 13.4721 43.3626L16.8599 41.7951C16.9105 41.7698 16.961 41.7951 16.9863 41.8456C17.0116 41.8962 16.9863 41.9468 16.9357 41.972L13.5985 43.5142C13.5985 43.7418 13.5732 44.6519 13.4974 46.27C13.3963 48.1661 13.0676 52.464 13.0676 52.5146C13.0676 52.5399 13.0423 52.5652 12.9918 52.5652Z" fill="#F7B369"/>
<path d="M13.779 19.316C13.779 19.316 14.1582 19.4172 14.2594 19.5436C14.3605 19.6953 14.3352 20.2515 14.3352 20.2515L17.2932 27.6844L18.1781 35.6987C18.1781 35.6987 16.3325 37.6707 11.5289 37.8982C6.72535 38.1258 4.17188 35.9263 4.17188 35.9263C4.17188 35.9263 6.11859 22.4763 7.30684 20.7318C7.83776 19.9481 10.0626 19.7458 10.0626 19.7458C10.0626 19.7458 10.1384 19.4677 10.2143 19.4172C10.6693 19.1138 13.779 19.316 13.779 19.316Z" fill="#F7B369"/>
<path d="M13.9102 14.666C13.9102 14.666 15.6799 13.9834 15.7557 15.3234C15.8569 16.8909 13.986 16.8403 13.986 16.8403L13.9102 14.666Z" fill="#B26756"/>
<path d="M14.7135 16.084C14.6883 16.084 14.6883 16.084 14.663 16.0587C14.6124 16.0334 14.6124 15.9829 14.6377 15.9323L15.2445 14.9716C15.2697 14.921 15.3203 14.921 15.3709 14.9463C15.4214 14.9716 15.4214 15.0221 15.3962 15.0727L14.7894 16.0334C14.7894 16.084 14.7641 16.084 14.7135 16.084Z" fill="black"/>
<path d="M15.3958 15.8057L14.8902 15.7804C14.8396 15.7804 14.7891 15.7298 14.7891 15.6793C14.7891 15.6287 14.8144 15.5781 14.8902 15.5781L15.3958 15.6034C15.4464 15.6034 15.497 15.654 15.497 15.7045C15.497 15.7804 15.4464 15.8057 15.3958 15.8057Z" fill="black"/>
<path d="M10.6501 18.2674L10.5742 20.0877C10.5742 20.0877 11.2568 20.4922 12.1417 20.5427C13.3299 20.5933 13.7597 19.9107 13.7597 19.9107L13.8356 17.7617L10.6501 18.2674Z" fill="#B26756"/>
<path d="M10.6406 18.2604C10.6406 18.2604 11.1463 19.752 12.5115 19.6004C13.5986 19.4739 13.9778 17.957 13.9778 17.957L10.6406 18.2604Z" fill="black"/>
<path d="M14.5173 13.2061C14.5173 13.2061 15.1746 16.5686 14.1633 18.0097C13.0762 19.5519 11.4581 19.021 10.8514 18.5406C10.0424 17.8833 9.89066 16.9732 9.89066 16.9732C9.89066 16.9732 8.7277 17.1501 8.39903 16.2147C8.0198 15.2287 8.77826 14.445 9.33447 14.4197C9.91595 14.3944 9.96651 14.4955 9.96651 14.4955L9.8401 13.4337C9.8401 13.4337 13.4554 9.69196 14.5173 13.2061Z" fill="#B26756"/>
<path d="M9.73897 15.9773C9.71369 15.9773 9.68841 15.9773 9.66313 15.952L8.80355 15.1682C8.75298 15.143 8.75298 15.0671 8.80355 15.0418C8.82883 14.9913 8.90468 14.9913 8.92996 15.0418L9.78954 15.8256C9.8401 15.8509 9.8401 15.9267 9.78954 15.952C9.78954 15.9773 9.76426 15.9773 9.73897 15.9773Z" fill="black"/>
<path d="M8.90105 16.1041C8.87576 16.1041 8.85048 16.0788 8.8252 16.0535C8.79992 16.0029 8.79991 15.9524 8.85048 15.9271L9.3814 15.5479C9.43196 15.5226 9.48253 15.5226 9.50781 15.5731C9.53309 15.6237 9.53309 15.6743 9.48253 15.6995L8.95161 16.0788C8.95161 16.0788 8.92633 16.1041 8.90105 16.1041Z" fill="black"/>
<path d="M11.4741 15.1178C11.4235 15.1178 11.3729 15.0673 11.3729 15.0167L11.3477 14.4605C11.3477 14.4099 11.3982 14.3594 11.4488 14.3594C11.4993 14.3594 11.5499 14.4099 11.5499 14.4605L11.5752 15.0167C11.5752 15.0673 11.5246 15.1178 11.4741 15.1178Z" fill="black"/>
<path d="M13.5014 15.1706C13.4508 15.1706 13.4003 15.12 13.4003 15.0694L13.375 14.5132C13.375 14.4627 13.4256 14.4121 13.4761 14.4121C13.5267 14.4121 13.5773 14.4627 13.5773 14.5132L13.6025 15.0694C13.6025 15.1453 13.552 15.1706 13.5014 15.1706Z" fill="black"/>
<path d="M12.5913 16.5375C12.5155 16.5122 12.4902 16.4616 12.4902 16.4111C12.6924 15.602 12.4396 14.8941 12.4396 14.8941C12.4143 14.8436 12.4396 14.793 12.4902 14.7677C12.5407 14.7424 12.5913 14.7677 12.6166 14.8183C12.6166 14.8436 12.8947 15.5768 12.6671 16.4616C12.6671 16.5122 12.6419 16.5375 12.5913 16.5375Z" fill="black"/>
<path d="M13.9726 14.0323C13.9474 14.0323 13.9221 14.0323 13.8968 14.007C13.7451 13.8554 13.4923 13.8048 13.3912 13.8048C13.3406 13.8048 13.29 13.7542 13.3153 13.7037C13.3153 13.6531 13.3659 13.6025 13.4164 13.6278C13.4417 13.6278 13.821 13.6784 14.0485 13.9059C14.0738 13.9565 14.0738 14.007 14.0485 14.0323C14.0232 14.0323 13.9979 14.0323 13.9726 14.0323Z" fill="black"/>
<path d="M11.1988 14.1095C11.1735 14.1095 11.1482 14.1095 11.1229 14.0842C11.0977 14.0589 11.0724 13.9831 11.1229 13.9578C11.3505 13.7303 11.7297 13.6797 11.755 13.6797C11.8056 13.6797 11.8561 13.705 11.8561 13.7555C11.8561 13.8061 11.8308 13.8567 11.7803 13.8567C11.7803 13.8567 11.4263 13.8819 11.2746 14.0589C11.2494 14.0842 11.2241 14.1095 11.1988 14.1095Z" fill="black"/>
<path d="M9.70477 14.4882C9.70477 14.4882 10.0334 15.5248 10.1598 15.4995C10.2863 15.4742 10.1346 13.8309 9.73005 13.755C9.35082 13.6792 9.70477 14.4882 9.70477 14.4882Z" fill="black"/>
<path d="M13.7851 19.3164C13.7851 19.3164 13.4312 19.7462 12.4705 19.8726C11.535 19.999 10.6249 19.3417 10.6249 19.3417L10.1445 20.5299L11.7626 21.2884L14.2655 20.7828L14.1391 19.6451L13.7851 19.3164Z" fill="#F7B369"/>
<path d="M12.0365 17.4199C11.8342 17.4199 11.5308 17.3188 11.4297 16.8637C11.4297 16.8131 11.455 16.7626 11.5055 16.7626C11.5561 16.7373 11.6067 16.7879 11.6067 16.8384C11.7078 17.2935 12.0617 17.2429 12.087 17.2429C12.1376 17.2429 12.1881 17.2682 12.1881 17.3188C12.1881 17.3693 12.1629 17.4199 12.1123 17.4199C12.1123 17.4199 12.087 17.4199 12.0365 17.4199Z" fill="black"/>
<path d="M26.2437 21.4656L29.5556 26.3197C29.5556 26.3197 26.4965 31.6036 20.9598 31.4772C14.2601 31.3255 13.4258 24.9039 13.4258 24.9039L13.982 20.2773C13.982 20.2773 15.8276 20.429 17.3192 21.6426C18.381 22.5022 23.0076 23.8674 26.2437 21.4656Z" fill="#F7B369"/>
<path d="M12.6911 21.2386C12.5394 21.2386 12.3877 21.2133 12.236 21.188C12.1854 21.188 12.1602 21.1375 12.1602 21.0869C12.1602 21.0363 12.2107 21.0111 12.2613 21.0111C13.6265 21.2639 14.208 20.2526 14.2333 20.202C14.2586 20.1515 14.3091 20.1515 14.3597 20.1768C14.4102 20.202 14.4102 20.2526 14.385 20.3032C14.4102 20.3285 13.8793 21.2386 12.6911 21.2386Z" fill="white"/>
<path d="M7.53784 38.6844L5.71754 35.7012L3.16406 39.1142C3.16406 39.1142 3.64442 41.6677 5.46472 41.6677C6.02092 41.6677 7.53784 38.6844 7.53784 38.6844Z" fill="#B26756"/>
<path d="M5.02996 42.076C5.00467 42.076 4.97939 42.0507 4.95411 42.0254C4.92882 41.9748 4.92883 41.9243 4.97939 41.899C6.72384 40.6349 7.45701 38.4354 7.45701 38.4101C7.48229 38.3595 7.53286 38.3342 7.58342 38.3595C7.63399 38.3848 7.65927 38.4354 7.63399 38.4859C7.63399 38.5112 6.90081 40.7866 5.08052 42.076C5.08052 42.076 5.05524 42.076 5.02996 42.076Z" fill="#F7B369"/>
<path d="M8.95029 19.9004C8.95029 19.9004 1.31515 21.4426 -1.1372 27.7378C-3.71595 34.3111 3.0596 40.2018 3.0596 40.2018L6.77604 36.4853L8.95029 19.9004Z" fill="#F7B369"/>
<path d="M6.54437 35.043C6.51909 35.043 6.46852 35.0178 6.46852 34.9925C6.44324 34.9672 4.9516 31.5794 3.91504 29.9614C3.88976 29.9108 3.88976 29.8602 3.94033 29.835C3.99089 29.8097 4.04145 29.8097 4.06674 29.8602C5.10329 31.4783 6.62021 34.8913 6.62021 34.9166C6.64549 34.9672 6.62021 35.0178 6.56964 35.043H6.54437Z" fill="white"/>
<path d="M5.03252 31.8816C4.98196 31.8816 4.95667 31.8564 4.93139 31.8058C4.83026 31.4518 4.27406 29.6821 4.60273 29.3535C4.65329 29.3029 4.72913 29.2776 4.83026 29.3029C5.43703 29.4546 5.18421 31.4013 5.13365 31.7805C5.13365 31.8564 5.10837 31.8816 5.03252 31.8816C5.0578 31.8816 5.0578 31.8816 5.03252 31.8816ZM4.7797 29.5051C4.75442 29.5051 4.75442 29.5051 4.7797 29.5051C4.62801 29.6568 4.7797 30.4659 5.00724 31.3254C5.08308 30.4911 5.0578 29.581 4.7797 29.5051Z" fill="white"/>
<path d="M20.9418 25.0076C20.866 25.0076 20.8154 24.9823 20.7648 24.9317C20.4362 24.6031 20.8154 23.0609 20.8912 22.7575C20.8912 22.7069 20.9418 22.6816 20.9924 22.6816C21.0429 22.6816 21.0682 22.7069 21.0935 22.7575C21.1441 22.9092 21.5486 24.2997 21.2705 24.8053C21.2199 24.9064 21.1441 24.9823 21.0429 25.0076C20.9924 25.0076 20.9671 25.0076 20.9418 25.0076ZM20.9924 23.162C20.8407 23.8446 20.7395 24.6283 20.8912 24.78C20.8912 24.78 20.9165 24.8053 20.9671 24.78C21.0177 24.7548 21.0429 24.7295 21.0935 24.6789C21.2452 24.4261 21.1188 23.6676 20.9924 23.162Z" fill="white"/>
<path d="M17.6513 30.7208C17.6007 30.7208 17.5501 30.6702 17.5501 30.6197L17.3984 28.5718C17.3984 28.5213 17.4237 28.4707 17.4996 28.4707C17.5501 28.4707 17.6007 28.496 17.6007 28.5718L17.7524 30.6197C17.7524 30.6702 17.7271 30.7208 17.6513 30.7208Z" fill="white"/>
<path d="M8.64601 14.7414C8.64601 14.7414 7.6853 13.2498 8.03924 12.7694C8.39319 12.2891 8.87354 12.3649 8.87354 12.3649C8.87354 12.3649 8.77242 10.5699 9.45503 10.2665C10.1376 9.96315 10.4157 10.5446 10.4157 10.5446C10.4157 10.5446 11.2753 9.38167 11.9579 9.4828C12.9439 9.63449 13.0703 10.4688 13.0703 10.4688C13.0703 10.4688 13.753 9.93787 14.2333 10.4435C14.7137 10.9491 14.5114 13.174 14.5114 13.174C14.5114 13.174 13.222 11.5559 11.5029 12.3902C9.88482 13.1992 10.1376 14.9943 10.1376 14.9943C10.1376 14.9943 9.55616 14.2105 8.64601 14.7414Z" fill="black"/>
<path d="M14.3321 12.7179L14.6861 14.6141C14.6861 14.6141 14.8883 12.364 14.4838 11.0999C14.0793 9.86109 14.231 12.2376 14.231 12.2376L14.3321 12.7179Z" fill="black"/>
<path d="M35.2819 37.7134C35.2819 37.7134 34.5245 43.0154 36.5673 42.7629C38.5871 42.5104 37.8296 37.3691 37.8296 37.3691L35.2819 37.7134Z" fill="#F48462"/>
<path d="M41.4096 18.0215C41.4096 18.0215 37.2782 19.8118 35.9011 26.9499C34.6157 33.583 34.9141 38.1276 34.9141 38.1276L38.3799 38.5866L42.1211 21.2348L41.4096 18.0215Z" fill="#40507F"/>
<path d="M48.6166 11.4355C48.6166 11.4355 49.5117 13.111 49.5117 17.0817C49.5117 21.0295 49.5117 21.0295 49.5117 21.0295L41.9375 21.1902C41.9375 21.1902 42.0982 12.4224 42.9245 10.9306C43.7278 9.41572 48.6166 11.4355 48.6166 11.4355Z" fill="black"/>
<path d="M38.9968 31.38C38.9968 31.38 37.0918 37.9443 36.2655 43.4987C35.4392 49.0531 34.9802 58.0733 35.5081 58.3946C36.036 58.716 42.233 59.1291 42.233 59.1291C42.233 59.1291 44.3217 59.8865 47.9481 59.7947C50.5647 59.7259 52.6992 59.1291 52.6992 59.1291C52.6992 59.1291 52.2172 35.0064 50.2433 31.2193C48.7055 28.2355 38.9968 31.38 38.9968 31.38Z" fill="#68B6D8"/>
<path d="M38.7444 30.3019V31.8626C38.7444 31.8626 42.6922 32.7578 45.9514 32.5283C49.1877 32.2987 50.4041 31.7249 50.4041 31.7249L51.7812 23.8064L47.4433 17.9536L44.2529 17.7012L43.1971 17.7471C42.7381 17.77 42.2791 17.8159 41.82 17.9307L41.4069 18.0225L38.8821 29.2461L38.7444 30.3019Z" fill="#40507F"/>
<path d="M41.8013 32.2511L44.0047 31.5855C44.349 31.4707 44.5555 31.1035 44.4408 30.7592L42.7423 25.1359C42.6276 24.7917 42.2603 24.5851 41.916 24.6998L39.7126 25.3655C39.3684 25.4802 39.1618 25.8475 39.2765 26.1917L40.975 31.815C41.0898 32.1593 41.457 32.3659 41.8013 32.2511Z" fill="#40507F"/>
<path d="M41.1333 32.4581L43.3367 31.7925C43.681 31.6778 43.8876 31.3105 43.7728 30.9662L42.0744 25.343C41.9596 24.9987 41.5924 24.7921 41.2481 24.9069L39.0447 25.5725C38.7004 25.6872 38.4938 26.0545 38.6086 26.3988L40.307 32.022C40.3988 32.3663 40.789 32.5729 41.1333 32.4581Z" fill="black"/>
<path d="M45.9989 27.1348C45.9989 27.1348 44.989 26.7447 44.507 26.6069C43.9791 26.4922 43.1528 26.4922 43.1528 26.4922L43.4053 27.3414C43.4053 27.3414 41.9134 27.6627 40.7658 28.2366C39.6182 28.8104 39.8247 29.3153 39.8247 29.3153C39.8247 29.3153 39.0903 29.7743 39.4116 30.0957C39.7329 30.417 40.9035 30.0957 40.9035 30.0957C40.9035 30.0957 39.4116 30.6695 40.0313 30.9908C40.651 31.3351 42.0281 31.2203 42.0281 31.2203C42.0281 31.2203 45.0119 31.7482 45.9989 30.6924C46.9858 29.6825 45.9989 27.1348 45.9989 27.1348Z" fill="#F48462"/>
<path d="M47.4449 17.9531C47.4449 17.9531 51.5763 18.3663 53.8945 22.337C56.5799 26.9504 55.6848 31.3801 51.232 32.0228C47.5368 32.5507 45.4252 31.8621 45.4252 31.8621L45.5629 26.4913L47.8351 26.17L50.0615 23.4616L47.4449 17.9531Z" fill="#40507F"/>
<path d="M43.5174 27.4102H43.5404L44.4585 27.1348C44.5044 27.1118 44.5273 27.0659 44.5273 27.02C44.5044 26.9741 44.4585 26.9512 44.4126 26.9512L43.4945 27.2266C43.4486 27.2495 43.4256 27.2955 43.4256 27.3414C43.4486 27.3873 43.4945 27.4102 43.5174 27.4102Z" fill="black"/>
<path d="M39.9181 29.3375H39.9411L42.2593 28.6719C42.3052 28.6489 42.3281 28.603 42.3281 28.5571C42.3052 28.5112 42.2593 28.4883 42.2134 28.4883L39.8952 29.1539C39.8493 29.1768 39.8263 29.2228 39.8263 29.2687C39.8493 29.3146 39.8722 29.3375 39.9181 29.3375Z" fill="black"/>
<path d="M40.7669 30.2335H40.7898L42.2358 29.8203C42.2817 29.7974 42.3047 29.7515 42.3047 29.7056C42.2817 29.6597 42.2358 29.6367 42.1899 29.6367L40.7439 30.0499C40.698 30.0728 40.6751 30.1187 40.6751 30.1646C40.698 30.2105 40.7439 30.2335 40.7669 30.2335Z" fill="black"/>
<path d="M47.8348 26.2628C47.8807 26.2628 50.9334 25.666 52.6777 25.666C52.7236 25.666 52.7695 25.6201 52.7695 25.5742C52.7695 25.5283 52.7236 25.4824 52.6777 25.4824C50.9104 25.4824 47.8348 26.0792 47.8119 26.1021C47.766 26.1021 47.743 26.148 47.743 26.1939C47.743 26.2169 47.7889 26.2628 47.8348 26.2628Z" fill="white"/>
<path d="M50.4021 25.8263H50.425C50.8841 25.6427 52.3989 24.9771 52.4219 24.5639C52.4219 24.4951 52.3989 24.4262 52.2842 24.3574C51.6645 24.0131 50.4709 25.5279 50.3332 25.6886C50.3103 25.7116 50.3103 25.7575 50.3332 25.8034C50.3562 25.8263 50.3791 25.8263 50.4021 25.8263ZM52.0776 24.4721C52.1235 24.4721 52.1694 24.4721 52.1924 24.4951C52.2383 24.518 52.2383 24.541 52.2383 24.541C52.2383 24.7246 51.4808 25.1607 50.6775 25.505C51.1366 25.023 51.7333 24.4721 52.0776 24.4721Z" fill="white"/>
<path d="M43.6641 13.1114C43.6641 13.1114 42.0804 12.4458 41.9656 13.6623C41.8279 15.0624 43.5034 15.0853 43.5034 15.0853L43.6641 13.1114Z" fill="#F48462"/>
<path d="M42.877 14.3717C42.9 14.3717 42.9 14.3717 42.9229 14.3487C42.9688 14.3258 42.9688 14.2798 42.9459 14.2339L42.418 13.3388C42.395 13.2929 42.3491 13.2929 42.3032 13.3159C42.2573 13.3388 42.2573 13.3847 42.2802 13.4306L42.8081 14.3258C42.8311 14.3717 42.8541 14.3717 42.877 14.3717Z" fill="black"/>
<path d="M42.2851 14.1211H42.7441C42.79 14.1211 42.8359 14.0752 42.8359 14.0293C42.8359 13.9834 42.79 13.9375 42.7441 13.9375H42.2851C42.2392 13.9375 42.1933 13.9834 42.1933 14.0293C42.1933 14.0752 42.2392 14.1211 42.2851 14.1211Z" fill="black"/>
<path d="M46.5156 16.1602V18.2488C46.5156 18.2488 45.873 18.5931 45.0926 18.616C44.0138 18.639 43.6466 17.9963 43.6466 17.9963V16.0684L46.5156 16.1602Z" fill="#F48462"/>
<path d="M46.5156 16.4375C46.5156 16.4375 45.9877 17.9294 44.7713 17.7688C43.7843 17.631 43.5548 16.1621 43.5548 16.1621L46.5156 16.4375Z" fill="black"/>
<path d="M43.1435 11.9131C43.1435 11.9131 42.455 14.9428 43.3271 16.2741C44.2682 17.6971 45.6453 17.2151 46.1962 16.779C46.9536 16.2052 47.2061 15.4478 47.2061 15.4478C47.2061 15.4478 48.2389 15.6543 48.5832 14.8051C48.9504 13.91 48.3078 13.1985 47.7799 13.1526C47.252 13.1067 47.2061 13.1985 47.2061 13.1985L47.3667 12.2574C47.3667 12.2574 44.2223 8.7687 43.1435 11.9131Z" fill="#F48462"/>
<path d="M47.4015 14.5775C47.4245 14.5775 47.4474 14.5775 47.4474 14.5546L48.2507 13.866C48.2966 13.843 48.2966 13.7742 48.2507 13.7512C48.2278 13.7053 48.1589 13.7053 48.136 13.7512L47.3326 14.4398C47.2867 14.4627 47.2867 14.5316 47.3326 14.5546C47.3556 14.5775 47.3785 14.5775 47.4015 14.5775Z" fill="black"/>
<path d="M48.1309 14.6943C48.1539 14.6943 48.1768 14.6714 48.1998 14.6714C48.2227 14.6255 48.2227 14.5796 48.1768 14.5566L47.6948 14.2123C47.6489 14.1894 47.603 14.1894 47.5801 14.2353C47.5571 14.2812 47.5571 14.3271 47.603 14.3501L48.085 14.6943C48.108 14.6943 48.108 14.6943 48.1309 14.6943Z" fill="black"/>
<path d="M44.6934 15.1308C44.7164 15.1308 44.7164 15.1308 44.7393 15.1078C44.7852 15.0849 44.7852 15.039 44.7623 14.9931C44.4639 14.534 44.7393 13.7995 44.7393 13.7995C44.7623 13.7536 44.7393 13.7077 44.6934 13.6848C44.6475 13.6618 44.6016 13.6848 44.5787 13.7307C44.5557 13.7536 44.2573 14.534 44.6016 15.0849C44.6475 15.1078 44.6705 15.1308 44.6934 15.1308Z" fill="black"/>
<path d="M43.612 12.8128C43.6349 12.8128 43.6579 12.8128 43.6808 12.7898C43.8415 12.6292 44.1399 12.6062 44.1399 12.6062C44.1858 12.6062 44.2317 12.5603 44.2087 12.5144C44.2087 12.4685 44.1628 12.4226 44.1169 12.4456C44.094 12.4456 43.7497 12.4685 43.5431 12.6751C43.5202 12.698 43.5202 12.7669 43.5431 12.7898C43.5661 12.7898 43.589 12.8128 43.612 12.8128Z" fill="black"/>
<path d="M46.1111 12.8355C46.134 12.8355 46.157 12.8355 46.157 12.8125C46.2029 12.7896 46.2029 12.7207 46.157 12.6978C45.9734 12.4912 45.6061 12.4453 45.5832 12.4453C45.5373 12.4453 45.4914 12.4683 45.4914 12.5142C45.4914 12.5601 45.5143 12.606 45.5602 12.606C45.5602 12.606 45.8816 12.6519 46.0193 12.8125C46.0652 12.8125 46.0881 12.8355 46.1111 12.8355Z" fill="black"/>
<path d="M45.2016 16.002C45.2475 16.002 45.2705 16.002 45.3164 15.9791C45.477 15.9332 45.5918 15.7955 45.6836 15.5659C45.6836 15.543 45.6836 15.4971 45.6606 15.4741C45.6377 15.4512 45.6147 15.4512 45.5688 15.4512L44.8114 15.6807C44.7885 15.6807 44.7655 15.7036 44.7426 15.7495C44.7426 15.7725 44.7426 15.8184 44.7655 15.8414C44.7655 15.8414 44.9721 16.002 45.2016 16.002ZM45.4311 15.6807C45.3852 15.7725 45.3164 15.8184 45.2475 15.8414C45.1786 15.8643 45.0868 15.8414 45.018 15.8184L45.4311 15.6807Z" fill="black"/>
<path d="M42.9673 12.9951C42.9673 12.9951 43.4263 12.2836 43.7936 11.7787C44.1608 11.2737 44.1608 11.2737 44.1608 11.2737C44.1608 11.2737 44.4821 12.4672 45.3084 12.9722C46.1117 13.4771 47.0528 13.4083 47.0528 13.4083L47.0298 14.1427C47.0298 14.1427 47.2823 13.2017 47.443 13.1787C47.6036 13.1558 47.8332 13.1328 48.1086 13.2706C48.384 13.4083 48.4299 13.546 48.4299 13.546C48.4299 13.546 48.7742 11.8246 48.6135 11.4573C48.4529 11.0901 47.2823 8.77193 44.2756 9.69002C41.9804 10.3786 42.9673 12.9951 42.9673 12.9951Z" fill="black"/>
<path d="M43.8813 13.8425C43.9272 13.8425 43.9731 13.7966 43.9731 13.7737L43.9961 13.2687C43.9961 13.2458 43.9961 13.2228 43.9731 13.1999L43.7207 12.9703C43.6748 12.9474 43.6289 12.9474 43.6059 12.9703C43.583 13.0162 43.583 13.0621 43.6059 13.0851L43.8354 13.2917L43.8125 13.7507C43.8125 13.7966 43.8354 13.8425 43.8813 13.8425Z" fill="black"/>
<path d="M45.5884 13.9139C45.6343 13.9139 45.6802 13.868 45.6802 13.8451L45.7031 13.3401C45.7031 13.3172 45.7031 13.2942 45.6802 13.2713L45.4277 13.0188C45.4047 12.9729 45.3359 12.9729 45.3129 13.0188C45.29 13.0418 45.267 13.1106 45.3129 13.1336L45.5195 13.3631L45.4966 13.8451C45.4966 13.868 45.5425 13.9139 45.5884 13.9139Z" fill="black"/>
<path d="M46.6658 19.9022C46.7576 19.9022 46.8264 19.8793 46.9182 19.8563C47.1019 19.7875 47.2166 19.6957 47.2625 19.535C47.4002 19.0301 46.7346 18.2267 46.6887 18.1808C46.6658 18.1579 46.6199 18.1349 46.574 18.1579C44.9673 19.076 43.7049 17.9284 43.6361 17.8824C43.6131 17.8595 43.5443 17.8595 43.5213 17.8824C43.4525 17.9513 42.7639 18.6169 42.8098 19.053C42.8328 19.1678 42.8787 19.2596 42.9934 19.3284C43.4984 19.6268 44.5312 18.9153 44.8296 18.7087C45.0591 18.9842 45.9313 19.9022 46.6658 19.9022ZM46.574 18.3644C46.7805 18.6169 47.1478 19.1907 47.056 19.4891C47.033 19.5809 46.9641 19.6498 46.8264 19.6957C46.2067 19.9022 45.3345 19.0301 45.0132 18.6628C45.4952 18.7317 46.0231 18.6628 46.574 18.3644ZM44.6689 18.6169C44.2558 18.9153 43.4295 19.3973 43.0852 19.1907C43.0164 19.1448 42.9934 19.0989 42.9934 19.053C42.9705 18.7776 43.3836 18.2956 43.5902 18.089C43.7279 18.2038 44.1181 18.4792 44.6689 18.6169Z" fill="white"/>
<path d="M43.7051 42.1895C43.751 42.1895 43.7969 42.1436 43.7969 42.0977V37.4154C43.7969 37.3925 43.7739 37.3466 43.751 37.3466L41.4099 36.1301C41.3639 36.1071 41.318 36.1301 41.2951 36.176C41.2721 36.2219 41.2951 36.2678 41.341 36.2908L43.6362 37.4843V42.1206C43.6133 42.1665 43.6592 42.1895 43.7051 42.1895Z" fill="white"/>
</g>
<defs>
<clipPath id="clip0_639_2527">
<rect width="56" height="56" rx="28" fill="white"/>
</clipPath>
</defs>
</svg>
