<svg width="181" height="45" viewBox="0 0 181 45" fill="none" xmlns="http://www.w3.org/2000/svg">
<path d="M0.5 42.0481V38.71H1.782V42.0171C1.782 42.9647 2.25888 43.4602 3.02064 43.4602C3.78241 43.4602 4.25929 42.9833 4.25929 42.0543V38.71H5.59703V42.0047C5.59703 43.776 4.59991 44.6431 3.03302 44.6431C1.46614 44.6431 0.506199 43.7698 0.506199 42.0481" fill="white"/>
<path d="M6.99219 38.71H8.17509L10.9125 42.302V38.71H12.1821V44.5502H11.0859L8.2618 40.8342V44.5502H6.99219V38.71Z" fill="white"/>
<path d="M13.6484 38.71H16.039C17.4325 38.71 18.2748 39.5336 18.2748 40.7289C18.2748 42.0791 17.2219 42.7789 15.9152 42.7789H14.949V44.5316H13.6484V38.71ZM15.9523 41.6579C16.079 41.6746 16.2078 41.6642 16.3301 41.6274C16.4525 41.5907 16.5657 41.5284 16.6622 41.4447C16.7588 41.361 16.8365 41.2578 16.8903 41.1419C16.9441 41.026 16.9727 40.9001 16.9742 40.7723C16.9742 40.1963 16.5716 39.8867 15.9275 39.8867H14.9366V41.6765L15.9523 41.6579Z" fill="white"/>
<path d="M20.7518 38.667H21.9409L24.4182 44.5505H23.0742L22.5416 43.2438H20.0643L19.5317 44.5505H18.2188L20.7518 38.667ZM22.1081 42.1042L21.3277 40.2153L20.5536 42.1042H22.1081Z" fill="white"/>
<path d="M25.4141 38.71H28.0833C28.3942 38.6942 28.7051 38.7409 28.9976 38.8472C29.2902 38.9536 29.5584 39.1175 29.7865 39.3294C29.9535 39.5075 30.0837 39.7167 30.1698 39.9452C30.2559 40.1737 30.2961 40.4169 30.2881 40.6609C30.3071 41.0562 30.1963 41.4468 29.9727 41.7733C29.7491 42.0997 29.4249 42.3442 29.0495 42.4693L30.4739 44.5564H28.969L27.7303 42.6985H26.7208V44.5564H25.4141V38.71ZM27.9966 41.5465C28.616 41.5465 28.9814 41.2121 28.9814 40.7228C28.9814 40.1716 28.5974 39.8868 27.9719 39.8868H26.6961V41.5651L27.9966 41.5465Z" fill="white"/>
<path d="M33.5548 38.667H34.7377L37.215 44.5505H35.8711L35.3385 43.2438H32.8612L32.3286 44.5505H31.0156L33.5548 38.667ZM34.905 42.1042L34.1308 40.2153L33.3505 42.1042H34.905Z" fill="white"/>
<path d="M38.2305 38.71H39.5187V43.3796H42.4295V44.5502H38.2305V38.71Z" fill="white"/>
<path d="M43.4883 38.71H44.7703V43.3796H47.6873V44.5502H43.4883V38.71Z" fill="white"/>
<path d="M48.7383 38.71H53.1479V39.8495H50.0203V41.0386H52.7701V42.1782H50.0203V43.4044H53.1912V44.5502H48.7383V38.71Z" fill="white"/>
<path d="M54.418 38.71H55.7V43.3796H58.6108V44.5502H54.418V38.71Z" fill="white"/>
<path d="M59.6641 38.71H64.0674V39.8495H60.9399V41.0386H63.6897V42.1782H60.9399V43.4044H64.1108V44.5502H59.6641V38.71Z" fill="white"/>
<path d="M65.332 38.7106H67.6111C68.008 38.6861 68.4057 38.743 68.7797 38.8778C69.1538 39.0127 69.4964 39.2225 69.7864 39.4945C70.0764 39.7666 70.3077 40.095 70.4661 40.4597C70.6246 40.8244 70.7068 41.2176 70.7077 41.6152C70.7076 42.0136 70.626 42.4078 70.468 42.7735C70.31 43.1392 70.0789 43.4688 69.7889 43.742C69.4989 44.0152 69.1562 44.2262 68.7817 44.3621C68.4072 44.498 68.0088 44.5559 67.6111 44.5322H65.332V38.7106ZM67.6111 43.3927C67.8448 43.4059 68.0787 43.37 68.2976 43.2871C68.5165 43.2043 68.7156 43.0764 68.8819 42.9118C69.0483 42.7472 69.1783 42.5495 69.2634 42.3315C69.3485 42.1135 69.387 41.88 69.3762 41.6462C69.3887 41.4111 69.3516 41.176 69.2673 40.9562C69.183 40.7364 69.0534 40.5368 68.887 40.3703C68.7205 40.2039 68.5209 40.0743 68.3011 39.99C68.0813 39.9057 67.8462 39.8686 67.6111 39.8811H66.6202V43.4236L67.6111 43.3927Z" fill="white"/>
<path d="M75.8836 38.71H74.6016V44.5502H75.8836V38.71Z" fill="white"/>
<path d="M77.4336 38.71H78.6165L81.3539 42.302V38.71H82.6235V44.5502H81.5273L78.7032 40.8342V44.5502H77.4336V38.71Z" fill="white"/>
<path d="M83.7116 43.7025L84.4672 42.7921C84.9442 43.2327 85.5646 43.4856 86.2137 43.5043C86.7401 43.5043 87.056 43.2937 87.056 42.9531C87.056 42.6248 86.8578 42.4576 85.8792 42.2099C84.7025 41.9064 83.947 41.5906 83.947 40.4263C83.947 39.3672 84.7954 38.6674 85.9907 38.6674C86.7777 38.6553 87.5443 38.9181 88.1583 39.4106L87.4895 40.3272C87.0538 39.9859 86.5246 39.785 85.9721 39.7512C85.4767 39.7512 85.2228 39.9742 85.2228 40.2591C85.2228 40.643 85.4705 40.7669 86.4614 41.027C87.6443 41.3367 88.3194 41.7578 88.3194 42.7797C88.3194 43.944 87.4337 44.5943 86.1765 44.5943C85.2639 44.5974 84.3821 44.2645 83.6992 43.6591" fill="white"/>
<path d="M89.4535 42.0481V38.71H90.7355V42.0171C90.7355 42.9647 91.2124 43.4602 91.9742 43.4602C92.7359 43.4602 93.2128 42.9833 93.2128 42.0543V38.71H94.4948V42.0047C94.4948 43.776 93.5039 44.6431 91.937 44.6431C90.3701 44.6431 89.4102 43.7698 89.4102 42.0481" fill="white"/>
<path d="M95.9297 38.71H98.599C98.9099 38.6942 99.2207 38.7409 99.5133 38.8472C99.8058 38.9536 100.074 39.1175 100.302 39.3294C100.471 39.5059 100.603 39.7149 100.689 39.9437C100.776 40.1726 100.815 40.4166 100.804 40.6609C100.824 41.0564 100.713 41.4475 100.49 41.7742C100.266 42.1009 99.9411 42.3451 99.5651 42.4693L100.99 44.5564H99.4908L98.2521 42.6985H97.2427V44.5564H95.9545L95.9297 38.71ZM98.4937 41.5651C99.113 41.5651 99.4784 41.2307 99.4784 40.7414C99.4784 40.1902 99.0944 39.9053 98.4689 39.9053H97.1931V41.5651H98.4937Z" fill="white"/>
<path d="M104.071 38.667H105.254L107.762 44.5505H106.418L105.885 43.2438H103.408L102.875 44.5505H101.562L104.071 38.667ZM105.427 42.1042L104.647 40.2153L103.873 42.1042H105.427Z" fill="white"/>
<path d="M108.738 38.71H109.921L112.659 42.302V38.71H113.928V44.5502H112.832L110.008 40.8342V44.5502H108.738V38.71Z" fill="white"/>
<path d="M115.161 41.6462C115.154 41.2453 115.228 40.8472 115.379 40.4758C115.53 40.1044 115.755 39.7674 116.039 39.485C116.324 39.2027 116.663 38.9809 117.036 38.8329C117.408 38.6849 117.807 38.6138 118.208 38.6239C118.633 38.6027 119.059 38.6717 119.456 38.8265C119.853 38.9812 120.213 39.2182 120.512 39.5219L119.694 40.4694C119.3 40.0609 118.762 39.823 118.195 39.8068C117.963 39.8114 117.735 39.8627 117.523 39.9575C117.312 40.0523 117.121 40.1887 116.964 40.3586C116.806 40.5285 116.684 40.7284 116.605 40.9464C116.526 41.1644 116.492 41.3961 116.505 41.6276C116.488 41.8619 116.519 42.0972 116.595 42.3192C116.672 42.5412 116.793 42.7452 116.952 42.919C117.11 43.0927 117.301 43.2325 117.515 43.3299C117.729 43.4273 117.96 43.4803 118.195 43.4855C118.484 43.4831 118.77 43.4214 119.034 43.3042C119.298 43.187 119.535 43.0169 119.731 42.8043L120.549 43.628C120.135 44.0838 119.595 44.406 118.998 44.5537C118.401 44.7014 117.773 44.6678 117.195 44.4571C116.617 44.2464 116.114 43.8683 115.752 43.371C115.39 42.8736 115.184 42.2796 115.161 41.6647" fill="white"/>
<path d="M121.672 38.71H126.075V39.8495H122.948V41.0386H125.697V42.1782H122.948V43.4044H126.119V44.5502H121.672V38.71Z" fill="white"/>
<path d="M129.544 43.7026L130.305 42.7921C130.78 43.2333 131.398 43.4865 132.046 43.5044C132.572 43.5044 132.888 43.2938 132.888 42.9532C132.888 42.6249 132.69 42.4577 131.711 42.21C130.535 41.9065 129.779 41.5907 129.779 40.4263C129.779 39.3673 130.627 38.6675 131.823 38.6675C132.61 38.6543 133.377 38.9173 133.99 39.4106L133.322 40.3272C132.886 39.9852 132.357 39.7843 131.804 39.7513C131.315 39.7513 131.055 39.9742 131.055 40.2591C131.055 40.6431 131.303 40.767 132.293 41.0271C133.483 41.3367 134.151 41.7579 134.151 42.7797C134.151 43.9441 133.272 44.5944 132.009 44.5944C131.096 44.5974 130.214 44.2645 129.531 43.6592" fill="white"/>
<path d="M135.117 41.6464C135.117 40.8251 135.443 40.0375 136.024 39.4568C136.605 38.876 137.393 38.5498 138.214 38.5498C139.035 38.5498 139.823 38.876 140.403 39.4568C140.984 40.0375 141.31 40.8251 141.31 41.6464C141.31 42.4677 140.984 43.2553 140.403 43.836C139.823 44.4168 139.035 44.743 138.214 44.743C137.393 44.743 136.605 44.4168 136.024 43.836C135.443 43.2553 135.117 42.4677 135.117 41.6464ZM139.979 41.6464C139.991 41.4071 139.954 41.168 139.87 40.9434C139.787 40.7188 139.659 40.5134 139.494 40.3397C139.329 40.1661 139.13 40.0277 138.91 39.9329C138.69 39.8381 138.453 39.789 138.214 39.7884C137.978 39.7874 137.744 39.8343 137.526 39.9263C137.308 40.0183 137.112 40.1535 136.948 40.3237C136.784 40.4939 136.656 40.6956 136.573 40.9166C136.489 41.1376 136.451 41.3732 136.461 41.6093C136.449 41.8485 136.486 42.0877 136.57 42.3123C136.653 42.5369 136.781 42.7422 136.946 42.9159C137.111 43.0896 137.31 43.228 137.53 43.3228C137.75 43.4175 137.987 43.4667 138.226 43.4672C138.462 43.4683 138.696 43.4214 138.914 43.3294C139.132 43.2374 139.328 43.1021 139.492 42.9319C139.656 42.7617 139.784 42.56 139.867 42.3391C139.951 42.1181 139.989 41.8825 139.979 41.6464Z" fill="white"/>
<path d="M142.555 38.71H143.843V43.3796H146.754V44.5502H142.555V38.71Z" fill="white"/>
<path d="M147.563 42.0481V38.71H148.845V42.0171C148.845 42.9647 149.322 43.4602 150.084 43.4602C150.845 43.4602 151.322 42.9833 151.322 42.0543V38.71H152.604V42.0047C152.604 43.776 151.613 44.6431 150.046 44.6431C148.479 44.6431 147.52 43.7698 147.52 42.0481" fill="white"/>
<path d="M155.406 39.8929H153.629V38.71H158.466V39.8929H156.688V44.5502H155.406V39.8929Z" fill="white"/>
<path d="M160.88 38.71H159.598V44.5502H160.88V38.71Z" fill="white"/>
<path d="M162.176 41.6462C162.176 41.243 162.256 40.8438 162.413 40.4722C162.569 40.1006 162.799 39.7641 163.087 39.4824C163.376 39.2008 163.718 38.9797 164.093 38.8323C164.468 38.6849 164.869 38.614 165.272 38.6239C165.675 38.6097 166.076 38.677 166.452 38.8218C166.828 38.9665 167.171 39.1857 167.46 39.4663C167.75 39.7468 167.979 40.0828 168.135 40.4542C168.291 40.8256 168.371 41.2248 168.369 41.6276C168.369 42.4489 168.043 43.2365 167.462 43.8173C166.881 44.398 166.094 44.7242 165.272 44.7242C164.451 44.7242 163.663 44.398 163.083 43.8173C162.502 43.2365 162.176 42.4489 162.176 41.6276M167.044 41.6276C167.055 41.3881 167.017 41.1488 166.933 40.9241C166.849 40.6995 166.72 40.4942 166.555 40.3207C166.389 40.1471 166.19 40.0088 165.97 39.9141C165.749 39.8194 165.512 39.7703 165.272 39.7697C165.036 39.7686 164.802 39.8155 164.584 39.9075C164.367 39.9995 164.17 40.1347 164.006 40.3049C163.842 40.4752 163.715 40.6769 163.631 40.8978C163.548 41.1188 163.51 41.3544 163.52 41.5905C163.509 41.8301 163.547 42.0694 163.631 42.294C163.715 42.5186 163.843 42.7239 164.009 42.8975C164.174 43.0711 164.373 43.2094 164.594 43.3041C164.814 43.3987 165.051 43.4479 165.291 43.4484C165.527 43.4495 165.761 43.4026 165.979 43.3106C166.196 43.2186 166.393 43.0834 166.557 42.9132C166.721 42.7429 166.848 42.5413 166.932 42.3203C167.016 42.0993 167.054 41.8637 167.044 41.6276Z" fill="white"/>
<path d="M169.617 38.71H170.8L173.537 42.302V38.71H174.807V44.5502H173.711L170.887 40.8342V44.5502H169.617V38.71Z" fill="white"/>
<path d="M175.91 43.7025L176.665 42.7921C177.142 43.2327 177.763 43.4856 178.412 43.5043C178.938 43.5043 179.254 43.2937 179.254 42.9531C179.254 42.6248 179.056 42.4576 178.077 42.2099C176.901 41.9064 176.145 41.5906 176.145 40.4263C176.145 39.3672 176.994 38.6674 178.189 38.6674C178.976 38.6553 179.743 38.9181 180.357 39.4106L179.669 40.3272C179.233 39.9859 178.704 39.785 178.152 39.7512C177.656 39.7512 177.402 39.9742 177.402 40.2591C177.402 40.643 177.65 40.7669 178.641 41.027C179.824 41.3367 180.499 41.7578 180.499 42.7797C180.499 43.944 179.613 44.5943 178.356 44.5943C177.444 44.5974 176.562 44.2645 175.879 43.6591" fill="white"/>
<path d="M39.8281 1.55859H44.6279L60.4144 21.9343V1.55859H65.5114V31.0259H61.1762L44.919 10.0619V31.0259H39.8281V1.55859Z" fill="white"/>
<path d="M65.8198 31.3409H61.0201L45.2336 10.9652V31.3409H39.5234V1.24805H44.7815L60.0973 21.0292V1.24805H65.8137L65.8198 31.3409ZM61.3236 30.7216H65.2005V1.86737H60.7166V22.8376L44.4718 1.86737H40.1366V30.7216H44.6143V9.1568L61.3236 30.7216Z" fill="white"/>
<path d="M79.865 1.55859H74.6875V31.0321H79.865V1.55859Z" fill="white"/>
<path d="M80.1758 31.3409H74.3789V1.24805H80.1758V31.3409ZM74.9982 30.7216H79.5626V1.86737H74.9982V30.7216Z" fill="white"/>
<path d="M87.0703 26.7327L90.1669 23.0167C92.991 25.4569 95.8523 26.8503 99.4567 26.8503C102.659 26.8503 104.684 25.333 104.684 23.1344V23.0477C104.684 20.942 103.501 19.8025 98.0261 18.5391C91.7524 17.0279 88.2161 15.1761 88.2161 9.74468V9.65798C88.2161 4.60432 92.4275 1.11133 98.28 1.11133C102.174 1.03763 105.966 2.35521 108.976 4.82726L106.226 8.74138C103.575 6.76574 100.925 5.71289 98.2243 5.71289C95.1958 5.71289 93.4246 7.2674 93.4246 9.20587V9.29259C93.4246 11.5655 94.7747 12.575 100.46 13.9251C106.69 15.4362 109.892 17.641 109.892 22.5523V22.639C109.892 28.1509 105.557 31.4333 99.3639 31.4333C94.8206 31.4562 90.434 29.7744 87.0703 26.7203" fill="white"/>
<path d="M99.3615 31.7621C94.7436 31.7786 90.2861 30.0689 86.8636 26.9686L86.6406 26.7642L90.146 22.59L90.3875 22.7944C93.3851 25.3955 96.1968 26.5536 99.4854 26.5536C102.471 26.5536 104.403 25.2159 104.403 23.1536V23.0731C104.403 21.2151 103.437 20.1251 97.9866 18.8679C91.62 17.3319 87.935 15.3501 87.935 9.76382V9.68331C87.935 4.46862 92.2022 0.82701 98.3087 0.82701C102.27 0.754642 106.129 2.09127 109.196 4.59868L109.425 4.78447L106.292 9.19406L106.038 9.00207C103.362 7.00785 100.805 6.03551 98.222 6.03551C95.5403 6.03551 93.7319 7.3113 93.7319 9.21881V9.30553C93.7319 11.3121 94.7599 12.2659 100.544 13.6408C107.413 15.313 110.212 17.8955 110.212 22.5714V22.6581C110.212 28.1887 105.963 31.7683 99.3801 31.7683M87.5015 26.7023C90.7804 29.5803 94.9987 31.1597 99.3615 31.1428C105.555 31.1428 109.58 27.8047 109.58 22.6519V22.5652C109.58 18.1804 106.998 15.8456 100.383 14.2353C94.6794 12.8852 93.1125 11.82 93.1125 9.28075V9.19406C93.1125 6.95211 95.2182 5.39141 98.222 5.39141C100.86 5.39141 103.455 6.33897 106.155 8.29603L108.583 4.87738C105.669 2.5578 102.033 1.33476 98.3087 1.42155C92.5676 1.42155 88.5543 4.80926 88.5543 9.65855V9.73904C88.5543 14.9413 91.9235 16.7436 98.1291 18.2423C103.406 19.481 105.022 20.5834 105.022 23.0483V23.1288C105.022 25.5318 102.799 27.142 99.4854 27.142C96.172 27.142 93.255 26.0024 90.1955 23.4261L87.5015 26.7023Z" fill="white"/>
<path d="M115.997 16.377V16.2903C115.997 7.99763 122.394 1.04883 131.449 1.04883C140.503 1.04883 146.802 7.91092 146.802 16.2098V16.2903C146.802 24.5831 140.404 31.5319 131.35 31.5319C122.295 31.5319 115.984 24.6698 115.984 16.377M141.377 16.377V16.2903C141.377 10.5678 137.209 5.80523 131.356 5.80523C125.503 5.80523 121.447 10.4811 121.447 16.2098V16.2903C121.447 22.0191 125.615 26.7321 131.467 26.7321C137.32 26.7321 141.377 22.0996 141.377 16.377Z" fill="white"/>
<path d="M131.363 31.8422C122.426 31.8422 115.688 25.1969 115.688 16.3591V16.2724C115.678 14.2098 116.081 12.166 116.872 10.2612C117.664 8.35643 118.828 6.62894 120.296 5.18025C121.765 3.73156 123.508 2.59087 125.423 1.82515C127.338 1.05942 129.387 0.684112 131.449 0.721262C140.386 0.721262 147.124 7.37278 147.124 16.2043V16.2848C147.124 25.0049 140.207 31.836 131.363 31.836M131.449 1.35298C122.816 1.35298 116.307 7.77534 116.307 16.2848V16.3715C116.307 24.8315 122.779 31.2353 131.363 31.2353C139.946 31.2353 146.511 24.8191 146.511 16.3034V16.2229C146.511 7.75676 140.033 1.35916 131.449 1.35916M131.449 27.0424C125.56 27.0424 121.119 22.4223 121.119 16.291V16.2105C121.119 10.104 125.522 5.49625 131.363 5.49625C137.203 5.49625 141.693 10.2402 141.693 16.291V16.3777C141.693 22.4595 137.29 27.0424 131.449 27.0424ZM131.363 6.11557C125.876 6.11557 121.738 10.4508 121.738 16.2105V16.291C121.738 22.0693 125.913 26.4231 131.449 26.4231C136.986 26.4231 141.074 22.0879 141.074 16.3777V16.291C141.074 10.4942 136.899 6.11557 131.363 6.11557Z" fill="white"/>
<path d="M154.402 1.55859H159.202L174.989 21.9343V1.55859H180.079V31.0259H175.744L159.493 10.0619V31.0259H154.402V1.55859Z" fill="white"/>
<path d="M180.388 31.3409H175.594L175.501 31.217L159.808 10.9652V31.3409H154.098V1.24805H159.356L174.672 21.0292V1.24805H180.382L180.388 31.3409ZM175.898 30.7216H179.769V1.86737H175.291V22.8376L159.046 1.86737H154.711V30.7216H159.188V9.1568L175.898 30.7216Z" fill="white"/>
<path d="M2.00391 2.8272V21.0786C2.00391 21.0786 3.36022 32.6971 19.3449 31.3903C19.3449 31.3903 28.901 30.932 29.9725 23.6736C31.0439 16.4151 30.5051 2.06543 30.5051 2.06543H21.4011L21.0171 20.9238L19.5183 24.7884C19.5183 24.7884 12.7739 27.4143 11.7768 21.3078C11.0088 16.5947 11.399 2.67855 11.399 2.67855L2.00391 2.8272Z" fill="#F7A61D"/>
<path d="M31.6078 0.78418C27.6503 0.78418 23.6867 0.78418 19.7292 0.78418C19.3576 0.78418 19.3576 0.784183 19.3576 1.17436C19.3576 7.56576 19.3576 13.953 19.3576 20.3362C19.3675 22.1545 18.7395 23.9186 17.5831 25.3218C16.4266 26.7249 14.8148 27.6782 13.0281 28.0158C11.5967 28.3053 10.1114 28.163 8.76098 27.607C7.81914 27.2398 6.96026 26.6879 6.23489 25.9838C5.50952 25.2797 4.93231 24.4376 4.53722 23.5071C4.09841 22.5057 3.87476 21.4233 3.88074 20.33C3.88074 16.4159 3.88074 8.03644 3.88074 4.12851C6.7482 4.12851 6.57479 4.12851 9.45464 4.12851C9.7643 4.12851 9.80763 4.22142 9.80763 4.50011C9.80763 9.38656 9.80763 14.273 9.80763 19.1656C9.80616 19.9666 9.92091 20.7635 10.1483 21.5315C10.3418 22.3469 10.7482 23.0964 11.3259 23.7035C11.9036 24.3106 12.632 24.7536 13.4369 24.9873C13.8679 25.1492 14.327 25.2229 14.787 25.204C14.7312 25.1173 14.7003 25.0554 14.6631 25.0059C13.6409 23.5917 13.1081 21.8825 13.1458 20.138C13.1458 13.8085 13.1458 7.47905 13.1458 1.14958C13.1458 0.883269 13.1024 0.790385 12.8113 0.796578C11.4736 0.796578 10.1359 0.796578 8.80434 0.796578C5.0884 0.796578 4.64251 0.796578 0.901802 0.796578C0.641687 0.796578 0.56117 0.864696 0.567363 1.1372C0.567363 1.84322 0.567363 17.1157 0.567363 20.0761C0.529819 21.3605 0.709891 22.642 1.09997 23.8663C1.29922 24.5076 1.55627 25.1295 1.86794 25.7243C2.74526 27.3276 3.99397 28.6974 5.50954 29.7189C6.05192 30.0959 6.6308 30.4175 7.23745 30.6789C8.05363 31.0145 8.9056 31.2556 9.77668 31.3973C11.1633 31.6237 12.5794 31.5985 13.9571 31.3229C15.0772 31.0816 16.1518 30.6635 17.1404 30.0843C17.9957 29.5877 18.7826 28.9818 19.4815 28.2821C20.7016 27.0842 21.6151 25.6098 22.1445 23.984C22.5319 22.8816 22.7288 21.7214 22.7267 20.5529C22.7267 15.1855 22.7267 9.81803 22.7267 4.45057C22.7267 4.20284 22.7763 4.12233 23.0426 4.12233C24.789 4.12233 26.5417 4.12233 28.2944 4.12233C28.5979 4.12233 28.6536 4.20904 28.6536 4.48773C28.6536 9.97079 28.6536 15.4497 28.6536 20.9245C28.6676 21.8892 28.553 22.8514 28.313 23.7858C28.0358 24.8774 27.5592 25.9084 26.9071 26.8267C26.0693 27.9976 25.006 28.9894 23.7795 29.7437C22.3809 30.5775 20.8322 31.1287 19.2213 31.3663L19.3514 31.4035C20.3789 31.5434 21.4205 31.5434 22.448 31.4035C23.6824 31.2392 24.8789 30.862 25.9843 30.2887C27.9838 29.2744 29.6212 27.6673 30.6726 25.6871C31.0575 24.9646 31.3687 24.2052 31.6016 23.4204C31.8758 22.4431 32.0093 21.4317 31.9979 20.4167C31.9979 15.4621 31.9546 1.6822 31.9979 1.11242C31.9979 0.833725 31.9174 0.78418 31.6635 0.78418" fill="white"/>
<path d="M13.4059 22.3672C13.4059 22.3672 13.7961 24.5472 17.6359 25.2904C17.6359 25.2904 13.8518 25.7487 11.9381 24.2499C10.0244 22.7512 13.4059 22.392 13.4059 22.392" fill="white"/>
<path d="M13.8233 31.3052C13.8233 31.3052 18.3629 31.6148 21.0074 30.9521L23.0945 31.2928C20.0282 31.9058 16.871 31.9058 13.8047 31.2928" fill="white"/>
</svg>
