<svg width="116" height="28" viewBox="0 0 116 28" fill="none" xmlns="http://www.w3.org/2000/svg">
<path d="M0.758789 25.4737V23.4359H1.57416V25.4548C1.57416 26.0332 1.87746 26.3357 2.36195 26.3357C2.84645 26.3357 3.14975 26.0446 3.14975 25.4775V23.4359H4.00057V25.4472C4.00057 26.5285 3.36639 27.0578 2.36983 27.0578C1.37327 27.0578 0.762732 26.5247 0.762732 25.4737" fill="white"/>
<path d="M4.88684 23.4359H5.63918L7.38021 25.6287V23.4359H8.1877V27.0011H7.4905L5.69433 24.7327V27.0011H4.88684V23.4359Z" fill="white"/>
<path d="M9.12122 23.4359H10.6417C11.5279 23.4359 12.0636 23.9387 12.0636 24.6684C12.0636 25.4926 11.394 25.9198 10.5629 25.9198H9.9484V26.9897H9.12122V23.4359ZM10.5865 25.2355C10.6671 25.2456 10.749 25.2393 10.8268 25.2169C10.9046 25.1944 10.9766 25.1564 11.038 25.1053C11.0994 25.0543 11.1489 24.9913 11.1831 24.9205C11.2173 24.8498 11.2355 24.7729 11.2364 24.6949C11.2364 24.3433 10.9804 24.1542 10.5708 24.1542H9.94052V25.2468L10.5865 25.2355Z" fill="white"/>
<path d="M13.6391 23.4095H14.3954L15.971 27.0012H15.1162L14.7775 26.2034H13.2019L12.8631 27.0012H12.0281L13.6391 23.4095ZM14.5017 25.5078L14.0054 24.3547L13.5131 25.5078H14.5017Z" fill="white"/>
<path d="M16.6055 23.4364H18.3032C18.5009 23.4267 18.6986 23.4552 18.8847 23.5202C19.0707 23.5851 19.2413 23.6852 19.3864 23.8145C19.4926 23.9232 19.5755 24.0509 19.6302 24.1904C19.6849 24.3299 19.7105 24.4783 19.7054 24.6273C19.7175 24.8686 19.6471 25.107 19.5048 25.3063C19.3626 25.5056 19.1564 25.6549 18.9176 25.7313L19.8236 27.0053H18.8664L18.0786 25.8711H17.4366V27.0053H16.6055V23.4364ZM18.248 25.1679C18.6419 25.1679 18.8743 24.9638 18.8743 24.6651C18.8743 24.3286 18.6301 24.1547 18.2323 24.1547H17.4208V25.1793L18.248 25.1679Z" fill="white"/>
<path d="M21.781 23.4095H22.5333L24.1089 27.0012H23.2542L22.9154 26.2034H21.3398L21.0011 27.0012H20.166L21.781 23.4095ZM22.6397 25.5078L22.1473 24.3547L21.651 25.5078H22.6397Z" fill="white"/>
<path d="M24.755 23.4359H25.5743V26.2865H27.4256V27.0011H24.755V23.4359Z" fill="white"/>
<path d="M28.0991 23.4359H28.9145V26.2865H30.7697V27.0011H28.0991V23.4359Z" fill="white"/>
<path d="M31.4396 23.4359H34.2441V24.1316H32.2549V24.8574H34.0038V25.5531H32.2549V26.3016H34.2717V27.0011H31.4396V23.4359Z" fill="white"/>
<path d="M35.0515 23.4359H35.8669V26.2865H37.7182V27.0011H35.0515V23.4359Z" fill="white"/>
<path d="M38.3877 23.4359H41.1883V24.1316H39.1991V24.8574H40.948V25.5531H39.1991V26.3016H41.2159V27.0011H38.3877V23.4359Z" fill="white"/>
<path d="M41.9921 23.4367H43.4416C43.694 23.4218 43.9469 23.4565 44.1848 23.5388C44.4228 23.6211 44.6406 23.7492 44.8251 23.9153C45.0095 24.0813 45.1567 24.2818 45.2574 24.5045C45.3582 24.7271 45.4105 24.9671 45.4111 25.2098C45.411 25.453 45.3591 25.6937 45.2586 25.9169C45.1581 26.1402 45.0111 26.3414 44.8267 26.5081C44.6423 26.6749 44.4243 26.8037 44.1861 26.8866C43.9479 26.9696 43.6945 27.005 43.4416 26.9905H41.9921V23.4367ZM43.4416 26.2949C43.5902 26.303 43.739 26.281 43.8782 26.2305C44.0174 26.1799 44.144 26.1018 44.2498 26.0014C44.3557 25.9009 44.4383 25.7802 44.4925 25.6471C44.5466 25.514 44.5711 25.3715 44.5642 25.2288C44.5722 25.0852 44.5486 24.9417 44.4949 24.8076C44.4413 24.6734 44.3589 24.5515 44.2531 24.4499C44.1472 24.3483 44.0202 24.2692 43.8804 24.2177C43.7406 24.1663 43.5911 24.1436 43.4416 24.1513H42.8114V26.3138L43.4416 26.2949Z" fill="white"/>
<path d="M48.7039 23.4359H47.8885V27.0011H48.7039V23.4359Z" fill="white"/>
<path d="M49.6887 23.4359H50.4411L52.1821 25.6287V23.4359H52.9896V27.0011H52.2924L50.4962 24.7327V27.0011H49.6887V23.4359Z" fill="white"/>
<path d="M53.6827 26.4835L54.1632 25.9277C54.4666 26.1967 54.8612 26.3511 55.274 26.3625C55.6089 26.3625 55.8097 26.2339 55.8097 26.026C55.8097 25.8256 55.6837 25.7235 55.0613 25.5723C54.3129 25.3871 53.8324 25.1943 53.8324 24.4835C53.8324 23.837 54.372 23.4098 55.1322 23.4098C55.6328 23.4024 56.1203 23.5628 56.5109 23.8635L56.0855 24.423C55.8083 24.2147 55.4718 24.092 55.1204 24.0714C54.8053 24.0714 54.6438 24.2075 54.6438 24.3814C54.6438 24.6158 54.8014 24.6914 55.4316 24.8502C56.1839 25.0392 56.6133 25.2963 56.6133 25.9201C56.6133 26.6309 56.05 27.0279 55.2504 27.0279C54.67 27.0297 54.1091 26.8265 53.6748 26.457" fill="white"/>
<path d="M57.3342 25.4737V23.4359H58.1496V25.4548C58.1496 26.0332 58.4529 26.3357 58.9374 26.3357C59.4219 26.3357 59.7252 26.0446 59.7252 25.4775V23.4359H60.5405V25.4472C60.5405 26.5285 59.9103 27.0578 58.9137 27.0578C57.9172 27.0578 57.3066 26.5247 57.3066 25.4737" fill="white"/>
<path d="M61.4542 23.4364H63.1519C63.3496 23.4267 63.5474 23.4552 63.7334 23.5202C63.9195 23.5851 64.0901 23.6852 64.2351 23.8145C64.3428 23.9222 64.4266 24.0498 64.4815 24.1895C64.5363 24.3292 64.5611 24.4782 64.5542 24.6273C64.5669 24.8687 64.4967 25.1075 64.3544 25.3069C64.2121 25.5063 64.0055 25.6554 63.7664 25.7313L64.6724 27.0053H63.7191L62.9313 25.8711H62.2893V27.0053H61.47L61.4542 23.4364ZM63.085 25.1793C63.4789 25.1793 63.7113 24.9751 63.7113 24.6765C63.7113 24.34 63.467 24.1661 63.0692 24.1661H62.2578V25.1793H63.085Z" fill="white"/>
<path d="M66.6302 23.4095H67.3825L68.9778 27.0012H68.1231L67.7843 26.2034H66.2087L65.87 27.0012H65.0349L66.6302 23.4095ZM67.4928 25.5078L66.9965 24.3547L66.5041 25.5078H67.4928Z" fill="white"/>
<path d="M69.6002 23.4359H70.3526L72.0936 25.6287V23.4359H72.9011V27.0011H72.2039L70.4077 24.7327V27.0011H69.6002V23.4359Z" fill="white"/>
<path d="M73.685 25.2288C73.6806 24.9841 73.7279 24.7411 73.824 24.5144C73.92 24.2877 74.0629 24.0819 74.2439 23.9096C74.425 23.7372 74.6405 23.6018 74.8775 23.5115C75.1144 23.4211 75.368 23.3777 75.6229 23.3839C75.8936 23.3709 76.1641 23.4131 76.4167 23.5076C76.6692 23.602 76.8981 23.7467 77.0882 23.9321L76.5683 24.5105C76.3179 24.2611 75.9757 24.1159 75.6151 24.106C75.4676 24.1088 75.3223 24.1401 75.1877 24.198C75.0532 24.2558 74.9321 24.3391 74.8318 24.4428C74.7314 24.5465 74.6539 24.6686 74.6037 24.8017C74.5535 24.9348 74.5318 25.0762 74.5397 25.2175C74.529 25.3605 74.5487 25.5042 74.5976 25.6397C74.6465 25.7752 74.7235 25.8998 74.8241 26.0058C74.9246 26.1119 75.0466 26.1972 75.1826 26.2567C75.3185 26.3161 75.4657 26.3485 75.6151 26.3517C75.7989 26.3502 75.9804 26.3125 76.1484 26.241C76.3165 26.1695 76.4674 26.0656 76.5919 25.9358L77.1119 26.4386C76.8489 26.7169 76.5056 26.9136 76.1257 27.0038C75.7458 27.0939 75.3465 27.0734 74.9788 26.9448C74.6111 26.8162 74.2916 26.5854 74.0612 26.2818C73.8307 25.9782 73.6998 25.6155 73.685 25.2402" fill="white"/>
<path d="M77.8248 23.4359H80.6254V24.1316H78.6363V24.8574H80.3852V25.5531H78.6363V26.3016H80.653V27.0011H77.8248V23.4359Z" fill="white"/>
<path d="M82.8311 26.4835L83.3156 25.9277C83.6172 26.197 84.0107 26.3516 84.4225 26.3625C84.7573 26.3625 84.9582 26.234 84.9582 26.026C84.9582 25.8257 84.8321 25.7236 84.2098 25.5724C83.4614 25.3871 82.9808 25.1943 82.9808 24.4835C82.9808 23.837 83.5204 23.4098 84.2807 23.4098C84.7813 23.4018 85.2691 23.5623 85.6593 23.8635L85.2339 24.423C84.957 24.2143 84.6203 24.0916 84.2688 24.0714C83.9577 24.0714 83.7922 24.2076 83.7922 24.3815C83.7922 24.6159 83.9498 24.6915 84.58 24.8503C85.3363 25.0393 85.7617 25.2964 85.7617 25.9202C85.7617 26.6309 85.2024 27.0279 84.3988 27.0279C83.8184 27.0298 83.2576 26.8266 82.8232 26.457" fill="white"/>
<path d="M86.3762 25.2286C86.3762 24.7272 86.5837 24.2464 86.9531 23.8919C87.3224 23.5374 87.8234 23.3383 88.3457 23.3383C88.868 23.3383 89.369 23.5374 89.7383 23.8919C90.1077 24.2464 90.3152 24.7272 90.3152 25.2286C90.3152 25.7299 90.1077 26.2107 89.7383 26.5652C89.369 26.9197 88.868 27.1189 88.3457 27.1189C87.8234 27.1189 87.3224 26.9197 86.9531 26.5652C86.5837 26.2107 86.3762 25.7299 86.3762 25.2286ZM89.4683 25.2286C89.4758 25.0825 89.4523 24.9365 89.3993 24.7994C89.3463 24.6623 89.2648 24.537 89.1599 24.4309C89.0549 24.3249 88.9287 24.2404 88.7887 24.1826C88.6488 24.1247 88.4981 24.0947 88.3457 24.0944C88.1954 24.0937 88.0466 24.1224 87.9082 24.1785C87.7698 24.2347 87.6447 24.3172 87.5405 24.4211C87.4363 24.5251 87.3551 24.6482 87.3019 24.7831C87.2487 24.918 87.2246 25.0618 87.231 25.2059C87.2235 25.352 87.247 25.498 87.3 25.6351C87.353 25.7722 87.4345 25.8975 87.5394 26.0035C87.6444 26.1096 87.7706 26.1941 87.9106 26.2519C88.0505 26.3098 88.2012 26.3398 88.3536 26.3401C88.5038 26.3407 88.6527 26.3121 88.7911 26.2559C88.9295 26.1998 89.0546 26.1172 89.1588 26.0133C89.263 25.9094 89.3442 25.7863 89.3974 25.6514C89.4506 25.5165 89.4747 25.3727 89.4683 25.2286Z" fill="white"/>
<path d="M91.1069 23.4359H91.9262V26.2865H93.7776V27.0011H91.1069V23.4359Z" fill="white"/>
<path d="M94.2936 25.4737V23.4359H95.1089V25.4548C95.1089 26.0332 95.4122 26.3357 95.8967 26.3357C96.3812 26.3357 96.6845 26.0446 96.6845 25.4775V23.4359H97.4999V25.4472C97.4999 26.5285 96.8697 27.0578 95.8731 27.0578C94.8765 27.0578 94.266 26.5247 94.266 25.4737" fill="white"/>
<path d="M99.2803 24.158H98.1498V23.4359H101.226V24.158H100.096V27.0011H99.2803V24.158Z" fill="white"/>
<path d="M102.762 23.4359H101.947V27.0011H102.762V23.4359Z" fill="white"/>
<path d="M103.586 25.2283C103.586 24.9821 103.637 24.7385 103.736 24.5116C103.836 24.2848 103.982 24.0793 104.165 23.9074C104.349 23.7355 104.566 23.6005 104.805 23.5105C105.044 23.4205 105.299 23.3773 105.555 23.3833C105.811 23.3747 106.067 23.4158 106.306 23.5041C106.545 23.5925 106.763 23.7263 106.947 23.8975C107.131 24.0688 107.277 24.2739 107.376 24.5006C107.475 24.7274 107.526 24.971 107.525 25.2169C107.525 25.7183 107.317 26.1991 106.948 26.5536C106.578 26.9081 106.078 27.1073 105.555 27.1073C105.033 27.1073 104.532 26.9081 104.163 26.5536C103.793 26.1991 103.586 25.7183 103.586 25.2169M106.682 25.2169C106.689 25.0707 106.665 24.9246 106.611 24.7875C106.558 24.6504 106.476 24.5251 106.371 24.4191C106.265 24.3131 106.139 24.2287 105.999 24.1709C105.859 24.1131 105.708 24.0831 105.555 24.0828C105.405 24.0821 105.256 24.1107 105.118 24.1669C104.979 24.2231 104.854 24.3056 104.75 24.4095C104.646 24.5134 104.565 24.6365 104.511 24.7714C104.458 24.9063 104.434 25.0502 104.44 25.1943C104.434 25.3405 104.458 25.4866 104.511 25.6237C104.564 25.7608 104.646 25.8861 104.752 25.9921C104.857 26.0981 104.983 26.1825 105.123 26.2403C105.264 26.2981 105.414 26.3281 105.567 26.3285C105.717 26.3291 105.866 26.3005 106.005 26.2443C106.143 26.1881 106.268 26.1056 106.372 26.0017C106.476 25.8978 106.558 25.7747 106.611 25.6398C106.664 25.5049 106.688 25.361 106.682 25.2169Z" fill="white"/>
<path d="M108.32 23.4359H109.073L110.814 25.6287V23.4359H111.621V27.0011H110.924L109.128 24.7327V27.0011H108.32V23.4359Z" fill="white"/>
<path d="M112.322 26.4835L112.803 25.9277C113.106 26.1967 113.501 26.3511 113.914 26.3625C114.248 26.3625 114.449 26.2339 114.449 26.026C114.449 25.8256 114.323 25.7235 113.701 25.5723C112.953 25.3871 112.472 25.1943 112.472 24.4835C112.472 23.837 113.012 23.4098 113.772 23.4098C114.272 23.4024 114.76 23.5628 115.15 23.8635L114.713 24.423C114.436 24.2147 114.1 24.092 113.748 24.0714C113.433 24.0714 113.272 24.2075 113.272 24.3814C113.272 24.6158 113.429 24.6914 114.059 24.8502C114.812 25.0392 115.241 25.2963 115.241 25.9201C115.241 26.6309 114.678 27.0279 113.878 27.0279C113.298 27.0297 112.737 26.8265 112.303 26.457" fill="white"/>
<path d="M25.7712 0.756836H28.8239L38.8644 13.1952V0.756836H42.1061V18.7451H39.3489L29.0091 5.94766V18.7451H25.7712V0.756836Z" fill="white"/>
<path d="M42.3032 18.9379H39.2505L29.2101 6.49958V18.9379H25.5784V0.567749H28.9226L38.6636 12.6431V0.567749H42.2993L42.3032 18.9379ZM39.4436 18.5598H41.9093V0.945813H39.0575V13.7471L28.7256 0.945813H25.9683V18.5598H28.8162V5.39564L39.4436 18.5598Z" fill="white"/>
<path d="M51.2367 0.756836H47.9437V18.7489H51.2367V0.756836Z" fill="white"/>
<path d="M51.4336 18.9379H47.7467V0.567749H51.4336V18.9379ZM48.1406 18.5598H51.0436V0.945813H48.1406V18.5598Z" fill="white"/>
<path d="M55.8177 16.124L57.7872 13.8556C59.5834 15.3452 61.4032 16.1958 63.6957 16.1958C65.7321 16.1958 67.0202 15.2696 67.0202 13.9274V13.8745C67.0202 12.5891 66.2678 11.8935 62.7858 11.1222C58.7956 10.1997 56.5465 9.06932 56.5465 5.7537V5.70078C56.5465 2.61577 59.225 0.48348 62.9473 0.48348C65.4238 0.438488 67.8359 1.24281 69.7499 2.75187L68.001 5.14124C66.3151 3.93521 64.6292 3.2925 62.9118 3.2925C60.9857 3.2925 59.8591 4.24144 59.8591 5.42478V5.47772C59.8591 6.86521 60.7178 7.48145 64.3338 8.30563C68.2964 9.22811 70.3329 10.574 70.3329 13.5721V13.625C70.3329 16.9898 67.5756 18.9935 63.6366 18.9935C60.747 19.0074 57.9571 17.9808 55.8177 16.1164" fill="white"/>
<path d="M63.6367 19.1946C60.6996 19.2046 57.8646 18.161 55.6878 16.2684L55.546 16.1436L57.7755 13.5955L57.9291 13.7202C59.8356 15.3081 61.6239 16.0151 63.7155 16.0151C65.614 16.0151 66.843 15.1985 66.843 13.9395V13.8904C66.843 12.7562 66.2285 12.0908 62.7622 11.3233C58.713 10.3857 56.3693 9.17591 56.3693 5.76576V5.71661C56.3693 2.53331 59.0832 0.310298 62.9671 0.310298C65.4866 0.266121 67.9406 1.08206 69.8918 2.61271L70.0375 2.72612L68.0444 5.41795L67.8829 5.30075C66.1812 4.08338 64.5545 3.48982 62.9119 3.48982C61.2063 3.48982 60.0561 4.26863 60.0561 5.43307V5.486C60.0561 6.71093 60.71 7.29315 64.389 8.13245C68.7573 9.15322 70.5378 10.7297 70.5378 13.5841V13.6371C70.5378 17.0132 67.8356 19.1984 63.6485 19.1984M56.0935 16.1058C58.179 17.8627 60.8619 18.8269 63.6367 18.8166C67.5756 18.8166 70.136 16.7788 70.136 13.6333V13.5804C70.136 10.9037 68.4934 9.47836 64.2866 8.49539C60.6588 7.67121 59.6622 7.02094 59.6622 5.47087V5.41795C59.6622 4.04936 61.0015 3.09663 62.9119 3.09663C64.5899 3.09663 66.2403 3.67507 67.9577 4.86975L69.5018 2.78284C67.6481 1.36686 65.3355 0.620255 62.9671 0.673237C59.3156 0.673237 56.7632 2.74126 56.7632 5.7015V5.75064C56.7632 8.92638 58.906 10.0266 62.8528 10.9415C66.2088 11.6976 67.2369 12.3706 67.2369 13.8752V13.9244C67.2369 15.3913 65.8228 16.3743 63.7155 16.3743C61.6081 16.3743 59.7528 15.6786 57.807 14.1059L56.0935 16.1058Z" fill="white"/>
<path d="M74.2167 9.80326V9.75034C74.2167 4.68806 78.2857 0.446167 84.0445 0.446167C89.8032 0.446167 93.8092 4.63512 93.8092 9.70119V9.75034C93.8092 14.8126 89.7402 19.0545 83.9814 19.0545C78.2227 19.0545 74.2089 14.8655 74.2089 9.80326M90.3586 9.80326V9.75034C90.3586 6.25702 87.7077 3.34971 83.9854 3.34971C80.2631 3.34971 77.683 6.20409 77.683 9.70119V9.75034C77.683 13.2474 80.334 16.1245 84.0563 16.1245C87.7786 16.1245 90.3586 13.2966 90.3586 9.80326Z" fill="white"/>
<path d="M83.9893 19.2437C78.3054 19.2437 74.0198 15.187 74.0198 9.79204V9.73912C74.0138 8.47998 74.27 7.23237 74.7733 6.06958C75.2767 4.9068 76.017 3.85226 76.9509 2.96791C77.8847 2.08355 78.9933 1.38722 80.2114 0.919784C81.4296 0.452349 82.7328 0.22324 84.0444 0.245918C89.7284 0.245918 94.014 4.30633 94.014 9.69753V9.74668C94.014 15.0698 89.6141 19.2399 83.9893 19.2399M84.0444 0.631551C78.5535 0.631551 74.4137 4.55207 74.4137 9.74668V9.79961C74.4137 14.964 78.5299 18.8732 83.9893 18.8732C89.4487 18.8732 93.624 14.9564 93.624 9.75802V9.70887C93.624 4.54073 89.5038 0.635324 84.0444 0.635324M84.0444 16.3137C80.2985 16.3137 77.4742 13.4933 77.4742 9.75046V9.70131C77.4742 5.9736 80.2748 3.1608 83.9893 3.1608C87.7037 3.1608 90.5595 6.05677 90.5595 9.75046V9.80338C90.5595 13.516 87.7589 16.3137 84.0444 16.3137ZM83.9893 3.53887C80.4994 3.53887 77.8681 6.18531 77.8681 9.70131V9.75046C77.8681 13.2778 80.523 15.9356 84.0444 15.9356C87.5659 15.9356 90.1656 13.2891 90.1656 9.80338V9.75046C90.1656 6.21178 87.5107 3.53887 83.9893 3.53887Z" fill="white"/>
<path d="M98.6422 0.756836H101.695L111.735 13.1952V0.756836H114.973V18.7451H112.216L101.88 5.94766V18.7451H98.6422V0.756836Z" fill="white"/>
<path d="M115.17 18.9379H112.121L112.062 18.8623L102.081 6.49958V18.9379H98.4493V0.567749H101.794L111.535 12.6431V0.567749H115.166L115.17 18.9379ZM112.314 18.5598H114.776V0.945813H111.928V13.7471L101.597 0.945813H98.8393V18.5598H101.687V5.39564L112.314 18.5598Z" fill="white"/>
<path d="M1.71606 1.53155V12.6731C1.71606 12.6731 2.5787 19.7656 12.7452 18.9679C12.7452 18.9679 18.823 18.6881 19.5044 14.2572C20.1859 9.82627 19.8432 1.06653 19.8432 1.06653H14.0529L13.8087 12.5786L12.8555 14.9377C12.8555 14.9377 8.56593 16.5407 7.93176 12.813C7.44333 9.93592 7.69148 1.44081 7.69148 1.44081L1.71606 1.53155Z" fill="#F7A61D"/>
<path d="M20.5443 0.284546C18.0273 0.284546 15.5063 0.284546 12.9893 0.284546C12.753 0.284546 12.753 0.284548 12.753 0.522728C12.753 4.42435 12.753 8.32346 12.753 12.22C12.7593 13.33 12.3599 14.407 11.6244 15.2635C10.8889 16.12 9.86373 16.702 8.72737 16.908C7.81695 17.0848 6.87232 16.9979 6.01341 16.6585C5.41439 16.4343 4.86814 16.0974 4.40679 15.6676C3.94544 15.2378 3.57833 14.7238 3.32705 14.1557C3.04796 13.5444 2.90571 12.8837 2.90952 12.2163C2.90952 9.82689 2.90952 4.71168 2.90952 2.32609C4.73326 2.32609 4.62297 2.32609 6.45459 2.32609C6.65154 2.32609 6.6791 2.3828 6.6791 2.55293C6.6791 5.53586 6.6791 8.51879 6.6791 11.5055C6.67816 11.9944 6.75115 12.4809 6.89575 12.9497C7.01884 13.4475 7.27729 13.905 7.64473 14.2756C8.01218 14.6462 8.47547 14.9166 8.98734 15.0593C9.26146 15.1582 9.55346 15.2032 9.84604 15.1916C9.81059 15.1387 9.7909 15.1009 9.76727 15.0707C9.1171 14.2074 8.77826 13.164 8.80221 12.0991C8.80221 8.23524 8.80221 4.37142 8.80221 0.507603C8.80221 0.345035 8.77464 0.288334 8.58951 0.292115C7.73869 0.292115 6.88787 0.292115 6.04099 0.292115C3.67761 0.292115 3.39401 0.292115 1.01487 0.292115C0.849436 0.292115 0.798226 0.333697 0.802165 0.500045C0.802165 0.931039 0.802165 10.2541 0.802165 12.0612C0.778287 12.8453 0.892815 13.6276 1.14091 14.375C1.26764 14.7665 1.43113 15.1461 1.62935 15.5092C2.18733 16.488 2.98154 17.3241 3.94546 17.9477C4.29042 18.1779 4.65859 18.3742 5.04443 18.5337C5.56353 18.7386 6.1054 18.8858 6.65941 18.9723C7.54133 19.1105 8.44198 19.0951 9.31822 18.9269C10.0306 18.7796 10.7141 18.5244 11.3429 18.1708C11.8868 17.8676 12.3873 17.4978 12.8318 17.0706C13.6078 16.3393 14.1888 15.4393 14.5255 14.4468C14.7719 13.7739 14.8971 13.0656 14.8958 12.3524C14.8958 9.07581 14.8958 5.79925 14.8958 2.52269C14.8958 2.37147 14.9273 2.32232 15.0967 2.32232C16.2075 2.32232 17.3222 2.32232 18.4369 2.32232C18.6299 2.32232 18.6654 2.37525 18.6654 2.54538C18.6654 5.89251 18.6654 9.23712 18.6654 12.5792C18.6743 13.1681 18.6014 13.7555 18.4487 14.3259C18.2725 14.9922 17.9693 15.6216 17.5546 16.1822C17.0218 16.897 16.3454 17.5024 15.5654 17.9628C14.6759 18.4718 13.6909 18.8084 12.6663 18.9534L12.7491 18.9761C13.4025 19.0615 14.0651 19.0615 14.7185 18.9761C15.5036 18.8758 16.2646 18.6455 16.9677 18.2955C18.2394 17.6764 19.2808 16.6953 19.9495 15.4865C20.1943 15.0455 20.3923 14.5819 20.5403 14.1028C20.7148 13.5062 20.7996 12.8888 20.7924 12.2692C20.7924 9.24468 20.7649 0.832739 20.7924 0.48492C20.7924 0.314791 20.7412 0.284546 20.5797 0.284546" fill="white"/>
<path d="M8.96761 13.4597C8.96761 13.4597 9.21578 14.7905 11.6579 15.2442C11.6579 15.2442 9.25122 15.524 8.03408 14.609C6.81694 13.6941 8.96761 13.4748 8.96761 13.4748" fill="white"/>
<path d="M9.23142 18.9151C9.23142 18.9151 12.1187 19.1041 13.8006 18.6996L15.1281 18.9075C13.1779 19.2817 11.1698 19.2817 9.2196 18.9075" fill="white"/>
</svg>
