<svg width="116" height="28" viewBox="0 0 116 28" fill="none" xmlns="http://www.w3.org/2000/svg">
<path d="M0.758789 26.2857V24.1626H1.57416V26.266C1.57416 26.8687 1.87746 27.1838 2.36195 27.1838C2.84645 27.1838 3.14975 26.8805 3.14975 26.2896V24.1626H4.00057V26.2581C4.00057 27.3847 3.36639 27.9361 2.36983 27.9361C1.37327 27.9361 0.762732 27.3807 0.762732 26.2857" fill="#24488C"/>
<path d="M4.88684 24.1626H5.63918L7.38021 26.4472V24.1626H8.1877V27.877H7.4905L5.69433 25.5137V27.877H4.88684V24.1626Z" fill="#24488C"/>
<path d="M9.12122 24.1626H10.6417C11.5279 24.1626 12.0636 24.6865 12.0636 25.4467C12.0636 26.3054 11.394 26.7505 10.5629 26.7505H9.9484V27.8652H9.12122V24.1626ZM10.5865 26.0375C10.6671 26.0481 10.749 26.0415 10.8268 26.0181C10.9046 25.9948 10.9766 25.9552 11.038 25.9019C11.0994 25.8487 11.1489 25.7831 11.1831 25.7094C11.2173 25.6357 11.2355 25.5555 11.2364 25.4743C11.2364 25.1079 10.9804 24.911 10.5708 24.911H9.94052V26.0494L10.5865 26.0375Z" fill="#24488C"/>
<path d="M13.6391 24.1353H14.3954L15.971 27.8773H15.1162L14.7775 27.0461H13.2019L12.8631 27.8773H12.0281L13.6391 24.1353ZM14.5017 26.3214L14.0054 25.12L13.5131 26.3214H14.5017Z" fill="#24488C"/>
<path d="M16.6055 24.1633H18.3032C18.5009 24.1532 18.6986 24.1829 18.8847 24.2505C19.0707 24.3182 19.2413 24.4225 19.3864 24.5572C19.4926 24.6705 19.5755 24.8036 19.6302 24.9489C19.6849 25.0942 19.7105 25.2489 19.7054 25.4041C19.7175 25.6555 19.6471 25.9039 19.5048 26.1115C19.3626 26.3192 19.1564 26.4746 18.9176 26.5542L19.8236 27.8817H18.8664L18.0786 26.7H17.4366V27.8817H16.6055V24.1633ZM18.248 25.9673C18.6419 25.9673 18.8743 25.7546 18.8743 25.4435C18.8743 25.0929 18.6301 24.9117 18.2323 24.9117H17.4208V25.9792L18.248 25.9673Z" fill="#24488C"/>
<path d="M21.781 24.1353H22.5333L24.1089 27.8773H23.2542L22.9154 27.0461H21.3398L21.0011 27.8773H20.166L21.781 24.1353ZM22.6397 26.3214L22.1473 25.12L21.651 26.3214H22.6397Z" fill="#24488C"/>
<path d="M24.755 24.1626H25.5743V27.1326H27.4256V27.877H24.755V24.1626Z" fill="#24488C"/>
<path d="M28.0991 24.1626H28.9145V27.1326H30.7697V27.877H28.0991V24.1626Z" fill="#24488C"/>
<path d="M31.4396 24.1626H34.2441V24.8874H32.2549V25.6436H34.0038V26.3684H32.2549V27.1483H34.2717V27.877H31.4396V24.1626Z" fill="#24488C"/>
<path d="M35.0515 24.1626H35.8669V27.1326H37.7182V27.877H35.0515V24.1626Z" fill="#24488C"/>
<path d="M38.3877 24.1626H41.1883V24.8874H39.1991V25.6436H40.948V26.3684H39.1991V27.1483H41.2159V27.877H38.3877V24.1626Z" fill="#24488C"/>
<path d="M41.9921 24.1637H43.4416C43.694 24.1481 43.9469 24.1843 44.1848 24.27C44.4228 24.3558 44.6406 24.4893 44.8251 24.6623C45.0095 24.8353 45.1567 25.0442 45.2574 25.2761C45.3582 25.5081 45.4105 25.7582 45.4111 26.011C45.411 26.2644 45.3591 26.5151 45.2586 26.7477C45.1581 26.9803 45.0111 27.19 44.8267 27.3637C44.6423 27.5374 44.4243 27.6716 44.1861 27.7581C43.9479 27.8445 43.6945 27.8813 43.4416 27.8663H41.9921V24.1637ZM43.4416 27.1415C43.5902 27.15 43.739 27.1271 43.8782 27.0744C44.0174 27.0217 44.144 26.9404 44.2498 26.8357C44.3557 26.731 44.4383 26.6053 44.4925 26.4666C44.5466 26.3279 44.5711 26.1794 44.5642 26.0307C44.5722 25.8812 44.5486 25.7317 44.4949 25.5919C44.4413 25.4521 44.3589 25.3252 44.2531 25.2193C44.1472 25.1134 44.0202 25.031 43.8804 24.9774C43.7406 24.9238 43.5911 24.9002 43.4416 24.9081H42.8114V27.1612L43.4416 27.1415Z" fill="#24488C"/>
<path d="M48.7039 24.1626H47.8885V27.877H48.7039V24.1626Z" fill="#24488C"/>
<path d="M49.6887 24.1626H50.4411L52.1821 26.4472V24.1626H52.9896V27.877H52.2924L50.4962 25.5137V27.877H49.6887V24.1626Z" fill="#24488C"/>
<path d="M53.6827 27.3379L54.1632 26.7589C54.4666 27.0391 54.8612 27.2 55.274 27.2118C55.6089 27.2118 55.8097 27.0779 55.8097 26.8613C55.8097 26.6525 55.6837 26.5462 55.0613 26.3886C54.3129 26.1956 53.8324 25.9947 53.8324 25.2542C53.8324 24.5806 54.372 24.1355 55.1322 24.1355C55.6328 24.1278 56.1203 24.295 56.5109 24.6082L56.0855 25.1911C55.8083 24.9741 55.4718 24.8463 55.1204 24.8248C54.8053 24.8248 54.6438 24.9666 54.6438 25.1478C54.6438 25.392 54.8014 25.4708 55.4316 25.6363C56.1839 25.8332 56.6133 26.101 56.6133 26.751C56.6133 27.4915 56.05 27.9051 55.2504 27.9051C54.67 27.907 54.1091 27.6953 53.6748 27.3103" fill="#24488C"/>
<path d="M57.3342 26.2857V24.1626H58.1496V26.266C58.1496 26.8687 58.4529 27.1838 58.9374 27.1838C59.4219 27.1838 59.7252 26.8805 59.7252 26.2896V24.1626H60.5405V26.2581C60.5405 27.3847 59.9103 27.9361 58.9137 27.9361C57.9172 27.9361 57.3066 27.3807 57.3066 26.2857" fill="#24488C"/>
<path d="M61.4542 24.1633H63.1519C63.3496 24.1532 63.5474 24.1829 63.7334 24.2505C63.9195 24.3182 64.0901 24.4225 64.2351 24.5572C64.3428 24.6694 64.4266 24.8024 64.4815 24.9479C64.5363 25.0935 64.5611 25.2487 64.5542 25.4041C64.5669 25.6556 64.4967 25.9043 64.3544 26.1121C64.2121 26.3199 64.0055 26.4752 63.7664 26.5542L64.6724 27.8817H63.7191L62.9313 26.7H62.2893V27.8817H61.47L61.4542 24.1633ZM63.085 25.9792C63.4789 25.9792 63.7113 25.7665 63.7113 25.4553C63.7113 25.1047 63.467 24.9235 63.0692 24.9235H62.2578V25.9792H63.085Z" fill="#24488C"/>
<path d="M66.6302 24.1353H67.3825L68.9778 27.8773H68.1231L67.7843 27.0461H66.2087L65.87 27.8773H65.0349L66.6302 24.1353ZM67.4928 26.3214L66.9965 25.12L66.5041 26.3214H67.4928Z" fill="#24488C"/>
<path d="M69.6002 24.1626H70.3526L72.0936 26.4472V24.1626H72.9011V27.877H72.2039L70.4077 25.5137V27.877H69.6002V24.1626Z" fill="#24488C"/>
<path d="M73.685 26.0308C73.6806 25.7758 73.7279 25.5226 73.824 25.2864C73.92 25.0502 74.0629 24.8359 74.2439 24.6563C74.425 24.4767 74.6405 24.3356 74.8775 24.2415C75.1144 24.1474 75.368 24.1022 75.6229 24.1086C75.8936 24.0951 76.1641 24.139 76.4167 24.2374C76.6692 24.3359 76.8981 24.4866 77.0882 24.6797L76.5683 25.2824C76.3179 25.0226 75.9757 24.8713 75.6151 24.8609C75.4676 24.8639 75.3223 24.8965 75.1877 24.9568C75.0532 25.0171 74.9321 25.1038 74.8318 25.2119C74.7314 25.3199 74.6539 25.4471 74.6037 25.5857C74.5535 25.7244 74.5318 25.8717 74.5397 26.019C74.529 26.168 74.5487 26.3177 74.5976 26.4589C74.6465 26.6001 74.7235 26.7298 74.8241 26.8403C74.9246 26.9508 75.0466 27.0398 75.1826 27.1017C75.3185 27.1636 75.4657 27.1973 75.6151 27.2007C75.7989 27.1991 75.9804 27.1599 76.1484 27.0854C76.3165 27.0108 76.4674 26.9026 76.5919 26.7674L77.1119 27.2913C76.8489 27.5811 76.5056 27.7861 76.1257 27.8801C75.7458 27.974 75.3465 27.9526 74.9788 27.8186C74.6111 27.6846 74.2916 27.4441 74.0612 27.1278C73.8307 26.8115 73.6998 26.4337 73.685 26.0426" fill="#24488C"/>
<path d="M77.8248 24.1626H80.6254V24.8874H78.6363V25.6436H80.3852V26.3684H78.6363V27.1483H80.653V27.877H77.8248V24.1626Z" fill="#24488C"/>
<path d="M82.8311 27.3379L83.3156 26.7589C83.6172 27.0395 84.0107 27.2005 84.4225 27.2119C84.7573 27.2119 84.9582 27.078 84.9582 26.8613C84.9582 26.6525 84.8321 26.5462 84.2098 26.3886C83.4614 26.1956 82.9808 25.9947 82.9808 25.2542C82.9808 24.5807 83.5204 24.1356 84.2807 24.1356C84.7813 24.1272 85.2691 24.2944 85.6593 24.6082L85.2339 25.1912C84.957 24.9737 84.6203 24.8459 84.2688 24.8249C83.9577 24.8249 83.7922 24.9667 83.7922 25.1479C83.7922 25.3921 83.9498 25.4709 84.58 25.6363C85.3363 25.8332 85.7617 26.1011 85.7617 26.751C85.7617 27.4915 85.2024 27.9052 84.3988 27.9052C83.8184 27.9071 83.2576 27.6954 82.8232 27.3104" fill="#24488C"/>
<path d="M86.3762 26.0305C86.3762 25.5082 86.5837 25.0072 86.9531 24.6379C87.3224 24.2685 87.8234 24.061 88.3457 24.061C88.868 24.061 89.369 24.2685 89.7383 24.6379C90.1077 25.0072 90.3152 25.5082 90.3152 26.0305C90.3152 26.5529 90.1077 27.0538 89.7383 27.4232C89.369 27.7925 88.868 28 88.3457 28C87.8234 28 87.3224 27.7925 86.9531 27.4232C86.5837 27.0538 86.3762 26.5529 86.3762 26.0305ZM89.4683 26.0305C89.4758 25.8783 89.4523 25.7262 89.3993 25.5834C89.3463 25.4405 89.2648 25.3099 89.1599 25.1995C89.0549 25.089 88.9287 25.001 88.7887 24.9407C88.6488 24.8804 88.4981 24.8492 88.3457 24.8488C88.1954 24.8482 88.0466 24.878 87.9082 24.9365C87.7698 24.995 87.6447 25.081 87.5405 25.1893C87.4363 25.2975 87.3551 25.4258 87.3019 25.5663C87.2487 25.7069 87.2246 25.8568 87.231 26.0069C87.2235 26.1591 87.247 26.3112 87.3 26.454C87.353 26.5969 87.4345 26.7275 87.5394 26.8379C87.6444 26.9484 87.7706 27.0364 87.9106 27.0967C88.0505 27.157 88.2012 27.1882 88.3536 27.1886C88.5038 27.1892 88.6527 27.1594 88.7911 27.1009C88.9295 27.0424 89.0546 26.9564 89.1588 26.8481C89.263 26.7399 89.3442 26.6116 89.3974 26.4711C89.4506 26.3305 89.4747 26.1807 89.4683 26.0305Z" fill="#24488C"/>
<path d="M91.1069 24.1626H91.9262V27.1326H93.7776V27.877H91.1069V24.1626Z" fill="#24488C"/>
<path d="M94.2936 26.2857V24.1626H95.1089V26.266C95.1089 26.8687 95.4122 27.1838 95.8967 27.1838C96.3812 27.1838 96.6845 26.8805 96.6845 26.2896V24.1626H97.4999V26.2581C97.4999 27.3847 96.8697 27.9361 95.8731 27.9361C94.8765 27.9361 94.266 27.3807 94.266 26.2857" fill="#24488C"/>
<path d="M99.2803 24.9149H98.1498V24.1626H101.226V24.9149H100.096V27.877H99.2803V24.9149Z" fill="#24488C"/>
<path d="M102.762 24.1626H101.947V27.877H102.762V24.1626Z" fill="#24488C"/>
<path d="M103.586 26.0303C103.586 25.7739 103.637 25.52 103.736 25.2836C103.836 25.0473 103.982 24.8333 104.165 24.6541C104.349 24.475 104.566 24.3344 104.805 24.2406C105.044 24.1469 105.299 24.1018 105.555 24.1081C105.811 24.0991 106.067 24.1419 106.306 24.234C106.545 24.326 106.763 24.4654 106.947 24.6438C107.131 24.8223 107.277 25.036 107.376 25.2722C107.475 25.5084 107.526 25.7623 107.525 26.0185C107.525 26.5409 107.317 27.0418 106.948 27.4111C106.578 27.7805 106.078 27.988 105.555 27.988C105.033 27.988 104.532 27.7805 104.163 27.4111C103.793 27.0418 103.586 26.5409 103.586 26.0185M106.682 26.0185C106.689 25.8661 106.665 25.7139 106.611 25.5711C106.558 25.4282 106.476 25.2977 106.371 25.1873C106.265 25.0769 106.139 24.9889 105.999 24.9287C105.859 24.8684 105.708 24.8372 105.555 24.8368C105.405 24.8362 105.256 24.866 105.118 24.9245C104.979 24.983 104.854 25.069 104.75 25.1773C104.646 25.2855 104.565 25.4138 104.511 25.5543C104.458 25.6949 104.434 25.8448 104.44 25.9949C104.434 26.1473 104.458 26.2995 104.511 26.4423C104.564 26.5852 104.646 26.7157 104.752 26.8261C104.857 26.9365 104.983 27.0245 105.123 27.0847C105.264 27.145 105.414 27.1762 105.567 27.1766C105.717 27.1772 105.866 27.1474 106.005 27.0889C106.143 27.0304 106.268 26.9444 106.372 26.8361C106.476 26.7279 106.558 26.5996 106.611 26.4591C106.664 26.3185 106.688 26.1686 106.682 26.0185Z" fill="#24488C"/>
<path d="M108.32 24.1626H109.073L110.814 26.4472V24.1626H111.621V27.877H110.924L109.128 25.5137V27.877H108.32V24.1626Z" fill="#24488C"/>
<path d="M112.322 27.3379L112.803 26.7589C113.106 27.0391 113.501 27.2 113.914 27.2118C114.248 27.2118 114.449 27.0779 114.449 26.8613C114.449 26.6525 114.323 26.5462 113.701 26.3886C112.953 26.1956 112.472 25.9947 112.472 25.2542C112.472 24.5806 113.012 24.1355 113.772 24.1355C114.272 24.1278 114.76 24.295 115.15 24.6082L114.713 25.1911C114.436 24.9741 114.1 24.8463 113.748 24.8248C113.433 24.8248 113.272 24.9666 113.272 25.1478C113.272 25.392 113.429 25.4708 114.059 25.6363C114.812 25.8332 115.241 26.101 115.241 26.751C115.241 27.4915 114.678 27.9051 113.878 27.9051C113.298 27.907 112.737 27.6953 112.303 27.3103" fill="#24488C"/>
<path d="M25.7712 0.533936H28.8239L38.8644 13.4931V0.533936H42.1061V19.2756H39.3489L29.0091 5.94214V19.2756H25.7712V0.533936Z" fill="#24488C"/>
<path d="M42.3032 19.4764H39.2505L29.2101 6.51716V19.4764H25.5784V0.336914H28.9226L38.6636 12.918V0.336914H42.2993L42.3032 19.4764ZM39.4436 19.0825H41.9093V0.730811H39.0575V14.0682L28.7256 0.730811H25.9683V19.0825H28.8162V5.36699L39.4436 19.0825Z" fill="#24488C"/>
<path d="M51.2367 0.533936H47.9437V19.2795H51.2367V0.533936Z" fill="#24488C"/>
<path d="M51.4336 19.4764H47.7467V0.336914H51.4336V19.4764ZM48.1406 19.0825H51.0436V0.730811H48.1406V19.0825Z" fill="#24488C"/>
<path d="M55.8177 16.5447L57.7872 14.1813C59.5834 15.7333 61.4032 16.6195 63.6957 16.6195C65.7321 16.6195 67.0202 15.6545 67.0202 14.2562V14.201C67.0202 12.8618 66.2678 12.137 62.7858 11.3334C58.7956 10.3723 56.5465 9.19458 56.5465 5.74011V5.68497C56.5465 2.47077 59.225 0.24918 62.9473 0.24918C65.4238 0.202304 67.8359 1.04031 69.7499 2.61256L68.001 5.10199C66.3151 3.84546 64.6292 3.17583 62.9118 3.17583C60.9857 3.17583 59.8591 4.16452 59.8591 5.39742V5.45257C59.8591 6.89817 60.7178 7.54022 64.3338 8.39891C68.2964 9.36002 70.3329 10.7623 70.3329 13.8859V13.941C70.3329 17.4467 67.5756 19.5344 63.6366 19.5344C60.747 19.5489 57.9571 18.4793 55.8177 16.5368" fill="#24488C"/>
<path d="M63.6367 19.7438C60.6996 19.7543 57.8646 18.6669 55.6878 16.6951L55.546 16.5651L57.7755 13.9102L57.9291 14.0402C59.8356 15.6946 61.6239 16.4312 63.7155 16.4312C65.614 16.4312 66.843 15.5803 66.843 14.2687V14.2175C66.843 13.0358 66.2285 12.3425 62.7622 11.5429C58.713 10.566 56.3693 9.30555 56.3693 5.7526V5.70139C56.3693 2.38478 59.0832 0.0686701 62.9671 0.0686701C65.4866 0.022643 67.9406 0.872756 69.8918 2.4675L70.0375 2.58567L68.0444 5.39022L67.8829 5.26812C66.1812 3.99977 64.5545 3.38135 62.9119 3.38135C61.2063 3.38135 60.0561 4.19277 60.0561 5.40597V5.46112C60.0561 6.73735 60.71 7.34395 64.389 8.2184C68.7573 9.28192 70.5378 10.9245 70.5378 13.8984V13.9535C70.5378 17.471 67.8356 19.7478 63.6485 19.7478M56.0935 16.5257C58.179 18.3562 60.8619 19.3607 63.6367 19.3499C67.5756 19.3499 70.136 17.2268 70.136 13.9496V13.8945C70.136 11.1057 68.4934 9.62067 64.2866 8.59654C60.6588 7.73784 59.6622 7.06034 59.6622 5.44536V5.39022C59.6622 3.96432 61.0015 2.97169 62.9119 2.97169C64.5899 2.97169 66.2403 3.57435 67.9577 4.81907L69.5018 2.64476C67.6481 1.16947 65.3355 0.391607 62.9671 0.446808C59.3156 0.446808 56.7632 2.60143 56.7632 5.68565V5.73684C56.7632 9.04558 58.906 10.1918 62.8528 11.1451C66.2088 11.9328 67.2369 12.634 67.2369 14.2017V14.2529C67.2369 15.7812 65.8228 16.8054 63.7155 16.8054C61.6081 16.8054 59.7528 16.0806 57.807 14.442L56.0935 16.5257Z" fill="#24488C"/>
<path d="M74.2167 9.95916V9.90402C74.2167 4.62974 78.2857 0.210205 84.0445 0.210205C89.8032 0.210205 93.8092 4.57459 93.8092 9.85281V9.90402C93.8092 15.1783 89.7402 19.5978 83.9814 19.5978C78.2227 19.5978 74.2089 15.2334 74.2089 9.95916M90.3586 9.95916V9.90402C90.3586 6.26441 87.7077 3.23534 83.9854 3.23534C80.2631 3.23534 77.683 6.20926 77.683 9.85281V9.90402C77.683 13.5476 80.334 16.5451 84.0563 16.5451C87.7786 16.5451 90.3586 13.5988 90.3586 9.95916Z" fill="#24488C"/>
<path d="M83.9893 19.7949C78.3054 19.7949 74.0198 15.5684 74.0198 9.9475V9.89236C74.0138 8.58048 74.27 7.28063 74.7733 6.06915C75.2767 4.85766 76.017 3.75896 76.9509 2.83758C77.8847 1.91619 78.9933 1.19069 80.2114 0.703683C81.4296 0.216673 82.7328 -0.0220303 84.0444 0.00159735C89.7284 0.00159735 94.014 4.23205 94.014 9.84902V9.90023C94.014 15.4463 89.6141 19.791 83.9893 19.791M84.0444 0.40338C78.5535 0.40338 74.4137 4.48809 74.4137 9.90023V9.95538C74.4137 15.336 78.5299 19.4089 83.9893 19.4089C89.4487 19.4089 93.624 15.3281 93.624 9.91205V9.86084C93.624 4.47627 89.5038 0.407311 84.0444 0.407311M84.0444 16.7422C80.2985 16.7422 77.4742 13.8038 77.4742 9.90417V9.85297C77.4742 5.96914 80.2748 3.03855 83.9893 3.03855C87.7037 3.03855 90.5595 6.0558 90.5595 9.90417V9.95931C90.5595 13.8274 87.7589 16.7422 84.0444 16.7422ZM83.9893 3.43245C80.4994 3.43245 77.8681 6.18972 77.8681 9.85297V9.90417C77.8681 13.5792 80.523 16.3483 84.0444 16.3483C87.5659 16.3483 90.1656 13.591 90.1656 9.95931V9.90417C90.1656 6.2173 87.5107 3.43245 83.9893 3.43245Z" fill="#24488C"/>
<path d="M98.6422 0.533936H101.695L111.735 13.4931V0.533936H114.973V19.2756H112.216L101.88 5.94214V19.2756H98.6422V0.533936Z" fill="#24488C"/>
<path d="M115.17 19.4764H112.121L112.062 19.3976L102.081 6.51716V19.4764H98.4493V0.336914H101.794L111.535 12.918V0.336914H115.166L115.17 19.4764ZM112.314 19.0825H114.776V0.730811H111.928V14.0682L101.597 0.730811H98.8393V19.0825H101.687V5.36699L112.314 19.0825Z" fill="#24488C"/>
<path d="M1.71606 1.34119V12.9493C1.71606 12.9493 2.5787 20.3388 12.7452 19.5077C12.7452 19.5077 18.823 19.2162 19.5044 14.5998C20.1859 9.98328 19.8432 0.856689 19.8432 0.856689H14.0529L13.8087 12.8509L12.8555 15.3088C12.8555 15.3088 8.56593 16.9789 7.93176 13.0951C7.44333 10.0975 7.69148 1.24664 7.69148 1.24664L1.71606 1.34119Z" fill="#F7A61D"/>
<path d="M20.5443 0.041748C18.0273 0.041748 15.5063 0.041748 12.9893 0.041748C12.753 0.041748 12.753 0.04175 12.753 0.289905C12.753 4.35492 12.753 8.41731 12.753 12.4771C12.7593 13.6335 12.3599 14.7556 11.6244 15.648C10.8889 16.5404 9.86373 17.1467 8.72737 17.3614C7.81695 17.5456 6.87232 17.4551 6.01341 17.1014C5.41439 16.8679 4.86814 16.5169 4.40679 16.069C3.94544 15.6212 3.57833 15.0856 3.32705 14.4938C3.04796 13.8569 2.90571 13.1685 2.90952 12.4731C2.90952 9.98371 2.90952 4.65428 2.90952 2.16879C4.73326 2.16879 4.62297 2.16879 6.45459 2.16879C6.65154 2.16879 6.6791 2.22788 6.6791 2.40513C6.6791 5.51298 6.6791 8.62082 6.6791 11.7326C6.67816 12.242 6.75115 12.7489 6.89575 13.2373C7.01884 13.7559 7.27729 14.2326 7.64473 14.6187C8.01218 15.0049 8.47547 15.2866 8.98734 15.4353C9.26146 15.5383 9.55346 15.5851 9.84604 15.5731C9.81059 15.518 9.7909 15.4786 9.76727 15.4471C9.1171 14.5476 8.77826 13.4606 8.80221 12.351C8.80221 8.3254 8.80221 4.29977 8.80221 0.274146C8.80221 0.10477 8.77464 0.0456947 8.58951 0.0496337C7.73869 0.0496337 6.88787 0.0496337 6.04099 0.0496337C3.67761 0.0496337 3.39401 0.0496337 1.01487 0.0496337C0.849436 0.0496337 0.798226 0.0929575 0.802165 0.266272C0.802165 0.715315 0.802165 10.4288 0.802165 12.3116C0.778287 13.1285 0.892815 13.9436 1.14091 14.7223C1.26764 15.1302 1.43113 15.5257 1.62935 15.904C2.18733 16.9237 2.98154 17.7949 3.94546 18.4446C4.29042 18.6844 4.65859 18.889 5.04443 19.0552C5.56353 19.2687 6.1054 19.422 6.65941 19.5121C7.54133 19.6561 8.44198 19.6401 9.31822 19.4648C10.0306 19.3113 10.7141 19.0454 11.3429 18.677C11.8868 18.3612 12.3873 17.9758 12.8318 17.5308C13.6078 16.7689 14.1888 15.8312 14.5255 14.7971C14.7719 14.096 14.8971 13.3581 14.8958 12.6149C14.8958 9.20117 14.8958 5.7874 14.8958 2.37362C14.8958 2.21606 14.9273 2.16486 15.0967 2.16486C16.2075 2.16486 17.3222 2.16486 18.4369 2.16486C18.6299 2.16486 18.6654 2.22 18.6654 2.39726C18.6654 5.88456 18.6654 9.36924 18.6654 12.8513C18.6743 13.4648 18.6014 14.0768 18.4487 14.6711C18.2725 15.3654 17.9693 16.0211 17.5546 16.6051C17.0218 17.3499 16.3454 17.9806 15.5654 18.4604C14.6759 18.9907 13.6909 19.3413 12.6663 19.4924L12.7491 19.516C13.4025 19.605 14.0651 19.605 14.7185 19.516C15.5036 19.4116 16.2646 19.1717 16.9677 18.807C18.2394 18.1619 19.2808 17.1398 19.9495 15.8803C20.1943 15.4208 20.3923 14.9379 20.5403 14.4387C20.7148 13.8171 20.7996 13.1738 20.7924 12.5283C20.7924 9.37711 20.7649 0.612898 20.7924 0.250513C20.7924 0.0732593 20.7412 0.041748 20.5797 0.041748" fill="#24488C"/>
<path d="M8.96761 13.7688C8.96761 13.7688 9.21578 15.1553 11.6579 15.628C11.6579 15.628 9.25122 15.9195 8.03408 14.9662C6.81694 14.013 8.96761 13.7846 8.96761 13.7846" fill="#24488C"/>
<path d="M9.23142 19.4526C9.23142 19.4526 12.1187 19.6495 13.8006 19.228L15.1281 19.4447C13.1779 19.8345 11.1698 19.8345 9.2196 19.4447" fill="#24488C"/>
</svg>
