<svg width="159" height="40" viewBox="0 0 159 40" fill="none" xmlns="http://www.w3.org/2000/svg">
<path d="M0 36.9737V34.0405H1.12647V36.9465C1.12647 37.7791 1.54549 38.2144 2.21484 38.2144C2.88419 38.2144 3.30321 37.7954 3.30321 36.9791V34.0405H4.47865V36.9356C4.47865 38.492 3.60251 39.2538 2.22572 39.2538C0.848928 39.2538 0.00544717 38.4865 0.00544717 36.9737" fill="#24488C"/>
<path d="M5.70312 34.0405H6.74252L9.14782 37.1968V34.0405H10.2634V39.1722H9.30019L6.81871 35.9071V39.1722H5.70312V34.0405Z" fill="#24488C"/>
<path d="M11.5527 34.0405H13.6533C14.8777 34.0405 15.6178 34.7643 15.6178 35.8146C15.6178 37.0009 14.6927 37.6158 13.5445 37.6158H12.6955V39.1559H11.5527V34.0405ZM13.5771 36.6308C13.6884 36.6455 13.8016 36.6363 13.9091 36.604C14.0166 36.5717 14.1161 36.517 14.2009 36.4435C14.2857 36.37 14.354 36.2793 14.4013 36.1775C14.4485 36.0756 14.4737 35.9649 14.475 35.8527C14.475 35.3466 14.1213 35.0745 13.5553 35.0745H12.6846V36.6472L13.5771 36.6308Z" fill="#24488C"/>
<path d="M17.7941 34.0024H18.8389L21.0157 39.1722H19.8348L19.3668 38.024H17.19L16.722 39.1722H15.5684L17.7941 34.0024ZM18.9858 37.0227L18.3002 35.3629L17.6199 37.0227H18.9858Z" fill="#24488C"/>
<path d="M21.8926 34.0412H24.238C24.5112 34.0273 24.7844 34.0683 25.0414 34.1618C25.2984 34.2552 25.5341 34.3993 25.7345 34.5854C25.8813 34.7419 25.9957 34.9258 26.0714 35.1265C26.147 35.3273 26.1823 35.541 26.1753 35.7554C26.192 36.1027 26.0947 36.4459 25.8982 36.7328C25.7017 37.0197 25.4168 37.2345 25.0869 37.3444L26.3386 39.1783H25.0162L23.9278 37.5458H23.0408V39.1783H21.8926V34.0412ZM24.1618 36.5336C24.706 36.5336 25.0271 36.2397 25.0271 35.8098C25.0271 35.3255 24.6897 35.0752 24.1401 35.0752H23.019V36.5499L24.1618 36.5336Z" fill="#24488C"/>
<path d="M29.0437 34.0024H30.083L32.2598 39.1722H31.0789L30.6109 38.024H28.4342L27.9662 39.1722H26.8125L29.0437 34.0024ZM30.23 37.0227L29.5498 35.3629L28.8641 37.0227H30.23Z" fill="#24488C"/>
<path d="M33.1523 34.0405H34.2843V38.1437H36.8419V39.1722H33.1523V34.0405Z" fill="#24488C"/>
<path d="M37.7715 34.0405H38.8979V38.1437H41.4611V39.1722H37.7715V34.0405Z" fill="#24488C"/>
<path d="M42.3867 34.0405H46.2613V35.0418H43.5132V36.0867H45.9294V37.088H43.5132V38.1655H46.2994V39.1722H42.3867V34.0405Z" fill="#24488C"/>
<path d="M47.377 34.0405H48.5034V38.1437H51.0611V39.1722H47.377V34.0405Z" fill="#24488C"/>
<path d="M51.9863 34.0405H55.8555V35.0418H53.1073V36.0867H55.5235V37.088H53.1073V38.1655H55.8936V39.1722H51.9863V34.0405Z" fill="#24488C"/>
<path d="M56.9648 34.042H58.9674C59.3162 34.0205 59.6656 34.0705 59.9943 34.1889C60.323 34.3074 60.624 34.4918 60.8788 34.7308C61.1336 34.9698 61.3369 35.2584 61.4761 35.5789C61.6153 35.8993 61.6876 36.2448 61.6884 36.5942C61.6882 36.9443 61.6166 37.2906 61.4777 37.612C61.3389 37.9333 61.1358 38.2229 60.881 38.4629C60.6262 38.703 60.325 38.8884 59.996 39.0078C59.6669 39.1272 59.3169 39.1781 58.9674 39.1573H56.9648V34.042ZM58.9674 38.156C59.1728 38.1677 59.3783 38.1361 59.5706 38.0633C59.7629 37.9905 59.9379 37.8781 60.0841 37.7335C60.2303 37.5888 60.3445 37.4151 60.4193 37.2236C60.4941 37.032 60.5278 36.8268 60.5184 36.6214C60.5294 36.4148 60.4967 36.2083 60.4227 36.0151C60.3486 35.822 60.2348 35.6466 60.0885 35.5003C59.9422 35.3541 59.7668 35.2402 59.5737 35.1662C59.3806 35.0921 59.174 35.0595 58.9674 35.0705H58.0967V38.1832L58.9674 38.156Z" fill="#24488C"/>
<path d="M66.2378 34.0405H65.1113V39.1722H66.2378V34.0405Z" fill="#24488C"/>
<path d="M67.5996 34.0405H68.639L71.0443 37.1968V34.0405H72.1599V39.1722H71.1967L68.7152 35.9071V39.1722H67.5996V34.0405Z" fill="#24488C"/>
<path d="M73.1164 38.427L73.7803 37.6271C74.1994 38.0142 74.7445 38.2365 75.3149 38.2529C75.7774 38.2529 76.055 38.0679 76.055 37.7685C76.055 37.4801 75.8808 37.3332 75.021 37.1155C73.9871 36.8489 73.3232 36.5713 73.3232 35.5483C73.3232 34.6177 74.0687 34.0028 75.119 34.0028C75.8105 33.9922 76.4841 34.2231 77.0236 34.6558L76.4359 35.4612C76.053 35.1613 75.5881 34.9848 75.1026 34.9551C74.6673 34.9551 74.4442 35.151 74.4442 35.4014C74.4442 35.7387 74.6619 35.8476 75.5325 36.0761C76.5719 36.3482 77.1651 36.7183 77.1651 37.6162C77.1651 38.6392 76.3869 39.2107 75.2822 39.2107C74.4803 39.2133 73.7055 38.9208 73.1055 38.3889" fill="#24488C"/>
<path d="M78.1611 36.9737V34.0405H79.2876V36.9465C79.2876 37.7791 79.7066 38.2144 80.376 38.2144C81.0453 38.2144 81.4644 37.7954 81.4644 36.9791V34.0405H82.5908V36.9356C82.5908 38.492 81.7201 39.2538 80.3433 39.2538C78.9665 39.2538 78.123 38.4865 78.123 36.9737" fill="#24488C"/>
<path d="M83.8535 34.0412H86.199C86.4721 34.0273 86.7453 34.0683 87.0023 34.1618C87.2594 34.2552 87.4951 34.3993 87.6955 34.5854C87.8443 34.7405 87.96 34.9241 88.0358 35.1252C88.1115 35.3263 88.1457 35.5407 88.1363 35.7554C88.1538 36.1029 88.0569 36.4466 87.8603 36.7336C87.6636 37.0207 87.3783 37.2352 87.0479 37.3444L88.2995 39.1783H86.9826L85.8942 37.5458H85.0072V39.1783H83.8753L83.8535 34.0412ZM86.1065 36.5499C86.6506 36.5499 86.9717 36.2561 86.9717 35.8262C86.9717 35.3418 86.6343 35.0915 86.0847 35.0915H84.9637V36.5499H86.1065Z" fill="#24488C"/>
<path d="M91.0047 34.0024H92.0441L94.2481 39.1722H93.0672L92.5992 38.024H90.4224L89.9545 39.1722H88.8008L91.0047 34.0024ZM92.1965 37.0227L91.5108 35.3629L90.8306 37.0227H92.1965Z" fill="#24488C"/>
<path d="M95.1074 34.0405H96.1468L98.5521 37.1968V34.0405H99.6677V39.1722H98.7045L96.223 35.9071V39.1722H95.1074V34.0405Z" fill="#24488C"/>
<path d="M100.75 36.6213C100.744 36.2691 100.81 35.9193 100.942 35.5929C101.075 35.2666 101.272 34.9705 101.523 34.7224C101.773 34.4743 102.07 34.2794 102.398 34.1494C102.725 34.0193 103.076 33.9568 103.428 33.9657C103.802 33.9471 104.175 34.0077 104.524 34.1437C104.873 34.2797 105.189 34.488 105.452 34.7548L104.734 35.5874C104.388 35.2284 103.915 35.0194 103.417 35.0051C103.213 35.0092 103.012 35.0542 102.827 35.1375C102.641 35.2208 102.473 35.3407 102.335 35.49C102.196 35.6392 102.089 35.8149 102.02 36.0065C101.95 36.198 101.92 36.4016 101.931 36.605C101.916 36.8109 101.944 37.0176 102.011 37.2127C102.079 37.4078 102.185 37.5871 102.324 37.7397C102.463 37.8924 102.632 38.0153 102.819 38.1008C103.007 38.1864 103.211 38.2329 103.417 38.2376C103.671 38.2354 103.922 38.1812 104.154 38.0782C104.386 37.9753 104.594 37.8258 104.766 37.6389L105.485 38.3627C105.122 38.7632 104.647 39.0464 104.122 39.1761C103.597 39.3059 103.046 39.2763 102.538 39.0912C102.03 38.9061 101.588 38.5739 101.27 38.1369C100.952 37.6999 100.771 37.1779 100.75 36.6376" fill="#24488C"/>
<path d="M106.471 34.0405H110.34V35.0418H107.592V36.0867H110.008V37.088H107.592V38.1655H110.378V39.1722H106.471V34.0405Z" fill="#24488C"/>
<path d="M113.386 38.4271L114.055 37.6271C114.472 38.0147 115.016 38.2372 115.584 38.2529C116.047 38.2529 116.324 38.0679 116.324 37.7686C116.324 37.4802 116.15 37.3333 115.291 37.1156C114.257 36.8489 113.593 36.5714 113.593 35.5483C113.593 34.6178 114.338 34.0029 115.388 34.0029C116.08 33.9913 116.754 34.2223 117.293 34.6559L116.705 35.4613C116.323 35.1608 115.858 34.9842 115.372 34.9552C114.942 34.9552 114.714 35.1511 114.714 35.4014C114.714 35.7388 114.931 35.8476 115.802 36.0762C116.847 36.3483 117.435 36.7183 117.435 37.6162C117.435 38.6393 116.662 39.2107 115.552 39.2107C114.75 39.2134 113.975 38.9209 113.375 38.389" fill="#24488C"/>
<path d="M118.283 36.6208C118.283 35.8992 118.57 35.2071 119.08 34.6968C119.59 34.1866 120.282 33.8999 121.004 33.8999C121.726 33.8999 122.418 34.1866 122.928 34.6968C123.438 35.2071 123.725 35.8992 123.725 36.6208C123.725 37.3425 123.438 38.0345 122.928 38.5448C122.418 39.0551 121.726 39.3418 121.004 39.3418C120.282 39.3418 119.59 39.0551 119.08 38.5448C118.57 38.0345 118.283 37.3425 118.283 36.6208ZM122.555 36.6208C122.565 36.4106 122.533 36.2004 122.46 36.0031C122.386 35.8057 122.274 35.6253 122.129 35.4727C121.984 35.3201 121.81 35.1985 121.616 35.1152C121.423 35.0319 121.215 34.9888 121.004 34.9883C120.797 34.9873 120.591 35.0285 120.4 35.1094C120.208 35.1902 120.036 35.309 119.892 35.4586C119.748 35.6082 119.636 35.7854 119.562 35.9796C119.489 36.1737 119.455 36.3808 119.464 36.5882C119.454 36.7984 119.486 37.0086 119.559 37.2059C119.633 37.4033 119.745 37.5837 119.89 37.7363C120.035 37.8889 120.21 38.0105 120.403 38.0938C120.596 38.1771 120.805 38.2203 121.015 38.2207C121.223 38.2217 121.428 38.1804 121.619 38.0996C121.811 38.0188 121.983 37.9 122.127 37.7504C122.271 37.6008 122.384 37.4236 122.457 37.2295C122.531 37.0353 122.564 36.8282 122.555 36.6208Z" fill="#24488C"/>
<path d="M124.82 34.0405H125.952V38.1437H128.51V39.1722H124.82V34.0405Z" fill="#24488C"/>
<path d="M129.222 36.9737V34.0405H130.348V36.9465C130.348 37.7791 130.767 38.2144 131.437 38.2144C132.106 38.2144 132.525 37.7954 132.525 36.9791V34.0405H133.651V36.9356C133.651 38.492 132.781 39.2538 131.404 39.2538C130.027 39.2538 129.184 38.4865 129.184 36.9737" fill="#24488C"/>
<path d="M136.113 35.0799H134.551V34.0405H138.801V35.0799H137.239V39.1722H136.113V35.0799Z" fill="#24488C"/>
<path d="M140.921 34.0405H139.795V39.1722H140.921V34.0405Z" fill="#24488C"/>
<path d="M142.061 36.6206C142.06 36.2663 142.131 35.9156 142.269 35.5891C142.406 35.2625 142.608 34.9668 142.861 34.7194C143.115 34.4719 143.415 34.2777 143.745 34.1481C144.075 34.0186 144.427 33.9563 144.781 33.965C145.135 33.9525 145.488 34.0117 145.818 34.1389C146.149 34.2661 146.45 34.4587 146.704 34.7051C146.958 34.9516 147.16 35.2469 147.297 35.5733C147.434 35.8996 147.504 36.2503 147.502 36.6043C147.502 37.3259 147.216 38.018 146.705 38.5283C146.195 39.0386 145.503 39.3252 144.781 39.3252C144.06 39.3252 143.368 39.0386 142.857 38.5283C142.347 38.018 142.061 37.3259 142.061 36.6043M146.338 36.6043C146.347 36.3938 146.314 36.1835 146.24 35.9862C146.167 35.7888 146.053 35.6084 145.908 35.4559C145.763 35.3034 145.588 35.1818 145.394 35.0986C145.201 35.0154 144.992 34.9723 144.781 34.9718C144.574 34.9708 144.368 35.012 144.177 35.0929C143.986 35.1737 143.813 35.2925 143.669 35.4421C143.525 35.5917 143.413 35.7689 143.339 35.963C143.266 36.1572 143.233 36.3642 143.241 36.5717C143.232 36.7822 143.265 36.9925 143.339 37.1898C143.413 37.3872 143.526 37.5676 143.671 37.7201C143.817 37.8726 143.991 37.9941 144.185 38.0773C144.379 38.1605 144.587 38.2037 144.798 38.2042C145.005 38.2051 145.211 38.1639 145.402 38.0831C145.593 38.0022 145.766 37.8834 145.91 37.7339C146.054 37.5843 146.166 37.4071 146.24 37.2129C146.313 37.0188 146.347 36.8117 146.338 36.6043Z" fill="#24488C"/>
<path d="M148.602 34.0405H149.641L152.046 37.1968V34.0405H153.162V39.1722H152.199L149.717 35.9071V39.1722H148.602V34.0405Z" fill="#24488C"/>
<path d="M154.131 38.427L154.795 37.6271C155.214 38.0142 155.759 38.2365 156.329 38.2529C156.792 38.2529 157.069 38.0679 157.069 37.7685C157.069 37.4801 156.895 37.3332 156.035 37.1155C155.001 36.8489 154.338 36.5713 154.338 35.5483C154.338 34.6177 155.083 34.0028 156.133 34.0028C156.825 33.9922 157.498 34.2231 158.038 34.6558L157.434 35.4612C157.051 35.1613 156.586 34.9848 156.101 34.9551C155.665 34.9551 155.442 35.151 155.442 35.4014C155.442 35.7387 155.66 35.8476 156.531 36.0761C157.57 36.3482 158.163 36.7183 158.163 37.6162C158.163 38.6392 157.385 39.2107 156.28 39.2107C155.478 39.2133 154.704 38.9208 154.104 38.3889" fill="#24488C"/>
<path d="M34.5566 1.39648H38.7741L52.6454 19.3002V1.39648H57.124V27.2888H53.3147L39.0298 8.86815V27.2888H34.5566V1.39648Z" fill="#24488C"/>
<path d="M57.3952 27.566H53.1777L39.3065 9.6623V27.566H34.2891V1.12402H38.9092L52.3669 18.5053V1.12402H57.3898L57.3952 27.566ZM53.4444 27.0218H56.851V1.66821H52.9111V20.0943L38.6371 1.66821H34.8278V27.0218H38.7623V8.07329L53.4444 27.0218Z" fill="#24488C"/>
<path d="M69.7369 1.39648H65.1875V27.2943H69.7369V1.39648Z" fill="#24488C"/>
<path d="M70.0096 27.566H64.916V1.12402H70.0096V27.566ZM65.4602 27.0218H69.4708V1.66821H65.4602V27.0218Z" fill="#24488C"/>
<path d="M76.0664 23.516L78.7873 20.2509C81.2688 22.395 83.783 23.6194 86.9501 23.6194C89.7636 23.6194 91.543 22.2862 91.543 20.3543V20.2781C91.543 18.4279 90.5037 17.4266 85.6931 16.3165C80.1805 14.9886 77.0732 13.3615 77.0732 8.58902V8.51284C77.0732 4.07228 80.7736 1.00307 85.9162 1.00307C89.3376 0.938304 92.67 2.09604 95.3143 4.26818L92.8981 7.70744C90.569 5.97149 88.2398 5.04636 85.8672 5.04636C83.2061 5.04636 81.6498 6.41228 81.6498 8.11558V8.19177C81.6498 10.1889 82.8361 11.0759 87.8317 12.2623C93.3062 13.5901 96.1197 15.5274 96.1197 19.8428V19.919C96.1197 24.7622 92.3104 27.6464 86.8685 27.6464C82.8764 27.6665 79.022 26.1887 76.0664 23.5051" fill="#24488C"/>
<path d="M86.869 27.936C82.8113 27.9504 78.8946 26.4482 75.8873 23.724L75.6914 23.5444L78.7715 19.8766L78.9837 20.0562C81.6176 22.3418 84.0882 23.3594 86.9778 23.3594C89.6008 23.3594 91.2987 22.1839 91.2987 20.3718V20.3011C91.2987 18.6685 90.4497 17.7107 85.6609 16.6061C80.0667 15.2565 76.8288 13.5151 76.8288 8.60651V8.53577C76.8288 3.95372 80.5782 0.753918 85.9439 0.753918C89.4247 0.690329 92.8151 1.8648 95.5107 4.06801L95.712 4.23126L92.9584 8.10587L92.7353 7.93718C90.3844 6.1849 88.1369 5.33052 85.8677 5.33052C83.5114 5.33052 81.9223 6.45154 81.9223 8.12763V8.20382C81.9223 9.96698 82.8257 10.805 87.9084 12.0131C93.9434 13.4824 96.4031 15.7517 96.4031 19.8603V19.9365C96.4031 24.796 92.67 27.9414 86.8853 27.9414M76.4478 23.49C79.3289 26.0189 83.0355 27.4067 86.869 27.3918C92.3108 27.3918 95.8481 24.4586 95.8481 19.931V19.8548C95.8481 16.002 93.5788 13.9504 87.7669 12.5355C82.7549 11.3492 81.3782 10.4132 81.3782 8.18205V8.10587C81.3782 6.13592 83.2284 4.76456 85.8677 4.76456C88.1859 4.76456 90.4661 5.59717 92.8387 7.3168L94.9719 4.3129C92.411 2.27473 89.216 1.20007 85.9439 1.27633C80.8993 1.27633 77.373 4.25304 77.373 8.51401V8.58474C77.373 13.1559 80.3333 14.7395 85.7861 16.0564C90.4225 17.1448 91.8429 18.1134 91.8429 20.2793V20.3501C91.8429 22.4615 89.8892 23.8764 86.9778 23.8764C84.0664 23.8764 81.5033 22.8751 78.815 20.6113L76.4478 23.49Z" fill="#24488C"/>
<path d="M101.486 14.4178V14.3416C101.486 7.05499 107.107 0.949219 115.063 0.949219C123.019 0.949219 128.553 6.9788 128.553 14.2709V14.3416C128.553 21.6283 122.932 27.734 114.976 27.734C107.02 27.734 101.475 21.7045 101.475 14.4178M123.786 14.4178V14.3416C123.786 9.31336 120.124 5.12858 114.981 5.12858C109.839 5.12858 106.274 9.23717 106.274 14.2709V14.3416C106.274 19.3754 109.937 23.5166 115.079 23.5166C120.222 23.5166 123.786 19.4461 123.786 14.4178Z" fill="#24488C"/>
<path d="M114.986 28.0062C107.134 28.0062 101.213 22.1671 101.213 14.4016V14.3254C101.205 12.513 101.559 10.7172 102.254 9.04348C102.95 7.36976 103.972 5.85186 105.263 4.57893C106.553 3.30599 108.084 2.30369 109.767 1.63086C111.45 0.958035 113.25 0.628256 115.063 0.660898C122.915 0.660898 128.836 6.50545 128.836 14.2655V14.3363C128.836 21.9984 122.757 28.0008 114.986 28.0008M115.063 1.21598C107.477 1.21598 101.757 6.85918 101.757 14.3363V14.4125C101.757 21.8461 107.444 27.4729 114.986 27.4729C122.529 27.4729 128.297 21.8352 128.297 14.3526V14.2819C128.297 6.84285 122.605 1.22141 115.063 1.22141M115.063 23.7888C109.887 23.7888 105.986 19.7292 105.986 14.3417V14.271C105.986 8.90532 109.855 4.85658 114.986 4.85658C120.118 4.85658 124.063 9.02504 124.063 14.3417V14.4179C124.063 19.7618 120.194 23.7888 115.063 23.7888ZM114.986 5.40077C110.165 5.40077 106.53 9.21006 106.53 14.271V14.3417C106.53 19.419 110.198 23.2446 115.063 23.2446C119.928 23.2446 123.519 19.4353 123.519 14.4179V14.3417C123.519 9.24816 119.851 5.40077 114.986 5.40077Z" fill="#24488C"/>
<path d="M135.23 1.39648H139.448L153.319 19.3002V1.39648H157.792V27.2888H153.983L139.704 8.86815V27.2888H135.23V1.39648Z" fill="#24488C"/>
<path d="M158.064 27.566H153.852L153.77 27.4572L139.98 9.6623V27.566H134.963V1.12402H139.583L153.041 18.5053V1.12402H158.058L158.064 27.566ZM154.118 27.0218H157.519V1.66821H153.585V20.0943L139.311 1.66821H135.502V27.0218H139.436V8.07329L154.118 27.0218Z" fill="#24488C"/>
<path d="M1.32227 2.51164V18.5488C1.32227 18.5488 2.51403 28.7577 16.5595 27.6095C16.5595 27.6095 24.9562 27.2068 25.8977 20.8289C26.8391 14.4511 26.3657 1.84229 26.3657 1.84229H18.3662L18.0288 18.4127L16.7118 21.8085C16.7118 21.8085 10.7857 24.1158 9.90952 18.7501C9.23473 14.6089 9.57755 2.38102 9.57755 2.38102L1.32227 2.51164Z" fill="#F7A61D"/>
<path d="M27.3335 0.716309C23.8562 0.716309 20.3734 0.716309 16.8961 0.716309C16.5696 0.716309 16.5696 0.716311 16.5696 1.05915C16.5696 6.67514 16.5696 12.2875 16.5696 17.8963C16.5782 19.4939 16.0265 21.0441 15.0103 22.277C13.9942 23.5099 12.5779 24.3476 11.008 24.6442C9.75018 24.8986 8.44515 24.7736 7.25853 24.285C6.43095 23.9623 5.67627 23.4774 5.0389 22.8587C4.40153 22.24 3.89435 21.5001 3.54719 20.6825C3.16162 19.8026 2.9651 18.8515 2.97036 17.8908C2.97036 14.4516 2.97036 7.08872 2.97036 3.65491C5.48994 3.65491 5.33756 3.65491 7.86803 3.65491C8.14012 3.65491 8.1782 3.73654 8.1782 3.98142C8.1782 8.27505 8.1782 12.5687 8.1782 16.8677C8.17691 17.5715 8.27773 18.2717 8.47751 18.9465C8.64756 19.663 9.00462 20.3216 9.51226 20.855C10.0199 21.3885 10.66 21.7777 11.3671 21.9831C11.7458 22.1254 12.1493 22.1902 12.5535 22.1735C12.5045 22.0974 12.4773 22.043 12.4446 21.9994C11.5464 20.7568 11.0783 19.255 11.1114 17.7221C11.1114 12.1605 11.1114 6.59895 11.1114 1.03738C11.1114 0.803376 11.0733 0.721761 10.8175 0.727203C9.64207 0.727203 8.46662 0.727203 7.29662 0.727203C4.03151 0.727203 3.63971 0.727203 0.352825 0.727203C0.124267 0.727203 0.0535184 0.787057 0.0589603 1.0265C0.0589603 1.64687 0.0589603 15.0665 0.0589603 17.6677C0.0259715 18.7963 0.184197 19.9223 0.526952 20.9981C0.702028 21.5616 0.927896 22.108 1.20175 22.6307C1.97263 24.0395 3.06985 25.2431 4.40155 26.1407C4.87813 26.4719 5.38678 26.7545 5.91983 26.9842C6.637 27.2791 7.3856 27.4909 8.151 27.6154C9.3694 27.8144 10.6137 27.7923 11.8243 27.5501C12.8085 27.3381 13.7527 26.9707 14.6214 26.4617C15.3729 26.0254 16.0643 25.493 16.6784 24.8782C17.7505 23.8256 18.5532 22.5301 19.0184 21.1015C19.3588 20.1329 19.5318 19.1134 19.5299 18.0867C19.5299 13.3704 19.5299 8.65417 19.5299 3.9379C19.5299 3.72022 19.5735 3.64948 19.8075 3.64948C21.3421 3.64948 22.8821 3.64948 24.4221 3.64948C24.6888 3.64948 24.7378 3.72566 24.7378 3.97055C24.7378 8.7884 24.7378 13.6026 24.7378 18.4132C24.75 19.2609 24.6494 20.1063 24.4385 20.9274C24.1949 21.8866 23.7761 22.7924 23.2032 23.5993C22.467 24.6282 21.5327 25.4997 20.455 26.1624C19.2261 26.8951 17.8653 27.3795 16.4498 27.5882L16.5641 27.6209C17.4669 27.7438 18.3822 27.7438 19.285 27.6209C20.3697 27.4765 21.421 27.1451 22.3923 26.6413C24.1493 25.7501 25.588 24.338 26.5118 22.598C26.85 21.9632 27.1235 21.2959 27.3281 20.6063C27.5691 19.7476 27.6863 18.8589 27.6764 17.967C27.6764 13.6135 27.6383 1.50538 27.6764 1.00473C27.6764 0.759843 27.6056 0.716309 27.3825 0.716309" fill="#24488C"/>
<path d="M11.3403 19.6807C11.3403 19.6807 11.6831 21.5962 15.0571 22.2492C15.0571 22.2492 11.7321 22.6519 10.0506 21.335C8.36903 20.0181 11.3403 19.7024 11.3403 19.7024" fill="#24488C"/>
<path d="M11.7058 27.5338C11.7058 27.5338 15.6947 27.8059 18.0183 27.2236L19.8522 27.5229C17.158 28.0615 14.3837 28.0615 11.6895 27.5229" fill="#24488C"/>
</svg>
