<svg width="11" height="10" viewBox="0 0 11 10" fill="none" xmlns="http://www.w3.org/2000/svg">
<path fill-rule="evenodd" clip-rule="evenodd" d="M0.74528 0.24528C1.07232 -0.08176 1.60256 -0.08176 1.9296 0.24528L5.5 3.81568L9.0704 0.24528C9.39744 -0.0817601 9.92768 -0.0817601 10.2547 0.24528C10.5818 0.57232 10.5818 1.10256 10.2547 1.4296L6.68432 5L10.2547 8.5704C10.5818 8.89744 10.5818 9.42768 10.2547 9.75472C9.92768 10.0818 9.39744 10.0818 9.0704 9.75472L5.5 6.18432L1.9296 9.75472C1.60256 10.0818 1.07232 10.0818 0.74528 9.75472C0.41824 9.42768 0.41824 8.89744 0.74528 8.5704L4.31568 5L0.74528 1.4296C0.41824 1.10256 0.41824 0.57232 0.74528 0.24528Z" fill="white"/>
</svg>
