<svg width="22" height="23" viewBox="0 0 22 23" fill="none" xmlns="http://www.w3.org/2000/svg">
<path d="M9.18359 8.58691L13.832 11.2285L9.18359 13.8701V8.58691ZM21.9375 2.625V19.8125C21.9375 21.1064 20.8877 22.1562 19.5938 22.1562H2.40625C1.1123 22.1562 0.0625 21.1064 0.0625 19.8125V2.625C0.0625 1.33105 1.1123 0.28125 2.40625 0.28125H19.5938C20.8877 0.28125 21.9375 1.33105 21.9375 2.625ZM19.8867 11.2334C19.8867 11.2334 19.8867 8.32324 19.5156 6.92676C19.3105 6.15527 18.71 5.5498 17.9434 5.34473C16.5615 4.96875 11 4.96875 11 4.96875C11 4.96875 5.43848 4.96875 4.05664 5.34473C3.29004 5.5498 2.68945 6.15527 2.48437 6.92676C2.11328 8.31836 2.11328 11.2334 2.11328 11.2334C2.11328 11.2334 2.11328 14.1436 2.48437 15.54C2.68945 16.3115 3.29004 16.8926 4.05664 17.0977C5.43848 17.4687 11 17.4688 11 17.4688C11 17.4688 16.5615 17.4687 17.9434 17.0928C18.71 16.8877 19.3105 16.3066 19.5156 15.5352C19.8867 14.1436 19.8867 11.2334 19.8867 11.2334V11.2334Z" fill="#F2F2F2"/>
</svg>
